<svg style="height: 512px; width: 512px;" xmlns="http://www.w3.org/2000/svg" viewBox="0 0 512 512"><g class="" style="" transform="translate(0,0)"><g><path d="M40 47C30.718 47 23 54.718 23 64C23 73.282 30.718 81 40 81C49.282 81 57 73.282 57 64C57 54.718 49.282 47 40 47Z" class="" fill="#ffffff" fill-opacity="0"></path><path d="M40 63C40.446 63 41 63.554 41 64C41 64.446 40.446 65 40 65C39.554 65 39 64.446 39 64C39 63.554 39.554 63 40 63Z" class="" fill="#4a4a4a" fill-opacity="0"></path><path d="M88 111C78.718 111 71 118.718 71 128C71 137.282 78.718 145 88 145C97.282 145 105 137.282 105 128C105 118.718 97.282 111 88 111Z" class="" fill="#ffffff" fill-opacity="0"></path><path d="M88 127C88.446 127 89 127.554 89 128C89 128.446 88.446 129 88 129C87.554 129 87 128.446 87 128C87 127.554 87.554 127 88 127Z" class="" fill="#b57204" fill-opacity="0"></path><path d="M48 167C34.3 167 23 178.3 23 192C23 205.7 34.3 217 48 217C61.7 217 73 205.7 73 192C73 178.3 61.7 167 48 167Z" class="selected" fill="#ffffff" fill-opacity="0"></path><path d="M48 185C51.973 185 55 188.027 55 192C55 195.973 51.973 199 48 199C44.027 199 41 195.973 41 192C41 188.027 44.027 185 48 185Z" class="" fill="#b57204" fill-opacity="0"></path><path d="M100.23 217L113.23 256L100.23 295L126.744 295L126.744 217L100.23 217Z" class="" fill="#ffffff" fill-opacity="1"></path><path d="M264.852 217L144.744 247.025L144.744 264.973L264.852 295L382.744 295L382.744 217L264.852 217Z" class="" fill="#ffffff" fill-opacity="1"></path><path d="M400.744 217L400.744 295L430.744 295L430.744 217L400.744 217Z" class="" fill="#ffffff" fill-opacity="1"></path><path d="M448.744 217L448.744 295L454.428 295C483.012 287.565 494.744 271.038 494.744 256C494.744 240.962 483.012 224.435 454.428 217L448.744 217Z" class="" fill="#ffffff" fill-opacity="1"></path></g></g></svg>