<?xml version="1.0" standalone="no"?>
<!DOCTYPE svg PUBLIC "-//W3C//DTD SVG 20010904//EN" "http://www.w3.org/TR/2001/REC-SVG-20010904/DTD/svg10.dtd">
<!-- Created using Krita: https://krita.org -->
<svg xmlns="http://www.w3.org/2000/svg" 
    xmlns:xlink="http://www.w3.org/1999/xlink"
    xmlns:krita="http://krita.org/namespaces/svg/krita"
    xmlns:sodipodi="http://sodipodi.sourceforge.net/DTD/sodipodi-0.dtd"
    width="312pt"
    height="312pt"
    viewBox="0 0 312 312">
<defs/>
<rect id="shape0" transform="matrix(0.377760323678328 0.00464689373386275 -0.000510831835838901 0.377754730629084 44.8140757286089 153.404127727477)" fill="#ffffff" fill-rule="evenodd" stroke-opacity="0" stroke="#000000" stroke-width="0" stroke-linecap="square" stroke-linejoin="bevel" width="24.9599978676448" height="40.56"/><path id="shape01" transform="matrix(0.377757729614882 0.00562627204367525 -0.00149023854780565 0.37774141313459 56.3049200100196 153.738039042239)" fill="#ffffff" fill-rule="evenodd" stroke-opacity="0" stroke="#000000" stroke-width="0" stroke-linecap="square" stroke-linejoin="bevel" d="M0 0.0711664C27.2505 0.0711664 54.501 0.0711664 81.7515 0.0711664C91.0631 0.0711664 100.538 -0.277135 104.775 0.567343C109.011 1.41182 124.689 13.187 124.689 19.8371C124.689 26.555 110.495 39.3745 105.102 39.6503C99.7095 39.9262 91.3263 40.1752 82.1462 40.1752C54.7641 40.1752 27.3821 40.1752 0 40.1752Z" sodipodi:nodetypes="cczszccc"/><rect id="shape1" transform="matrix(0.377759526908713 0.00506499042981207 -0.000928937255543045 0.377749356062949 12.6364730520458 190.604123438537)" fill="#ffffff" fill-rule="evenodd" stroke-opacity="0" stroke="#000000" stroke-width="0" stroke-linecap="square" stroke-linejoin="bevel" width="24.9599978676448" height="40.56"/><path id="shape02" transform="matrix(0.377755848837936 0.0060443533999261 -0.00190834049650461 0.377734954599125 24.1270799707802 190.950750111871)" fill="#ffffff" fill-rule="evenodd" stroke-opacity="0" stroke="#000000" stroke-width="0" stroke-linecap="square" stroke-linejoin="bevel" d="M0 0.0711664C27.2505 0.0711664 54.501 0.0711664 81.7515 0.0711664C91.0631 0.0711664 100.538 -0.277135 104.775 0.567343C109.011 1.41182 124.689 13.187 124.689 19.8371C124.689 26.555 110.495 39.3745 105.102 39.6503C99.7095 39.9262 91.3263 40.1752 82.1462 40.1752C54.7641 40.1752 27.3821 40.1752 0 40.1752Z" sodipodi:nodetypes="cczszccc"/><rect id="shape2" transform="matrix(0.377759526908713 0.00506499042981207 -0.000928937255543045 0.377749356062949 61.9917933093882 115.76451279566)" fill="#ffffff" fill-rule="evenodd" stroke-opacity="0" stroke="#000000" stroke-width="0" stroke-linecap="square" stroke-linejoin="bevel" width="24.9599978676448" height="40.56"/><path id="shape03" transform="matrix(0.377755848837936 0.0060443533999261 -0.00190834049650461 0.377734954599125 73.4824002281226 116.111139468995)" fill="#ffffff" fill-rule="evenodd" stroke-opacity="0" stroke="#000000" stroke-width="0" stroke-linecap="square" stroke-linejoin="bevel" d="M0 0.0711664C27.2505 0.0711664 54.501 0.0711664 81.7515 0.0711664C91.0631 0.0711664 100.538 -0.277135 104.775 0.567343C109.011 1.41182 124.689 13.187 124.689 19.8371C124.689 26.555 110.495 39.3745 105.102 39.6503C99.7095 39.9262 91.3263 40.1752 82.1462 40.1752C54.7641 40.1752 27.3821 40.1752 0 40.1752Z" sodipodi:nodetypes="cczszccc"/><rect id="shape04" transform="matrix(0.377759526908713 0.00506499042981207 -0.000928937255543045 0.377749356062949 117.549433114135 172.623420078236)" fill="#ffffff" fill-rule="evenodd" stroke-opacity="0" stroke="#000000" stroke-width="0" stroke-linecap="square" stroke-linejoin="bevel" width="24.9599978676448" height="40.56"/><path id="shape011" transform="matrix(0.377755848837936 0.0060443533999261 -0.00190834049650461 0.377734954599125 129.040040032818 172.970046761785)" fill="#ffffff" fill-rule="evenodd" stroke-opacity="0" stroke="#000000" stroke-width="0" stroke-linecap="square" stroke-linejoin="bevel" d="M0 0.0711664C27.2505 0.0711664 54.501 0.0711664 81.7515 0.0711664C91.0631 0.0711664 100.538 -0.277135 104.775 0.567343C109.011 1.41182 124.689 13.187 124.689 19.8371C124.689 26.555 110.495 39.3745 105.102 39.6503C99.7095 39.9262 91.3263 40.1752 82.1462 40.1752C54.7641 40.1752 27.3821 40.1752 0 40.1752Z" sodipodi:nodetypes="cczszccc"/><rect id="shape05" transform="matrix(0.377759526908713 0.00506499042981207 -0.000928937255543045 0.377749356062949 146.021194346364 137.259886515788)" fill="#ffffff" fill-rule="evenodd" stroke-opacity="0" stroke="#000000" stroke-width="0" stroke-linecap="square" stroke-linejoin="bevel" width="24.9599978676448" height="40.56"/><path id="shape012" transform="matrix(0.377755848837936 0.0060443533999261 -0.00190834049650461 0.377734954599125 157.511801264995 137.606513209552)" fill="#ffffff" fill-rule="evenodd" stroke-opacity="0" stroke="#000000" stroke-width="0" stroke-linecap="square" stroke-linejoin="bevel" d="M0 0.0711664C27.2505 0.0711664 54.501 0.0711664 81.7515 0.0711664C91.0631 0.0711664 100.538 -0.277135 104.775 0.567343C109.011 1.41182 124.689 13.187 124.689 19.8371C124.689 26.555 110.495 39.3745 105.102 39.6503C99.7095 39.9262 91.3263 40.1752 82.1462 40.1752C54.7641 40.1752 27.3821 40.1752 0 40.1752Z" sodipodi:nodetypes="cczszccc"/><rect id="shape06" transform="matrix(0.377759526908713 0.00506499042981207 -0.000928937255543045 0.377749356062949 142.559192020158 96.9666315851474)" fill="#ffffff" fill-rule="evenodd" stroke-opacity="0" stroke="#000000" stroke-width="0" stroke-linecap="square" stroke-linejoin="bevel" width="24.9599978676448" height="40.56"/><path id="shape013" transform="matrix(0.377755848837936 0.0060443533999261 -0.00190834049650461 0.377734954599125 154.049798938739 97.3132582891264)" fill="#ffffff" fill-rule="evenodd" stroke-opacity="0" stroke="#000000" stroke-width="0" stroke-linecap="square" stroke-linejoin="bevel" d="M0 0.0711664C27.2505 0.0711664 54.501 0.0711664 81.7515 0.0711664C91.0631 0.0711664 100.538 -0.277135 104.775 0.567343C109.011 1.41182 124.689 13.187 124.689 19.8371C124.689 26.555 110.495 39.3745 105.102 39.6503C99.7095 39.9262 91.3263 40.1752 82.1462 40.1752C54.7641 40.1752 27.3821 40.1752 0 40.1752Z" sodipodi:nodetypes="cczszccc"/><rect id="shape041" transform="matrix(0.377759526908713 0.00506499042981207 -0.000928937255543045 0.377749356062949 141.172460777777 213.131005384212)" fill="#ffffff" fill-rule="evenodd" stroke-opacity="0" stroke="#000000" stroke-width="0" stroke-linecap="square" stroke-linejoin="bevel" width="24.9599978676448" height="40.56"/><path id="shape0111" transform="matrix(0.377755848837936 0.0060443533999261 -0.00190834049650461 0.377734954599125 152.663067696409 213.477632077976)" fill="#ffffff" fill-rule="evenodd" stroke-opacity="0" stroke="#000000" stroke-width="0" stroke-linecap="square" stroke-linejoin="bevel" d="M0 0.0711664C27.2505 0.0711664 54.501 0.0711664 81.7515 0.0711664C91.0631 0.0711664 100.538 -0.277135 104.775 0.567343C109.011 1.41182 124.689 13.187 124.689 19.8371C124.689 26.555 110.495 39.3745 105.102 39.6503C99.7095 39.9262 91.3263 40.1752 82.1462 40.1752C54.7641 40.1752 27.3821 40.1752 0 40.1752Z" sodipodi:nodetypes="cczszccc"/><rect id="shape042" transform="matrix(0.377759526908713 0.00506499042981207 -0.000928937255543045 0.377749356062949 203.572458313734 187.211006407738)" fill="#ffffff" fill-rule="evenodd" stroke-opacity="0" stroke="#000000" stroke-width="0" stroke-linecap="square" stroke-linejoin="bevel" width="24.9599978676448" height="40.56"/><path id="shape0112" transform="matrix(0.377755848837936 0.0060443533999261 -0.00190834049650461 0.377734954599125 215.063065232366 187.557633101502)" fill="#ffffff" fill-rule="evenodd" stroke-opacity="0" stroke="#000000" stroke-width="0" stroke-linecap="square" stroke-linejoin="bevel" d="M0 0.0711664C27.2505 0.0711664 54.501 0.0711664 81.7515 0.0711664C91.0631 0.0711664 100.538 -0.277135 104.775 0.567343C109.011 1.41182 124.689 13.187 124.689 19.8371C124.689 26.555 110.495 39.3745 105.102 39.6503C99.7095 39.9262 91.3263 40.1752 82.1462 40.1752C54.7641 40.1752 27.3821 40.1752 0 40.1752Z" sodipodi:nodetypes="cczszccc"/><rect id="shape043" transform="matrix(0.377759526908713 0.00506499042981207 -0.000928937255543045 0.377749356062949 241.9724567974 153.131007753484)" fill="#ffffff" fill-rule="evenodd" stroke-opacity="0" stroke="#000000" stroke-width="0" stroke-linecap="square" stroke-linejoin="bevel" width="24.9599978676448" height="40.56"/><path id="shape0113" transform="matrix(0.377755848837936 0.0060443533999261 -0.00190834049650461 0.377734954599125 253.463063716032 153.477634447248)" fill="#ffffff" fill-rule="evenodd" stroke-opacity="0" stroke="#000000" stroke-width="0" stroke-linecap="square" stroke-linejoin="bevel" d="M0 0.0711664C27.2505 0.0711664 54.501 0.0711664 81.7515 0.0711664C91.0631 0.0711664 100.538 -0.277135 104.775 0.567343C109.011 1.41182 124.689 13.187 124.689 19.8371C124.689 26.555 110.495 39.3745 105.102 39.6503C99.7095 39.9262 91.3263 40.1752 82.1462 40.1752C54.7641 40.1752 27.3821 40.1752 0 40.1752Z" sodipodi:nodetypes="cczszccc"/><rect id="shape044" transform="matrix(0.377759526908713 0.00506499042981207 -0.000928937255543045 0.377749356062949 222.772457555567 121.931008985506)" fill="#ffffff" fill-rule="evenodd" stroke-opacity="0" stroke="#000000" stroke-width="0" stroke-linecap="square" stroke-linejoin="bevel" width="24.9599978676448" height="40.56"/><path id="shape0114" transform="matrix(0.377755848837936 0.0060443533999261 -0.00190834049650461 0.377734954599125 234.263064474199 122.27763567927)" fill="#ffffff" fill-rule="evenodd" stroke-opacity="0" stroke="#000000" stroke-width="0" stroke-linecap="square" stroke-linejoin="bevel" d="M0 0.0711664C27.2505 0.0711664 54.501 0.0711664 81.7515 0.0711664C91.0631 0.0711664 100.538 -0.277135 104.775 0.567343C109.011 1.41182 124.689 13.187 124.689 19.8371C124.689 26.555 110.495 39.3745 105.102 39.6503C99.7095 39.9262 91.3263 40.1752 82.1462 40.1752C54.7641 40.1752 27.3821 40.1752 0 40.1752Z" sodipodi:nodetypes="cczszccc"/>
</svg>
