<?xml version="1.0" standalone="no"?>
<!DOCTYPE svg PUBLIC "-//W3C//DTD SVG 20010904//EN" "http://www.w3.org/TR/2001/REC-SVG-20010904/DTD/svg10.dtd">
<!-- Created using Krita: https://krita.org -->
<svg xmlns="http://www.w3.org/2000/svg" 
    xmlns:xlink="http://www.w3.org/1999/xlink"
    xmlns:krita="http://krita.org/namespaces/svg/krita"
    xmlns:sodipodi="http://sodipodi.sourceforge.net/DTD/sodipodi-0.dtd"
    width="312pt"
    height="312pt"
    viewBox="0 0 312 312">
<defs/>
<rect id="shape0" transform="matrix(0.218970805807599 0.00269359697571804 -0.000296106424403291 0.218967563766487 39.4325557770256 190.872882430689)" fill="#ffffff" fill-rule="evenodd" stroke-opacity="0" stroke="#000000" stroke-width="0" stroke-linecap="square" stroke-linejoin="bevel" width="24.9599978676448" height="40.56"/><path id="shape01" transform="matrix(0.218969302144754 0.00326129888681853 -0.000863824798965437 0.218959844209091 46.0932855413401 191.066435928279)" fill="#ffffff" fill-rule="evenodd" stroke-opacity="0" stroke="#000000" stroke-width="0" stroke-linecap="square" stroke-linejoin="bevel" d="M0 0.0711664C27.2505 0.0711664 54.501 0.0711664 81.7515 0.0711664C91.0631 0.0711664 100.538 -0.277135 104.775 0.567343C109.011 1.41182 124.689 13.187 124.689 19.8371C124.689 26.555 110.495 39.3745 105.102 39.6503C99.7095 39.9262 91.3263 40.1752 82.1462 40.1752C54.7641 40.1752 27.3821 40.1752 0 40.1752Z" sodipodi:nodetypes="cczszccc"/><rect id="shape1" transform="matrix(0.218970343955802 0.00293594897691835 -0.000538463482375056 0.218964448370286 20.7806351135851 212.436060261472)" fill="#ffffff" fill-rule="evenodd" stroke-opacity="0" stroke="#000000" stroke-width="0" stroke-linecap="square" stroke-linejoin="bevel" width="24.9599978676448" height="40.56"/><path id="shape02" transform="matrix(0.21896821194227 0.00350364199628001 -0.00110617984495036 0.21895610048423 27.4412272893395 212.636984285129)" fill="#ffffff" fill-rule="evenodd" stroke-opacity="0" stroke="#000000" stroke-width="0" stroke-linecap="square" stroke-linejoin="bevel" d="M0 0.0711664C27.2505 0.0711664 54.501 0.0711664 81.7515 0.0711664C91.0631 0.0711664 100.538 -0.277135 104.775 0.567343C109.011 1.41182 124.689 13.187 124.689 19.8371C124.689 26.555 110.495 39.3745 105.102 39.6503C99.7095 39.9262 91.3263 40.1752 82.1462 40.1752C54.7641 40.1752 27.3821 40.1752 0 40.1752Z" sodipodi:nodetypes="cczszccc"/><rect id="shape2" transform="matrix(0.218970343955802 0.00293594897691835 -0.000538463482375056 0.218964448370286 49.3897122723741 169.054876951305)" fill="#ffffff" fill-rule="evenodd" stroke-opacity="0" stroke="#000000" stroke-width="0" stroke-linecap="square" stroke-linejoin="bevel" width="24.9599978676448" height="40.56"/><path id="shape03" transform="matrix(0.21896821194227 0.00350364199628001 -0.00110617984495036 0.21895610048423 56.0503044481285 169.255800974962)" fill="#ffffff" fill-rule="evenodd" stroke-opacity="0" stroke="#000000" stroke-width="0" stroke-linecap="square" stroke-linejoin="bevel" d="M0 0.0711664C27.2505 0.0711664 54.501 0.0711664 81.7515 0.0711664C91.0631 0.0711664 100.538 -0.277135 104.775 0.567343C109.011 1.41182 124.689 13.187 124.689 19.8371C124.689 26.555 110.495 39.3745 105.102 39.6503C99.7095 39.9262 91.3263 40.1752 82.1462 40.1752C54.7641 40.1752 27.3821 40.1752 0 40.1752Z" sodipodi:nodetypes="cczszccc"/><rect id="shape04" transform="matrix(0.218970343955802 0.00293594897691835 -0.000538463482375056 0.218964448370286 81.5939973554549 202.013448735056)" fill="#ffffff" fill-rule="evenodd" stroke-opacity="0" stroke="#000000" stroke-width="0" stroke-linecap="square" stroke-linejoin="bevel" width="24.9599978676448" height="40.56"/><path id="shape011" transform="matrix(0.21896821194227 0.00350364199628001 -0.00110617984495036 0.21895610048423 88.2545895311796 202.214372764633)" fill="#ffffff" fill-rule="evenodd" stroke-opacity="0" stroke="#000000" stroke-width="0" stroke-linecap="square" stroke-linejoin="bevel" d="M0 0.0711664C27.2505 0.0711664 54.501 0.0711664 81.7515 0.0711664C91.0631 0.0711664 100.538 -0.277135 104.775 0.567343C109.011 1.41182 124.689 13.187 124.689 19.8371C124.689 26.555 110.495 39.3745 105.102 39.6503C99.7095 39.9262 91.3263 40.1752 82.1462 40.1752C54.7641 40.1752 27.3821 40.1752 0 40.1752Z" sodipodi:nodetypes="cczszccc"/><rect id="shape05" transform="matrix(0.218970343955802 0.00293594897691835 -0.000538463482375056 0.218964448370286 98.09780707024 181.514786077812)" fill="#ffffff" fill-rule="evenodd" stroke-opacity="0" stroke="#000000" stroke-width="0" stroke-linecap="square" stroke-linejoin="bevel" width="24.9599978676448" height="40.56"/><path id="shape012" transform="matrix(0.21896821194227 0.00350364199628001 -0.00110617984495036 0.21895610048423 104.758399245935 181.715710113311)" fill="#ffffff" fill-rule="evenodd" stroke-opacity="0" stroke="#000000" stroke-width="0" stroke-linecap="square" stroke-linejoin="bevel" d="M0 0.0711664C27.2505 0.0711664 54.501 0.0711664 81.7515 0.0711664C91.0631 0.0711664 100.538 -0.277135 104.775 0.567343C109.011 1.41182 124.689 13.187 124.689 19.8371C124.689 26.555 110.495 39.3745 105.102 39.6503C99.7095 39.9262 91.3263 40.1752 82.1462 40.1752C54.7641 40.1752 27.3821 40.1752 0 40.1752Z" sodipodi:nodetypes="cczszccc"/><rect id="shape06" transform="matrix(0.218970343955802 0.00293594897691835 -0.000538463482375056 0.218964448370286 96.0910387794477 158.158583883623)" fill="#ffffff" fill-rule="evenodd" stroke-opacity="0" stroke="#000000" stroke-width="0" stroke-linecap="square" stroke-linejoin="bevel" width="24.9599978676448" height="40.56"/><path id="shape013" transform="matrix(0.21896821194227 0.00350364199628001 -0.00110617984495036 0.21895610048423 102.751630955113 158.359507925042)" fill="#ffffff" fill-rule="evenodd" stroke-opacity="0" stroke="#000000" stroke-width="0" stroke-linecap="square" stroke-linejoin="bevel" d="M0 0.0711664C27.2505 0.0711664 54.501 0.0711664 81.7515 0.0711664C91.0631 0.0711664 100.538 -0.277135 104.775 0.567343C109.011 1.41182 124.689 13.187 124.689 19.8371C124.689 26.555 110.495 39.3745 105.102 39.6503C99.7095 39.9262 91.3263 40.1752 82.1462 40.1752C54.7641 40.1752 27.3821 40.1752 0 40.1752Z" sodipodi:nodetypes="cczszccc"/><rect id="shape041" transform="matrix(0.218970343955802 0.00293594897691835 -0.000538463482375056 0.218964448370286 95.2872125474443 225.493888685448)" fill="#ffffff" fill-rule="evenodd" stroke-opacity="0" stroke="#000000" stroke-width="0" stroke-linecap="square" stroke-linejoin="bevel" width="24.9599978676448" height="40.56"/><path id="shape0111" transform="matrix(0.21896821194227 0.00350364199628001 -0.00110617984495036 0.21895610048423 101.947804723139 225.694812720947)" fill="#ffffff" fill-rule="evenodd" stroke-opacity="0" stroke="#000000" stroke-width="0" stroke-linecap="square" stroke-linejoin="bevel" d="M0 0.0711664C27.2505 0.0711664 54.501 0.0711664 81.7515 0.0711664C91.0631 0.0711664 100.538 -0.277135 104.775 0.567343C109.011 1.41182 124.689 13.187 124.689 19.8371C124.689 26.555 110.495 39.3745 105.102 39.6503C99.7095 39.9262 91.3263 40.1752 82.1462 40.1752C54.7641 40.1752 27.3821 40.1752 0 40.1752Z" sodipodi:nodetypes="cczszccc"/><rect id="shape042" transform="matrix(0.218970343955802 0.00293594897691835 -0.000538463482375056 0.218964448370286 131.457707134578 210.4692217031)" fill="#ffffff" fill-rule="evenodd" stroke-opacity="0" stroke="#000000" stroke-width="0" stroke-linecap="square" stroke-linejoin="bevel" width="24.9599978676448" height="40.56"/><path id="shape0112" transform="matrix(0.21896821194227 0.00350364199628001 -0.00110617984495036 0.21895610048423 138.118299310273 210.670145738599)" fill="#ffffff" fill-rule="evenodd" stroke-opacity="0" stroke="#000000" stroke-width="0" stroke-linecap="square" stroke-linejoin="bevel" d="M0 0.0711664C27.2505 0.0711664 54.501 0.0711664 81.7515 0.0711664C91.0631 0.0711664 100.538 -0.277135 104.775 0.567343C109.011 1.41182 124.689 13.187 124.689 19.8371C124.689 26.555 110.495 39.3745 105.102 39.6503C99.7095 39.9262 91.3263 40.1752 82.1462 40.1752C54.7641 40.1752 27.3821 40.1752 0 40.1752Z" sodipodi:nodetypes="cczszccc"/><rect id="shape043" transform="matrix(0.218970343955802 0.00293594897691835 -0.000538463482375056 0.218964448370286 153.716473034352 190.71456696705)" fill="#ffffff" fill-rule="evenodd" stroke-opacity="0" stroke="#000000" stroke-width="0" stroke-linecap="square" stroke-linejoin="bevel" width="24.9599978676448" height="40.56"/><path id="shape0113" transform="matrix(0.21896821194227 0.00350364199628001 -0.00110617984495036 0.21895610048423 160.377065210047 190.915491002549)" fill="#ffffff" fill-rule="evenodd" stroke-opacity="0" stroke="#000000" stroke-width="0" stroke-linecap="square" stroke-linejoin="bevel" d="M0 0.0711664C27.2505 0.0711664 54.501 0.0711664 81.7515 0.0711664C91.0631 0.0711664 100.538 -0.277135 104.775 0.567343C109.011 1.41182 124.689 13.187 124.689 19.8371C124.689 26.555 110.495 39.3745 105.102 39.6503C99.7095 39.9262 91.3263 40.1752 82.1462 40.1752C54.7641 40.1752 27.3821 40.1752 0 40.1752Z" sodipodi:nodetypes="cczszccc"/><rect id="shape044" transform="matrix(0.218970343955802 0.00293594897691835 -0.000538463482375056 0.218964448370286 142.587090084465 172.629319673484)" fill="#ffffff" fill-rule="evenodd" stroke-opacity="0" stroke="#000000" stroke-width="0" stroke-linecap="square" stroke-linejoin="bevel" width="24.9599978676448" height="40.56"/><path id="shape0114" transform="matrix(0.21896821194227 0.00350364199628001 -0.00110617984495036 0.21895610048423 149.24768226016 172.830243708983)" fill="#ffffff" fill-rule="evenodd" stroke-opacity="0" stroke="#000000" stroke-width="0" stroke-linecap="square" stroke-linejoin="bevel" d="M0 0.0711664C27.2505 0.0711664 54.501 0.0711664 81.7515 0.0711664C91.0631 0.0711664 100.538 -0.277135 104.775 0.567343C109.011 1.41182 124.689 13.187 124.689 19.8371C124.689 26.555 110.495 39.3745 105.102 39.6503C99.7095 39.9262 91.3263 40.1752 82.1462 40.1752C54.7641 40.1752 27.3821 40.1752 0 40.1752Z" sodipodi:nodetypes="cczszccc"/><rect id="shape07" transform="matrix(0.218970805807599 0.00269359697571804 -0.000296106424403291 0.218967563766487 154.044671665788 113.589855743815)" fill="#ffffff" fill-rule="evenodd" stroke-opacity="0" stroke="#000000" stroke-width="0" stroke-linecap="square" stroke-linejoin="bevel" width="24.9599978676448" height="40.56"/><path id="shape014" transform="matrix(0.218969302144754 0.00326129888681853 -0.000863824798965437 0.218959844209091 160.705401430079 113.783409247327)" fill="#ffffff" fill-rule="evenodd" stroke-opacity="0" stroke="#000000" stroke-width="0" stroke-linecap="square" stroke-linejoin="bevel" d="M0 0.0711664C27.2505 0.0711664 54.501 0.0711664 81.7515 0.0711664C91.0631 0.0711664 100.538 -0.277135 104.775 0.567343C109.011 1.41182 124.689 13.187 124.689 19.8371C124.689 26.555 110.495 39.3745 105.102 39.6503C99.7095 39.9262 91.3263 40.1752 82.1462 40.1752C54.7641 40.1752 27.3821 40.1752 0 40.1752Z" sodipodi:nodetypes="cczszccc"/><rect id="shape11" transform="matrix(0.218970343955802 0.00293594897691835 -0.000538463482375056 0.218964448370286 135.392751002348 135.153033574598)" fill="#ffffff" fill-rule="evenodd" stroke-opacity="0" stroke="#000000" stroke-width="0" stroke-linecap="square" stroke-linejoin="bevel" width="24.9599978676448" height="40.56"/><path id="shape021" transform="matrix(0.21896821194227 0.00350364199628001 -0.00110617984495036 0.21895610048423 142.053343178072 135.353957604177)" fill="#ffffff" fill-rule="evenodd" stroke-opacity="0" stroke="#000000" stroke-width="0" stroke-linecap="square" stroke-linejoin="bevel" d="M0 0.0711664C27.2505 0.0711664 54.501 0.0711664 81.7515 0.0711664C91.0631 0.0711664 100.538 -0.277135 104.775 0.567343C109.011 1.41182 124.689 13.187 124.689 19.8371C124.689 26.555 110.495 39.3745 105.102 39.6503C99.7095 39.9262 91.3263 40.1752 82.1462 40.1752C54.7641 40.1752 27.3821 40.1752 0 40.1752Z" sodipodi:nodetypes="cczszccc"/><rect id="shape21" transform="matrix(0.218970343955802 0.00293594897691835 -0.000538463482375056 0.218964448370286 164.001828161137 91.7718502644314)" fill="#ffffff" fill-rule="evenodd" stroke-opacity="0" stroke="#000000" stroke-width="0" stroke-linecap="square" stroke-linejoin="bevel" width="24.9599978676448" height="40.56"/><path id="shape031" transform="matrix(0.21896821194227 0.00350364199628001 -0.00110617984495036 0.21895610048423 170.662420336861 91.9727742940096)" fill="#ffffff" fill-rule="evenodd" stroke-opacity="0" stroke="#000000" stroke-width="0" stroke-linecap="square" stroke-linejoin="bevel" d="M0 0.0711664C27.2505 0.0711664 54.501 0.0711664 81.7515 0.0711664C91.0631 0.0711664 100.538 -0.277135 104.775 0.567343C109.011 1.41182 124.689 13.187 124.689 19.8371C124.689 26.555 110.495 39.3745 105.102 39.6503C99.7095 39.9262 91.3263 40.1752 82.1462 40.1752C54.7641 40.1752 27.3821 40.1752 0 40.1752Z" sodipodi:nodetypes="cczszccc"/><rect id="shape045" transform="matrix(0.218970343955802 0.00293594897691835 -0.000538463482375056 0.218964448370286 196.206113244218 124.730422048182)" fill="#ffffff" fill-rule="evenodd" stroke-opacity="0" stroke="#000000" stroke-width="0" stroke-linecap="square" stroke-linejoin="bevel" width="24.9599978676448" height="40.56"/><path id="shape0115" transform="matrix(0.21896821194227 0.00350364199628001 -0.00110617984495036 0.21895610048423 202.866705419912 124.931346083681)" fill="#ffffff" fill-rule="evenodd" stroke-opacity="0" stroke="#000000" stroke-width="0" stroke-linecap="square" stroke-linejoin="bevel" d="M0 0.0711664C27.2505 0.0711664 54.501 0.0711664 81.7515 0.0711664C91.0631 0.0711664 100.538 -0.277135 104.775 0.567343C109.011 1.41182 124.689 13.187 124.689 19.8371C124.689 26.555 110.495 39.3745 105.102 39.6503C99.7095 39.9262 91.3263 40.1752 82.1462 40.1752C54.7641 40.1752 27.3821 40.1752 0 40.1752Z" sodipodi:nodetypes="cczszccc"/><rect id="shape051" transform="matrix(0.218970343955802 0.00293594897691835 -0.000538463482375056 0.218964448370286 212.709922959003 104.231759390938)" fill="#ffffff" fill-rule="evenodd" stroke-opacity="0" stroke="#000000" stroke-width="0" stroke-linecap="square" stroke-linejoin="bevel" width="24.9599978676448" height="40.56"/><path id="shape0121" transform="matrix(0.21896821194227 0.00350364199628001 -0.00110617984495036 0.21895610048423 219.370515134668 104.432683432359)" fill="#ffffff" fill-rule="evenodd" stroke-opacity="0" stroke="#000000" stroke-width="0" stroke-linecap="square" stroke-linejoin="bevel" d="M0 0.0711664C27.2505 0.0711664 54.501 0.0711664 81.7515 0.0711664C91.0631 0.0711664 100.538 -0.277135 104.775 0.567343C109.011 1.41182 124.689 13.187 124.689 19.8371C124.689 26.555 110.495 39.3745 105.102 39.6503C99.7095 39.9262 91.3263 40.1752 82.1462 40.1752C54.7641 40.1752 27.3821 40.1752 0 40.1752Z" sodipodi:nodetypes="cczszccc"/><rect id="shape061" transform="matrix(0.218970343955802 0.00293594897691835 -0.000538463482375056 0.218964448370286 210.70315466821 80.8755571967494)" fill="#ffffff" fill-rule="evenodd" stroke-opacity="0" stroke="#000000" stroke-width="0" stroke-linecap="square" stroke-linejoin="bevel" width="24.9599978676448" height="40.56"/><path id="shape0131" transform="matrix(0.21896821194227 0.00350364199628001 -0.00110617984495036 0.21895610048423 217.363746843846 81.0764812440896)" fill="#ffffff" fill-rule="evenodd" stroke-opacity="0" stroke="#000000" stroke-width="0" stroke-linecap="square" stroke-linejoin="bevel" d="M0 0.0711664C27.2505 0.0711664 54.501 0.0711664 81.7515 0.0711664C91.0631 0.0711664 100.538 -0.277135 104.775 0.567343C109.011 1.41182 124.689 13.187 124.689 19.8371C124.689 26.555 110.495 39.3745 105.102 39.6503C99.7095 39.9262 91.3263 40.1752 82.1462 40.1752C54.7641 40.1752 27.3821 40.1752 0 40.1752Z" sodipodi:nodetypes="cczszccc"/><rect id="shape0411" transform="matrix(0.218970343955802 0.00293594897691835 -0.000538463482375056 0.218964448370286 209.899328436207 148.210861998574)" fill="#ffffff" fill-rule="evenodd" stroke-opacity="0" stroke="#000000" stroke-width="0" stroke-linecap="square" stroke-linejoin="bevel" width="24.9599978676448" height="40.56"/><path id="shape01111" transform="matrix(0.21896821194227 0.00350364199628001 -0.00110617984495036 0.21895610048423 216.559920611872 148.411786039995)" fill="#ffffff" fill-rule="evenodd" stroke-opacity="0" stroke="#000000" stroke-width="0" stroke-linecap="square" stroke-linejoin="bevel" d="M0 0.0711664C27.2505 0.0711664 54.501 0.0711664 81.7515 0.0711664C91.0631 0.0711664 100.538 -0.277135 104.775 0.567343C109.011 1.41182 124.689 13.187 124.689 19.8371C124.689 26.555 110.495 39.3745 105.102 39.6503C99.7095 39.9262 91.3263 40.1752 82.1462 40.1752C54.7641 40.1752 27.3821 40.1752 0 40.1752Z" sodipodi:nodetypes="cczszccc"/><rect id="shape0421" transform="matrix(0.218970343955802 0.00293594897691835 -0.000538463482375056 0.218964448370286 246.069823023341 133.186195016226)" fill="#ffffff" fill-rule="evenodd" stroke-opacity="0" stroke="#000000" stroke-width="0" stroke-linecap="square" stroke-linejoin="bevel" width="24.9599978676448" height="40.56"/><path id="shape01121" transform="matrix(0.21896821194227 0.00350364199628001 -0.00110617984495036 0.21895610048423 252.730415199006 133.387119057647)" fill="#ffffff" fill-rule="evenodd" stroke-opacity="0" stroke="#000000" stroke-width="0" stroke-linecap="square" stroke-linejoin="bevel" d="M0 0.0711664C27.2505 0.0711664 54.501 0.0711664 81.7515 0.0711664C91.0631 0.0711664 100.538 -0.277135 104.775 0.567343C109.011 1.41182 124.689 13.187 124.689 19.8371C124.689 26.555 110.495 39.3745 105.102 39.6503C99.7095 39.9262 91.3263 40.1752 82.1462 40.1752C54.7641 40.1752 27.3821 40.1752 0 40.1752Z" sodipodi:nodetypes="cczszccc"/><rect id="shape0431" transform="matrix(0.218970343955802 0.00293594897691835 -0.000538463482375056 0.218964448370286 268.328588923115 113.431540280176)" fill="#ffffff" fill-rule="evenodd" stroke-opacity="0" stroke="#000000" stroke-width="0" stroke-linecap="square" stroke-linejoin="bevel" width="24.9599978676448" height="40.56"/><path id="shape01131" transform="matrix(0.21896821194227 0.00350364199628001 -0.00110617984495036 0.21895610048423 274.98918109878 113.632464321597)" fill="#ffffff" fill-rule="evenodd" stroke-opacity="0" stroke="#000000" stroke-width="0" stroke-linecap="square" stroke-linejoin="bevel" d="M0 0.0711664C27.2505 0.0711664 54.501 0.0711664 81.7515 0.0711664C91.0631 0.0711664 100.538 -0.277135 104.775 0.567343C109.011 1.41182 124.689 13.187 124.689 19.8371C124.689 26.555 110.495 39.3745 105.102 39.6503C99.7095 39.9262 91.3263 40.1752 82.1462 40.1752C54.7641 40.1752 27.3821 40.1752 0 40.1752Z" sodipodi:nodetypes="cczszccc"/><rect id="shape0441" transform="matrix(0.218970343955802 0.00293594897691835 -0.000538463482375056 0.218964448370286 257.199205973228 95.3462929866104)" fill="#ffffff" fill-rule="evenodd" stroke-opacity="0" stroke="#000000" stroke-width="0" stroke-linecap="square" stroke-linejoin="bevel" width="24.9599978676448" height="40.56"/><path id="shape01141" transform="matrix(0.21896821194227 0.00350364199628001 -0.00110617984495036 0.21895610048423 263.859798148893 95.5472170280306)" fill="#ffffff" fill-rule="evenodd" stroke-opacity="0" stroke="#000000" stroke-width="0" stroke-linecap="square" stroke-linejoin="bevel" d="M0 0.0711664C27.2505 0.0711664 54.501 0.0711664 81.7515 0.0711664C91.0631 0.0711664 100.538 -0.277135 104.775 0.567343C109.011 1.41182 124.689 13.187 124.689 19.8371C124.689 26.555 110.495 39.3745 105.102 39.6503C99.7095 39.9262 91.3263 40.1752 82.1462 40.1752C54.7641 40.1752 27.3821 40.1752 0 40.1752Z" sodipodi:nodetypes="cczszccc"/>
</svg>
