<?xml version="1.0" standalone="no"?>
<!DOCTYPE svg PUBLIC "-//W3C//DTD SVG 20010904//EN" "http://www.w3.org/TR/2001/REC-SVG-20010904/DTD/svg10.dtd">
<!-- Created using Krita: https://krita.org -->
<svg xmlns="http://www.w3.org/2000/svg" 
    xmlns:xlink="http://www.w3.org/1999/xlink"
    xmlns:krita="http://krita.org/namespaces/svg/krita"
    xmlns:sodipodi="http://sodipodi.sourceforge.net/DTD/sodipodi-0.dtd"
    width="216pt"
    height="216pt"
    viewBox="0 0 216 216">
<defs/>
<ellipse id="shape02" transform="translate(58.7699967258685, 63.7667986819255)" rx="21.5774979615961" ry="20.88" cx="21.5774979615961" cy="20.88" fill="none" stroke="#ffffff" stroke-width="5.04" stroke-linecap="square" stroke-linejoin="bevel"/><ellipse id="shape021" transform="matrix(-1 0 0 1 165.312746324275 62.5777146191659)" rx="21.3438775840615" ry="20.88" cx="21.3438775840615" cy="20.88" fill="none" stroke="#ffffff" stroke-width="5.04" stroke-linecap="square" stroke-linejoin="bevel"/><path id="shape0" transform="translate(65.7657531555207, 26.7933394909278)" fill="#ffffff" fill-rule="evenodd" stroke-opacity="0" stroke="#000000" stroke-width="0" stroke-linecap="square" stroke-linejoin="bevel" d="M47.5007 0.0155763L47.8694 118.933L18.8338 119.026L18.6902 78.6416C48.0093 77.365 41.1667 30.3959 11.3924 36.2408C9.66495 32.6105 5.86747 24.6714 0 12.4234C8.83774 7.65124 10.0189 5.5183 18.9091 2.63126C27.6403 -0.204135 39.2396 -0.0201707 47.5007 0.0155763Z" sodipodi:nodetypes="ccccccsc"/><path id="shape1" transform="translate(40.263288780016, 40.5986201944367)" fill="#ffffff" fill-rule="evenodd" stroke-opacity="0" stroke="#000000" stroke-width="0" stroke-linecap="square" stroke-linejoin="bevel" d="M40.8182 102.624L41.3269 64.611C13.9873 62.9896 13.433 29.6016 34.1435 23.6946L23.4316 0C10.0019 12.0258 2.40545 21.1766 0.642183 27.4522C-1.04877 33.4705 0.599655 44.7559 5.58744 61.3085L18.0359 67.4014C25.1785 74.0429 30.4444 81.6228 34.7134 89.7011C34.8043 89.6806 36.8393 93.9881 40.8182 102.624Z" sodipodi:nodetypes="ccccscccc"/><ellipse id="shape2" transform="matrix(0.944784407032532 -0.327692575790467 0.327692575790467 0.944784407032532 34.9716231059555 117.69025140723)" rx="12.8919727515388" ry="30.3739742578436" cx="12.8919727515388" cy="30.3739742578436" fill="none" stroke="#ffffff" stroke-width="5.04" stroke-linecap="square" stroke-linejoin="bevel"/><path id="shape3" transform="translate(77.5574989869724, 149.031992892203)" fill="#ffffff" fill-rule="evenodd" stroke-opacity="0" stroke="#000000" stroke-width="0" stroke-linecap="square" stroke-linejoin="bevel" d="M35.65 0.36294L34.803 38.4624C22.7768 38.7306 14.802 37.8999 10.8786 35.9703C4.13586 32.6541 2.17572 24.4781 0 21.6051C1.01926 17.2841 2.71802 10.0824 5.09629 0C5.31408 0.204632 16.5561 0.505611 35.65 0.36294Z" sodipodi:nodetypes="ccsccc"/><ellipse id="shape01" transform="matrix(0.944784407032532 -0.327692575790467 0.327692575790467 0.944784407032532 45.4341573284792 125.234571597651)" rx="7.41483550844516" ry="20.0047869200761" cx="7.41483550844516" cy="20.0047869200761" fill="#ffffff" stroke-opacity="0" stroke="#000000" stroke-width="0" stroke-linecap="square" stroke-linejoin="bevel"/><path id="shape03" transform="matrix(-1 0 0 1 158.676989868658 26.8309974356525)" fill="#ffffff" fill-rule="evenodd" stroke-opacity="0" stroke="#000000" stroke-width="0" stroke-linecap="square" stroke-linejoin="bevel" d="M47.5007 0.00383414L45.8219 118.943L18.8338 118.879L18.6902 78.4949C47.1841 75.259 41.7356 29.5405 11.3924 36.0941C9.66495 32.4638 5.86747 24.5247 0 12.2767C8.83774 7.50449 7.99386 5.37156 18.9091 2.48452C27.784 0.137148 39.2396 -0.0319129 47.5007 0.00383414Z" sodipodi:nodetypes="ccccccsc"/><path id="shape11" transform="matrix(-1 0 0 1 184.269454240356 40.4895360537857)" fill="#ffffff" fill-rule="evenodd" stroke-opacity="0" stroke="#000000" stroke-width="0" stroke-linecap="square" stroke-linejoin="bevel" d="M40.8182 102.624L41.3269 64.611C14.2106 62.2085 11.912 27.7087 34.9535 23.7846L23.4316 0C10.0019 12.0258 2.40545 21.1766 0.642183 27.4522C-1.04877 33.4705 0.599655 44.7559 5.58744 61.3085L18.0359 67.4014C25.1785 74.0429 30.4444 81.6228 34.7134 89.7011C34.8043 89.6806 36.8393 93.9881 40.8182 102.624Z" sodipodi:nodetypes="ccccscccc"/><ellipse id="shape21" transform="matrix(-0.944784407032532 -0.327692575790467 -0.327692575790467 0.944784407032532 189.471119918224 117.581167266579)" rx="12.8919727515388" ry="30.3739742578436" cx="12.8919727515388" cy="30.3739742578436" fill="none" stroke="#ffffff" stroke-width="5.04" stroke-linecap="square" stroke-linejoin="bevel"/><path id="shape31" transform="matrix(-1 0 0 1 146.885244037207 148.922908751552)" fill="#ffffff" fill-rule="evenodd" stroke-opacity="0" stroke="#000000" stroke-width="0" stroke-linecap="square" stroke-linejoin="bevel" d="M34.165 0.49794L35.478 38.3274C23.0018 38.6856 14.802 37.8999 10.8786 35.9703C7.98885 34.5491 4.36265 29.7607 0 21.6051L5.09629 0C5.31408 0.204632 14.0586 0.775611 34.165 0.49794Z" sodipodi:nodetypes="ccsccc"/><ellipse id="shape011" transform="matrix(-0.944784407032532 -0.327692575790467 -0.327692575790467 0.944784407032532 179.0085856957 125.125487457)" rx="7.41483550844516" ry="20.0047869200761" cx="7.41483550844516" cy="20.0047869200761" fill="#ffffff" stroke-opacity="0" stroke="#000000" stroke-width="0" stroke-linecap="square" stroke-linejoin="bevel"/><ellipse id="shape41" transform="matrix(-1.40227272727273 0 0 1.34130434782609 155.124202309969 72.5394563062505)" rx="7.92" ry="8.28" cx="7.92" cy="8.28" fill="#ffffff" stroke-opacity="0" stroke="#000000" stroke-width="0" stroke-linecap="square" stroke-linejoin="bevel"/><path id="shape4" transform="translate(100.439992756107, 27.2689539497927)" fill="#ffffff" fill-rule="evenodd" stroke-opacity="0" stroke="#000000" stroke-width="0" stroke-linecap="square" stroke-linejoin="bevel" d="M2.7 0L21.06 0.541044L22.68 118.081L0 118.081C0.54 116.461 1.44 77.1007 2.7 0Z" sodipodi:nodetypes="ccccc"/><path id="shape5" transform="translate(101.38499268796, 149.917493655612)" fill="#ffffff" fill-rule="evenodd" stroke-opacity="0" stroke="#000000" stroke-width="0" stroke-linecap="square" stroke-linejoin="bevel" d="M0 0L20.52 0.258116L22.14 36.3944L1.755 36.6525C1.755 36.6525 1.17 24.435 0 0Z" sodipodi:nodetypes="ccccc"/><ellipse id="shape411" transform="matrix(-1.40227272727273 0 0 1.34130434782609 91.8542069213668 73.4394562735278)" rx="7.92" ry="8.28" cx="7.92" cy="8.28" fill="#ffffff" stroke-opacity="0" stroke="#000000" stroke-width="0" stroke-linecap="square" stroke-linejoin="bevel"/>
</svg>
