<?xml version="1.0" standalone="no"?>
<!DOCTYPE svg PUBLIC "-//W3C//DTD SVG 20010904//EN" "http://www.w3.org/TR/2001/REC-SVG-20010904/DTD/svg10.dtd">
<!-- Created using Krita: https://krita.org -->
<svg xmlns="http://www.w3.org/2000/svg" 
    xmlns:xlink="http://www.w3.org/1999/xlink"
    xmlns:krita="http://krita.org/namespaces/svg/krita"
    xmlns:sodipodi="http://sodipodi.sourceforge.net/DTD/sodipodi-0.dtd"
    width="216pt"
    height="216pt"
    viewBox="0 0 216 216">
<defs/>
<path id="shape0" transform="matrix(-1 0 0 1 211.679340912623 86.399993768693)" fill="#ffffff" fill-rule="evenodd" stroke-opacity="0" stroke="#000000" stroke-width="0" stroke-linecap="square" stroke-linejoin="bevel" d="M0 93.78L71.82 92.88L71.28 0L48.96 0L59.76 7.92L11.88 88.2C11.64 90 7.68 91.86 0 93.78Z" sodipodi:nodetypes="ccccccc"/><path id="shape1" transform="matrix(-1.15736248285074 0 0 1.18979069873247 137.426546513371 132.916016369294)" fill="#ffffff" fill-rule="evenodd" stroke-opacity="0" stroke="#000000" stroke-width="0" stroke-linecap="square" stroke-linejoin="bevel" d="M18.2672 1.004L16.9852 1.087L15.7612 1.266L14.5932 1.532L13.4812 1.879L12.4232 2.299L11.4202 2.785L10.4692 3.331L9.5698 3.928L8.7215 4.57L7.9233 5.249L7.174 5.958L6.4727 6.691L5.8186 7.438L5.2107 8.195L4.6481 8.952L4.1297 9.704L3.6547 10.442L3.2221 11.16L2.8309 11.85L2.4803 12.505L2.1693 13.118L1.8969 13.682L1.6622 14.189L1.4963 14.578L1.3334 15.008L1.1746 15.477L1.0211 15.983L0.8741 16.524L0.7345 17.098L0.6036 17.703L0.4825 18.337L0.3723 18.999L0.2741 19.686L0.189 20.396L0.1182 21.129L0.0628 21.881L0.0239 22.651L0.0026 23.436L0 24.236L0.0174 25.048L0.0557 25.87L0.1162 26.7L0.1999 27.537L0.3079 28.378L0.4415 29.222L0.6017 30.066L0.7896 30.909L1.0063 31.749L1.253 32.584L1.5309 33.412L1.8409 34.23L2.1843 35.039L2.5622 35.834L3.0495 36.721L3.596 37.566L4.1967 38.368L4.8465 39.128L5.5404 39.847L6.2734 40.525L7.0406 41.163L7.8368 41.761L8.6571 42.321L9.4965 42.842L10.3502 43.325L11.2122 43.771L12.0792 44.181L12.9442 44.554L13.8042 44.892L14.6522 45.196L15.4852 45.465L16.2962 45.7L17.0822 45.902L17.8362 46.072L18.5552 46.21L19.2322 46.316L19.8632 46.392L20.4432 46.438L20.9672 46.454L21.8002 46.456L22.6412 46.457L23.4922 46.457L24.3512 46.455L25.2192 46.453L26.0952 46.45L26.9802 46.446L27.8742 46.441L28.7762 46.435L29.6872 46.428L30.6072 46.421L31.5352 46.413L32.4712 46.404L33.4162 46.394L34.3692 46.384L35.3312 46.373L36.3012 46.362L37.2792 46.35L38.2662 46.337L39.2612 46.324L40.2642 46.311L41.2762 46.297L42.2952 46.283L43.3232 46.268L44.3592 46.254L45.4032 46.239L46.4552 46.223L47.5152 46.208L48.5832 46.192L49.6592 46.177L50.7442 46.161L51.8362 46.145L52.9352 46.129L54.0432 46.113L55.1592 46.097L56.2822 46.082L57.4132 46.066L58.5522 46.051L59.6992 46.036L60.8532 46.021L62.0152 46.006L63.1852 45.992L64.3622 45.978L65.5472 45.964L66.7392 45.951L67.9392 45.938L69.1462 45.926L70.3612 45.914L71.5832 45.903L72.8132 45.892L74.0502 45.882L75.2942 45.873L76.5452 45.864L77.8042 45.856L79.0702 45.849L80.3442 45.843L81.6242 45.837L82.9122 45.833L84.2072 45.829L85.5092 45.826L86.8182 45.825L88.1342 45.824L89.4572 45.824L89.9132 45.812L90.4422 45.774L91.0362 45.71L91.6912 45.62L92.4002 45.504L93.1562 45.361L93.9552 45.191L94.7892 44.993L95.6532 44.767L96.5412 44.514L97.4462 44.231L98.3632 43.92L99.2862 43.58L100.208 43.21L101.124 42.811L102.027 42.381L102.911 41.921L103.77 41.429L104.599 40.907L105.391 40.353L106.14 39.767L106.839 39.149L107.484 38.499L108.068 37.815L108.585 37.098L109.028 36.348L109.392 35.564L109.769 34.587L110.111 33.618L110.419 32.657L110.695 31.707L110.939 30.766L111.152 29.837L111.336 28.919L111.492 28.014L111.621 27.123L111.724 26.246L111.802 25.385L111.857 24.539L111.888 23.71L111.898 22.898L111.888 22.105L111.858 21.331L111.81 20.577L111.745 19.844L111.664 19.132L111.569 18.443L111.459 17.777L111.337 17.135L111.203 16.518L111.059 15.926L110.905 15.36L110.743 14.822L110.574 14.312L110.399 13.831L110.22 13.379L110.036 12.957L109.85 12.567L109.662 12.209L109.418 11.769L109.164 11.321L108.897 10.866L108.613 10.405L108.31 9.939L107.984 9.468L107.633 8.994L107.253 8.517L106.84 8.037L106.392 7.557L105.907 7.077L105.379 6.597L104.807 6.118L104.187 5.641L103.517 5.168L102.792 4.698L102.01 4.232L101.168 3.773L100.263 3.319L99.2902 2.872L98.2492 2.434L97.1342 2.004L95.9432 1.584L94.6732 1.174L93.3212 0.775L91.5333 0.388L90.3572 0.014L90.3362 0.013L90.2762 0.013L90.1782 0.012L90.0412 0.011L89.8652 0.01L89.6522 0.008L89.4002 0.007L89.1102 0.006L88.7832 0.005L88.4172 0.003L88.0142 0.002L87.5742 0.001L87.0962 0.001L86.5812 0L86.0292 0L85.4392 0L84.8132 0L84.1502 0.001L83.4512 0.002L82.7152 0.004L81.9422 0.006L81.1342 0.008L80.2892 0.012L79.4082 0.015L78.4912 0.02L77.5392 0.025L76.5502 0.03L75.5272 0.037L74.4672 0.044L73.3732 0.052L72.2432 0.061L71.0792 0.07L69.8792 0.081L68.6452 0.092L67.3762 0.105L66.0722 0.118L64.7342 0.133L63.3622 0.149L61.9552 0.166L60.5152 0.184L59.0402 0.203L57.5322 0.223L55.9902 0.245L54.4142 0.268L52.8062 0.293L51.1632 0.318L49.4882 0.345L47.7792 0.374L46.0382 0.404L44.2632 0.436L42.4562 0.469L40.6172 0.504L38.7452 0.541L36.8412 0.579L34.9042 0.619L32.9352 0.66L30.9352 0.704L28.9022 0.749L26.8382 0.796L24.7422 0.845L22.6152 0.896L20.4572 0.949L18.2672 1.004M24.8062 6.616L23.4862 6.708L22.2422 6.915L21.0722 7.224L19.9742 7.624L18.9472 8.104L17.9902 8.653L17.1012 9.259L16.2782 9.911L15.5192 10.598L14.8242 11.309L14.1902 12.032L13.6162 12.756L13.1002 13.47L12.6402 14.162L12.2362 14.821L11.8852 15.436L11.5862 15.996L11.3382 16.489L11.1552 16.894L10.9772 17.355L10.8072 17.868L10.6462 18.43L10.4982 19.036L10.3642 19.684L10.247 20.369L10.1489 21.088L10.0721 21.838L10.019 22.614L9.9918 23.414L9.993 24.233L10.0247 25.067L10.0894 25.914L10.1892 26.77L10.3262 27.631L10.5042 28.493L10.7232 29.353L10.9872 30.207L11.2972 31.051L11.6572 31.883L12.0682 32.697L12.5702 33.523L13.1452 34.298L13.7852 35.024L14.4832 35.702L15.2312 36.332L16.0202 36.915L16.8442 37.453L17.6922 37.945L18.5592 38.393L19.4352 38.798L20.3142 39.16L21.1862 39.48L22.0452 39.76L22.8812 40L23.6882 40.201L24.4572 40.364L25.1802 40.489L25.8502 40.578L26.4582 40.631L26.9962 40.65L27.6722 40.651L28.3542 40.652L29.0442 40.652L29.7412 40.651L30.4452 40.649L31.1562 40.647L31.8742 40.644L32.5992 40.64L33.3312 40.636L34.0692 40.631L34.8152 40.625L35.5682 40.619L36.3272 40.612L37.0942 40.605L37.8672 40.597L38.6472 40.589L39.4342 40.581L40.2282 40.572L41.0282 40.562L41.8352 40.553L42.6492 40.543L43.4692 40.532L44.2962 40.522L45.1302 40.511L45.9702 40.5L46.8172 40.488L47.6702 40.477L48.5302 40.465L49.3962 40.454L50.2692 40.442L51.1492 40.43L52.0342 40.418L52.9262 40.406L53.8252 40.395L54.7302 40.383L55.6412 40.371L56.5582 40.359L57.4822 40.348L58.4122 40.337L59.3492 40.325L60.2912 40.314L61.2402 40.304L62.1952 40.293L63.1562 40.283L64.1232 40.273L65.0962 40.263L66.0752 40.254L67.0602 40.245L68.0522 40.237L69.0492 40.229L70.0522 40.222L71.0622 40.215L72.0772 40.208L73.0982 40.202L74.1252 40.197L75.1582 40.192L76.1962 40.188L77.2412 40.185L78.2912 40.182L79.3472 40.18L80.4092 40.178L81.4762 40.178L82.5502 40.178L83.0122 40.164L83.5612 40.121L84.1882 40.049L84.8822 39.947L85.6362 39.815L86.4412 39.652L87.2862 39.458L88.1632 39.233L89.0642 38.975L89.9782 38.685L90.8962 38.362L91.8112 38.005L92.7122 37.615L93.5912 37.19L94.4382 36.73L95.2442 36.235L96.0002 35.704L96.6982 35.136L97.3282 34.532L97.8812 33.891L98.3472 33.212L98.7192 32.495L99.1202 31.521L99.4712 30.558L99.7752 29.607L100.034 28.669L100.249 27.747L100.423 26.842L100.557 25.954L100.655 25.086L100.718 24.239L100.748 23.414L100.748 22.613L100.72 21.837L100.665 21.088L100.586 20.367L100.485 19.675L100.364 19.014L100.225 18.385L100.071 17.79L99.9032 17.23L99.7242 16.706L99.5362 16.221L99.3412 15.775L99.1412 15.369L98.9382 15.006L98.6822 14.581L98.4112 14.147L98.1212 13.705L97.8052 13.256L97.4582 12.802L97.0742 12.344L96.6492 11.883L96.1772 11.42L95.6522 10.958L95.0692 10.496L94.4222 10.037L93.7072 9.582L92.9182 9.132L92.0482 8.689L91.0942 8.253L90.0502 7.827L88.9092 7.41L87.6672 7.005L86.3192 6.614L84.8582 6.236L83.2802 5.875L83.2622 5.874L83.2142 5.874L83.1342 5.873L83.0232 5.872L82.8812 5.871L82.7072 5.87L82.5032 5.869L82.2682 5.868L82.0032 5.867L81.7062 5.867L81.3792 5.866L81.0222 5.865L80.6352 5.865L80.2172 5.864L79.7692 5.864L79.2912 5.864L78.7832 5.864L78.2452 5.865L77.6782 5.866L77.0812 5.867L76.4542 5.868L75.7982 5.87L75.1132 5.873L74.3992 5.875L73.6552 5.879L72.8822 5.882L72.0812 5.887L71.2502 5.891L70.3912 5.897L69.5042 5.903L68.5872 5.909L67.6432 5.917L66.6702 5.925L65.6682 5.933L64.6392 5.943L63.5822 5.953L62.4962 5.964L61.3832 5.976L60.2432 5.988L59.0742 6.002L57.8782 6.016L56.6552 6.031L55.4042 6.048L54.1262 6.065L52.8212 6.083L51.4892 6.102L50.1302 6.123L48.7442 6.144L47.3322 6.167L45.8922 6.191L44.4272 6.215L42.9352 6.242L41.4162 6.269L39.8722 6.298L38.3012 6.327L36.7042 6.359L35.0812 6.391L33.4332 6.425L31.7592 6.46L30.0592 6.497L28.3332 6.535L26.5832 6.575L24.8062 6.616" sodipodi:nodetypes="ccccccccccccccccccccccccccccccccccccccccccccccccccccccccccccccccccccccccccccccccccccccccccccccccccccccccccccccccccccccccccccccccccccccccccccccccccccccccccccccccccccccccccccccccccccccccccccccccccccccccccccccccccccccccccccccccccccccccccccccccccccccccccccccccccccccccccccccccccccccccccccccccccccccccccccccccccccccccccccccccccccccccccccccccccccccccccccccccccccccccccccccccccccccccccccccccccccccccccccccccccccccccccccccccccccccccccccccccccccccccccccccccccccccccccccccccccccccccccccccccccccccccccccccccccccccccccccccccccccccccccccccccccccccccccccccccc"/><ellipse id="shape2" transform="matrix(-1.15736248285074 0 0 1.18979069873247 117.951376421749 148.780672741687)" rx="11.1599953005581" ry="10.7100055108097" cx="11.1599953005581" cy="10.7100055108097" fill="none" stroke="#ffffff" stroke-width="8.382312" stroke-linecap="square" stroke-linejoin="bevel"/><ellipse id="shape01" transform="matrix(-1.15736248285074 0 0 1.18979069873247 86.9850100078525 148.383262540098)" rx="11.1599953005581" ry="10.7100055108097" cx="11.1599953005581" cy="10.7100055108097" fill="none" stroke="#ffffff" stroke-width="8.382312" stroke-linecap="square" stroke-linejoin="bevel"/><ellipse id="shape02" transform="matrix(-1.15736248285074 0 0 1.18979069873247 55.1112495289295 148.169100229772)" rx="11.1599953005581" ry="10.7100055108097" cx="11.1599953005581" cy="10.7100055108097" fill="none" stroke="#ffffff" stroke-width="8.382312" stroke-linecap="square" stroke-linejoin="bevel"/><path id="shape3" transform="matrix(-1 0 0 1 136.506846574241 38.3399983774977)" fill="#f7f7f7" fill-rule="evenodd" stroke-opacity="0" stroke="#000000" stroke-width="0" stroke-linecap="square" stroke-linejoin="bevel" d="M0 91.1664L0.273663 38.2774C1.77997 37.8843 1.49504 38.413 3.00135 38.0198C3.48799 37.8993 3.65816 50.2247 3.51186 74.9959L6.86742 75.0549C6.57597 49.6581 6.61126 36.9108 6.9733 36.8131C8.41067 36.438 8.33667 36.3543 9.77405 35.9792C10.3649 35.8388 10.416 48.8438 9.92737 74.9941L13.2059 74.9965C12.9901 48.5314 13.0418 35.2545 13.361 35.1661C14.0303 34.9908 15.4623 34.7771 16.9905 34.3564C17.4386 34.233 17.4796 47.78 17.1135 74.9973L20.5305 75.0646C20.1187 47.1592 20.0637 33.1648 20.3656 33.0815C21.9296 32.6498 23.2883 32.2757 23.9579 32.0966L23.9579 0L125.461 0.325304C125.497 5.66242 125.579 16.0492 125.707 31.4854L64.6164 31.8251L64.2723 88.1377L66.7052 88.2317L66.9494 34.6412L125.582 34.1979C125.526 60.3455 125.412 79.2267 125.238 90.8411C68.8137 91.7086 27.0677 91.817 0 91.1664Z" sodipodi:nodetypes="ccccccccccccccccccccccccc"/>
</svg>
