<?xml version="1.0" standalone="no"?>
<!DOCTYPE svg PUBLIC "-//W3C//DTD SVG 20010904//EN" "http://www.w3.org/TR/2001/REC-SVG-20010904/DTD/svg10.dtd">
<!-- Created using Krita: https://krita.org -->
<svg xmlns="http://www.w3.org/2000/svg" 
    xmlns:xlink="http://www.w3.org/1999/xlink"
    xmlns:krita="http://krita.org/namespaces/svg/krita"
    xmlns:sodipodi="http://sodipodi.sourceforge.net/DTD/sodipodi-0.dtd"
    width="216pt"
    height="216pt"
    viewBox="0 0 216 216">
<defs/>
<path id="shape3" transform="translate(112.249490360737, 8.53963996282481)" fill="#ffffff" fill-rule="evenodd" stroke-opacity="0" stroke="#000000" stroke-width="0" stroke-linecap="square" stroke-linejoin="bevel" d="M54.7888 0.0166684C54.713 7.41645 54.4628 8.098 54.6541 9.54311C67.7062 9.77485 66.1664 10.1754 70.5703 10.1779L70.8783 17.5464C65.4105 17.4514 59.8143 17.3091 54.0896 17.1191C54.892 22.9843 54.8418 25.9094 53.9389 25.8946C50.0486 25.8274 46.126 25.7601 42.1476 25.6928C41.8251 28.477 41.9749 30.8984 42.5323 33.0767C42.5703 34.2065 31.5669 41.1147 43.3834 35.6735C43.8302 36.7488 44.3777 37.7547 45.0251 38.7126C41.052 42.5793 40.1646 44.3035 46.707 40.8601C47.417 41.6679 48.1974 42.4505 49.0416 43.2237C49.5238 43.6574 45.9837 48.0019 46.5062 48.4374C47.0496 48.8904 50.7331 44.8392 51.3175 45.299C53.1983 46.7782 56.2087 48.9002 58.4544 50.5545C57.2431 51.7355 54.0086 53.544 48.755 55.6964C38.3704 50.0285 33.9562 32.8124 31.6691 26.2174C30.4897 25.8934 29.5534 26.0614 29.383 25.878C29.4198 25.792 29.2476 19.5453 29.0461 10.198C28.5427 10.1024 10.4499 10.2794 10.0641 10.2473C10.0259 10.244 10.0116 10.7228 10.0121 11.5036C10.0122 11.581 27.6605 11.4204 27.6608 11.5036C27.6752 15.0755 28.0317 25.8706 27.842 25.8596C25.6063 25.7307 21.0854 25.7593 17.2072 25.8283C16.5294 25.7934 1.03091 26.0777 0.306492 25.8725C-0.315097 13.5459 0.222471 5.9671 0.0966984 2.73111C3.7689 0.455223 6.83463 -0.218471 9.42888 0.440028C8.84573 2.06108 8.84656 2.98185 9.43141 3.20237C29.4959 3.91192 43.1076 4.33688 50.2666 4.47726C50.3669 3.11905 50.5705 1.62663 50.8775 0C52.7028 0.0077786 54.0067 0.0133348 54.7888 0.0166684Z" sodipodi:nodetypes="ccccccccccccccccccccccccccccccc"/><ellipse id="shape0" transform="translate(57.2115390069972, 46.1822435577752)" rx="56.16" ry="48.96" cx="56.16" cy="48.96" fill="none" stroke="#ffffff" stroke-width="432" stroke-linecap="square" stroke-linejoin="bevel"/><path id="shape1" transform="translate(37.2228212410501, 36.3853818615752)" fill="#f2f2f2" fill-rule="evenodd" stroke-opacity="0" stroke="#000000" stroke-width="0" stroke-linecap="square" stroke-linejoin="bevel" d="M0.00526164 34.6064L0 32.9634L0.0813944 31.3726L0.247082 29.833L0.494594 28.3439L0.821568 26.9045L1.22553 25.5139L1.70413 24.1713L2.25477 22.8759L2.87522 21.6268L3.56288 20.4233L4.31541 19.2644L5.13042 18.1495L6.00547 17.0775L6.93807 16.0478L7.92586 15.0595L8.96648 14.1117L10.0573 13.2038L11.196 12.3347L12.3802 11.5037L13.6075 10.71L14.8753 9.95289L16.1814 9.2312L17.5232 8.54436L18.8984 7.89152L20.3045 7.27184L21.739 6.68446L23.1997 6.12855L24.6839 5.60336L26.1893 5.10806L27.7136 4.64168L29.2543 4.2035L30.8088 3.79277L32.3749 3.40854L33.95 3.05007L35.5319 2.71642L37.1179 2.40684L38.7057 2.1206L40.293 1.85674L41.8772 1.61442L43.4559 1.3929L45.0268 1.19133L46.5873 1.00888L48.1351 0.844691L49.6676 0.698031L51.1827 0.567949L52.6777 0.45381L54.1502 0.354559L55.5979 0.269456L57.0184 0.197763L58.4089 0.138529L59.7675 0.0910154L61.0914 0.054377L62.3784 0.0277692L63.6259 0.010453L64.8321 0.00147821L65.9929 0L67.1075 0.00527932L68.1738 0.0165771L69.1875 0.0328374L70.1475 0.0534267L71.0505 0.0775004L71.8956 0.104214L72.6795 0.132616L74.345 0.201987L75.989 0.28086L77.6115 0.369552L79.2114 0.468487L80.7889 0.577769L82.3448 0.697926L83.8793 0.829275L85.3901 0.972028L86.8795 1.12661L88.3452 1.29343L89.7895 1.47272L91.2101 1.66478L92.6093 1.87004L93.9848 2.08881L95.3368 2.32142L96.6661 2.56818L97.973 2.8294L99.2561 3.10551L100.516 3.39671L101.752 3.70344L102.964 4.02611L104.154 4.36483L105.319 4.72013L106.46 5.09222L107.578 5.48152L108.672 5.88834L109.742 6.31301L110.788 6.75584L111.809 7.21714L112.805 7.69735L113.777 8.19677L114.725 8.71573L115.649 9.25443L116.548 9.81341L117.421 10.3929L118.27 10.9932L119.094 11.6147L119.893 12.2578L120.666 12.9227L121.414 13.6099L122.137 14.3195L122.834 15.052L123.506 15.8078L124.151 16.587L124.772 17.3901L125.367 18.2174L125.935 19.0693L126.477 19.946L126.994 20.8479L127.484 21.7755L127.948 22.7288L128.385 23.7084L128.797 24.7145L129.181 25.7475L129.539 26.8077L129.87 27.8956L130.174 29.0112L130.451 30.1551L130.701 31.3276L130.924 32.5288L131.12 33.7594L131.289 35.0195L131.429 36.3096L131.577 38.3901L131.608 40.4132L131.526 42.3793L131.338 44.2893L131.045 46.1437L130.651 47.9432L130.159 49.6886L129.575 51.3805L128.901 53.0196L128.14 54.6066L127.299 56.1422L126.377 57.6269L125.382 59.0617L124.314 60.447L123.181 61.7836L121.982 63.072L120.724 64.3137L119.409 65.5079L118.041 66.6567L116.625 67.76L115.162 68.818L113.659 69.8327L112.118 70.8041L110.542 71.7333L108.936 72.6202L107.303 73.4659L105.647 74.2716L103.971 75.036L102.28 75.7624L100.577 76.4498L98.8642 77.1002L97.1483 77.7126L95.4302 78.2881L93.7164 78.8287L92.008 79.3344L90.3092 79.8053L88.6244 80.2425L86.9579 80.6458L85.3117 81.0185L83.6914 81.3585L82.0989 81.6668L80.5387 81.9456L79.0149 82.1948L77.5309 82.4144L76.0899 82.6065L74.6961 82.7702L73.3528 82.9075L72.0642 83.0183L70.8336 83.1039L69.6653 83.1651L68.5614 83.201L67.5284 83.2137L66.5674 83.2042L65.6826 83.1714L64.8783 83.1176L64.1588 83.0437L63.5264 82.9486L62.9855 82.8346L62.5398 82.7016L62.1927 82.5506L61.9483 82.3827L61.81 82.1979L61.3092 81.7938C60.3907 72.0221 55.7947 66.551 47.5211 65.3803C36.3729 66.4035 35.3493 73.3154 34.5316 79.3202L32.598 78.9701L31.8522 78.6861L31.1039 78.4053L30.3538 78.1276L29.602 77.8509L28.8494 77.5743L28.0961 77.2977L27.3428 77.02L26.5899 76.7391L25.838 76.4551L25.0874 76.1668L24.3387 75.8733L23.5925 75.5724L22.8491 75.2651L22.1089 74.9494L21.3726 74.6242L20.6406 74.2895L19.9134 73.9421L19.1914 73.5842L18.4751 73.2115L17.7651 72.8261L17.0618 72.4248L16.3657 72.0078L15.6772 71.5728L14.997 71.1209L14.3253 70.6499L13.6628 70.1579L13.0098 69.6458L12.367 69.1115L11.7346 68.5541L11.1134 67.9733L10.5037 67.3673L9.90595 66.7359L9.32084 66.077L8.7485 65.3907L8.1898 64.6759L7.64495 63.9315L7.11449 63.1554L6.59907 62.3487L6.09889 61.5089L5.6146 60.6355L5.14674 59.7275L4.69564 58.7839L4.26193 57.8038L3.84605 56.7861L3.44831 55.73L3.06947 54.6344L2.70975 53.4984L2.36989 52.3209L2.05011 51.1011L1.75116 49.8378L1.47326 48.5302L1.21716 47.1774L0.983068 45.7782L0.771636 44.3318L0.583398 42.8372L0.418569 41.2933L0.278008 39.6993L0.161822 38.0541L0.0707637 36.3568L0.00526164 34.6064M109.5 37.6468L109.452 36.4128L109.308 35.2034L109.074 34.0218L108.752 32.8714L108.345 31.755L107.856 30.6761L107.29 29.6379L106.651 28.6435L105.941 27.6959L105.162 26.7988L104.32 25.9549L103.418 25.1677L102.458 24.4403L101.445 23.7758L100.381 23.1776L99.2701 22.6488L98.1168 22.1926L96.9228 21.812L95.6922 21.5106L94.4283 21.2913L93.1344 21.1574L91.8147 21.112L90.495 21.1574L89.201 21.2913L87.9372 21.5106L86.7066 21.812L85.5125 22.1926L84.3593 22.6488L83.2479 23.1776L82.1848 23.7758L81.1711 24.4403L80.2112 25.1677L79.3092 25.9549L78.4673 26.7988L77.6888 27.6959L76.9779 28.6435L76.339 29.6379L75.7731 30.6761L75.2845 31.755L74.8776 32.8714L74.5554 34.0218L74.3213 35.2034L74.1774 36.4128L74.1291 37.6468L74.1774 38.8808L74.3213 40.0902L74.5554 41.2718L74.8776 42.4223L75.2845 43.5386L75.7731 44.6175L76.339 45.6558L76.9779 46.6502L77.6888 47.5976L78.4673 48.4949L79.3092 49.3387L80.2112 50.126L81.1711 50.8533L82.1848 51.5178L83.2479 52.1161L84.3593 52.6448L85.5125 53.1011L86.7066 53.4816L87.9372 53.7831L89.201 54.0024L90.495 54.1362L91.8147 54.1816L93.1344 54.1362L94.4283 54.0024L95.6922 53.7831L96.9228 53.4816L98.1168 53.1011L99.2701 52.6448L100.381 52.1161L101.445 51.5178L102.458 50.8533L103.418 50.126L104.32 49.3387L105.162 48.4949L105.941 47.5976L106.651 46.6502L107.29 45.6558L107.856 44.6175L108.345 43.5386L108.752 42.4223L109.074 41.2718L109.308 40.0902L109.452 38.8808L109.5 37.6468" sodipodi:nodetypes="cccccccccccccccccccccccccccccccccccccccccccccccccccccccccccccccccccccccccccccccccccccccccccccccccccccccccccccccccccccccccccccccccccccccccccccccccccccccccccccccccccccccccccccccccccccccccccccccccccccccccccccccccccccccccccccccccccccccccccccccccccccccccccccccccccccccccccccccccccccccccccccccccccccccccccccccccccccccccccccccccccccccccccccccccccccc"/><ellipse id="shape04" transform="matrix(0.813160306867952 0 0 0.883298845046542 75.7870481251704 105.818948798207)" rx="10.8" ry="10.08" cx="10.8" cy="10.08" fill="none" stroke="#f7f7f7" stroke-width="5.76" stroke-linecap="square" stroke-linejoin="bevel"/><ellipse id="shape05" transform="matrix(0.813160306867952 0 0 0.883298845046542 42.8572221778982 104.742280653943)" rx="10.8" ry="10.08" cx="10.8" cy="10.08" fill="#f7f7f7" stroke="#f7f7f7" stroke-width="5.76" stroke-linecap="square" stroke-linejoin="bevel"/><ellipse id="shape06" transform="matrix(0.813160306867952 0 0 0.883298845046542 141.75975386581 103.866550851928)" rx="10.8" ry="10.08" cx="10.8" cy="10.08" fill="none" stroke="#f7f7f7" stroke-width="5.76" stroke-linecap="square" stroke-linejoin="bevel"/><ellipse id="shape07" transform="matrix(1.05794963993217 0 0 1.14567853584135 111.421261650132 101.003227914775)" rx="10.8" ry="10.08" cx="10.8" cy="10.08" fill="#f7f7f7" stroke-opacity="0" stroke="#000000" stroke-width="0" stroke-linecap="square" stroke-linejoin="bevel"/><path id="shape08" transform="matrix(0.798852072959102 -0.0393431786075901 0.0419778708439183 0.876100373051131 67.6807756848707 119.389041727168)" fill="#f7f7f7" fill-rule="evenodd" stroke-opacity="0" stroke="#000000" stroke-width="0" stroke-linecap="square" stroke-linejoin="bevel" d="M5.90341 0L0 34.2669C11.5725 25.1569 22.7086 34.7536 24.0321 39.5734L37.4384 1.52657C21.1992 19.7729 8.30908 6.22523 5.90341 0Z" sodipodi:nodetypes="ccccc"/><ellipse id="shape041" transform="matrix(0.813160306867952 0 0 0.883298845046542 68.4826244718172 149.988325141322)" rx="10.8" ry="10.08" cx="10.8" cy="10.08" fill="none" stroke="#f7f7f7" stroke-width="5.76" stroke-linecap="square" stroke-linejoin="bevel"/><path id="shape081" transform="matrix(0.73329153849585 -0.323720769298193 0.345399358263132 0.804200191972641 62.6060914110975 169.59506160183)" fill="#f7f7f7" fill-rule="evenodd" stroke-opacity="0" stroke="#000000" stroke-width="0" stroke-linecap="square" stroke-linejoin="bevel" d="M5.90341 0L0 34.2669C9.47317 38.3739 22.1217 38.4484 24.0321 39.5734L37.2015 1.6127C23.5468 18.54 8.30908 6.22523 5.90341 0Z" sodipodi:nodetypes="ccccc"/><path id="shape082" transform="matrix(0.798852072959102 -0.0393431786075901 0.0419778708439183 0.876100373051131 34.2012679120918 117.230672573638)" fill="#f7f7f7" fill-rule="evenodd" stroke-opacity="0" stroke="#000000" stroke-width="0" stroke-linecap="square" stroke-linejoin="bevel" d="M5.90341 0L0 34.2669C11.5725 25.1569 22.7086 34.7536 24.0321 39.5734L37.4384 1.52657C21.1992 19.7729 8.30908 6.22523 5.90341 0Z" sodipodi:nodetypes="ccccc"/><ellipse id="shape042" transform="matrix(0.813160306867952 0 0 0.883298845046542 35.0031166990383 147.829955987792)" rx="10.8" ry="10.08" cx="10.8" cy="10.08" fill="none" stroke="#f7f7f7" stroke-width="5.76" stroke-linecap="square" stroke-linejoin="bevel"/><path id="shape0811" transform="matrix(0.73329153849585 -0.323720769298193 0.345399358263132 0.804200191972641 29.1265836383187 167.436692448299)" fill="#f7f7f7" fill-rule="evenodd" stroke-opacity="0" stroke="#000000" stroke-width="0" stroke-linecap="square" stroke-linejoin="bevel" d="M5.90341 0L0 34.2669C9.47317 38.3739 22.1217 38.4484 24.0321 39.5734L37.2015 1.6127C23.5468 18.54 8.30908 6.22523 5.90341 0Z" sodipodi:nodetypes="ccccc"/><path id="shape083" transform="matrix(-0.757881962961698 0.259045820500979 0.276393326124114 0.83116848907953 140.284642103802 110.808156067197)" fill="#f7f7f7" fill-rule="evenodd" stroke-opacity="0" stroke="#000000" stroke-width="0" stroke-linecap="square" stroke-linejoin="bevel" d="M5.90341 0L0 32.2176C11.5725 23.6524 22.7086 32.6752 24.0321 37.2068L37.4384 1.43528C21.1992 18.5904 8.30908 5.85294 5.90341 0Z" sodipodi:nodetypes="ccccc"/><ellipse id="shape043" transform="matrix(-0.757035600905086 0.300969320714848 0.31806595321286 0.822333144265445 149.692816602353 138.059717851188)" rx="10.8" ry="10.08" cx="10.8" cy="10.08" fill="none" stroke="#f7f7f7" stroke-width="5.76" stroke-linecap="square" stroke-linejoin="bevel"/><path id="shape0812" transform="matrix(-0.711940970991368 -0.369474656118544 -0.394217242824738 0.78078504317514 158.697832277293 161.472030496657)" fill="#f7f7f7" fill-rule="evenodd" stroke-opacity="0" stroke="#000000" stroke-width="0" stroke-linecap="square" stroke-linejoin="bevel" d="M5.90341 0L0 34.2669C9.47317 38.3739 22.1217 38.4484 24.0321 39.5734L37.2015 1.6127C23.5468 18.54 8.30908 6.22523 5.90341 0Z" sodipodi:nodetypes="ccccc"/><path id="shape084" transform="matrix(-0.781370074106989 0.173040863248028 0.184628880157244 0.856927880127273 168.930331643645 112.088736201731)" fill="#f7f7f7" fill-rule="evenodd" stroke-opacity="0" stroke="#000000" stroke-width="0" stroke-linecap="square" stroke-linejoin="bevel" d="M6.25843 0L0 34.2669C12.2684 25.1569 24.0742 34.7536 25.4773 39.5734L39.6899 1.52657C22.4741 19.7729 8.80877 6.22523 6.25843 0Z" sodipodi:nodetypes="ccccc"/><ellipse id="shape044" transform="matrix(-0.785072935406213 0.214804757959135 0.227006792362273 0.852788818225254 175.308602814331 142.012357093598)" rx="10.8" ry="10.08" cx="10.8" cy="10.08" fill="none" stroke="#f7f7f7" stroke-width="5.76" stroke-linecap="square" stroke-linejoin="bevel"/><path id="shape0813" transform="matrix(-0.791158781545858 -0.118832538121538 -0.126790389436368 0.867663147054875 186.873416361681 159.897170267447)" fill="#f7f7f7" fill-rule="evenodd" stroke-opacity="0" stroke="#000000" stroke-width="0" stroke-linecap="square" stroke-linejoin="bevel" d="M7.43668 0L0 35.3185C9.47317 39.4255 28.4328 37.5888 30.3432 38.7138L38.7348 1.6127C25.0801 18.54 9.84235 6.22523 7.43668 0Z" sodipodi:nodetypes="ccccc"/><ellipse id="shape2" transform="translate(118.406921234291, 63.1503579952267)" rx="11.3052028639618" ry="10.4692124105012" cx="11.3052028639618" cy="10.4692124105012" fill="#f7f7f7" fill-rule="evenodd" stroke-opacity="0" stroke="#000000" stroke-width="0" stroke-linecap="square" stroke-linejoin="bevel"/><ellipse id="shape4" transform="translate(84.24, 64.8)" rx="2.52" ry="6.48" cx="2.52" cy="6.48" fill="#f2f2f2" fill-rule="evenodd" stroke="none" stroke-width="1.152" stroke-linecap="square" stroke-linejoin="bevel"/><path id="shape31" transform="translate(30.2816613480854, 8.36999987377662)" fill="#ffffff" fill-rule="evenodd" stroke-opacity="0" stroke="#000000" stroke-width="0" stroke-linecap="square" stroke-linejoin="bevel" d="M54.7888 0.0166684C54.713 7.41645 54.4628 8.098 54.6541 9.54311C67.7062 9.77485 66.1664 10.1754 70.5703 10.1779L70.8783 17.5464C65.4105 17.4514 59.8143 17.3091 54.0896 17.1191C54.892 22.9843 54.8418 25.9094 53.9389 25.8946C50.0486 25.8274 46.126 25.7601 42.1476 25.6928C41.8251 28.477 41.9749 30.8984 42.5323 33.0767C42.5703 34.2065 31.5669 41.1147 43.3834 35.6735C43.8302 36.7488 44.3777 37.7547 45.0251 38.7126C41.052 42.5793 40.1646 44.3035 46.707 40.8601C47.417 41.6679 48.1974 42.4505 49.0416 43.2237C49.5238 43.6574 45.9837 48.0019 46.5062 48.4374C47.0496 48.8904 50.7331 44.8392 51.3175 45.299C53.1983 46.7782 56.2087 48.9002 58.4544 50.5545C57.2431 51.7355 54.0086 53.544 48.755 55.6964C38.3704 50.0285 33.9562 32.8124 31.6691 26.2174C30.4897 25.8934 29.5534 26.0614 29.383 25.878C29.4198 25.792 29.2476 19.5453 29.0461 10.198C28.5427 10.1024 10.4499 10.2794 10.0641 10.2473C10.0259 10.244 10.0116 10.7228 10.0121 11.5036C10.0122 11.581 27.6605 11.4204 27.6608 11.5036C27.6752 15.0755 28.0317 25.8706 27.842 25.8596C25.6063 25.7307 21.0854 25.7593 17.2072 25.8283C16.5294 25.7934 1.03091 26.0777 0.306492 25.8725C-0.315097 13.5459 0.222471 5.9671 0.0966983 2.73111C3.7689 0.455223 6.83463 -0.218471 9.42888 0.440028C8.84573 2.06108 8.84656 2.98185 9.43141 3.20237C29.4959 3.91192 43.1076 4.33688 50.2666 4.47726C50.3669 3.11905 50.5705 1.62663 50.8775 0C52.7028 0.0077786 54.0067 0.0133348 54.7888 0.0166684Z" sodipodi:nodetypes="ccccccccccccccccccccccccccccccc"/>
</svg>
