<?xml version="1.0" standalone="no"?>
<!DOCTYPE svg PUBLIC "-//W3C//DTD SVG 20010904//EN" "http://www.w3.org/TR/2001/REC-SVG-20010904/DTD/svg10.dtd">
<!-- Created using Krita: https://krita.org -->
<svg xmlns="http://www.w3.org/2000/svg" 
    xmlns:xlink="http://www.w3.org/1999/xlink"
    xmlns:krita="http://krita.org/namespaces/svg/krita"
    xmlns:sodipodi="http://sodipodi.sourceforge.net/DTD/sodipodi-0.dtd"
    width="216pt"
    height="216pt"
    viewBox="0 0 216 216">
<defs/>
<path id="shape0" transform="matrix(1.33694664533213 0 0 1.33694664533213 10.4607992957485 48.416998875683)" fill="#ffffff" fill-rule="evenodd" stroke-opacity="0" stroke="#000000" stroke-width="0" stroke-linecap="square" stroke-linejoin="bevel" d="M73.0122 29.868L72.5622 44.573C64.5313 46.5167 60.3913 50.7975 60.1422 57.4155C59.8303 65.7008 63.8503 70.0025 72.2022 70.3205L72.6072 88.1905C68.9568 86.9841 65.6906 85.7963 62.8087 84.6272C61.7956 84.2132 58.1472 91.156 55.7262 94.859C80.6116 99.2473 55.6282 97.3646 53.6879 97.0872C52.5467 96.5797 40.8824 90.4486 54.1565 94.0577C55.1503 89.6899 57.1918 82.1256 56.6713 81.878C49.8991 78.4814 46.5411 75.2506 46.5972 72.1855C46.8673 57.4181 46.9108 55.8822 46.7762 48.7189C46.7753 48.581 42.3973 48.5028 36.4347 48.4567C35.5267 48.4497 34.5819 48.4434 33.6103 48.4378C20.9602 48.3645 14.8573 47.806 14.7909 47.7954C9.48748 46.9447 9.91153 43.595 14.8352 42.8293C14.8758 42.823 19.2732 42.6114 28.0273 42.1945C28.4977 32.9628 28.9682 23.7311 29.4386 14.4994C-5.96076 11.6777 -13.6106 9.33857 29.7815 7.77138C29.9135 5.18092 30.0455 2.59046 30.1775 0C30.3856 2.61872 30.5938 5.23744 30.8019 7.85616C89.116 10.0002 57.4339 12.2213 31.3415 14.6445C32.0759 23.8844 32.8103 33.1244 33.5447 42.3643C42.3996 42.7068 46.8254 42.8205 46.8222 42.7055C46.6679 37.1767 56.7815 31.4606 59.3322 30.9505C65.6322 29.6905 63.8922 29.7496 73.0122 29.868Z" sodipodi:nodetypes="ccscccccccscccsscccccccssc"/><ellipse id="shape2" transform="matrix(1.33694664533213 0 0 1.33694664533213 89.3489332738598 106.540588816794)" rx="13.7924952924539" ry="14.2200036998294" cx="13.7924952924539" cy="14.2200036998294" fill="none" stroke="#ffffff" stroke-width="4.32" stroke-linecap="square" stroke-linejoin="bevel"/><path id="shape3" transform="matrix(1.33694664533213 0 0 1.33694664533213 97.1700685105974 88.9129552751873)" fill="#ffffff" fill-rule="evenodd" stroke-opacity="0" stroke="#000000" stroke-width="0" stroke-linecap="square" stroke-linejoin="bevel" d="M0 0.423373L16.2 0L13.59 14.31L0.9 13.2092C0.9 13.2092 0.6 8.94728 0 0.423373Z" sodipodi:nodetypes="ccccc"/><path id="shape4" transform="matrix(1.33694664533213 0 0 1.33694664533213 101.862751176977 142.818643340254)" fill="#ffffff" fill-rule="evenodd" stroke-opacity="0" stroke="#000000" stroke-width="0" stroke-linecap="square" stroke-linejoin="bevel" d="M0.135 0.0675L9.315 0L8.1 14.985L3.8475 16.875L0 14.3775C0 14.3775 0.045 9.6075 0.135 0.0675Z" sodipodi:nodetypes="cccccc"/><circle id="shape5" transform="matrix(1.9062402225771 0 0 1.9062402225771 99.0787957583392 116.52758983481)" r="4.68" cx="4.68" cy="4.68" fill="#ffffff" fill-rule="evenodd" stroke-opacity="0" stroke="#000000" stroke-width="0" stroke-linecap="square" stroke-linejoin="bevel"/><path id="shape01" transform="matrix(-1.33694664533213 0 0 1.33694664533213 204.100554080597 48.4773353144523)" fill="#ffffff" fill-rule="evenodd" stroke-opacity="0" stroke="#000000" stroke-width="0" stroke-linecap="square" stroke-linejoin="bevel" d="M73.0122 29.868L72.5622 44.573C64.5313 46.5167 60.3913 50.7975 60.1422 57.4155C59.8303 65.7008 63.8503 70.0025 72.2022 70.3205L72.6072 88.1905C68.9568 86.9841 65.6906 85.7963 62.8087 84.6272C61.7956 84.2132 58.1472 91.156 55.7262 94.859C80.6116 99.2473 55.6282 97.3646 53.6879 97.0872C52.5467 96.5797 40.8824 90.4486 54.1565 94.0577C55.1503 89.6899 57.1918 82.1256 56.6713 81.878C49.8991 78.4814 46.5411 75.2506 46.5972 72.1855C46.8673 57.4181 46.9108 55.8822 46.7762 48.7189C46.7753 48.581 42.3973 48.5028 36.4347 48.4567C35.5267 48.4497 34.5819 48.4434 33.6103 48.4378C20.9602 48.3645 14.8573 47.806 14.7909 47.7954C9.48747 46.9447 9.91152 43.595 14.8352 42.8293C14.8758 42.823 19.2732 42.6114 28.0273 42.1945C28.4977 32.9628 28.9682 23.7311 29.4386 14.4994C-5.96077 11.6777 -13.6106 9.33857 29.7815 7.77138C29.9135 5.18092 30.0455 2.59046 30.1775 0C30.3856 2.61872 30.5938 5.23744 30.8019 7.85616C89.116 10.0002 57.4339 12.2213 31.3415 14.6445C32.0759 23.8844 32.8103 33.1244 33.5447 42.3643C42.3996 42.7068 46.8254 42.8205 46.8222 42.7055C46.6679 37.1767 56.7815 31.4606 59.3322 30.9505C65.6322 29.6905 63.8922 29.7496 73.0122 29.868Z" sodipodi:nodetypes="ccscccccccscccsscccccccssc"/>
</svg>
