<?xml version="1.0" standalone="no"?>
<!DOCTYPE svg PUBLIC "-//W3C//DTD SVG 20010904//EN" "http://www.w3.org/TR/2001/REC-SVG-20010904/DTD/svg10.dtd">
<!-- Created using Krita: https://krita.org -->
<svg xmlns="http://www.w3.org/2000/svg" 
    xmlns:xlink="http://www.w3.org/1999/xlink"
    xmlns:krita="http://krita.org/namespaces/svg/krita"
    xmlns:sodipodi="http://sodipodi.sourceforge.net/DTD/sodipodi-0.dtd"
    width="216pt"
    height="216pt"
    viewBox="0 0 216 216">
<defs/>
<path id="shape0" transform="matrix(1.33694664533213 0 0 1.33694664533213 72.6228022170912 88.23022459479)" fill="#ffffff" fill-rule="evenodd" stroke-opacity="0" stroke="#000000" stroke-width="0" stroke-linecap="square" stroke-linejoin="bevel" d="M26.4157 0.0581663L25.9657 14.7632C17.9348 16.7069 13.7948 20.9877 13.5457 27.6057C13.2338 35.891 17.2538 40.1927 25.6057 40.5107L26.0107 58.3807C8.58089 52.6203 -0.0891109 47.2853 0.000690451 42.3757C0.313712 25.262 0.503216 22.8444 0.22569 12.8957C0.0714622 7.3669 10.185 1.6508 12.7357 1.14067C19.0357 -0.119334 17.2957 -0.060167 26.4157 0.0581663Z" sodipodi:nodetypes="ccsccsssc"/><path id="shape01" transform="matrix(-1.33694664533213 0 0 1.33694664533213 141.389587360136 88.3806311472909)" fill="#ffffff" fill-rule="evenodd" stroke-opacity="0" stroke="#000000" stroke-width="0" stroke-linecap="square" stroke-linejoin="bevel" d="M26.1457 0.0581663L25.6957 13.6832C16.3192 16.2379 11.5942 19.7595 11.5207 24.2482C11.3346 35.6134 16.0746 41.0342 25.7407 40.5107L26.0107 58.2457C8.58089 52.4853 -0.0891109 47.1503 0.000690451 42.2407C0.313712 25.127 0.503216 22.8444 0.22569 12.8957C0.0714622 7.3669 9.91503 1.6508 12.4657 1.14067C18.7657 -0.119334 17.0257 -0.060167 26.1457 0.0581663Z" sodipodi:nodetypes="ccsccsssc"/><path id="shape1" transform="matrix(1.33694664533213 0 0 1.33694664533213 71.0599940708096 147.511326006622)" fill="none" stroke="#ffffff" stroke-width="3.6" stroke-linecap="square" stroke-linejoin="bevel" d="M7.33463 0C3.95963 3.59512 -3.43612 8.47428 1.84463 18.855" sodipodi:nodetypes="cc"/><path id="shape02" transform="matrix(1.33694664533213 0 0 1.33694664533213 81.4527369959279 151.322330609866)" fill="none" stroke="#ffffff" stroke-width="3.6" stroke-linecap="square" stroke-linejoin="bevel" d="M7.33463 0C3.95963 3.59512 -3.43612 8.47428 1.84463 18.855" sodipodi:nodetypes="cc"/><path id="shape03" transform="matrix(1.33694664533213 0 0 1.33694664533213 92.6429802772916 155.473549891662)" fill="none" stroke="#ffffff" stroke-width="3.6" stroke-linecap="square" stroke-linejoin="bevel" d="M7.33463 0C3.95963 3.59512 -3.43612 8.47428 1.84463 18.855" sodipodi:nodetypes="cc"/><path id="shape04" transform="matrix(-1.33694664533213 0 0 1.33694664533213 143.419725103153 150.780867225284)" fill="none" stroke="#ffffff" stroke-width="3.6" stroke-linecap="square" stroke-linejoin="bevel" d="M7.33463 0C3.95963 3.59512 -3.43612 8.47428 1.84463 18.855" sodipodi:nodetypes="cc"/><path id="shape05" transform="matrix(-1.33694664533213 0 0 1.33694664533213 131.792958042839 154.411384033666)" fill="none" stroke="#ffffff" stroke-width="3.6" stroke-linecap="square" stroke-linejoin="bevel" d="M7.33463 0C3.95963 3.59512 -3.43612 8.47428 1.84463 18.855" sodipodi:nodetypes="cc"/><path id="shape06" transform="matrix(-1.33694664533213 0 0 1.33694664533213 121.144178146057 154.952847418248)" fill="none" stroke="#ffffff" stroke-width="3.6" stroke-linecap="square" stroke-linejoin="bevel" d="M7.33463 0C3.95963 3.59512 -3.43612 8.47428 1.84463 18.855" sodipodi:nodetypes="cc"/><path id="shape031" transform="matrix(0.927293858946609 0.817239866761607 0.821893930497277 -0.931264441435061 93.3881588436253 76.9706850512948)" fill="#ffffff" fill-rule="evenodd" stroke-opacity="0" stroke="#000000" stroke-width="0" stroke-linecap="square" stroke-linejoin="bevel" d="M15.562 0.521722C-9.17903 32.0066 -2.26858 63.0632 21.1973 53.0854C38.6358 45.6705 25.873 -5.70231 15.562 0.521722Z" sodipodi:nodetypes="csc"/><path id="shape032" transform="matrix(-0.927293858946608 0.817239866761607 -0.821893930497278 -0.93126444143506 122.611841156376 76.2252322059235)" fill="#ffffff" fill-rule="evenodd" stroke-opacity="0" stroke="#000000" stroke-width="0" stroke-linecap="square" stroke-linejoin="bevel" d="M15.562 0.521722C-9.17903 32.0066 -2.26858 63.0632 21.1973 53.0854C38.6358 45.6705 25.873 -5.70231 15.562 0.521722Z" sodipodi:nodetypes="csc"/><ellipse id="shape2" transform="matrix(1.33694664533213 0 0 1.33694664533213 89.3489332738598 106.540588816794)" rx="13.7924952924539" ry="14.2200036998294" cx="13.7924952924539" cy="14.2200036998294" fill="none" stroke="#ffffff" stroke-width="4.32" stroke-linecap="square" stroke-linejoin="bevel"/><path id="shape3" transform="matrix(1.33694664533213 0 0 1.33694664533213 97.1700685105974 88.9129552751873)" fill="#ffffff" fill-rule="evenodd" stroke-opacity="0" stroke="#000000" stroke-width="0" stroke-linecap="square" stroke-linejoin="bevel" d="M0 0.423373L16.2 0L13.59 14.31L0.9 13.2092C0.9 13.2092 0.6 8.94728 0 0.423373Z" sodipodi:nodetypes="ccccc"/><path id="shape4" transform="matrix(1.33694664533213 0 0 1.33694664533213 101.862751176977 142.818643340254)" fill="#ffffff" fill-rule="evenodd" stroke-opacity="0" stroke="#000000" stroke-width="0" stroke-linecap="square" stroke-linejoin="bevel" d="M0.135 0.0675L9.315 0L8.1 14.985L3.8475 16.875L0 14.3775C0 14.3775 0.045 9.6075 0.135 0.0675Z" sodipodi:nodetypes="cccccc"/><circle id="shape5" transform="matrix(1.9062402225771 0 0 1.9062402225771 99.0787957583392 116.52758983481)" r="4.68" cx="4.68" cy="4.68" fill="#ffffff" fill-rule="evenodd" stroke-opacity="0" stroke="#000000" stroke-width="0" stroke-linecap="square" stroke-linejoin="bevel"/>
</svg>
