<?xml version="1.0" standalone="no"?>
<!DOCTYPE svg PUBLIC "-//W3C//DTD SVG 20010904//EN" "http://www.w3.org/TR/2001/REC-SVG-20010904/DTD/svg10.dtd">
<!-- Created using Krita: https://krita.org -->
<svg xmlns="http://www.w3.org/2000/svg" 
    xmlns:xlink="http://www.w3.org/1999/xlink"
    xmlns:krita="http://krita.org/namespaces/svg/krita"
    xmlns:sodipodi="http://sodipodi.sourceforge.net/DTD/sodipodi-0.dtd"
    width="216pt"
    height="216pt"
    viewBox="0 0 216 216">
<defs/>
<path id="shape0" transform="matrix(0.802315277812343 0.422376999799814 -0.422376999799814 0.802315277812343 116.506310636681 172.912144093138)" fill="#ffffff" fill-rule="evenodd" stroke-opacity="0" stroke="#000000" stroke-width="0" stroke-linecap="square" stroke-linejoin="bevel" d="M0 9.543C7.18825 13.6963 16.2501 8.57001 17.6216 0C19.348 9.31546 20 17.8997 19.5776 25.7528C15.5491 23.2204 9.87 18.363 0 9.543Z" sodipodi:nodetypes="cccc"/><path id="shape1" transform="matrix(0.906703995232727 0 0 0.906703995232727 33.2100030925901 30.1963852946193)" fill="#ffffff" fill-rule="evenodd" stroke-opacity="0" stroke="#000000" stroke-width="0" stroke-linecap="square" stroke-linejoin="bevel" d="M95.985 68.7152C103.81 50.0144 109.014 34.3731 110.43 17.9552C111.843 5.65151 121.13 -0.0375926 129.915 0.000186888C143.133 0.0570319 145.539 3.82873 149.152 7.76269C151.816 12.2054 152.133 17.9123 150.104 24.8834C148.371 25.3366 145.577 23.9586 142.667 23.8545C141.294 13.8628 132.249 -2.54731 116.775 18.7652C122.111 41.0721 135.751 37.7059 143.079 24.1993C145.445 24.487 148.166 23.9086 150.12 24.8402C148.317 29.1315 143.817 39.8415 143.37 40.9052C156.236 56.7658 164.104 81.0314 157.77 102.015C151.632 122.35 122.71 143.361 109.08 152.55C105.996 145.896 98.1213 144.591 95.58 145.125C91.8367 145.912 84.9517 148.432 84.375 159.165C67.5 163.647 39.375 171.117 0 181.575L24.3 157.545C47.2763 157.032 63.1163 155.142 71.82 151.875C86.2708 146.452 118.454 135.687 137.43 107.055C145.918 94.2473 142.6 80.4457 140.58 75.2852C138.56 70.1246 130.072 61.2033 118.935 60.3452C111.48 59.7707 101.47 62.2368 95.985 68.7152Z" sodipodi:nodetypes="ccscccccccscscccsszsc"/><path id="shape2" transform="matrix(0.906703995232727 0 0 0.906703995232727 57.2013890907511 99.210662536042)" fill="#ffffff" fill-rule="evenodd" stroke-opacity="0" stroke="#000000" stroke-width="0" stroke-linecap="square" stroke-linejoin="bevel" d="M66.15 0.114628C66.855 -1.9467 44.805 23.7933 0 77.3346C6.73533 76.3624 27.4308 57.8471 34.3889 56.7914C36.2279 56.5124 7.93646 79.4825 9.72406 79.2567C13.4717 78.7835 17.3983 78.1905 21.4423 77.4763C23.495 77.1138 40.158 59.4401 42.2632 59.0151C44.0959 58.645 31.3655 75.5312 33.2266 75.1135C36.2375 74.4376 39.2786 73.6993 42.3273 72.8979C43.8618 72.4946 47.2207 60.6003 48.7562 60.165C49.6047 59.9244 49.5037 63.6026 48.4533 71.1995C54.9163 69.7207 99.9664 51.3691 110.835 23.1996C100.394 37.1432 85.8441 39.7598 72.5866 30.1043C64.2694 20.8406 61.666 13.2254 66.15 0.114628Z" sodipodi:nodetypes="ccccccccccccs"/><circle id="shape3" transform="matrix(0.597321474986395 0 0 0.597321474986395 125.095386283393 95.70642848718)" r="21.6" cx="21.6" cy="21.6" fill="none" stroke="#ffffff" stroke-width="12.96" stroke-linecap="square" stroke-linejoin="bevel"/><circle id="shape01" transform="matrix(0.283752878896017 0 0 0.283752878896017 115.058173831133 167.272576247958)" r="21.6" cx="21.6" cy="21.6" fill="none" stroke="#ffffff" stroke-width="12.96" stroke-linecap="square" stroke-linejoin="bevel"/><ellipse id="shape4" transform="matrix(0.85152620453172 0 0 0.898833215894594 139.253569582065 37.8264701951018)" rx="13.68" ry="12.96" cx="13.68" cy="12.96" fill="none" stroke="#ffffff" stroke-width="3.6" stroke-linecap="square" stroke-linejoin="bevel"/><circle id="shape5" transform="matrix(1.22928099850384 0 0 1.22928099850384 145.047405876403 43.6203119621877)" r="4.68" cx="4.68" cy="4.68" fill="#ffffff" fill-rule="evenodd" stroke-opacity="0" stroke="#000000" stroke-width="0" stroke-linecap="square" stroke-linejoin="bevel"/><path id="shape6" transform="matrix(0.906703995232727 0 0 0.906703995232727 168.589975188958 49.29174152574)" fill="#ffffff" fill-rule="evenodd" stroke-opacity="0" stroke="#000000" stroke-width="0" stroke-linecap="square" stroke-linejoin="bevel" d="M0 10.035L3.42 0L15.66 12.915C15.75 12.975 10.53 12.015 0 10.035Z" sodipodi:nodetypes="cccc"/><path id="shape7" transform="matrix(0.906703995232727 0 0 0.906703995232727 161.123267881675 50.1077751112359)" fill="#ffffff" fill-rule="evenodd" stroke-opacity="0" stroke="#000000" stroke-width="0" stroke-linecap="square" stroke-linejoin="bevel" d="M0 3.47625L0.675 0L8.94375 1.38375L7.56 4.2525C7.56 4.275 5.04 4.01625 0 3.47625Z" sodipodi:nodetypes="ccccc"/><path id="shape8" transform="matrix(1.58853118996469 -1.26010459168707 0.551315450107925 0.695007219070075 133.332958735579 27.3294354262394)" fill="#ffffff" fill-rule="evenodd" stroke-opacity="0" stroke="#000000" stroke-width="0" stroke-linecap="square" stroke-linejoin="bevel" d="M0 13.32L0.09 0.09L1.44 0L1.35 12.6C1.35 12.6 0.9 12.84 0 13.32Z" sodipodi:nodetypes="ccccc"/><ellipse id="shape9" transform="matrix(1.66666666666667 0 0 1.42857142857143 129.824996989242 22.1399994515149)" rx="2.16" ry="2.52" cx="2.16" cy="2.52" fill="#ffffff" fill-rule="evenodd" stroke-opacity="0" stroke="#000000" stroke-width="0" stroke-linecap="square" stroke-linejoin="bevel"/>
</svg>
