<?xml version="1.0" standalone="no"?>
<!DOCTYPE svg PUBLIC "-//W3C//DTD SVG 20010904//EN" "http://www.w3.org/TR/2001/REC-SVG-20010904/DTD/svg10.dtd">
<!-- Created using Krita: https://krita.org -->
<svg xmlns="http://www.w3.org/2000/svg" 
    xmlns:xlink="http://www.w3.org/1999/xlink"
    xmlns:krita="http://krita.org/namespaces/svg/krita"
    xmlns:sodipodi="http://sodipodi.sourceforge.net/DTD/sodipodi-0.dtd"
    width="216pt"
    height="216pt"
    viewBox="0 0 216 216">
<defs/>
<ellipse id="shape0" transform="matrix(0.691666751894234 0 0 0.74107151988668 63.3599981343023 146.15999817062)" rx="10.8" ry="10.08" cx="10.8" cy="10.08" fill="none" stroke="#f7f7f7" stroke-width="5.76" stroke-linecap="square" stroke-linejoin="bevel"/><ellipse id="shape01" transform="matrix(0.691666751894234 0 0 0.74107151988668 20.2937639118216 142.558032385315)" rx="10.8" ry="10.08" cx="10.8" cy="10.08" fill="#ffffff" stroke="#f7f7f7" stroke-width="5.76" stroke-linecap="square" stroke-linejoin="bevel"/><ellipse id="shape02" transform="matrix(0.691666751894234 0 0 0.74107151988668 130.093762537534 132.118032515985)" rx="10.8" ry="10.08" cx="10.8" cy="10.08" fill="#ffffff" stroke="#f7f7f7" stroke-width="5.76" stroke-linecap="square" stroke-linejoin="bevel"/><ellipse id="shape03" transform="matrix(0.691666751894234 0 0 0.74107151988668 178.513761931495 137.698032446144)" rx="10.8" ry="10.08" cx="10.8" cy="10.08" fill="none" stroke="#f7f7f7" stroke-width="5.76" stroke-linecap="square" stroke-linejoin="bevel"/><ellipse id="shape04" transform="matrix(1.01671209669287 0 0 1.08933438931379 68.5337633080362 93.5990172650525)" rx="10.8" ry="10.08" cx="10.8" cy="10.08" fill="none" stroke="#f7f7f7" stroke-width="5.76" stroke-linecap="square" stroke-linejoin="bevel"/><ellipse id="shape05" transform="matrix(1.01671209669287 0 0 1.08933438931379 27.3608825121967 92.2712088545663)" rx="10.8" ry="10.08" cx="10.8" cy="10.08" fill="#f7f7f7" stroke="#f7f7f7" stroke-width="5.76" stroke-linecap="square" stroke-linejoin="bevel"/><ellipse id="shape06" transform="matrix(1.01671209669287 0 0 1.08933438931379 151.020878593362 91.1912090397452)" rx="10.8" ry="10.08" cx="10.8" cy="10.08" fill="none" stroke="#f7f7f7" stroke-width="5.76" stroke-linecap="square" stroke-linejoin="bevel"/><ellipse id="shape07" transform="matrix(1.32277754770632 0 0 1.41291595159381 113.087998974692 87.6599962903523)" rx="10.8" ry="10.08" cx="10.8" cy="10.08" fill="#f7f7f7" stroke-opacity="0" stroke="#000000" stroke-width="0" stroke-linecap="square" stroke-linejoin="bevel"/><path id="shape1" transform="translate(35.4299984982341, 67.1399971587298)" fill="#f7f7f7" fill-rule="evenodd" stroke-opacity="0" stroke="#000000" stroke-width="0" stroke-linecap="square" stroke-linejoin="bevel" d="M0.12 18.63C0.372 29.256 0.552 36.846 0.66 41.4C10.9785 41.5847 20.9091 40.7757 28.7704 40.86C27.3421 31.7672 32.242 22.5534 42.9937 21.8025C46.9398 21.8025 57.2011 21.4805 60.2857 39.2354C68.9865 39.2691 93.3502 39.1135 110.642 38.9654C110.446 33.9374 111.313 28.8655 115.455 24.03C120.231 19.9197 125.225 19.1704 128.098 19.1936C128.061 11.2432 128.227 7.95035 128.19 0C102.774 0 60.054 0 0.03 0C-0.03 8.94 -2.63902e-10 15.15 0.12 18.63Z" sodipodi:nodetypes="ccccccccccc"/><path id="shape2" transform="translate(23.8949997062906, 115.019998552344)" fill="#f7f7f7" fill-rule="evenodd" stroke-opacity="0" stroke="#000000" stroke-width="0" stroke-linecap="square" stroke-linejoin="bevel" d="M4.59 0L0 24.705C8.75613 22.584 10.4235 25.2653 12.555 28.08L20.52 2.7C14.0328 5.43578 8.72282 4.53578 4.59 0Z" sodipodi:nodetypes="ccccc"/><path id="shape3" transform="translate(24.614998230111, 159.029988530629)" fill="#f7f7f7" fill-rule="evenodd" stroke-opacity="0" stroke="#000000" stroke-width="0" stroke-linecap="square" stroke-linejoin="bevel" d="M0 1.89C5.31655 3.40914 8.06583 1.6275 10.935 0L11.88 36.585C11.88 36.585 7.92 25.02 0 1.89Z" sodipodi:nodetypes="cccc"/><path id="shape08" transform="matrix(0.998822199246362 -0.0485202462139575 0.0524858490016696 1.08045682410572 65.1101808472027 116.885700652457)" fill="#f7f7f7" fill-rule="evenodd" stroke-opacity="0" stroke="#000000" stroke-width="0" stroke-linecap="square" stroke-linejoin="bevel" d="M4.59 0L0 24.705C8.75613 22.584 10.4235 25.2653 12.555 28.08L20.52 2.7C14.0328 5.43578 8.72282 4.53578 4.59 0Z" sodipodi:nodetypes="ccccc"/><path id="shape09" transform="translate(67.0949964324224, 162.269988393517)" fill="#f7f7f7" fill-rule="evenodd" stroke-opacity="0" stroke="#000000" stroke-width="0" stroke-linecap="square" stroke-linejoin="bevel" d="M0 1.89C5.31655 3.40914 8.06583 1.6275 10.935 0L11.88 36.585C11.88 36.585 7.92 25.02 0 1.89Z" sodipodi:nodetypes="cccc"/><path id="shape010" transform="matrix(-0.910087758068611 0 0 0.583333308647562 141.794995585318 115.01999513253)" fill="#f7f7f7" fill-rule="evenodd" stroke-opacity="0" stroke="#000000" stroke-width="0" stroke-linecap="square" stroke-linejoin="bevel" d="M4.59 0L0 24.705C8.75613 22.584 10.4235 25.2653 12.555 28.08L20.52 2.7C14.0328 5.43578 8.72282 4.53578 4.59 0Z" sodipodi:nodetypes="ccccc"/><path id="shape011" transform="matrix(-1 0 0 0.784747943815836 141.794993773977 148.409988980051)" fill="#f7f7f7" fill-rule="evenodd" stroke-opacity="0" stroke="#000000" stroke-width="0" stroke-linecap="square" stroke-linejoin="bevel" d="M0 1.89C5.31655 3.40914 8.06583 1.6275 10.935 0L11.88 36.585C11.88 36.585 7.92 25.02 0 1.89Z" sodipodi:nodetypes="cccc"/><path id="shape012" transform="matrix(-1.04631612723604 0.298262270932484 0.292238968857314 1.02518613958872 179.950082659013 108.558808894118)" fill="#f7f7f7" fill-rule="evenodd" stroke-opacity="0" stroke="#000000" stroke-width="0" stroke-linecap="square" stroke-linejoin="bevel" d="M4.59 0L0 24.705C8.75613 22.584 10.4235 25.2653 12.555 28.08L20.52 2.7C14.0328 5.43578 8.72282 4.53578 4.59 0Z" sodipodi:nodetypes="ccccc"/><path id="shape013" transform="matrix(-1 0 0 0.784747943815836 191.31299028838 155.330989040412)" fill="#f7f7f7" fill-rule="evenodd" stroke-opacity="0" stroke="#000000" stroke-width="0" stroke-linecap="square" stroke-linejoin="bevel" d="M0 1.89C5.31655 3.40914 8.06583 1.6275 10.935 0L11.88 36.585C11.88 36.585 7.92 25.02 0 1.89Z" sodipodi:nodetypes="cccc"/><path id="shape4" transform="translate(45.3599967286014, 51.1199963131857)" fill="#f7f7f7" fill-rule="evenodd" stroke-opacity="0" stroke="#000000" stroke-width="0" stroke-linecap="square" stroke-linejoin="bevel" d="M27.72 20.52L0 1.26L11.88 0L42.66 19.98C42.66 19.98 37.68 20.16 27.72 20.52Z" sodipodi:nodetypes="ccccc"/><ellipse id="shape5" transform="matrix(0.741935512602502 0 0 0.958333370444898 42.6600008217254 36.7199995404087)" rx="11.16" ry="8.64" cx="11.16" cy="8.64" fill="none" stroke="#f7f7f7" stroke-width="5.9267376" stroke-linecap="square" stroke-linejoin="bevel"/><path id="shape014" transform="matrix(-0.97049182749527 -0.241134014118487 -0.241134014118487 0.97049182749527 88.4743207835228 27.3761161923108)" fill="#f7f7f7" fill-rule="evenodd" stroke-opacity="0" stroke="#000000" stroke-width="0" stroke-linecap="square" stroke-linejoin="bevel" d="M24.3096 18.7762L0 3.14567L2.61119 0L33.1577 17.0008C25.1356 16.8159 34.2696 18.4162 24.3096 18.7762Z" sodipodi:nodetypes="ccccc"/><ellipse id="shape015" transform="matrix(0.508941389727979 0 0 0.657382628398639 86.3100500318596 21.8699987606769)" rx="11.16" ry="8.64" cx="11.16" cy="8.64" fill="none" stroke="#f7f7f7" stroke-width="5.9267376" stroke-linecap="square" stroke-linejoin="bevel"/><ellipse id="shape016" transform="matrix(0.00955842022613085 0.31850140893831 0.301901384879363 -0.00906024344804913 110.691598320013 15.2699758598806)" rx="10.8" ry="10.08" cx="10.8" cy="10.08" fill="none" stroke="#f7f7f7" stroke-width="5.76" stroke-linecap="square" stroke-linejoin="bevel"/><ellipse id="shape017" transform="matrix(0.189589890122516 -0.25610580715056 0.24275778908525 0.17970862539638 102.962524524664 45.5817983074955)" rx="10.8" ry="10.08" cx="10.8" cy="10.08" fill="none" stroke="#f7f7f7" stroke-width="5.76" stroke-linecap="square" stroke-linejoin="bevel"/><path id="shape11" transform="matrix(0.241901672290152 -0.392071404599945 0.346861176283515 0.214007697605814 93.7734862103421 38.3290847709082)" fill="#f7f7f7" fill-rule="evenodd" stroke-opacity="0" stroke="#000000" stroke-width="0" stroke-linecap="square" stroke-linejoin="bevel" d="M4.59 0L0 24.705C8.75613 22.584 10.4235 25.2653 12.555 28.08L20.52 2.7C14.0328 5.43578 8.72282 4.53578 4.59 0Z" sodipodi:nodetypes="ccccc"/><path id="shape21" transform="matrix(-0.0936735826180661 -0.451067251395223 0.399054140562898 -0.0828719684026607 112.444938865595 45.2279348936358)" fill="#f7f7f7" fill-rule="evenodd" stroke-opacity="0" stroke="#000000" stroke-width="0" stroke-linecap="square" stroke-linejoin="bevel" d="M0 1.89C5.31655 3.40914 8.06583 1.6275 10.935 0L11.88 36.585C11.88 36.585 7.92 25.02 0 1.89Z" sodipodi:nodetypes="cccc"/><path id="shape021" transform="matrix(0.0739202563634181 0.454602699350242 0.436117908203998 -0.0655955602540088 97.3622318241125 18.919504520306)" fill="#f7f7f7" fill-rule="evenodd" stroke-opacity="0" stroke="#000000" stroke-width="0" stroke-linecap="square" stroke-linejoin="bevel" d="M4.59 0L0 24.705C8.75613 22.584 10.4235 25.2653 12.555 28.08L20.52 2.7C14.0328 5.43578 8.72282 4.53578 4.59 0Z" sodipodi:nodetypes="ccccc"/><path id="shape031" transform="matrix(-0.199592431609433 0.415209906680923 0.367331549677453 0.176577186688674 118.901524486569 19.2781712682518)" fill="#f7f7f7" fill-rule="evenodd" stroke-opacity="0" stroke="#000000" stroke-width="0" stroke-linecap="square" stroke-linejoin="bevel" d="M0 1.89C5.31655 3.40914 8.06583 1.6275 10.935 0L11.88 36.585C11.88 36.585 7.92 25.02 0 1.89Z" sodipodi:nodetypes="cccc"/>
</svg>
