<?xml version="1.0" standalone="no"?>
<!DOCTYPE svg PUBLIC "-//W3C//DTD SVG 20010904//EN" "http://www.w3.org/TR/2001/REC-SVG-20010904/DTD/svg10.dtd">
<!-- Created using Krita: https://krita.org -->
<svg xmlns="http://www.w3.org/2000/svg" 
    xmlns:xlink="http://www.w3.org/1999/xlink"
    xmlns:krita="http://krita.org/namespaces/svg/krita"
    xmlns:sodipodi="http://sodipodi.sourceforge.net/DTD/sodipodi-0.dtd"
    width="216pt"
    height="216pt"
    viewBox="0 0 216 216">
<defs/>
<path id="shape0" transform="translate(90.5698325424653, 74.5755497476041)" fill="#ffffff" fill-rule="evenodd" stroke="none" stroke-width="5.4" stroke-linecap="square" stroke-linejoin="bevel" d="M14.6167 33.7845C9.54049 28.9236 7.24721 19.1644 10.3996 14.2446C9.06592 15.164 3.86611 19.7662 9.05189 29.4425C0.261358 24.907 7.00004 12.7888 11.3613 7.95273C14.735 -0.459542 28.9142 -1.12007 34.2894 1.068C38.3984 2.35244 45.0385 8.52519 45.3353 15.9796C46.6856 24.2215 42.571 27.9541 39.1253 31.9845C35.7601 35.3446 29.086 38.5384 26.6559 37.2248C23.6746 37.8411 15.4084 55.6042 20.4902 56.171C24.8886 55.5549 24.9934 58.1075 29.345 53.1659C34.1027 45.7505 39.8029 40.4819 40.952 55.2291C38.348 43.9881 33.7402 50.723 33.8031 52.2068C36.3672 50.8167 37.1831 51.4895 39.3909 57.2962C45.2174 73.8748 33.355 88.6428 30.5914 89.0385C35.979 81.9105 38.1643 73.5689 38.8941 67.7759C33.6808 86.8955 17.1366 96.9101 12.6367 99.6644C18.8182 90.6323 27.2886 81.2108 24.4201 75.8453C18.4539 72.6151 16.1733 79.4325 5.53327 68.8118C3.09736 64.3249 2.18639 58.5351 2.1228 54.4069C-0.0425046 60.2553 2.17061 68.502 4.51457 69.9077C1.75358 72.227 -2.71474 60.5271 2.19789 49.9633C2.37237 48.4307 6.61691 43.9461 7.03473 42.2215C12.0647 34.6559 15.3701 35.7313 14.6167 33.7845Z" sodipodi:nodetypes="ccccccccccccccccccccccc"/><path id="shape1" transform="matrix(0.86886186378014 0.495054604734171 -0.495054604734171 0.86886186378014 98.6123852674253 146.913249209912)" fill="#ffffff" fill-rule="evenodd" stroke="none" stroke-width="5.4" stroke-linecap="square" stroke-linejoin="bevel" d="M0 4.36696C0.724811 6.67118 3.00582 9.24368 5.99122 8.93548C10.8258 8.43636 11.199 2.72903 12.42 0C7.54732 5.89984 3.40732 7.35549 0 4.36696Z" sodipodi:nodetypes="cscc"/><ellipse id="shape2" transform="translate(116.280000113035, 47.5199981607046)" rx="9.35999400244036" ry="9.000000337525" cx="9.35999400244036" cy="9.000000337525" fill="#ffffff" fill-rule="evenodd" stroke="#ffffff" stroke-width="5.4" stroke-linecap="square" stroke-linejoin="bevel"/><ellipse id="shape01" transform="translate(153.294085596819, 51.4799975424987)" rx="1.8329538589841" ry="2.10004342734811" cx="1.8329538589841" cy="2.10004342734811" fill="#ffffff" fill-rule="evenodd" stroke="#ffffff" stroke-width="5.4" stroke-linecap="square" stroke-linejoin="bevel"/><ellipse id="shape02" transform="translate(70.2120503624046, 152.819998087372)" rx="4.31397432543418" ry="4.02001961434645" cx="4.31397432543418" cy="4.02001961434645" fill="#ffffff" fill-rule="evenodd" stroke="#ffffff" stroke-width="5.4" stroke-linecap="square" stroke-linejoin="bevel"/><path id="shape11" transform="translate(117.449999600094, 33.7499922054526)" fill="#ffffff" fill-rule="evenodd" stroke-opacity="0" stroke="#000000" stroke-width="0" stroke-linecap="square" stroke-linejoin="bevel" d="M0 80.3614C32.8257 75.9206 51.7153 -10.4298 78.84 1.0499C74.9483 24.843 80.831 48.4547 67.0297 59.8651C65.3648 63.7968 27.9427 106.902 0 80.3614Z" sodipodi:nodetypes="cccc"/><path id="shape011" transform="matrix(-1 0 0 1 98.5500036316629 34.6519945675929)" fill="#ffffff" fill-rule="evenodd" stroke-opacity="0" stroke="#000000" stroke-width="0" stroke-linecap="square" stroke-linejoin="bevel" d="M0 80.5394C32.8257 76.0986 53.8753 -10.4318 81 1.0479C71.6939 16.4912 82.3998 47.7754 74.2297 62.2031C69.4444 68.7448 40.3582 107.08 0 80.5394Z" sodipodi:nodetypes="cccc"/><path id="shape021" transform="matrix(1 0 0 -1 119.87999966624 155.342692353786)" fill="#ffffff" fill-rule="evenodd" stroke-opacity="0" stroke="#000000" stroke-width="0" stroke-linecap="square" stroke-linejoin="bevel" d="M0 39.9055C16.3004 37.7003 25.6805 -5.17918 39.15 0.521353C28.6347 11.7297 36.9974 19.2328 33.2853 29.7275C32.7618 34.9236 13.8757 53.0849 0 39.9055Z" sodipodi:nodetypes="cccc"/><path id="shape03" transform="matrix(-1 0 0 -1 95.4450045343708 156.782963552736)" fill="#ffffff" fill-rule="evenodd" stroke-opacity="0" stroke="#000000" stroke-width="0" stroke-linecap="square" stroke-linejoin="bevel" d="M0 39.9055C16.3004 37.7003 25.6805 -5.17918 39.15 0.521353C30.0593 8.09685 32.799 22.8992 33.2853 29.7275C32.8518 41.7636 13.8757 53.0849 0 39.9055Z" sodipodi:nodetypes="cccc"/>
</svg>
