<!DOCTYPE svg PUBLIC "-//W3C//DTD SVG 1.1//EN" "http://www.w3.org/Graphics/SVG/1.1/DTD/svg11.dtd">

<!-- Uploaded to: SVG Repo, www.svgrepo.com, Transformed by: SVG Repo Mixer Tools -->
<svg version="1.1" id="_x32_" xmlns="http://www.w3.org/2000/svg" xmlns:xlink="http://www.w3.org/1999/xlink" width="800px" height="800px" viewBox="0 0 512 512" xml:space="preserve" fill="#000000">

<g id="SVGRepo_bgCarrier" stroke-width="0"/>

<g id="SVGRepo_tracerCarrier" stroke-linecap="round" stroke-linejoin="round"/>

<g id="SVGRepo_iconCarrier"> <style type="text/css">  .st0{fill:#ffffff;}  </style> <g> <path class="st0" d="M511.906,186.219c-1.078-11.531-10.578-20.453-22.156-20.828l-131.172-4.609v-11.453 c0-8.844-7.172-16.016-16.016-16.016s-16.016,7.172-16.016,16.016v10.453l-48.766-1.516v-42.375 c0-12.016-9.766-21.766-21.781-21.766c-12.031,0-21.781,9.75-21.781,21.766v42.375l-48.766,1.516v-10.453 c0-8.844-7.172-16.016-16.016-16.016s-16.016,7.172-16.016,16.016v11.453L22.25,165.391c-11.578,0.375-21.078,9.297-22.156,20.828 c-1.063,11.531,6.625,22.063,17.938,24.563l207.047,49.328c5.156,1.141,9,5.5,9.438,10.781l6.594,77.531 c0.234,2.734-1.109,5.375-3.453,6.813l-51.859,31.328c-4.625,2.797-6.844,8.359-5.375,13.578c1.438,5.234,6.203,8.844,11.625,8.844 h53.328h1.531v8.844c0,5.031,4.078,9.094,9.094,9.094s9.094-4.063,9.094-9.094v-8.844h1.547h53.297 c5.438,0,10.203-3.609,11.641-8.844c1.469-5.219-0.75-10.781-5.375-13.578l-51.859-31.328c-2.344-1.438-3.703-4.078-3.469-6.813 l6.594-77.531c0.453-5.281,4.281-9.641,9.453-10.781l207.047-49.328C505.297,208.281,512.969,197.75,511.906,186.219z"/> <path class="st0" d="M148.734,130.516h16.297c0.938,0,1.703-0.766,1.703-1.703s-0.766-1.703-1.703-1.703h-16.297 c-0.938,0-1.703,0.766-1.703,1.703S147.797,130.516,148.734,130.516z"/> <path class="st0" d="M173.875,130.516h16.297c0.938,0,1.703-0.766,1.703-1.703s-0.766-1.703-1.703-1.703h-16.297 c-0.953,0-1.703,0.766-1.703,1.703S172.922,130.516,173.875,130.516z"/> <path class="st0" d="M321.828,130.516h16.313c0.938,0,1.703-0.766,1.703-1.703s-0.766-1.703-1.703-1.703h-16.313 c-0.938,0-1.703,0.766-1.703,1.703S320.891,130.516,321.828,130.516z"/> <path class="st0" d="M346.969,130.516h16.313c0.938,0,1.703-0.766,1.703-1.703s-0.766-1.703-1.703-1.703h-16.313 c-0.938,0-1.703,0.766-1.703,1.703S346.031,130.516,346.969,130.516z"/> <path class="st0" d="M227.281,89.797h22.609c1.297,0,2.344-1.063,2.344-2.359c0-1.313-1.047-2.359-2.344-2.359h-22.609 c-1.297,0-2.359,1.047-2.359,2.359C224.922,88.734,225.984,89.797,227.281,89.797z"/> <path class="st0" d="M262.125,89.797h22.609c1.297,0,2.344-1.063,2.344-2.359c0-1.313-1.047-2.359-2.344-2.359h-22.609 c-1.313,0-2.359,1.047-2.359,2.359C259.766,88.734,260.813,89.797,262.125,89.797z"/> </g> </g>

</svg>