 <svg  version="1.0" xmlns="http://www.w3.org/2000/svg"  width="300.000000pt" height="300.000000pt" viewBox="0 0 300.000000 300.000000"  preserveAspectRatio="xMidYMid meet">  <g transform="translate(0.000000,300.000000) scale(0.100000,-0.100000)" fill="#ffffff" stroke="none"> <path d="M505 2733 c-30 -7 -72 -51 -78 -81 -3 -15 1 -41 8 -59 19 -45 55 -65 108 -62 66 4 91 -16 92 -75 0 -41 5 -52 33 -77 22 -19 43 -29 65 -29 26 0 43 -10 80 -48 26 -26 47 -55 47 -64 0 -36 18 -25 23 13 5 37 2 43 -34 76 -35 32 -51 63 -32 63 4 0 24 -16 45 -37 32 -31 39 -34 53 -23 14 12 11 18 -29 59 -30 31 -47 58 -51 84 -7 36 -6 37 23 37 63 0 106 65 78 119 -20 39 -64 52 -111 35 -25 -10 -46 -60 -39 -90 7 -26 6 -27 -25 -21 -19 4 -46 1 -66 -7 -31 -13 -35 -13 -54 8 -18 19 -20 27 -10 54 23 68 -51 142 -126 125z m43 -101 c3 -17 -2 -22 -17 -22 -14 0 -21 6 -21 18 0 38 33 41 38 4z m332 -37 c0 -8 -4 -15 -9 -15 -13 0 -22 16 -14 24 11 11 23 6 23 -9z m-130 -140 c0 -8 -6 -15 -14 -15 -17 0 -28 14 -19 24 12 12 33 6 33 -9z"/> <path d="M2462 2728 c-46 -12 -75 -60 -68 -114 6 -51 -18 -80 -56 -68 -13 4 -40 6 -60 6 -38 -2 -38 -1 -38 36 0 50 -32 82 -82 82 -41 0 -78 -36 -78 -76 0 -33 40 -74 80 -83 33 -7 35 -9 32 -42 -3 -24 -16 -47 -49 -81 -42 -43 -49 -68 -19 -68 6 0 27 16 46 35 24 25 37 32 44 24 8 -7 -2 -21 -32 -47 -39 -34 -42 -41 -40 -79 2 -24 4 -43 6 -43 2 0 8 12 15 28 20 45 97 108 140 115 22 3 46 12 54 19 24 19 45 76 37 100 -4 13 1 27 16 43 18 19 28 22 66 17 54 -6 90 11 110 50 44 85 -29 171 -124 146z m58 -99 c0 -12 -7 -19 -19 -19 -26 0 -36 17 -21 35 15 18 40 8 40 -16z m-348 -34 c0 -5 -5 -11 -11 -13 -6 -2 -11 4 -11 13 0 9 5 15 11 13 6 -2 11 -8 11 -13z m141 -140 c1 -5 -6 -11 -15 -13 -11 -2 -18 3 -18 13 0 17 30 18 33 0z"/> <path d="M1460 2412 c0 -186 0 -189 24 -211 19 -18 28 -21 43 -13 39 21 44 49 41 232 l-3 175 -52 3 -53 3 0 -189z"/> <path d="M1394 2576 c-9 -23 0 -121 11 -119 14 4 19 133 5 133 -6 0 -13 -6 -16 -14z"/> <path d="M1607 2583 c-10 -9 -8 -106 2 -122 17 -27 31 1 31 65 0 47 -4 64 -13 64 -8 0 -17 -3 -20 -7z"/> <path d="M1327 2568 l-29 -10 4 -88 c2 -70 0 -86 -9 -78 -8 7 -13 37 -13 84 0 41 -2 74 -5 74 -2 0 -20 -8 -40 -17 l-35 -17 0 -82 0 -83 50 -43 50 -43 0 -67 c0 -62 2 -68 30 -88 l29 -21 4 113 3 113 2 -126 2 -125 31 -23 c31 -23 68 -90 69 -125 0 -11 -9 -1 -23 25 -26 48 -102 112 -151 126 l-31 9 -3 80 -3 81 -44 43 -45 44 0 78 c0 56 -4 78 -12 78 -7 0 -38 -22 -68 -49 -44 -40 -53 -52 -42 -62 6 -7 12 -29 12 -49 0 -24 7 -43 20 -55 14 -13 20 -30 19 -59 -1 -27 -3 -33 -6 -16 -3 14 -22 43 -43 65 -21 22 -40 49 -42 60 -6 35 -58 27 -85 -14 -27 -39 -29 -80 -8 -121 19 -38 28 -38 42 0 6 17 16 30 23 30 7 0 6 -8 -4 -22 -21 -29 -20 -87 1 -118 14 -22 13 -22 -15 4 l-32 30 0 -37 c0 -23 -5 -37 -13 -37 -9 0 -11 -56 -9 -257 1 -142 5 -267 7 -278 2 -11 25 -37 50 -58 l45 -38 -6 108 c-4 59 -13 120 -20 135 -22 43 -16 44 15 2 15 -22 40 -48 55 -57 14 -10 26 -26 26 -37 0 -14 16 -29 50 -48 l50 -27 0 -62 c0 -60 1 -63 40 -94 33 -27 40 -38 40 -69 0 -57 39 -80 73 -42 26 28 21 65 -13 97 -40 38 -38 59 10 102 28 26 40 44 40 64 0 15 5 31 10 34 6 3 10 27 10 52 0 38 7 55 40 100 36 47 45 53 78 53 46 0 51 -4 96 -63 30 -39 36 -55 36 -96 0 -28 5 -53 10 -56 6 -3 10 -16 10 -29 0 -12 15 -37 35 -56 43 -42 47 -82 10 -106 -19 -12 -25 -25 -25 -53 0 -42 14 -61 47 -61 26 0 43 27 43 68 0 22 9 36 35 56 32 25 34 30 37 93 l3 67 53 30 c31 18 52 37 52 47 0 10 15 29 33 44 17 15 43 44 56 64 12 20 20 27 16 16 -18 -49 -49 -263 -40 -273 2 -2 24 15 49 38 l45 42 4 236 c2 131 7 252 12 269 6 26 4 34 -9 39 -11 4 -16 18 -16 42 l0 36 -31 -30 -31 -29 16 32 c20 41 20 66 -1 106 -15 29 -15 31 0 19 9 -8 19 -23 22 -33 9 -28 32 -8 44 38 12 41 -10 107 -40 123 -31 17 -59 12 -59 -10 0 -11 -18 -40 -40 -64 -22 -24 -40 -53 -40 -65 0 -11 -4 -21 -10 -21 -19 0 -11 66 10 85 12 11 20 31 20 52 0 18 7 44 15 56 14 22 12 25 -42 70 -31 26 -61 46 -67 44 -6 -2 -12 -37 -14 -84 l-3 -80 -44 -43 -45 -44 0 -76 0 -77 -40 -13 c-54 -18 -113 -70 -139 -122 -16 -33 -21 -38 -21 -20 0 37 25 85 64 121 l36 35 2 120 2 121 5 -113 6 -112 23 15 c19 14 22 25 22 85 l0 69 55 48 55 48 0 77 c0 83 -7 95 -67 113 -21 6 -22 3 -25 -76 -2 -58 -7 -84 -16 -87 -11 -3 -12 0 -3 16 12 23 15 158 4 165 -5 2 -20 7 -35 11 l-28 6 0 -98 c0 -92 -2 -100 -25 -122 -22 -21 -25 -32 -25 -93 0 -65 -2 -72 -35 -108 -29 -33 -35 -47 -35 -84 0 -32 -5 -47 -15 -51 -27 -11 -45 16 -45 66 0 41 -4 52 -30 73 -28 24 -30 30 -30 100 0 66 -3 76 -25 97 -23 22 -25 30 -25 122 0 54 -3 98 -7 97 -5 0 -21 -5 -36 -11z m-117 -434 c0 -30 -4 -54 -10 -54 -6 0 -10 27 -10 61 0 37 4 58 10 54 6 -3 10 -31 10 -61z m630 0 c0 -30 -4 -54 -10 -54 -6 0 -10 27 -10 61 0 37 4 58 10 54 6 -3 10 -31 10 -61z m-760 -73 c0 -10 -14 -28 -31 -40 -26 -19 -29 -20 -21 -4 5 10 7 24 5 31 -7 18 16 42 33 35 8 -3 14 -13 14 -22z m910 14 c10 -12 10 -19 2 -27 -9 -9 -7 -17 6 -32 15 -18 13 -17 -15 3 -42 28 -47 39 -33 56 16 19 24 19 40 0z m-714 -50 c56 -17 119 -72 142 -125 21 -49 19 -137 -3 -184 -60 -126 -214 -172 -324 -98 -83 56 -124 151 -102 239 21 83 77 144 154 169 55 17 74 17 133 -1z m642 -14 c77 -39 122 -115 122 -203 -1 -69 -27 -125 -79 -170 -71 -61 -155 -72 -238 -34 -123 58 -167 209 -95 325 64 103 183 137 290 82z m-650 -480 c-21 -8 -49 -11 -78 -7 -76 11 -63 21 26 21 82 0 84 -1 52 -14z m605 2 c-15 -7 -44 -12 -63 -12 -19 0 -48 5 -63 12 -25 11 -17 12 63 12 80 0 88 -1 63 -12z m-585 -91 c4 -28 -24 -41 -44 -20 -20 20 -7 50 20 46 13 -2 22 -12 24 -26z m505 16 c6 -18 -11 -48 -27 -48 -20 0 -37 25 -30 44 7 19 50 22 57 4z"/> <path d="M1045 2060 c-3 -5 1 -10 9 -10 9 0 16 5 16 10 0 6 -4 10 -9 10 -6 0 -13 -4 -16 -10z"/> <path d="M1960 2060 c0 -5 5 -10 10 -10 6 0 10 5 10 10 0 6 -4 10 -10 10 -5 0 -10 -4 -10 -10z"/> <path d="M1122 1979 c-67 -34 -97 -87 -97 -169 0 -57 4 -73 29 -108 75 -108 237 -108 312 0 25 35 29 51 29 108 0 54 -5 73 -24 102 -57 83 -163 111 -249 67z m166 -39 c52 -32 74 -76 69 -138 -6 -86 -66 -142 -152 -142 -147 0 -200 202 -73 280 43 26 113 26 156 0z"/> <path d="M1165 1921 c-45 -20 -70 -60 -70 -112 0 -42 5 -53 33 -81 28 -28 39 -33 81 -33 38 0 55 5 74 23 56 53 59 127 8 176 -31 30 -91 42 -126 27z m83 -99 c5 -32 -16 -54 -47 -50 -18 2 -27 10 -29 26 -6 40 5 54 40 50 26 -2 34 -8 36 -26z"/> <path d="M1728 1980 c-61 -32 -92 -82 -96 -155 -4 -63 9 -106 47 -149 57 -65 180 -75 248 -20 45 36 83 105 83 151 0 140 -160 237 -282 173z m162 -38 c39 -20 80 -89 80 -133 0 -42 -42 -110 -80 -130 -71 -38 -158 -15 -201 53 -31 50 -23 137 17 179 16 17 38 35 49 39 35 15 99 11 135 -8z"/> <path d="M1763 1915 c-81 -35 -83 -161 -3 -209 59 -35 139 -5 167 62 21 50 2 107 -46 139 -39 26 -72 28 -118 8z m91 -87 c15 -24 -3 -52 -37 -56 -33 -4 -53 28 -37 59 14 25 58 23 74 -3z"/> <path d="M1250 1446 c0 -9 7 -16 16 -16 17 0 14 22 -4 28 -7 2 -12 -3 -12 -12z"/> <path d="M1756 1453 c-11 -11 -6 -23 9 -23 8 0 15 4 15 9 0 13 -16 22 -24 14z"/> <path d="M555 2202 c-75 -25 -106 -102 -70 -172 27 -52 101 -75 159 -49 20 10 29 8 55 -10 29 -21 30 -21 40 -3 8 15 5 24 -14 42 -20 19 -24 30 -19 55 7 40 -16 98 -48 118 -29 19 -77 27 -103 19z m59 -88 c20 -19 20 -38 2 -54 -23 -19 -61 -8 -64 18 -7 44 32 67 62 36z"/> <path d="M566 2101 c-10 -16 5 -42 23 -39 21 4 21 42 -1 46 -9 2 -19 -1 -22 -7z"/> <path d="M2413 2200 c-60 -13 -98 -67 -90 -129 3 -29 -1 -42 -21 -63 -21 -23 -23 -30 -12 -43 12 -14 16 -13 39 9 24 22 28 23 51 11 85 -48 190 22 177 117 -9 70 -73 113 -144 98z m51 -83 c21 -16 18 -45 -6 -61 -38 -23 -78 35 -42 61 10 7 21 13 24 13 3 0 14 -6 24 -13z"/> <path d="M2420 2091 c0 -26 17 -36 35 -21 18 15 8 40 -16 40 -12 0 -19 -7 -19 -19z"/> <path d="M1506 2063 c-11 -11 -6 -23 9 -23 8 0 15 4 15 9 0 13 -16 22 -24 14z"/> <path d="M757 1963 c-13 -13 -7 -51 10 -57 23 -9 47 17 38 43 -6 20 -34 28 -48 14z"/> <path d="M2227 1963 c-13 -13 -7 -51 10 -57 23 -9 47 17 38 43 -6 20 -34 28 -48 14z"/> <path d="M857 1913 c-4 -3 -7 -37 -7 -75 0 -77 -17 -93 -22 -20 -2 34 -7 47 -18 47 -12 0 -16 -20 -18 -113 l-3 -113 -51 3 c-49 3 -52 5 -60 34 -10 41 -52 81 -99 95 -32 10 -46 9 -83 -5 -56 -22 -86 -66 -86 -127 0 -89 63 -145 152 -137 51 5 101 41 114 80 4 15 17 18 80 18 55 0 74 -3 74 -13 0 -8 11 -24 25 -37 l25 -23 0 196 c0 180 -4 210 -23 190z m-269 -235 c30 -30 1 -98 -41 -98 -29 0 -57 29 -57 60 0 34 17 50 55 50 17 0 36 -5 43 -12z"/> <path d="M520 1666 c-20 -25 -8 -61 22 -64 37 -4 57 31 32 59 -20 23 -37 24 -54 5z"/> <path d="M2147 1913 c-4 -3 -7 -91 -7 -195 l0 -188 24 15 c13 9 26 25 29 35 4 18 14 20 75 20 70 0 71 0 92 -35 28 -45 67 -65 124 -65 39 0 52 6 86 36 111 100 16 273 -129 234 -45 -12 -89 -58 -98 -101 -5 -28 -8 -29 -59 -29 l-54 0 0 115 c0 96 -3 115 -15 115 -11 0 -15 -12 -15 -50 0 -27 -4 -50 -10 -50 -6 0 -10 28 -10 64 0 60 -16 97 -33 79z m379 -248 c32 -49 -22 -104 -74 -76 -29 16 -37 48 -18 76 23 34 70 34 92 0z"/> <path d="M2456 1667 c-14 -10 -17 -21 -12 -41 5 -22 12 -27 33 -24 34 4 52 31 37 56 -15 22 -35 26 -58 9z"/> <path d="M1455 1636 c-35 -46 -32 -90 7 -94 19 -2 28 -10 30 -25 2 -14 10 -22 23 -22 13 0 21 8 23 22 2 15 11 23 30 25 38 4 41 40 6 89 -22 32 -33 39 -60 39 -26 0 -39 -7 -59 -34z"/> <path d="M1022 1519 c3 -35 13 -92 23 -126 18 -63 18 -63 103 -117 48 -30 90 -52 94 -50 4 3 8 16 8 29 0 17 -13 33 -45 56 -44 31 -45 34 -45 86 0 53 0 53 -50 84 -37 23 -50 37 -50 55 0 14 -9 28 -21 35 -22 11 -22 10 -17 -52z m109 -122 c-13 -13 -26 -3 -16 12 3 6 11 8 17 5 6 -4 6 -10 -1 -17z"/> <path d="M1982 1568 c-7 -7 -12 -20 -12 -30 0 -10 -22 -33 -55 -54 l-55 -37 0 -56 c0 -54 -2 -57 -40 -84 -31 -22 -40 -35 -40 -58 0 -16 3 -29 8 -28 4 0 45 26 92 57 82 55 85 59 102 115 21 71 35 187 21 187 -5 0 -14 -5 -21 -12z m-71 -171 c-13 -13 -26 -3 -16 12 3 6 11 8 17 5 6 -4 6 -10 -1 -17z"/> <path d="M851 1426 c-41 -41 -44 -43 -76 -33 -39 12 -80 -8 -95 -46 -4 -12 -33 -46 -63 -76 -42 -41 -59 -52 -75 -47 -34 11 -98 -12 -126 -44 -35 -42 -42 -89 -20 -135 31 -65 111 -94 174 -62 32 16 70 73 70 106 0 19 17 44 63 89 34 34 68 62 75 62 23 0 52 40 52 72 0 25 11 43 51 84 47 48 56 74 25 74 -6 0 -31 -20 -55 -44z m-153 -168 c9 -9 3 -21 -30 -55 -38 -38 -43 -41 -54 -25 -11 15 -8 22 24 55 40 41 43 42 60 25z m-154 -137 c19 -21 13 -47 -15 -62 -26 -14 -59 5 -59 34 0 46 43 62 74 28z"/> <path d="M492 1098 c4 -30 43 -33 43 -3 0 13 -8 21 -23 23 -20 3 -23 0 -20 -20z"/> <path d="M2101 1456 c-9 -11 0 -23 44 -61 41 -35 54 -52 50 -66 -8 -23 19 -76 42 -83 10 -4 48 -35 86 -70 56 -53 67 -69 67 -96 0 -24 10 -42 40 -72 38 -39 42 -40 91 -36 68 7 109 46 116 110 10 84 -41 140 -127 142 -44 1 -54 6 -96 46 -25 25 -57 62 -70 82 -26 41 -63 56 -97 41 -19 -9 -29 -4 -69 33 -51 48 -60 51 -77 30z m319 -262 c0 -30 -25 -24 -63 14 -35 35 -39 43 -27 57 12 14 17 12 52 -22 21 -20 38 -43 38 -49z m124 -70 c21 -21 20 -37 -3 -58 -25 -23 -59 -13 -67 20 -12 46 37 72 70 38z"/> <path d="M2492 1098 c2 -15 10 -23 23 -23 30 0 27 39 -3 43 -20 3 -23 0 -20 -20z"/> <path d="M1431 1410 c-22 -17 -45 -30 -51 -30 -5 0 -10 -7 -10 -15 0 -18 -2 -18 46 -1 45 15 165 14 207 -3 56 -22 49 -4 -17 43 -40 28 -53 33 -73 25 -15 -6 -31 -5 -43 1 -14 7 -27 3 -59 -20z"/> <path d="M1445 1320 c-13 -21 8 -30 71 -30 57 0 65 2 62 18 -3 14 -15 18 -65 20 -35 2 -64 -2 -68 -8z"/> <path d="M1090 1253 c0 -18 42 -69 81 -100 46 -36 45 -45 -2 -12 l-29 20 0 -50 c0 -38 6 -56 25 -79 20 -24 25 -41 25 -84 l0 -53 90 -90 90 -90 0 -125 0 -126 73 -72 73 -73 72 75 72 74 0 123 0 124 90 90 90 90 0 53 c0 39 6 62 22 85 22 30 31 97 16 112 -4 4 -17 0 -30 -9 -12 -9 -27 -16 -32 -16 -5 0 9 13 31 29 45 33 83 77 83 97 0 21 -12 17 -88 -26 -47 -27 -74 -50 -82 -69 -6 -16 -23 -40 -37 -53 -25 -22 -26 -19 -9 22 9 22 -75 103 -97 94 -24 -9 -21 -51 3 -64 11 -6 20 -15 20 -20 0 -19 -22 -10 -48 20 -23 26 -33 30 -77 30 -44 0 -55 -4 -80 -30 -16 -16 -35 -30 -44 -30 -10 0 -7 8 12 28 31 32 33 44 11 63 -13 11 -22 6 -61 -34 -44 -44 -46 -47 -34 -74 l13 -28 -22 20 c-11 10 -30 35 -41 54 -25 46 -179 134 -179 104z m212 -240 c23 -24 27 -38 30 -106 2 -48 -1 -76 -7 -74 -5 2 -11 37 -13 78 -3 70 -5 76 -40 113 -21 21 -28 34 -17 28 11 -6 32 -23 47 -39z m455 9 c-36 -36 -37 -40 -37 -109 0 -44 -5 -74 -13 -81 -9 -8 -11 7 -9 71 3 81 4 83 42 120 51 49 65 48 17 -1z m-163 -124 c-16 -17 -18 -40 -16 -229 2 -246 -4 -268 -70 -269 -53 0 -58 22 -58 266 0 185 -2 224 -15 234 -8 7 -15 25 -15 40 l0 28 39 -39 c21 -22 46 -39 54 -39 21 0 74 46 84 73 7 20 8 18 11 -11 2 -22 -3 -41 -14 -54z"/> <path d="M1497 859 c-25 -15 -25 -134 1 -148 11 -6 24 -6 35 0 25 15 25 134 -1 148 -11 6 -24 6 -35 0z"/> <path d="M1502 644 c4 -21 22 -23 26 -1 2 10 -3 17 -13 17 -10 0 -15 -6 -13 -16z"/> <path d="M1500 565 c0 -8 7 -15 15 -15 8 0 15 7 15 15 0 8 -7 15 -15 15 -8 0 -15 -7 -15 -15z"/> <path d="M1482 498 c-18 -18 -14 -53 8 -73 18 -17 21 -17 45 -1 42 27 28 86 -20 86 -12 0 -26 -5 -33 -12z"/> <path d="M1093 966 c-29 -25 -33 -34 -33 -78 0 -43 5 -55 40 -97 22 -26 40 -58 40 -71 0 -22 -5 -19 -55 30 -53 53 -55 56 -55 109 l0 55 -40 -39 c-35 -34 -40 -45 -40 -85 0 -43 -13 -70 -32 -70 -4 0 -8 20 -8 45 0 25 -4 45 -9 45 -5 0 -23 -16 -40 -35 -48 -55 -44 -101 14 -154 24 -22 49 -41 54 -41 18 0 52 36 56 60 3 13 14 33 25 44 l20 20 0 -30 c0 -23 13 -42 55 -84 l55 -54 0 -83 c0 -78 2 -84 31 -118 24 -27 39 -35 58 -33 24 3 26 7 31 61 l5 58 34 -35 35 -36 23 22 c28 26 29 40 3 63 -17 15 -20 31 -20 97 l0 78 -105 108 -104 108 -3 84 -3 83 -32 -27z"/> <path d="M1897 984 c-4 -4 -7 -42 -7 -83 l0 -76 -100 -109 -100 -108 0 -71 c0 -63 -3 -74 -27 -99 l-27 -28 29 -30 29 -30 33 32 33 32 0 -41 c0 -23 3 -48 6 -57 9 -24 49 -19 83 10 30 25 31 28 31 113 l0 87 60 59 c41 40 60 67 60 84 0 23 1 24 20 6 11 -10 20 -26 20 -35 0 -28 25 -52 54 -52 18 0 40 11 62 33 29 28 34 40 34 79 0 40 -5 51 -35 80 l-35 34 0 -41 c0 -23 -5 -45 -12 -49 -19 -12 -38 27 -38 76 0 40 -5 51 -35 80 l-35 34 0 -55 c0 -53 -2 -56 -55 -109 l-55 -54 0 30 c0 22 11 41 40 69 35 34 40 45 40 85 0 39 -5 51 -33 78 -18 18 -36 29 -40 26z"/> <path d="M1150 842 c0 -10 29 -47 65 -82 50 -50 67 -62 77 -52 9 9 -3 27 -53 81 -66 70 -89 84 -89 53z"/> <path d="M1791 791 c-59 -67 -75 -96 -48 -89 17 4 137 132 137 146 0 28 -31 7 -89 -57z"/> <path d="M757 692 c-36 -37 -37 -39 -19 -55 17 -16 20 -16 41 7 16 17 21 33 19 56 l-3 31 -38 -39z"/> <path d="M2220 697 c0 -23 8 -41 26 -58 25 -24 26 -24 40 -5 19 27 19 26 -26 64 l-40 33 0 -34z"/> <path d="M611 614 c-28 -35 -26 -69 4 -99 30 -30 64 -32 99 -4 54 42 19 129 -51 129 -22 0 -38 -8 -52 -26z"/> <path d="M2305 615 c-32 -31 -32 -69 0 -100 30 -30 64 -32 99 -4 19 15 26 30 26 55 0 69 -76 99 -125 49z"/> <path d="M982 558 c-24 -31 -23 -57 2 -83 29 -29 43 -31 74 -9 27 19 29 64 4 87 -22 20 -65 22 -80 5z"/> <path d="M1965 554 c-24 -25 -16 -75 16 -93 24 -13 29 -13 53 2 47 31 27 107 -29 107 -13 0 -31 -7 -40 -16z"/> <path d="M1377 362 c-15 -15 -27 -36 -27 -46 0 -25 69 -86 97 -86 21 0 23 5 23 48 0 41 -5 53 -33 80 l-33 32 -27 -28z"/> <path d="M1578 347 c-27 -31 -35 -68 -22 -101 14 -36 83 -6 110 47 15 28 15 30 -12 58 -15 16 -33 29 -38 28 -6 0 -23 -14 -38 -32z"/> </g> </svg> 