<!DOCTYPE svg PUBLIC "-//W3C//DTD SVG 1.1//EN" "http://www.w3.org/Graphics/SVG/1.1/DTD/svg11.dtd">

<!-- Uploaded to: SVG Repo, www.svgrepo.com, Transformed by: SVG Repo Mixer Tools -->
<svg height="800px" width="800px" version="1.1" id="_x32_" xmlns="http://www.w3.org/2000/svg" xmlns:xlink="http://www.w3.org/1999/xlink" viewBox="0 0 512 512" xml:space="preserve" fill="#000000" stroke="#ffffff">

<g id="SVGRepo_bgCarrier" stroke-width="0"/>

<g id="SVGRepo_tracerCarrier" stroke-linecap="round" stroke-linejoin="round"/>

<g id="SVGRepo_iconCarrier"> <style type="text/css"> .st0{fill:#ffffff;} </style> <g> <path class="st0" d="M488.649,180.545v-25.082c0,0-50.161-5.193-110.703,18.159c-60.542,23.352-104.649,17.3-110.703,11.243 c-6.054-6.05-33.728-32.864-38.056-36.325c-4.323-3.455-12.974-17.294-22.486-8.647c-1.662,1.514-3.432,2.387-5.221,3.022 l9.652-19.84c1.561-3.202,4.807-5.236,8.369-5.236h52.065c5.016,0,4.673-4.067,4.673-9.086c0-5.02,0.342-9.08-4.673-9.08h-52.065 c-10.514,0-20.103,6-24.7,15.455l-11.946,24.556c-5.088-3.887-24.606-17.337-52.696-18.816v60.535c0,0,20.86-1.868,33.516-4.025 l-14.654,24.672c-20.244-11.358-43.938-17.099-68.829-15.238c-19.056,1.414-36.768,7.147-52.255,16.14l5.736,17.207 c12.66-6.592,26.831-10.788,41.972-11.914c24.751-1.846,45.419,2.005,62.774,11.655l-16.71,28.126 c-10.875-4.962-22.922-7.804-35.658-7.804C38.525,240.221,0,278.745,0,326.271c0,47.525,38.525,86.057,86.053,86.057 c47.524,0,86.053-38.532,86.053-86.057c0-27.347-12.797-51.664-32.683-67.422l15.93-26.821 c16.096,14.698,28.63,36.174,38.377,64.833c0.328,0.974,11.625,10.659,11.675,11.684l1.435-3.13 c1.476,27.722,23.211,28.212,23.211,28.212s56.215,0,81.297,0C342.486,215.138,467.893,186.595,488.649,180.545z M137.515,326.271 c0,28.421-23.045,51.462-51.462,51.462c-28.421,0-51.463-23.041-51.463-51.462c0-28.414,23.042-51.463,51.463-51.463 c6.274,0,12.263,1.183,17.824,3.238l-18.138,30.527c-9.645,0.173-17.42,8.012-17.42,17.697c0,9.793,7.94,17.733,17.734,17.733 s17.73-7.94,17.73-17.733c0-2.005-0.408-3.908-1.024-5.712l18.736-31.529C131.346,298.404,137.515,311.602,137.515,326.271z M166.186,213.797l13.327-22.436c5.989,14.965,12.797,38.72,18.104,60.773C189.825,237.235,179.066,224.24,166.186,213.797z"/> <path class="st0" d="M425.947,240.221c-47.525,0-86.054,38.525-86.054,86.05c0,47.525,38.528,86.057,86.054,86.057 c47.525,0,86.053-38.532,86.053-86.057C512,278.745,473.472,240.221,425.947,240.221z M425.947,377.733 c-28.422,0-51.463-23.041-51.463-51.462c0-28.414,23.041-51.463,51.463-51.463c28.418,0,51.459,23.049,51.459,51.463 C477.406,354.692,454.364,377.733,425.947,377.733z"/> <path class="st0" d="M425.947,308.545c-9.794,0-17.73,7.932-17.73,17.726c0,9.793,7.936,17.733,17.73,17.733 c9.793,0,17.73-7.94,17.73-17.733C443.676,316.477,435.74,308.545,425.947,308.545z"/> </g> </g>

</svg>