<!DOCTYPE svg PUBLIC "-//W3C//DTD SVG 1.1//EN" "http://www.w3.org/Graphics/SVG/1.1/DTD/svg11.dtd">
<!-- Uploaded to: SVG Repo, www.svgrepo.com, Transformed by: SVG Repo Mixer Tools -->
<svg width="800px" height="800px" viewBox="0 0 1000 1000" id="Layer_2" version="1.1" xml:space="preserve" xmlns="http://www.w3.org/2000/svg" xmlns:xlink="http://www.w3.org/1999/xlink" fill="#000000">
<g id="SVGRepo_bgCarrier" stroke-width="0"/>
<g id="SVGRepo_tracerCarrier" stroke-linecap="round" stroke-linejoin="round"/>
<g id="SVGRepo_iconCarrier">
<path d="M153.69,505.96c0,0,12.89,16.05,27.25,41.65c37.995-7.681,110.338-5.278,181.938,0.15 c3.524,0.267,6.498,2.718,7.456,6.121c0.016,0.057,0.032,0.115,0.048,0.172c1.579,5.617-2.921,11.095-8.739,10.652 c-43.569-3.311-80.823-4.986-111.242-4.986c-25.86,0-46.381,1.22-61.11,3.64c17.22,34.49,33.42,80.72,29.41,127.74 c-0.41,4.9,3.39,9.12,8.3,9.12h549.62c-11.51-10.13-23.67-19.46-36.311-27.84c-5.29-3.51-10.21-6.54-14.609-9.02 c-13.609-7.673-27.423-14.902-41.423-21.676c-5.484-2.653-6.413-10.049-1.764-13.986c0.048-0.041,0.097-0.082,0.145-0.122 c2.523-2.126,6.076-2.58,9.047-1.146c14.326,6.914,28.44,14.289,42.335,22.12c5.08,2.86,10.36,6.15,15.66,9.66 c18.63,12.35,36,26.44,51.939,42.01h39.731c4.08,0,6.39-4.67,3.93-7.92l-7.45-9.81c-24.58-32.39-54.26-60.61-88.149-83.06 c-5.3-3.52-10.58-6.8-15.66-9.66c-92.7-52.28-195.47-84.15-301.38-94.65C312.84,483.24,153.69,473.56,153.69,505.96z M576.3,581.93 c5.17-10.08,15.681-16.99,27.771-16.99c17.199,0,31.19,13.99,31.19,31.19c0,1.93-0.18,3.81-0.51,5.64 c-1.06,5.79-3.731,11.02-7.51,15.23c-5.71,6.34-13.98,10.33-23.17,10.33c-16.391,0-29.87-12.71-31.11-28.78 c-0.06-0.8-0.09-1.61-0.09-2.42C572.87,591.02,574.11,586.19,576.3,581.93z M493.42,562.34c4.48-11.74,15.86-20.09,29.15-20.09 c17.199,0,31.19,13.99,31.19,31.19c0,0.73-0.029,1.46-0.08,2.18c-0.41,5.93-2.479,11.41-5.76,15.97 c-5.67,7.89-14.92,13.04-25.35,13.04c-15.19,0-27.891-10.92-30.641-25.32c-0.37-1.9-0.56-3.86-0.56-5.87 C491.37,569.53,492.09,565.79,493.42,562.34z M409.88,568.8c0.12-6.12,2.01-11.82,5.19-16.59c5.59-8.42,15.16-13.98,26-13.98 c13.38,0,24.83,8.48,29.239,20.34c1.261,3.39,1.95,7.04,1.95,10.86c0,2.23-0.229,4.4-0.689,6.5c-2.99,14.09-15.53,24.69-30.5,24.69 c-17.2,0-31.2-13.99-31.2-31.19C409.87,569.22,409.87,569.01,409.88,568.8z" style="fill:#ffffff;"/>
<path d="M517.03,360.32L489.48,400l-61.5,1.4c-5.37,0.12-10.261,3.1-12.841,7.8l-32.149,58.58 c-1.42,2.57,0.279,5.75,3.21,6c15.359,1.3,31.42,2.77,48.14,4.43c54.09,5.36,107.601,16.24,159.04,32.35 c37.21,11.64,73.49,26.06,108.36,43.07c2.94,1.43,6.279-1.05,5.77-4.29L687.35,421.3l78.341-12.63c4.069-0.66,7.42-3.53,8.699-7.44 l10.21-31.22c2.32-7.11-2.97-14.41-10.449-14.41H526.06C522.46,355.6,519.08,357.36,517.03,360.32z M530.63,427.6l5.69,36.13 c0.449,2.82-2.09,5.2-4.88,4.59c-31.16-6.81-62.79-11.84-94.631-14.99c-3.47-0.34-6.93-0.68-10.359-1.01 c-2.91-0.28-4.57-3.44-3.17-5.99l9.88-18.02c0.7-1.27,2.02-2.07,3.47-2.1l47.73-1.08l42.17-0.96 C528.56,424.12,530.31,425.59,530.63,427.6z" style="fill:#ffffff;"/>
<path d="M742.39,574.96c13.34,7.519,25.15,14.7,35.5,21.59l-12.95-82.25l-2-12.71 c-1.17-7.44-7.66-12.86-15.19-12.69l-32.431,0.74L724.3,546.7c0.91,5.77-0.601,11.609-4.16,16.189 C727.63,566.8,735.05,570.819,742.39,574.96z" style="fill:#ffffff;"/>
<path d="M617.119,319.479l23.49-3.79c1.22-0.19,2.22-1.05,2.61-2.23l3.06-9.36 c0.69-2.13-0.89-4.319-3.14-4.319h-74.38c-1.08,0-2.101,0.529-2.71,1.42l-8.26,11.89l-2.15,3.1c-0.271,0.38-0.44,0.78-0.521,1.19 c-1.17,5.33-2.449,10.64-4.829,15.55l-2.75,5.67h50.359l7.771-17.27L617.119,319.479z" style="fill:#ffffff;"/>
<path d="M736.449,319.479l23.49-3.79c1.22-0.19,2.22-1.05,2.61-2.23l3.06-9.36 c0.7-2.13-0.89-4.319-3.13-4.319h-74.39c-1.08,0-2.09,0.529-2.71,1.42l-8.261,11.89l-2.149,3.1c-0.26,0.38-0.43,0.78-0.521,1.19 c-1.159,5.33-2.439,10.64-4.819,15.55l-2.75,5.67h50.35l7.78-17.27L736.449,319.479z" style="fill:#ffffff;"/>
<path d="M441.07,583.62c6.39,0,11.81-4.25,13.58-10.08c0.399-1.3,0.609-2.68,0.609-4.11 c0-7.83-6.37-14.2-14.189-14.2c-7.83,0-14.2,6.37-14.2,14.2c0,0.34,0.01,0.67,0.04,1C427.42,577.79,433.58,583.62,441.07,583.62z" style="fill:#ffffff;"/>
<path d="M522.57,587.63c1.83,0,3.58-0.35,5.18-0.98c5.269-2.07,9.01-7.21,9.01-13.21 c0-0.71-0.05-1.42-0.149-2.1c-1.021-6.84-6.931-12.09-14.04-12.09c-4.95,0-9.31,2.54-11.851,6.39c-1.489,2.24-2.35,4.91-2.35,7.8 c0,3.82,1.51,7.28,3.97,9.83C514.92,585.96,518.56,587.63,522.57,587.63z" style="fill:#ffffff;"/>
<path d="M604.07,610.33c1.279,0,2.51-0.17,3.69-0.49c6.04-1.63,10.5-7.16,10.5-13.71c0-0.17,0-0.34-0.01-0.51 c-0.269-7.59-6.53-13.68-14.18-13.68c-4.4,0-8.34,2.01-10.95,5.16c-2.03,2.45-3.25,5.6-3.25,9.03c0,3.23,1.08,6.22,2.92,8.61 C595.38,608.13,599.47,610.33,604.07,610.33z" style="fill:#ffffff;"/>
</g>
</svg>