<!DOCTYPE svg PUBLIC "-//W3C//DTD SVG 1.1//EN" "http://www.w3.org/Graphics/SVG/1.1/DTD/svg11.dtd">
<!-- Uploaded to: SVG Repo, www.svgrepo.com, Transformed by: SVG Repo Mixer Tools -->
<svg fill="#ffffff" version="1.1" id="Capa_1" xmlns="http://www.w3.org/2000/svg" xmlns:xlink="http://www.w3.org/1999/xlink" width="800px" height="800px" viewBox="0 0 540.439 540.439" xml:space="preserve" stroke="#ffffff" transform="matrix(-1, 0, 0, 1, 0, 0)">
<g id="SVGRepo_bgCarrier" stroke-width="0"/>
<g id="SVGRepo_tracerCarrier" stroke-linecap="round" stroke-linejoin="round"/>
<g id="SVGRepo_iconCarrier"> <g> <g id="iconos_57_"> <path d="M200.736,325.146V191.119h-99.144L9.486,308.011v17.136v28.765v0.611c1.53-0.306,3.06-0.611,4.896-0.611H71.91 c13.158,0,23.868,10.71,23.868,23.868v1.836c3.978-10.099,10.404-18.973,18.666-25.704c11.322-9.181,25.704-14.994,41.31-14.994 c15.606,0,29.988,5.508,41.31,14.994c11.628,9.485,19.584,22.95,22.338,38.25h97.002c5.508-30.294,31.824-53.244,63.648-53.244 s58.139,22.95,63.646,53.244h34.578v-67.015H306.307v31.824c0,14.076-11.629,25.704-25.705,25.704h-4.895h-1.531 c-14.076,0-25.704-11.628-25.704-25.704v-31.824H200.736L200.736,325.146z M67.014,285.979l52.632-66.096h52.632v76.5H67.014 V285.979z"/> <path d="M280.602,372.883c8.875,0,15.912-7.038,15.912-15.912v-31.824v-28.151v-85.068v-4.896c0-8.874-7.037-15.912-15.912-15.912 h-4.895h-1.531c-8.874,0-15.912,7.344-15.912,15.912v84.15v33.66v31.824c0,8.874,7.038,15.912,15.912,15.912h6.426V372.883z"/> <path d="M514.08,89.527c-1.225-5.508-7.037-9.18-12.547-7.65c-5.508,1.224-9.18,7.038-7.648,12.546l2.447,10.404L313.65,80.347 l-103.122,79.56v2.448l38.25,126.072v-76.5v-4.896c0-14.076,11.627-25.704,25.704-25.704h6.119 c14.076,0,25.705,11.628,25.705,25.704v91.188l64.26,9.792l146.574-114.444l2.754,12.24c1.223,5.508,7.037,9.18,12.545,7.65 c5.508-1.224,9.182-7.038,7.65-12.546L514.08,89.527z"/> <path d="M155.754,460.093c30.294,0,55.08-24.786,55.08-55.08c0-3.978-0.306-7.649-1.224-11.322 c-3.672-16.83-14.994-30.905-30.294-38.25c-7.038-3.365-14.994-5.508-23.562-5.508c-8.568,0-16.524,1.836-23.562,5.508 c-15.3,7.345-26.622,21.42-30.294,38.25c-0.918,3.673-1.224,7.65-1.224,11.322C100.674,435.307,125.46,460.093,155.754,460.093z M155.754,383.287c7.65,0,14.382,3.978,18.36,10.098c2.142,3.366,3.366,7.344,3.366,11.322c0,11.934-9.792,21.726-21.726,21.726 c-11.934,0-21.726-9.792-21.726-21.726c0-4.284,1.224-7.956,3.366-11.322C141.066,387.57,147.798,383.287,155.754,383.287z"/> <path d="M435.133,405.013c0-3.978-0.307-7.649-1.225-11.322c-5.201-24.786-27.234-43.451-53.855-43.451 c-26.623,0-48.654,18.666-53.857,43.451c-0.918,3.673-1.223,7.65-1.223,11.322c0,30.294,24.785,55.08,55.08,55.08 C410.346,460.093,435.133,435.307,435.133,405.013z M358.326,405.013c0-4.284,1.225-7.956,3.365-11.322 c3.672-6.12,10.711-10.098,18.361-10.098c7.648,0,14.381,3.978,18.359,10.098c2.143,3.366,3.365,7.345,3.365,11.322 c0,11.935-9.791,21.727-21.725,21.727C368.117,426.739,358.326,416.947,358.326,405.013z"/> <path d="M71.91,411.133c7.956,0,14.382-6.426,14.382-14.382v-4.896v-9.485v-4.896c0-7.956-6.426-14.382-14.382-14.382h-4.896 H14.382c-1.836,0-3.366,0.306-4.896,0.918C3.978,365.845,0,371.353,0,377.473v18.972c0,7.956,6.426,14.383,14.382,14.383H71.91 V411.133z"/> </g> </g> </g>
</svg>