<!DOCTYPE svg PUBLIC "-//W3C//DTD SVG 1.1//EN" "http://www.w3.org/Graphics/SVG/1.1/DTD/svg11.dtd">
<!-- Uploaded to: SVG Repo, www.svgrepo.com, Transformed by: SVG Repo Mixer Tools -->
<svg height="800px" width="800px" version="1.1" id="Capa_1" xmlns="http://www.w3.org/2000/svg" xmlns:xlink="http://www.w3.org/1999/xlink" viewBox="-37.4 -37.4 448.80 448.80" xml:space="preserve" fill="#ffffff" stroke="#ffffff">
<g id="SVGRepo_bgCarrier" stroke-width="0"/>
<g id="SVGRepo_tracerCarrier" stroke-linecap="round" stroke-linejoin="round" stroke="#CCCCCC" stroke-width="5.984"/>
<g id="SVGRepo_iconCarrier"> <g> <path style="fill:#ffffff;" d="M340.25,189.417h-3.35l-12.464-22.729c-14.299-26.073-41.654-42.271-71.392-42.271H118.667 c-3.651,0-7.013,1.99-8.769,5.191L81,182.306v-55.223c0-5.522-4.478-10-10-10H44c-5.522,0-10,4.478-10,10v13.899 c-3.53,1.544-6,5.063-6,9.162v19.272c0,4.099,2.47,7.618,6,9.162v10.838h-0.25c-18.609,0-33.75,15.141-33.75,33.75 s15.141,33.75,33.75,33.75h306.5c18.609,0,33.75-15.141,33.75-33.75S358.859,189.417,340.25,189.417z M340.25,236.917H33.75 c-7.582,0-13.75-6.168-13.75-13.75s6.168-13.75,13.75-13.75h306.5c7.582,0,13.75,6.168,13.75,13.75S347.832,236.917,340.25,236.917 z M124.588,144.417h128.456c22.433,0,43.068,12.219,53.854,31.888l7.19,13.112H99.911L124.588,144.417z M54,137.083h7v47h-7 V137.083z"/> </g> </g>
</svg>