 <svg  version="1.0" xmlns="http://www.w3.org/2000/svg"  width="300.000000pt" height="300.000000pt" viewBox="0 0 300.000000 300.000000"  preserveAspectRatio="xMidYMid meet">  <g transform="translate(0.000000,300.000000) scale(0.100000,-0.100000)" fill="#ffffff" stroke="none"> <path d="M2105 2315 c-29 -24 -34 -25 -202 -25 -109 0 -173 4 -173 10 0 6 -55 10 -145 10 l-145 0 0 -60 0 -60 140 0 140 0 0 -25 0 -25 -365 0 -364 0 -128 -84 -128 -85 -2 147 c-3 179 -6 194 -36 190 -22 -3 -22 -5 -25 -194 -2 -176 -4 -192 -21 -200 -11 -5 -85 -52 -165 -104 -111 -72 -148 -102 -156 -124 -12 -33 -14 -256 -2 -256 18 0 257 -42 264 -46 13 -9 9 -114 -5 -118 -111 -32 -191 -94 -227 -178 -29 -65 -32 -172 -6 -232 25 -60 78 -119 137 -151 l54 -30 955 0 c951 0 955 0 1000 21 149 70 216 254 146 398 -42 85 -108 136 -224 172 -9 3 -12 19 -10 55 l3 51 133 61 132 60 0 145 c0 133 -2 148 -20 168 -12 12 -185 90 -400 179 -403 168 -392 161 -370 219 9 26 11 26 109 26 l100 0 60 50 c34 28 61 53 61 55 0 3 -19 5 -42 5 -30 -1 -52 -8 -73 -25z m-297 -542 l2 -273 -700 0 -700 0 0 69 c0 51 5 74 18 90 9 11 143 104 297 205 l280 184 400 -1 400 -2 3 -272z m255 199 c37 -16 70 -32 74 -35 3 -4 -48 -7 -115 -7 l-122 0 0 35 0 35 48 0 c30 0 73 -11 115 -28z m357 -149 l65 -32 -292 0 -293 -1 0 36 0 35 228 -3 227 -3 65 -32z m-440 -143 c0 -36 -2 -40 -25 -40 -22 0 -25 4 -25 40 0 36 3 40 25 40 23 0 25 -4 25 -40z m110 0 c0 -36 -2 -40 -25 -40 -22 0 -25 4 -25 40 0 36 3 40 25 40 23 0 25 -4 25 -40z m500 -20 l0 -40 -126 0 -127 0 -56 -61 -56 -61 -58 4 -58 3 91 98 92 97 149 0 149 0 0 -40z m-1807 -297 c31 -5 41 -13 58 -44 10 -21 19 -41 19 -44 0 -3 -31 -5 -70 -5 l-70 0 0 50 c0 54 0 54 63 43z m667 -63 l21 -30 -180 0 -181 0 0 30 0 30 159 0 160 0 21 -30z m840 0 l0 -30 -245 0 -246 0 23 30 22 30 223 0 223 0 0 -30z m-1325 -220 c-25 -26 -30 -40 -33 -95 -4 -64 -4 -65 35 -104 45 -46 95 -59 153 -42 108 32 143 166 63 245 l-27 27 43 -3 c57 -4 83 -36 89 -111 5 -67 -10 -118 -50 -163 l-30 -34 -130 0 -131 0 -31 34 c-50 52 -67 131 -46 205 15 52 37 71 83 71 l41 0 -29 -30z m876 14 c-52 -37 -67 -138 -28 -194 44 -66 129 -88 197 -51 91 48 108 161 37 239 l-20 22 41 0 c37 0 45 -4 62 -32 44 -73 30 -181 -31 -244 l-33 -34 -127 0 -127 0 -35 39 c-61 68 -72 164 -26 238 19 30 25 33 67 33 46 0 46 0 23 -16z m-1125 -68 c24 -24 34 -43 34 -65 0 -28 3 -31 30 -31 28 0 29 -1 19 -27 -23 -61 -83 -103 -149 -103 -73 0 -135 40 -159 103 -10 26 -9 27 19 27 26 0 30 4 30 28 1 59 46 101 109 102 25 0 42 -9 67 -34z m865 5 c21 -22 29 -39 29 -65 0 -33 2 -36 31 -36 27 0 30 -3 24 -22 -9 -29 -52 -76 -87 -94 -65 -34 -163 -7 -205 56 -29 42 -29 60 1 60 20 0 24 6 30 39 13 86 117 122 177 62z m838 15 c30 -16 51 -53 51 -91 0 -20 5 -25 25 -25 32 0 33 -23 1 -65 -78 -101 -241 -80 -285 38 -10 26 -9 27 19 27 26 0 30 4 30 28 1 79 85 126 159 88z m-1295 -28 c33 -47 7 -98 -50 -98 -41 0 -68 34 -58 74 12 49 81 64 108 24z m860 6 c20 -20 21 -78 0 -94 -23 -20 -75 -16 -90 5 -19 25 -18 65 3 87 20 22 66 24 87 2z"/> <path d="M755 1787 l-270 -182 309 -3 310 -2 40 32 c22 18 123 97 225 176 103 79 190 148 195 153 6 5 -103 9 -265 8 l-274 0 -270 -182z"/> <path d="M1673 1953 c-13 -8 -23 -24 -23 -34 0 -15 8 -19 40 -19 39 0 40 1 40 35 0 40 -18 45 -57 18z"/> <path d="M1560 1680 l0 -60 85 0 85 0 0 60 0 60 -85 0 -85 0 0 -60z"/> <path d="M596 1009 c-55 -43 -22 -133 49 -133 70 0 101 79 50 129 -30 30 -64 32 -99 4z"/> <path d="M1455 1005 c-59 -58 1 -155 78 -126 60 23 70 91 20 131 -34 27 -69 25 -98 -5z"/> <path d="M2316 1009 c-18 -14 -26 -30 -26 -53 0 -64 54 -100 109 -72 32 17 41 34 41 76 0 33 -40 70 -75 70 -12 0 -34 -9 -49 -21z"/> </g> </svg> 