<!DOCTYPE svg PUBLIC "-//W3C//DTD SVG 1.1//EN" "http://www.w3.org/Graphics/SVG/1.1/DTD/svg11.dtd">
<!-- Uploaded to: SVG Repo, www.svgrepo.com, Transformed by: SVG Repo Mixer Tools -->
<svg fill="#ffffff" height="800px" width="800px" version="1.1" id="Layer_1" xmlns="http://www.w3.org/2000/svg" xmlns:xlink="http://www.w3.org/1999/xlink" viewBox="0 0 512.002 512.002" xml:space="preserve" stroke="#ffffff">
<g id="SVGRepo_bgCarrier" stroke-width="0"/>
<g id="SVGRepo_tracerCarrier" stroke-linecap="round" stroke-linejoin="round"/>
<g id="SVGRepo_iconCarrier"> <g> <g> <g> <path d="M503.468,494.935h-42.667v-12.8c0-11.759-9.574-21.333-21.333-21.333h-4.77c-3.337-30.029-24.064-54.844-51.857-64.213 c6.025-6.784,9.805-15.607,9.805-25.378v-21.342l-6.366-42.667h-10.812H136.535h-10.871l-6.212,41.404l-0.094,22.605 c0,9.771,3.78,18.594,9.805,25.378c-27.793,9.37-48.521,34.185-51.857,64.213h-4.77c-11.759,0-21.333,9.574-21.333,21.333v12.8 H8.534c-4.71,0-8.533,3.823-8.533,8.533s3.823,8.533,8.533,8.533h42.667h68.267h273.067h68.267h42.667 c4.71,0,8.533-3.823,8.533-8.533S508.178,494.935,503.468,494.935z M413.868,460.801c-11.759,0-21.333,9.574-21.333,21.333v12.8 H119.468v-12.8c0-11.759-9.574-21.333-21.333-21.333H94.55c4.164-28.902,29.022-51.2,59.051-51.2v-0.418 c1.382,0.154,2.722,0.418,4.147,0.418h196.506c1.425,0,2.765-0.265,4.147-0.418v0.418c30.029,0,54.886,22.298,59.051,51.2 H413.868z"/> <path d="M0.238,130.006c0.947,3.908,4.437,6.528,8.286,6.528c0.666,0,1.34-0.077,2.014-0.239l236.928-57.19v40.363h-5.325 c-11.179,0-20.275,9.097-20.275,20.275v30.925h-6.852c-39.91,0-73.173,28.646-79.087,68.113l-7.706,51.354h8.311h30.601 l40.158-40.166c3.328-3.336,8.73-3.336,12.066,0c3.328,3.328,3.328,8.738,0,12.066l-28.092,28.1h56.201v-102.4h17.067v102.4 h13.551l40.149-40.166c3.336-3.336,8.738-3.336,12.066,0c3.337,3.328,3.337,8.738,0,12.066l-28.092,28.1h73.259h8.269 l-7.663-51.354c-5.914-39.467-39.177-68.113-79.087-68.113h-6.852v-30.925c0-11.179-9.097-20.275-20.275-20.275h-5.325V79.104 l236.928,57.19c0.674,0.162,1.357,0.239,2.014,0.239c3.849,0,7.339-2.62,8.286-6.528c1.109-4.582-1.707-9.19-6.289-10.3 L292.377,68.267l213.094-51.439c4.582-1.109,7.398-5.717,6.289-10.3c-1.109-4.574-5.709-7.39-10.3-6.289L255.999,59.486 L10.538,0.239c-4.608-1.101-9.19,1.715-10.3,6.289c-1.101,4.582,1.715,9.19,6.289,10.3L219.63,68.267L6.527,119.706 C1.954,120.815-0.862,125.423,0.238,130.006z"/> </g> </g> </g> </g>
</svg>