<!DOCTYPE svg PUBLIC "-//W3C//DTD SVG 1.1//EN" "http://www.w3.org/Graphics/SVG/1.1/DTD/svg11.dtd">
<!-- Uploaded to: SVG Repo, www.svgrepo.com, Transformed by: SVG Repo Mixer Tools -->
<svg height="800px" width="800px" version="1.1" id="_x32_" xmlns="http://www.w3.org/2000/svg" xmlns:xlink="http://www.w3.org/1999/xlink" viewBox="0 0 512 512" xml:space="preserve" fill="#ffffff" stroke="#ffffff">
<g id="SVGRepo_bgCarrier" stroke-width="0"/>
<g id="SVGRepo_tracerCarrier" stroke-linecap="round" stroke-linejoin="round"/>
<g id="SVGRepo_iconCarrier"> <style type="text/css"> .st0{fill:#ffffff;} </style> <g> <path class="st0" d="M512,318.877c0-8.805-8.85-17.39-22.012-25.667l14.297-68.634c0.87-4.171-0.188-8.512-2.874-11.821 c-2.692-3.309-6.724-5.227-10.988-5.227h-33.914c-5.504,0-10.512,3.195-12.838,8.187l-21.065,45.284 c-16.337-7.114-30.987-13.821-39.735-20.025c-25.854-18.341-60.679-32.308-100.598-39.804l-18.126-30.926 c-7.626-13.001-21.569-20.992-36.646-20.992h-34.849c-0.313-21.992-0.895-42.537-0.874-48.634 c0.028-12.91-10.41-28.537-35.44-28.594c0,0-3.187-5.212-8.073-1.252c-4.443,3.634-3.96,32.065-0.093,36.317 c4.04,4.456,6.463-0.374,6.463-0.374s5.911-1.196,8.61,0.024c2.671,1.204,4.276,4.586,4.252,17.496 c-0.012,4.098-0.036,13.658-0.065,25.032c-21.797,0.09-40.004,16.659-42.106,38.366l-1.638,16.927 C50.602,221.161,0,259.446,0,318.877c0,82.065,96.443,123.837,215.415,123.837c69.183,0,130.748-18.748,170.163-47.886 c8.24-6.089,22.378-12.642,38.268-19.569l19.825,42.618c2.325,4.992,7.334,8.187,12.838,8.187h33.914 c4.264,0,8.297-1.919,10.988-5.228c2.686-3.308,3.744-7.65,2.874-11.821l-13.638-65.464C503.419,335.568,512,327.324,512,318.877z M99.35,341.422c-18.471,0-33.443-14.976-33.443-33.448c0-18.464,14.972-33.439,33.443-33.439 c18.468,0,33.439,14.975,33.439,33.439C132.789,326.446,117.818,341.422,99.35,341.422z M199.106,341.422 c-18.471,0-33.439-14.976-33.439-33.448c0-18.464,14.968-33.439,33.439-33.439c18.472,0,33.443,14.975,33.443,33.439 C232.549,326.446,217.578,341.422,199.106,341.422z M298.866,341.422c-18.468,0-33.439-14.976-33.439-33.448 c0-18.464,14.971-33.439,33.439-33.439c18.471,0,33.442,14.975,33.442,33.439C332.309,326.446,317.338,341.422,298.866,341.422z"/> </g> </g>
</svg>