 <svg  version="1.0" xmlns="http://www.w3.org/2000/svg"  width="300.000000pt" height="300.000000pt" viewBox="0 0 300.000000 300.000000"  preserveAspectRatio="xMidYMid meet">  <g transform="translate(0.000000,300.000000) scale(0.100000,-0.100000)" fill="#ffffff" stroke="none"> <path d="M1362 2458 c-19 -25 -72 -163 -72 -190 0 -16 -5 -28 -11 -28 -6 0 -94 -15 -197 -34 -103 -19 -281 -51 -397 -71 -115 -19 -222 -38 -238 -41 l-27 -6 2 -181 3 -182 306 -3 c291 -2 307 -3 324 -22 15 -17 31 -20 102 -20 82 0 83 0 83 -25 l0 -25 -110 0 -110 0 0 -25 c0 -25 1 -25 86 -25 l85 0 80 -62 79 -61 0 -111 0 -112 -135 -69 -135 -70 0 -97 c0 -87 2 -98 21 -112 37 -26 49 -11 49 65 l0 69 115 0 114 0 20 -45 c14 -32 26 -45 40 -45 21 0 21 4 21 288 -1 236 -3 290 -15 306 -12 16 -15 66 -15 272 l0 252 -30 25 c-30 26 -30 26 -30 129 0 88 4 111 25 156 l24 52 71 0 71 0 21 -46 c17 -39 20 -65 19 -158 -2 -108 -3 -112 -31 -141 l-29 -30 -6 -260 c-17 -853 -17 -845 4 -845 14 0 26 13 40 45 l20 45 115 0 116 0 0 -69 c0 -39 4 -72 8 -75 4 -3 19 1 33 7 23 12 24 17 24 112 l0 100 -132 69 -133 68 0 113 0 113 76 61 75 61 90 0 c88 0 89 0 89 25 l0 25 -110 0 -110 0 0 25 c0 25 1 25 83 25 71 0 87 3 102 20 17 19 31 20 322 20 l303 0 0 184 0 185 -52 10 c-29 6 -147 27 -263 46 -115 20 -284 49 -374 66 -90 16 -165 29 -167 29 -2 0 -4 11 -4 24 0 29 -55 164 -77 188 -14 15 -33 18 -128 18 -78 0 -116 -4 -123 -12z m-122 -338 c0 -36 -2 -40 -25 -40 -22 0 -25 4 -25 33 0 38 6 47 32 47 14 0 18 -8 18 -40z m540 0 c0 -33 -3 -40 -20 -40 -17 0 -20 7 -20 40 0 33 3 40 20 40 17 0 20 -7 20 -40z m-540 -145 l0 -25 -263 0 -263 0 -59 -60 c-53 -53 -64 -60 -99 -60 l-41 0 85 85 85 85 277 0 278 0 0 -25z m1130 -60 l85 -85 -41 0 c-35 0 -46 7 -99 60 l-59 60 -258 0 -258 0 0 25 0 25 273 0 272 0 85 -85z m-1575 -65 c0 -16 -6 -26 -18 -28 -19 -4 -32 20 -23 44 9 25 41 13 41 -16z m445 5 l0 -25 -170 0 -170 0 0 25 0 25 170 0 170 0 0 -25z m840 0 l0 -25 -170 0 -170 0 0 25 0 25 170 0 170 0 0 -25z m134 19 c21 -8 21 -43 0 -51 -8 -3 -23 1 -31 10 -13 13 -14 19 -3 31 14 18 13 18 34 10z"/> <path d="M463 2414 c-13 -34 6 -38 205 -43 12 -1 22 -7 22 -16 0 -12 -22 -15 -112 -17 l-113 -3 0 -25 0 -25 113 -3 112 -3 0 -45 c0 -38 3 -45 18 -40 15 4 130 26 139 26 2 0 3 14 3 30 l0 30 110 0 c96 0 110 2 119 18 18 34 -6 42 -121 42 -89 0 -108 3 -108 15 0 12 18 15 104 15 83 0 108 3 121 16 12 12 13 19 4 30 -9 10 -40 14 -124 14 -99 0 -114 -2 -130 -20 -14 -15 -21 -17 -32 -8 -10 8 -20 8 -37 0 -20 -9 -27 -7 -42 9 -15 17 -31 19 -131 19 -94 0 -115 -3 -120 -16z"/> <path d="M1893 2414 c-12 -32 24 -44 134 -44 87 0 102 -2 97 -15 -5 -12 -28 -15 -115 -15 -89 0 -111 -3 -115 -15 -14 -35 14 -45 127 -45 l109 0 0 -30 c0 -23 5 -31 23 -34 47 -10 128 -26 132 -26 3 0 5 20 5 45 l0 44 113 3 112 3 0 25 0 25 -112 3 c-91 2 -113 5 -113 17 0 12 18 15 93 15 116 0 139 6 135 34 -3 20 -9 21 -119 24 -104 2 -117 1 -133 -17 -15 -16 -22 -18 -42 -9 -17 8 -27 8 -37 -1 -11 -9 -20 -7 -40 9 -22 17 -40 20 -136 20 -94 0 -113 -3 -118 -16z"/> <path d="M1434 2325 c-8 -20 -14 -67 -14 -113 0 -88 14 -112 64 -112 59 0 66 12 66 115 0 126 -8 145 -60 145 -37 0 -42 -3 -56 -35z"/> <path d="M269 2165 c-1 -22 -2 -106 -2 -187 l-2 -148 53 -52 52 -53 0 190 0 191 -50 49 -50 49 -1 -39z"/> <path d="M2651 2155 l-41 -45 0 -190 0 -191 50 53 49 53 1 183 c0 100 -4 182 -9 182 -5 0 -27 -20 -50 -45z"/> <path d="M500 1595 c0 -59 -3 -75 -14 -75 -27 0 -29 -22 -5 -41 30 -23 154 -26 182 -5 21 16 23 46 2 46 -11 0 -15 17 -17 73 l-3 72 -72 3 -73 3 0 -76z"/> <path d="M741 1318 c2 -194 4 -382 7 -416 l4 -64 49 4 c27 1 49 0 49 -4 0 -4 -24 -9 -52 -11 l-53 -3 57 -2 c46 -2 57 1 61 16 4 16 5 16 6 0 0 -10 8 -18 16 -18 13 0 15 54 15 425 l0 425 -80 0 -81 0 2 -352z m146 -485 c-4 -3 -7 0 -7 7 0 7 3 10 7 7 3 -4 3 -10 0 -14z"/> <path d="M2077 1663 c-9 -8 -9 -460 0 -665 5 -135 8 -158 22 -158 14 0 14 -2 1 -10 -10 -7 10 -10 65 -10 55 0 75 3 65 10 -10 6 -11 10 -2 10 6 0 12 5 12 11 0 5 -4 7 -10 4 -5 -3 -10 -1 -10 4 0 6 6 12 13 12 6 1 -1 5 -18 9 l-30 8 28 1 27 1 0 390 0 390 -78 0 c-43 0 -82 -3 -85 -7z m150 -760 c-4 -3 -10 -3 -14 0 -3 4 0 7 7 7 7 0 10 -3 7 -7z m-110 -20 c-4 -3 -10 -3 -14 0 -3 4 0 7 7 7 7 0 10 -3 7 -7z m40 1 c-3 -3 -12 -4 -19 -1 -8 3 -5 6 6 6 11 1 17 -2 13 -5z m0 -51 c-4 -3 -10 -3 -14 0 -3 4 0 7 7 7 7 0 10 -3 7 -7z m50 1 c-3 -3 -12 -4 -19 -1 -8 3 -5 6 6 6 11 1 17 -2 13 -5z"/> <path d="M2330 1595 c0 -59 -3 -75 -14 -75 -25 0 -27 -18 -4 -39 28 -27 141 -30 176 -5 26 18 29 44 5 44 -16 0 -18 10 -18 72 l0 73 -72 3 -73 3 0 -76z"/> <path d="M1107 1504 c-4 -4 -7 -54 -7 -111 0 -81 3 -103 14 -103 29 0 37 27 34 121 -2 75 -6 94 -18 97 -9 1 -19 0 -23 -4z"/> <path d="M1837 1504 c-10 -11 -8 -197 2 -213 8 -12 12 -12 25 2 24 23 19 210 -4 215 -9 1 -19 0 -23 -4z"/> <path d="M557 1313 c-9 -8 -9 -486 -1 -507 3 -9 15 -16 25 -16 18 0 19 12 19 265 0 250 -1 265 -18 265 -10 0 -22 -3 -25 -7z"/> <path d="M2377 1313 c-9 -8 -9 -182 0 -396 6 -161 7 -167 27 -166 21 0 21 1 1 9 -20 9 -20 9 0 10 20 1 20 1 0 10 -17 7 -17 9 -3 9 16 1 18 23 20 254 2 138 1 258 -1 265 -3 13 -33 17 -44 5z"/> <path d="M780 800 c0 -7 3 -10 7 -7 3 4 3 10 0 14 -4 3 -7 0 -7 -7z"/> <path d="M813 803 c9 -2 25 -2 35 0 9 3 1 5 -18 5 -19 0 -27 -2 -17 -5z"/> <path d="M878 803 c7 -3 16 -2 19 1 4 3 -2 6 -13 5 -11 0 -14 -3 -6 -6z"/> <path d="M2090 800 c0 -7 3 -10 7 -7 3 4 3 10 0 14 -4 3 -7 0 -7 -7z"/> <path d="M2110 799 c0 -5 5 -7 10 -4 6 3 10 2 10 -4 0 -5 -6 -12 -12 -14 -8 -3 -5 -6 5 -6 10 -1 15 -5 12 -11 -3 -5 -1 -10 5 -10 8 0 10 9 6 24 -6 23 -3 25 36 29 37 3 35 4 -14 5 -35 1 -58 -2 -58 -9z"/> <path d="M2230 800 c0 -7 3 -10 7 -7 3 4 3 10 0 14 -4 3 -7 0 -7 -7z"/> <path d="M753 793 c4 -3 10 -3 14 0 3 4 0 7 -7 7 -7 0 -10 -3 -7 -7z"/> <path d="M800 778 c0 -4 4 -8 9 -8 6 0 12 4 15 8 3 5 -1 9 -9 9 -8 0 -15 -4 -15 -9z"/> <path d="M850 780 c0 -7 3 -10 7 -7 3 4 3 10 0 14 -4 3 -7 0 -7 -7z"/> <path d="M870 780 c0 -7 3 -10 7 -7 3 4 3 10 0 14 -4 3 -7 0 -7 -7z"/> <path d="M583 773 c4 -3 10 -3 14 0 3 4 0 7 -7 7 -7 0 -10 -3 -7 -7z"/> <path d="M753 773 c4 -3 10 -3 14 0 3 4 0 7 -7 7 -7 0 -10 -3 -7 -7z"/> <path d="M891 764 c0 -11 3 -14 6 -6 3 7 2 16 -1 19 -3 4 -6 -2 -5 -13z"/> <path d="M560 751 c0 -6 4 -13 10 -16 6 -3 7 1 4 9 -7 18 -14 21 -14 7z"/> <path d="M583 753 c4 -3 10 -3 14 0 3 4 0 7 -7 7 -7 0 -10 -3 -7 -7z"/> <path d="M753 753 c4 -3 10 -3 14 0 3 4 0 7 -7 7 -7 0 -10 -3 -7 -7z"/> <path d="M813 753 c9 -2 25 -2 35 0 9 3 1 5 -18 5 -19 0 -27 -2 -17 -5z"/> <path d="M2181 744 c0 -11 3 -14 6 -6 3 7 2 16 -1 19 -3 4 -6 -2 -5 -13z"/> <path d="M753 733 c4 -3 10 -3 14 0 3 4 0 7 -7 7 -7 0 -10 -3 -7 -7z"/> <path d="M803 733 c4 -3 10 -3 14 0 3 4 0 7 -7 7 -7 0 -10 -3 -7 -7z"/> <path d="M1107 734 c-10 -10 -8 -106 2 -123 7 -11 12 -8 26 12 31 48 7 145 -28 111z"/> <path d="M1837 734 c-14 -15 -7 -111 9 -125 24 -19 35 5 32 71 -2 40 -7 56 -18 58 -9 1 -19 0 -23 -4z"/> <path d="M2090 730 c0 -7 3 -10 7 -7 3 4 3 10 0 14 -4 3 -7 0 -7 -7z"/> <path d="M2113 733 c4 -3 10 -3 14 0 3 4 0 7 -7 7 -7 0 -10 -3 -7 -7z"/> <path d="M800 710 c0 -7 3 -10 7 -7 3 4 3 10 0 14 -4 3 -7 0 -7 -7z"/> <path d="M2173 683 c4 -3 10 -3 14 0 3 4 0 7 -7 7 -7 0 -10 -3 -7 -7z"/> <path d="M2203 683 c4 -3 10 -3 14 0 3 4 0 7 -7 7 -7 0 -10 -3 -7 -7z"/> </g> </svg> 