<?xml version="1.0" encoding="UTF-8" standalone="no"?><!DOCTYPE svg PUBLIC "-//W3C//DTD SVG 1.1//EN" "http://www.w3.org/Graphics/SVG/1.1/DTD/svg11.dtd"><svg width="100%" height="100%" viewBox="0 0 417 417" version="1.1" xmlns="http://www.w3.org/2000/svg" xmlns:xlink="http://www.w3.org/1999/xlink" xml:space="preserve" xmlns:serif="http://www.serif.com/" style="fill-rule:evenodd;clip-rule:evenodd;stroke-linejoin:round;stroke-miterlimit:2;"><path d="M247.824,46.509c0.134,-0.269 0.314,-0.449 0.54,-0.674c1.708,-1.754 3.553,-3.374 5.442,-4.902l-10.165,-12.099l2.518,20.15l1.665,-2.475Z" style="fill:#ccc;fill-rule:nonzero;stroke:#000;stroke-width:4.17px;"/><path d="M364.326,64.5l15.021,-21.275l-24.016,10.615c0.089,0.089 0.18,0.134 0.269,0.225c3.238,3.329 6.071,6.837 8.726,10.435l-0,-0Z" style="fill:#ccc;fill-rule:nonzero;stroke:#000;stroke-width:4.17px;"/><path d="M336.201,182.381l15.967,11.244l-6.746,-17.586l-9.221,6.342Z" style="fill:#ccc;fill-rule:nonzero;stroke:#000;stroke-width:4.17px;"/><path d="M228.799,282.542l1.798,-26.896l-12.278,8.591l10.48,18.305Z" style="fill:#ccc;fill-rule:nonzero;stroke:#000;stroke-width:4.17px;"/><path d="M133.316,218.451l-27.12,7.826l18.035,5.756l9.085,-13.582Z" style="fill:#ccc;fill-rule:nonzero;stroke:#000;stroke-width:4.17px;"/><path d="M71.024,336.198l-32.158,32.833l8.051,8.275l32.158,-32.877c-1.619,-1.035 -3.193,-2.204 -4.587,-3.643c-1.395,-1.44 -2.52,-2.969 -3.464,-4.588l0,-0Z" style="fill:#ccc;fill-rule:nonzero;stroke:#000;stroke-width:4.17px;"/><path d="M26.993,370.169c-1.484,-1.484 -3.418,-2.294 -5.487,-2.294c-2.114,0 -4.049,0.81 -5.533,2.294l-1.799,1.845c-5.038,5.173 -5.038,13.493 -0,18.62l11.648,11.919c4.812,4.947 13.223,4.947 17.99,0l1.799,-1.799c3.148,-3.193 3.148,-8.366 0,-11.514l-18.618,-19.071Z" style="fill:#ccc;fill-rule:nonzero;stroke:#000;stroke-width:4.17px;"/><path d="M348.074,145.951c-0.809,-0 -1.708,-0.135 -2.518,-0.404c-0.404,-0 -0.764,-0.09 -1.079,-0.135c-3.642,-0.675 -6.701,-2.924 -8.995,-6.342c-3.599,-5.533 -4.587,-13.942 -2.653,-22.399c3.239,-14.077 13.313,-23.658 22.938,-21.768c0.269,0.046 0.629,0.135 1.079,0.226c1.213,0.089 2.294,0.404 3.327,1.035l11.155,5.848c-3.013,-14.707 -10.434,-29.324 -22.262,-41.468c-8.411,-8.591 -18.351,-15.021 -28.874,-19.204l1.259,26.896c0.045,1.17 -0.135,2.295 -0.495,3.419c-0.089,0.449 -0.135,0.81 -0.225,1.079c-1.889,8.275 -10.975,13.538 -21.904,13.538c-2.114,-0 -4.363,-0.225 -6.566,-0.63c-8.006,-1.528 -14.887,-5.667 -18.395,-11.109c-2.383,-3.642 -3.193,-7.601 -2.248,-11.469c0.045,-0.27 0.134,-0.63 0.314,-1.125c0.09,-1.17 0.45,-2.249 1.035,-3.284l11.694,-21.498c-11.29,1.889 -21.453,6.972 -29.28,14.843l-25.141,37.69l9.671,-0.945c1.169,-0.134 2.294,-0.045 3.418,0.315c0.45,0.045 0.81,0.089 1.079,0.18c3.643,0.675 6.701,2.879 8.995,6.297c3.643,5.577 4.632,13.988 2.653,22.443c-2.969,12.863 -11.648,21.993 -20.465,21.993c-0.764,-0 -1.619,-0.09 -2.383,-0.226c-0.269,-0.045 -0.63,-0.134 -1.124,-0.269c-1.17,-0.089 -2.295,-0.404 -3.328,-0.99l-22.937,-12.142l-20.689,30.988l6.701,-1.259c1.125,-0.226 2.249,-0.18 3.419,0.045c0.495,0.045 0.855,0.045 1.124,0.089c3.688,0.361 6.972,2.295 9.535,5.533c4.049,5.262 5.757,13.447 4.498,22.039c-1.979,13.538 -10.48,23.657 -19.744,23.657c-0.404,0 -0.855,-0.045 -1.305,-0.089c-0.269,-0 -0.629,-0.046 -1.124,-0.135c-1.214,0 -2.338,-0.225 -3.419,-0.675l-25.412,-10.659l-81.316,122.015c-3.058,4.497 -1.753,11.559 2.97,16.416c4.632,4.767 11.469,5.983 15.83,3.013l74.075,-51.452l-14.077,-44.346c-0.36,-1.079 -0.449,-2.203 -0.36,-3.373c-0.045,-0.449 -0.045,-0.81 -0.089,-1.124c-0.046,-3.734 1.439,-7.241 4.363,-10.165c4.632,-4.723 12.594,-7.467 21.229,-7.241c14.347,0.269 25.771,8.185 25.95,18.035c0.045,0.226 0.045,0.63 -0,1.125c0.135,1.213 0.089,2.338 -0.27,3.462l-6.251,22.488l41.827,-29.054l-14.077,-16.551c-0.72,-0.81 -1.304,-1.845 -1.619,-3.013c-0.225,-0.36 -0.404,-0.721 -0.495,-0.99c-3.913,-8.995 3.013,-21.094 15.787,-27.48c7.691,-3.868 16.011,-4.858 22.218,-2.564c3.868,1.439 6.701,3.958 8.231,7.376c0.09,0.226 0.226,0.584 0.36,1.079c0.585,1.035 0.945,2.114 1.125,3.284l2.023,15.607l23.343,-16.191l-32.067,-39.488c-0.721,-0.855 -1.259,-1.889 -1.574,-3.059c-0.226,-0.404 -0.404,-0.764 -0.495,-1.079c-3.733,-9.04 3.508,-20.914 16.371,-27.074c7.782,-3.688 16.102,-4.453 22.218,-2.069c3.868,1.484 6.658,4.093 8.097,7.556c0.089,0.269 0.225,0.629 0.36,1.079c0.54,1.035 0.899,2.114 1.035,3.284l5.082,47.584l38.229,-26.536c3.554,-3.688 6.386,-7.826 8.681,-12.279l-17.136,1.708c-0.277,0.09 -0.637,0.09 -0.906,0.09l-0.001,-0.002Z" style="fill:#ccc;fill-rule:nonzero;stroke:#000;stroke-width:4.17px;"/><path d="M354.011,103.898c-4.093,-0.54 -10.03,5.488 -12.188,14.797c-1.665,7.151 -0.315,12.594 1.439,15.293c0.855,1.349 1.845,2.114 3.013,2.338c0.36,-0.046 0.675,-0 1.035,0.089c0.404,0.045 0.764,0.18 1.17,0.315l57.749,-5.755l-50.283,-26.716c-0.719,0.089 -1.305,-0.091 -1.934,-0.36l-0.001,-0.001Z" style="fill:#ccc;fill-rule:nonzero;stroke:#000;stroke-width:4.17px;"/><path d="M280.881,63.645c-0.046,0.45 -0.18,0.944 -0.404,1.394c-0.315,1.528 0.045,2.969 0.944,4.363c2.16,3.373 6.972,6.071 12.414,7.107c9.264,1.753 16.866,-1.665 17.81,-5.848l0.045,-0.045c0,-0.405 0.046,-0.765 0.135,-1.17c0.089,-0.315 0.18,-0.63 0.315,-0.945l-2.564,-58.063l-28.65,52.666c0,0.18 -0.045,0.361 -0.045,0.541l-0,0Z" style="fill:#ccc;fill-rule:nonzero;stroke:#000;stroke-width:4.17px;"/><path d="M234.736,130.704c4.048,0.629 10.03,-5.487 12.142,-14.752c1.665,-7.15 0.361,-12.638 -1.439,-15.337c-0.809,-1.305 -1.844,-2.069 -2.969,-2.294l-0.225,-0c-0.27,-0 -0.541,-0.046 -0.81,-0.09c-0.404,-0.089 -0.764,-0.18 -1.17,-0.36l-57.793,5.802l50.282,26.716c0.811,-0.044 1.352,0.091 1.981,0.315l0.001,-0Z" style="fill:#ccc;fill-rule:nonzero;stroke:#000;stroke-width:4.17px;"/><path d="M275.034,150.043c0.135,0.361 0.269,0.765 0.315,1.17l36.069,44.256l-6.476,-59.053c-0.27,-0.36 -0.45,-0.764 -0.585,-1.259c-0.045,-0.18 -0.089,-0.36 -0.134,-0.54c-0.495,-1.214 -1.485,-1.979 -2.879,-2.518c-3.777,-1.439 -9.535,-0.721 -14.977,1.844c-8.635,4.094 -13.403,11.424 -11.784,15.247l0,0.046c0.18,0.224 0.316,0.538 0.451,0.808l-0,-0.001Z" style="fill:#ccc;fill-rule:nonzero;stroke:#000;stroke-width:4.17px;"/><path d="M261.946,193.76c-3.823,-1.394 -9.579,-0.54 -14.977,2.159c-8.591,4.272 -13.178,11.739 -11.514,15.472c0.226,0.315 0.404,0.63 0.495,0.99c0.18,0.315 0.27,0.675 0.36,1.079l37.06,43.402l-7.736,-58.829c-0.27,-0.36 -0.495,-0.764 -0.63,-1.213c-0.045,-0.18 -0.089,-0.315 -0.134,-0.495l-0,-0.09c-0.495,-1.171 -1.485,-1.936 -2.924,-2.475l0,-0Z" style="fill:#ccc;fill-rule:nonzero;stroke:#000;stroke-width:4.17px;"/><path d="M190.165,198.257c4.228,0.27 9.625,-6.297 11.018,-15.741c0.855,-6.026 -0.135,-11.784 -2.653,-15.021c-0.944,-1.259 -2.068,-1.934 -3.238,-2.024l-0,-0.045c-0.36,0.045 -0.675,0.045 -1.079,0c-0.36,0 -0.764,-0.089 -1.17,-0.225l-57.344,10.794l52.487,22.084c0.675,-0.092 1.304,-0.001 1.979,0.179l-0,-0.001Z" style="fill:#ccc;fill-rule:nonzero;stroke:#000;stroke-width:4.17px;"/><path d="M181.799,228.886c-6.071,-0.135 -11.648,1.619 -14.528,4.497c-1.124,1.125 -1.664,2.249 -1.664,3.419l-0,0.045c0.089,0.315 0.135,0.675 0.135,1.035c0.045,0.405 -0,0.765 -0.09,1.17l17.765,55.77l15.381,-54.915c-0.134,-0.63 -0.134,-1.305 -0.045,-1.98c-0.223,-4.275 -7.464,-8.862 -16.954,-9.042l0,0.001Z" style="fill:#ccc;fill-rule:nonzero;stroke:#000;stroke-width:4.17px;"/></svg>