<svg xmlns="http://www.w3.org/2000/svg" xml:space="preserve" width="512" height="512" fill-rule="evenodd" clip-rule="evenodd" viewBox="0 0 512 512">
  <g fill="#ccc" stroke="#000" stroke-width="5.12">
    <path fill-rule="nonzero" d="M464.084 99.233V78.769h-15.343l-15.35 20.464zM296.589 220.735a145 145 0 0 1 17.359 34.717 68.7 68.7 0 0 0 19.957-34.717zm-205.69-69.427H12.79v17.359h102.66a26.09 26.09 0 0 0-24.551-17.359Zm135.546-17.358h76.058l8.677-17.359h-93.417zm236.309 269.041-14.873-104.145h-34.536l14.873 104.145z"/>
    <path d="M142.97 186.024h69.433v17.358H142.97zm86.791 0h269.04v17.358H229.76z"/>
    <path fill-rule="nonzero" d="m426.053 220.736-8.677 17.359h32.666l8.681-17.359zm46.714-69.428h-17.364v-34.717h-17.358v34.717h-17.359v-34.717h-17.364v34.717h-17.357v-34.717h-17.359v34.717h-17.358v-34.717H330.59l-17.359 34.717h-97.513l-17.359-34.717H12.79v17.359h78.109c20.613.026 38.369 14.524 42.529 34.717h365.373v-52.076h-26.035zm-312.439 0H142.97V133.95h17.358zm34.717 0h-17.358V133.95h17.358z"/>
    <path fill-rule="nonzero" d="M406.648 220.736h-36.65l32.107 216.965h95.366l-24.618-172.339a8.7 8.7 0 0 1 .824-5.11l19.757-39.516h-15.306l-14.908 29.913a8.67 8.67 0 0 1-7.813 4.798h-52.074a8.67 8.67 0 0 1-8.718-8.63 8.6 8.6 0 0 1 .911-3.929zm-9.874 63.745a8.68 8.68 0 0 1 6.559-2.993h52.074a8.68 8.68 0 0 1 8.595 7.449l17.359 121.502c.685 4.748-2.614 9.137-7.357 9.823a9 9 0 0 1-1.233.087h-52.08a8.68 8.68 0 0 1-8.595-7.449l-17.358-121.502a8.68 8.68 0 0 1 2.036-6.916Zm-132.747-30.762-8.307-40.067-17.38.076 8.763 43.802c2.231 8.953 8.16 32.639 34.451 32.639h86.791l-2.957-17.491-83.829.134c-8.268 0-13.527-3.095-17.532-19.093Z"/>
    <path d="M12.79 73.669h17.358v25.579H12.79z"/>
  </g>
</svg>
