<?xml version="1.0" encoding="UTF-8" standalone="no"?><!DOCTYPE svg PUBLIC "-//W3C//DTD SVG 1.1//EN" "http://www.w3.org/Graphics/SVG/1.1/DTD/svg11.dtd"><svg width="100%" height="100%" viewBox="0 0 417 417" version="1.1" xmlns="http://www.w3.org/2000/svg" xmlns:xlink="http://www.w3.org/1999/xlink" xml:space="preserve" xmlns:serif="http://www.serif.com/" style="fill-rule:evenodd;clip-rule:evenodd;"><path d="M39.413,98.918l8.995,-13.108l117.957,80.94l-8.995,13.109l-117.957,-80.941Z" style="fill:#ccc;stroke:#000;stroke-width:4.34px;"/><path d="M12.826,42.124l8.992,-13.104l214.951,147.496l-8.993,13.105l-214.95,-147.497Z" style="fill:#ccc;stroke:#000;stroke-width:4.73px;"/><path d="M279.519,184.455l-32.572,-36.811l-7.733,11.264l39.322,26.985l0.983,-1.438Z" style="fill:#ccc;fill-rule:nonzero;stroke:#000;stroke-width:4.34px;"/><path d="M59.538,20.064l-9.828,-6.744l-8.994,13.107l19.658,13.489l-0.836,-19.852Z" style="fill:#ccc;fill-rule:nonzero;stroke:#000;stroke-width:4.34px;"/><path d="M341.789,388.703l9.017,14.943l52.167,-76.013l-11.617,-11.172l-49.567,72.242Z" style="fill:#ccc;fill-rule:nonzero;stroke:#000;stroke-width:4.34px;"/><path d="M236.39,205.166c-2.486,3.618 -7.428,4.542 -11.05,2.056l-45.873,-31.48l-8.993,13.106l39.32,26.982l-9.491,13.831c-9.932,14.475 -6.248,34.269 8.227,44.206l24.664,16.923l17.575,31.767c3.094,6.725 7.717,12.639 13.481,17.277c6.321,4.281 14.403,5.009 21.382,1.925l22.425,-8.995l24.717,40.982l46.98,-68.477l-40.527,-39.02l-25.772,-8.396c-2.439,-1.04 -4.194,-3.228 -4.666,-5.836l-5.613,-29.945l-53.298,-36.568l-13.488,19.662Zm43.361,80.677l19.975,33.145l-19.798,7.94c-6.054,2.209 -8.615,0.207 -15.189,-11.943l-13.205,-23.887l28.217,-5.255Zm0.454,-60.251l13.111,8.993l-8.998,13.108l-13.102,-8.995l8.989,-13.106Zm-46.366,23.637l-1.257,12.713c0,0 10.692,1.931 17.261,0.01c3.79,-1.109 8.583,-4.257 11.118,-7.208l10.039,16.587l-29.96,5.576l-23.524,-16.141c-7.24,-4.973 -9.082,-14.865 -4.114,-22.105l9.496,-13.828l26.904,18.464c1.038,4.316 -2.469,5.026 -5.163,6.007c-3.697,1.346 -10.8,-0.075 -10.8,-0.075Zm20.157,-41.621l13.107,8.994l-8.994,13.102l-13.106,-8.989l8.993,-13.107Z" style="fill:#ccc;fill-rule:nonzero;stroke:#000;stroke-width:4.34px;"/><path d="M340.039,229.889c-7.26,-4.889 -16.069,-6.936 -24.737,-5.755l2.926,15.719l21.811,-9.964Z" style="fill:#ccc;fill-rule:nonzero;stroke:#000;stroke-width:4.34px;"/></svg>