<?xml version="1.0" encoding="UTF-8" standalone="no"?><!DOCTYPE svg PUBLIC "-//W3C//DTD SVG 1.1//EN" "http://www.w3.org/Graphics/SVG/1.1/DTD/svg11.dtd"><svg width="100%" height="100%" viewBox="0 0 417 417" version="1.1" xmlns="http://www.w3.org/2000/svg" xmlns:xlink="http://www.w3.org/1999/xlink" xml:space="preserve" xmlns:serif="http://www.serif.com/" style="fill-rule:evenodd;clip-rule:evenodd;"><g><path d="M136.721,364.583l143.229,0c3.596,0 6.512,2.913 6.512,6.513l0,26.042c0,3.595 -2.908,6.512 -6.512,6.512l-143.229,0c-3.596,0 -6.513,-2.912 -6.513,-6.512l0,-26.042c0,-3.6 2.917,-6.513 6.513,-6.513Z" style="fill:#ccc;fill-rule:nonzero;stroke:#000;stroke-width:4.17px;"/><path d="M335.742,72.788l-84.634,-58.596c-1.091,-0.763 -2.383,-1.167 -3.712,-1.171l-91.146,-0c-3.596,-0 -6.512,2.917 -6.512,6.512l-0,39.063c0.012,0.704 0.12,1.408 0.325,2.083l13.02,39.063c0.896,2.65 3.388,4.433 6.184,4.429l78.125,-0c3.591,-0 6.512,-2.917 6.512,-6.513l0,-33.4l45.575,30.405l0,74.608c0,3.596 2.913,6.512 6.513,6.512l26.041,0c3.596,0 6.513,-2.916 6.513,-6.512l-0,-91.146c-0.008,-2.129 -1.054,-4.125 -2.804,-5.337Z" style="fill:#ccc;fill-rule:nonzero;stroke:#000;stroke-width:4.17px;"/><path d="M136.721,32.554l-13.021,0c-3.596,0 -6.512,2.917 -6.512,6.513c-0,3.596 2.916,6.512 6.512,6.512l13.021,0l-0,-13.025Z" style="fill:#ccc;fill-rule:nonzero;stroke:#000;stroke-width:4.17px;"/><path d="M358.075,13.021c-11.842,0.037 -22.162,8.067 -25.125,19.533l-32.554,0l18.817,13.021l13.612,-0c3.592,13.925 17.796,22.3 31.725,18.704c13.925,-3.596 22.3,-17.796 18.7,-31.725c-2.967,-11.483 -13.321,-19.512 -25.175,-19.533Zm0,39.062c-7.196,0 -13.021,-5.829 -13.021,-13.02c0,-7.192 5.825,-13.021 13.021,-13.021c7.2,-0 13.021,5.829 13.021,13.021c-0,7.191 -5.829,13.02 -13.021,13.02Z" style="fill:#ccc;fill-rule:nonzero;stroke:#000;stroke-width:4.17px;"/><path d="M279.95,130.208l-39.062,0l-0,-13.02l-65.105,-0l0,13.02l-39.062,0c-3.596,0 -6.513,2.917 -6.513,6.513l0,26.042c0,3.595 2.917,6.512 6.513,6.512l143.229,0c3.596,0 6.513,-2.917 6.513,-6.512l-0,-26.042c-0.005,-3.596 -2.917,-6.513 -6.513,-6.513Z" style="fill:#ccc;fill-rule:nonzero;stroke:#000;stroke-width:4.17px;"/><path d="M136.721,182.292l-0,169.271l143.229,-0l0,-169.271l-143.229,-0Zm26.041,78.125l-6.512,-0c-3.596,-0 -6.513,-2.913 -6.513,-6.513c0,-3.6 2.917,-6.512 6.513,-6.512l6.512,-0c3.596,-0 6.513,2.912 6.513,6.512c-0,3.6 -2.921,6.513 -6.513,6.513Zm6.509,-26.042l-13.021,0c-3.596,0 -6.512,-2.912 -6.512,-6.512c-0,-3.6 2.916,-6.513 6.512,-6.513l13.021,0c3.596,0 6.512,2.913 6.512,6.513c0,3.6 -2.916,6.512 -6.512,6.512Zm13.021,-26.042l-26.042,0c-3.596,0 -6.513,-2.916 -6.513,-6.512c0,-3.596 2.917,-6.513 6.513,-6.513l26.042,0c3.595,0 6.512,2.917 6.512,6.513c0,3.596 -2.917,6.512 -6.512,6.512Zm78.125,130.209l-13.021,-0c-3.596,-0 -6.513,-2.913 -6.513,-6.513c0,-3.6 2.913,-6.512 6.513,-6.512l13.021,-0c3.595,-0 6.512,2.912 6.512,6.512c0,3.6 -2.917,6.513 -6.512,6.513Z" style="fill:#ccc;fill-rule:nonzero;stroke:#000;stroke-width:4.17px;"/></g></svg>