<svg xmlns="http://www.w3.org/2000/svg" xml:space="preserve" width="512" height="512" fill-rule="evenodd" stroke-linejoin="round" stroke-miterlimit="2" clip-rule="evenodd" viewBox="0 0 512 512">
  <path fill="#ccc" fill-rule="nonzero" stroke="#000" stroke-width="5.12" d="m169.707 306.207-41.105 23.731c-2.178 1.259-3.827 3.245-4.572 5.503l-14.795 44.755-54.143 31.259-42.301-73.268 131.535-75.942zm-82.21 47.464-16.442 9.492-16.921-29.307-16.443 9.492 25.381 43.961 32.883-18.986zm15.963-48.293-16.442 9.492 8.461 14.654 16.442-9.493zm32.885-18.986-16.442 9.492 8.46 14.654 16.442-9.493z"/>
  <path fill="#ccc" fill-rule="nonzero" stroke="#000" stroke-width="4.911" d="m241.17 176.14 14.723 25.499-36.038 20.807-25.949-19.019z"/>
  <path fill="#ccc" fill-rule="nonzero" stroke="#000" stroke-width="5.12" d="m191.748 175.284 104.933-60.583 16.681 9.907-121.375 70.075z"/>
  <path fill="#ccc" fill-rule="nonzero" stroke="#000" stroke-width="4.911" d="m204.923 222.789-18.894 3.079a12.4 12.4 0 0 0-4.151 1.504l-16.886 9.749c-4.624 2.671-6.762 7.738-4.741 11.238.57.988 1.437 1.788 2.529 2.339l28.085 13.985-1.931 31.315c-.07 1.222.19 2.372.761 3.359 2.02 3.501 7.479 4.182 12.103 1.513l16.885-9.749a12.4 12.4 0 0 0 3.379-2.842l12.115-14.823 2.64 24.197-45.184 26.087-51.528-89.25 45.184-26.086z"/>
  <path fill="#ccc" fill-rule="nonzero" stroke="#000" stroke-width="4.911" d="m224.617 256.943-21.298 26.049-1.23.71 1.401-22.508c.153-2.477-1.068-4.593-3.291-5.7l-20.193-10.041 1.229-.71 33.209-5.421z"/>
  <path fill="#ccc" fill-rule="nonzero" stroke="#000" stroke-width="5.12" d="m94.321 251.579 17.851-7.053-19.09-33.066 16.442-9.492 29.61 51.287-82.21 47.464-16.154-27.981 35.701-14.106-20.503-35.512 16.442-9.493z"/>
  <path fill="#ccc" fill-rule="nonzero" stroke="#000" stroke-width="4.911" d="m301.88 260.089-7.361-12.75 16.843-9.726-11.042-19.124 16.844-9.724 11.042 19.124 16.843-9.724-11.042-19.126 16.844-9.724 11.042 19.124 16.843-9.724-11.042-19.124 16.844-9.726 11.042 19.126 16.843-9.726-11.042-19.124 16.844-9.724 11.042 19.124c1.659-.958 3.076-2.278 4.055-3.769l16.375-25.027 5.895-3.404 7.361 12.75 16.844-9.724-7.361-12.75 16.843-9.726 9.518 16.486-6.704 15.889z"/>
  <path fill="#ccc" fill-rule="nonzero" stroke="#000" stroke-width="5.12" d="m209.318 324.707 56.536-32.642 11.602 69.345-34.653 12.542 5.068 16.222 32.428-11.728 3.257 19.484-31.633 9.931 4.227 16.512 30.24-9.497 3.017 18.001-56.352 17.695zm77.857-18.819-3.992-23.828 17.388-10.039c5.104 12.449 13.085 23.462 23.414 32.299-12.177 4.177-25.061 4.72-36.811 1.568Z"/>
  <path fill="#ccc" fill-rule="nonzero" stroke="#000" stroke-width="4.911" d="m241.939 260.695 36.036-20.805 14.723 25.499-47.264 27.287z"/>
  <path fill="#ccc" fill-rule="nonzero" stroke="#000" stroke-width="4.641" d="m332.201 253.306 12.645-6.32 26.79 29.889c7.842 8.298 11.996 20.119 8.419 32.22-3.378 11.377-8.569 19.447-20.244 26.155-16.55 9.555-66.915 21.768-72.57 23.3l-1.461-12.936c14.692-3.978 53.901-15.509 65.773-22.362 7.05-4.004 12.313-10.325 14.308-17.185 2.194-7.6.582-15.008-4.397-20.174z"/>
  <path fill="#ccc" fill-rule="nonzero" stroke="#000" stroke-width="4.911" d="m442.994 76.617-16.843 9.724 7.361 12.751-5.895 3.404-29.886 1.682c-1.783.103-3.613.667-5.267 1.613l11.042 19.124-16.844 9.726-11.041-19.124-16.844 9.724 11.042 19.124-16.843 9.724-11.042-19.124-16.844 9.726 11.042 19.124-16.843 9.724-11.042-19.124-16.844 9.724 11.042 19.124-16.843 9.726-11.042-19.124-16.844 9.724-7.361-12.75L440.572 61.017l17.112 2.139 9.518 16.486-16.843 9.724z"/>
  <path fill="#ccc" stroke="#000" stroke-width="5.12" d="m137.775 196.399 12.689 21.98 16.443-9.492-12.691-21.98z"/>
</svg>
