<svg xmlns="http://www.w3.org/2000/svg" xml:space="preserve" width="512" height="512" fill-rule="evenodd" stroke-linejoin="round" stroke-miterlimit="2" clip-rule="evenodd" viewBox="0 0 512 512">
  <g fill="#ccc" stroke="#000" stroke-width="5.12">
    <path fill-rule="nonzero" d="M71.755 401.453 53.804 498.56a8.84 8.84 0 0 1-3.6-2.316l-26.189-26.189c-5.692-5.738-3.561-17.266 4.731-25.594zm40.36-40.436L90.758 476.553l-17.634 17.634a31 31 0 0 1-3.753 3.239L90.61 382.528z"/>
    <path d="m131.542 341.59 47.115 47.286-68.522 68.522zm29.772-30.914L464.35 14.755c2.959-2.941 7.804-2.941 10.763 0a53.46 53.46 0 0 1 15.655 37.785c0 14.17-56.798 78.928-66.814 88.944L203.219 352.58zm-28.501-8.132 83.415 83.274c3.024 3.041 3.262 7.789.528 10.537-1.322 1.356-3.196 2.066-5.191 1.976-1.995-.109-3.951-1.013-5.417-2.508l-83.339-83.194c-1.482-1.475-2.377-3.429-2.477-5.42-.206-4.098 3.001-7.306 7.104-7.099 1.972.099 3.903.975 5.377 2.435Z"/>
  </g>
</svg>
