<?xml version="1.0" encoding="UTF-8" standalone="no"?><!DOCTYPE svg PUBLIC "-//W3C//DTD SVG 1.1//EN" "http://www.w3.org/Graphics/SVG/1.1/DTD/svg11.dtd"><svg width="100%" height="100%" viewBox="0 0 417 417" version="1.1" xmlns="http://www.w3.org/2000/svg" xmlns:xlink="http://www.w3.org/1999/xlink" xml:space="preserve" xmlns:serif="http://www.serif.com/" style="fill-rule:evenodd;clip-rule:evenodd;stroke-linejoin:round;stroke-miterlimit:2;"><path d="M344.342,354.966l-12.986,1.659l0.211,10.73c0.033,2.367 -0.814,4.631 -2.36,6.324c-1.562,1.676 -3.678,2.626 -5.892,2.644l-16.878,-0c-4.639,-0 -8.415,-4.009 -8.415,-8.951l0,-34.609c-0.016,-13.736 -10.514,-24.881 -23.453,-24.898l-7.357,0c-12.566,0.017 -22.738,10.816 -22.754,24.155l-0,46.426c-0,7.724 -5.892,13.979 -13.168,13.979l-12.923,-0c-7.064,-0 -12.793,-6.1 -12.809,-13.598l-0,-97.276c-0.016,-16.588 -12.679,-30.048 -28.32,-30.065l-11.849,0c-15.642,0.018 -28.304,13.477 -28.32,30.065l-0,98.039c-0.017,7.084 -5.42,12.837 -12.11,12.837l-28.288,0c-6.331,0 -11.458,-5.459 -11.458,-12.164c0.016,0 -0.049,-30.721 0.016,-30.669l0,-0.017l-13.039,-1.607l0,32.293c0.016,14.341 10.97,25.97 24.479,25.987l28.288,0c13.867,-0.017 25.114,-11.94 25.13,-26.661l0,-98.038c0,-8.968 6.852,-16.225 15.3,-16.242l11.849,0c8.447,0.017 15.299,7.274 15.299,16.242l-0,97.275c0.016,15.136 11.572,27.404 25.83,27.421l12.923,0c14.453,-0.017 26.172,-12.457 26.189,-27.801l-0,-46.426c-0,-5.702 4.361,-10.332 9.733,-10.332l7.356,-0c5.762,-0 10.433,4.959 10.433,11.075l0,34.609c0.017,12.562 9.603,22.756 21.436,22.773c9.57,-0.38 25.049,2.385 32.08,-6.79c7.341,-6.842 6.087,-19.093 5.811,-28.372l0.016,-0.017Z" style="fill:#ccc;fill-rule:nonzero;stroke:#000;stroke-width:4.17px;"/><path d="M361.01,320.27l-0.002,0.001c-0.081,11.421 -6.673,21.65 -16.666,25.848l-0.016,0.018c-6.84,3.516 -12.97,1.642 -12.97,1.642c-9.571,-1.296 -17.693,-8.086 -21.127,-17.642c-3.451,-9.555 -1.677,-20.354 4.622,-28.112c-3.271,-23.981 -8.544,-56.19 -11.393,-80.172c-0.569,-1.019 -25.618,-19.836 -24.674,-20.941c-9.017,-39.014 -5.094,-80.156 11.133,-116.458c6.901,-15.222 15.869,-29.286 26.627,-41.727c7.504,-8.898 15.853,-16.933 24.935,-23.982c2.149,-1.607 4.981,-1.694 7.211,-0.242c2.229,1.451 3.434,4.181 3.076,6.946c-8.057,53.249 -6.966,107.608 3.19,160.462c0.325,1.884 -0.082,3.836 -1.107,5.391l-17.057,25.365c0.163,0.432 0.26,0.864 0.325,1.313c3.483,23.727 7.894,54.843 11.393,78.584c7.732,5.097 12.452,14.047 12.5,23.706Zm-30.274,-27.578c1.335,-0.207 2.686,-0.328 4.037,-0.345l-1.823,-12.406l-7.943,1.296l1.823,12.423c1.27,-0.432 2.572,-0.76 3.906,-0.968Zm-29.036,-202.298l-0,0.001c-13.59,31 -17.79,65.693 -12.044,99.316l9.049,-1.451c-3.304,-34.328 -1.513,-69.009 5.339,-102.772c-0.846,1.589 -1.628,3.247 -2.344,4.906Zm17.252,148.838l7.878,-1.296c0,-0.035 -1.562,-10.972 -1.562,-11.024l-7.943,1.314l1.627,11.006Zm4.102,28.354l7.942,-1.279l-2.148,-14.704l-7.943,1.296l2.149,14.687Z" style="fill:#ccc;stroke:#000;stroke-width:4.17px;"/><path d="M72.19,339.123c-7.689,-2.93 -15.055,-12.319 -16.309,-22.341c-1.237,-10.021 2.686,-19.991 10.271,-26.09c0.585,-0.415 1.171,-0.899 1.757,-1.244l3.581,-24.467c0.195,-1.849 4.134,-28.198 4.297,-29.926l3.515,-24.121c0.049,-0.432 0.147,-0.847 0.326,-1.244l-17.057,-25.434c-1.026,-1.555 -1.433,-3.508 -1.107,-5.391c2.735,-14.166 4.883,-28.819 6.315,-43.54c3.744,-38.947 2.702,-78.256 -3.125,-116.926c-0.374,-2.765 0.83,-5.495 3.076,-6.946c2.23,-1.469 5.062,-1.365 7.211,0.242c25.848,20.232 45.591,47.997 56.854,79.91c11.263,31.933 13.574,66.626 6.624,99.904c-0.293,1.763 -1.172,3.369 -2.474,4.493l-22.982,18.799c0.065,0.535 0.065,1.071 0,1.589l-3.58,24.674c-2.084,13.845 -5.827,40.107 -7.813,53.913c6.153,7.775 7.878,18.471 4.476,27.974c-3.385,9.486 -11.604,15.759 -20.817,17.779c-4.319,0.947 -8.855,-0.013 -13.039,-1.607Zm17.4,-108.289c-0.065,0.087 7.878,1.296 7.878,1.331l1.627,-11.076l-7.942,-1.244l-1.563,10.989Zm-4.166,28.337c-0.082,0.121 7.959,1.296 7.959,1.348l2.132,-14.687c0.032,-0.035 -7.943,-1.296 -7.943,-1.313l-2.148,14.652Zm29.297,-175.825l-0.001,-0.001c-0.716,-1.658 -1.497,-3.316 -2.343,-4.905c6.852,33.76 8.659,68.439 5.339,102.771l9.049,1.452c5.761,-33.624 1.546,-68.319 -12.044,-99.317Zm-31.251,189.545l-1.758,12.337c2.67,0.017 5.339,0.466 7.878,1.313l1.823,-12.355l-7.943,-1.295Z" style="fill:#ccc;stroke:#000;stroke-width:4.17px;"/></svg>