<?xml version="1.0" encoding="UTF-8" standalone="no"?><!DOCTYPE svg PUBLIC "-//W3C//DTD SVG 1.1//EN" "http://www.w3.org/Graphics/SVG/1.1/DTD/svg11.dtd"><svg width="100%" height="100%" viewBox="0 0 417 417" version="1.1" xmlns="http://www.w3.org/2000/svg" xmlns:xlink="http://www.w3.org/1999/xlink" xml:space="preserve" xmlns:serif="http://www.serif.com/" style="fill-rule:evenodd;clip-rule:evenodd;"><g><path d="M258.933,140.706c-0,-9.046 7.089,-16.4 15.803,-16.4c10.016,0 18.161,8.453 18.161,18.847l-0,28.137c-5.021,-2.185 -10.95,-4.759 -18.053,-7.848c-5.209,-2.257 -10.708,-2.78 -15.911,-1.878l-0,-20.858Z" style="fill:#ccc;fill-rule:nonzero;stroke:#000;stroke-width:4.17px;"/><path d="M206.761,138.343c0,-10.32 8.091,-18.708 18.032,-18.708c9.941,-0 18.026,8.393 18.026,18.708l0,31.999c-2.422,2.602 -4.446,5.678 -5.874,9.211c-4.823,11.96 -1.509,21.829 4.489,29.96c-2.519,5.85 -8.173,9.808 -14.419,9.808l-2.222,-0c-9.946,-0 -18.032,-8.398 -18.032,-18.713l0,-62.265Z" style="fill:#ccc;fill-rule:nonzero;stroke:#000;stroke-width:4.17px;"/><path d="M157.267,138.499c0,-7.428 5.821,-13.47 12.979,-13.47l7.415,0c7.159,0 12.985,6.041 12.985,13.47l-0,66.762c-0,7.428 -5.827,13.47 -12.985,13.47l-7.415,-0c-7.12,-0 -12.909,-5.985 -12.968,-13.364l-0,-59.161c-0,-0.039 -0.011,-0.072 -0.011,-0.105l0,-7.602Z" style="fill:#ccc;fill-rule:nonzero;stroke:#000;stroke-width:4.17px;"/><path d="M112.504,146.206c-0,-6.28 4.925,-11.391 10.977,-11.391l6.711,0c6.014,0 10.906,5.056 10.965,11.286l0,59.166c0,0.072 0.012,0.145 0.012,0.218l-0,1.137c-0,6.28 -4.925,11.391 -10.977,11.391l-6.711,-0c-6.052,-0 -10.977,-5.111 -10.977,-11.391l-0,-60.416Z" style="fill:#ccc;fill-rule:nonzero;stroke:#000;stroke-width:4.17px;"/><path d="M274.115,309.188c-2.063,1.076 -4.114,2.179 -6.16,3.277c-9.252,4.948 -17.984,9.629 -27.37,12.377c-4.284,1.254 -6.776,5.873 -5.563,10.317c1.004,3.683 4.231,6.09 7.742,6.09c0.726,0 1.462,-0.1 2.192,-0.318c6.396,-1.872 12.404,-4.485 18.219,-7.329c1.719,5.04 3.571,10.033 5.473,14.885c3.936,10.094 7.662,19.616 9.332,29.224c0.887,5.067 0.349,9.643 -1.492,12.881c-7.996,13.992 -36.004,14.766 -52.737,15.229l-4.854,0.145c-21.296,0.764 -44.805,-2.229 -66.199,-8.443c-4.741,-1.376 -11.061,-4.074 -14.256,-9.139c-6.632,-10.473 -2.331,-25.629 1.836,-40.285c0.994,-3.511 1.997,-7.073 2.868,-10.61c5.015,2.099 10.541,3.432 16.683,3.744c0.135,0.006 0.269,0.011 0.398,0.011c4.269,0 7.83,-3.477 8.039,-7.953c0.219,-4.608 -3.211,-8.531 -7.652,-8.754c-36.751,-1.861 -45.659,-57.918 -47.668,-92.03c3.243,1.428 6.804,2.218 10.541,2.218l6.713,-0c7.533,-0 14.348,-3.221 19.261,-8.386c5.284,5.616 12.646,9.116 20.791,9.116l7.416,0c8.892,0 16.861,-4.174 22.199,-10.721c4.736,5.265 10.964,9.062 18.01,10.577c-5.907,8.347 -11.384,19.093 -14.262,32.467c-0.972,4.508 1.761,8.973 6.106,9.981c0.59,0.133 1.18,0.2 1.761,0.2c3.694,-0 7.018,-2.646 7.856,-6.536c4.704,-21.84 17.983,-35.103 25.48,-41.067c0.134,-0.106 0.236,-0.239 0.359,-0.35c3.12,-2.257 5.869,-5.044 8.059,-8.309c2.051,1.745 4.077,3.376 5.956,4.882c3.656,2.925 7.11,5.695 9.543,8.226c3.145,3.276 8.253,3.265 11.388,0.01c3.152,-3.265 3.152,-8.553 0.012,-11.82c-3.168,-3.293 -7.024,-6.38 -11.099,-9.646c-15.052,-12.054 -20.772,-18.518 -17.217,-27.329c2.738,-6.777 10.267,-9.998 16.814,-7.15c0,0 43.651,18.964 44.349,19.27c3.952,1.718 6.83,6.12 8.555,13.086c2.728,11.017 0.182,23.707 -2.278,35.983c-0.548,2.715 -1.079,5.406 -1.562,8.047c-3.094,17.074 -7.765,28.126 -15.159,35.822c-6.627,6.898 -15.357,11.396 -24.603,16.15l-3.82,1.96Z" style="fill:#ccc;fill-rule:nonzero;stroke:#000;stroke-width:4.17px;"/></g><path d="M398.466,98.17l-72.961,0.844l11.692,-80.239c0.717,-3.003 -0.648,-6.126 -3.332,-7.64c-2.682,-1.513 -6.046,-1.056 -8.233,1.131l-71.766,64.835l-32.649,-48.213c-1.185,-1.952 -3.257,-3.183 -5.532,-3.304c-2.283,-0.115 -4.456,0.9 -5.839,2.727l-34.959,38.027l-70.003,-42.927c-2.269,-1.356 -5.109,-1.287 -7.314,0.167c-2.206,1.458 -3.387,4.055 -3.042,6.679l5.151,58.373l-62.059,-3.617c-2.411,-0.032 -4.76,1.232 -6.033,3.345c-1.272,2.113 -1.328,4.747 -0.137,6.915l34.063,65.938l-51.744,36.427c-2.173,1.222 -3.519,3.534 -3.519,6.034c-0,2.501 1.346,4.812 3.519,6.035l55.562,27.168l-41.781,50.405c-1.756,2.117 -2.096,5.079 -0.863,7.538c1.235,2.464 3.827,3.879 6.537,3.801l69.019,-3.812c-0,0 5.592,-0.226 4.898,-1.697c-14.171,-33.211 -13.582,-74.011 -13.127,-84.889l-0,-49.252c-0,-23.007 18.64,-41.722 41.553,-41.722l5.743,-0c2.752,-0 5.473,0.271 8.128,0.802c7.438,-5.669 16.622,-8.904 26.142,-8.904l6.346,-0c5.247,-0 10.37,0.945 15.166,2.754c7.439,-4.683 16.096,-7.225 25.164,-7.225c8.997,0 17.744,2.616 25.243,7.341c5.472,-2.279 11.389,-3.474 17.491,-3.474c26.304,0 47.7,21.484 47.7,47.895l0,16.908c8.62,4.327 18.833,13.212 23.487,31.412c4.182,16.382 0.97,31.911 -1.621,44.427c-0.418,2.021 -0.836,4.022 -1.209,6.025c-2.389,12.746 -7.221,31.219 -21.093,45.671l52.07,-17.097c1.985,-0.654 3.569,-2.173 4.304,-4.133c0.74,-1.965 0.551,-4.152 -0.514,-5.96l-14.423,-38.581l41.898,-37.526c2.209,-1.416 3.431,-3.966 3.146,-6.587c-0.285,-2.621 -2.026,-4.848 -4.492,-5.748l-35.309,-23.288l45.454,-52.361c1.861,-2.145 2.224,-5.217 0.919,-7.742c-1.305,-2.523 -4.016,-3.999 -6.841,-3.686Z" style="fill:#ccc;fill-rule:nonzero;stroke:#000;stroke-width:4.17px;"/></svg>