<svg xmlns="http://www.w3.org/2000/svg" xml:space="preserve" fill-rule="evenodd" stroke-linejoin="round" stroke-miterlimit="2" clip-rule="evenodd" viewBox="0 0 512 512" width="512" height="512">
  <path fill="#ccc" fill-rule="nonzero" stroke="#000" stroke-width="5.12" d="M304.283 57.105c0.165 -0.33 0.386 -0.551 0.663 -0.828 2.097 -2.154 4.362 -4.143 6.682 -6.019l-12.481 -14.855 3.092 24.741zM447.326 79.194l18.443 -26.122 -29.487 13.033c0.109 0.109 0.221 0.165 0.33 0.276 3.976 4.087 7.454 8.395 10.714 12.812Zm-34.532 144.736 19.605 13.806 -8.283 -21.592zM280.923 346.91l2.208 -33.023 -15.075 10.548zm-117.236 -78.692 -33.298 9.609 22.144 7.067zM87.205 412.79l-39.484 40.313 9.885 10.16 39.484 -40.367c-1.988 -1.271 -3.92 -2.706 -5.632 -4.473a28.976 28.976 0 0 1 -4.253 -5.633Zm-54.062 41.71c-1.822 -1.822 -4.197 -2.817 -6.737 -2.817a9.479 9.479 0 0 0 -6.794 2.817l-2.209 2.265c-6.186 6.352 -6.186 16.567 0 22.862l14.302 14.634c5.908 6.074 16.235 6.074 22.088 0l2.209 -2.209c3.865 -3.92 3.865 -10.272 0 -14.137zm394.229 -275.299a10.068 10.068 0 0 1 -3.092 -0.496c-0.496 0 -0.938 -0.111 -1.325 -0.166 -4.472 -0.829 -8.228 -3.59 -11.044 -7.787 -4.419 -6.794 -5.632 -17.118 -3.257 -27.502 3.977 -17.284 16.346 -29.048 28.164 -26.727 0.33 0.056 0.772 0.166 1.325 0.277 1.489 0.109 2.817 0.496 4.085 1.271l13.696 7.18c-3.699 -18.058 -12.811 -36.005 -27.334 -50.915a102.768 102.768 0 0 0 -35.452 -23.579l1.546 33.023c0.055 1.437 -0.166 2.818 -0.608 4.198 -0.109 0.551 -0.166 0.995 -0.276 1.325 -2.319 10.16 -13.475 16.622 -26.894 16.622 -2.596 0 -5.357 -0.276 -8.062 -0.774 -9.83 -1.876 -18.279 -6.958 -22.586 -13.64 -2.926 -4.472 -3.92 -9.333 -2.76 -14.082 0.055 -0.332 0.165 -0.774 0.386 -1.381 0.111 -1.437 0.553 -2.761 1.271 -4.032l14.358 -26.396c-13.862 2.319 -26.34 8.56 -35.951 18.224L282.693 110.123l11.874 -1.16c1.435 -0.165 2.817 -0.055 4.197 0.387 0.553 0.055 0.995 0.109 1.325 0.221 4.473 0.829 8.228 3.535 11.044 7.732 4.473 6.848 5.687 17.175 3.257 27.556 -3.645 15.793 -14.302 27.003 -25.127 27.003 -0.938 0 -1.988 -0.111 -2.926 -0.277 -0.33 -0.055 -0.774 -0.165 -1.38 -0.33 -1.437 -0.109 -2.818 -0.496 -4.086 -1.216l-28.162 -14.908 -25.402 38.048 8.228 -1.546c1.381 -0.277 2.761 -0.221 4.198 0.055 0.608 0.055 1.05 0.055 1.38 0.109 4.528 0.443 8.56 2.818 11.707 6.794 4.971 6.461 7.069 16.51 5.523 27.06 -2.43 16.622 -12.868 29.046 -24.242 29.046 -0.496 0 -1.05 -0.055 -1.602 -0.109 -0.33 0 -0.772 -0.056 -1.38 -0.166a10.805 10.805 0 0 1 -4.198 -0.829l-31.201 -13.087 -99.841 149.812c-3.755 5.521 -2.152 14.192 3.647 20.156 5.687 5.853 14.082 7.346 19.436 3.699l90.951 -63.174 -17.284 -54.449c-0.442 -1.325 -0.551 -2.705 -0.442 -4.141 -0.055 -0.551 -0.055 -0.995 -0.109 -1.38 -0.056 -4.585 1.767 -8.891 5.357 -12.481 5.687 -5.799 15.463 -9.168 26.065 -8.891 17.616 0.33 31.642 10.05 31.862 22.144 0.055 0.277 0.055 0.774 0 1.381 0.166 1.489 0.109 2.871 -0.332 4.251l-7.675 27.611 51.356 -35.673 -17.284 -20.322a9.209 9.209 0 0 1 -1.988 -3.699 6.139 6.139 0 0 1 -0.608 -1.216c-4.804 -11.044 3.699 -25.9 19.384 -33.74 9.443 -4.749 19.659 -5.965 27.28 -3.148 4.749 1.767 8.228 4.86 10.106 9.056 0.111 0.277 0.277 0.717 0.442 1.325a11.664 11.664 0 0 1 1.381 4.032l2.484 19.163 28.661 -19.88 -39.372 -48.484a9.7 9.7 0 0 1 -1.933 -3.756c-0.277 -0.496 -0.496 -0.938 -0.608 -1.325 -4.583 -11.099 4.307 -25.679 20.101 -33.242 9.555 -4.528 19.77 -5.467 27.28 -2.54 4.749 1.822 8.175 5.025 9.942 9.277 0.109 0.33 0.276 0.772 0.442 1.325 0.663 1.271 1.104 2.596 1.271 4.032l6.24 58.424 46.938 -32.581c4.364 -4.528 7.841 -9.609 10.659 -15.076l-21.04 2.097c-0.34 0.111 -0.782 0.111 -1.112 0.111z"/>
  <path fill="#ccc" fill-rule="nonzero" stroke="#000" stroke-width="5.12" d="M434.661 127.568c-5.025 -0.663 -12.315 6.738 -14.965 18.168 -2.044 8.78 -0.387 15.463 1.767 18.777 1.05 1.656 2.265 2.596 3.699 2.871 0.442 -0.056 0.829 0 1.271 0.109 0.496 0.055 0.938 0.221 1.437 0.387l70.905 -7.066 -61.738 -32.802c-0.883 0.109 -1.602 -0.112 -2.375 -0.442zm-89.79 -49.423c-0.056 0.553 -0.221 1.159 -0.496 1.712 -0.387 1.876 0.055 3.645 1.159 5.357 2.652 4.141 8.56 7.454 15.242 8.726 11.375 2.152 20.708 -2.044 21.867 -7.18l0.055 -0.055c0 -0.497 0.056 -0.939 0.166 -1.437 0.109 -0.387 0.221 -0.774 0.387 -1.16l-3.148 -71.291 -35.177 64.664c0 0.221 -0.055 0.443 -0.055 0.664Zm-56.658 82.336c4.97 0.772 12.315 -6.737 14.908 -18.113 2.044 -8.779 0.443 -15.517 -1.767 -18.831 -0.993 -1.602 -2.264 -2.54 -3.645 -2.817h-0.276c-0.332 0 -0.664 -0.056 -0.995 -0.111 -0.496 -0.109 -0.938 -0.221 -1.437 -0.442l-70.959 7.124 61.737 32.802c0.996 -0.054 1.66 0.112 2.432 0.387zm49.479 23.745c0.166 0.443 0.33 0.939 0.387 1.437l44.286 54.338 -7.951 -72.506c-0.332 -0.442 -0.553 -0.938 -0.718 -1.546l-0.165 -0.663c-0.608 -1.491 -1.823 -2.43 -3.535 -3.092 -4.637 -1.767 -11.707 -0.885 -18.389 2.264 -10.602 5.027 -16.456 14.027 -14.469 18.721v0.056c0.221 0.275 0.388 0.661 0.554 0.992zm-16.07 53.677c-4.694 -1.712 -11.761 -0.663 -18.389 2.651 -10.548 5.245 -16.18 14.413 -14.137 18.997 0.277 0.387 0.496 0.774 0.608 1.216 0.221 0.387 0.332 0.829 0.442 1.325l45.503 53.29 -9.498 -72.231a4.788 4.788 0 0 1 -0.774 -1.489c-0.055 -0.221 -0.109 -0.387 -0.165 -0.608v-0.111c-0.608 -1.438 -1.823 -2.377 -3.59 -3.039Zm-88.134 5.521c5.191 0.332 11.818 -7.732 13.528 -19.327 1.05 -7.399 -0.166 -14.469 -3.257 -18.443 -1.159 -1.546 -2.539 -2.375 -3.976 -2.485v-0.055c-0.442 0.055 -0.829 0.055 -1.325 0 -0.442 0 -0.938 -0.109 -1.437 -0.276l-70.408 13.253 64.444 27.115c0.829 -0.113 1.601 -0.001 2.43 0.22zm-10.272 37.607c-7.454 -0.166 -14.302 1.988 -17.838 5.521 -1.38 1.381 -2.043 2.761 -2.043 4.198v0.055c0.109 0.387 0.166 0.829 0.166 1.271 0.055 0.497 0 0.939 -0.111 1.437l21.812 68.475 18.885 -67.426c-0.165 -0.774 -0.165 -1.602 -0.055 -2.431 -0.274 -5.249 -9.164 -10.881 -20.816 -11.102z"/>
</svg>
