<?xml version="1.0" encoding="UTF-8" standalone="no"?><!DOCTYPE svg PUBLIC "-//W3C//DTD SVG 1.1//EN" "http://www.w3.org/Graphics/SVG/1.1/DTD/svg11.dtd"><svg width="100%" height="100%" viewBox="0 0 417 417" version="1.1" xmlns="http://www.w3.org/2000/svg" xmlns:xlink="http://www.w3.org/1999/xlink" xml:space="preserve" xmlns:serif="http://www.serif.com/" style="fill-rule:evenodd;clip-rule:evenodd;"><g><path d="M377.975,80.821l0,-16.667l-12.496,0l-12.502,16.667l24.998,-0Z" style="fill:#ccc;fill-rule:nonzero;stroke:#000;stroke-width:4.17px;"/><path d="M241.558,179.779c5.959,8.746 10.713,18.258 14.138,28.275c8.104,-7.6 13.766,-17.446 16.254,-28.275l-30.392,0Z" style="fill:#ccc;fill-rule:nonzero;stroke:#000;stroke-width:4.17px;"/><path d="M74.033,123.233l-63.616,0l-0,14.138l83.612,-0c-3.004,-8.467 -11.012,-14.125 -19.996,-14.138Z" style="fill:#ccc;fill-rule:nonzero;stroke:#000;stroke-width:4.17px;"/><path d="M184.429,109.096l61.946,-0l7.067,-14.138l-76.084,0l7.071,14.138Z" style="fill:#ccc;fill-rule:nonzero;stroke:#000;stroke-width:4.17px;"/><path d="M376.892,328.217l-12.113,-84.821l-28.129,-0l12.113,84.821l28.129,-0Z" style="fill:#ccc;fill-rule:nonzero;stroke:#000;stroke-width:4.17px;"/><rect x="116.442" y="151.508" width="56.55" height="14.137" style="fill:#ccc;stroke:#000;stroke-width:4.17px;"/><rect x="187.129" y="151.508" width="219.121" height="14.137" style="fill:#ccc;stroke:#000;stroke-width:4.17px;"/><path d="M347,179.779l-7.067,14.138l26.605,-0l7.07,-14.138l-26.608,0Z" style="fill:#ccc;fill-rule:nonzero;stroke:#000;stroke-width:4.17px;"/><path d="M385.046,123.233l-14.142,0l0,-28.275l-14.137,0l-0,28.275l-14.138,0l0,-28.275l-14.142,0l0,28.275l-14.137,0l-0,-28.275l-14.138,0l0,28.275l-14.137,0l-0,-28.275l-16.825,0l-14.138,28.275l-79.42,0l-14.138,-28.275l-151.137,0l-0,14.138l63.616,-0c16.788,0.021 31.25,11.829 34.638,28.275l297.579,-0l0,-42.413l-21.204,0l-0,28.275Zm-254.467,0l-14.137,0l-0,-14.137l14.137,-0l0,14.137Zm28.275,0l-14.137,0l-0,-14.137l14.137,-0l0,14.137Z" style="fill:#ccc;fill-rule:nonzero;stroke:#000;stroke-width:4.17px;"/><path d="M331.196,179.779l-29.85,0l26.15,176.708l77.671,0l-20.05,-140.362c-0.204,-1.425 0.033,-2.875 0.671,-4.162l16.091,-32.184l-12.466,0l-12.142,24.363c-1.204,2.408 -3.667,3.925 -6.363,3.908l-42.412,0c-3.904,0.021 -7.083,-3.125 -7.1,-7.029c-0.013,-1.113 0.246,-2.204 0.742,-3.2l9.058,-18.042Zm-8.042,51.917c1.342,-1.55 3.296,-2.438 5.342,-2.438l42.412,0c3.517,0 6.5,2.584 7,6.067l14.138,98.958c0.558,3.867 -2.129,7.442 -5.992,8c-0.333,0.046 -0.671,0.071 -1.004,0.071l-42.417,0c-3.52,0 -6.5,-2.583 -7,-6.067l-14.137,-98.958c-0.288,-2.025 0.312,-4.083 1.658,-5.633Z" style="fill:#ccc;fill-rule:nonzero;stroke:#000;stroke-width:4.17px;"/><path d="M215.038,206.642l-6.766,-32.633l-14.155,0.062l7.137,35.675c1.817,7.292 6.646,26.583 28.059,26.583l70.687,0l-2.408,-14.246l-68.275,0.109c-6.734,-0 -11.017,-2.521 -14.279,-15.55Z" style="fill:#ccc;fill-rule:nonzero;stroke:#000;stroke-width:4.17px;"/><rect x="10.417" y="60" width="14.137" height="20.833" style="fill:#ccc;stroke:#000;stroke-width:4.17px;"/></g></svg>