<svg xmlns="http://www.w3.org/2000/svg" xml:space="preserve" fill-rule="evenodd" stroke-linejoin="round" stroke-miterlimit="2" clip-rule="evenodd" viewBox="0 0 512 512" width="512" height="512">
  <path fill="#ccc" fill-rule="nonzero" stroke="#000" stroke-width="5.12" d="m422.789 435.834 -15.944 2.037 0.259 13.174c0.041 2.906 -0.999 5.686 -2.898 7.765 -1.918 2.058 -4.516 3.224 -7.234 3.246h-20.723c-5.696 0 -10.332 -4.922 -10.332 -10.99v-42.494c-0.02 -16.865 -12.909 -30.549 -28.796 -30.57h-9.033c-15.429 0.021 -27.918 13.28 -27.938 29.658v57.003c0 9.484 -7.234 17.164 -16.168 17.164h-15.867c-8.673 0 -15.707 -7.49 -15.727 -16.696v-119.437c-0.02 -20.367 -15.568 -36.893 -34.772 -36.914h-14.548c-19.206 0.022 -34.752 16.547 -34.772 36.914v120.374c-0.021 8.698 -6.655 15.761 -14.869 15.761H118.694c-7.773 0 -14.068 -6.703 -14.068 -14.935 0.02 0 -0.06 -37.72 0.02 -37.656v-0.021L88.636 427.244v39.65c0.02 17.608 13.469 31.886 30.056 31.907h34.733c17.026 -0.021 30.835 -14.66 30.855 -32.735v-120.373c0 -11.011 8.413 -19.921 18.786 -19.942h14.548c10.371 0.021 18.784 8.931 18.784 19.942v119.436c0.02 18.584 14.208 33.647 31.715 33.668h15.867c17.746 -0.021 32.134 -15.295 32.155 -34.135V407.66c0 -7.001 5.355 -12.686 11.95 -12.686h9.032c7.075 0 12.81 6.089 12.81 13.598v42.494c0.021 15.424 11.791 27.94 26.32 27.961 11.75 -0.467 30.756 2.928 39.388 -8.337 9.013 -8.401 7.474 -23.443 7.135 -34.836z"/>
  <path fill="#ccc" stroke="#000" stroke-width="5.12" d="m443.254 393.233 -0.002 0.001c-0.099 14.023 -8.193 26.582 -20.463 31.737l-0.02 0.022c-8.398 4.317 -15.925 2.016 -15.925 2.016 -11.751 -1.591 -21.724 -9.928 -25.94 -21.661 -4.237 -11.732 -2.059 -24.991 5.675 -34.516 -4.016 -29.444 -10.49 -68.991 -13.989 -98.437 -0.699 -1.251 -31.454 -24.355 -30.295 -25.712 -11.071 -47.902 -6.255 -98.417 13.669 -142.989 8.473 -18.69 19.484 -35.958 32.693 -51.233 9.214 -10.925 19.465 -20.791 30.616 -29.446 2.639 -1.973 6.116 -2.08 8.854 -0.297 2.737 1.782 4.216 5.134 3.777 8.528a582.845 582.845 0 0 0 3.917 197.018c0.399 2.313 -0.101 4.71 -1.359 6.619l-20.943 31.144c0.2 0.53 0.319 1.061 0.399 1.612 4.276 29.132 9.692 67.337 13.989 96.487 9.493 6.258 15.289 17.247 15.348 29.107Zm-37.171 -33.861a35.607 35.607 0 0 1 4.957 -0.424l-2.238 -15.232 -9.753 1.591 2.238 15.253c1.559 -0.53 3.158 -0.933 4.796 -1.189ZM370.433 110.987v0.001c-16.686 38.062 -21.843 80.659 -14.788 121.942l11.111 -1.782c-4.057 -42.149 -1.858 -84.73 6.555 -126.185a82.264 82.264 0 0 0 -2.878 6.024Zm21.182 182.746 9.673 -1.591c0 -0.043 -1.918 -13.472 -1.918 -13.535l-9.753 1.613zm5.037 34.814 9.751 -1.57 -2.637 -18.054 -9.753 1.591zM88.636 416.381c-9.441 -3.598 -18.485 -15.125 -20.024 -27.431 -1.519 -12.304 3.298 -24.545 12.611 -32.034 0.718 -0.51 1.438 -1.104 2.157 -1.527l4.397 -30.041c0.239 -2.27 5.076 -34.622 5.276 -36.744l4.316 -29.616a5.034 5.034 0 0 1 0.4 -1.527l-20.943 -31.228c-1.26 -1.909 -1.759 -4.307 -1.359 -6.619a579.53 579.53 0 0 0 7.754 -53.459 586.897 586.897 0 0 0 -3.837 -143.564c-0.459 -3.395 1.019 -6.747 3.777 -8.528 2.738 -1.804 6.215 -1.676 8.854 0.297 31.737 24.841 55.977 58.932 69.806 98.115 13.829 39.208 16.666 81.805 8.133 122.664 -0.36 2.165 -1.439 4.137 -3.038 5.517l-28.218 23.082a7.981 7.981 0 0 1 0 1.951l-4.396 30.295c-2.559 16.999 -7.154 49.244 -9.593 66.195 7.555 9.546 9.673 22.679 5.496 34.347 -4.156 11.647 -14.248 19.349 -25.559 21.829 -5.303 1.163 -10.872 -0.016 -16.01 -1.973Zm21.364 -132.959c-0.08 0.107 9.673 1.591 9.673 1.634l1.998 -13.599 -9.751 -1.527zm-5.115 34.793c-0.101 0.149 9.772 1.591 9.772 1.655l2.618 -18.033c0.039 -0.043 -9.753 -1.591 -9.753 -1.612zm35.971 -215.881 -0.001 -0.001a82.264 82.264 0 0 0 -2.877 -6.022 427.772 427.772 0 0 1 6.555 126.184l11.111 1.783c7.073 -41.284 1.898 -83.883 -14.788 -121.943ZM102.486 335.06l-2.159 15.148c3.278 0.021 6.555 0.572 9.673 1.612l2.238 -15.17z"/>
</svg>
