<?xml version="1.0" encoding="UTF-8" standalone="no"?><!DOCTYPE svg PUBLIC "-//W3C//DTD SVG 1.1//EN" "http://www.w3.org/Graphics/SVG/1.1/DTD/svg11.dtd"><svg width="100%" height="100%" viewBox="0 0 417 417" version="1.1" xmlns="http://www.w3.org/2000/svg" xmlns:xlink="http://www.w3.org/1999/xlink" xml:space="preserve" xmlns:serif="http://www.serif.com/" style="fill-rule:evenodd;clip-rule:evenodd;stroke-linejoin:round;stroke-miterlimit:2;"><path d="M270.297,258.518c-0.534,-2.68 -1.479,-5.263 -2.804,-7.654l-3.599,-6.234l-26.375,15.229l7.614,13.187l25.164,-14.528Z" style="fill:#ccc;fill-rule:nonzero;stroke:#000;stroke-width:4.17px;"/><path d="M228.822,381.434c0.796,1.622 1.65,3.267 2.651,5.002l3.809,6.596c6.264,10.85 20.349,14.624 31.199,8.36l13.188,-7.614c3.617,-2.088 4.878,-6.784 2.79,-10.4c-2.09,-3.621 -6.787,-4.876 -10.404,-2.788l-13.188,7.614c-3.616,2.088 -8.309,0.83 -10.397,-2.786l-1.243,-2.153c-6.367,-7.938 -7.909,-18.757 -4.011,-28.153l23.189,-65.853c1.814,-4.226 3.129,-8.643 3.923,-13.175l-21.763,12.565l-19.572,53.22c-2.248,5.248 -3.792,10.77 -4.586,16.422l-87.226,-60.764l-14.142,8.164l105.783,75.743Z" style="fill:#ccc;fill-rule:nonzero;stroke:#000;stroke-width:4.17px;"/><path d="M76.462,214.852l13.982,-8.072l-20.196,-116.339c5.006,1.937 10.235,3.245 15.564,3.888l58.861,10.165c2.225,0.392 4.162,1.75 5.286,3.706l3.805,6.592l25.169,-14.531c-7.941,-6.669 -17.695,-10.806 -28.007,-11.886c-0.2,-0.025 -0.41,-0.056 -0.6,-0.093l-68.622,-12.84c-10.081,-1.342 -18.665,-8.09 -22.345,-17.574l-1.24,-2.148c-2.09,-3.62 -0.833,-8.313 2.784,-10.401l13.188,-7.614c3.616,-2.089 4.878,-6.784 2.79,-10.401c-2.091,-3.62 -6.788,-4.875 -10.405,-2.787l-13.187,7.614c-10.85,6.264 -14.625,20.349 -8.358,31.203l3.806,6.592c1.009,1.747 2.016,3.327 3.033,4.844l24.692,140.082Z" style="fill:#ccc;fill-rule:nonzero;stroke:#000;stroke-width:4.17px;"/><path d="M64.036,324.851l92.315,-53.298c1.304,-0.753 2.799,-1.098 4.297,-1.007l25.076,1.632l77.153,-44.544c3.616,-2.088 4.874,-6.781 2.786,-10.397c-2.091,-3.621 -6.784,-4.879 -10.4,-2.791l-46.16,26.651l-7.614,-13.188l52.751,-30.456c3.617,-2.088 4.879,-6.784 2.791,-10.4c-2.091,-3.621 -6.788,-4.876 -10.405,-2.788l-52.751,30.456l-7.614,-13.188l52.751,-30.456c3.617,-2.088 4.879,-6.783 2.791,-10.4c-2.091,-3.621 -6.788,-4.876 -10.405,-2.788l-52.751,30.456l-7.614,-13.188l59.347,-34.264c3.617,-2.088 4.874,-6.781 2.786,-10.398c-2.09,-3.62 -6.783,-4.878 -10.4,-2.79l141.201,-81.522l-5.573,20.802l20.349,-11.749l3.414,-28.344l-26.256,-11.22l-20.35,11.749l20.802,5.574l-160.985,92.944l-7.614,-13.187l-26.376,15.228l15.229,26.375l-6.592,3.806c-3.621,2.091 -8.314,0.833 -10.402,-2.783l-11.422,-19.784l-9.892,5.711l-4.096,34.015c-0.105,0.86 -0.352,1.689 -0.731,2.465l-12.17,24.61c-0.671,1.344 -1.717,2.466 -3.021,3.218l-92.315,53.299l38.07,65.939Z" style="fill:#ccc;fill-rule:nonzero;stroke:#000;stroke-width:4.17px;"/></svg>