<svg xmlns="http://www.w3.org/2000/svg" xml:space="preserve" width="512" height="512" fill-rule="evenodd" stroke-linejoin="round" stroke-miterlimit="2" clip-rule="evenodd" viewBox="0 0 512 512">
  <path fill="#ccc" fill-rule="nonzero" stroke="#000" stroke-width="5.12" d="m296.058 276.751 28.876 22.684 11.488-14.622-29.198-22.936a9.31 9.31 0 0 0-2.93-10.66l-51.695-40.609a9.295 9.295 0 0 0-13.053 1.568L217.2 240.618l-5.935-15.554 31.618-40.244 140.461 110.343-12.88 16.395-23.707-18.624-11.487 14.622 23.708 18.622-21.002 26.736-23.707-18.624a9.3 9.3 0 0 0-6.851-1.92l-42.329 5.084-10.339-8.122zM107.692 95.338 86.127 78.396 73.245 94.792l21.565 16.94zM20.756 32.1l48.775 17.482 8.457 17.905-17.268 21.98-19.4-3.977-28.531-43.25zm182.671 181.678L93.982 127.801l8.818-11.226 18.538 14.562 11.487-14.622-18.536-14.562 8.817-11.226 109.445 85.977zm-49.928-81.019-11.487 14.622 20.678 16.244 11.489-14.622zm29.869 47.111 20.678 16.244 11.489-14.621-20.679-16.244z"/>
  <path fill="#ccc" fill-rule="nonzero" stroke="#000" stroke-width="5.12" d="m294.466 414.975 8.687-68.861 7.431-.893 23.47 18.437-16.31 77.671-41.929-8.597 1.308-8.582 9.231-1.109a9.3 9.3 0 0 0 8.113-8.067zM44.323 274.113l-2.283-1.795 3.031-14.789 12.9 10.135zm310.449-75.394-26.746 34.046-26.735-21.003 45.367-57.749 40.471 31.794-1.95 24.981-17.356-13.635a9.295 9.295 0 0 0-13.053 1.568z"/>
  <path fill="#ccc" fill-rule="nonzero" stroke="#000" stroke-width="5.12" d="m395.61 256.238-34.847 4.184-24.613-19.336 24.998-31.821 44.129 34.666zm-32.369-29.55a11.066 11.066 0 1 0 2.642 21.975 11.066 11.066 0 0 0-2.642-21.975Zm-219.624-43.191-37.074-29.124-12.88 16.396 37.074 29.124zm121.574 102.444-37.074-29.125-8.818 11.227 37.074 29.124zM130.233 39.844l-10.845 40.603-5.261 6.698-21.565-16.941 29.125-37.073zm94.718 339.887-78.428-61.611-45.365 57.749 78.427 61.611zM112.283 202.1l-16.396-12.88-45.364 57.749 16.394 12.88zm132.601 109.692-37.074-29.125-8.819 11.227 37.074 29.124zm40.61-51.696-37.074-29.124-8.819 11.226 37.074 29.125zm132.888 91.087-44.456-3.469-11.155-8.762 29.124-37.074 103.391 81.22 3.515 29.276-75.4-59.232a9.33 9.33 0 0 0-5.018-1.958zm-193.8-13.542-37.074-29.124-8.819 11.226 37.074 29.124z"/>
  <path fill="#ccc" fill-rule="nonzero" stroke="#000" stroke-width="5.12" d="M424.658 446.593 412.5 363.329l51.824 41.241z"/>
  <path fill="#ccc" fill-rule="nonzero" stroke="#000" stroke-width="5.12" d="m426.468 479.491-35.299-27.733-11.491-95.68 18.905 1.475 10.398 86.583a9.28 9.28 0 0 0 3.487 6.203l10.339 8.122a9.33 9.33 0 0 0 6.431 1.965 9.33 9.33 0 0 0 6.072-2.892l44.015-46.63 15.91 12.502-57.204 54.697z"/>
</svg>
