<?xml version="1.0" encoding="UTF-8" standalone="no"?><!DOCTYPE svg PUBLIC "-//W3C//DTD SVG 1.1//EN" "http://www.w3.org/Graphics/SVG/1.1/DTD/svg11.dtd"><svg width="100%" height="100%" viewBox="0 0 417 417" version="1.1" xmlns="http://www.w3.org/2000/svg" xmlns:xlink="http://www.w3.org/1999/xlink" xml:space="preserve" xmlns:serif="http://www.serif.com/" style="fill-rule:evenodd;clip-rule:evenodd;stroke-linejoin:round;stroke-miterlimit:2;"><g><g id="Hilt"><path d="M58.441,326.965l-14.62,79.089c-1.151,-0.4 -2.142,-1.039 -2.932,-1.886l-21.33,-21.33c-4.636,-4.673 -2.9,-14.062 3.853,-20.845l35.029,-35.028Z" style="fill:#ccc;fill-rule:nonzero;stroke:#000;stroke-width:4.17px;"/><path d="M91.312,294.032l-17.394,94.098l-14.362,14.362c-0.953,0.964 -1.977,1.847 -3.057,2.638l17.298,-93.579l17.515,-17.519Z" style="fill:#ccc;fill-rule:nonzero;stroke:#000;stroke-width:4.17px;"/><path d="M107.135,278.209l38.373,38.512l-55.808,55.808l17.435,-94.32Z" style="fill:#ccc;stroke:#000;stroke-width:4.17px;"/></g><path id="Blade" d="M131.383,253.031l246.808,-241.014c2.41,-2.395 6.356,-2.395 8.766,-0c8.158,8.158 12.75,19.236 12.75,30.774c-0,11.541 -46.259,64.283 -54.417,72.441l-179.778,171.928l-34.129,-34.129Z" style="fill:#ccc;stroke:#000;stroke-width:4.17px;"/><path id="Guard" d="M108.17,246.408l67.938,67.823c2.463,2.477 2.657,6.344 0.43,8.582c-1.077,1.104 -2.603,1.683 -4.228,1.609c-1.625,-0.089 -3.218,-0.825 -4.412,-2.043l-67.876,-67.758c-1.207,-1.201 -1.936,-2.793 -2.017,-4.414c-0.168,-3.338 2.444,-5.95 5.786,-5.782c1.606,0.081 3.179,0.794 4.379,1.983Z" style="fill:#ccc;stroke:#000;stroke-width:4.17px;"/></g></svg>