<svg xmlns="http://www.w3.org/2000/svg" xml:space="preserve" width="512" height="512" fill-rule="evenodd" clip-rule="evenodd" viewBox="0 0 512 512">
  <path fill="#ccc" stroke="#000" stroke-width="5.12" d="m48.392 121.453 11.044-16.094 144.83 99.38-11.044 16.095z"/>
  <path fill="#ccc" stroke="#000" stroke-width="5.12" d="m15.748 51.721 11.041-16.089L290.71 216.73l-11.042 16.091z"/>
  <path fill="#ccc" fill-rule="nonzero" stroke="#000" stroke-width="5.12" d="m343.198 226.477-39.992-45.197-9.495 13.83 48.28 33.133zM73.102 24.635l-12.067-8.28-11.043 16.093L74.128 49.01zm346.553 452.622 11.071 18.347 64.052-93.33-14.264-13.717zM290.244 251.906a9.756 9.756 0 0 1-13.567 2.524l-56.324-38.652-11.042 16.092 48.278 33.129-11.653 16.982c-12.195 17.773-7.671 42.076 10.101 54.277l30.283 20.778 21.579 39.004a58.8 58.8 0 0 0 16.552 21.213 27.21 27.21 0 0 0 26.253 2.364l27.534-11.044 30.348 50.318 57.683-84.077-49.76-47.909-31.643-10.309a9.66 9.66 0 0 1-5.729-7.166l-6.892-36.767-65.44-44.899zm53.239 99.057 24.526 40.696-24.308 9.749c-7.433 2.712-10.578.254-18.649-14.664l-16.213-29.329zm.557-73.977 16.098 11.042-11.048 16.094-16.087-11.044zm-56.929 29.022-1.543 15.609s13.128 2.371 21.193.012c4.653-1.362 10.538-5.227 13.651-8.85l12.327 20.366-36.785 6.846-28.883-19.818c-8.889-6.106-11.151-18.252-5.051-27.141l11.659-16.978 33.033 22.67c1.274 5.299-3.031 6.171-6.339 7.376-4.539 1.653-13.26-.092-13.26-.092Zm24.749-51.103 16.093 11.043-11.043 16.087-16.092-11.037z"/>
  <path fill="#ccc" fill-rule="nonzero" stroke="#000" stroke-width="5.12" d="M417.506 282.262a43.8 43.8 0 0 0-30.373-7.066l3.593 19.3z"/>
</svg>
