<?xml version="1.0" encoding="UTF-8" standalone="no"?><!DOCTYPE svg PUBLIC "-//W3C//DTD SVG 1.1//EN" "http://www.w3.org/Graphics/SVG/1.1/DTD/svg11.dtd"><svg width="100%" height="100%" viewBox="0 0 417 417" version="1.1" xmlns="http://www.w3.org/2000/svg" xmlns:xlink="http://www.w3.org/1999/xlink" xml:space="preserve" xmlns:serif="http://www.serif.com/" style="fill-rule:evenodd;clip-rule:evenodd;stroke-linejoin:round;stroke-miterlimit:2;"><path d="M241.125,225.401l23.518,18.475l9.357,-11.909l-23.78,-18.68c0.583,-1.511 0.667,-3.171 0.237,-4.735c-0.429,-1.562 -1.348,-2.945 -2.623,-3.947l-42.104,-33.075c-1.578,-1.241 -3.586,-1.803 -5.58,-1.564c-1.994,0.24 -3.811,1.262 -5.051,2.841l-18.2,23.165l-4.834,-12.668l25.751,-32.777l114.399,89.869l-10.49,13.353l-19.308,-15.168l-9.356,11.909l19.309,15.167l-17.105,21.775l-19.308,-15.168c-1.579,-1.24 -3.586,-1.803 -5.58,-1.564l-34.475,4.141l-8.421,-6.615l33.644,-42.825Z" style="fill:#ccc;fill-rule:nonzero;stroke:#000;stroke-width:4.22px;"/><path d="M87.71,77.648l-17.564,-13.798l-10.491,13.354l17.564,13.797l10.491,-13.353Z" style="fill:#ccc;fill-rule:nonzero;stroke:#000;stroke-width:4.22px;"/><path d="M16.905,26.144l39.725,14.238l6.888,14.583l-14.064,17.902l-15.8,-3.239l-23.237,-35.225l6.488,-8.259Z" style="fill:#ccc;fill-rule:nonzero;stroke:#000;stroke-width:4.22px;"/><path d="M165.682,174.112l-89.138,-70.024l7.182,-9.143l15.098,11.86l9.356,-11.909l-15.097,-11.86l7.181,-9.143l89.138,70.024l-23.72,30.195Zm-40.664,-65.986l-9.356,11.909l16.841,13.23l9.357,-11.909l-16.842,-13.23Zm24.327,38.37l16.841,13.23l9.357,-11.908l-16.842,-13.23l-9.356,11.908Z" style="fill:#ccc;fill-rule:nonzero;stroke:#000;stroke-width:4.22px;"/><path d="M239.829,337.978l7.075,-56.084l6.052,-0.727l19.115,15.016l-13.284,63.259l-34.149,-7.002l1.065,-6.99l7.518,-0.903c1.676,-0.201 3.237,-0.958 4.435,-2.148c1.198,-1.19 1.963,-2.746 2.173,-4.422l0,0.001Z" style="fill:#ccc;fill-rule:nonzero;stroke:#000;stroke-width:4.22px;"/><path d="M36.099,223.252l-1.859,-1.462l2.469,-12.045l10.506,8.255l-11.116,5.252Z" style="fill:#ccc;fill-rule:nonzero;stroke:#000;stroke-width:4.22px;"/><path d="M288.945,161.847l-21.783,27.729l-21.774,-17.106l36.949,-47.034l32.962,25.895l-1.588,20.346l-14.136,-11.105c-1.579,-1.24 -3.586,-1.803 -5.58,-1.563c-1.994,0.239 -3.811,1.261 -5.051,2.84l0.001,-0.002Z" style="fill:#ccc;fill-rule:nonzero;stroke:#000;stroke-width:4.22px;"/><path d="M322.206,208.694l-28.381,3.408l-20.046,-15.748l20.36,-25.917l35.941,28.234l-7.874,10.023Zm-26.363,-24.067c-2.373,0.285 -4.536,1.502 -6.012,3.381c-1.477,1.88 -2.146,4.269 -1.861,6.642c0.285,2.374 1.501,4.536 3.38,6.013c1.88,1.476 4.269,2.146 6.643,1.861c2.373,-0.285 4.536,-1.501 6.012,-3.381c1.477,-1.879 2.146,-4.269 1.861,-6.642c-0.285,-2.373 -1.501,-4.536 -3.38,-6.013c-1.88,-1.476 -4.269,-2.146 -6.643,-1.861Z" style="fill:#ccc;fill-rule:nonzero;stroke:#000;stroke-width:4.22px;"/><path d="M116.969,149.45l-30.195,-23.72l-10.49,13.354l30.195,23.72l10.49,-13.354Z" style="fill:#ccc;fill-rule:nonzero;stroke:#000;stroke-width:4.22px;"/><path d="M215.985,232.886l-30.195,-23.721l-7.182,9.144l30.195,23.72l7.182,-9.143Z" style="fill:#ccc;fill-rule:nonzero;stroke:#000;stroke-width:4.22px;"/><path d="M106.069,32.451l-8.833,33.069l-4.285,5.455l-17.564,-13.798l23.721,-30.194l6.961,5.468Z" style="fill:#ccc;fill-rule:nonzero;stroke:#000;stroke-width:4.22px;"/><path d="M183.212,309.273l-63.876,-50.179l-36.948,47.034l63.875,50.179l36.949,-47.034Z" style="fill:#ccc;fill-rule:nonzero;stroke:#000;stroke-width:4.22px;"/><path d="M91.449,164.601l-13.354,-10.49l-36.947,47.034l13.352,10.49l36.949,-47.034Z" style="fill:#ccc;fill-rule:nonzero;stroke:#000;stroke-width:4.22px;"/><path d="M199.446,253.94l-30.195,-23.721l-7.183,9.144l30.195,23.72l7.183,-9.143Z" style="fill:#ccc;fill-rule:nonzero;stroke:#000;stroke-width:4.22px;"/><path d="M232.521,211.836l-30.195,-23.72l-7.183,9.143l30.195,23.721l7.183,-9.144Z" style="fill:#ccc;fill-rule:nonzero;stroke:#000;stroke-width:4.22px;"/><path d="M340.752,286.022l-36.207,-2.825l-9.085,-7.136l23.72,-30.195l84.207,66.15l2.863,23.844l-61.41,-48.242c-1.175,-0.923 -2.597,-1.478 -4.087,-1.595l-0.001,-0.001Z" style="fill:#ccc;fill-rule:nonzero;stroke:#000;stroke-width:4.22px;"/><path d="M182.911,274.993l-30.195,-23.72l-7.183,9.143l30.195,23.72l7.183,-9.143Z" style="fill:#ccc;fill-rule:nonzero;stroke:#000;stroke-width:4.22px;"/><path d="M345.864,363.729l-9.902,-67.815l42.208,33.589l-32.306,34.226Z" style="fill:#ccc;fill-rule:nonzero;stroke:#000;stroke-width:4.22px;"/><path d="M347.338,390.523l-28.749,-22.587l-9.359,-77.927l15.397,1.201l8.469,70.518c0.239,1.997 1.262,3.814 2.84,5.052l8.421,6.615c1.486,1.168 3.354,1.737 5.238,1.6c1.885,-0.141 3.647,-0.983 4.945,-2.355l35.848,-37.978l12.958,10.182l-46.59,44.548l-9.418,1.131Z" style="fill:#ccc;fill-rule:nonzero;stroke:#000;stroke-width:4.22px;"/></svg>