<svg xmlns="http://www.w3.org/2000/svg" xml:space="preserve" width="512" height="512" fill-rule="evenodd" clip-rule="evenodd" viewBox="0 0 512 512">
  <g fill="#ccc" fill-rule="nonzero" stroke="#000" stroke-width="5.12">
    <path d="M317.923 172.761c0-11.107 8.704-20.136 19.403-20.136 12.298 0 22.298 10.379 22.298 23.141v34.547c-6.165-2.683-13.445-5.843-22.166-9.636-6.396-2.771-13.147-3.413-19.536-2.306zm-64.058-2.901c0-12.671 9.934-22.97 22.14-22.97s22.133 10.305 22.133 22.97v39.289a36.8 36.8 0 0 0-7.212 11.309c-5.922 14.685-1.853 26.802 5.512 36.785-3.093 7.183-10.035 12.042-17.704 12.042h-2.728c-12.212 0-22.14-10.311-22.14-22.976zm-60.77.192c0-9.12 7.147-16.539 15.936-16.539h9.104c8.79 0 15.943 7.417 15.943 16.539v81.972c0 9.12-7.154 16.539-15.943 16.539h-9.104c-8.742 0-15.85-7.348-15.922-16.409v-72.639c0-.048-.014-.088-.014-.129zm-54.961 9.463c0-7.711 6.047-13.986 13.478-13.986h8.24c7.384 0 13.391 6.208 13.463 13.857v72.645c0 .088.015.178.015.268v1.396c0 7.711-6.047 13.986-13.478 13.986h-8.24c-7.431 0-13.478-6.275-13.478-13.986z"/>
    <path d="M336.563 379.627c-2.533 1.321-5.051 2.675-7.563 4.024-11.36 6.075-22.081 11.823-33.605 15.197-5.26 1.54-8.32 7.211-6.83 12.667 1.233 4.522 5.195 7.477 9.506 7.477a9.4 9.4 0 0 0 2.691-.39c7.853-2.298 15.23-5.507 22.37-8.999a435 435 0 0 0 6.72 18.276c4.833 12.394 9.408 24.085 11.458 35.882 1.089 6.221.429 11.84-1.832 15.816-9.818 17.18-44.206 18.13-64.751 18.698l-5.96.178c-26.148.938-55.012-2.737-81.28-10.366-5.821-1.689-13.581-5.002-17.504-11.221-8.143-12.859-2.862-31.468 2.254-49.463 1.22-4.311 2.452-8.684 3.521-13.027 6.158 2.577 12.942 4.214 20.484 4.597q.25.012.489.014c5.242 0 9.614-4.269 9.87-9.765.269-5.658-3.943-10.475-9.395-10.748-45.124-2.285-56.061-71.113-58.528-112.996a32.05 32.05 0 0 0 12.942 2.723h8.242c9.249 0 17.617-3.955 23.649-10.296 6.488 6.895 15.527 11.193 25.528 11.193h9.105c10.918 0 20.702-5.125 27.256-13.163 5.815 6.464 13.462 11.126 22.113 12.987-7.253 10.249-13.977 23.443-17.511 39.864-1.193 5.535 2.162 11.017 7.497 12.255a10 10 0 0 0 2.162.246c4.536 0 8.617-3.249 9.646-8.025 5.776-26.816 22.08-43.1 31.285-50.423.165-.13.29-.293.441-.43 3.831-2.771 7.206-6.193 9.895-10.202 2.518 2.143 5.006 4.145 7.313 5.994 4.489 3.591 8.73 6.992 11.717 10.1 3.861 4.022 10.133 4.009 13.982.012 3.87-4.009 3.87-10.502.015-14.513-3.89-4.043-8.624-7.833-13.628-11.844-18.481-14.8-25.504-22.737-21.139-33.555 3.362-8.321 12.606-12.276 20.645-8.779 0 0 53.595 23.284 54.452 23.66 4.852 2.109 8.386 7.514 10.504 16.067 3.349 13.527.223 29.108-2.797 44.181a554 554 0 0 0-1.918 9.88c-3.799 20.964-9.534 34.534-18.612 43.983-8.137 8.469-18.856 13.992-30.208 19.829z"/>
  </g>
  <path fill="#ccc" fill-rule="nonzero" stroke="#000" stroke-width="5.12" d="m489.244 120.535-89.583 1.036 14.356-98.519a8.51 8.51 0 0 0-4.091-9.381 8.435 8.435 0 0 0-10.109 1.389l-88.116 79.606-40.087-59.197a8.47 8.47 0 0 0-6.792-4.057 8.44 8.44 0 0 0-7.169 3.348L214.73 81.45l-85.951-52.707a8.44 8.44 0 0 0-8.98.205 8.51 8.51 0 0 0-3.735 8.201l6.324 71.671-76.197-4.441c-2.96-.039-5.844 1.513-7.407 4.107a8.51 8.51 0 0 0-.168 8.49l41.823 80.96-63.532 44.726a8.5 8.5 0 0 0-4.321 7.409 8.51 8.51 0 0 0 4.321 7.41l68.22 33.357-51.301 61.889a8.52 8.52 0 0 0-1.06 9.255c1.516 3.025 4.699 4.763 8.026 4.667l84.743-4.68s6.866-.277 6.014-2.084c-17.399-40.777-16.676-90.872-16.118-104.228v-60.472c0-28.248 22.887-51.227 51.02-51.227h7.051c3.379 0 6.72.333 9.98.985 9.133-6.96 20.409-10.932 32.098-10.932h7.792c6.442 0 12.732 1.16 18.621 3.381 9.134-5.75 19.763-8.871 30.897-8.871 11.047 0 21.786 3.212 30.994 9.013a55.7 55.7 0 0 1 21.476-4.265c32.297 0 58.567 26.378 58.567 58.806v20.76c10.584 5.313 23.123 16.222 28.838 38.568 5.135 20.114 1.191 39.181-1.99 54.548-.513 2.481-1.026 4.938-1.484 7.398-2.933 15.65-8.866 38.331-25.898 56.076l63.932-20.992a8.47 8.47 0 0 0 5.285-5.075 8.5 8.5 0 0 0-.631-7.318l-17.709-47.37 51.443-46.075a8.51 8.51 0 0 0 3.863-8.088 8.48 8.48 0 0 0-5.515-7.057l-43.353-28.593 55.809-64.29a8.53 8.53 0 0 0 1.128-9.506c-1.602-3.098-4.931-4.91-8.4-4.526Z"/>
</svg>
