<?xml version="1.0" encoding="UTF-8" standalone="no"?><!DOCTYPE svg PUBLIC "-//W3C//DTD SVG 1.1//EN" "http://www.w3.org/Graphics/SVG/1.1/DTD/svg11.dtd"><svg width="100%" height="100%" viewBox="0 0 417 417" version="1.1" xmlns="http://www.w3.org/2000/svg" xmlns:xlink="http://www.w3.org/1999/xlink" xml:space="preserve" xmlns:serif="http://www.serif.com/" style="fill-rule:evenodd;clip-rule:evenodd;stroke-linejoin:round;stroke-miterlimit:2;"><path d="M138.218,249.391l-33.478,19.328c-1.774,1.025 -3.117,2.643 -3.724,4.482l-12.05,36.451l-44.097,25.459l-34.452,-59.673l107.129,-61.851l20.672,35.804Zm-66.956,38.657l-13.391,7.731l-13.781,-23.869l-13.392,7.731l20.672,35.804l26.782,-15.463l-6.89,-11.934Zm13.001,-39.332l-13.391,7.731l6.891,11.935l13.391,-7.732l-6.891,-11.934Zm26.783,-15.463l-13.391,7.731l6.89,11.935l13.391,-7.732l-6.89,-11.934Z" style="fill:#ccc;fill-rule:nonzero;stroke:#000;stroke-width:4.17px;"/><path d="M196.422,143.458l11.991,20.768l-29.351,16.946l-21.134,-15.49l38.494,-22.224Z" style="fill:#ccc;fill-rule:nonzero;stroke:#000;stroke-width:4px;"/><path d="M156.17,142.761l85.463,-49.342l13.586,8.069l-98.854,57.073l-0.195,-15.8Z" style="fill:#ccc;fill-rule:nonzero;stroke:#000;stroke-width:4.17px;"/><path d="M166.9,181.451l-15.388,2.508c-1.161,0.193 -2.318,0.612 -3.381,1.225l-13.753,7.94c-3.766,2.175 -5.507,6.302 -3.861,9.153c0.464,0.805 1.17,1.456 2.06,1.905l22.874,11.39l-1.573,25.505c-0.057,0.995 0.155,1.932 0.62,2.736c1.645,2.851 6.091,3.406 9.857,1.232l13.752,-7.94c1.064,-0.614 2.005,-1.407 2.752,-2.315l9.867,-12.073l2.15,19.707l-36.8,21.247l-41.967,-72.69l36.8,-21.246l15.991,11.716Z" style="fill:#ccc;fill-rule:nonzero;stroke:#000;stroke-width:4px;"/><path d="M182.94,209.268l-17.346,21.216l-1.002,0.578l1.141,-18.332c0.125,-2.017 -0.87,-3.741 -2.68,-4.642l-16.446,-8.178l1.001,-0.578l27.047,-4.415l8.285,14.351Z" style="fill:#ccc;fill-rule:nonzero;stroke:#000;stroke-width:4px;"/><path d="M76.82,204.899l14.539,-5.744l-15.548,-26.931l13.391,-7.731l24.116,41.771l-66.956,38.657l-13.157,-22.789l29.077,-11.489l-16.699,-28.923l13.391,-7.732l17.846,30.911Z" style="fill:#ccc;fill-rule:nonzero;stroke:#000;stroke-width:4.17px;"/><path d="M245.867,211.83l-5.995,-10.384l13.718,-7.921l-8.993,-15.576l13.719,-7.92l8.993,15.576l13.718,-7.92l-8.993,-15.577l13.719,-7.92l8.993,15.576l13.718,-7.92l-8.993,-15.576l13.719,-7.921l8.993,15.577l13.718,-7.921l-8.993,-15.576l13.719,-7.92l8.993,15.576c1.351,-0.78 2.505,-1.855 3.303,-3.07l13.337,-20.383l4.801,-2.772l5.995,10.384l13.719,-7.92l-5.995,-10.384l13.718,-7.921l7.752,13.427l-5.46,12.941l-154.923,89.445Z" style="fill:#ccc;fill-rule:nonzero;stroke:#000;stroke-width:4px;"/><path d="M170.48,264.459l46.046,-26.585l9.449,56.478l-28.223,10.215l4.128,13.212l26.411,-9.552l2.653,15.869l-25.764,8.088l3.443,13.448l24.629,-7.735l2.457,14.661l-45.896,14.412l-19.333,-102.511Z" style="fill:#ccc;fill-rule:nonzero;stroke:#000;stroke-width:4.17px;"/><path d="M233.891,249.132l-3.251,-19.407l14.162,-8.176c4.157,10.139 10.657,19.109 19.07,26.306c-9.918,3.402 -20.411,3.844 -29.981,1.277Z" style="fill:#ccc;fill-rule:nonzero;stroke:#000;stroke-width:4.17px;"/><path d="M197.048,212.324l29.35,-16.945l11.991,20.768l-38.494,22.224l-2.847,-26.047Z" style="fill:#ccc;fill-rule:nonzero;stroke:#000;stroke-width:4px;"/><path d="M270.562,206.306l10.299,-5.147l21.819,24.343c6.387,6.758 9.77,16.386 6.857,26.242c-2.751,9.266 -6.979,15.839 -16.488,21.302c-13.479,7.782 -54.499,17.729 -59.105,18.977l-1.19,-10.536c11.966,-3.24 43.9,-12.631 53.569,-18.213c5.742,-3.261 10.028,-8.409 11.653,-13.996c1.787,-6.19 0.474,-12.223 -3.581,-16.431l-23.833,-26.541Z" style="fill:#ccc;fill-rule:nonzero;stroke:#000;stroke-width:3.78px;"/><path d="M360.798,62.401l-13.718,7.92l5.995,10.385l-4.801,2.772l-24.341,1.37c-1.452,0.084 -2.943,0.543 -4.29,1.314l8.993,15.576l-13.719,7.921l-8.992,-15.576l-13.719,7.92l8.993,15.576l-13.718,7.92l-8.993,-15.576l-13.719,7.921l8.993,15.576l-13.718,7.92l-8.993,-15.576l-13.719,7.92l8.993,15.576l-13.718,7.921l-8.993,-15.576l-13.719,7.92l-5.995,-10.384l154.923,-89.445l13.937,1.742l7.752,13.427l-13.718,7.92l-5.996,-10.384Z" style="fill:#ccc;fill-rule:nonzero;stroke:#000;stroke-width:4px;"/><path d="M112.211,159.958l10.335,17.902l13.392,-7.731l-10.336,-17.902l-13.391,7.731Z" style="fill:#ccc;stroke:#000;stroke-width:4.17px;"/></svg>