<svg xmlns="http://www.w3.org/2000/svg" xml:space="preserve" width="512" height="512" fill-rule="evenodd" clip-rule="evenodd" viewBox="0 0 512 512">
  <g fill="#ccc" fill-rule="nonzero" stroke="#000" stroke-width="5.12">
    <path d="M167.868 447.641h175.86a7.993 7.993 0 0 1 7.996 7.997v31.975a7.993 7.993 0 0 1-7.996 7.996h-175.86a7.993 7.993 0 0 1-7.997-7.996v-31.975a7.996 7.996 0 0 1 7.997-7.997ZM412.23 89.37 308.315 17.425a8 8 0 0 0-4.558-1.438h-111.91a7.997 7.997 0 0 0-7.996 7.996v47.962c.015.864.147 1.729.399 2.558l15.986 47.962a8.005 8.005 0 0 0 7.593 5.438h95.923a8 8 0 0 0 7.996-7.997V78.897l55.958 37.332v91.605a7.993 7.993 0 0 0 7.997 7.996h31.974a7.997 7.997 0 0 0 7.997-7.996V95.923a8 8 0 0 0-3.443-6.553Zm-244.362-49.4h-15.987a7.997 7.997 0 0 0 0 15.992h15.987zM439.65 15.987c-14.54.045-27.211 9.905-30.849 23.983h-39.97l23.104 15.987h16.713c4.41 17.097 21.85 27.38 38.953 22.965 17.097-4.415 27.38-21.85 22.96-38.953-3.643-14.099-16.356-23.957-30.91-23.983Zm0 47.961c-8.835 0-15.987-7.157-15.987-15.986s7.152-15.987 15.987-15.987c8.84 0 15.987 7.157 15.987 15.987s-7.157 15.986-15.987 15.986Z"/>
    <path d="M343.728 159.872h-47.961v-15.986H215.83v15.986h-47.961a8 8 0 0 0-7.997 7.997v31.975a8 8 0 0 0 7.997 7.996h175.859a8 8 0 0 0 7.997-7.996v-31.975c-.006-4.415-3.582-7.997-7.997-7.997Zm-175.859 63.95v207.834h175.859V223.821zm31.974 95.923h-7.996a7.993 7.993 0 0 1-7.997-7.997 7.993 7.993 0 0 1 7.997-7.996h7.996a7.993 7.993 0 0 1 7.997 7.996 8 8 0 0 1-7.997 7.997Zm7.992-31.975h-15.988a7.993 7.993 0 0 1-7.996-7.996 7.993 7.993 0 0 1 7.996-7.997h15.987a7.993 7.993 0 0 1 7.996 7.997 7.993 7.993 0 0 1-7.996 7.996Zm15.987-31.975h-31.975a7.997 7.997 0 0 1 0-15.992h31.975a7.997 7.997 0 0 1 0 15.992Zm95.923 159.873h-15.987a7.993 7.993 0 0 1-7.997-7.997 7.99 7.99 0 0 1 7.997-7.996h15.987a7.993 7.993 0 0 1 7.996 7.996 7.996 7.996 0 0 1-7.996 7.997Z"/>
  </g>
</svg>
