<svg xmlns="http://www.w3.org/2000/svg" xml:space="preserve" width="512" height="512" fill-rule="evenodd" stroke-linejoin="round" stroke-miterlimit="2" clip-rule="evenodd" viewBox="0 0 512 512">
  <path fill="#ccc" fill-rule="nonzero" stroke="#000" stroke-width="5.12" d="M331.875 317.413a32.5 32.5 0 0 0-3.443-9.398l-4.419-7.654-32.384 18.698 9.349 16.191zm-50.924 150.918a102 102 0 0 0 3.255 6.142l4.677 8.099c7.691 13.322 24.985 17.956 38.307 10.265l16.192-9.349c4.441-2.564 5.989-8.33 3.426-12.769-2.566-4.446-8.333-5.987-12.774-3.423l-16.192 9.349c-4.44 2.564-10.202 1.019-12.766-3.421l-1.526-2.643a34.3 34.3 0 0 1-4.925-34.567l28.472-80.855a73 73 0 0 0 4.817-16.176l-26.721 15.428-24.031 65.344a79.2 79.2 0 0 0-5.631 20.163l-107.098-74.607-17.364 10.024zM93.881 263.799l17.167-9.911-24.796-142.843a79.3 79.3 0 0 0 19.11 4.774l72.271 12.481a9.36 9.36 0 0 1 6.49 4.55l4.672 8.094 30.903-17.841a63.8 63.8 0 0 0-34.387-14.594 12 12 0 0 1-.737-.114L100.319 92.63a34.32 34.32 0 0 1-27.436-21.578l-1.522-2.637c-2.566-4.445-1.023-10.207 3.418-12.771l16.192-9.349c4.44-2.565 5.989-8.33 3.426-12.771-2.567-4.445-8.334-5.986-12.775-3.422l-16.191 9.349c-13.322 7.691-17.957 24.985-10.262 38.312l4.673 8.094a104 104 0 0 0 3.724 5.948z"/>
  <path fill="#ccc" fill-rule="nonzero" stroke="#000" stroke-width="5.12" d="m78.625 398.858 113.346-65.44a9.4 9.4 0 0 1 5.276-1.236l30.789 2.004 94.73-54.692c4.44-2.564 5.984-8.326 3.421-12.766-2.567-4.446-8.33-5.991-12.769-3.427l-56.676 32.723-9.349-16.192 64.769-37.394c4.441-2.564 5.991-8.33 3.427-12.769-2.567-4.446-8.334-5.987-12.775-3.423l-64.769 37.394-9.349-16.192 64.769-37.394c4.441-2.564 5.991-8.328 3.427-12.769-2.567-4.446-8.334-5.987-12.775-3.423l-64.769 37.394-9.349-16.192 72.867-42.07c4.441-2.564 5.984-8.326 3.421-12.767-2.566-4.445-8.328-5.989-12.769-3.426L446.887 56.707l-6.843 25.541 24.985-14.426 4.192-34.801-32.238-13.776-24.986 14.426 25.541 6.844-197.66 114.118-9.349-16.191-32.385 18.697 18.698 32.384-8.094 4.673c-4.446 2.567-10.208 1.023-12.772-3.417l-14.024-24.291-12.146 7.012-5.029 41.764a9.5 9.5 0 0 1-.898 3.027l-14.943 30.217a9.4 9.4 0 0 1-3.709 3.951L31.881 317.9z"/>
</svg>
