<?xml version="1.0" encoding="UTF-8" standalone="no"?><!DOCTYPE svg PUBLIC "-//W3C//DTD SVG 1.1//EN" "http://www.w3.org/Graphics/SVG/1.1/DTD/svg11.dtd"><svg width="100%" height="100%" viewBox="0 0 417 417" version="1.1" xmlns="http://www.w3.org/2000/svg" xmlns:xlink="http://www.w3.org/1999/xlink" xml:space="preserve" xmlns:serif="http://www.serif.com/" style="fill-rule:evenodd;clip-rule:evenodd;"><g><path d="M178.795,87.089l-18.871,-18.875c-5.342,3.691 -11.57,5.892 -18.04,6.379l24.708,24.703l12.203,-12.207Z" style="fill:#ccc;fill-rule:nonzero;stroke:#000;stroke-width:4.17px;"/><path d="M163.26,160.425l15.549,-15.55l31.1,31.1l-15.55,15.549l-31.099,-31.099Z" style="fill:#ccc;stroke:#000;stroke-width:4.17px;"/><path d="M57.69,30.431l12.21,-12.206l12.209,12.212l-12.21,12.206l-12.209,-12.212Z" style="fill:#ccc;stroke:#000;stroke-width:4.17px;"/><path d="M178.795,127.131l48.838,48.838l-24.419,24.419l12.211,12.212l12.208,-12.212l12.211,12.212l-12.211,12.207l7.478,7.276c-8.072,4.152 -11.277,1.757 -19.16,-2.753l-5.681,12.36c14.547,7.9 21.3,10.034 35.032,0.782l18.966,18.961l12.203,-12.207l12.211,12.207l-12.211,12.212l12.211,12.207l24.424,-24.419l-67.158,-67.153c-2.339,-2.313 -3.157,-5.751 -2.115,-8.869l10.553,-31.531l-14.542,-14.538l-12.211,12.208l-12.208,-12.208l12.208,-12.211l-12.208,-12.208l-12.211,12.208l-12.208,-12.208l12.208,-12.207l-12.208,-12.207l-48.838,48.833l12.212,12.208l24.415,-24.419Z" style="fill:#ccc;fill-rule:nonzero;stroke:#000;stroke-width:4.17px;"/><path d="M320.968,251.945l3.654,-3.881l0.009,-18.717l-62.198,-65.974l-7.723,23.084l66.258,65.488Z" style="fill:#ccc;fill-rule:nonzero;stroke:#000;stroke-width:4.17px;"/><path d="M363.981,312.64l-22.511,-11.242c-1.344,-0.672 -2.49,-1.693 -3.321,-2.942l-18.582,-27.865l-24.906,24.905l47.098,99.425l47.248,-47.248l-25.026,-35.033Z" style="fill:#ccc;fill-rule:nonzero;stroke:#000;stroke-width:4.17px;"/><path d="M49.107,243.889c20.496,-5.807 84.312,-25.748 122.537,-59.07l-34.711,-34.244c-37.016,32.565 -87.002,43.405 -109.274,46.776l21.448,46.538Z" style="fill:#ccc;fill-rule:nonzero;stroke:#000;stroke-width:4.17px;"/><path d="M252.1,312.408l16.424,-5.428l10.769,-10.768l-30.557,-30.558l-16.61,16.61l-46.318,-46.314l2.015,-35.066l-8.464,-8.796l-3.037,44.434c-0,2.287 0.904,4.484 2.524,6.103l45.462,47.448l-3.58,3.584l0,20.84c0,1.425 -0.353,2.83 -1.029,4.096l-38.539,71.508l32.345,16.149l33.262,-88.686c0.913,-2.438 2.869,-4.329 5.333,-5.156Z" style="fill:#ccc;fill-rule:nonzero;stroke:#000;stroke-width:4.17px;"/><path d="M77.703,50.465l12.211,-12.211l24.418,24.418l-12.211,12.211l-24.418,-24.418Z" style="fill:#ccc;stroke:#000;stroke-width:4.17px;"/><path d="M158.778,107.11l-36.631,-36.626l-13.547,13.542l27.469,45.789l22.709,-22.705Z" style="fill:#ccc;fill-rule:nonzero;stroke:#000;stroke-width:4.17px;"/><path d="M104.457,12.747l-2.335,-2.33l-12.207,12.207l8.438,8.438l6.104,-18.315Z" style="fill:#ccc;fill-rule:nonzero;stroke:#000;stroke-width:4.17px;"/></g></svg>