<svg xmlns="http://www.w3.org/2000/svg" xml:space="preserve" width="512" height="512" fill-rule="evenodd" clip-rule="evenodd" viewBox="0 0 512 512">
  <path fill="#ccc" fill-rule="nonzero" stroke="#000" stroke-width="5.12" d="m219.528 106.929-23.17-23.175a44.9 44.9 0 0 1-22.15 7.832l30.337 30.331z"/>
  <path fill="#ccc" stroke="#000" stroke-width="5.12" d="m200.454 196.973 19.091-19.093 38.185 38.185-19.093 19.091zM70.833 37.364l14.991-14.987 14.99 14.994-14.992 14.987z"/>
  <path fill="#ccc" fill-rule="nonzero" stroke="#000" stroke-width="5.12" d="m219.528 156.094 59.964 59.964-29.982 29.982 14.993 14.994 14.989-14.994 14.993 14.994-14.993 14.988 9.182 8.934c-9.911 5.098-13.846 2.157-23.525-3.38l-6.975 15.176c17.861 9.7 26.153 12.32 43.013.96l23.287 23.281 14.983-14.988 14.993 14.988-14.993 14.994 14.993 14.988 29.988-29.982-82.458-82.452a10.6 10.6 0 0 1-2.597-10.89l12.957-38.714-17.855-17.85-14.993 14.989-14.989-14.989 14.989-14.993-14.989-14.989-14.993 14.989-14.989-14.989 14.989-14.988-14.989-14.988-59.964 59.958 14.994 14.989z"/>
  <path fill="#ccc" fill-rule="nonzero" stroke="#000" stroke-width="5.12" d="m394.09 309.343 4.486-4.765.011-22.981-76.368-81.004-9.482 28.343zm52.812 74.522-27.639-13.803a10.6 10.6 0 0 1-4.078-3.612l-22.815-34.213-30.58 30.579 57.828 122.076 58.012-58.012zM60.294 299.451c25.165-7.13 103.52-31.614 150.453-72.527l-42.619-42.045C122.68 224.863 61.306 238.172 33.96 242.311zm249.239 84.129 20.166-6.665 13.222-13.221-37.518-37.52-20.394 20.394-56.87-56.865 2.474-43.055-10.392-10.8-3.729 54.557c0 2.808 1.11 5.506 3.099 7.493l55.819 58.257-4.396 4.4v25.588c0 1.75-.433 3.475-1.263 5.029l-47.319 87.799 39.714 19.828 40.84-108.89a10.58 10.58 0 0 1 6.548-6.331Z"/>
  <path fill="#ccc" stroke="#000" stroke-width="5.12" d="m95.405 61.962 14.993-14.993 29.981 29.981-14.993 14.993z"/>
  <path fill="#ccc" fill-rule="nonzero" stroke="#000" stroke-width="5.12" d="m194.95 131.512-44.976-44.97-16.633 16.627 33.727 56.221zM128.254 15.651l-2.867-2.861-14.988 14.988 10.36 10.36z"/>
</svg>
