<svg xmlns="http://www.w3.org/2000/svg" xml:space="preserve" width="512" height="512" fill-rule="evenodd" stroke-linejoin="round" stroke-miterlimit="2" clip-rule="evenodd" viewBox="0 0 512 512">
  <path fill="#ccc" fill-rule="nonzero" stroke="#000" stroke-width="5.12" d="m137.431 386.528-23.881-2.717c-3.458 5.336-9.753 19.824 1.599 40.128l22.282 2.499a44.52 44.52 0 0 1 0-39.908zm300.022-46.78.02-.021a38.21 38.21 0 0 0 1.319 39.808l-154.534 14.869v-39.908zM276.199 442.266l-129.333-14.768c-11.192-20.723-3.998-35.172-.74-39.968l130.038 14.807zM146.767 339.628l129.398 14.769v39.908l-129.297-14.768c-11.991-21.683-2.977-36.292-.099-39.909zm-10.233 143.144-22.641-2.618c-10.072-24.941-2.779-42.266.479-47.962l24.461 2.779a62.44 62.44 0 0 0-2.297 47.642zM95.349 325.615a27 27 0 0 1 6.714 0l146.981-25.039-.021-.021a7.4 7.4 0 0 1 1.34 0l186.509 29.896c.859.18 1.638.62 2.198 1.279l-156.956 15.188a3.6 3.6 0 0 0-1.958-.64 4.05 4.05 0 0 0-1.919.599zm343.405 101.781L284.22 442.264l-.02-39.807 153.319-14.769c-7.094 12.45-6.634 27.838 1.239 39.808zm-333.771 51.539-8.573-1.019a28.03 28.03 0 0 1-23.521-19.385 28.04 28.04 0 0 1 8.073-29.377c.42-.379.9-.64 1.34-.959l23.661 2.717h-.021a63.23 63.23 0 0 0-.959 48.022Zm.739-143.886h.02a41.94 41.94 0 0 0 0 39.908l-27.018-3.097a27.6 27.6 0 0 1-7.034-20.145 27.75 27.75 0 0 1 9.372-19.185l.32-.259zm32.234 3.677h.02a42.67 42.67 0 0 0-.539 39.849l-22.282-2.499c-12.09-21.324-3.518-35.752-.539-39.748zm-32.354 84.191-27.238-3.098h.039a27.58 27.58 0 0 1-6.935-18.266 28.07 28.07 0 0 1 9.373-20.943s.379 0 .479-.379l23.661 2.717c-6.035 12.65-5.815 27.418.64 39.868zm333.769 54.201h.02a3.941 3.941 0 0 1-2.877 6.235l-152.318 15.448v-48.38l153.857-14.807a38.17 38.17 0 0 0 1.34 41.506zm-163.167 21.64-130.873-15.149c-10.172-27.018 0-44.764 2.138-47.961l128.738 14.669z"/>
  <g fill="#ccc" fill-rule="nonzero" stroke="#000" stroke-width="5.12">
    <path d="M268.637 103.456a5.754 5.754 0 0 1-5.231 6.208L98.499 123.919l-5.059 103.32c13.68 5.001 21.354 19.573 17.762 33.711-3.593 14.111-17.273 23.251-31.7 21.123-14.427-2.127-24.888-14.83-24.256-29.4.662-14.571 12.214-26.268 26.757-27.13l5.202-107.281h.028c.086-2.874 2.328-5.202 5.202-5.432l169.99-15.318v-.028a5.87 5.87 0 0 1 4.425 1.638c1.179 1.121 1.811 2.701 1.783 4.339z"/>
    <path d="m391.108 155.125-117.117 49.202a28.9 28.9 0 0 1-11.093 2.213c-3.794 0-7.558-.747-11.036-2.213l-117.115-49.202-8.42 34.488a37.04 37.04 0 0 0 7.27 32.187 178.65 178.65 0 0 0 123.554 62.132v-45.983a5.746 5.746 0 0 1 5.747-5.747 5.765 5.765 0 0 1 5.749 5.747v45.983c47.88-3.276 92.419-25.722 123.608-62.218a37.13 37.13 0 0 0 7.213-32.187z"/>
    <path d="M445.741 88.132 269.485 14.105a17.35 17.35 0 0 0-13.249 0L79.98 88.132h-.028a16.92 16.92 0 0 0-10.405 15.777 16.65 16.65 0 0 0 6.266 13.278 17.41 17.41 0 0 1 15.346-15.346l169.99-15.318h2.127c8.881.172 16.181 7.07 16.87 15.951.345 4.54-1.063 9.053-3.994 12.558a17.1 17.1 0 0 1-11.726 6.064l-149.678 13.162 141.542 59.461v.029a17.9 17.9 0 0 0 6.611 1.293c2.27 0 4.54-.459 6.667-1.293l176.256-74.026a17.094 17.094 0 0 0 0-31.584z"/>
  </g>
</svg>
