<?xml version="1.0" encoding="UTF-8" standalone="no"?><!DOCTYPE svg PUBLIC "-//W3C//DTD SVG 1.1//EN" "http://www.w3.org/Graphics/SVG/1.1/DTD/svg11.dtd"><svg width="100%" height="100%" viewBox="0 0 417 417" version="1.1" xmlns="http://www.w3.org/2000/svg" xmlns:xlink="http://www.w3.org/1999/xlink" xml:space="preserve" xmlns:serif="http://www.serif.com/" style="fill-rule:evenodd;clip-rule:evenodd;stroke-linejoin:round;stroke-miterlimit:2;"><g><path d="M111.931,314.809l-19.45,-2.213c-2.816,4.346 -7.943,16.146 1.302,32.682l18.148,2.035c-5.128,-10.222 -5.128,-22.282 -0,-32.503l-0,-0.001Z" style="fill:#ccc;fill-rule:nonzero;stroke:#000;stroke-width:4.17px;"/><path d="M356.285,276.709l0.016,-0.017c-5.745,10.157 -5.339,22.673 1.074,32.422l-125.861,12.11l0,-32.503l124.771,-12.012Z" style="fill:#ccc;fill-rule:nonzero;stroke:#000;stroke-width:4.17px;"/><path d="M224.951,360.205l-105.336,-12.028c-9.115,-16.878 -3.256,-28.646 -0.603,-32.552l105.91,12.06l0.029,32.52Z" style="fill:#ccc;fill-rule:nonzero;stroke:#000;stroke-width:4.17px;"/><path d="M119.535,276.611l105.389,12.029l-0,32.503l-105.306,-12.028c-9.766,-17.66 -2.425,-29.558 -0.081,-32.504l-0.002,0Z" style="fill:#ccc;fill-rule:nonzero;stroke:#000;stroke-width:4.17px;"/><path d="M111.201,393.195l-18.44,-2.132c-8.203,-20.313 -2.263,-34.424 0.39,-39.063l19.922,2.263c-5.729,12.174 -6.413,26.122 -1.871,38.802l-0.001,0.13Z" style="fill:#ccc;fill-rule:nonzero;stroke:#000;stroke-width:4.17px;"/><path d="M77.657,265.198c1.806,-0.228 3.645,-0.228 5.468,0l119.709,-20.393l-0.017,-0.017c0.358,-0.032 0.733,-0.032 1.091,0l151.903,24.349c0.7,0.147 1.334,0.505 1.79,1.042l-127.833,12.37c-0.472,-0.326 -1.026,-0.505 -1.595,-0.521c-0.554,0.032 -1.091,0.195 -1.563,0.488l-148.953,-17.318Z" style="fill:#ccc;fill-rule:nonzero;stroke:#000;stroke-width:4.17px;"/><path d="M357.344,348.094l-125.861,12.109l-0.016,-32.421l124.871,-12.029c-5.778,10.14 -5.403,22.673 1.009,32.422l-0.003,-0.081Z" style="fill:#ccc;fill-rule:nonzero;stroke:#000;stroke-width:4.17px;"/><path d="M85.504,390.07l-6.982,-0.83c-8.936,-1.026 -16.439,-7.211 -19.157,-15.788c-2.702,-8.561 -0.147,-17.936 6.575,-23.926c0.342,-0.309 0.733,-0.521 1.091,-0.781l19.271,2.213l-0.017,0c-5.387,12.419 -5.68,26.482 -0.781,39.112l-0,-0Z" style="fill:#ccc;fill-rule:nonzero;stroke:#000;stroke-width:4.17px;"/><path d="M86.106,272.882l0.016,0c-5.485,10.14 -5.485,22.363 0,32.503l-22.005,-2.522c-4.036,-4.476 -6.087,-10.384 -5.729,-16.407c0.358,-6.022 3.109,-11.637 7.633,-15.625l0.261,-0.211l19.824,2.262Z" style="fill:#ccc;fill-rule:nonzero;stroke:#000;stroke-width:4.17px;"/><path d="M112.359,275.877l0.016,0c-5.501,10.075 -5.663,22.233 -0.439,32.455l-18.148,-2.035c-9.847,-17.367 -2.865,-29.118 -0.439,-32.373l19.01,1.953Z" style="fill:#ccc;fill-rule:nonzero;stroke:#000;stroke-width:4.17px;"/><path d="M86.008,344.447l-22.184,-2.523l0.032,-0c-3.629,-4.102 -5.648,-9.392 -5.648,-14.877c0,-6.526 2.784,-12.727 7.634,-17.057c-0,0 0.309,0 0.39,-0.309l19.271,2.213c-4.915,10.303 -4.736,22.331 0.521,32.471l-0.016,0.082Z" style="fill:#ccc;fill-rule:nonzero;stroke:#000;stroke-width:4.17px;"/><path d="M357.847,388.591l0.016,-0c0.668,0.944 0.798,2.164 0.31,3.222c-0.489,1.058 -1.498,1.758 -2.653,1.856l-124.056,12.581l0,-39.403l125.309,-12.06c-6.331,10.498 -5.908,23.73 1.091,33.805l-0.017,-0.001Z" style="fill:#ccc;fill-rule:nonzero;stroke:#000;stroke-width:4.17px;"/><path d="M224.955,406.216l-106.59,-12.338c-8.285,-22.005 -0,-36.458 1.741,-39.062l104.851,11.947l-0.002,39.453Z" style="fill:#ccc;fill-rule:nonzero;stroke:#000;stroke-width:4.17px;"/></g><g><path d="M218.792,84.26c0.211,2.575 -1.685,4.822 -4.26,5.056l-134.309,11.61l-4.12,84.149c11.142,4.073 17.392,15.941 14.466,27.456c-2.926,11.493 -14.068,18.937 -25.818,17.204c-11.75,-1.732 -20.27,-12.078 -19.755,-23.945c0.539,-11.867 9.948,-21.394 21.792,-22.096l4.237,-87.375l0.023,-0c0.07,-2.341 1.896,-4.237 4.237,-4.424l138.449,-12.476l-0,-0.023c1.334,-0.071 2.645,0.397 3.604,1.334c0.96,0.913 1.475,2.2 1.452,3.534l0.002,-0.004Z" style="fill:#ccc;fill-rule:nonzero;stroke:#000;stroke-width:4.17px;"/><path d="M318.539,126.342l-95.386,40.073c-2.855,1.194 -5.945,1.802 -9.035,1.802c-3.09,0 -6.156,-0.608 -8.988,-1.802l-95.385,-40.073l-6.858,28.089c-2.247,9.175 -0.047,18.889 5.921,26.215c25.373,29.68 61.655,47.937 100.629,50.604l-0,-37.451c-0,-2.575 2.083,-4.681 4.681,-4.681c2.575,-0 4.682,2.106 4.682,4.681l-0,37.451c38.996,-2.668 75.271,-20.949 100.673,-50.674c5.945,-7.35 8.122,-17.04 5.875,-26.215l-6.809,-28.019Z" style="fill:#ccc;fill-rule:nonzero;stroke:#000;stroke-width:4.17px;"/><path d="M363.035,71.779l-143.552,-60.291c-3.465,-1.428 -7.35,-1.428 -10.791,-0l-143.552,60.291l-0.023,-0c-5.173,2.153 -8.52,7.232 -8.474,12.85c-0.07,4.213 1.826,8.192 5.103,10.814c0.749,-6.578 5.922,-11.75 12.499,-12.499l138.449,-12.476l1.732,-0c7.233,0.14 13.179,5.758 13.74,12.991c0.281,3.698 -0.866,7.373 -3.253,10.228c-2.388,2.856 -5.829,4.635 -9.55,4.939l-121.906,10.721l115.279,48.428l0,0.024c1.709,0.679 3.535,1.053 5.384,1.053c1.849,0 3.698,-0.374 5.43,-1.053l143.552,-60.291c5.197,-2.154 8.591,-7.233 8.591,-12.874c-0,-5.618 -3.394,-10.697 -8.591,-12.85l-0.067,-0.005Z" style="fill:#ccc;fill-rule:nonzero;stroke:#000;stroke-width:4.17px;"/></g></svg>