<?xml version="1.0" encoding="UTF-8" standalone="no"?>
<!DOCTYPE svg PUBLIC "-//W3C//DTD SVG 1.1//EN" "http://www.w3.org/Graphics/SVG/1.1/DTD/svg11.dtd">
<svg width="100%" height="100%" viewBox="0 0 100 100" version="1.1" xmlns="http://www.w3.org/2000/svg" xmlns:xlink="http://www.w3.org/1999/xlink" xml:space="preserve" xmlns:serif="http://www.serif.com/" style="fill-rule:evenodd;clip-rule:evenodd;stroke-linejoin:round;stroke-miterlimit:2;">
    <g transform="matrix(0.951866,0,0,0.951866,2.5,-7.64832)">
        <path d="M48.208,44.849L47.571,56.329L47.529,56.382L47.027,56.385L47.027,58.653L47.396,58.664L47.438,58.719L47.336,60.565L47.259,71.768L47.144,95.48L38.928,95.592L38.928,94.125L36.611,93.991L36.611,91.991L34.297,91.323L34.297,57.273L35.572,57.184L35.649,54.783L34.297,54.783L34.297,44.516C34.296,44.516 38.122,45.07 48.208,44.849ZM34.296,44.249L34.296,25.179L37.345,25.179L37.19,23.578L0,21L0.618,23.845L4.013,24.201L4.785,53.184L4.861,54.428L3.704,54.428L3.685,56.918L5.073,56.851L6.172,90.391L6.288,99.194L6.751,100.127L93.554,100.127L93.554,58.253L99.804,58.253L99.804,56.118L86.147,56.118L86.456,51.584L86.705,51.533L87.007,47.849L77.1,47.849L77.523,51.383L77.874,51.449L78.394,56.183L49.605,56.368L49.546,56.343L49.903,50.606L50.27,44.116L48.264,43.849L48.226,44.547C48.225,44.547 42.32,45.116 34.296,44.249ZM49.466,58.728L51.312,58.787L51.965,95.416L49.227,95.454L49.036,71.057L49.266,60.565L49.38,58.788L49.357,58.721L49.466,58.728ZM9.529,29.669L15.392,29.802L15.392,38.603L9.529,38.381L9.529,29.669ZM16.087,76.3L9.144,76.3L9.144,65.631L16.087,65.631L16.087,76.3ZM28.046,38.95L22.181,38.728L22.181,30.015L28.046,30.149L28.046,38.95ZM80.129,76.423L79.667,64.964L87.498,65.363L87.691,76.612L80.129,76.423Z" style="fill:rgb(204,204,204);fill-rule:nonzero;stroke:black;stroke-width:1.05px;"/>
    </g>
</svg>
