<?xml version="1.0" encoding="UTF-8" standalone="no"?><!DOCTYPE svg PUBLIC "-//W3C//DTD SVG 1.1//EN" "http://www.w3.org/Graphics/SVG/1.1/DTD/svg11.dtd"><svg width="100%" height="100%" viewBox="0 0 417 417" version="1.1" xmlns="http://www.w3.org/2000/svg" xmlns:xlink="http://www.w3.org/1999/xlink" xml:space="preserve" xmlns:serif="http://www.serif.com/" style="fill-rule:evenodd;clip-rule:evenodd;stroke-linejoin:round;stroke-miterlimit:2;"><path d="M361.27,125.631l-161.932,0c-11.925,0.016 -23.359,5.539 -31.792,15.356c-8.432,9.818 -13.175,23.131 -13.189,37.014l-0,125.689c0.014,13.883 4.757,27.196 13.189,37.014c8.433,9.817 19.867,15.34 31.792,15.356l90.734,0l39.17,45.6c2.531,2.941 5.963,4.592 9.538,4.59c3.576,-0 7.006,-1.655 9.535,-4.597c2.53,-2.944 3.953,-6.935 3.958,-11.098l-0,-34.495l8.996,-0c11.924,-0.017 23.359,-5.539 31.791,-15.357c8.433,-9.817 13.176,-23.13 13.19,-37.013l-0,-125.689c-0.014,-13.883 -4.757,-27.196 -13.19,-37.014c-8.432,-9.817 -19.867,-15.34 -31.791,-15.356l0.001,0Zm-35.985,99.499l-5.027,-0c-2.081,21.628 -10.541,41.747 -23.939,56.923c7.733,3.869 16.054,5.884 24.471,5.921c2.418,-0.013 4.747,1.076 6.485,3.033c1.74,1.956 2.755,4.626 2.827,7.441c0.075,2.738 -0.806,5.397 -2.439,7.368c-1.633,1.973 -3.882,3.093 -6.235,3.106c-14.379,-0.037 -28.499,-4.467 -40.947,-12.848c-12.331,8.416 -26.366,12.851 -40.659,12.848c-2.421,0.016 -4.75,-1.07 -6.491,-3.028c-1.742,-1.957 -2.757,-4.63 -2.827,-7.446c-0.075,-2.739 0.806,-5.396 2.439,-7.367c1.632,-1.973 3.882,-3.093 6.235,-3.107c8.692,0.012 17.296,-2.03 25.29,-6.005c-6.969,-7.726 -12.686,-16.856 -16.87,-26.947c-1.076,-2.518 -1.238,-5.433 -0.449,-8.092c0.788,-2.658 2.461,-4.835 4.643,-6.041c2.183,-1.207 4.69,-1.34 6.958,-0.371c2.268,0.968 4.104,2.957 5.099,5.521c3.881,9.492 9.474,17.896 16.4,24.641c11.85,-11.532 19.621,-27.754 21.827,-45.551l-66.756,-0c-3.215,-0 -6.184,-1.995 -7.791,-5.237c-1.607,-3.24 -1.607,-7.232 0,-10.474c1.607,-3.241 4.576,-5.237 7.791,-5.237l35.985,-0l-0,-20.948c-0,-3.741 1.714,-7.199 4.498,-9.07c2.783,-1.871 6.213,-1.871 8.996,-0c2.783,1.871 4.498,5.329 4.498,9.07l0,20.948l35.985,-0c3.214,-0 6.183,1.996 7.79,5.237c1.608,3.242 1.608,7.233 0,10.474c-1.607,3.242 -4.576,5.237 -7.79,5.237l0.003,0.001Z" style="fill:#ccc;fill-rule:nonzero;stroke:#000;stroke-width:4.17px;"/><path d="M136.364,98.576l-14.653,37.528l26.025,-0c0.653,-1.084 1.339,-2.135 2.04,-3.179l-13.412,-34.349Z" style="fill:#ccc;fill-rule:nonzero;stroke:#000;stroke-width:4.17px;"/><path d="M217.33,10.417l-161.932,-0c-11.925,0.016 -23.359,5.538 -31.792,15.356c-8.432,9.818 -13.175,23.13 -13.189,37.014l-0,125.688c0.014,13.884 4.757,27.197 13.189,37.014c8.433,9.818 19.867,15.34 31.792,15.357l8.996,-0l0,34.489c-0.003,4.166 1.417,8.165 3.947,11.113c2.53,2.949 5.963,4.604 9.543,4.604c3.578,-0 7.011,-1.658 9.541,-4.606l39.17,-45.6l9.769,-0l0,-62.845c0.005,-7.095 0.898,-14.152 2.654,-20.948l-25.488,0l-13.957,35.752c-1.33,3.406 -4.12,5.728 -7.32,6.09c-3.199,0.362 -6.321,-1.289 -8.189,-4.335c-1.869,-3.044 -2.202,-7.017 -0.871,-10.425l44.981,-115.215c0.959,-2.455 2.693,-4.384 4.842,-5.388c2.148,-1.003 4.548,-1.003 6.697,0c2.149,1.004 3.882,2.934 4.841,5.388l19.044,48.781c10.492,-8.488 22.967,-13.034 35.744,-13.027l62.97,0l-0,-41.896c-0.017,-13.883 -4.76,-27.19 -13.193,-37.006c-8.432,-9.816 -19.865,-15.336 -31.788,-15.353l-0.001,-0.002Z" style="fill:#ccc;fill-rule:nonzero;stroke:#000;stroke-width:4.17px;"/></svg>