<svg xmlns="http://www.w3.org/2000/svg" xml:space="preserve" width="512" height="512" fill-rule="evenodd" stroke-linejoin="round" stroke-miterlimit="2" clip-rule="evenodd" viewBox="0 0 512 512">
  <path fill="#ccc" stroke="#000" stroke-width="5.12" d="m86.271 496.037.83-56.052c-.857.187-1.74.32-2.597.401-3.64.374-7.307-.054-10.974-1.286-3.695-1.23-6.906-3.131-9.556-5.621-2.677-2.49-4.765-5.568-6.264-9.155l-3.667-8.78c-.856-2.087-2.141-3.801-3.693-5.059-1.553-1.232-3.481-2.089-5.729-2.463l-.749-.134v88.068l16.302-16.302a6.85 6.85 0 0 1 9.69 0zM220.081 48.45h122.086l23.315-35.656H196.764zm61.057 93.367 52.092-79.662H229.047zm9.022 11.216 61.274-93.687c.134-.187.268-.374.374-.588l27.652-42.293 39.964 37.208L407.7 85.714a7 7 0 0 0-.347.964L361.016 213.37l-28.026-23.876zm-46.337 42 17.935 17.345c.268.215.508.456.749.723l18.604 18.015 18.631-18.015c.215-.268.483-.483.75-.723l17.934-17.345-37.288-31.748zm-42.588 18.336L154.899 86.674c-.107-.322-.214-.669-.347-.964l-11.724-32.041 39.964-37.208 27.652 42.293c.108.215.242.401.376.589l61.274 93.687-42.83 36.458zm4.711 217.253c-.456 2.194.214 4.362 1.579 5.941l26.742 30.089h-48.049v-62.64a26 26 0 0 0 1.794-1.125c3.051-2.062 5.594-4.764 7.601-8.057 2.034-3.319 3.266-6.852 3.722-10.466.427-3.613.08-7.308-1.072-10.975l-2.863-9.075c-.696-2.168-.803-4.283-.429-6.263.401-1.955 1.338-3.855 2.783-5.568l3.855-4.577c2.516-2.971 4.256-6.237 5.273-9.771.99-3.532 1.23-7.227.642-11.054-.589-3.801-1.901-7.281-3.908-10.387-1.982-3.051-4.658-5.674-7.923-7.762l-8.031-5.113c-1.874-1.204-3.346-2.731-4.31-4.497s-1.472-3.854-1.472-6.103l.027-5.995c0-3.882-.749-7.523-2.248-10.842-1.526-3.373-3.749-6.344-6.612-8.887-2.892-2.543-6.13-4.362-9.664-5.433-3.507-1.071-7.2-1.365-11.028-.857l-9.422 1.232c-2.194.295-4.31.053-6.21-.696s-3.613-1.98-5.032-3.695l-3.855-4.603c-2.489-2.998-5.407-5.3-8.699-6.879-3.266-1.58-6.879-2.436-10.761-2.544h-.349c-3.881.108-7.495.964-10.788 2.544-3.266 1.579-6.21 3.881-8.699 6.879l-3.828 4.603c-1.418 1.714-3.132 2.946-5.033 3.695-1.899.75-4.015.991-6.209.696l-.537-.054.027-92.888c0-20.371 8.352-38.894 21.763-52.332 12.661-12.661 29.847-20.798 48.825-21.682l48.182 131.777a6.843 6.843 0 0 0 8.753 4.096 6.9 6.9 0 0 0 2.463-1.553l30.435-25.912 16.544 16.008zM312.3 219.931l16.542-16.008 30.436 25.912a6.7 6.7 0 0 0 2.462 1.553c3.534 1.284 7.469-.562 8.753-4.096l48.183-131.777c19.005.884 36.191 9.021 48.825 21.682 13.437 13.438 21.762 31.963 21.762 52.333v276.567a20.4 20.4 0 0 1-6.049 14.535c-3.72 3.722-8.887 6.051-14.535 6.051l-140.001-.027c8.887-10.36 17.641-20.611 26.073-30.088a6.83 6.83 0 0 0 1.499-6.291zm-50.726 11.243L220.03 430.038l34.372 38.707c.134.161.268.295.401.456l26.312 29.605 26.313-29.605c.134-.161.268-.322.401-.456l34.37-38.707-41.543-198.864-14.831 14.347a6.814 6.814 0 0 1-9.475 0zM115.578 433.567c-2.062-1.018-4.684-1.553-7.361-1.553s-5.3.508-7.362 1.553l-.481 33.085h15.739zm-7.361-15.232c-5.248 0-10.574 1.259-14.884 3.749l-5.192 3.024c-1.66.964-3.347 1.553-5.006 1.714q-2.57.241-5.3-.643c-1.794-.588-3.319-1.499-4.577-2.677-1.232-1.15-2.248-2.623-2.944-4.362l-3.64-8.807c-1.74-4.203-4.416-7.736-7.816-10.44a25.9 25.9 0 0 0-11.939-5.299l-5.889-1.071a12 12 0 0 1-1.418-.322 7 7 0 0 0-.964-.322c-.937-.32-1.767-.776-2.543-1.284-1.392-.937-2.597-2.248-3.588-3.881-.99-1.606-1.579-3.266-1.793-4.953-.215-1.713-.027-3.48.535-5.299l2.863-9.075c1.365-4.337 1.607-8.753.75-13.01s-2.783-8.245-5.728-11.723l-3.855-4.577c-1.232-1.446-2.087-2.998-2.543-4.631s-.535-3.427-.268-5.3c.295-1.901.91-3.559 1.82-4.979a12.5 12.5 0 0 1 3.801-3.695l8.03-5.113c3.855-2.462 6.906-5.701 8.968-9.502 2.062-3.774 3.158-8.057 3.132-12.635l-.027-5.995q0-2.851 1.044-5.219l.134-.295c.696-1.419 1.713-2.731 3.078-3.935 1.446-1.286 2.998-2.168 4.577-2.65 1.633-.483 3.4-.616 5.3-.376l2.356.322q.562.12 1.123.161l5.943.776c4.55.589 8.941.08 12.956-1.499 4.015-1.552 7.603-4.176 10.547-7.709l3.828-4.603c1.204-1.446 2.596-2.544 4.149-3.293 1.499-.723 3.185-1.125 5.006-1.204 1.82.053 3.507.481 5.006 1.204 1.552.749 2.944 1.847 4.149 3.293l3.827 4.603c2.946 3.534 6.532 6.13 10.547 7.709s8.406 2.089 12.956 1.499l9.424-1.232c1.899-.241 3.666-.107 5.299.374 1.58.483 3.132 1.365 4.577 2.651s2.517 2.677 3.212 4.203v.026a12.4 12.4 0 0 1 1.045 5.221l-.027 5.995c0 4.577 1.071 8.861 3.132 12.635s5.086 7.012 8.967 9.502l8.03 5.113c1.606 1.018 2.864 2.249 3.801 3.695.91 1.392 1.526 3.078 1.821 4.979.293 1.901.187 3.695-.268 5.3-.456 1.633-1.313 3.185-2.543 4.63l-3.855 4.577c-2.944 3.481-4.872 7.496-5.728 11.724-.857 4.257-.616 8.673.749 13.01l2.864 9.075c.562 1.82.749 3.613.535 5.299-.215 1.687-.803 3.346-1.767 4.953-.991 1.632-2.222 2.944-3.586 3.881a10.3 10.3 0 0 1-2.544 1.284 5 5 0 0 0-.963.322 12 12 0 0 1-1.419.32l-5.995.991c-4.497.776-8.539 2.597-11.939 5.3s-6.049 6.237-7.816 10.439l-3.774 9.102a11.5 11.5 0 0 1-2.81 4.096c-1.259 1.177-2.785 2.087-4.577 2.677q-2.731.923-5.3.642c-1.66-.161-3.346-.749-5.006-1.713l-5.192-3.025c-4.283-2.489-9.637-3.72-14.857-3.72zm25.778-29.231c1.525.937 3.373.884 4.818-.188a4.25 4.25 0 0 0 1.659-4.523l-7.227-29.444 23.155-19.568c1.364-1.152 1.874-2.946 1.311-4.658s-2.007-2.837-3.801-2.971l-30.222-2.248-11.457-28.053a4.27 4.27 0 0 0-4.015-2.704c-1.794 0-3.319 1.017-4.015 2.704l-11.457 28.053-30.222 2.248c-1.794.134-3.239 1.259-3.801 2.971-.561 1.713-.053 3.48 1.313 4.658l23.154 19.568-7.227 29.444a4.25 4.25 0 0 0 1.659 4.523c1.446 1.045 3.293 1.125 4.819.188l25.778-15.954zm-4.658 50.886.83 56.054 16.383-16.383a6.85 6.85 0 0 1 9.69 0l16.302 16.302v-88.068l-.749.134c-2.222.374-4.176 1.23-5.729 2.462s-2.81 2.946-3.693 5.06l-3.828 9.182c-1.472 3.426-3.534 6.37-6.103 8.753-2.624 2.489-5.836 4.389-9.53 5.621-3.666 1.232-7.334 1.66-10.974 1.286a21 21 0 0 1-2.597-.401Z"/>
</svg>
