<?xml version="1.0" encoding="UTF-8" standalone="no"?><!DOCTYPE svg PUBLIC "-//W3C//DTD SVG 1.1//EN" "http://www.w3.org/Graphics/SVG/1.1/DTD/svg11.dtd"><svg width="100%" height="100%" viewBox="0 0 417 417" version="1.1" xmlns="http://www.w3.org/2000/svg" xmlns:xlink="http://www.w3.org/1999/xlink" xml:space="preserve" xmlns:serif="http://www.serif.com/" style="fill-rule:evenodd;clip-rule:evenodd;stroke-linejoin:round;stroke-miterlimit:2;"><path d="M232.093,175.089l0.003,-0.129l17.071,0c34.057,0 61.899,27.841 61.899,61.899l-0,72.778c-0,34.057 -27.841,61.899 -61.899,61.899l-88.967,-0c-34.057,-0 -61.899,-27.841 -61.899,-61.899l0,-72.778c0,-34.057 27.841,-61.899 61.899,-61.899l32.092,0l7.156,11.857c10.706,17.888 21.049,17.182 27.526,-1.154l5.119,-10.574Zm3.211,45.195l-4.144,15.152c-2.59,9.582 12.043,13.467 14.633,3.885l4.144,-15.152c2.59,-9.582 -12.043,-13.467 -14.633,-3.885Zm-83.005,70.187l-0.001,0c2.719,12.173 9.583,22.533 18.907,29.914c30.948,24.604 76.79,8.288 85.596,-29.914c2.201,-9.712 -12.561,-13.079 -14.763,-3.367c-2.072,8.676 -6.863,16.058 -13.597,21.367c-22.012,17.612 -55.034,6.087 -61.379,-21.367c-2.202,-9.712 -16.964,-6.345 -14.763,3.367Zm6.734,-66.302l4.014,15.151c2.59,9.712 17.223,5.698 14.633,-3.885l-4.014,-15.151c-2.59,-9.712 -17.223,-5.698 -14.633,3.885Z" style="fill:#ccc;stroke:#000;stroke-width:4.17px;"/><g><path d="M374.259,45.131l-0.001,0.002c17.568,-0 31.992,14.424 31.992,31.992l0,44.011c0,17.568 -14.332,31.9 -31.899,31.9l-140.358,-0c-2.127,-0 -4.161,1.294 -4.993,3.421l-11.281,28.848c0,0 -1.049,4.226 -4.392,4.199c-2.657,-0.022 -4.299,-4.199 -4.299,-4.199l-15.349,-29.033c-0.925,-1.942 -2.774,-3.236 -4.993,-3.236l-146.37,-0c-17.568,-0 -31.899,-14.332 -31.899,-31.9l-0,-44.106c-0,-17.475 14.331,-31.899 31.899,-31.899l331.943,-0Zm-201.661,24.688c-1.85,-3.791 -5.641,-6.011 -9.894,-6.103c-4.161,-0 -7.952,2.404 -9.893,6.103l-4.901,9.616l-10.726,1.757c-8.969,1.479 -12.482,12.389 -6.102,18.769l7.582,7.582l-1.572,10.819c-1.387,8.968 7.951,15.718 15.996,11.65l9.524,-4.901l9.801,4.901c5.917,3.051 12.852,0.185 15.256,-5.64c0.74,-1.85 1.017,-3.976 0.647,-6.01l-1.571,-10.819l7.304,-7.304c6.658,-6.288 3.329,-17.568 -5.825,-19.047l-10.541,-1.665l-5.085,-9.708Zm182.245,-0c-1.849,-3.791 -5.64,-6.01 -9.986,-6.195c-4.161,-0 -7.952,2.404 -9.894,6.102l-4.9,9.616l-10.726,1.757c-8.969,1.48 -12.483,12.39 -6.103,18.77l7.582,7.582l-1.572,10.818c-1.479,8.784 7.675,15.811 15.904,11.65l9.524,-4.9l9.801,4.9c8.044,4.069 17.383,-2.681 15.996,-11.65l-1.664,-10.541l7.674,-7.767c6.38,-6.38 2.959,-17.383 -6.103,-18.769l-10.541,-1.665l-4.992,-9.708Zm-273.32,-0c-1.942,-3.791 -5.641,-6.01 -9.894,-6.195c-4.161,-0 -8.044,2.404 -9.893,6.102l-4.901,9.616l-10.726,1.757c-8.969,1.48 -12.482,12.39 -6.102,18.77l7.582,7.582l-1.572,10.818c-1.387,8.969 7.952,15.719 15.996,11.65l9.524,-4.9l9.801,4.9c5.918,3.052 12.852,0.186 15.256,-5.64c0.74,-1.757 1.017,-3.698 0.74,-5.732l-1.664,-11.004l7.582,-7.582c6.38,-6.38 2.866,-17.383 -6.103,-18.769l-10.633,-1.665l-4.993,-9.708Zm182.244,-0c-1.941,-3.791 -5.64,-6.011 -9.986,-6.103c-4.16,-0 -7.951,2.404 -9.893,6.103l-4.901,9.616l-10.725,1.757c-9.062,1.479 -12.483,12.389 -6.103,18.769l7.582,7.582l-1.572,10.819c-0.37,2.034 -0.092,4.068 0.647,5.917c2.404,5.825 9.339,8.599 15.257,5.64l9.523,-4.9l9.802,4.9c7.951,4.069 17.198,-2.496 15.996,-11.372l-1.665,-10.819l7.675,-7.767c6.38,-6.38 2.866,-17.383 -6.103,-18.769l-10.541,-1.665l-4.993,-9.708Z" style="fill:#ccc;stroke:#000;stroke-width:4.17px;"/><path d="M167.789,84.243l-5.085,-9.709c-8.599,16.274 -5.826,14.332 -24.041,17.476l7.674,7.859c2.497,2.589 3.607,6.01 3.144,9.524c-0.185,1.109 -1.941,10.541 -1.572,10.818c16.551,-8.137 13.13,-8.137 29.681,0c0.092,0 0.092,-0.092 0.092,-0.092l-1.664,-10.726c-0.555,-3.606 0.555,-7.027 3.051,-9.524l7.582,-7.859l-10.818,-1.85c-3.421,-0.554 -6.38,-2.681 -8.044,-5.917l0,-0Z" style="fill:#ccc;fill-rule:nonzero;stroke:#000;stroke-width:4.17px;"/><path d="M258.959,84.243l-5.086,-9.709c-8.506,16.274 -5.825,14.332 -24.04,17.476c-0.092,0.462 6.842,7.027 7.674,7.859c2.497,2.497 3.606,6.01 3.144,9.524l-1.664,10.726l0.37,0.092l9.523,-4.808c3.237,-1.664 6.843,-1.664 10.079,0l9.801,4.808c-2.681,-18.215 -3.698,-15.071 9.154,-28.201l-10.726,-1.849c-3.699,-0.555 -6.657,-2.681 -8.229,-5.918l0,-0Z" style="fill:#ccc;fill-rule:nonzero;stroke:#000;stroke-width:4.17px;"/><path d="M350.034,84.243l-5.085,-9.709c-8.599,16.274 -5.826,14.332 -24.041,17.476l7.582,7.859c2.589,2.589 3.699,6.01 3.144,9.524c-0.185,1.109 -1.942,10.541 -1.572,10.818c16.551,-8.137 13.222,-8.137 29.68,0c0.37,-0.277 -1.386,-9.708 -1.571,-10.818c-0.555,-3.606 0.554,-7.027 3.143,-9.524l7.675,-7.859l-10.818,-1.849c-3.514,-0.555 -6.473,-2.682 -8.137,-5.918l0,-0Z" style="fill:#ccc;fill-rule:nonzero;stroke:#000;stroke-width:4.17px;"/><path d="M76.715,84.243l-5.086,-9.709c-8.599,16.274 -5.825,14.332 -24.04,17.476l7.674,7.859c2.497,2.589 3.606,6.01 3.051,9.524c-0.185,1.109 -1.941,10.541 -1.572,10.818c16.551,-8.137 13.13,-8.137 29.681,0c0.092,0 0.092,-0.092 0.092,-0.092c0.555,-2.219 -5.27,-13.685 1.387,-20.25l7.675,-7.859l-10.819,-1.849c-3.513,-0.555 -6.38,-2.682 -8.044,-5.918l0.001,-0Z" style="fill:#ccc;fill-rule:nonzero;stroke:#000;stroke-width:4.17px;"/></g></svg>