<svg xmlns="http://www.w3.org/2000/svg" xml:space="preserve" width="512" height="512" fill-rule="evenodd" stroke-linejoin="round" stroke-miterlimit="2" clip-rule="evenodd" viewBox="0 0 512 512">
  <path fill="#ccc" fill-rule="nonzero" stroke="#000" stroke-width="5.12" d="M443.574 154.252H244.751c-14.642.02-28.681 6.801-39.035 18.854s-16.176 28.401-16.194 45.446v154.324c.017 17.046 5.841 33.392 16.194 45.446 10.354 12.053 24.393 18.835 39.035 18.854h111.405l48.094 55.988c3.108 3.611 7.321 5.638 11.711 5.636 4.391 0 8.602-2.032 11.707-5.644 3.106-3.615 4.854-8.515 4.86-13.626v-42.353h11.045c14.64-.021 28.681-6.801 39.034-18.856 10.354-12.053 16.178-28.399 16.195-45.445V218.553c-.017-17.046-5.841-33.392-16.195-45.446s-24.393-18.835-39.034-18.854zm-44.183 122.167h-6.172c-2.555 26.555-12.942 51.258-29.393 69.891 9.495 4.75 19.711 7.224 30.046 7.27 2.969-.016 5.828 1.321 7.962 3.724 2.136 2.402 3.383 5.68 3.471 9.136.092 3.362-.99 6.627-2.995 9.047-2.005 2.422-4.766 3.798-7.655 3.814-17.655-.045-34.992-5.485-50.275-15.775-15.14 10.333-32.373 15.779-49.922 15.775-2.973.02-5.832-1.314-7.97-3.718s-3.385-5.685-3.471-9.142c-.092-3.363.99-6.625 2.995-9.045 2.004-2.422 4.766-3.798 7.655-3.815 10.672.015 21.236-2.492 31.052-7.373-8.557-9.486-15.576-20.696-20.713-33.086-1.321-3.092-1.52-6.671-.551-9.936.968-3.264 3.022-5.936 5.701-7.417s5.758-1.645 8.543-.456 5.039 3.631 6.261 6.779c4.765 11.654 11.632 21.973 20.136 30.255 14.55-14.159 24.091-34.077 26.8-55.928H288.93c-3.947 0-7.593-2.449-9.566-6.43-1.973-3.978-1.973-8.88 0-12.86s5.618-6.43 9.566-6.43h44.183v-25.72c0-4.593 2.104-8.839 5.523-11.136 3.417-2.297 7.628-2.297 11.045 0s5.523 6.543 5.523 11.136v25.72h44.183c3.946 0 7.592 2.451 9.565 6.43s1.974 8.881 0 12.86c-1.973 3.981-5.618 6.43-9.565 6.43zM167.43 121.033l-17.991 46.078h31.954a95 95 0 0 1 2.505-3.903z"/>
  <path fill="#ccc" fill-rule="nonzero" stroke="#000" stroke-width="5.12" d="M266.842 12.79H68.019c-14.642.02-28.681 6.8-39.035 18.854S12.808 60.043 12.79 77.09v154.322c.017 17.047 5.841 33.393 16.194 45.446s24.393 18.835 39.035 18.856h11.045v42.346c-.004 5.115 1.74 10.025 4.846 13.645s7.321 5.653 11.717 5.653c4.393 0 8.608-2.036 11.715-5.655l48.094-55.988h11.995v-77.162a103 103 0 0 1 3.259-25.72h-31.296l-17.137 43.897c-1.633 4.182-5.059 7.033-8.988 7.477s-7.761-1.583-10.055-5.323c-2.295-3.737-2.704-8.616-1.069-12.8l55.229-141.463c1.177-3.014 3.307-5.383 5.945-6.615a9.61 9.61 0 0 1 8.223 0c2.639 1.233 4.766 3.602 5.944 6.615l23.383 59.894c12.882-10.422 28.199-16.003 43.887-15.995h77.316V77.08c-.021-17.046-5.844-33.384-16.199-45.437s-24.391-18.83-39.03-18.851z"/>
</svg>
