<svg xmlns="http://www.w3.org/2000/svg" xml:space="preserve" width="512" height="512" fill-rule="evenodd" stroke-linejoin="round" stroke-miterlimit="2" clip-rule="evenodd" viewBox="0 0 512 512">
  <path fill="#ccc" fill-rule="nonzero" stroke="#000" stroke-width="5.12" d="m247.747 179.415-3.113 55.951-.205.256-2.442.015v11.054l1.792.051.205.271-.492 8.996-.379 54.6-.558 115.558-40.038.548v-7.148l-11.295-.655v-9.748l-11.279-3.251V239.964l6.216-.43.374-11.704h-6.589v-50.038s18.642 2.703 67.799 1.623Zm-67.804-2.918V83.548h14.863l-.758-7.803L12.8 63.181l3.011 13.865 16.548 1.741 3.763 141.245.369 6.062h-5.638l-.092 12.134 6.758-.323 5.361 163.456.563 42.906 2.258 4.547h423.04V244.736h30.464v-10.394h-66.56l1.505-22.098 1.213-.246 1.469-17.956H388.55l2.063 17.224 1.71.323 2.534 23.071-140.303.901-.292-.123 1.741-27.955 1.792-31.631-9.779-1.3-.184 3.4c-.005 0-28.785 2.775-67.891-1.454Zm73.933 70.559 8.996.292 3.185 178.514-13.343.184-.932-118.902 1.121-51.133.553-8.658-.113-.328zM59.238 105.436l28.575.65v42.89l-28.57-1.08zm31.964 227.261H57.359v-51.998h33.843zm58.281-182.031-28.585-1.08v-42.465l28.585.655zm253.829 182.63-2.253-55.849 38.17 1.946.937 54.825z"/>
</svg>
