<svg xmlns="http://www.w3.org/2000/svg" xml:space="preserve" width="512" height="512" fill-rule="evenodd" stroke-linejoin="round" stroke-miterlimit="2" clip-rule="evenodd" viewBox="0 0 512 512">
  <path fill="#ccc" stroke="#000" stroke-width="5.12" d="m284.968 214.977.004-.158h20.96c41.816 0 76.001 34.184 76.001 76.001v89.358c0 41.816-34.184 76.001-76.001 76.001H196.696c-41.816 0-76.001-34.184-76.001-76.001V290.82c0-41.816 34.184-76.001 76.001-76.001h39.403l8.786 14.558c13.145 21.963 25.844 21.096 33.797-1.417zm3.943 55.491-5.088 18.604c-3.18 11.765 14.787 16.535 17.967 4.77l5.088-18.604c3.18-11.765-14.787-16.535-17.967-4.77Zm-101.915 86.177h-.001c3.338 14.946 11.766 27.666 23.214 36.729 37.999 30.209 94.284 10.176 105.096-36.729 2.702-11.925-15.423-16.059-18.126-4.134-2.544 10.653-8.427 19.716-16.695 26.235-27.027 21.624-67.572 7.474-75.362-26.235-2.704-11.925-20.829-7.791-18.126 4.134Zm8.268-81.407 4.928 18.603c3.18 11.925 21.147 6.996 17.967-4.77l-4.928-18.603c-3.18-11.925-21.147-6.996-17.967 4.77Z"/>
  <g fill="#ccc" stroke="#000" stroke-width="5.12">
    <path d="m459.522 55.413-.001.002c21.57 0 39.28 17.71 39.28 39.28v54.037c0 21.57-17.597 39.167-39.166 39.167H287.301a6.61 6.61 0 0 0-6.13 4.2l-13.851 35.42s-1.288 5.189-5.393 5.156c-3.262-.027-5.278-5.156-5.278-5.156l-18.846-35.647c-1.136-2.384-3.406-3.973-6.13-3.973H51.956c-21.57 0-39.166-17.597-39.166-39.167V94.579c0-21.456 17.596-39.166 39.166-39.166zM211.919 85.725c-2.271-4.655-6.926-7.38-12.148-7.493-5.109 0-9.764 2.952-12.147 7.493l-6.018 11.807-13.17 2.157c-11.012 1.816-15.326 15.211-7.492 23.045l9.309 9.309-1.93 13.284c-1.703 11.011 9.762 19.299 19.64 14.304l11.694-6.018 12.034 6.018c7.265 3.746 15.78.227 18.732-6.925.909-2.271 1.249-4.882.794-7.379l-1.929-13.284 8.968-8.968c8.175-7.721 4.087-21.57-7.152-23.386l-12.942-2.044zm223.764 0c-2.27-4.655-6.925-7.379-12.261-7.606-5.109 0-9.764 2.952-12.148 7.492l-6.016 11.807-13.17 2.157c-11.012 1.817-15.327 15.213-7.493 23.046l9.309 9.309-1.93 13.283c-1.816 10.785 9.424 19.413 19.527 14.304l11.694-6.016 12.034 6.016c9.877 4.996 21.343-3.292 19.64-14.304l-2.043-12.942 9.422-9.536c7.833-7.833 3.633-21.343-7.493-23.045l-12.942-2.044zm-335.587 0c-2.384-4.655-6.926-7.379-12.148-7.606-5.109 0-9.877 2.952-12.147 7.492l-6.018 11.807-13.17 2.157c-11.012 1.817-15.326 15.213-7.492 23.046l9.309 9.309-1.93 13.283c-1.703 11.012 9.764 19.3 19.64 14.304l11.694-6.016 12.034 6.016c7.266 3.747 15.78.228 18.732-6.925.909-2.157 1.249-4.54.909-7.038l-2.043-13.511 9.309-9.309c7.833-7.833 3.519-21.343-7.493-23.045l-13.055-2.044zm223.762 0c-2.383-4.655-6.925-7.38-12.261-7.493-5.108 0-9.762 2.952-12.147 7.493l-6.018 11.807-13.168 2.157c-11.126 1.816-15.327 15.211-7.493 23.045l9.309 9.309-1.93 13.284c-.454 2.497-.113 4.995.794 7.265 2.952 7.152 11.467 10.558 18.733 6.925l11.693-6.016 12.035 6.016c9.762 4.996 21.116-3.065 19.64-13.963l-2.044-13.284 9.424-9.536c7.833-7.833 3.519-21.343-7.493-23.045l-12.942-2.044z"/>
    <path fill-rule="nonzero" d="m206.014 103.435-6.243-11.921c-10.558 19.982-7.153 17.597-29.518 21.457l9.422 9.649c3.066 3.179 4.429 7.379 3.86 11.694-.227 1.362-2.383 12.942-1.93 13.283 20.322-9.991 16.121-9.991 36.443 0 .113 0 .113-.113.113-.113l-2.043-13.17c-.681-4.428.681-8.628 3.746-11.694l9.309-9.649-13.283-2.271c-4.2-.68-7.833-3.292-9.877-7.265Zm111.94 0-6.245-11.921c-10.444 19.982-7.152 17.597-29.517 21.457-.113.567 8.401 8.628 9.422 9.649 3.066 3.066 4.428 7.379 3.86 11.694l-2.043 13.17.454.113 11.693-5.903c3.974-2.043 8.402-2.043 12.375 0l12.034 5.903c-3.292-22.365-4.54-18.504 11.239-34.626l-13.17-2.27c-4.542-.681-8.174-3.292-10.104-7.266Zm111.824 0-6.243-11.921c-10.558 19.982-7.153 17.597-29.518 21.457l9.309 9.649c3.179 3.179 4.542 7.379 3.86 11.694-.227 1.362-2.384 12.942-1.93 13.283 20.322-9.991 16.234-9.991 36.442 0 .454-.34-1.702-11.92-1.929-13.283-.681-4.428.68-8.628 3.859-11.694l9.424-9.649-13.283-2.27c-4.315-.681-7.948-3.293-9.991-7.266Zm-335.586 0-6.245-11.921c-10.558 19.982-7.152 17.597-29.517 21.457l9.422 9.649c3.066 3.179 4.428 7.379 3.746 11.694-.227 1.362-2.383 12.942-1.93 13.283 20.322-9.991 16.121-9.991 36.443 0 .113 0 .113-.113.113-.113.681-2.725-6.471-16.803 1.703-24.863l9.424-9.649-13.284-2.27c-4.313-.681-7.833-3.293-9.877-7.266z"/>
  </g>
</svg>
