<?xml version="1.0" encoding="UTF-8" standalone="no"?><!DOCTYPE svg PUBLIC "-//W3C//DTD SVG 1.1//EN" "http://www.w3.org/Graphics/SVG/1.1/DTD/svg11.dtd"><svg width="100%" height="100%" viewBox="0 0 417 417" version="1.1" xmlns="http://www.w3.org/2000/svg" xmlns:xlink="http://www.w3.org/1999/xlink" xml:space="preserve" xmlns:serif="http://www.serif.com/" style="fill-rule:evenodd;clip-rule:evenodd;stroke-linejoin:round;stroke-miterlimit:2;"><path d="M70.264,403.999l0.676,-45.652c-0.698,0.152 -1.417,0.261 -2.115,0.327c-2.965,0.305 -5.951,-0.044 -8.938,-1.047c-3.009,-1.002 -5.625,-2.55 -7.783,-4.578c-2.18,-2.028 -3.881,-4.535 -5.102,-7.456l-2.987,-7.151c-0.697,-1.7 -1.744,-3.096 -3.008,-4.12c-1.265,-1.003 -2.835,-1.701 -4.666,-2.006l-0.61,-0.109l-0,71.727l13.277,-13.277c2.18,-2.18 5.712,-2.18 7.892,0l13.364,13.342Zm108.982,-364.539l99.433,-0l18.989,-29.04l-137.413,-0l18.991,29.04Zm49.728,76.043l42.426,-64.881l-84.852,0l42.426,64.881Zm7.348,9.135l49.905,-76.304c0.109,-0.152 0.218,-0.305 0.305,-0.479l22.521,-34.446l32.549,30.304l-9.549,26.096c-0.109,0.261 -0.218,0.523 -0.283,0.785l-37.739,103.186l-22.826,-19.446l-34.883,-29.696Zm-37.739,34.207l14.607,14.127c0.218,0.175 0.414,0.371 0.61,0.589l15.152,14.672l15.174,-14.672c0.175,-0.218 0.393,-0.393 0.611,-0.589l14.606,-14.127l-30.369,-25.857l-30.391,25.857Zm-34.686,14.934l-37.739,-103.187c-0.087,-0.262 -0.174,-0.545 -0.283,-0.785l-9.549,-26.096l32.549,-30.304l22.521,34.446c0.088,0.175 0.197,0.327 0.306,0.48l49.905,76.304l-34.883,29.693l-22.827,19.449Zm3.837,176.942c-0.371,1.787 0.174,3.553 1.286,4.839l21.78,24.506l-39.134,-0l0,-51.017c0.501,-0.284 0.981,-0.589 1.461,-0.916c2.485,-1.679 4.556,-3.88 6.191,-6.562c1.657,-2.703 2.66,-5.581 3.031,-8.524c0.348,-2.943 0.065,-5.952 -0.873,-8.939l-2.332,-7.391c-0.567,-1.766 -0.654,-3.488 -0.349,-5.101c0.327,-1.592 1.09,-3.14 2.267,-4.535l3.14,-3.728c2.049,-2.42 3.466,-5.08 4.295,-7.958c0.806,-2.877 1.002,-5.886 0.523,-9.003c-0.48,-3.096 -1.548,-5.93 -3.183,-8.46c-1.614,-2.485 -3.794,-4.621 -6.453,-6.322l-6.541,-4.164c-1.526,-0.981 -2.725,-2.224 -3.51,-3.663c-0.785,-1.439 -1.199,-3.139 -1.199,-4.971l0.022,-4.883c-0,-3.162 -0.61,-6.127 -1.831,-8.83c-1.243,-2.747 -3.053,-5.167 -5.385,-7.238c-2.355,-2.071 -4.993,-3.553 -7.871,-4.425c-2.856,-0.872 -5.864,-1.112 -8.982,-0.698l-7.674,1.003c-1.787,0.24 -3.51,0.043 -5.058,-0.567c-1.548,-0.61 -2.943,-1.613 -4.098,-3.009l-3.14,-3.749c-2.027,-2.442 -4.404,-4.317 -7.085,-5.603c-2.66,-1.287 -5.603,-1.984 -8.764,-2.072l-0.284,0c-3.161,0.088 -6.104,0.785 -8.786,2.072c-2.66,1.286 -5.058,3.161 -7.085,5.603l-3.118,3.749c-1.155,1.396 -2.551,2.399 -4.099,3.009c-1.547,0.611 -3.27,0.807 -5.057,0.567l-0.437,-0.044l0.022,-75.653c0,-16.591 6.802,-31.677 17.725,-42.622c10.312,-10.312 24.309,-16.939 39.766,-17.659l39.242,107.326c1.047,2.878 4.23,4.382 7.129,3.336c0.785,-0.284 1.439,-0.72 2.006,-1.265l24.788,-21.104l13.474,13.038l-35.82,171.627Zm86.62,-171.598l13.473,-13.038l24.789,21.104c0.545,0.545 1.22,0.981 2.005,1.265c2.878,1.046 6.083,-0.458 7.129,-3.336l39.243,-107.326c15.479,0.72 29.476,7.347 39.766,17.659c10.944,10.945 17.724,26.032 17.724,42.623l0,225.251c0,4.622 -1.875,8.808 -4.927,11.838c-3.03,3.031 -7.238,4.928 -11.838,4.928l-114.024,-0.022c7.238,-8.438 14.368,-16.787 21.235,-24.505c1.286,-1.439 1.679,-3.38 1.221,-5.124l-35.796,-171.317Zm-41.314,9.157l-33.836,161.965l27.994,31.525c0.109,0.131 0.218,0.24 0.327,0.371l21.43,24.112l21.431,-24.112c0.109,-0.131 0.218,-0.262 0.327,-0.371l27.993,-31.525l-33.835,-161.965l-12.079,11.685c-2.136,2.071 -5.559,2.093 -7.717,0l-12.035,-11.685Zm-118.907,164.84c-1.679,-0.829 -3.815,-1.265 -5.995,-1.265c-2.181,0 -4.317,0.414 -5.996,1.265l-0.392,26.946l12.819,0l-0.436,-26.946Zm-5.995,-12.406c-4.274,0 -8.612,1.025 -12.122,3.053l-4.229,2.463c-1.352,0.785 -2.726,1.265 -4.077,1.396c-1.396,0.13 -2.834,-0.044 -4.317,-0.524c-1.461,-0.479 -2.703,-1.221 -3.728,-2.18c-1.003,-0.937 -1.831,-2.136 -2.398,-3.553l-2.965,-7.173c-1.417,-3.423 -3.597,-6.301 -6.366,-8.503c-2.769,-2.202 -6.061,-3.706 -9.724,-4.316l-4.796,-0.872c-0.392,-0.066 -0.785,-0.153 -1.155,-0.262c-0.262,-0.109 -0.523,-0.196 -0.785,-0.262c-0.763,-0.261 -1.439,-0.632 -2.071,-1.046c-1.134,-0.763 -2.115,-1.831 -2.922,-3.161c-0.806,-1.308 -1.286,-2.66 -1.46,-4.034c-0.175,-1.395 -0.022,-2.834 0.436,-4.316l2.332,-7.391c1.112,-3.532 1.309,-7.129 0.611,-10.596c-0.698,-3.466 -2.267,-6.715 -4.665,-9.548l-3.14,-3.728c-1.003,-1.178 -1.7,-2.442 -2.071,-3.772c-0.371,-1.33 -0.436,-2.791 -0.218,-4.317c0.24,-1.548 0.741,-2.899 1.482,-4.055c0.764,-1.155 1.788,-2.18 3.096,-3.009l6.54,-4.164c3.14,-2.005 5.625,-4.643 7.304,-7.739c1.679,-3.074 2.572,-6.562 2.551,-10.291l-0.022,-4.883c-0,-1.548 0.283,-2.965 0.85,-4.251l0.109,-0.24c0.567,-1.156 1.395,-2.224 2.507,-3.205c1.178,-1.047 2.442,-1.766 3.728,-2.158c1.33,-0.393 2.769,-0.502 4.317,-0.306l1.919,0.262c0.305,0.065 0.61,0.109 0.915,0.131l4.84,0.632c3.706,0.48 7.282,0.065 10.552,-1.221c3.27,-1.264 6.192,-3.401 8.59,-6.279l3.118,-3.749c0.981,-1.178 2.114,-2.072 3.379,-2.682c1.221,-0.589 2.594,-0.916 4.077,-0.981c1.482,0.043 2.856,0.392 4.077,0.981c1.264,0.61 2.398,1.504 3.379,2.682l3.117,3.749c2.399,2.878 5.32,4.993 8.59,6.279c3.271,1.286 6.846,1.701 10.552,1.221l7.675,-1.003c1.547,-0.196 2.986,-0.087 4.316,0.305c1.287,0.393 2.551,1.112 3.728,2.159c1.178,1.046 2.05,2.18 2.616,3.423l0,0.021c0.567,1.287 0.873,2.704 0.851,4.252l-0.022,4.883c-0,3.728 0.872,7.217 2.551,10.291c1.678,3.074 4.142,5.711 7.303,7.739l6.54,4.164c1.308,0.829 2.333,1.832 3.096,3.009c0.741,1.134 1.243,2.507 1.483,4.055c0.239,1.548 0.152,3.009 -0.218,4.317c-0.371,1.33 -1.069,2.594 -2.071,3.771l-3.14,3.728c-2.398,2.835 -3.968,6.105 -4.665,9.549c-0.698,3.467 -0.502,7.064 0.61,10.596l2.333,7.391c0.458,1.482 0.61,2.943 0.436,4.316c-0.175,1.374 -0.654,2.725 -1.439,4.034c-0.807,1.329 -1.81,2.398 -2.921,3.161c-0.633,0.436 -1.308,0.785 -2.072,1.046c-0.283,0.066 -0.545,0.153 -0.784,0.262c-0.371,0.109 -0.763,0.196 -1.156,0.261l-4.883,0.807c-3.663,0.632 -6.955,2.115 -9.724,4.317c-2.769,2.202 -4.927,5.08 -6.366,8.502l-3.074,7.413c-0.545,1.33 -1.33,2.442 -2.289,3.336c-1.025,0.959 -2.268,1.7 -3.728,2.18c-1.483,0.501 -2.922,0.676 -4.317,0.523c-1.352,-0.131 -2.725,-0.61 -4.077,-1.395l-4.229,-2.464c-3.488,-2.027 -7.849,-3.03 -12.1,-3.03l-0,-0.001Zm20.995,-23.807c1.242,0.763 2.747,0.72 3.924,-0.153c1.177,-0.85 1.7,-2.267 1.351,-3.684l-5.886,-23.981l18.859,-15.937c1.111,-0.938 1.526,-2.399 1.068,-3.794c-0.458,-1.395 -1.635,-2.311 -3.096,-2.42l-24.614,-1.831l-9.331,-22.848c-0.545,-1.352 -1.809,-2.202 -3.27,-2.202c-1.461,-0 -2.703,0.828 -3.27,2.202l-9.331,22.848l-24.614,1.831c-1.461,0.109 -2.638,1.025 -3.096,2.42c-0.457,1.395 -0.043,2.834 1.069,3.794l18.858,15.937l-5.886,23.981c-0.349,1.417 0.174,2.834 1.351,3.684c1.178,0.851 2.682,0.916 3.925,0.153l20.995,-12.994l20.994,12.994Zm-3.794,41.444l0.676,45.653l13.343,-13.343c2.18,-2.18 5.712,-2.18 7.892,-0l13.277,13.277l0,-71.727l-0.61,0.109c-1.81,0.305 -3.401,1.002 -4.666,2.005c-1.264,1.003 -2.289,2.399 -3.008,4.121l-3.118,7.478c-1.199,2.79 -2.878,5.188 -4.971,7.129c-2.137,2.027 -4.753,3.575 -7.762,4.578c-2.986,1.003 -5.973,1.352 -8.938,1.047c-0.72,-0.066 -1.417,-0.175 -2.115,-0.327l0,0Z" style="fill:#ccc;stroke:#000;stroke-width:4.17px;"/></svg>