<svg xmlns="http://www.w3.org/2000/svg" xml:space="preserve" width="512" height="512" fill-rule="evenodd" stroke-linejoin="round" stroke-miterlimit="2" clip-rule="evenodd" viewBox="0 0 512 512">
  <path fill="#ccc" fill-rule="nonzero" stroke="#000" stroke-width="5.12" d="M337.359 325.803c0 9.013 7.299 16.313 16.313 16.313s16.313-7.299 16.313-16.313c0-8.989-7.267-16.271-16.248-16.304a137.5 137.5 0 0 1-16.118 13.753c-.138.84-.26 1.678-.26 2.551Zm32.626 42.858c0 9.01-7.303 16.313-16.313 16.313s-16.313-7.303-16.313-16.313 7.303-16.313 16.313-16.313 16.313 7.303 16.313 16.313M174.23 325.803c0-.807-.122-1.573-.236-2.348-5.799-4.225-11.198-8.914-16.24-13.947-8.931.087-16.149 7.34-16.149 16.296 0 9.012 7.301 16.313 16.313 16.313 9.013 0 16.313-7.301 16.313-16.313zm0 42.858c0 9.01-7.303 16.313-16.313 16.313s-16.313-7.303-16.313-16.313 7.304-16.313 16.313-16.313c9.01 0 16.313 7.303 16.313 16.313m97.878-10.231c0-3.287-.996-6.339-2.668-8.899-4.527.465-9.077.743-13.645.743-4.323 0-8.882-.344-13.589-.848a16.26 16.26 0 0 0-2.723 9.005c0 9.012 7.299 16.313 16.313 16.313s16.313-7.301 16.313-16.313Zm0 42.857c0 9.01-7.303 16.313-16.313 16.313s-16.313-7.303-16.313-16.313 7.303-16.313 16.313-16.313 16.313 7.303 16.313 16.313m91.452-5.014-1.73-1.297v48.938h-16.313v-48.938l-1.73 1.297c-9.135 6.851-14.583 17.748-14.583 29.158 0 9.739 3.794 18.892 10.677 25.783l13.793 13.795 13.792-13.795c6.884-6.882 10.677-16.044 10.677-25.783 0-11.41-5.448-22.307-14.583-29.158zM249.569 61.28v17.813h16.313V61.279c9.47-3.376 16.313-12.348 16.313-22.969 0-13.49-10.979-24.469-24.469-24.469S233.257 24.82 233.257 38.31c0 10.621 6.843 19.592 16.313 22.969Zm8.156-31.125c4.494 0 8.156 3.661 8.156 8.156s-3.663 8.156-8.156 8.156c-4.495 0-8.156-3.661-8.156-8.156s3.661-8.156 8.156-8.156ZM214.39 184.918l-59.062-42.952c-13.759 19.788-21.883 43.774-21.883 69.649 0 1.467.172 2.895.221 4.355zm-36.488-46.711 39.468 28.701a96.8 96.8 0 0 1 11.419-28.701zm42.821-43.758c-18.066 5.424-34.314 14.959-47.82 27.447h61.541zm67.435-1.069a130.2 130.2 0 0 0-32.364-4.111c-6.353 0-12.543.635-18.637 1.573l11.696 23.392c11.183-9.722 24.535-17.021 39.305-20.854ZM162.379 222.399l60.889 4.346c-3.458-7.854-5.841-16.255-7.12-25.032zm191.292 62.624h-41.295c-2.308 0-4.576-.187-6.843-.35l15.211 30.424c12.585-7.88 23.849-17.97 32.926-30.074Zm-117.282 47.251c6.336 1.013 12.788 1.689 19.403 1.689 17.618 0 34.804-4.03 50.539-11.192l-20.146-40.293zm-100.292-95.398c8.499 40.317 36.925 73.303 74.443 88.311l18.842-81.646zm107.134 19.24-13.875 60.131 40.922-40.922c-10.09-4.87-19.258-11.338-27.048-19.208zm-75.427 140.158-1.73-1.297v48.938h-16.313v-48.938l-1.729 1.297c-9.135 6.851-14.583 17.748-14.583 29.158 0 9.739 3.793 18.892 10.676 25.783l13.793 13.795 13.792-13.795c6.884-6.882 10.677-16.044 10.677-25.783 0-11.41-5.448-22.307-14.583-29.158zm97.878 32.741-1.73-1.297v48.94h-16.313v-48.94l-1.73 1.297c-9.135 6.851-14.583 17.748-14.583 29.159 0 9.739 3.793 18.892 10.677 25.783l13.792 13.793 13.793-13.793c6.883-6.882 10.676-16.044 10.676-25.783 0-11.411-5.448-22.308-14.583-29.159Zm39.051-298.964c0 9.008-7.303 16.313-16.313 16.313s-16.313-7.304-16.313-16.313c0-9.01 7.303-16.313 16.313-16.313s16.313 7.303 16.313 16.313m-16.313 81.564 24.469-32.626-9.934-19.87c-4.397 2.203-9.282 3.557-14.535 3.557s-10.138-1.354-14.536-3.557l-9.933 19.87z"/>
</svg>
