<svg xmlns="http://www.w3.org/2000/svg" xml:space="preserve" width="512" height="512" fill-rule="evenodd" stroke-linejoin="round" stroke-miterlimit="2" clip-rule="evenodd" viewBox="0 0 512 512">
  <path fill="#ccc" stroke="#000" stroke-width="1.203" d="M10.456 57.76v-1.51H112.68v1.51c0 6.803-5.544 12.367-12.324 12.367H22.785c-6.786 0-12.33-5.557-12.33-12.367zm78-24.604a10.95 10.95 0 0 0 4.141 8.593h13.548a10.94 10.94 0 0 0 4.141-8.593 10.93 10.93 0 0 0-1.664-5.809l-18.506-.006a11 11 0 0 0-1.662 5.815zm20.156-7.804 2.011-5.884H88.13l2.039 5.884zm-6.199-7.857h.712a9.64 9.64 0 0 0 3.897-2.413c2.16-2.167 3.105-5.049 2.786-7.666-1.737-.217-3.572.131-5.253 1.012.114.674.177 1.36.177 2.047-.012 2.527-.798 5.025-2.319 7.021Zm-6.768 0h.712c-1.515-1.989-2.319-4.494-2.319-7.027 0-.686.058-1.378.177-2.047-1.675-.891-3.532-1.229-5.253-1.012-.319 2.619.615 5.488 2.786 7.668a9.8 9.8 0 0 0 3.897 2.418Zm3.298 0h.889c1.823-1.64 2.991-4.173 2.991-7.027 0-3.076-1.356-5.781-3.44-7.393-2.074 1.612-3.442 4.317-3.442 7.393.011 2.853 1.18 5.386 3.002 7.027Z" transform="matrix(4.16667 0 0 4.3218 0 -.408)"/>
  <path fill="#ccc" stroke="#000" stroke-width="1.203" d="M16.044 41.743c2.057 0 3.72-2.167 3.72-4.803 0-2.647-1.675-4.803-3.72-4.803-2.057 0-3.72 2.167-3.72 4.803-.011 2.653 1.664 4.803 3.72 4.803Z" transform="matrix(4.16667 0 0 4.3218 -.692 -.783)"/>
  <path fill="#ccc" stroke="#000" stroke-width="1.203" d="M23.496 41.743c2.057 0 3.72-2.167 3.72-4.803 0-2.647-1.675-4.803-3.72-4.803-2.057 0-3.72 2.167-3.72 4.803-.011 2.653 1.664 4.803 3.72 4.803Z" transform="matrix(4.16667 0 0 4.3218 7.625 -.783)"/>
  <path fill="#ccc" stroke="#000" stroke-width="1.203" d="M34.667 36.94c0-2.647-1.675-4.803-3.72-4.803-2.057 0-3.72 2.167-3.72 4.803-.011 2.653 1.664 4.803 3.72 4.803s3.72-2.15 3.72-4.803Z" transform="matrix(4.16667 0 0 4.3218 15.95 -.783)"/>
  <path fill="#ccc" stroke="#000" stroke-width="1.203" d="M34.667 36.94c0 2.647 1.675 4.803 3.72 4.803 2.057 0 3.72-2.167 3.72-4.803 0-2.647-1.675-4.803-3.72-4.803-2.057 0-3.72 2.15-3.72 4.803Z" transform="matrix(4.16667 0 0 4.3218 24.308 -.783)"/>
  <path fill="#ccc" stroke="#000" stroke-width="1.203" d="M34.667 27.226c2.057 0 3.72-2.167 3.72-4.803 0-2.647-1.675-4.802-3.72-4.802-2.057 0-3.72 2.167-3.72 4.802s1.681 4.803 3.72 4.803Z" transform="matrix(4.16667 0 0 4.3218 20.142 11.42)"/>
  <path fill="#ccc" stroke="#000" stroke-width="1.203" d="M23.483 22.422c0-2.647-1.675-4.802-3.72-4.802-2.057 0-3.719 2.167-3.719 4.802s1.675 4.803 3.719 4.803c2.058 0 3.72-2.15 3.72-4.803Z" transform="matrix(4.16667 0 0 4.3218 3.475 11.42)"/>
  <path fill="#ccc" stroke="#000" stroke-width="1.203" d="M23.483 22.422c0 2.647 1.675 4.803 3.72 4.803 2.057 0 3.72-2.167 3.72-4.803 0-2.647-1.675-4.802-3.72-4.802-2.057 0-3.72 2.15-3.72 4.802Z" transform="matrix(4.16667 0 0 4.3218 11.85 11.42)"/>
  <path fill="#ccc" stroke="#000" stroke-width="1.203" d="M30.947 12.691c2.057 0 3.72-2.167 3.72-4.802s-1.675-4.803-3.72-4.803c-2.057 0-3.72 2.167-3.72 4.803 0 2.635 1.664 4.802 3.72 4.802Z" transform="matrix(4.16667 0 0 4.3218 15.958 23.688)"/>
  <path fill="#ccc" stroke="#000" stroke-width="1.203" d="M23.496 12.691c2.057 0 3.72-2.167 3.72-4.802s-1.675-4.803-3.72-4.803c-2.057 0-3.72 2.167-3.72 4.803 0 2.635 1.664 4.802 3.72 4.802Z" transform="matrix(4.16667 0 0 4.3218 7.625 23.688)"/>
  <path fill="#ccc" stroke="#000" stroke-width="1.203" d="M61.564 16.728c2.273-1.595 3.719-4.054 3.719-6.822s-1.457-5.237-3.719-6.821c-2.274 1.595-3.72 4.053-3.72 6.821s1.459 5.227 3.72 6.822Zm-5.179 3.224h10.369v21.796H56.385zM9.013 52.589h104.73a3.585 3.585 0 0 0 3.572-3.585 3.585 3.585 0 0 0-3.572-3.585H9.013a3.585 3.585 0 0 0-3.573 3.585c.012 1.961 1.618 3.585 3.573 3.585Z" transform="matrix(4.16667 0 0 4.3218 0 -.408)"/>
  <path fill="#ccc" stroke="#000" stroke-width="1.24" d="M108.815 73.48c-2.655 3.179-6.051 7.302-8.768 10.332.673.6 1.077 1.744 1.15 2.384.656 5.957-8.5 10.743-13.183 13.201-.598.308-1.122.583-1.412.749a1.88 1.88 0 0 1-2.581-.761 1.895 1.895 0 0 1 .758-2.589c.495-.28.963-.514 1.487-.789 3.896-2.036 11.537-6.032 11.172-9.399-.074-.647-.308-1.276-.747-1.915-1.225-1.801-3.47-2.214-6.825-.32-5.337 3.03-10.357 5.374-16.025 7.901-8.295 4.054-12.454 14.488-12.454 27.411h18.071c3.356-8.828 6.854-9.411 12.061-12.545 2.421-1.446 5.469-2.578 8.574-6.924a15902 15902 0 0 0 16.567-23.288c1.271-1.886 2.609-4.202 3.066-5.357-.513-3.814-4.827-5.352-10.91 1.909Z" transform="matrix(4.03913 0 0 4.237 12.392 -6.88)"/>
  <path fill="#ccc" stroke="#000" stroke-width="1.24" d="M48.962 92.274c-5.675-2.533-10.688-4.872-16.027-7.902-3.356-1.903-5.6-1.492-6.824.32-.44.646-.673 1.287-.747 1.915-.365 3.368 7.264 7.364 11.172 9.4.524.28.991.514 1.487.788a1.93 1.93 0 0 1 .758 2.591 1.915 1.915 0 0 1-2.581.76c-.29-.16-.814-.44-1.413-.749-4.683-2.447-13.838-7.244-13.183-13.201.075-.674.513-1.858 1.139-2.402-2.711-3.03-6.112-7.158-8.751-10.32-6.084-7.261-10.414-5.723-10.909-1.875.449 1.154 1.794 3.47 3.065 5.357a15902 15902 0 0 1 16.567 23.289c3.122 4.333 6.153 5.46 8.574 6.924 5.207 3.133 8.694 3.706 12.061 12.543l18.037.006c0-12.956-4.16-23.39-12.426-27.444z" transform="matrix(4.03913 0 0 4.237 .275 -6.88)"/>
</svg>
