<svg xmlns="http://www.w3.org/2000/svg" xml:space="preserve" width="512" height="512" fill-rule="evenodd" stroke-linejoin="round" stroke-miterlimit="2" clip-rule="evenodd" viewBox="0 0 512 512">
  <path fill="#ccc" fill-rule="nonzero" stroke="#000" stroke-width="5.12" d="m418 239.833-45.615 79.024L418 397.879c11.589-23.864 18.137-50.659 18.137-79.022 0-28.296-6.545-55.158-18.137-79.024Zm-104.318-22.567h91.158a179.99 179.99 0 0 0-136.363-78.273zm-99.136 0h82.5l-41.251-71.387zm-107.796 0h91.159l45.205-78.273a180 180 0 0 0-136.364 78.273Zm32.455 101.591-45.613-79.024c-11.591 23.864-18.137 50.729-18.137 79.024 0 28.364 6.544 55.157 18.137 79.022zm50.318 87.136-41.932-72.682-41.999 72.682zm53.591 92.807-45.272-78.341H106.75c31.09 45.545 81.135 74.522 136.363 78.341Zm70.636-78.352-45.272 78.341c55.226-3.819 105.341-32.795 136.363-78.341zm29.659-51.41-21.341 36.955H406l-41.999-72.682zm-187.5-50.181 24.202 45.68c-4.909-10.908-11.246-32.998-11.246-45.68 0-12.545 7.775-34.777 12.546-45.551zm33.614-87.068h-83.932l41.999 72.613zm115.841 0h-99.136l-24.817 41.517c16.296-22.501 46.295-41.314 74.181-41.38 28.091 0 58.087 23.59 74.52 46.361l-24.747-46.5zM364 304.471l41.999-72.682h-83.931z"/>
  <path fill="#ccc" fill-rule="nonzero" stroke="#000" stroke-width="5.12" d="m330.042 359.495 25.639-40.638-25.571-40.57c4.841 10.839 12.616 27.956 12.616 40.57 0 12.681-7.776 29.798-12.685 40.638Zm-24.612 46.497 24.612-46.497c-16.364 22.636-46.226 46.361-74.249 46.361-28.091 0-59.318-18.616-75.684-41.32l26.117 41.457zm-49.636 85.931 41.251-71.454h-82.5zm-65.522-142.044 58.296-34.772v-68.318c-37.024 3.682-65.25 34.841-65.25 72.068a72.7 72.7 0 0 0 6.953 31.024z"/>
  <path fill="#ccc" fill-rule="nonzero" stroke="#000" stroke-width="5.12" d="m313.749 362.356-58.091-34.703-57.954 34.568c13.636 18.341 35.182 29.113 58.091 29.113s44.249-10.704 57.954-28.978Zm-50.727-47.045 58.227 34.703c4.501-9.408 7.023-19.977 7.023-31.158 0-37.227-28.228-68.387-65.25-72.068zm28.022-238.159h-70.5v50.045a197.4 197.4 0 0 1 70.5 0z"/>
  <path fill="#ccc" stroke="#000" stroke-width="5.12" d="M220.544 12.789h70.5v16.227h-70.5z"/>
  <path fill="#ccc" fill-rule="nonzero" stroke="#000" stroke-width="5.12" d="M199.476 43.538c-5.248 0-9.614 4.295-9.614 9.546 0 5.249 4.364 9.546 9.614 9.546h112.636c5.249 0 9.615-4.229 9.615-9.546 0-5.249-4.295-9.546-9.615-9.546z"/>
</svg>
