<svg xmlns="http://www.w3.org/2000/svg" xml:space="preserve" width="512" height="512" fill-rule="evenodd" stroke-linejoin="round" stroke-miterlimit="2" clip-rule="evenodd" viewBox="0 0 512 512">
  <path fill="#ccc" stroke="#000" stroke-width="5.12" d="m122.259 306.011.937-5.864c-36.805-11.514-64.921-30.039-64.921-58.075 0-31.039 34.25-50.564 77.699-61.579-2.555 9.512-4.089 19.526-4.089 30.039 0 7.01.512 14.019 2.046 20.527-12.268 4.005-20.448 8.01-24.537 11.514 12.778 10.013 62.363 28.037 146.196 28.037 83.835 0 133.42-17.523 146.199-27.037-4.089-3.503-12.268-7.509-24.537-11.513 1.534-6.509 2.046-13.517 2.046-20.527 0-10.514-1.023-20.525-4.09-30.039 43.45 11.015 77.7 30.039 77.7 61.579 0 28.036-28.116 46.559-64.921 58.075l.835 5.196c-5.433 2.75-10.962 7.525-13.922 9.733-5.205 3.877-16.562 10.089-13.27 17.737 1.289 1.667 2.531 3.432 4.439 4.439 7.309 2.064 14.839-6.458 20.632-10.99a270 270 0 0 1 4.87-3.823l22.487 139.917c1.534 10.513-5.622 20.527-16.357 22.528a535 535 0 0 1-14.458 2.658c-.706-.39-1.351-.75-1.909-1.076-5.192-3.027-15.608-11.282-21.384-6.138a9.65 9.65 0 0 0-.758 10.8 679 679 0 0 1-14.795 1.748c-2.739-1.612-5.576-3.02-7.777-4.362-5.646-3.213-11.081-7.093-16.708-10.233-3.291-.97-6.289 1.147-8.02 4.024-2.663 4.43 1.007 9.043 5.892 12.939-20.298 1.45-41.155 2.156-62.194 2.156a839 839 0 0 1-60.784-2.205c4.84-3.85 8.522-8.441 5.843-12.89-1.956-3.252-5.134-5.323-8.776-3.573-5.549 3.326-11.029 6.868-16.61 10.181-2.001 1.222-4.496 2.489-6.943 3.911a764 764 0 0 1-14.55-1.688c.939-1.201 1.578-2.569 1.772-4.164-2.186-15.65-17.604-4.981-25.003-.113a76 76 0 0 1-1.326.758 653 653 0 0 1-15.73-2.733c-10.735-2.001-17.891-12.015-16.357-22.528l22.432-140.433c2.033 1.608 4.055 3.233 6.128 4.82 5.734 4.483 12.995 12.637 20.139 10.488a14 14 0 0 0 4.699-5.503c1.863-7.328-9.234-13.38-14.264-17.108-3.012-2.232-8.59-7.024-14.001-9.61Zm34.681 6.353c-4.176 6.072.678 7.518 4.629 11.295 3.529 3.082 7.033 6.192 10.553 9.286 7.024 6.496 17.193 18.543 24.281 5.935 2.259-7.258-10.271-15.122-14.703-18.805-6.111-4.403-18.57-17.891-24.76-7.711Zm213.59 57.37c4.304-2.934 13.011-7.341 14.478-13.075.469-4.797-3.686-8.983-8.381-9.125-5.849.705-11.762 6.523-16.661 10.026-5.389 4.094-11.282 7.721-16.59 11.869-2.172 2.407-1.121 5.154.415 7.757 5.524 9.344 20.818-3.416 26.739-7.453Zm6.995 96.029c4.64-8.824-13.071-15.822-19.032-18.872-6.2-3.176-20.408-12.987-23.842-2.699-3.66 11.404 22.485 18.772 30.768 23.793 6.218 3.653 8.175 4.881 12.106-2.222Zm-72.024-23.658a140 140 0 0 1-2.539 17.177c5.54 3.245 11.07 6.517 16.636 9.721 2.917 2.038 5.314 3.303 7.888-.141 8.956-7.986-3.519-15.286-9.841-19.296-3.939-2.673-8.007-5.121-12.143-7.46ZM209.26 382.59c4.453-3.351 4.152-9.15.496-13.145-6.145-4.197-26.881-23.192-33.26-14.848-2.618 3.229-3.667 7.125-.205 9.859 7.14 5.56 14.462 10.519 21.553 16.191 3.389 1.812 7.779 3.368 11.416 1.942Zm19.993-44.607c-5.722 10.413-6.223 21.373-6.063 32.569 3.585.048 7.161.126 10.753.048-1.051-16.219 4.231-41.236 25.309-38.45 13.753 2.3 16.933 16.763 17.32 30.575 3.309-1.357 6.685-2.591 10.028-3.814-.866-16.433-5.336-33.048-21.84-37.038-14.427-3.488-28.466 3.304-35.506 16.11Zm100.234-17.412c-4.141 3.458-15.156 10.441-14.358 17.224 6.413 14.669 17.83 1.462 25.11-5.355 3.489-3.076 6.969-6.156 10.473-9.214 3.839-3.33 7.971-5.429 4.124-10.859-6.258-10.283-19.203 3.76-25.35 8.203ZM141.694 470.549c6.327-2.63 12.418-6.145 18.711-8.937 6.453-3.099 16.348-5.859 18.153-12.67a13.42 13.42 0 0 0-3.677-8.143c-5.896-3.402-15.658 3.442-20.826 6.089-5.972 3.06-23.676 10.041-19.031 18.874 1.416 2.69 3.542 5.557 6.671 4.787Zm51.254-1.545c5.331-3.084 10.639-6.21 15.952-9.325-1.602-5.399-2.183-11.36-2.829-17.022-3.803 2.173-7.541 4.447-11.169 6.91-4.267 2.896-10.842 6.495-12.712 11.602-1.254 3.421 1.122 5.978 3.402 8.23 2.672 2.637 4.472 1.274 7.356-.394Zm105.635-46.613-.002-.009c.582-8.185 2.046-17.332 1.149-25.499a11.54 11.54 0 0 0-9.484-10.198 4.4 4.4 0 0 1-1.244-.079c-22.451.483-45.063-.629-67.471.381a3.4 3.4 0 0 1-1.257.259c-8.039 1.672-9.049 9.969-8.165 17.052a528 528 0 0 0 2.316 34.133c1.782 37.306 14.643 35.344 46.895 34.256 4.964.359 9.949.339 14.909-.061a119 119 0 0 0 12.774-4.957c4.203-3.912 6.542-10.481 7.329-21.234a526 526 0 0 0 2.251-24.044Zm-135.881-57.035c-3.846-2.74-7.673-5.507-11.517-8.25-6.784-4.861-16.138-14.688-23.197-6.37-5.878 8.815 8.139 15.522 13.896 19.424 5.884 3.989 20.659 16.239 26.105 7.019 4.159-6.239-.452-8.692-5.287-11.824Zm138.617 15.264c1.734 2.732 5.459 4.474 8.568 3.385 8.963-7.965 17.67-12.746 26.521-20.244 2.621-2.652.998-6.476-1.126-9.166-6.216-8.547-27.891 11.212-33.953 15.396-1.546 3.466-2.496 6.835-.01 10.629Z"/>
  <path fill="#ccc" fill-rule="nonzero" stroke="#000" stroke-width="5.12" d="M152.257 233.611c28.247 6.802 63.84 10.466 102.824 10.466 38.982 0 75.14-4.186 103.387-10.466 2.826-8.372 4.52-16.745 4.52-26.165 0-18.838-6.213-36.108-17.512-50.759 9.039-16.223 12.993-38.724 12.993-60.703 0-40.293-14.122-83.203-44.066-83.203-30.508 0-44.066 42.91-44.066 83.203 0 6.279.564 12.559 1.13 18.838-5.086-.522-10.735-1.569-15.82-1.569-5.649 0-10.734.523-15.818 1.569.565-6.279 1.13-12.559 1.13-18.838 0-40.293-14.124-83.203-44.066-83.203-30.508 0-44.068 42.91-44.068 83.203 0 21.979 4.52 44.48 12.994 60.703-10.734 14.652-17.514 31.921-17.514 51.282-.565 8.897 1.131 17.269 3.955 25.642Zm137.286-63.843c10.734 0 19.209 7.849 19.209 17.794 0 9.942-8.476 17.791-19.209 17.791s-19.208-7.849-19.208-17.791c.564-9.944 9.039-17.794 19.208-17.794Zm-68.926 0c10.735 0 19.209 7.849 19.209 17.794 0 9.942-8.474 17.791-19.209 17.791s-19.208-7.849-19.208-17.791c0-9.944 8.474-17.794 19.208-17.794Zm39.102 235.955c-16.637-4.148-26.474 21.573-8.97 26.957q0 9.119.625 18.223c.28 4.107 6.057 7.813 9.201 3.811 3.278-4.173 2.301-8.409 2.237-13.521a167 167 0 0 1 .156-9.362c11.237-5.045 8.512-23.201-3.249-26.107z"/>
</svg>
