<?xml version="1.0" encoding="UTF-8" standalone="no"?><!DOCTYPE svg PUBLIC "-//W3C//DTD SVG 1.1//EN" "http://www.w3.org/Graphics/SVG/1.1/DTD/svg11.dtd"><svg width="100%" height="100%" viewBox="0 0 417 417" version="1.1" xmlns="http://www.w3.org/2000/svg" xmlns:xlink="http://www.w3.org/1999/xlink" xml:space="preserve" xmlns:serif="http://www.serif.com/" style="fill-rule:evenodd;clip-rule:evenodd;stroke-linejoin:round;stroke-miterlimit:2;"><path d="M29.664,149.901c-8.095,-27.604 7.721,-56.541 35.321,-64.635c27.604,-8.096 56.542,7.721 64.636,35.321c8.096,27.604 -7.721,56.541 -35.321,64.635c-27.6,8.095 -56.541,-7.72 -64.636,-35.321Zm43.085,-15.737c-2.265,-2.054 -5.398,-4.891 -8.405,-8.213c-0.488,-0.408 -0.982,-0.819 -1.488,-1.226c-5.275,-4.215 -11.312,-7.655 -17.203,-7.517c-2.936,0.071 -5.057,0.953 -6.485,2.228c-1.433,1.271 -2.248,2.995 -2.462,4.886c-0.43,3.804 1.594,8.203 5.829,10.457l1.606,0.858l-1.546,0.961c-4.136,2.585 -5.952,7.126 -5.342,10.907c0.304,1.882 1.196,3.561 2.684,4.757c1.485,1.198 3.645,1.975 6.583,1.909c5.904,-0.138 11.783,-3.751 16.848,-8.081c0.462,-0.396 0.917,-0.799 1.364,-1.199c2.762,-3.242 5.649,-6.068 7.787,-8.167c0.54,-0.528 1.032,-1.011 1.462,-1.441c-0.374,-0.342 -0.788,-0.715 -1.232,-1.119Zm16.251,-14.281c0.397,-0.468 0.794,-0.949 1.185,-1.437c4.212,-5.269 7.652,-11.306 7.518,-17.198c-0.071,-2.937 -0.957,-5.056 -2.224,-6.487c-1.275,-1.432 -2.999,-2.246 -4.89,-2.46c-3.804,-0.431 -8.204,1.594 -10.458,5.824l-0.857,1.61l-0.961,-1.546c-2.586,-4.139 -7.126,-5.952 -10.911,-5.341c-1.879,0.299 -3.557,1.195 -4.754,2.684c-1.197,1.484 -1.974,3.645 -1.904,6.581c0.138,5.904 3.746,11.78 8.076,16.845c0.383,0.448 0.768,0.887 1.159,1.319c3.254,2.772 6.092,5.669 8.193,7.814c0.537,0.542 1.021,1.038 1.452,1.472c0.343,-0.37 0.72,-0.788 1.131,-1.239c2.056,-2.27 4.91,-5.422 8.245,-8.441Zm-9.304,21.041c-0.342,0.374 -0.72,0.788 -1.127,1.238c-2.04,2.252 -4.86,5.368 -8.159,8.363c-0.424,0.493 -0.84,1.002 -1.253,1.518c-4.216,5.27 -7.66,11.309 -7.521,17.203c0.071,2.937 0.953,5.053 2.223,6.483c1.275,1.432 2.999,2.247 4.89,2.461c3.804,0.43 8.204,-1.594 10.459,-5.825l0.857,-1.606l0.96,1.542c2.587,4.139 7.126,5.952 10.912,5.345c1.878,-0.303 3.558,-1.195 4.754,-2.684c1.196,-1.488 1.975,-3.644 1.903,-6.585c-0.138,-5.904 -3.746,-11.78 -8.076,-16.845c-0.37,-0.434 -0.746,-0.858 -1.121,-1.278c-3.279,-2.786 -6.137,-5.704 -8.249,-7.859c-0.533,-0.542 -1.017,-1.039 -1.452,-1.471Zm15.335,3.652c0.468,0.397 0.949,0.794 1.437,1.185c5.269,4.212 11.308,7.656 17.202,7.517c2.937,-0.071 5.053,-0.952 6.483,-2.223c1.432,-1.275 2.247,-2.999 2.461,-4.89c0.43,-3.804 -1.594,-8.204 -5.825,-10.458l-1.606,-0.858l1.542,-0.96c4.139,-2.586 5.952,-7.126 5.345,-10.912c-0.303,-1.878 -1.199,-3.556 -2.688,-4.753c-1.484,-1.197 -3.64,-1.976 -6.581,-1.904c-5.904,0.138 -11.78,3.746 -16.845,8.076c-0.434,0.37 -0.858,0.746 -1.278,1.121c-2.786,3.279 -5.7,6.136 -7.859,8.249c-0.54,0.528 -1.032,1.011 -1.462,1.441c0.37,0.343 0.784,0.717 1.233,1.124c2.276,2.059 5.422,4.91 8.441,8.245Z" style="fill:#ccc;stroke:#000;stroke-width:4.17px;"/><path d="M164.85,351.963c-35.804,-16.488 -60.683,-52.696 -60.683,-94.671c-0,-57.492 46.675,-104.167 104.166,-104.167c57.492,-0 104.167,46.675 104.167,104.167c0,41.975 -24.879,78.183 -60.683,94.671l-86.967,-0Zm39.988,-181.867l-16.117,49.608c-1.479,4.542 -5.713,7.621 -10.492,7.621l-52.162,-0c-3.563,-0 -5.042,4.558 -2.163,6.65l42.2,30.658c3.867,2.809 5.488,7.788 4.008,12.334l-16.12,49.608c-1.1,3.387 2.779,6.204 5.658,4.108l42.2,-30.658c3.867,-2.808 9.1,-2.808 12.967,0l42.2,30.658c2.879,2.096 6.758,-0.721 5.654,-4.108l-16.117,-49.608c-1.475,-4.546 0.142,-9.525 4.008,-12.334l42.2,-30.658c2.88,-2.096 1.4,-6.65 -2.162,-6.65l-52.163,-0c-4.775,-0 -9.012,-3.079 -10.487,-7.621l-16.117,-49.608c-1.104,-3.388 -5.896,-3.388 -6.996,-0Z" style="fill:#ccc;stroke:#000;stroke-width:4.17px;stroke-linecap:round;stroke-miterlimit:1.5;"/><path d="M231.501,15.268c28.746,-0 52.083,23.337 52.083,52.083c0,28.746 -23.337,52.084 -52.083,52.084c-28.746,-0 -52.083,-23.338 -52.083,-52.084c-0,-28.746 23.337,-52.083 52.083,-52.083Zm-15.242,70.267l-4.358,-15.242l-21.775,-0l-4.354,15.242l30.487,-0Zm30.488,-0l30.487,-0l-4.354,-15.242l-21.779,-0l-4.354,15.242Zm-30.488,-0l30.488,-0l-4.359,-15.242l-21.775,-0l-4.354,15.242Zm15.242,-17.784l30.487,0l-4.354,-15.246l-21.779,0l-4.354,15.246Zm-0,0l-4.354,-15.246l-21.779,0l-4.355,15.246l30.488,0Zm-10.888,-33.029l-4.358,15.246l30.488,-0l-4.355,-15.246l-21.775,0Z" style="fill:#ccc;stroke:#000;stroke-width:4.17px;stroke-linecap:round;stroke-miterlimit:1.5;"/><path d="M156.863,360.296l107.845,-0c4.059,-0 7.355,3.292 7.355,7.354l-0,7.35l-122.55,0l-0,-7.35c-0,-4.062 3.291,-7.354 7.354,-7.354l-0.004,-0Z" style="fill:#ccc;stroke:#000;stroke-width:4.17px;"/><path d="M289.217,384.071l-156.863,-0c-4.062,-0 -7.354,3.292 -7.354,7.35l0,12.258l171.571,0l-0,-12.258c-0,-4.059 -3.292,-7.35 -7.354,-7.35Z" style="fill:#ccc;stroke:#000;stroke-width:4.17px;"/><path d="M349.008,99.129c28.746,0 52.084,23.338 52.084,52.084c-0,28.745 -23.338,52.083 -52.084,52.083c-28.745,-0 -52.083,-23.338 -52.083,-52.084c0,-28.745 23.338,-52.083 52.083,-52.083Zm-41.666,39.125c-0,10.738 5.991,21.604 13.908,31.404c7.875,9.754 17.388,18.134 23.95,23.909l0.017,0.016c1.183,1.038 2.275,2 3.241,2.867c1.155,-1.029 2.492,-2.187 3.955,-3.454l0.025,-0.021c6.762,-5.858 16.37,-14.183 24.291,-23.821c7.967,-9.692 13.946,-20.367 13.946,-30.9c0,-6.062 -1.854,-10.504 -4.65,-13.558c-2.812,-3.075 -6.721,-4.9 -11.054,-5.45c-8.738,-1.109 -18.821,3 -24.104,11.696l-1.646,2.708l-1.704,-2.671c-5.584,-8.737 -15.775,-12.842 -24.517,-11.733c-4.342,0.55 -8.233,2.371 -11.033,5.446c-2.784,3.054 -4.625,7.495 -4.625,13.562Z" style="fill:#ccc;stroke:#000;stroke-width:4.17px;stroke-linecap:round;stroke-miterlimit:1.5;"/></svg>