<?xml version="1.0" encoding="UTF-8" standalone="no"?><!DOCTYPE svg PUBLIC "-//W3C//DTD SVG 1.1//EN" "http://www.w3.org/Graphics/SVG/1.1/DTD/svg11.dtd"><svg width="100%" height="100%" viewBox="0 0 417 417" version="1.1" xmlns="http://www.w3.org/2000/svg" xmlns:xlink="http://www.w3.org/1999/xlink" xml:space="preserve" xmlns:serif="http://www.serif.com/" style="fill-rule:evenodd;clip-rule:evenodd;stroke-linejoin:round;stroke-miterlimit:2;"><g><g><path d="M340.441,195.333l-37.151,64.361l37.151,64.36c9.439,-19.436 14.772,-41.259 14.772,-64.36c-0,-23.046 -5.331,-44.924 -14.772,-64.361Z" style="fill:#ccc;fill-rule:nonzero;stroke:#000;stroke-width:4.16px;"/></g><g><path d="M255.479,176.953l74.244,-0c-25.267,-37.095 -66.137,-60.64 -111.061,-63.75l36.817,63.75Z" style="fill:#ccc;fill-rule:nonzero;stroke:#000;stroke-width:4.16px;"/></g><g><path d="M174.737,176.953l67.192,-0l-33.597,-58.141l-33.595,58.141Z" style="fill:#ccc;fill-rule:nonzero;stroke:#000;stroke-width:4.16px;"/></g><g><path d="M86.942,176.953l74.245,-0l36.817,-63.75c-44.924,3.11 -85.795,26.656 -111.062,63.75Z" style="fill:#ccc;fill-rule:nonzero;stroke:#000;stroke-width:4.16px;"/></g><g><path d="M113.375,259.694l-37.15,-64.361c-9.44,19.436 -14.772,41.316 -14.772,64.361c-0,23.101 5.33,44.923 14.772,64.36l37.15,-64.36Z" style="fill:#ccc;fill-rule:nonzero;stroke:#000;stroke-width:4.16px;"/></g><g><path d="M154.357,330.662l-34.152,-59.196l-34.206,59.196l68.358,0Z" style="fill:#ccc;fill-rule:nonzero;stroke:#000;stroke-width:4.16px;"/></g><g><path d="M198.004,406.249l-36.872,-63.805l-74.189,-0c25.321,37.094 66.081,60.695 111.061,63.805Z" style="fill:#ccc;fill-rule:nonzero;stroke:#000;stroke-width:4.16px;"/></g><g><path d="M255.534,342.435l-36.872,63.805c44.979,-3.11 85.795,-26.71 111.061,-63.805l-74.189,-0Z" style="fill:#ccc;fill-rule:nonzero;stroke:#000;stroke-width:4.16px;"/></g><g><path d="M279.69,300.564l-17.381,30.098l68.359,-0l-34.206,-59.196l-16.772,29.098Z" style="fill:#ccc;fill-rule:nonzero;stroke:#000;stroke-width:4.16px;"/></g><g><path d="M126.98,259.694l19.711,37.204c-3.998,-8.884 -9.159,-26.875 -9.159,-37.204c-0,-10.217 6.332,-28.324 10.218,-37.099l-20.77,37.099Z" style="fill:#ccc;fill-rule:nonzero;stroke:#000;stroke-width:4.16px;"/></g><g><path d="M154.357,188.781l-68.358,-0l34.206,59.14l34.152,-59.14Z" style="fill:#ccc;fill-rule:nonzero;stroke:#000;stroke-width:4.16px;"/></g><g><path d="M248.704,188.781l-80.742,-0l-20.212,33.814c13.272,-18.326 37.705,-33.648 60.417,-33.702c22.879,-0 47.309,19.213 60.693,37.759l-20.155,-37.872l-0.001,0.001Z" style="fill:#ccc;fill-rule:nonzero;stroke:#000;stroke-width:4.16px;"/></g><g><path d="M296.46,247.977l34.206,-59.196l-68.358,-0l34.152,59.196Z" style="fill:#ccc;fill-rule:nonzero;stroke:#000;stroke-width:4.16px;"/></g><g><path d="M268.804,292.792l20.882,-33.098l-20.826,-33.042c3.943,8.828 10.275,22.769 10.275,33.042c-0,10.328 -6.333,24.269 -10.331,33.098Z" style="fill:#ccc;fill-rule:nonzero;stroke:#000;stroke-width:4.16px;"/></g><g><path d="M248.759,330.662l20.045,-37.87c-13.328,18.436 -37.649,37.759 -60.472,37.759c-22.879,0 -48.312,-15.162 -61.641,-33.653l21.271,33.765l80.797,0l0,-0.001Z" style="fill:#ccc;fill-rule:nonzero;stroke:#000;stroke-width:4.16px;"/></g><g><path d="M208.333,400.649l33.597,-58.196l-67.192,0l33.595,58.196Z" style="fill:#ccc;fill-rule:nonzero;stroke:#000;stroke-width:4.16px;"/></g><g><path d="M154.968,284.96l47.479,-28.32l-0,-55.642c-30.154,2.999 -53.143,28.376 -53.143,58.696c-0,9.051 2.055,17.603 5.663,25.268l0.001,-0.002Z" style="fill:#ccc;fill-rule:nonzero;stroke:#000;stroke-width:4.16px;"/></g><g><path d="M255.534,295.122l-47.312,-28.264l-47.201,28.154c11.106,14.938 28.654,23.711 47.312,23.711c18.658,-0 36.039,-8.718 47.201,-23.601Z" style="fill:#ccc;fill-rule:nonzero;stroke:#000;stroke-width:4.16px;"/></g><g><path d="M214.219,256.806l47.423,28.264c3.666,-7.662 5.72,-16.27 5.72,-25.377c-0,-30.32 -22.99,-55.698 -53.143,-58.696l0,55.809Z" style="fill:#ccc;fill-rule:nonzero;stroke:#000;stroke-width:4.16px;"/></g><g><path d="M237.042,62.837l-57.419,-0l0,40.759c18.937,-3.444 38.483,-3.444 57.419,-0l0,-40.759Z" style="fill:#ccc;fill-rule:nonzero;stroke:#000;stroke-width:4.16px;"/></g><g><rect x="179.623" y="10.416" width="57.419" height="13.216" style="fill:#ccc;stroke:#000;stroke-width:4.16px;"/></g><g><path d="M162.464,35.46c-4.274,0 -7.83,3.498 -7.83,7.775c-0,4.275 3.554,7.775 7.83,7.775l91.737,-0c4.275,-0 7.831,-3.444 7.831,-7.775c0,-4.275 -3.498,-7.775 -7.831,-7.775l-91.737,0Z" style="fill:#ccc;fill-rule:nonzero;stroke:#000;stroke-width:4.16px;"/></g></g></svg>