<?xml version="1.0" encoding="UTF-8" standalone="no"?><!DOCTYPE svg PUBLIC "-//W3C//DTD SVG 1.1//EN" "http://www.w3.org/Graphics/SVG/1.1/DTD/svg11.dtd"><svg width="417px" height="417px" version="1.1" xmlns="http://www.w3.org/2000/svg" xmlns:xlink="http://www.w3.org/1999/xlink" xml:space="preserve" xmlns:serif="http://www.serif.com/" style="fill-rule:evenodd;clip-rule:evenodd;stroke-linejoin:round;stroke-miterlimit:2;"><g transform="matrix(4.16667,0,0,4.16667,0,0)"><g id="Sword-Tip" serif:id="Sword Tip" transform="matrix(0.0575374,0,0,0.0575374,1.26787,2.95872)"><path d="M1505.61,1432.26L1622.01,1551.06C1630.41,1559.51 1630.41,1573.36 1622.01,1581.82C1593.38,1610.44 1554.51,1626.55 1514.03,1626.55C1473.53,1626.55 1288.47,1464.24 1259.85,1435.62L1256.61,1432.26L1505.61,1432.26Z" style="fill:rgb(204,204,204);stroke:black;stroke-width:14.63px;"/></g><g transform="matrix(0.0575374,0,0,0.0575374,0,0)"><g transform="matrix(1,0,0,1,-12.7245,16.6625)"><path d="M1562.25,1410.56C1562.25,1421.4 1553.17,1432.26 1539.53,1432.26L195.299,1432.26C188.478,1432.26 181.662,1427.92 177.12,1421.4C172.578,1414.9 172.578,1408.38 174.857,1401.88L356.507,1039.46C517.737,1176.18 690.316,1245.63 867.424,1245.63C1094.49,1245.63 1273.86,1128.44 1380.58,1039.46L1559.97,1399.7C1559.97,1401.88 1562.25,1406.22 1562.25,1410.56L1562.25,1410.56Z" style="fill:rgb(204,204,204);fill-rule:nonzero;stroke:black;stroke-width:14.67px;"/></g><g transform="matrix(1,0,0,1,-12.7245,16.6625)"><path d="M655.594,850.301C650.726,868.401 648.125,887.433 648.125,907.079C648.125,1028.47 747.429,1126.38 867.404,1126.38C987.388,1126.38 1086.69,1028.47 1086.69,907.079C1088.77,785.683 989.467,687.779 867.404,687.779C848.904,687.779 830.896,690.107 813.668,694.489L940.967,821.788C964.403,841.128 974.979,874.374 974.979,907.079C974.979,965.825 927.396,1012.81 867.404,1012.81C834.723,1012.81 803.653,1000.93 784.024,978.731L655.594,850.301Z" style="fill:rgb(204,204,204);stroke:black;stroke-width:13.29px;"/></g><g transform="matrix(1,0,0,1,-12.7245,16.6625)"><path d="M515.295,710.002C376.936,786.27 293.107,881.533 287.729,887.879C280.938,896.417 280.938,907.079 287.729,913.488C468.746,1103.44 666.054,1199.48 867.425,1199.48C1206.85,1199.48 1437.2,924.154 1446.25,911.346C1455.3,902.808 1453.05,892.146 1446.25,883.613C1251.66,704.321 1066.55,614.692 867.425,614.692C824.916,614.692 784.104,618.81 745.213,626.035L775.309,656.13C803.518,647 834.283,642.118 866.979,642.118C1023.12,642.118 1135.22,753.413 1135.22,907.08C1137.47,1060.75 1025.39,1172.06 866.979,1172.06C710.863,1172.06 598.763,1060.75 598.763,907.08C598.763,872.259 604.519,839.613 615.239,809.946L515.295,710.002Z" style="fill:rgb(204,204,204);stroke:black;stroke-width:14.54px;"/></g><g transform="matrix(1,0,0,1,-12.7245,16.6625)"><path d="M665.264,411.569L844.729,56.387C846.987,47.704 860.613,43.367 867.429,43.367C876.517,43.367 878.792,47.704 883.333,56.388L1178.52,646.658C1067.25,592.404 978.692,566.363 867.429,566.363C813.038,566.363 756.39,572.847 702.839,583.661L638.932,519.753C638.932,519.753 680.782,472.502 682.134,470.157C687.756,460.407 687.382,452.435 687.776,444.601C688.56,428.979 678.205,417.348 665.264,411.569Z" style="fill:rgb(204,204,204);stroke:black;stroke-width:14.67px;"/></g></g><g transform="matrix(0.0575374,0,0,0.0575374,0,0)"><g id="Hilt" transform="matrix(1,0,0,1,-12.7245,16.6625)"><path d="M377.883,290.088L100.379,238.787C101.783,234.75 104.025,231.271 106.996,228.5L181.838,153.658C198.238,137.392 231.179,143.483 254.979,167.175L377.883,290.088ZM493.438,405.421L163.271,344.392L112.879,293.996C109.496,290.654 106.396,287.063 103.621,283.271L431.971,343.967L493.438,405.421ZM548.958,460.942L413.829,595.583L218.013,399.767L548.958,460.942Z" style="fill:rgb(204,204,204);stroke:black;stroke-width:14.63px;"/></g><g transform="matrix(1,0,0,1,-30.1045,-0.7175)"><path d="M838.414,998.544L534.93,683.155L654.684,563.401L955.562,870.85C960.361,882.081 963.021,894.333 963.021,907.08C963.021,958.975 918.918,1002.67 865.957,1002.67C856.328,1002.67 847.088,1001.22 838.414,998.544Z" style="fill:rgb(204,204,204);stroke:black;stroke-width:14.63px;"/></g></g><g id="Guard" transform="matrix(0.0575374,0,0,0.0575374,-0.732135,0.958717)"><path d="M660.542,464.575L422.567,702.954C413.875,711.596 400.304,712.275 392.454,704.463C388.579,700.683 386.55,695.329 386.808,689.625C387.121,683.925 389.704,678.333 393.975,674.146L631.725,435.983C635.937,431.75 641.525,429.192 647.213,428.908C658.925,428.317 668.088,437.483 667.5,449.208C667.217,454.842 664.712,460.363 660.542,464.575Z" style="fill:rgb(204,204,204);stroke:black;stroke-width:14.63px;"/></g></g></svg>