<svg xmlns="http://www.w3.org/2000/svg" xml:space="preserve" width="512" height="512" fill-rule="evenodd" stroke-linecap="round" stroke-linejoin="round" stroke-miterlimit="1.5" clip-rule="evenodd" viewBox="0 0 512 512">
  <path fill="#ccc" stroke="#000" stroke-width="5.12" d="M255.795 12.79c134.119 0 243.006 108.887 243.006 243.005 0 134.119-108.887 243.006-243.006 243.006S12.79 389.914 12.79 255.795 121.677 12.79 255.795 12.79m158.171 75.791c-41.258-39.045-96.939-63.002-158.171-63.002-127.059 0-230.216 103.156-230.216 230.216 0 61.232 23.957 116.913 63.002 158.171zM97.624 423.01c41.26 39.043 96.94 63.001 158.171 63.001 127.059 0 230.216-103.156 230.216-230.216 0-61.231-23.957-116.912-63.001-158.171z"/>
  <path fill="#ccc" stroke="#000" stroke-linecap="butt" stroke-miterlimit="2" stroke-width="5.12" d="M133.151 352.807H81.677c-6.749 0-12.925 2.667-17.523 6.995a223 223 0 0 0 24.801 37.202zm-18.563 69.83a224 224 0 0 0 6.537 5.174c34.018 12.784 79.504 22.211 134.468 22.211 55.398 0 101.167-9.576 135.271-22.514 25.37-19.415 46.448-44.163 61.552-72.564-4.602-4.458-10.853-7.227-17.699-7.251h-81.771a51.2 51.2 0 0 1 2.232 12.838c0 12.503-10.288 22.792-22.792 22.792h-30.791a22.73 22.73 0 0 1-20.373 12.745h-51.166a22.73 22.73 0 0 1-20.373-12.745h-30.839c-6.794 0-12.933-3.039-17.124-7.819zm123.318-123.318h43.223a22.69 22.69 0 0 1 20.373 12.791h25.72c-9.431-17.951-24.02-44.836-34.203-67.904zm-54.845 3.579a12.1 12.1 0 0 1-5.564 1.303 13.1 13.1 0 0 1-6.883-2.092l-.559-.325-.559-.465a18.4 18.4 0 0 1-2.047-2.14c-.53 7.028-.954 13.948-1.207 20.539zm129.59-129.59c4.092-5.903 6.898-12.41 6.898-19.996 0-16.374-64.096-102.33-76.747-102.33-8.419 0-12.698 14.605-12.837 25.583a124.6 124.6 0 0 0 4.976 31.07 12.77 12.77 0 0 1 7.879-2.729c4.954 0 9.48 2.888 11.564 7.38l4.326 8.699 8.977 1.395c6.224 1.071 10.816 6.522 10.816 12.834a13.02 13.02 0 0 1-3.374 8.748l-6.976 6.744 1.396 10.513a13.41 13.41 0 0 1-4.651 11.954 13.17 13.17 0 0 1-8.094 2.931 12.65 12.65 0 0 1-5.862-1.676l-7.954-4.651-7.906 4.651a14.3 14.3 0 0 1-6.14 1.583 12.9 12.9 0 0 1-8.234-2.977 10.8 10.8 0 0 1-2.232-2.604c-16.512 14.93-35.908 31.769-39.49 46.513-1.953 7.767-3.999 18.977-5.952 32.001l2.93-.465 4.652-8.93a12.76 12.76 0 0 1 11.417-7.085c4.838 0 9.27 2.749 11.42 7.085l4.372 8.93 9.023 1.396a12.9 12.9 0 0 1 10.31 8.929l14.893-14.893a13 13 0 0 1-.458-5.384l1.535-10.838-6.466-6.512a13.1 13.1 0 0 1-3.855-9.27c0-6.135 4.321-11.484 10.321-12.778l9.303-1.488 4.651-8.93a12.59 12.59 0 0 1 11.395-7.071 12.76 12.76 0 0 1 11.397 7.071l4.372 9.023 3.45.532z"/>
  <path fill="#ccc" stroke="#000" stroke-linecap="butt" stroke-miterlimit="2" stroke-width="5.12" d="m279.03 206.927-1.995-.312-6.094-13.441a2.84 2.84 0 0 0-2.465-1.536 2.74 2.74 0 0 0-2.464 1.536l-6.744 13.628-13.955 2.093a3.03 3.03 0 0 0-2.186 2.093 2.89 2.89 0 0 0 .651 2.976l10.187 9.907-1.363 9.485zm-72.185 72.186-.604-4.122 10.186-9.861a3.22 3.22 0 0 0 .605-3.024 2.85 2.85 0 0 0-2.14-2.046l-14.187-2.14-6.511-13.582a2.79 2.79 0 0 0-2.488-1.525 2.79 2.79 0 0 0-2.489 1.525l-6.698 13.582-11.025 1.675c-.325 2.93-.744 5.954-1.069 9.023l6.604 6.372-2.279 15.536a3.4 3.4 0 0 0 1.163 2.883 3.2 3.2 0 0 0 1.721.512 2.16 2.16 0 0 0 1.116-.232l12.977-7.303 4.98 2.863zm24.652-121.197c-1.627 1.767-3.535 3.536-5.442 5.35.005.841.4 1.633 1.071 2.139.465.405 1.06.619 1.674.605.404-.018.804-.13 1.164-.325l12.882-7.256 12.746 7.348a2.5 2.5 0 0 0 1.209.327 2.74 2.74 0 0 0 1.674-.605 3.17 3.17 0 0 0 1.117-2.791l-2.232-15.629 10.185-9.861a3.03 3.03 0 0 0 .652-2.976 2.98 2.98 0 0 0-2.186-2.001l-13.954-2.139-6.746-13.628a2.7 2.7 0 0 0-2.465-1.583 2.8 2.8 0 0 0-2.464 1.583l-1.907 3.952c.931 3.396 1.86 6.604 2.511 9.303.257.837.46 1.693.605 2.558q.71 2.877 1.071 5.815v2.232a23.28 23.28 0 0 1-7.304 13.303 55 55 0 0 1-3.86 4.279Zm-62.672 210.482c2.351 2.963 5.979 4.877 10.019 4.877h28.42v-43.316zm135.094-46.241v51.118h28.42c7.018 0 12.791-5.772 12.791-12.791a52.8 52.8 0 0 0-2.559-12.791 186 186 0 0 0-10.233-25.535zm-86.44-2.414a12.7 12.7 0 0 0-.215 2.321v51.211c.023 6.963 5.735 12.693 12.699 12.745h51.164c6.973-.025 12.698-5.772 12.698-12.745v-51.258c0-6.968-5.731-12.698-12.698-12.698h-51.164a12.3 12.3 0 0 0-2.273.214zm60.903 50.741h-45.583v-45.629h45.583z"/>
  <path fill="#ccc" stroke="#000" stroke-linecap="butt" stroke-miterlimit="2" stroke-width="5.12" d="M242.801 334.855h25.583v25.629h-25.583z"/>
</svg>
