<svg xmlns="http://www.w3.org/2000/svg" xml:space="preserve" width="512" height="512" fill-rule="evenodd" stroke-linejoin="round" stroke-miterlimit="2" clip-rule="evenodd" viewBox="0 0 512 512">
  <path fill="#ccc" stroke="#000" stroke-width="4.307" d="m449.693 436.752 34.265 34.971c2.472 2.488 2.472 6.565 0 9.055a45 45 0 0 1-31.787 13.167c-11.922 0-66.398-47.779-74.823-56.205l-.953-.988z"/>
  <path fill="#ccc" fill-rule="nonzero" stroke="#000" stroke-width="4.318" d="M456.133 420.131c0 3.191-2.673 6.388-6.688 6.388H53.744c-2.007 0-4.015-1.277-5.351-3.197-1.338-1.913-1.338-3.833-.667-5.746l53.471-106.685c47.463 40.245 98.265 60.69 150.399 60.69 66.842 0 119.642-34.497 151.058-60.691l52.806 106.044c0 .642.672 1.919.672 3.197Z"/>
  <path fill="#ccc" stroke="#000" stroke-width="3.912" d="M189.241 255.208a64.2 64.2 0 0 0-2.198 16.713c0 35.734 29.231 64.556 64.548 64.556 35.321 0 64.551-28.822 64.551-64.556.613-35.734-28.619-64.555-64.551-64.555a64 64 0 0 0-15.818 1.976l37.473 37.473c6.899 5.693 10.013 15.479 10.013 25.106 0 17.294-14.007 31.125-31.668 31.125-9.62 0-18.766-3.498-24.544-10.032z"/>
  <path fill="#ccc" stroke="#000" stroke-width="4.28" d="M147.941 213.908c-40.728 22.451-65.406 50.494-66.989 52.362-1.999 2.513-1.999 5.652 0 7.539 53.287 55.915 111.368 84.188 170.645 84.188 99.917 0 167.725-81.048 170.389-84.818 2.664-2.515 2.001-5.653 0-8.165-57.281-52.778-111.772-79.162-170.389-79.162a196.5 196.5 0 0 0-35.975 3.34l8.86 8.859c8.304-2.688 17.36-4.125 26.985-4.125 45.962 0 78.961 32.763 78.961 77.998.663 45.235-32.33 78.002-78.961 78.002-45.957 0-78.955-32.767-78.955-78.003 0-10.25 1.694-19.86 4.85-28.592z"/>
  <path fill="#ccc" stroke="#000" stroke-width="4.318" d="m192.087 126.059 52.829-104.555c.664-2.556 4.676-3.833 6.682-3.833 2.677 0 3.346 1.277 4.682 3.833l86.895 173.757c-32.754-15.97-58.825-23.635-91.577-23.635-16.011 0-32.686 1.908-48.45 5.092l-18.813-18.813s12.32-13.91 12.718-14.599c1.655-2.871 1.545-5.218 1.661-7.524.231-4.598-2.818-8.023-6.628-9.724Z"/>
  <path fill="#ccc" stroke="#000" stroke-width="4.307" d="M107.492 90.299 25.803 75.197a7.44 7.44 0 0 1 1.947-3.028l22.032-22.032c4.828-4.788 14.525-2.995 21.53 3.979zm34.015 33.949-97.192-17.963-14.833-14.836a26 26 0 0 1-2.726-3.158l96.656 17.867zm16.343 16.345-39.778 39.634-57.641-57.642zm80.091 153.137-89.336-92.841 35.251-35.251 88.57 90.502a27.1 27.1 0 0 1 2.197 10.665c0 15.277-12.983 28.139-28.573 28.139-2.835 0-5.555-.426-8.109-1.214Zm-47.243-152.066-70.052 70.171c-2.559 2.544-6.554 2.744-8.865.444-1.142-1.112-1.739-2.689-1.662-4.367.092-1.678.853-3.325 2.111-4.558l69.986-70.108c1.24-1.245 2.885-1.998 4.559-2.081 3.448-.174 6.145 2.523 5.972 5.976-.083 1.658-.82 3.283-2.048 4.523Z"/>
</svg>
