<?xml version="1.0" encoding="UTF-8" standalone="no"?><!DOCTYPE svg PUBLIC "-//W3C//DTD SVG 1.1//EN" "http://www.w3.org/Graphics/SVG/1.1/DTD/svg11.dtd"><svg width="417px" height="417px" version="1.1" xmlns="http://www.w3.org/2000/svg" xmlns:xlink="http://www.w3.org/1999/xlink" xml:space="preserve" xmlns:serif="http://www.serif.com/" style="fill-rule:evenodd;clip-rule:evenodd;stroke-linejoin:round;stroke-miterlimit:2;"><g transform="matrix(4.16667,0,0,4.16667,0,0)"><g transform="matrix(-0.341875,-4.18676e-17,4.18676e-17,-0.341875,183.055,139.13)"><path d="M274.763,265.351C274.763,272.692 280.708,278.637 288.049,278.637C295.39,278.637 301.335,272.692 301.335,265.351C301.335,258.03 295.416,252.099 288.102,252.072C284.042,256.105 279.679,259.859 274.975,263.273C274.863,263.957 274.763,264.64 274.763,265.351Z" style="fill:rgb(204,204,204);fill-rule:nonzero;stroke:black;stroke-width:4.17px;"/></g><g transform="matrix(-0.336681,-0.059366,0.059366,-0.336681,172.064,182.015)"><path d="M301.335,300.257C301.335,307.595 295.387,313.543 288.049,313.543C280.711,313.543 274.763,307.595 274.763,300.257C274.763,292.919 280.711,286.971 288.049,286.971C295.387,286.971 301.335,292.919 301.335,300.257" style="fill:rgb(204,204,204);fill-rule:nonzero;stroke:black;stroke-width:4.17px;"/></g><g transform="matrix(-0.321257,-0.116928,0.116928,-0.321257,55.3229,157.898)"><path d="M141.902,265.351C141.902,264.694 141.803,264.07 141.71,263.439C136.987,259.998 132.59,256.179 128.483,252.08C121.209,252.151 115.33,258.058 115.33,265.352C115.33,272.692 121.276,278.638 128.616,278.638C135.957,278.638 141.902,272.692 141.902,265.352L141.902,265.351Z" style="fill:rgb(204,204,204);fill-rule:nonzero;stroke:black;stroke-width:4.17px;"/></g><g transform="matrix(-0.296073,-0.170938,0.170938,-0.296073,32.4483,183.091)"><path d="M141.902,300.257C141.902,307.595 135.954,313.543 128.616,313.543C121.279,313.543 115.33,307.595 115.33,300.257C115.33,292.919 121.279,286.971 128.616,286.971C135.954,286.971 141.902,292.919 141.902,300.257" style="fill:rgb(204,204,204);fill-rule:nonzero;stroke:black;stroke-width:4.17px;"/></g><g transform="matrix(-0.261892,-0.219753,0.219753,-0.261892,44.2255,188.017)"><path d="M221.619,291.924C221.619,289.247 220.808,286.761 219.446,284.676C215.759,285.055 212.053,285.281 208.333,285.281C204.812,285.281 201.099,285.001 197.265,284.59C195.87,286.695 195.047,289.214 195.047,291.924C195.047,299.264 200.992,305.21 208.333,305.21C215.674,305.21 221.619,299.264 221.619,291.924Z" style="fill:rgb(204,204,204);fill-rule:nonzero;stroke:black;stroke-width:4.17px;"/></g><g transform="matrix(-0.219753,-0.261892,0.261892,-0.219753,15.582,206.807)"><path d="M221.619,326.829C221.619,334.167 215.671,340.115 208.333,340.115C200.995,340.115 195.047,334.167 195.047,326.829C195.047,319.491 200.995,313.543 208.333,313.543C215.671,313.543 221.619,319.491 221.619,326.829" style="fill:rgb(204,204,204);fill-rule:nonzero;stroke:black;stroke-width:4.17px;"/></g><g transform="matrix(-0.170938,-0.296073,0.296073,-0.170938,34.6081,223.748)"><path d="M296.102,322.745L294.693,321.689L294.693,361.547L281.407,361.547L281.407,321.689L279.998,322.745C272.558,328.325 268.121,337.2 268.121,346.493C268.121,354.425 271.211,361.88 276.817,367.492L288.051,378.727L299.284,367.492C304.891,361.887 307.98,354.425 307.98,346.493C307.98,337.2 303.543,328.325 296.103,322.745L296.102,322.745Z" style="fill:rgb(204,204,204);fill-rule:nonzero;stroke:black;stroke-width:4.17px;"/></g><g transform="matrix(-0.116928,-0.321257,0.321257,-0.116928,59.197,95.6426)"><path d="M203.262,49.909L203.262,64.417L216.548,64.417L216.548,49.909C224.261,47.159 229.834,39.852 229.834,31.202C229.834,20.215 220.892,11.273 209.905,11.273C198.917,11.273 189.976,20.215 189.976,31.202C189.976,39.852 195.549,47.159 203.262,49.909ZM209.905,24.559C213.565,24.559 216.548,27.541 216.548,31.202C216.548,34.863 213.565,37.845 209.905,37.845C206.244,37.845 203.262,34.863 203.262,31.202C203.262,27.541 206.244,24.559 209.905,24.559Z" style="fill:rgb(204,204,204);fill-rule:nonzero;stroke:black;stroke-width:4.17px;"/></g><g transform="matrix(-0.059366,-0.336681,0.336681,-0.059366,-28.9182,131.002)"><path d="M174.611,150.606L126.508,115.624C115.302,131.74 108.685,151.276 108.685,172.35C108.685,173.545 108.825,174.708 108.865,175.897L174.611,150.606Z" style="fill:rgb(204,204,204);fill-rule:nonzero;stroke:black;stroke-width:4.17px;"/></g><g transform="matrix(2.09338e-17,-0.341875,0.341875,2.09338e-17,-11.2488,91.4608)"><path d="M144.893,112.562L177.038,135.938C178.884,127.601 182.053,119.736 186.338,112.562L144.893,112.562Z" style="fill:rgb(204,204,204);fill-rule:nonzero;stroke:black;stroke-width:4.17px;"/></g><g transform="matrix(0.059366,-0.336681,0.336681,0.059366,23.095,81.0901)"><path d="M179.769,76.923C165.055,81.341 151.822,89.106 140.822,99.277L190.944,99.277L179.769,76.923Z" style="fill:rgb(204,204,204);fill-rule:nonzero;stroke:black;stroke-width:4.17px;"/></g><g transform="matrix(0.116928,-0.321257,0.321257,0.116928,24.6191,81.6907)"><path d="M234.692,76.052C226.09,73.84 217.209,72.704 208.333,72.704C203.159,72.704 198.117,73.221 193.154,73.985L202.68,93.037C211.788,85.119 222.663,79.174 234.692,76.052Z" style="fill:rgb(204,204,204);fill-rule:nonzero;stroke:black;stroke-width:4.17px;"/></g><g transform="matrix(0.170938,-0.296073,0.296073,0.170938,-38.2953,57.9045)"><path d="M132.251,181.132L181.842,184.672C179.026,178.275 177.085,171.433 176.043,164.285L132.251,181.132Z" style="fill:rgb(204,204,204);fill-rule:nonzero;stroke:black;stroke-width:4.17px;"/></g><g transform="matrix(0.219753,-0.261892,0.261892,0.219753,-47.531,55.5789)"><path d="M288.049,232.136L254.416,232.136C252.536,232.136 250.689,231.984 248.843,231.851L261.232,256.63C271.482,250.212 280.656,241.994 288.049,232.136Z" style="fill:rgb(204,204,204);fill-rule:nonzero;stroke:black;stroke-width:4.17px;"/></g><g transform="matrix(0.261892,-0.219753,0.219753,0.261892,-49.0378,34.0666)"><path d="M192.528,270.62C197.688,271.445 202.943,271.996 208.331,271.996C222.68,271.996 236.677,268.714 249.493,262.881L233.085,230.064L192.528,270.62Z" style="fill:rgb(204,204,204);fill-rule:nonzero;stroke:black;stroke-width:4.17px;"/></g><g transform="matrix(0.296073,-0.170938,0.170938,0.296073,-56.1222,16.7031)"><path d="M110.845,192.923C117.767,225.759 140.919,252.625 171.475,264.848L186.821,198.351L110.845,192.923Z" style="fill:rgb(204,204,204);fill-rule:nonzero;stroke:black;stroke-width:4.17px;"/></g><g transform="matrix(0.321257,-0.116928,0.116928,0.321257,-36.2604,-7.5324)"><path d="M198.101,208.593L186.8,257.568L220.129,224.239C211.911,220.273 204.444,215.005 198.1,208.595L198.101,208.593Z" style="fill:rgb(204,204,204);fill-rule:nonzero;stroke:black;stroke-width:4.17px;"/></g><g transform="matrix(0.336681,-0.059366,0.059366,0.336681,-32.0801,-30.3281)"><path d="M136.669,322.745L135.26,321.689L135.26,361.547L121.974,361.547L121.974,321.689L120.566,322.745C113.126,328.325 108.689,337.2 108.689,346.493C108.689,354.425 111.778,361.88 117.384,367.492L128.618,378.727L139.851,367.492C145.458,361.887 148.547,354.425 148.547,346.493C148.547,337.2 144.11,328.325 136.67,322.745L136.669,322.745Z" style="fill:rgb(204,204,204);fill-rule:nonzero;stroke:black;stroke-width:4.17px;"/></g><g transform="matrix(0.341875,0,0,0.341875,-2.1645,-53.3586)"><path d="M216.386,349.411L214.977,348.355L214.977,388.214L201.691,388.214L201.691,348.355L200.282,349.411C192.842,354.991 188.405,363.866 188.405,373.16C188.405,381.092 191.494,388.547 197.101,394.159L208.334,405.393L219.568,394.159C225.174,388.554 228.263,381.092 228.263,373.16C228.263,363.866 223.826,354.991 216.386,349.411Z" style="fill:rgb(204,204,204);fill-rule:nonzero;stroke:black;stroke-width:4.17px;"/></g><g transform="matrix(0.341875,0,0,0.341875,-17.9269,-21.2156)"><path d="M248.191,105.919C248.191,113.256 242.243,119.205 234.905,119.205C227.567,119.205 221.619,113.256 221.619,105.919C221.619,98.581 227.567,92.633 234.905,92.633C242.243,92.633 248.191,98.581 248.191,105.919" style="fill:rgb(204,204,204);fill-rule:nonzero;stroke:black;stroke-width:4.17px;"/></g><g transform="matrix(0.341875,0,0,0.341875,-1.00755,11.4388)"><path d="M234.905,172.349L254.834,145.777L246.743,129.594C243.162,131.388 239.183,132.491 234.905,132.491C230.627,132.491 226.648,131.388 223.066,129.594L214.976,145.777L234.905,172.349Z" style="fill:rgb(204,204,204);fill-rule:nonzero;stroke:black;stroke-width:4.17px;"/></g></g></svg>