<?xml version="1.0" encoding="UTF-8" standalone="no"?><!DOCTYPE svg PUBLIC "-//W3C//DTD SVG 1.1//EN" "http://www.w3.org/Graphics/SVG/1.1/DTD/svg11.dtd"><svg width="100%" height="100%" viewBox="0 0 417 417" version="1.1" xmlns="http://www.w3.org/2000/svg" xmlns:xlink="http://www.w3.org/1999/xlink" xml:space="preserve" xmlns:serif="http://www.serif.com/" style="fill-rule:evenodd;clip-rule:evenodd;stroke-linejoin:round;stroke-miterlimit:2;"><path d="M50.616,206.075c0,-25.211 21.667,-40.565 56.397,-49.369c-1.861,8.784 -1.645,15.754 -1.645,24.158c-0,5.602 0.408,11.205 1.634,16.407c-9.806,3.201 -12.258,6.403 -15.526,9.204c10.214,7.603 49.848,21.609 116.857,21.609c67.01,-0 106.643,-14.406 116.858,-22.41c6.73,-5.273 -4.613,-5.818 -12.021,-8.281c0.303,-15.533 0.039,-25.435 -1.266,-40.602c34.731,8.804 54.146,23.673 54.146,48.483c0,22.41 -22.472,37.216 -51.891,46.42l20.838,130.455c1.226,8.403 -4.494,16.407 -13.075,18.007c-34.322,6.403 -73.547,10.005 -113.589,10.005c-40.042,-0 -79.267,-3.202 -113.589,-10.005c-8.58,-1.6 -14.3,-9.604 -13.075,-18.007l20.839,-129.655c-29.419,-9.204 -51.892,-24.01 -51.892,-46.419Z" style="fill:#ccc;fill-rule:nonzero;stroke:#000;stroke-width:4.17px;"/><g><path d="M189.344,215.957c-0,0 0.411,-0.718 1.689,-3.866c4.315,-10.657 1.35,-15.365 -4.016,-22.61c2.253,-5.213 7.312,-8.739 12.901,-8.739l1.988,-0c8.898,-0 16.132,7.483 16.132,16.674l0,18.308c-3.168,0.067 -6.403,0.102 -9.705,0.102c-7.9,0 -11.878,0.041 -18.989,0.131Z" style="fill:#ccc;stroke:#000;stroke-width:4.17px;stroke-linejoin:miter;stroke-miterlimit:4;"/><path d="M232.457,215.176l-0,-21.906c-0,-6.619 5.213,-12.002 11.617,-12.002l6.635,-0c6.37,-0 11.549,5.332 11.602,11.907l0,19.171c-9.04,1.247 -18.995,2.231 -29.854,2.83Z" style="fill:#ccc;stroke:#000;stroke-width:4.17px;stroke-linejoin:miter;stroke-miterlimit:4;"/><path d="M276.734,210.009l0,-16.745l-0.01,-0.194l-0,-1.013c-0,-5.596 4.406,-10.15 9.82,-10.15l6.005,0c5.415,0 9.821,4.554 9.821,10.15l0,11.663c-7.091,2.237 -15.644,4.413 -25.636,6.289Z" style="fill:#ccc;stroke:#000;stroke-width:4.17px;stroke-linejoin:miter;stroke-miterlimit:4;"/><path d="M157.778,100.665c1.845,-0.959 3.68,-1.942 5.51,-2.92c8.278,-4.409 16.09,-8.579 24.488,-11.028c3.834,-1.118 6.063,-5.234 4.978,-9.193c-0.899,-3.281 -3.786,-5.427 -6.928,-5.427c-0.649,0 -1.307,0.09 -1.961,0.284c-5.722,1.668 -11.097,3.996 -16.3,6.53c-1.538,-4.49 -3.195,-8.939 -4.896,-13.263c-3.522,-8.994 -6.855,-17.479 -8.35,-26.04c-0.794,-4.515 -0.312,-8.592 1.335,-11.478c7.154,-12.467 32.212,-13.157 47.183,-13.57l4.344,-0.128c19.053,-0.681 40.087,1.986 59.227,7.522c4.243,1.227 9.897,3.63 12.755,8.144c5.934,9.332 2.086,22.837 -1.643,35.896c-0.889,3.128 -1.786,6.302 -2.565,9.454c-4.487,-1.87 -9.431,-3.058 -14.927,-3.336l-0.356,-0.01c-3.819,-0 -7.005,3.098 -7.192,7.087c-0.196,4.105 2.873,7.601 6.846,7.799c32.881,1.659 40.851,51.608 42.648,82.004c-2.901,-1.272 -6.087,-1.976 -9.431,-1.976l-6.005,-0c-6.74,-0 -12.838,2.87 -17.233,7.473c-4.728,-5.005 -11.315,-8.124 -18.602,-8.124l-6.635,0c-7.956,0 -15.085,3.719 -19.862,9.553c-4.237,-4.691 -9.809,-8.074 -16.113,-9.424c5.285,-7.438 10.186,-17.013 12.761,-28.93c0.869,-4.017 -1.576,-7.995 -5.464,-8.894c-0.527,-0.118 -1.056,-0.178 -1.575,-0.178c-3.306,0 -6.279,2.358 -7.029,5.824c-4.208,19.461 -16.09,31.279 -22.796,36.593c-0.121,0.094 -0.212,0.213 -0.322,0.312c-2.791,2.011 -5.251,4.494 -7.21,7.403c-1.835,-1.554 -3.648,-3.008 -5.329,-4.35c-3.271,-2.606 -6.362,-5.074 -8.538,-7.329c-2.814,-2.919 -7.385,-2.91 -10.189,-0.01c-2.82,2.91 -2.82,7.622 -0.011,10.533c2.835,2.934 6.284,5.685 9.93,8.595c13.467,10.74 18.585,16.5 15.404,24.351c-2.45,6.039 -9.186,8.909 -15.043,6.371l-39.679,-17.17c-3.536,-1.531 -6.111,-5.453 -7.654,-11.66c-2.441,-9.817 -0.163,-21.124 2.038,-32.063c0.49,-2.419 0.966,-4.817 1.398,-7.17c2.767,-15.214 6.947,-25.062 13.562,-31.919c5.929,-6.147 13.74,-10.155 22.013,-14.391l3.418,-1.747Z" style="fill:#ccc;stroke:#000;stroke-width:4.17px;stroke-linejoin:miter;stroke-miterlimit:4;"/></g></svg>