<?xml version="1.0" encoding="UTF-8" standalone="no"?><!DOCTYPE svg PUBLIC "-//W3C//DTD SVG 1.1//EN" "http://www.w3.org/Graphics/SVG/1.1/DTD/svg11.dtd"><svg width="100%" height="100%" viewBox="0 0 417 417" version="1.1" xmlns="http://www.w3.org/2000/svg" xmlns:xlink="http://www.w3.org/1999/xlink" xml:space="preserve" xmlns:serif="http://www.serif.com/" style="fill-rule:evenodd;clip-rule:evenodd;stroke-linejoin:round;stroke-miterlimit:2;"><path d="M227.083,256.575c0,10.179 -8.651,18.75 -19.039,18.75c-10.384,-0 -18.461,-8.571 -18.461,-18.75c0,-10.179 8.656,-18.75 18.461,-18.75c10.388,-0 19.039,8.571 19.039,18.75Z" style="fill:#ccc;fill-rule:nonzero;stroke:#000;stroke-width:3.67px;"/><path d="M208.325,194.075c-34.192,-0 -62.494,27.902 -62.494,62.5c0,34.598 28.302,62.5 62.494,62.5c34.196,-0 62.497,-27.902 62.497,-62.5c0.592,-34.598 -27.709,-62.5 -62.497,-62.5Zm0,92.634c-17.094,-0 -30.655,-13.391 -30.655,-30.134c-0,-16.739 13.561,-30.134 30.655,-30.134c17.098,-0 30.659,13.395 30.659,30.134c0,16.743 -13.561,30.134 -30.659,30.134Z" style="fill:#ccc;fill-rule:nonzero;stroke:#000;stroke-width:3.79px;"/><path d="M373.298,249.887c-55.459,-51.098 -108.216,-76.643 -164.965,-76.643c-96.732,-0 -162.635,74.816 -165.214,77.859c-1.936,2.433 -1.936,5.472 0,7.299c51.59,54.137 107.823,81.508 165.214,81.508c96.736,0 162.386,-78.469 164.965,-82.119c2.579,-2.433 1.937,-5.472 0,-7.904Zm-165.092,82.207c-44.494,0 -76.442,-31.724 -76.442,-75.519c-0,-43.795 31.948,-75.515 76.442,-75.515c44.5,-0 76.447,31.72 76.447,75.515c0.643,43.795 -31.3,75.519 -76.447,75.519Z" style="fill:#ccc;fill-rule:nonzero;stroke:#000;stroke-width:4.14px;"/><path d="M208.333,159.471c-31.064,0 -64.712,7.422 -88.661,17.321l82.191,-162.665c0.644,-2.474 4.527,-3.711 6.47,-3.711c2.589,0 3.238,1.237 4.532,3.711l84.129,168.228c-31.713,-15.462 -56.952,-22.884 -88.661,-22.884Z" style="fill:#ccc;fill-rule:nonzero;stroke:#000;stroke-width:4.18px;"/><path d="M406.358,400.067c0,3.09 -2.588,6.184 -6.475,6.184l-383.107,-0c-1.943,-0 -3.886,-1.237 -5.181,-3.094c-1.294,-1.854 -1.294,-3.711 -0.644,-5.564l51.77,-103.288c45.95,38.963 95.136,58.757 145.612,58.757c64.713,-0 115.835,-33.399 146.25,-58.757l51.126,102.667c-0,0.621 0.649,1.858 0.649,3.095Z" style="fill:#ccc;fill-rule:nonzero;stroke:#000;stroke-width:4.18px;"/></svg>