<svg xmlns="http://www.w3.org/2000/svg" xml:space="preserve" width="512" height="512" fill-rule="evenodd" stroke-linejoin="round" stroke-miterlimit="2" clip-rule="evenodd" viewBox="0 0 512 512">
  <path fill="#ccc" stroke="#000" stroke-width="5.12" d="M36.422 184.051c-9.939-33.893 9.48-69.422 43.368-79.36 33.893-9.94 69.423 9.48 79.361 43.368 9.94 33.893-9.48 69.422-43.368 79.36s-69.422-9.479-79.361-43.368Zm52.901-19.322c-2.781-2.522-6.628-6.005-10.32-10.084q-.896-.754-1.827-1.505c-6.477-5.175-13.889-9.399-21.122-9.23-3.605.087-6.209 1.17-7.962 2.736-1.759 1.561-2.76 3.677-3.023 5.999-.528 4.671 1.957 10.072 7.157 12.839l1.972 1.053-1.898 1.18c-5.078 3.174-7.308 8.749-6.559 13.392.373 2.311 1.468 4.372 3.295 5.841 1.823 1.471 4.475 2.425 8.083 2.344 7.249-.169 14.467-4.606 20.686-9.922.567-.486 1.126-.981 1.675-1.472 3.391-3.981 6.936-7.45 9.561-10.028a232 232 0 0 0 1.795-1.769c-.459-.42-.968-.878-1.513-1.374Zm19.953-17.535a82 82 0 0 0 1.455-1.764c5.172-6.469 9.395-13.882 9.231-21.116-.087-3.606-1.175-6.208-2.731-7.965-1.565-1.758-3.682-2.758-6.004-3.02-4.671-.529-10.073 1.957-12.841 7.151l-1.052 1.977-1.18-1.898c-3.175-5.082-8.749-7.308-13.397-6.558-2.307.367-4.367 1.467-5.837 3.295-1.47 1.822-2.424 4.475-2.338 8.08.169 7.249 4.599 14.464 9.916 20.683q.704.824 1.423 1.619c3.995 3.404 7.48 6.96 10.06 9.594.659.665 1.254 1.274 1.783 1.807.421-.454.884-.968 1.389-1.521 2.524-2.787 6.029-6.657 10.123-10.364Zm-11.424 25.835q-.632.69-1.384 1.52c-2.505 2.765-5.967 6.591-10.018 10.268a69 69 0 0 0-1.538 1.864c-5.176 6.471-9.405 13.885-9.234 21.122.087 3.606 1.17 6.204 2.729 7.96 1.565 1.758 3.682 2.759 6.004 3.022 4.671.528 10.073-1.957 12.842-7.152l1.052-1.972 1.179 1.893c3.176 5.082 8.749 7.308 13.398 6.563 2.306-.372 4.369-1.467 5.837-3.295s2.425-4.474 2.337-8.085c-.169-7.249-4.599-14.464-9.916-20.683q-.684-.798-1.376-1.569c-4.026-3.421-7.535-7.003-10.128-9.649-.654-.665-1.249-1.276-1.783-1.806Zm18.829 4.484q.863.733 1.764 1.455c6.469 5.172 13.884 9.4 21.121 9.23 3.606-.087 6.204-1.169 7.96-2.729 1.758-1.565 2.759-3.682 3.022-6.004.528-4.671-1.957-10.073-7.152-12.841l-1.972-1.053 1.893-1.179c5.082-3.175 7.308-8.749 6.563-13.398-.372-2.306-1.472-4.366-3.3-5.836-1.822-1.47-4.469-2.426-8.08-2.338-7.249.169-14.464 4.599-20.683 9.916q-.798.684-1.569 1.376c-3.421 4.026-6.999 7.534-9.649 10.128a232 232 0 0 0-1.795 1.769c.454.421.963.88 1.514 1.38 2.795 2.528 6.657 6.029 10.364 10.123Z"/>
  <path fill="#ccc" stroke="#000" stroke-linecap="round" stroke-miterlimit="1.5" stroke-width="5.12" d="M202.406 432.146c-43.961-20.244-74.508-64.701-74.508-116.239 0-70.59 57.308-127.898 127.897-127.898s127.898 57.309 127.898 127.899c0 51.538-30.547 95.994-74.508 116.239zm49.098-223.3-19.789 60.91a13.555 13.555 0 0 1-12.882 9.357h-64.045c-4.375 0-6.191 5.596-2.656 8.165l51.814 37.642a13.54 13.54 0 0 1 4.921 15.144l-19.792 60.91c-1.351 4.159 3.412 7.617 6.947 5.044l51.814-37.642a13.54 13.54 0 0 1 15.921 0l51.814 37.642c3.535 2.574 8.298-.885 6.942-5.044l-19.789-60.91a13.55 13.55 0 0 1 4.921-15.144l51.814-37.642c3.536-2.574 1.719-8.165-2.655-8.165h-64.047a13.54 13.54 0 0 1-12.876-9.357l-19.789-60.91c-1.356-4.16-7.239-4.16-8.59 0Zm32.737-190.101c35.295 0 63.948 28.654 63.948 63.948s-28.654 63.95-63.948 63.95-63.948-28.655-63.948-63.95 28.654-63.948 63.948-63.948m-18.714 86.275-5.351-18.714H233.44l-5.346 18.714zm37.434 0h37.432l-5.346-18.714h-26.741zm-37.434 0h37.434l-5.352-18.714h-26.736zm18.714-21.836h37.432l-5.346-18.719h-26.741zm0 0-5.346-18.719h-26.741l-5.347 18.719zM270.873 42.63l-5.351 18.719h37.434l-5.347-18.719z"/>
  <path fill="#ccc" stroke="#000" stroke-width="5.12" d="M192.599 442.378h132.414a9.03 9.03 0 0 1 9.031 9.029v9.025H183.575v-9.024a9.03 9.03 0 0 1 9.029-9.029zm162.507 29.191H162.507a9.03 9.03 0 0 0-9.029 9.024v15.051h210.658v-15.051a9.024 9.024 0 0 0-9.029-9.024Z"/>
  <path fill="#ccc" stroke="#000" stroke-linecap="round" stroke-miterlimit="1.5" stroke-width="5.12" d="M428.518 121.712c35.295 0 63.95 28.655 63.95 63.95 0 35.294-28.655 63.948-63.95 63.948-35.294 0-63.948-28.655-63.948-63.95 0-35.294 28.655-63.948 63.948-63.948M377.36 169.75c0 13.184 7.356 26.526 17.076 38.558 9.669 11.976 21.349 22.265 29.406 29.356l.021.02a478 478 0 0 1 3.979 3.52 483 483 0 0 1 4.856-4.241l.031-.026c8.303-7.193 20.099-17.414 29.825-29.248 9.782-11.9 17.123-25.007 17.123-37.94 0-7.443-2.276-12.897-5.709-16.647-3.453-3.776-8.252-6.016-13.572-6.692-10.729-1.362-23.109 3.683-29.595 14.361l-2.021 3.325-2.092-3.28c-6.856-10.727-19.369-15.768-30.102-14.406-5.331.675-10.109 2.911-13.547 6.687-3.418 3.75-5.679 9.202-5.679 16.652"/>
</svg>
