<?xml version="1.0" encoding="UTF-8" standalone="no"?><!DOCTYPE svg PUBLIC "-//W3C//DTD SVG 1.1//EN" "http://www.w3.org/Graphics/SVG/1.1/DTD/svg11.dtd"><svg width="100%" height="100%" viewBox="0 0 417 417" version="1.1" xmlns="http://www.w3.org/2000/svg" xmlns:xlink="http://www.w3.org/1999/xlink" xml:space="preserve" xmlns:serif="http://www.serif.com/" style="fill-rule:evenodd;clip-rule:evenodd;stroke-linejoin:round;stroke-miterlimit:2;"><g><path d="M369.167,198.131c-0,-25.708 -27.917,-41.215 -63.334,-50.193c2.5,7.754 3.334,15.915 3.334,24.485c-0,5.713 -0.417,11.426 -1.667,16.731c10,3.264 16.667,6.529 20,9.385c-10.417,7.754 -50.833,22.037 -119.167,22.037c-68.333,-0 -108.75,-14.691 -119.166,-22.853c3.333,-2.856 10,-6.121 20,-9.385c-1.25,-5.305 -1.667,-11.018 -1.667,-16.732c-0,-8.569 1.25,-16.731 3.333,-24.484c-35.416,8.978 -63.333,24.893 -63.333,50.193c-0,22.852 22.917,37.951 52.917,47.337l-21.25,133.033c-1.25,8.569 4.583,16.731 13.333,18.363c35,6.529 75,10.202 115.833,10.202c40.834,-0 80.834,-3.265 115.834,-10.202c8.75,-1.632 14.583,-9.794 13.333,-18.363l-21.25,-132.217c30,-9.386 52.917,-24.484 52.917,-47.337Z" style="fill:#ccc;fill-rule:nonzero;stroke:#000;stroke-width:4.17px;"/><path d="M124.105,190.417c23.025,5.545 52.037,8.531 83.812,8.531c31.775,0 61.247,-3.412 84.272,-8.531c2.303,-6.824 3.684,-13.649 3.684,-21.327c0,-15.355 -5.065,-29.431 -14.275,-41.374c7.368,-13.223 10.591,-31.564 10.591,-49.479c0,-32.844 -11.512,-67.82 -35.919,-67.82c-24.867,-0 -35.919,34.976 -35.919,67.82c-0,5.118 0.46,10.237 0.921,15.355c-4.145,-0.426 -8.75,-1.279 -12.895,-1.279c-4.605,-0 -8.749,0.426 -12.894,1.279c0.461,-5.118 0.921,-10.237 0.921,-15.355c0,-32.844 -11.512,-67.82 -35.919,-67.82c-24.867,-0 -35.919,34.976 -35.919,67.82c-0,17.915 3.684,36.256 10.591,49.479c-8.749,11.943 -14.275,26.019 -14.275,41.801c-0.461,7.251 0.921,14.076 3.223,20.9Zm111.903,-52.038c8.749,0 15.657,6.398 15.657,14.503c-0,8.104 -6.908,14.502 -15.657,14.502c-8.75,0 -15.657,-6.398 -15.657,-14.502c0.46,-8.105 7.368,-14.503 15.657,-14.503Zm-56.182,0c8.75,0 15.657,6.398 15.657,14.503c0,8.104 -6.907,14.502 -15.657,14.502c-8.749,0 -15.657,-6.398 -15.657,-14.502c0,-8.105 6.908,-14.503 15.657,-14.503Z" style="fill:#ccc;fill-rule:nonzero;stroke:#000;stroke-width:4.17px;"/></g></svg>