<?xml version="1.0" encoding="UTF-8" standalone="no"?><!DOCTYPE svg PUBLIC "-//W3C//DTD SVG 1.1//EN" "http://www.w3.org/Graphics/SVG/1.1/DTD/svg11.dtd"><svg width="100%" height="100%" viewBox="0 0 417 417" version="1.1" xmlns="http://www.w3.org/2000/svg" xmlns:xlink="http://www.w3.org/1999/xlink" xml:space="preserve" xmlns:serif="http://www.serif.com/" style="fill-rule:evenodd;clip-rule:evenodd;stroke-linejoin:round;stroke-miterlimit:2;"><path d="M99.574,249.232l0.763,-4.776c-29.976,-9.378 -52.875,-24.465 -52.875,-47.299c0,-25.28 27.895,-41.182 63.282,-50.153c-2.081,7.747 -3.33,15.903 -3.33,24.465c0,5.709 0.417,11.418 1.666,16.718c-9.992,3.262 -16.654,6.524 -19.984,9.378c10.407,8.155 50.792,22.835 119.07,22.835c68.28,-0 108.664,-14.272 119.072,-22.02c-3.33,-2.853 -9.992,-6.116 -19.984,-9.377c1.249,-5.301 1.666,-11.009 1.666,-16.718c-0,-8.563 -0.833,-16.717 -3.331,-24.465c35.388,8.971 63.283,24.465 63.283,50.153c-0,22.834 -22.899,37.92 -52.875,47.299l0.68,4.232c-4.425,2.24 -8.928,6.129 -11.339,7.927c-4.239,3.158 -13.489,8.217 -10.808,14.446c1.05,1.358 2.061,2.795 3.615,3.615c5.953,1.681 12.086,-5.26 16.804,-8.951c1.311,-1.058 2.636,-2.09 3.966,-3.114l18.315,113.956c1.249,8.562 -4.579,16.718 -13.322,18.348c-3.866,0.767 -7.793,1.488 -11.775,2.165c-0.575,-0.318 -1.1,-0.611 -1.555,-0.876c-4.229,-2.465 -12.712,-9.189 -17.416,-4.999c-1.19,1.515 -1.781,3.415 -1.663,5.339c0.076,1.227 0.438,2.41 1.046,3.457c-3.976,0.515 -7.994,0.989 -12.05,1.424c-2.231,-1.313 -4.541,-2.46 -6.334,-3.553c-4.598,-2.617 -9.025,-5.777 -13.608,-8.334c-2.68,-0.79 -5.122,0.934 -6.532,3.277c-2.169,3.608 0.82,7.365 4.799,10.538c-16.532,1.181 -33.519,1.756 -50.654,1.756c-16.738,0 -33.336,-0.617 -49.506,-1.796c3.942,-3.136 6.941,-6.875 4.759,-10.498c-1.593,-2.649 -4.181,-4.335 -7.148,-2.91c-4.519,2.709 -8.983,5.594 -13.528,8.292c-1.63,0.995 -3.662,2.027 -5.655,3.185c-3.987,-0.424 -7.939,-0.883 -11.85,-1.375c0.765,-0.978 1.285,-2.092 1.443,-3.391c-1.78,-12.746 -14.338,-4.057 -20.364,-0.092c-0.327,0.192 -0.689,0.398 -1.08,0.617c-4.337,-0.7 -8.61,-1.442 -12.811,-2.226c-8.743,-1.63 -14.571,-9.786 -13.322,-18.348l18.27,-114.376c1.656,1.31 3.303,2.633 4.991,3.926c4.67,3.651 10.584,10.292 16.402,8.542c1.646,-1.132 2.965,-2.678 3.827,-4.482c1.517,-5.968 -7.521,-10.897 -11.617,-13.934c-2.453,-1.818 -6.996,-5.721 -11.403,-7.827Zm28.246,5.174c-3.401,4.945 0.552,6.123 3.77,9.199c2.874,2.51 5.728,5.043 8.595,7.563c5.721,5.291 14.003,15.102 19.776,4.834c1.84,-5.911 -8.365,-12.316 -11.975,-15.316c-4.977,-3.586 -15.124,-14.571 -20.166,-6.28Zm173.959,46.725c3.505,-2.39 10.597,-5.979 11.792,-10.649c0.382,-3.907 -3.002,-7.316 -6.826,-7.432c-4.764,0.574 -9.58,5.313 -13.57,8.166c-4.389,3.334 -9.189,6.288 -13.512,9.667c-1.769,1.96 -0.913,4.198 0.338,6.318c4.499,7.61 16.955,-2.782 21.778,-6.07Zm5.697,78.211c3.779,-7.187 -10.646,-12.886 -15.501,-15.37c-5.05,-2.587 -16.621,-10.577 -19.418,-2.198c-2.981,9.288 18.313,15.289 25.059,19.378c5.064,2.975 6.658,3.975 9.86,-1.81Zm-58.66,-19.268c-0.399,4.702 -1.089,9.375 -2.068,13.99c4.512,2.643 9.016,5.308 13.549,7.917c2.376,1.66 4.328,2.69 6.424,-0.115c7.294,-6.504 -2.866,-12.45 -8.015,-15.716c-3.208,-2.177 -6.521,-4.171 -9.89,-6.076Zm-78.384,-48.472c3.627,-2.729 3.382,-7.452 0.404,-10.706c-5.005,-3.418 -21.893,-18.889 -27.089,-12.093c-2.132,2.63 -2.987,5.803 -0.167,8.03c5.815,4.528 11.779,8.567 17.554,13.187c2.76,1.476 6.336,2.743 9.298,1.582Zm16.283,-36.33c-4.66,8.481 -5.068,17.407 -4.938,26.526c2.92,0.039 5.832,0.103 8.758,0.039c-0.856,-13.21 3.446,-33.585 20.613,-31.316c11.201,1.873 13.791,13.653 14.106,24.902c2.695,-1.105 5.445,-2.11 8.167,-3.106c-0.705,-13.384 -4.346,-26.916 -17.788,-30.166c-11.75,-2.841 -23.184,2.691 -28.918,13.121Zm81.636,-14.181c-3.373,2.816 -12.344,8.504 -11.694,14.028c5.223,11.947 14.522,1.191 20.451,-4.361c2.842,-2.505 5.676,-5.014 8.53,-7.504c3.127,-2.712 6.492,-4.422 3.359,-8.844c-5.097,-8.375 -15.64,3.062 -20.646,6.681Zm-152.949,122.15c5.153,-2.142 10.114,-5.005 15.239,-7.279c5.256,-2.524 13.315,-4.772 14.785,-10.319c-0.211,-2.488 -1.268,-4.828 -2.995,-6.632c-4.802,-2.771 -12.753,2.803 -16.962,4.959c-4.864,2.492 -19.283,8.178 -15.5,15.372c1.153,2.191 2.885,4.526 5.433,3.899Zm41.744,-1.258c4.342,-2.512 8.665,-5.058 12.992,-7.595c-1.305,-4.397 -1.778,-9.252 -2.304,-13.864c-3.097,1.77 -6.142,3.622 -9.097,5.628c-3.475,2.359 -8.83,5.29 -10.353,9.449c-1.021,2.786 0.914,4.869 2.771,6.703c2.176,2.148 3.642,1.038 5.991,-0.321Zm86.035,-37.964l-0.002,-0.007c0.474,-6.666 1.666,-14.116 0.936,-20.768c-0.207,-2.037 -1.074,-3.951 -2.467,-5.449c-1.394,-1.5 -3.24,-2.503 -5.257,-2.857c-0.339,0.027 -0.681,0.005 -1.013,-0.064c-18.285,0.393 -36.702,-0.512 -54.952,0.31c-0.325,0.134 -0.672,0.206 -1.024,0.211c-6.547,1.362 -7.37,8.119 -6.65,13.888c0.328,9.29 0.958,18.557 1.886,27.8c1.451,30.384 11.926,28.786 38.194,27.9c4.043,0.292 8.103,0.276 12.143,-0.05c3.543,-1.144 7.015,-2.493 10.404,-4.037c3.423,-3.186 5.328,-8.536 5.969,-17.294c0.761,-6.514 1.372,-13.041 1.833,-19.583Zm-110.669,-46.452c-3.132,-2.232 -6.249,-4.485 -9.38,-6.719c-5.525,-3.959 -13.144,-11.963 -18.893,-5.188c-4.787,7.179 6.629,12.642 11.318,15.82c4.792,3.249 16.826,13.226 21.261,5.717c3.387,-5.081 -0.368,-7.079 -4.306,-9.63Zm112.897,12.432c1.412,2.225 4.446,3.644 6.978,2.757c7.3,-6.487 14.391,-10.381 21.6,-16.488c2.135,-2.16 0.813,-5.274 -0.917,-7.465c-5.063,-6.961 -22.716,9.132 -27.653,12.539c-1.259,2.823 -2.033,5.567 -0.008,8.657Z" style="fill:#ccc;stroke:#000;stroke-width:4.17px;"/><path d="M124.006,190.265c23.006,5.54 51.995,8.524 83.745,8.524c31.749,-0 61.198,-3.409 84.204,-8.524c2.302,-6.819 3.681,-13.638 3.681,-21.31c0,-15.343 -5.06,-29.408 -14.263,-41.341c7.362,-13.213 10.582,-31.539 10.582,-49.44c0,-32.817 -11.502,-67.765 -35.89,-67.765c-24.847,-0 -35.89,34.948 -35.89,67.765c-0,5.114 0.459,10.229 0.92,15.343c-4.142,-0.425 -8.743,-1.278 -12.885,-1.278c-4.601,0 -8.742,0.426 -12.883,1.278c0.46,-5.114 0.92,-10.229 0.92,-15.343c0,-32.817 -11.503,-67.765 -35.89,-67.765c-24.847,-0 -35.891,34.948 -35.891,67.765c0,17.901 3.681,36.227 10.583,49.44c-8.742,11.933 -14.264,25.998 -14.264,41.767c-0.46,7.246 0.921,14.065 3.221,20.884Zm111.813,-51.997c8.742,0 15.645,6.393 15.645,14.492c-0,8.097 -6.903,14.49 -15.645,14.49c-8.743,0 -15.644,-6.393 -15.644,-14.49c0.459,-8.099 7.362,-14.492 15.644,-14.492Zm-56.137,0c8.743,0 15.645,6.393 15.645,14.492c-0,8.097 -6.902,14.49 -15.645,14.49c-8.742,0 -15.644,-6.393 -15.644,-14.49c-0,-8.099 6.902,-14.492 15.644,-14.492Z" style="fill:#ccc;fill-rule:nonzero;stroke:#000;stroke-width:4.17px;"/><path d="M211.529,330.442c-13.55,-3.378 -21.562,17.57 -7.306,21.955c-0,4.952 0.169,9.898 0.509,14.842c0.228,3.345 4.933,6.363 7.494,3.104c2.67,-3.399 1.874,-6.849 1.822,-11.012c-0.032,-2.547 0.017,-5.087 0.127,-7.625c9.152,-4.109 6.933,-18.896 -2.646,-21.263l-0,-0.001Z" style="fill:#ccc;fill-rule:nonzero;stroke:#000;stroke-width:4.17px;"/></svg>