<svg xmlns="http://www.w3.org/2000/svg" xml:space="preserve" width="512" height="512" fill-rule="evenodd" stroke-linejoin="round" stroke-miterlimit="2" clip-rule="evenodd" viewBox="0 0 512 512">
  <path fill="#ccc" fill-rule="nonzero" stroke="#000" stroke-width="4.506" d="M278.817 315.027c0 12.498-10.622 23.022-23.376 23.022-12.75 0-22.667-10.524-22.667-23.022s10.628-23.022 22.667-23.022c12.755 0 23.376 10.524 23.376 23.022Z"/>
  <path fill="#ccc" fill-rule="nonzero" stroke="#000" stroke-width="4.653" d="M255.785 238.289c-41.982 0-76.731 34.259-76.731 76.739s34.75 76.739 76.731 76.739c41.986 0 76.735-34.259 76.735-76.739.727-42.48-34.022-76.739-76.735-76.739Zm0 113.738c-20.988 0-37.639-16.442-37.639-36.999 0-20.552 16.65-36.999 37.639-36.999 20.993 0 37.644 16.447 37.644 36.999 0 20.557-16.65 36.999-37.644 36.999Z"/>
  <path fill="#ccc" fill-rule="nonzero" stroke="#000" stroke-width="5.083" d="M458.342 306.816c-68.094-62.739-132.87-94.104-202.547-94.104-118.769 0-199.686 91.86-202.853 95.597-2.377 2.987-2.377 6.719 0 8.962 63.343 66.47 132.387 100.077 202.853 100.077 118.774 0 199.38-96.346 202.547-100.827 3.167-2.987 2.378-6.719 0-9.705ZM255.639 407.751c-54.631 0-93.857-38.951-93.857-92.724s39.226-92.719 93.857-92.719c54.638 0 93.863 38.946 93.863 92.719.789 53.772-38.431 92.724-93.863 92.724Z"/>
  <path fill="#ccc" fill-rule="nonzero" stroke="#000" stroke-width="5.132" d="M255.795 195.801c-38.141 0-79.455 9.113-108.86 21.267L247.851 17.345c.791-3.038 5.558-4.556 7.944-4.556 3.179 0 3.976 1.519 5.564 4.556l103.295 206.553c-38.938-18.985-69.927-28.097-108.86-28.097Zm243.139 295.408c0 3.794-3.178 7.593-7.95 7.593H20.598c-2.386 0-4.771-1.519-6.361-3.799-1.589-2.276-1.589-4.556-.791-6.832L77.01 361.352c56.418 47.839 116.81 72.143 178.785 72.143 79.456 0 142.224-41.008 179.568-72.143l62.773 126.056c0 .762.797 2.281.797 3.8Z"/>
</svg>
