<?xml version="1.0" encoding="UTF-8" standalone="no"?><!DOCTYPE svg PUBLIC "-//W3C//DTD SVG 1.1//EN" "http://www.w3.org/Graphics/SVG/1.1/DTD/svg11.dtd"><svg width="100%" height="100%" viewBox="0 0 417 417" version="1.1" xmlns="http://www.w3.org/2000/svg" xmlns:xlink="http://www.w3.org/1999/xlink" xml:space="preserve" xmlns:serif="http://www.serif.com/" style="fill-rule:evenodd;clip-rule:evenodd;stroke-linejoin:round;stroke-miterlimit:2;"><g><g><path d="M274.763,265.351c0,7.341 5.945,13.286 13.286,13.286c7.341,0 13.286,-5.945 13.286,-13.286c0,-7.321 -5.919,-13.252 -13.233,-13.279c-4.06,4.033 -8.423,7.787 -13.127,11.201c-0.112,0.684 -0.212,1.367 -0.212,2.078l0,0Z" style="fill:#ccc;fill-rule:nonzero;stroke:#000;stroke-width:4.17px;"/></g><g><path d="M301.335,300.257c0,7.338 -5.948,13.286 -13.286,13.286c-7.338,-0 -13.286,-5.948 -13.286,-13.286c0,-7.338 5.948,-13.286 13.286,-13.286c7.338,-0 13.286,5.948 13.286,13.286" style="fill:#ccc;fill-rule:nonzero;stroke:#000;stroke-width:4.17px;"/></g><g><path d="M141.902,265.351c0,-0.657 -0.099,-1.281 -0.192,-1.912c-4.723,-3.441 -9.12,-7.26 -13.227,-11.359c-7.274,0.071 -13.153,5.978 -13.153,13.272c0,7.34 5.946,13.286 13.286,13.286c7.341,-0 13.286,-5.946 13.286,-13.286l0,-0.001Z" style="fill:#ccc;fill-rule:nonzero;stroke:#000;stroke-width:4.17px;"/></g><g><path d="M141.902,300.257c0,7.338 -5.948,13.286 -13.286,13.286c-7.337,-0 -13.286,-5.948 -13.286,-13.286c0,-7.338 5.949,-13.286 13.286,-13.286c7.338,-0 13.286,5.948 13.286,13.286" style="fill:#ccc;fill-rule:nonzero;stroke:#000;stroke-width:4.17px;"/></g><g><path d="M221.619,291.924c-0,-2.677 -0.811,-5.163 -2.173,-7.248c-3.687,0.379 -7.393,0.605 -11.113,0.605c-3.521,-0 -7.234,-0.28 -11.068,-0.691c-1.395,2.105 -2.218,4.624 -2.218,7.334c0,7.34 5.945,13.286 13.286,13.286c7.341,-0 13.286,-5.946 13.286,-13.286l-0,-0Z" style="fill:#ccc;fill-rule:nonzero;stroke:#000;stroke-width:4.17px;"/></g><g><path d="M221.619,326.829c-0,7.338 -5.948,13.286 -13.286,13.286c-7.338,0 -13.286,-5.948 -13.286,-13.286c-0,-7.338 5.948,-13.286 13.286,-13.286c7.338,-0 13.286,5.948 13.286,13.286" style="fill:#ccc;fill-rule:nonzero;stroke:#000;stroke-width:4.17px;"/></g><g><path d="M296.102,322.745l-1.409,-1.056l0,39.858l-13.286,-0l0,-39.858l-1.409,1.056c-7.44,5.58 -11.877,14.455 -11.877,23.748c0,7.932 3.09,15.387 8.696,20.999l11.234,11.235l11.233,-11.235c5.607,-5.605 8.696,-13.067 8.696,-20.999c-0,-9.293 -4.437,-18.168 -11.877,-23.748l-0.001,-0Z" style="fill:#ccc;fill-rule:nonzero;stroke:#000;stroke-width:4.17px;"/></g><g><path d="M203.262,49.909l-0,14.508l13.286,0l-0,-14.508c7.713,-2.75 13.286,-10.057 13.286,-18.707c-0,-10.987 -8.942,-19.929 -19.929,-19.929c-10.988,-0 -19.929,8.942 -19.929,19.929c-0,8.65 5.573,15.957 13.286,18.707Zm6.643,-25.35c3.66,-0 6.643,2.982 6.643,6.643c-0,3.661 -2.983,6.643 -6.643,6.643c-3.661,-0 -6.643,-2.982 -6.643,-6.643c-0,-3.661 2.982,-6.643 6.643,-6.643Z" style="fill:#ccc;fill-rule:nonzero;stroke:#000;stroke-width:4.17px;"/></g><g><path d="M174.611,150.606l-48.103,-34.982c-11.206,16.116 -17.823,35.652 -17.823,56.726c0,1.195 0.14,2.358 0.18,3.547l65.746,-25.291Z" style="fill:#ccc;fill-rule:nonzero;stroke:#000;stroke-width:4.17px;"/></g><g><path d="M144.893,112.562l32.145,23.376c1.846,-8.337 5.015,-16.202 9.3,-23.376l-41.445,-0Z" style="fill:#ccc;fill-rule:nonzero;stroke:#000;stroke-width:4.17px;"/></g><g><path d="M179.769,76.923c-14.714,4.418 -27.947,12.183 -38.947,22.354l50.122,0l-11.175,-22.354Z" style="fill:#ccc;fill-rule:nonzero;stroke:#000;stroke-width:4.17px;"/></g><g><path d="M234.692,76.052c-8.602,-2.212 -17.483,-3.348 -26.359,-3.348c-5.174,-0 -10.216,0.517 -15.179,1.281l9.526,19.052c9.108,-7.918 19.983,-13.863 32.012,-16.985Z" style="fill:#ccc;fill-rule:nonzero;stroke:#000;stroke-width:4.17px;"/></g><g><path d="M132.251,181.132l49.591,3.54c-2.816,-6.397 -4.757,-13.239 -5.799,-20.387l-43.792,16.847Z" style="fill:#ccc;fill-rule:nonzero;stroke:#000;stroke-width:4.17px;"/></g><g><path d="M288.049,232.136l-33.633,0c-1.88,0 -3.727,-0.152 -5.573,-0.285l12.389,24.779c10.25,-6.418 19.424,-14.636 26.817,-24.494Z" style="fill:#ccc;fill-rule:nonzero;stroke:#000;stroke-width:4.17px;"/></g><g><path d="M192.528,270.62c5.16,0.825 10.415,1.376 15.803,1.376c14.349,-0 28.346,-3.282 41.162,-9.115l-16.408,-32.817l-40.557,40.556Z" style="fill:#ccc;fill-rule:nonzero;stroke:#000;stroke-width:4.17px;"/></g><g><path d="M110.845,192.923c6.922,32.836 30.074,59.702 60.63,71.925l15.346,-66.497l-75.976,-5.428Z" style="fill:#ccc;fill-rule:nonzero;stroke:#000;stroke-width:4.17px;"/></g><g><path d="M198.101,208.593l-11.301,48.975l33.329,-33.329c-8.218,-3.966 -15.685,-9.234 -22.029,-15.644l0.001,-0.002Z" style="fill:#ccc;fill-rule:nonzero;stroke:#000;stroke-width:4.17px;"/></g><g><path d="M136.669,322.745l-1.409,-1.056l0,39.858l-13.286,-0l0,-39.858l-1.408,1.056c-7.44,5.58 -11.877,14.455 -11.877,23.748c-0,7.932 3.089,15.387 8.695,20.999l11.234,11.235l11.233,-11.235c5.607,-5.605 8.696,-13.067 8.696,-20.999c-0,-9.293 -4.437,-18.168 -11.877,-23.748l-0.001,-0Z" style="fill:#ccc;fill-rule:nonzero;stroke:#000;stroke-width:4.17px;"/></g><g><path d="M216.386,349.411l-1.409,-1.056l-0,39.859l-13.286,-0l-0,-39.859l-1.409,1.056c-7.44,5.58 -11.877,14.455 -11.877,23.749c0,7.932 3.089,15.387 8.696,20.999l11.233,11.234l11.234,-11.234c5.606,-5.605 8.695,-13.067 8.695,-20.999c0,-9.294 -4.437,-18.169 -11.877,-23.749l-0,0Z" style="fill:#ccc;fill-rule:nonzero;stroke:#000;stroke-width:4.17px;"/></g><g><path d="M248.191,105.919c-0,7.337 -5.948,13.286 -13.286,13.286c-7.338,-0 -13.286,-5.949 -13.286,-13.286c-0,-7.338 5.948,-13.286 13.286,-13.286c7.338,-0 13.286,5.948 13.286,13.286" style="fill:#ccc;fill-rule:nonzero;stroke:#000;stroke-width:4.17px;"/></g><g><path d="M234.905,172.349l19.929,-26.572l-8.091,-16.183c-3.581,1.794 -7.56,2.897 -11.838,2.897c-4.278,-0 -8.257,-1.103 -11.839,-2.897l-8.09,16.183l19.929,26.572Z" style="fill:#ccc;fill-rule:nonzero;stroke:#000;stroke-width:4.17px;"/></g></g></svg>