<?xml version="1.0" encoding="UTF-8" standalone="no"?><!DOCTYPE svg PUBLIC "-//W3C//DTD SVG 1.1//EN" "http://www.w3.org/Graphics/SVG/1.1/DTD/svg11.dtd"><svg width="417px" height="417px" version="1.1" xmlns="http://www.w3.org/2000/svg" xmlns:xlink="http://www.w3.org/1999/xlink" xml:space="preserve" xmlns:serif="http://www.serif.com/" style="fill-rule:evenodd;clip-rule:evenodd;stroke-linejoin:round;stroke-miterlimit:2;"><g transform="matrix(4.16667,0,0,4.16667,0,0)"><g transform="matrix(1,0,0,1.03723,7.10543e-15,-0.098379)"><path d="M8.516,47.043L8.516,45.813L91.773,45.813L91.773,47.043C91.773,52.584 87.258,57.115 81.736,57.115L18.557,57.115C13.03,57.115 8.515,52.589 8.515,47.043L8.516,47.043Z" style="fill:rgb(204,204,204);stroke:black;stroke-width:0.98px;"/></g><g transform="matrix(1,0,0,1.03723,7.10543e-15,-0.098379)"><path d="M72.043,27.004C72.043,29.84 73.36,32.369 75.416,34.003L86.45,34.003C88.505,32.369 89.823,29.845 89.823,27.004C89.823,25.262 89.322,23.642 88.468,22.273L73.396,22.268C72.543,23.642 72.042,25.262 72.042,27.004L72.043,27.004Z" style="fill:rgb(204,204,204);stroke:black;stroke-width:0.98px;"/></g><g transform="matrix(1,0,0,1.03723,7.10543e-15,-0.098379)"><path d="M88.459,20.648L90.097,15.856L71.778,15.856L73.439,20.648L88.459,20.648Z" style="fill:rgb(204,204,204);stroke:black;stroke-width:0.98px;"/></g><g transform="matrix(1,0,0,1.03723,7.10543e-15,-0.098379)"><path d="M83.41,14.249L83.99,14.249C85.132,13.881 86.236,13.225 87.164,12.284C88.923,10.519 89.693,8.172 89.433,6.04C88.018,5.863 86.524,6.147 85.155,6.864C85.248,7.413 85.299,7.972 85.299,8.531C85.289,10.589 84.649,12.624 83.41,14.249L83.41,14.249Z" style="fill:rgb(204,204,204);stroke:black;stroke-width:0.98px;"/></g><g transform="matrix(1,0,0,1.03723,7.10543e-15,-0.098379)"><path d="M77.898,14.249L78.478,14.249C77.244,12.629 76.589,10.589 76.589,8.526C76.589,7.967 76.636,7.404 76.733,6.859C75.369,6.133 73.856,5.858 72.455,6.035C72.195,8.168 72.956,10.505 74.724,12.28C75.657,13.22 76.761,13.877 77.898,14.249L77.898,14.249Z" style="fill:rgb(204,204,204);stroke:black;stroke-width:0.98px;"/></g><g transform="matrix(1,0,0,1.03723,7.10543e-15,-0.098379)"><path d="M80.584,14.249L81.308,14.249C82.793,12.913 83.744,10.85 83.744,8.526C83.744,6.021 82.64,3.818 80.942,2.505C79.253,3.818 78.139,6.021 78.139,8.526C78.148,10.85 79.1,12.913 80.584,14.249L80.584,14.249Z" style="fill:rgb(204,204,204);stroke:black;stroke-width:0.98px;"/></g><g transform="matrix(1,0,0,1.03723,-0.16613,-0.187708)"><path d="M13.067,33.998C14.742,33.998 16.097,32.233 16.097,30.086C16.097,27.93 14.733,26.174 13.067,26.174C11.392,26.174 10.037,27.939 10.037,30.086C10.028,32.247 11.392,33.998 13.067,33.998Z" style="fill:rgb(204,204,204);stroke:black;stroke-width:0.98px;"/></g><g transform="matrix(1,0,0,1.03723,1.83078,-0.187708)"><path d="M19.136,33.998C20.811,33.998 22.166,32.233 22.166,30.086C22.166,27.93 20.802,26.174 19.136,26.174C17.461,26.174 16.106,27.939 16.106,30.086C16.097,32.247 17.461,33.998 19.136,33.998Z" style="fill:rgb(204,204,204);stroke:black;stroke-width:0.98px;"/></g><g transform="matrix(1,0,0,1.03723,3.8277,-0.187708)"><path d="M28.235,30.086C28.235,27.93 26.871,26.174 25.205,26.174C23.53,26.174 22.175,27.939 22.175,30.086C22.166,32.247 23.53,33.998 25.205,33.998C26.88,33.998 28.235,32.247 28.235,30.086Z" style="fill:rgb(204,204,204);stroke:black;stroke-width:0.98px;"/></g><g transform="matrix(1,0,0,1.03723,5.83387,-0.187708)"><path d="M28.235,30.086C28.235,32.242 29.599,33.998 31.265,33.998C32.94,33.998 34.295,32.233 34.295,30.086C34.295,27.93 32.931,26.174 31.265,26.174C29.59,26.174 28.235,27.925 28.235,30.086Z" style="fill:rgb(204,204,204);stroke:black;stroke-width:0.98px;"/></g><g transform="matrix(1,0,0,1.03723,4.83414,2.74129)"><path d="M28.235,22.174C29.91,22.174 31.265,20.409 31.265,18.262C31.265,16.106 29.901,14.351 28.235,14.351C26.56,14.351 25.205,16.116 25.205,18.262C25.205,20.409 26.574,22.174 28.235,22.174Z" style="fill:rgb(204,204,204);stroke:black;stroke-width:0.98px;"/></g><g transform="matrix(1,0,0,1.03723,0.834144,2.74129)"><path d="M19.126,18.262C19.126,16.106 17.762,14.351 16.096,14.351C14.421,14.351 13.067,16.116 13.067,18.262C13.067,20.409 14.431,22.174 16.096,22.174C17.772,22.174 19.126,20.423 19.126,18.262Z" style="fill:rgb(204,204,204);stroke:black;stroke-width:0.98px;"/></g><g transform="matrix(1,0,0,1.03723,2.84375,2.74129)"><path d="M19.126,18.262C19.126,20.418 20.49,22.174 22.156,22.174C23.831,22.174 25.186,20.409 25.186,18.262C25.186,16.106 23.822,14.351 22.156,14.351C20.481,14.351 19.126,16.102 19.126,18.262Z" style="fill:rgb(204,204,204);stroke:black;stroke-width:0.98px;"/></g><g transform="matrix(1,0,0,1.03723,3.82969,5.68472)"><path d="M25.205,10.336C26.88,10.336 28.235,8.571 28.235,6.425C28.235,4.278 26.871,2.513 25.205,2.513C23.53,2.513 22.175,4.278 22.175,6.425C22.175,8.571 23.53,10.336 25.205,10.336Z" style="fill:rgb(204,204,204);stroke:black;stroke-width:0.98px;"/></g><g transform="matrix(1,0,0,1.03723,1.82969,5.68472)"><path d="M19.136,10.336C20.811,10.336 22.166,8.571 22.166,6.425C22.166,4.278 20.802,2.513 19.136,2.513C17.461,2.513 16.106,4.278 16.106,6.425C16.106,8.571 17.461,10.336 19.136,10.336Z" style="fill:rgb(204,204,204);stroke:black;stroke-width:0.98px;"/></g><g transform="matrix(1,0,0,1.03723,7.10543e-15,-0.098379)"><path d="M50.141,13.624C51.992,12.325 53.17,10.322 53.17,8.068C53.17,5.814 51.983,3.803 50.141,2.513C48.289,3.812 47.111,5.814 47.111,8.068C47.111,10.322 48.299,12.325 50.141,13.624Z" style="fill:rgb(204,204,204);stroke:black;stroke-width:0.98px;"/></g><g transform="matrix(1,0,0,1.03723,7.10543e-15,-0.098379)"><rect x="45.923" y="16.25" width="8.445" height="17.752" style="fill:rgb(204,204,204);stroke:black;stroke-width:0.98px;"/></g><g transform="matrix(1,0,0,1.03723,7.10543e-15,-0.098379)"><path d="M7.341,42.831L92.639,42.831C94.245,42.831 95.548,41.517 95.548,39.911C95.548,38.3 94.24,36.991 92.639,36.991L7.341,36.991C5.735,36.991 4.431,38.304 4.431,39.911C4.441,41.508 5.749,42.831 7.341,42.831Z" style="fill:rgb(204,204,204);stroke:black;stroke-width:0.98px;"/></g><g transform="matrix(0.969388,0,0,1.01688,2.9745,-1.65125)"><path d="M88.625,59.846C86.463,62.435 83.697,65.793 81.484,68.261C82.032,68.75 82.361,69.681 82.421,70.203C82.955,75.055 75.498,78.953 71.684,80.955C71.197,81.206 70.77,81.43 70.534,81.565C69.786,81.984 68.845,81.709 68.432,80.945C68.014,80.196 68.288,79.25 69.049,78.836C69.452,78.608 69.833,78.417 70.26,78.193C73.433,76.535 79.656,73.28 79.359,70.538C79.299,70.011 79.108,69.499 78.751,68.978C77.753,67.511 75.925,67.175 73.192,68.717C68.845,71.185 64.757,73.094 60.14,75.152C53.384,78.454 49.997,86.952 49.997,97.477L64.715,97.477C67.448,90.287 70.297,89.812 74.538,87.26C76.51,86.082 78.992,85.16 81.521,81.621C86.022,75.302 90.523,68.983 95.014,62.654C96.049,61.118 97.139,59.232 97.511,58.291C97.093,55.185 93.58,53.932 88.625,59.846L88.625,59.846Z" style="fill:rgb(204,204,204);stroke:black;stroke-width:1.01px;"/></g><g transform="matrix(0.969388,0,0,1.01688,0.0663359,-1.65125)"><path d="M39.877,75.153C35.255,73.09 31.172,71.185 26.824,68.717C24.091,67.167 22.263,67.502 21.266,68.978C20.908,69.504 20.718,70.026 20.658,70.538C20.361,73.281 26.574,76.536 29.757,78.194C30.184,78.422 30.564,78.613 30.968,78.836C31.715,79.256 31.989,80.196 31.585,80.946C31.167,81.696 30.23,81.97 29.483,81.565C29.247,81.435 28.82,81.207 28.332,80.955C24.518,78.962 17.062,75.055 17.595,70.203C17.656,69.654 18.013,68.69 18.523,68.247C16.315,65.779 13.545,62.417 11.396,59.842C6.441,53.928 2.914,55.181 2.511,58.315C2.877,59.255 3.972,61.141 5.007,62.678C9.508,68.997 14.009,75.316 18.5,81.645C21.043,85.174 23.511,86.092 25.483,87.284C29.724,89.836 32.564,90.302 35.306,97.5L49.996,97.505C49.996,86.953 46.608,78.455 39.876,75.153L39.877,75.153Z" style="fill:rgb(204,204,204);stroke:black;stroke-width:1.01px;"/></g></g></svg>