<svg xmlns="http://www.w3.org/2000/svg" xml:space="preserve" width="512" height="512" fill-rule="evenodd" stroke-linejoin="round" stroke-miterlimit="2" clip-rule="evenodd" viewBox="0 0 512 512">
  <path fill="#ccc" fill-rule="nonzero" stroke="#000" stroke-width="5.12" d="M455.939 247.684c0-12.839-10.397-23.236-23.236-23.236s-23.238 10.397-23.238 23.236c0 12.805 10.353 23.178 23.144 23.224a196 196 0 0 1 22.959-19.59c.196-1.196.371-2.391.371-3.634Zm-3.507 74.8c2.228-12.639 14.28-21.078 26.919-18.849s21.078 14.28 18.849 26.92-14.28 21.077-26.92 18.848-21.077-14.28-18.848-26.919m-243.896-35.675c-.393 1.08-.603 2.165-.828 3.257 5.703 8.481 10.645 17.386 14.943 26.58 11.998 4.236 25.195-1.956 29.557-13.944 4.391-12.063-1.825-25.391-13.888-29.783-12.066-4.391-25.392 1.825-29.783 13.888zm5.109 70.972c6.418-11.114 20.629-14.922 31.744-8.505s14.923 20.627 8.505 31.743-20.63 14.922-31.743 8.506c-11.115-6.418-14.923-20.629-8.506-31.744m43.872-36.189c-3.009 3.588-4.717 7.83-5.237 12.155 5.366 3.637 10.585 7.501 15.569 11.683 4.719 3.958 9.378 8.509 14.054 13.368a23.16 23.16 0 0 0 11.216-7.333c8.252-9.835 6.972-24.485-2.863-32.737s-24.486-6.97-32.739 2.863Zm10.942 72.041c9.831-8.251 24.488-6.968 32.737 2.863s6.968 24.489-2.863 32.739-24.489 6.967-32.739-2.864-6.968-24.488 2.864-32.737m138.511 20.297-.368 3.057 60.373-34.855 11.619 20.124-60.372 34.857 2.831 1.211c14.959 6.39 32.282 5.348 46.357-2.779 12.014-6.937 20.604-18.135 24.203-31.535l7.193-26.841-26.84-7.189c-13.394-3.591-27.398-1.745-39.413 5.191-14.076 8.128-23.639 22.609-25.584 38.759zM263.28 125.382l23.844-8.678-7.948-21.836-23.844 8.678c-9.133-11.031-24.475-15.819-38.692-10.645-18.058 6.573-27.405 26.618-20.832 44.674 6.574 18.059 26.618 27.405 44.675 20.832 14.216-5.174 22.891-18.705 22.797-33.026Zm-45.637 4.247c-2.189-6.016.928-12.702 6.945-14.892s12.702.929 14.891 6.945-.927 12.701-6.943 14.891-12.702-.927-14.892-6.943ZM58.432 323.707l-45.645 93.477c31.162 14.407 66.82 19.871 103.118 13.469 2.058-.362 4.019-.956 6.054-1.386zm80.889-109.214 40.883-56.222a137.9 137.9 0 0 1-40.884-16.265zm165.921-85.918c3.141 26.685 12.497 51.836 26.674 73.872l15.222-86.33zm86.091-50.876a185.4 185.4 0 0 0-21.269 41.318c-3.094 8.503-5.261 17.099-6.974 25.713l37.01-4.261c-7.566-19.704-10.831-41.134-8.767-62.771ZM194.104 254.321l48.73-72.02c-12.152-1.328-24.213-4.372-35.951-9.045zM391.7 159.384l-37.812 45.062c-2.114 2.519-4.394 4.823-6.647 7.146l47.129 11.259c2.923-20.949 2.227-42.479-2.669-63.467Zm-80.375 161.035c7.842-4.695 15.502-9.866 22.721-15.922 19.225-16.134 34.289-36.266 44.903-58.49l-58.878-25.523zm-261.83-39.682c39.201 43.683 97.764 64.129 154.736 55.922l-34.907-114.143zm215.358-94.952 10.723 87.251 34.839-74.713c-15.879-1.602-31.302-5.794-45.564-12.534zm-95.552 173.45-2.748-1.391 12.105 68.651-22.884 4.036-12.106-68.652-2.103 2.247c-11.12 11.871-16.067 28.504-13.244 44.511 2.409 13.662 9.994 25.564 21.354 33.528l22.761 15.94 15.936-22.764c7.955-11.357 11.009-25.147 8.6-38.809-2.822-16.007-13.16-29.946-27.669-37.297zm198.081-21.104-2.464-1.847v69.713h-23.236v-69.713l-2.464 1.847c-13.012 9.76-20.772 25.282-20.772 41.537 0 13.873 5.402 26.911 15.209 36.726l19.645 19.649 19.649-19.649c9.805-9.803 15.208-22.853 15.208-36.726 0-16.255-7.76-31.777-20.773-41.537ZM342.367 76.71c0 12.833-10.403 23.238-23.236 23.238s-23.238-10.405-23.238-23.238 10.403-23.236 23.238-23.236 23.236 10.403 23.236 23.236m63.32 283.245 34.855-46.474-14.152-28.304c-6.262 3.137-13.222 5.067-20.703 5.067s-14.442-1.93-20.707-5.067l-14.148 28.304z"/>
</svg>
