<svg xmlns="http://www.w3.org/2000/svg" xml:space="preserve" width="512" height="512" fill-rule="evenodd" stroke-linejoin="round" stroke-miterlimit="2" clip-rule="evenodd" viewBox="0 0 512 512">
  <path fill="#ccc" fill-rule="nonzero" stroke="#000" stroke-width="5.12" d="M62.147 253.023c0-30.955 26.603-49.806 69.245-60.616-2.285 10.785-2.02 19.343-2.02 29.662 0 6.878.501 13.758 2.006 20.145-12.04 3.93-15.051 7.862-19.063 11.301 12.541 9.335 61.204 26.532 143.479 26.532s130.938-17.688 143.48-27.515c8.263-6.474-5.664-7.143-14.76-10.168.372-19.072.048-31.23-1.554-49.852 42.643 10.81 66.481 29.066 66.481 59.528 0 27.515-27.592 45.694-63.713 56.995l25.585 160.175c1.505 10.317-5.518 20.145-16.054 22.109-42.141 7.862-90.302 12.284-139.467 12.284s-97.325-3.931-139.467-12.284c-10.535-1.965-17.558-11.792-16.054-22.109l25.586-159.193c-36.121-11.301-63.714-29.48-63.714-56.994Z"/>
  <g fill="#ccc" stroke="#000" stroke-linejoin="miter" stroke-miterlimit="4" stroke-width="5.12">
    <path d="M232.48 265.156s.505-.882 2.074-4.747c5.298-13.085 1.658-18.865-4.931-27.761 2.766-6.401 8.978-10.73 15.84-10.73h2.441c10.925 0 19.807 9.188 19.807 20.473v22.479q-5.835.124-11.916.125c-9.7 0-14.584.05-23.315.161Zm52.935-.959V237.3c0-8.127 6.401-14.736 14.264-14.736h8.147c7.821 0 14.18 6.547 14.245 14.62v23.538c-11.099 1.531-23.322 2.739-36.655 3.475Zm54.364-6.344v-20.56l-.012-.238v-1.244c0-6.871 5.41-12.462 12.057-12.462h7.373c6.649 0 12.058 5.591 12.058 12.462v14.32c-8.706 2.747-19.208 5.418-31.476 7.722Z"/>
    <path d="M193.723 123.598c2.265-1.177 4.518-2.384 6.765-3.585 10.164-5.413 19.756-10.533 30.067-13.54 4.707-1.373 7.444-6.426 6.112-11.287-1.104-4.028-4.649-6.663-8.506-6.663-.797 0-1.605.111-2.408.349-7.026 2.048-13.625 4.906-20.013 8.018a389 389 0 0 0-6.011-16.285c-4.324-11.043-8.417-21.461-10.252-31.972-.975-5.544-.383-10.549 1.639-14.093 8.784-15.307 39.55-16.154 57.932-16.661l5.334-.157c23.394-.836 49.22 2.438 72.72 9.236 5.21 1.507 12.152 4.457 15.661 9.999 7.286 11.458 2.561 28.04-2.017 44.074-1.092 3.841-2.193 7.738-3.149 11.608-5.509-2.296-11.58-3.755-18.328-4.096l-.437-.012c-4.689 0-8.601 3.804-8.83 8.702-.241 5.04 3.528 9.333 8.406 9.576 40.372 2.037 50.158 63.365 52.364 100.686a28.7 28.7 0 0 0-11.58-2.426h-7.373c-8.275 0-15.763 3.524-21.159 9.175-5.805-6.145-13.893-9.975-22.84-9.975h-8.147c-9.769 0-18.522 4.566-24.387 11.729-5.202-5.76-12.044-9.913-19.784-11.571 6.489-9.133 12.507-20.889 15.668-35.521 1.067-4.932-1.935-9.816-6.709-10.92a9 9 0 0 0-1.934-.219c-4.059 0-7.709 2.895-8.63 7.151-5.167 23.895-19.756 38.405-27.989 44.93-.149.115-.26.262-.395.383-3.427 2.469-6.447 5.518-8.853 9.09a290 290 0 0 0-6.543-5.341c-4.016-3.2-7.811-6.23-10.483-8.999a8.644 8.644 0 0 0-12.51-.012c-3.462 3.573-3.462 9.358-.014 12.933 3.481 3.602 7.716 6.98 12.192 10.553 16.535 13.187 22.819 20.259 18.913 29.899-3.008 7.415-11.279 10.939-18.47 7.822l-48.719-21.082c-4.342-1.88-7.503-6.695-9.398-14.316-2.997-12.053-.2-25.936 2.502-39.368.602-2.97 1.186-5.914 1.716-8.803 3.397-18.68 8.53-30.772 16.652-39.191 7.28-7.547 16.87-12.468 27.028-17.67z"/>
  </g>
</svg>
