<svg xmlns="http://www.w3.org/2000/svg" xml:space="preserve" fill-rule="evenodd" stroke-linejoin="round" stroke-miterlimit="2" clip-rule="evenodd" viewBox="0 0 512 512" width="512" height="512">
  <g fill="#ccc" fill-rule="nonzero" stroke="#000" stroke-width="5.12">
    <path d="M453.27 243.269c0 -31.565 -34.277 -50.605 -77.763 -61.628 3.07 9.52 4.094 19.541 4.094 30.063 0 7.015 -0.512 14.029 -2.047 20.543 12.278 4.008 20.464 8.016 24.556 11.523 -12.79 9.52 -62.414 27.057 -146.315 27.057 -83.9 0 -133.525 -18.038 -146.314 -28.059 4.092 -3.507 12.278 -7.515 24.556 -11.523 -1.535 -6.514 -2.047 -13.528 -2.047 -20.544 0 -10.521 1.535 -20.543 4.092 -30.062C92.598 191.662 58.321 211.203 58.321 242.267c0 28.058 28.138 46.597 64.972 58.121l-26.091 163.34c-1.535 10.521 5.627 20.543 16.37 22.546 42.974 8.016 92.086 12.526 142.222 12.526 50.137 0 99.249 -4.009 142.223 -12.526 10.743 -2.004 17.905 -12.025 16.37 -22.546l-26.091 -162.338c36.835 -11.524 64.972 -30.062 64.972 -58.121Z"/>
    <path d="M152.378 233.797c28.271 6.808 63.892 10.475 102.906 10.475s75.2 -4.189 103.471 -10.475c2.828 -8.379 4.523 -16.758 4.523 -26.186 0 -18.853 -6.219 -36.136 -17.527 -50.8 9.047 -16.235 13.004 -38.755 13.004 -60.751 0 -40.326 -14.135 -83.271 -44.102 -83.271 -30.532 0 -44.102 42.944 -44.102 83.271 0 6.284 0.565 12.569 1.131 18.853 -5.089 -0.523 -10.743 -1.57 -15.833 -1.57 -5.654 0 -10.742 0.523 -15.831 1.57 0.566 -6.284 1.131 -12.569 1.131 -18.853 0 -40.326 -14.135 -83.271 -44.102 -83.271 -30.532 0 -44.102 42.944 -44.102 83.271 0 21.996 4.523 44.516 13.004 60.751 -10.742 14.664 -17.527 31.947 -17.527 51.324 -0.566 8.903 1.131 17.283 3.957 25.661Zm137.396 -63.893c10.742 0 19.224 7.856 19.224 17.807 0 9.95 -8.482 17.806 -19.224 17.806 -10.743 0 -19.224 -7.856 -19.224 -17.806 0.565 -9.951 9.047 -17.807 19.224 -17.807Zm-68.981 0c10.743 0 19.224 7.856 19.224 17.807 0 9.95 -8.481 17.806 -19.224 17.806s-19.224 -7.856 -19.224 -17.806 8.482 -17.807 19.224 -17.807Z"/>
  </g>
</svg>
