<?xml version="1.0" encoding="UTF-8" standalone="no"?><!DOCTYPE svg PUBLIC "-//W3C//DTD SVG 1.1//EN" "http://www.w3.org/Graphics/SVG/1.1/DTD/svg11.dtd"><svg width="100%" height="100%" viewBox="0 0 417 417" version="1.1" xmlns="http://www.w3.org/2000/svg" xmlns:xlink="http://www.w3.org/1999/xlink" xml:space="preserve" xmlns:serif="http://www.serif.com/" style="fill-rule:evenodd;clip-rule:evenodd;stroke-linejoin:round;stroke-miterlimit:2;"><path d="M381.557,307.291l-79.077,0c1.246,4.031 1.97,8.2 2.159,12.415c0,12.091 -9.95,22.041 -22.041,22.041l-29.777,0c-3.671,7.521 -11.336,12.316 -19.702,12.325l-49.479,-0c-8.367,-0.009 -16.032,-4.804 -19.702,-12.325l-29.823,0c-12.091,0 -22.041,-9.95 -22.041,-22.041l0,-12.415l-76.873,0c-13.579,0 -24.762,11.16 -24.784,24.74c-0,24.74 74.084,74.219 197.917,74.219c123.834,0 197.918,-49.479 197.918,-74.219c-0.023,-13.544 -11.151,-24.69 -24.695,-24.74Z" style="fill:#ccc;stroke:#000;stroke-width:4.18px;"/><path d="M183.55,260.511l49.479,-0c8.38,0.009 16.054,4.826 19.702,12.37l24.874,-0c-9.761,-18.578 -25.234,-47.051 -35.085,-70.306c-0.184,0.193 -0.378,0.373 -0.585,0.54c-2.208,1.579 -4.84,2.46 -7.557,2.519c-1.853,0.004 -3.684,-0.41 -5.352,-1.215l-8.232,-4.498l-7.692,4.498c-1.835,0.954 -3.868,1.462 -5.937,1.485c-2.398,-0.018 -4.737,-0.72 -6.747,-2.025l-0.585,-0.314l-0.54,-0.45c-3.333,-2.74 -5.033,-7.008 -4.498,-11.29l1.484,-10.481l-6.252,-6.298c-2.384,-2.37 -3.729,-5.6 -3.729,-8.964c-0,-5.933 4.179,-11.106 9.981,-12.357l8.997,-1.439l4.498,-8.636c2.042,-4.206 6.342,-6.874 11.02,-6.838c4.665,0.005 8.942,2.659 11.021,6.838l4.228,8.726l5.263,0.81c10.885,-12.91 28.878,-24.875 28.878,-43.767c-0,-15.834 -61.985,-98.959 -74.22,-98.959c-8.141,0 -12.279,14.124 -12.414,24.74c0.328,10.179 1.947,20.273 4.813,30.047c2.172,-1.709 4.858,-2.64 7.619,-2.64c4.791,-0 9.168,2.793 11.183,7.138l4.183,8.412l8.681,1.349c6.019,1.035 10.459,6.307 10.459,12.411c-0,3.126 -1.161,6.144 -3.262,8.461l-6.747,6.522l1.35,10.166c0.562,4.363 -1.134,8.726 -4.498,11.56c-2.218,1.795 -4.975,2.793 -7.827,2.834c-1.993,-0.068 -3.941,-0.626 -5.668,-1.62l-7.692,-4.498l-7.646,4.498c-1.84,0.949 -3.869,1.471 -5.938,1.53c-2.906,-0 -5.726,-1.021 -7.962,-2.879c-0.85,-0.72 -1.578,-1.57 -2.159,-2.519c-15.968,14.439 -34.725,30.722 -38.189,44.981c-1.889,7.512 -3.868,18.353 -5.757,30.947l2.833,-0.45l4.499,-8.636c2.078,-4.192 6.364,-6.851 11.042,-6.851c4.678,0 8.965,2.659 11.043,6.851l4.229,8.636l8.726,1.35c4.826,0.76 8.776,4.287 10.076,8.996c1.048,4.004 0.072,8.272 -2.609,11.425l-0.315,0.36l-6.972,7.242l1.304,9.896c0.095,0.625 0.144,1.255 0.144,1.889c0,6.837 -5.622,12.46 -12.46,12.46l-0.009,0c-1.857,0.032 -3.693,-0.382 -5.352,-1.214l-8.232,-4.498l-7.827,4.498c-1.772,0.989 -3.774,1.502 -5.802,1.484c-2.366,-0.04 -4.669,-0.742 -6.657,-2.024l-0.54,-0.315l-0.54,-0.45c-0.715,-0.634 -1.376,-1.327 -1.979,-2.069c-0.585,7.737 -1.035,15.339 -1.26,22.491l42.013,-0c3.621,-7.58 11.299,-12.438 19.702,-12.46Z" style="fill:#ccc;stroke:#000;stroke-width:4.18px;"/><path d="M205.5,195.423c0.495,0.333 1.071,0.517 1.665,0.54c0.405,-0.005 0.805,-0.095 1.169,-0.27l12.46,-7.017l12.415,7.017c0.904,0.436 1.984,0.333 2.789,-0.27c0.823,-0.661 1.264,-1.691 1.169,-2.744l-0.989,-6.477c-0.495,-1.485 -0.9,-2.969 -1.26,-4.498c-0.36,-1.53 -0.719,-2.699 -0.989,-4.004c-0.27,-1.304 -0.315,-1.529 -0.45,-2.294c-0.135,-0.764 -0,-1.349 -0.27,-2.024c-0.27,-0.675 -0,-1.619 -0,-2.294l-0,-2.024c-0.068,-0.445 -0.068,-0.904 -0,-1.349l-0,-1.215c0.027,-0.148 0.027,-0.301 -0,-0.45c-0,-0.54 0.315,-1.034 0.495,-1.574c0.18,-0.54 0.674,-1.709 1.124,-2.609l-5.757,-0.9l-5.893,-12.999c-0.463,-0.895 -1.376,-1.467 -2.384,-1.485c-1.012,0 -1.939,0.576 -2.384,1.485l-6.522,13.179l-13.495,2.024c-1.016,0.248 -1.821,1.022 -2.114,2.025c-0.355,0.998 -0.112,2.118 0.63,2.878l9.851,9.581l-2.159,15.024c-0.18,1.008 0.162,2.038 0.899,2.744Z" style="fill:#ccc;stroke:#000;stroke-width:4.18px;"/><path d="M130.157,242.114c-0.099,1.057 0.324,2.096 1.124,2.788c0.5,0.32 1.075,0.491 1.665,0.495c0.373,0.023 0.746,-0.054 1.079,-0.225l12.55,-7.062l12.28,7.062c0.369,0.162 0.769,0.239 1.169,0.225c0.576,0 1.143,-0.171 1.62,-0.495c0.868,-0.647 1.318,-1.718 1.169,-2.788l-2.204,-15.024l9.851,-9.536c0.679,-0.81 0.9,-1.916 0.585,-2.924c-0.261,-0.994 -1.066,-1.759 -2.069,-1.979l-13.72,-2.069l-6.297,-13.135c-0.459,-0.904 -1.39,-1.475 -2.406,-1.475c-1.017,-0 -1.948,0.571 -2.407,1.475l-6.477,13.135l-10.661,1.619c-0.315,2.834 -0.72,5.758 -1.034,8.726l6.387,6.163l-2.204,15.024Z" style="fill:#ccc;stroke:#000;stroke-width:4.18px;"/><path d="M185.034,113.872c-1.574,1.709 -3.419,3.419 -5.263,5.173c0.005,0.814 0.387,1.579 1.035,2.069c0.45,0.391 1.025,0.598 1.619,0.585c0.391,-0.018 0.778,-0.126 1.125,-0.315l12.459,-7.017l12.325,7.107c0.356,0.202 0.76,0.31 1.17,0.315c0.589,-0.009 1.16,-0.216 1.619,-0.585c0.792,-0.661 1.197,-1.678 1.08,-2.699l-2.159,-15.114l9.85,-9.536c0.711,-0.773 0.954,-1.875 0.63,-2.878c-0.31,-0.972 -1.115,-1.71 -2.114,-1.935l-13.494,-2.069l-6.523,-13.179c-0.422,-0.931 -1.358,-1.534 -2.384,-1.53c-1.016,0.018 -1.943,0.612 -2.384,1.53l-1.844,3.823c0.9,3.284 1.799,6.387 2.429,8.996c0.248,0.81 0.445,1.638 0.585,2.474c0.459,1.854 0.801,3.729 1.035,5.623l-0,2.159c-0.851,4.957 -3.338,9.487 -7.063,12.865c-1.169,1.444 -2.42,2.825 -3.733,4.138Z" style="fill:#ccc;stroke:#000;stroke-width:4.18px;"/><path d="M134.115,332.031l27.484,0l-0,-49.479l-39.854,-0l0,37.109c0,6.788 5.583,12.37 12.37,12.37Z" style="fill:#ccc;stroke:#000;stroke-width:4.18px;"/><path d="M255.07,282.597l-0,49.434l27.483,0c6.788,0 12.37,-5.582 12.37,-12.37c-0.31,-4.21 -1.142,-8.366 -2.474,-12.37c-2.685,-8.465 -5.991,-16.719 -9.896,-24.694l-27.483,-0Z" style="fill:#ccc;stroke:#000;stroke-width:4.18px;"/><g><path d="M183.55,270.182c-6.743,0.022 -12.28,5.582 -12.28,12.325l-0,49.524c0.022,6.734 5.546,12.275 12.28,12.325l49.479,-0c6.743,-0.023 12.28,-5.582 12.28,-12.325l-0,-49.569c-0,-6.738 -5.542,-12.28 -12.28,-12.28l-49.479,-0Zm46.825,59.15l-44.082,0l0,-44.126l44.082,-0l0,44.126Z" style="fill:#ccc;stroke:#000;stroke-width:4.18px;"/></g><rect x="195.964" y="294.877" width="24.74" height="24.785" style="fill:#ccc;stroke:#000;stroke-width:4.18px;"/></svg>