<svg xmlns="http://www.w3.org/2000/svg" xml:space="preserve" width="512" height="512" fill-rule="evenodd" stroke-linejoin="round" stroke-miterlimit="2" clip-rule="evenodd" viewBox="0 0 512 512">
  <path fill="#ccc" stroke="#000" stroke-width="5.12" d="M468.482 377.297H371.39a60.8 60.8 0 0 1 2.651 15.243c0 14.846-12.217 27.062-27.062 27.062h-36.561a26.99 26.99 0 0 1-24.19 15.133h-60.752a26.99 26.99 0 0 1-24.19-15.133h-36.617c-14.846 0-27.062-12.217-27.062-27.062v-15.243H43.22c-16.673 0-30.403 13.702-30.43 30.376 0 30.376 90.962 91.127 243.006 91.127 152.046 0 243.007-60.751 243.007-91.127-.028-16.63-13.691-30.315-30.321-30.376ZM225.365 319.86h60.751a26.94 26.94 0 0 1 24.19 15.188h30.541c-11.985-22.81-30.983-57.77-43.078-86.323a7 7 0 0 1-.718.663 16.6 16.6 0 0 1-9.279 3.093 15.04 15.04 0 0 1-6.571-1.492l-10.107-5.523-9.444 5.523a16.2 16.2 0 0 1-7.29 1.823 15.4 15.4 0 0 1-8.284-2.486l-.718-.386-.663-.553a15.47 15.47 0 0 1-5.523-13.862l1.822-12.869-7.676-7.733a15.53 15.53 0 0 1-4.579-11.006c0-7.285 5.131-13.636 12.255-15.172l11.047-1.767 5.523-10.603a14.93 14.93 0 0 1 13.531-8.396 15.15 15.15 0 0 1 13.532 8.396l5.191 10.714 6.462.995c13.365-15.851 35.457-30.542 35.457-53.738 0-19.441-76.106-121.504-91.129-121.504-9.996 0-15.076 17.342-15.242 30.376a148 148 0 0 0 5.909 36.892 15.14 15.14 0 0 1 9.355-3.241 15.16 15.16 0 0 1 13.731 8.764l5.136 10.328 10.659 1.656c7.39 1.271 12.842 7.744 12.842 15.238 0 3.838-1.425 7.544-4.005 10.389l-8.284 8.008 1.658 12.482a15.91 15.91 0 0 1-5.523 14.194 15.63 15.63 0 0 1-9.61 3.48 15 15 0 0 1-6.959-1.989l-9.444-5.523-9.388 5.523a16.94 16.94 0 0 1-7.291 1.879 15.3 15.3 0 0 1-9.776-3.535 12.8 12.8 0 0 1-2.651-3.093c-19.606 17.728-42.636 37.721-46.889 55.228-2.319 9.223-4.749 22.534-7.069 37.997l3.478-.553 5.524-10.603a15.15 15.15 0 0 1 13.558-8.412 15.15 15.15 0 0 1 13.559 8.412l5.192 10.603L209.792 249a15.32 15.32 0 0 1 12.371 11.045 15.58 15.58 0 0 1-3.203 14.028l-.387.442-8.56 8.892 1.601 12.15q.176 1.152.177 2.319c0 8.395-6.903 15.299-15.299 15.299h-.011a14.1 14.1 0 0 1-6.571-1.491l-10.107-5.523-9.61 5.523a14.37 14.37 0 0 1-7.124 1.822 15.56 15.56 0 0 1-8.174-2.485l-.663-.387-.663-.553a21.6 21.6 0 0 1-2.43-2.54c-.718 9.5-1.271 18.833-1.547 27.615h51.584a26.93 26.93 0 0 1 24.19-15.299Z"/>
  <path fill="#ccc" stroke="#000" stroke-width="5.12" d="M252.317 239.944a3.93 3.93 0 0 0 2.044.663 3.4 3.4 0 0 0 1.435-.332l15.299-8.616 15.243 8.616a3.32 3.32 0 0 0 3.424-.332 3.88 3.88 0 0 0 1.435-3.369l-1.214-7.953a63 63 0 0 1-1.547-5.523c-.442-1.879-.883-3.314-1.214-4.916a75 75 0 0 1-.553-2.817c-.166-.938 0-1.656-.332-2.485s0-1.988 0-2.817v-2.485a5.5 5.5 0 0 1 0-1.656v-1.49a1.6 1.6 0 0 0 0-.553c0-.663.387-1.27.608-1.933s.828-2.098 1.38-3.203l-7.069-1.105-7.236-15.96a3.36 3.36 0 0 0-2.927-1.823 3.27 3.27 0 0 0-2.927 1.823l-8.008 16.181-16.569 2.485a3.6 3.6 0 0 0-2.596 2.486 3.43 3.43 0 0 0 .774 3.534l12.095 11.764-2.651 18.447a3.76 3.76 0 0 0 1.104 3.369Zm-92.507 57.328a4.04 4.04 0 0 0 1.38 3.423c.614.393 1.32.603 2.044.608.458.028.916-.066 1.325-.276l15.409-8.671 15.078 8.671c.453.199.944.293 1.435.276.707 0 1.403-.21 1.989-.608a3.65 3.65 0 0 0 1.435-3.423l-2.706-18.447 12.095-11.708a3.82 3.82 0 0 0 .718-3.59 3.38 3.38 0 0 0-2.54-2.43l-16.846-2.54-7.732-16.127a3.315 3.315 0 0 0-5.909 0l-7.953 16.127-13.09 1.988c-.387 3.48-.884 7.07-1.27 10.714l7.842 7.567zm67.379-157.458c-1.933 2.098-4.198 4.198-6.462 6.352a3.2 3.2 0 0 0 1.271 2.54c.553.48 1.259.734 1.988.718a3.2 3.2 0 0 0 1.381-.387l15.297-8.616 15.133 8.726c.437.248.933.381 1.437.387a3.25 3.25 0 0 0 1.988-.718 3.77 3.77 0 0 0 1.326-3.314l-2.651-18.557 12.094-11.708a3.6 3.6 0 0 0 .774-3.534 3.55 3.55 0 0 0-2.596-2.376l-16.568-2.54-8.009-16.181a3.2 3.2 0 0 0-2.927-1.879 3.32 3.32 0 0 0-2.927 1.879l-2.264 4.694c1.105 4.032 2.209 7.842 2.982 11.045.304.995.546 2.011.718 3.038a59 59 0 0 1 1.271 6.904v2.651a27.63 27.63 0 0 1-8.672 15.796 65 65 0 0 1-4.583 5.081ZM164.67 407.673h33.745v-60.751h-48.933v45.563c0 8.334 6.855 15.188 15.188 15.188Zm148.511-60.696v60.696h33.744c8.334 0 15.188-6.854 15.188-15.188a62.6 62.6 0 0 0-3.038-15.188 221 221 0 0 0-12.15-30.32zm-87.814-15.243c-8.279.027-15.078 6.854-15.078 15.133v60.806c.027 8.268 6.809 15.071 15.078 15.133h60.751c8.279-.028 15.078-6.854 15.078-15.133v-60.862c0-8.273-6.805-15.078-15.078-15.078zm57.493 72.625h-54.125V350.18h54.125z"/>
  <path fill="#ccc" stroke="#000" stroke-width="5.12" d="M240.608 362.055h30.376v30.431h-30.376z"/>
</svg>
