<?xml version="1.0" encoding="UTF-8" standalone="no"?><!DOCTYPE svg PUBLIC "-//W3C//DTD SVG 1.1//EN" "http://www.w3.org/Graphics/SVG/1.1/DTD/svg11.dtd"><svg width="100%" height="100%" viewBox="0 0 417 417" version="1.1" xmlns="http://www.w3.org/2000/svg" xmlns:xlink="http://www.w3.org/1999/xlink" xml:space="preserve" xmlns:serif="http://www.serif.com/" style="fill-rule:evenodd;clip-rule:evenodd;stroke-linecap:round;stroke-linejoin:round;stroke-miterlimit:1.5;"><path d="M208.333,10.417c109.234,-0 197.917,88.683 197.917,197.916c0,109.234 -88.683,197.917 -197.917,197.917c-109.233,0 -197.916,-88.683 -197.916,-197.917c-0,-109.233 88.683,-197.916 197.916,-197.916Zm128.823,61.728c-33.603,-31.8 -78.952,-51.312 -128.823,-51.312c-103.484,0 -187.5,84.016 -187.5,187.5c0,49.871 19.512,95.22 51.312,128.823l265.011,-265.011Zm-257.646,272.377c33.604,31.799 78.953,51.311 128.823,51.311c103.484,0 187.5,-84.016 187.5,-187.5c0,-49.87 -19.512,-95.219 -51.311,-128.823l-265.012,265.012Z" style="fill:#ccc;stroke:#000;stroke-width:4.17px;"/><path d="M108.445,287.345l-41.923,0c-5.497,0 -10.527,2.172 -14.272,5.697c5.721,10.791 12.5,20.937 20.199,30.299l35.996,-35.996Z" style="fill:#ccc;stroke:#000;stroke-width:4.17px;stroke-linecap:butt;stroke-miterlimit:2;"/><path d="M93.326,344.218c1.747,1.437 3.523,2.842 5.324,4.214c27.706,10.412 64.752,18.09 109.518,18.09c45.119,-0 82.396,-7.799 110.172,-18.337c20.663,-15.813 37.83,-35.969 50.131,-59.1c-3.748,-3.631 -8.839,-5.886 -14.415,-5.906l-66.599,-0c1.049,3.395 1.659,6.906 1.818,10.456c0,10.183 -8.379,18.563 -18.563,18.563l-25.078,-0c-3.091,6.334 -9.547,10.372 -16.593,10.38l-41.671,-0c-7.046,-0.008 -13.502,-4.046 -16.593,-10.38l-25.117,-0c-5.533,-0 -10.533,-2.475 -13.947,-6.368l-38.387,38.388Z" style="fill:#ccc;stroke:#000;stroke-width:4.17px;stroke-linecap:butt;stroke-miterlimit:2;"/><path d="M193.763,243.781l35.203,-0c7.057,0.007 13.52,4.064 16.593,10.418l20.948,-0c-7.681,-14.62 -19.563,-36.517 -27.857,-55.305l-44.887,44.887Z" style="fill:#ccc;stroke:#000;stroke-width:4.17px;stroke-linecap:butt;stroke-miterlimit:2;"/><path d="M149.094,246.696c-1.403,0.71 -2.958,1.075 -4.532,1.061c-1.992,-0.033 -3.932,-0.624 -5.606,-1.704l-0.455,-0.265l-0.455,-0.379c-0.602,-0.534 -1.159,-1.118 -1.667,-1.743c-0.432,5.724 -0.777,11.36 -0.983,16.728l13.698,-13.698Z" style="fill:#ccc;stroke:#000;stroke-width:4.17px;stroke-linecap:butt;stroke-miterlimit:2;"/><path d="M254.639,141.151c3.333,-4.808 5.618,-10.107 5.618,-16.286c0,-13.336 -52.203,-83.343 -62.507,-83.343c-6.857,-0 -10.342,11.895 -10.455,20.836c0.276,8.572 1.639,17.074 4.053,25.305c1.829,-1.439 4.091,-2.223 6.417,-2.223c4.035,-0 7.721,2.352 9.418,6.011l3.523,7.085l7.311,1.136c5.069,0.872 8.809,5.312 8.809,10.453c-0,2.632 -0.978,5.174 -2.748,7.125l-5.682,5.493l1.137,8.562c0.473,3.675 -0.955,7.349 -3.788,9.736c-1.868,1.512 -4.19,2.352 -6.592,2.387c-1.679,-0.058 -3.319,-0.528 -4.774,-1.365l-6.478,-3.788l-6.439,3.788c-1.55,0.8 -3.259,1.239 -5.001,1.289c-2.448,-0 -4.823,-0.86 -6.706,-2.425c-0.716,-0.606 -1.329,-1.322 -1.818,-2.121c-13.448,12.16 -29.245,25.874 -32.163,37.883c-1.591,6.326 -3.257,15.456 -4.848,26.063l2.386,-0.379l3.789,-7.273c1.75,-3.531 5.359,-5.77 9.299,-5.77c3.94,-0 7.55,2.239 9.301,5.77l3.561,7.273l7.349,1.137c3.96,0.624 7.219,3.459 8.397,7.272l12.13,-12.13c-0.423,-1.399 -0.56,-2.891 -0.373,-4.385l1.25,-8.827l-5.266,-5.304c-2.007,-1.996 -3.14,-4.717 -3.14,-7.55c-0,-4.997 3.519,-9.353 8.406,-10.407l7.577,-1.212l3.788,-7.273c1.72,-3.542 5.342,-5.789 9.281,-5.759c3.929,0.004 7.531,2.24 9.282,5.759l3.561,7.349l2.81,0.433l20.325,-20.325Z" style="fill:#ccc;stroke:#000;stroke-width:4.17px;stroke-linecap:butt;stroke-miterlimit:2;"/><path d="M227.257,168.532l-1.625,-0.254l-4.963,-10.947c-0.39,-0.754 -1.159,-1.236 -2.008,-1.251c-0.852,0 -1.633,0.485 -2.007,1.251l-5.493,11.099l-11.366,1.705c-0.855,0.208 -1.533,0.86 -1.78,1.705c-0.299,0.841 -0.094,1.784 0.53,2.424l8.297,8.069l-1.11,7.725l21.525,-21.526Z" style="fill:#ccc;stroke:#000;stroke-width:4.17px;stroke-linecap:butt;stroke-miterlimit:2;"/><path d="M168.466,227.324l-0.492,-3.357l8.296,-8.031c0.572,-0.682 0.758,-1.614 0.493,-2.463c-0.22,-0.837 -0.898,-1.481 -1.743,-1.666l-11.555,-1.743l-5.303,-11.062c-0.386,-0.762 -1.171,-1.242 -2.026,-1.242c-0.857,-0 -1.641,0.48 -2.027,1.242l-5.455,11.062l-8.979,1.364c-0.265,2.386 -0.606,4.849 -0.871,7.349l5.379,5.19l-1.856,12.653c-0.083,0.89 0.273,1.765 0.947,2.348c0.421,0.27 0.905,0.414 1.402,0.417c0.314,0.019 0.628,-0.045 0.909,-0.189l10.569,-5.948l4.056,2.332l8.256,-8.256Z" style="fill:#ccc;stroke:#000;stroke-width:4.17px;stroke-linecap:butt;stroke-miterlimit:2;"/><path d="M188.544,128.615c-1.325,1.439 -2.879,2.88 -4.432,4.357c0.004,0.685 0.326,1.33 0.872,1.742c0.379,0.33 0.863,0.504 1.363,0.493c0.329,-0.015 0.655,-0.106 0.948,-0.265l10.492,-5.91l10.381,5.985c0.299,0.171 0.64,0.262 0.985,0.266c0.496,-0.008 0.977,-0.182 1.363,-0.493c0.667,-0.557 1.009,-1.413 0.91,-2.273l-1.818,-12.729l8.295,-8.031c0.599,-0.651 0.804,-1.579 0.531,-2.424c-0.261,-0.819 -0.939,-1.44 -1.78,-1.63l-11.365,-1.742l-5.494,-11.099c-0.355,-0.785 -1.143,-1.292 -2.008,-1.289c-0.855,0.015 -1.636,0.515 -2.007,1.289l-1.553,3.219c0.758,2.766 1.515,5.379 2.045,7.577c0.209,0.682 0.375,1.379 0.493,2.083c0.387,1.562 0.675,3.141 0.872,4.736l-0,1.818c-0.717,4.175 -2.812,7.99 -5.949,10.835c-0.984,1.216 -2.038,2.379 -3.144,3.485Z" style="fill:#ccc;stroke:#000;stroke-width:4.17px;stroke-linecap:butt;stroke-miterlimit:2;"/><path d="M137.5,300.043c1.915,2.413 4.87,3.972 8.16,3.972l23.147,-0l0,-35.279l-31.307,31.307Z" style="fill:#ccc;stroke:#000;stroke-width:4.17px;stroke-linecap:butt;stroke-miterlimit:2;"/><path d="M247.528,262.382l0,41.633l23.147,-0c5.716,-0 10.418,-4.701 10.418,-10.418c-0.262,-3.546 -0.962,-7.046 -2.084,-10.418c-2.261,-7.129 -5.046,-14.081 -8.334,-20.797l-23.147,-0Z" style="fill:#ccc;stroke:#000;stroke-width:4.17px;stroke-linecap:butt;stroke-miterlimit:2;"/><path d="M177.127,260.416c-0.115,0.614 -0.175,1.245 -0.175,1.89l0,41.709c0.019,5.671 4.671,10.338 10.343,10.38l41.671,-0c5.679,-0.02 10.342,-4.701 10.342,-10.38l-0,-41.747c-0,-5.675 -4.668,-10.342 -10.342,-10.342l-41.671,-0c-0.632,0.002 -1.25,0.061 -1.851,0.174l-8.317,8.316Zm49.603,41.326l-37.125,-0l-0,-37.163l37.125,-0l0,37.163Z" style="fill:#ccc;stroke:#000;stroke-width:4.17px;stroke-linecap:butt;stroke-miterlimit:2;"/><rect x="197.75" y="272.724" width="20.836" height="20.874" style="fill:#ccc;stroke:#000;stroke-width:4.17px;stroke-linecap:butt;stroke-miterlimit:2;"/></svg>