<?xml version="1.0" encoding="UTF-8" standalone="no"?><!DOCTYPE svg PUBLIC "-//W3C//DTD SVG 1.1//EN" "http://www.w3.org/Graphics/SVG/1.1/DTD/svg11.dtd"><svg width="417px" height="417px" version="1.1" xmlns="http://www.w3.org/2000/svg" xmlns:xlink="http://www.w3.org/1999/xlink" xml:space="preserve" xmlns:serif="http://www.serif.com/" style="fill-rule:evenodd;clip-rule:evenodd;stroke-linejoin:round;stroke-miterlimit:2;"><g transform="matrix(4.16667,0,0,4.16667,0,0)"><g transform="matrix(0.067293,0,0,0.067293,4.16878,3.64636)"><path d="M382.8,362.4C455.999,369.599 520.8,314.4 528,241.2C535.2,168 480,103.2 406.8,96C333.6,88.8 268.8,144 261.6,217.2C255.6,291.602 309.6,356.4 382.8,362.4Z" style="fill:rgb(204,204,204);fill-rule:nonzero;stroke:black;stroke-width:14.86px;"/></g><g transform="matrix(0.0672456,0,0,0.0672456,14.98,2.64037)"><path d="M920.4,298.8C993.599,305.999 1058.4,250.8 1065.6,177.6C1072.8,104.401 1017.6,39.6 944.4,32.4C871.201,25.201 806.4,80.4 799.2,153.6C792.001,226.799 846.001,291.6 920.4,298.8Z" style="fill:rgb(204,204,204);fill-rule:nonzero;stroke:black;stroke-width:14.87px;"/></g><g transform="matrix(0.0833333,0,0,0.0833333,-0.0200804,-2.17681)"><path d="M1112.4,464.4L1014,464.4C1014,464.4 931.201,364.798 921.604,354C912.002,342 889.206,325.199 873.604,318C819.604,291.602 762.004,306 736.804,351.602C720.003,381.602 704.406,438 680.406,562.802L616.804,544.802C613.202,543.603 608.406,543.603 604.804,546.001C601.202,548.4 598.804,552.001 597.605,555.603L596.406,560.404L484.806,507.603C484.806,507.603 382.806,416.404 373.206,408.001C362.405,398.399 348.007,387.603 337.206,382.802C283.206,356.404 226.806,370.802 200.406,416.404C182.406,448.802 165.605,512.404 138.008,661.204C126.008,726.005 153.61,770.404 181.207,798.004L145.207,934.804L44.407,1062C21.606,1090.81 27.606,1131.61 56.407,1154.4C68.407,1164 82.805,1167.6 96.009,1167.6C115.208,1167.6 135.611,1159.2 147.611,1142.4L255.611,1002C261.611,994.802 265.212,987.604 267.611,978.002L292.81,879.604L357.611,920.405L357.611,1101.61C357.611,1137.61 387.611,1167.61 423.611,1167.61C459.611,1167.61 489.611,1138.8 489.611,1101.61L489.611,884.405C489.611,861.604 477.611,841.206 458.412,828.007L330.012,747.609L387.614,573.609L414.012,597.609C417.613,601.21 422.41,604.808 427.211,606.007L548.411,664.808C556.809,668.41 565.212,670.808 573.61,670.808C586.809,670.808 598.809,666.007 608.411,658.808L681.61,679.206C690.008,700.808 704.411,718.808 716.411,732.007L673.212,900.007L594.013,1075.21C578.411,1108.81 594.013,1147.21 627.615,1161.61C636.013,1165.21 645.615,1167.61 654.013,1167.61C679.212,1167.61 703.212,1153.21 714.013,1129.21L796.81,948.007C798.009,944.405 799.208,940.808 800.411,937.206L820.809,855.604L865.207,909.604L895.207,1112.4C900.008,1144.8 928.809,1168.8 960.008,1168.8C963.61,1168.8 966.008,1168.8 969.61,1167.6C1005.61,1161.6 1030.81,1129.2 1024.81,1093.2L992.411,872.405C990.012,860.405 985.212,849.604 978.013,840.007L861.613,698.407L916.812,529.207L942.011,558.008C952.812,571.207 969.613,578.406 986.409,578.406L1112.41,578.406C1143.61,578.406 1170.01,552.008 1170.01,520.804C1170.01,489.609 1143.61,464.406 1112.41,464.406L1112.4,464.4ZM624,578.4L720,604.798L706.801,651.599L610.801,625.201L624,578.4Z" style="fill:rgb(204,204,204);fill-rule:nonzero;stroke:black;stroke-width:12px;"/></g></g></svg>