<?xml version="1.0" encoding="UTF-8" standalone="no"?><!DOCTYPE svg PUBLIC "-//W3C//DTD SVG 1.1//EN" "http://www.w3.org/Graphics/SVG/1.1/DTD/svg11.dtd"><svg width="100%" height="100%" viewBox="0 0 417 417" version="1.1" xmlns="http://www.w3.org/2000/svg" xmlns:xlink="http://www.w3.org/1999/xlink" xml:space="preserve" xmlns:serif="http://www.serif.com/" style="fill-rule:evenodd;clip-rule:evenodd;stroke-linejoin:round;stroke-miterlimit:2;"><g id="Person"><g><path d="M217.832,65.376c15.062,0 27.281,-12.308 27.281,-27.485c0,-15.172 -12.219,-27.475 -27.281,-27.475c-15.052,0 -27.256,12.299 -27.256,27.475c0.002,15.177 12.204,27.485 27.256,27.485Z" style="fill:#ccc;fill-rule:nonzero;stroke:#000;stroke-width:4.17px;"/></g><g><path d="M199.473,249.474l-0,-10.612l-42.167,22.166l-5.846,145.129l24.939,0l13.715,-109.404l7.229,23.713l5.72,85.782l25.736,0l4.289,-117.236l-4.916,-54.628l-28.699,15.09Z" style="fill:#ccc;fill-rule:nonzero;stroke:#000;stroke-width:4.17px;"/></g><g><path d="M232.654,78.839l-55.029,-0.208l-2.908,21.568l24.755,13.015l0,-10.618l20.268,10.657l7.898,10.678l69.375,90.568l15.928,-14.531l-80.287,-121.129Z" style="fill:#ccc;fill-rule:nonzero;stroke:#000;stroke-width:4.17px;"/></g></g><g id="Tree"><g><path d="M336.814,176.04l-46.442,-24.418l24.001,36.214l22.441,-11.796Z" style="fill:#ccc;fill-rule:nonzero;stroke:#000;stroke-width:4.17px;"/></g><g><path d="M280.347,205.725l-62.477,-81.562l-7.869,-4.136l-0,10.618l-46.823,-24.615l-0,12.73l-57.511,-30.234l-0,80.249l-25.815,-0l0,15.465l25.815,-0l-0,79.309l57.511,-30.234l-0,12.731l46.823,-24.617l-0,10.614l41.586,-21.863l0,10.663l28.76,-15.118Z" style="fill:#ccc;fill-rule:nonzero;stroke:#000;stroke-width:4.17px;"/></g></g></svg>