<svg xmlns="http://www.w3.org/2000/svg" xml:space="preserve" width="512" height="512" fill-rule="evenodd" stroke-linejoin="round" stroke-miterlimit="2" clip-rule="evenodd" viewBox="0 0 512 512">
  <path fill="#ccc" fill-rule="nonzero" stroke="#000" stroke-width="5.12" d="M321.034 406.262a35.84 35.84 0 0 1-21.791 11.592c.691.829 1.331 1.69 2.125 2.483 10.271 10.276 25.175 12.017 33.3 3.896 5.217-5.212 6.308-13.23 3.732-21.012zm-130.089 0-17.367-3.052c-2.575 7.782-1.48 15.795 3.738 21.018 8.12 8.12 23.03 6.374 33.306-3.901.788-.794 1.428-1.644 2.115-2.493a35.84 35.84 0 0 1-21.791-11.571zm298.763-57.283-2.35-13.358a19.38 19.38 0 0 0-22.446-15.729l-149.561 26.374c-7.444 25.795-31.176 44.672-59.356 44.672s-51.912-18.878-59.351-44.672L47.078 319.908a19.374 19.374 0 0 0-22.446 15.718l-2.355 13.363a19.374 19.374 0 0 0 15.718 22.451l157.215 27.72c5.222 6.856 13.389 11.356 22.682 11.356h76.201c9.288 0 17.449-4.5 22.676-11.366l157.21-27.709a19.384 19.384 0 0 0 15.718-22.456z"/>
  <path fill="#ccc" fill-rule="nonzero" stroke="#000" stroke-width="5.12" d="M307.927 329.119c0 28.687-23.255 51.937-51.937 51.937s-51.937-23.25-51.937-51.937 23.255-51.932 51.937-51.932 51.937 23.25 51.937 51.932m9.789 0c0 1.823-.118 3.62-.271 5.402l31.048-5.478c-2.959-15.053-15.314-29.819-30.131-29.819 0 0-3.917-.952-9.774-2.284a61.44 61.44 0 0 1 9.129 32.179zm-123.453 0c0-12.047 3.507-23.26 9.482-32.768-7.654 1.649-12.969 2.877-12.969 2.877-14.659 0-26.9 14.459-30.019 29.338l33.777 5.955c-.154-1.782-.271-3.584-.271-5.402z"/>
  <path fill="#fafafa" stroke="#000" stroke-linecap="round" stroke-miterlimit="1.5" stroke-width="5.12" d="M261.12 87.757v163.84a5.12 5.12 0 0 1-10.24 0V87.757a5.12 5.12 0 0 1 10.24 0"/>
  <path fill="#fafafa" stroke="#000" stroke-linecap="round" stroke-miterlimit="1.5" stroke-width="5.12" d="M128 52.296v161.649c0 3.43-2.294 6.216-5.12 6.216s-5.12-2.785-5.12-6.216V52.296c0-3.431 2.294-6.216 5.12-6.216s5.12 2.785 5.12 6.216" transform="matrix(1 0 0 .82353 13.5 18.728)"/>
  <path fill="#fafafa" stroke="#000" stroke-linecap="round" stroke-miterlimit="1.5" stroke-width="5.12" d="M128 52.296v161.649c0 3.43-2.294 6.216-5.12 6.216s-5.12-2.785-5.12-6.216V52.296c0-3.431 2.294-6.216 5.12-6.216s5.12 2.785 5.12 6.216" transform="matrix(1 0 0 .82353 38.5 18.728)"/>
</svg>
