<?xml version="1.0" encoding="UTF-8" standalone="no"?><!DOCTYPE svg PUBLIC "-//W3C//DTD SVG 1.1//EN" "http://www.w3.org/Graphics/SVG/1.1/DTD/svg11.dtd"><svg width="100%" height="100%" viewBox="0 0 417 417" version="1.1" xmlns="http://www.w3.org/2000/svg" xmlns:xlink="http://www.w3.org/1999/xlink" xml:space="preserve" xmlns:serif="http://www.serif.com/" style="fill-rule:evenodd;clip-rule:evenodd;stroke-linejoin:round;stroke-miterlimit:2;"><path d="M224.277,134.376c3.303,0.268 6.479,1.393 9.214,3.268l0.208,0.139c6.257,4.402 10.761,10.871 12.72,18.267c1.959,7.395 1.245,15.245 -2.011,22.169c-0.634,1.304 -0.863,2.769 -0.66,4.207l2.329,17.348c1.739,29.135 19.541,62.585 19.541,62.585l-0.002,-0c-1.393,16.597 -5.811,32.8 -13.039,47.806l18.672,5.668c7.528,-14.992 12.386,-31.183 14.36,-47.841c1.425,-16.377 -3.408,-36.367 -6.85,-48.05c-1.794,-5.897 -0.89,-12.284 2.469,-17.455c4.544,-6.708 8.146,-14.008 10.709,-21.694c1.433,-4.555 1.697,-9.398 0.765,-14.082c-5.25,-29.886 -21.392,-56.768 -45.303,-75.445c2.233,9.763 0.21,20.014 -5.563,28.197c-5.21,7.576 -13.237,12.748 -22.288,14.36c1.739,0.278 3.338,0.452 4.729,0.556l-0,-0.003Z" style="fill:#ccc;fill-rule:nonzero;stroke:#000;stroke-width:4.17px;"/><path d="M13.74,79.069l6.831,1.235l0,-0.002c5.394,0.976 10.517,3.09 15.027,6.203l4.166,2.876l0,0.002c2.17,1.497 4.719,2.352 7.353,2.465c2.634,0.112 5.246,-0.522 7.535,-1.831c3.718,-2.123 8.204,-2.421 12.171,-0.81c31.976,13.025 53.297,9.249 63.172,5.837c4.409,-1.546 9.22,-1.509 13.605,0.105c11.002,3.941 22.275,7.08 33.731,9.395c7.671,1.678 14.779,5.308 20.637,10.538c1.374,1.206 2.838,2.307 4.381,3.289c24.036,15.19 47.166,-19.601 24.535,-36.814c-0.16,-0.12 -0.317,-0.239 -0.477,-0.358c-5.185,-3.755 -11.124,-6.336 -17.405,-7.565c-41.959,-8.709 -126.223,-3.579 -142.501,-2.477c-1.876,0.127 -3.757,0.109 -5.631,-0.053l-20.98,-1.804c-2.632,-0.227 -5.283,-0.17 -7.905,0.17l-18.058,2.335l-0.002,0c-1.796,0.234 -3.156,1.741 -3.203,3.553c-0.045,1.812 1.238,3.387 3.021,3.708l-0.003,0.003Z" style="fill:#ccc;fill-rule:nonzero;stroke:#000;stroke-width:4.17px;"/><path d="M276.74,103.154c35.394,-16.933 71.937,-38.662 81.461,-44.399c1.603,-0.97 3.278,-1.818 5.007,-2.538l19.504,-7.997l0.002,0.002c2.44,-1.008 4.769,-2.268 6.951,-3.755l14.986,-10.362c1.534,-1.033 2.043,-3.055 1.182,-4.694c-0.808,-1.587 -2.64,-2.364 -4.346,-1.842l-5.181,1.599l0.002,0c-6.201,1.882 -12.731,2.428 -19.158,1.6l-3.512,-0.453c-0.599,-0.069 -1.202,-0.104 -1.808,-0.104c-4.732,-0.006 -9.144,2.391 -11.717,6.363c-2.346,3.585 -6.199,5.902 -10.466,6.293c-34.385,3.025 -51.631,16.133 -58.83,23.711l0.002,0c-3.316,3.426 -7.713,5.6 -12.448,6.155c-9.42,1.241 -18.757,3.063 -27.953,5.459c9.764,7.209 18.602,15.593 26.319,24.962l0.003,-0Z" style="fill:#ccc;fill-rule:nonzero;stroke:#000;stroke-width:4.17px;"/><path d="M190.034,216.967c-16.679,7.913 -29.999,14.761 -24.075,27.247c5.923,12.487 21.825,29.328 45.524,17.97c16.648,-7.978 29.851,-11.912 23.927,-24.396c-5.921,-12.489 -16.397,-34.569 -45.376,-20.821l-0,0Z" style="fill:#ccc;fill-rule:nonzero;stroke:#000;stroke-width:4.17px;"/><path d="M248.655,321.754c-3.34,6.129 -7.766,11.598 -13.063,16.143c-2.802,2.405 -4.258,6.021 -3.909,9.697l0.7,7.316c0.229,2.401 1.219,4.665 2.822,6.467c1.604,1.803 3.739,3.046 6.098,3.553l1.58,0.34l0,-0.002c1.97,0.423 4.017,0.315 5.932,-0.315c1.912,-0.63 3.624,-1.759 4.958,-3.269l2.358,-2.669c1.272,-1.438 2.155,-3.176 2.573,-5.05l2.186,-9.829c0.822,-3.698 2.009,-7.306 3.541,-10.77l2.679,-6.06l-18.428,-5.598l-0.027,0.046Z" style="fill:#ccc;fill-rule:nonzero;stroke:#000;stroke-width:4.17px;"/><path d="M27.28,321.706c-4.473,0 -8.762,1.776 -11.924,4.938c-3.162,3.164 -4.939,7.453 -4.939,11.924c0,4.473 1.777,8.761 4.939,11.923c3.162,3.162 7.451,4.94 11.924,4.94l7.707,-0l-0,23.398c-0,2.767 1.098,5.42 3.056,7.377c1.955,1.956 4.608,3.054 7.375,3.054l22.77,-0c3.35,-0 6.496,-1.608 8.455,-4.324l21.31,-29.505l122.253,-0l-0.626,-6.676c-0.628,-7.77 2.524,-15.368 8.468,-20.412c2.278,-1.994 4.346,-4.219 6.17,-6.637l-206.938,0Z" style="fill:#ccc;fill-rule:nonzero;stroke:#000;stroke-width:4.17px;"/><path d="M389.114,321.706l-106.216,0l-7.337,16.586l0,-0.002c-1.223,2.722 -2.153,5.567 -2.781,8.483l-1.913,8.658l47.573,0l21.31,29.506c1.962,2.716 5.107,4.323 8.455,4.323l22.772,0c2.765,0 5.418,-1.098 7.375,-3.055c1.956,-1.956 3.054,-4.608 3.054,-7.376l0,-23.398l7.709,0c4.471,0 8.76,-1.777 11.922,-4.939c3.164,-3.162 4.939,-7.451 4.939,-11.923l0,-0.002c0,-4.471 -1.775,-8.759 -4.939,-11.923c-3.162,-3.162 -7.451,-4.938 -11.922,-4.938l-0.001,0Z" style="fill:#ccc;fill-rule:nonzero;stroke:#000;stroke-width:4.17px;"/></svg>