<svg xmlns="http://www.w3.org/2000/svg" xml:space="preserve" width="512" height="512" fill-rule="evenodd" stroke-linejoin="round" stroke-miterlimit="2" clip-rule="evenodd" viewBox="0 0 512 512">
  <path fill="#ccc" stroke="#000" stroke-width="5.12" d="M212.899 378.179a7519 7519 0 0 1-17.759-.038 91.66 91.66 0 0 1-34.265-74.94 115.4 115.4 0 0 1 1.411-17.879 7.594 7.594 0 0 1 12.278-4.549c1.817 1.489 3.52 2.993 5.151 4.44 4.948 4.385 8.131 7.073 11.045 7.073a6.7 6.7 0 0 0 3.271-.847 10.9 10.9 0 0 0 3.935-13.33c-23.692-51.662 13.914-70.251 14.297-70.433a7.6 7.6 0 0 1 10.337 4.106 7.6 7.6 0 0 1-.238 6.061 5.82 5.82 0 0 0-.716 4.392c2.316 6.242 14.998 2.903 17.962-.983 4.881-6.406 2.669-19.853 1.513-24.058-11.323-39.456 27.853-64.485 29.525-65.531a7.598 7.598 0 0 1 11.188 3.9 7.6 7.6 0 0 1-.701 6.533c-6.245 10.095-3.686 23.346-.44 32.681a86.3 86.3 0 0 0 7.803 15.306 84.1 84.1 0 0 1 10.165 21.684 63.4 63.4 0 0 1 1.09 30.385l-.453 2.211c-1.424 6.83-2.895 13.896.226 18.379a3.224 3.224 0 0 0 5.051.956 45.9 45.9 0 0 0 11.611-15.894 7.684 7.684 0 0 1 12.347-4.295c24.326 20.971 26.172 58.008 17.241 85.436a96.34 96.34 0 0 1-37.466 49.263c-6.061.005-12.347.007-18.716.009a52.7 52.7 0 0 0 10.386-18.448c4.462-14.609 3.074-34.26-10.073-45.234l-.022-.02a7.6 7.6 0 0 0-10.684.997 27.6 27.6 0 0 0-2.043 4.027l.296-1.572a34.6 34.6 0 0 0-.804-16.421 44 44 0 0 0-5.448-11.361 38.6 38.6 0 0 1-3.497-6.598 16.04 16.04 0 0 1-.323-12.513 7.597 7.597 0 0 0-10.745-10.185c-.894.593-21.762 14.753-15.262 36.353.9 2.704.906 5.627.018 8.338a1.47 1.47 0 0 1-.805.359 7.597 7.597 0 0 0-10.984-7.773c-7.444 3.805-18.714 16.923-8.095 39.312.072.374.05.762-.064 1.128-.696-.495-1.676-1.336-2.448-1.995a79 79 0 0 0-2.621-2.184 7.592 7.592 0 0 0-12.202 4.734 60 60 0 0 0-.6 9.28c-.064 11.254 3.343 21.584 9.327 29.738Z"/>
  <path fill="#ccc" fill-rule="nonzero" stroke="#000" stroke-width="5.12" d="M162.608 487.871a19.117 19.117 0 0 0 25.09 9.307l68.096-30.617s67.936 30.549 68.014 30.582v-.001a18.992 18.992 0 0 0 15.867-34.509l-37.577-16.896 37.665-16.938a19 19 0 0 0 10.902-15.494 18.99 18.99 0 0 0-26.774-19.013l-68.1 30.623s-67.936-30.555-68.006-30.582h-.001a18.52 18.52 0 0 0-25.174 9.258 19.05 19.05 0 0 0 9.304 25.248l37.576 16.897-37.657 16.934a19.02 19.02 0 0 0-9.226 25.201zm327.286-206.708a645.5 645.5 0 0 1-120.186-94.673v-21.837a7.594 7.594 0 0 0-11.393-6.577 7.6 7.6 0 0 0-3.798 6.577v6.194a631.5 631.5 0 0 1-91.148-122.17V20.342a7.595 7.595 0 1 0-15.191 0v28.331c-13.526 24.652-85.59 146.91-226.521 232.492a19.4 19.4 0 0 0-8.659 19.289l10.592 55.772a26.69 26.69 0 0 0 25.574 21.103h45.208l-9.259-36.089a7.594 7.594 0 0 1 14.717-3.776l10.229 39.865h62.081a108 108 0 0 1-26.475-74.423c.027-6.785.577-13.556 1.644-20.258a22.78 22.78 0 0 1 10.968-15.674 22.78 22.78 0 0 1 19.047-1.788c-10.188-41.862 15.802-65.235 28.39-71.227a23.1 23.1 0 0 1 9.787-2.208 22.8 22.8 0 0 1 9.234 1.94c-6.149-36.321 20.209-63.886 37.833-74.908a22.785 22.785 0 0 1 31.455 31.312c-2.381 3.846-2.017 11.026.995 19.692l.001.002a75 75 0 0 0 6.516 12.542 97.5 97.5 0 0 1 11.801 25.594 84.7 84.7 0 0 1 2.916 19.904 23 23 0 0 1 7.515-1.26 22.47 22.47 0 0 1 14.664 5.437c29.593 25.508 32.256 69.428 21.766 101.645h.001a110.1 110.1 0 0 1-27.24 43.676h67.723l11.072-40.002a7.598 7.598 0 0 1 14.643 4.051l-9.951 35.952h45.936a26.705 26.705 0 0 0 25.575-21.105l10.591-55.769a19.4 19.4 0 0 0-8.655-19.287z"/>
</svg>
