<?xml version="1.0" encoding="UTF-8" standalone="no"?><!DOCTYPE svg PUBLIC "-//W3C//DTD SVG 1.1//EN" "http://www.w3.org/Graphics/SVG/1.1/DTD/svg11.dtd"><svg width="100%" height="100%" viewBox="0 0 417 417" version="1.1" xmlns="http://www.w3.org/2000/svg" xmlns:xlink="http://www.w3.org/1999/xlink" xml:space="preserve" xmlns:serif="http://www.serif.com/" style="fill-rule:evenodd;clip-rule:evenodd;stroke-linejoin:round;stroke-miterlimit:2;"><path d="M173.396,308.009c-6.751,-0.009 -11.849,-0.02 -14.464,-0.031c-9.092,-7.29 -16.353,-16.604 -21.199,-27.205c-4.845,-10.6 -7.142,-22.185 -6.708,-33.83c0.004,-4.877 0.388,-9.746 1.149,-14.562c0.385,-2.159 1.885,-3.951 3.941,-4.713c2.055,-0.76 4.361,-0.378 6.059,1.008c1.48,1.213 2.867,2.438 4.195,3.616c4.03,3.571 6.622,5.761 8.996,5.761c0.933,0.001 1.849,-0.235 2.664,-0.69c1.714,-1.154 2.973,-2.868 3.558,-4.85c0.585,-1.983 0.46,-4.107 -0.353,-6.007c-19.296,-42.076 11.332,-57.216 11.644,-57.364c1.551,-0.736 3.34,-0.795 4.937,-0.161c1.597,0.634 2.859,1.903 3.482,3.505c0.623,1.601 0.553,3.388 -0.194,4.936c-0.661,1.067 -0.87,2.354 -0.583,3.577c1.886,5.084 12.215,2.364 14.629,-0.801c3.975,-5.217 2.174,-16.169 1.232,-19.594c-9.222,-32.135 22.685,-52.52 24.047,-53.372c1.589,-0.995 3.546,-1.215 5.318,-0.598c1.772,0.617 3.166,2.005 3.794,3.774c0.626,1.768 0.417,3.725 -0.571,5.321c-5.086,8.222 -3.002,19.014 -0.358,26.617c1.698,4.356 3.827,8.531 6.355,12.466c3.588,5.462 6.375,11.409 8.279,17.661c2.299,8.055 2.603,16.548 0.888,24.747l-0.369,1.801c-1.16,5.563 -2.358,11.318 0.184,14.969c0.366,0.737 1.056,1.259 1.864,1.412c0.808,0.153 1.64,-0.081 2.25,-0.633c4.052,-3.58 7.279,-7.996 9.457,-12.945c0.471,-2.118 2.004,-3.841 4.053,-4.554c2.048,-0.712 4.32,-0.313 6.003,1.056c19.812,17.08 21.316,47.245 14.042,69.584c-5.481,16.366 -16.206,30.468 -30.514,40.122c-4.936,0.004 -10.056,0.006 -15.243,0.007c3.786,-4.358 6.675,-9.463 8.459,-15.025c3.634,-11.898 2.504,-27.903 -8.204,-36.841l-0.018,-0.016c-1.263,-1.045 -2.888,-1.546 -4.519,-1.394c-1.631,0.152 -3.135,0.946 -4.183,2.206c-0.643,1.047 -1.2,2.143 -1.664,3.28l0.241,-1.28c0.859,-4.446 0.634,-9.034 -0.655,-13.374c-1.028,-3.282 -2.522,-6.398 -4.437,-9.253c-1.121,-1.694 -2.075,-3.495 -2.848,-5.374c-1.465,-3.22 -1.559,-6.898 -0.263,-10.191c0.955,-1.62 1.123,-3.587 0.454,-5.343c-0.669,-1.758 -2.102,-3.117 -3.892,-3.69c-1.792,-0.574 -3.747,-0.302 -5.313,0.738c-0.728,0.483 -17.724,12.016 -12.43,29.608c0.733,2.202 0.738,4.583 0.015,6.791c-0.183,0.163 -0.411,0.265 -0.656,0.292c0.201,-1.499 -0.154,-3.019 -1,-4.275c-0.844,-1.254 -2.118,-2.156 -3.582,-2.535c-1.464,-0.379 -3.016,-0.208 -4.364,0.479c-6.063,3.099 -15.242,13.783 -6.593,32.018c0.059,0.305 0.041,0.621 -0.052,0.919c-0.567,-0.403 -1.365,-1.088 -1.994,-1.625c-0.676,-0.583 -1.383,-1.185 -2.135,-1.779c-1.72,-1.359 -4.029,-1.706 -6.072,-0.913c-2.042,0.792 -3.513,2.607 -3.866,4.769c-0.357,2.503 -0.521,5.03 -0.489,7.558c-0.052,9.166 2.723,17.579 7.596,24.22Z" style="fill:#ccc;stroke:#000;stroke-width:4.17px;"/><path d="M132.437,397.348c1.736,3.687 4.849,6.545 8.67,7.963c3.82,1.416 8.045,1.28 11.765,-0.383l55.461,-24.936c-0,-0 55.331,24.881 55.394,24.908l0,-0.001c5.021,2.308 10.891,1.763 15.401,-1.431c4.509,-3.195 6.972,-8.551 6.46,-14.054c-0.51,-5.502 -3.919,-10.313 -8.938,-12.621l-30.605,-13.761l30.676,-13.795c4.996,-2.325 8.378,-7.132 8.879,-12.619c0.5,-5.487 -1.957,-10.826 -6.448,-14.016c-4.493,-3.19 -10.344,-3.75 -15.358,-1.469l-55.464,24.941c0,0 -55.331,-24.886 -55.388,-24.908l-0.001,0c-3.704,-1.823 -7.993,-2.049 -11.867,-0.625c-3.875,1.426 -6.997,4.376 -8.636,8.165c-1.717,3.732 -1.884,7.994 -0.463,11.849c1.421,3.854 4.312,6.989 8.041,8.714l30.604,13.762l-30.67,13.792c-3.711,1.732 -6.587,4.864 -7.995,8.711c-1.409,3.847 -1.236,8.095 0.481,11.814l0.001,-0Z" style="fill:#ccc;fill-rule:nonzero;stroke:#000;stroke-width:4.17px;"/><path d="M398.996,228.994c-35.569,-21.731 -68.43,-47.615 -97.886,-77.107l0,-17.785c0,-2.21 -1.178,-4.251 -3.093,-5.357c-1.913,-1.104 -4.27,-1.104 -6.186,0c-1.914,1.106 -3.093,3.147 -3.093,5.357l0,5.045c-28.673,-30.048 -53.599,-63.458 -74.236,-99.502l-0,-23.077c-0,-2.21 -1.179,-4.252 -3.093,-5.357c-1.914,-1.105 -4.272,-1.105 -6.186,-0c-1.914,1.106 -3.093,3.147 -3.093,5.357l-0,23.074c-11.017,20.078 -69.71,119.651 -184.491,189.354c-2.569,1.655 -4.604,4.02 -5.856,6.809c-1.252,2.788 -1.667,5.88 -1.196,8.901l8.627,45.424c1.026,4.793 3.642,9.099 7.424,12.219c3.781,3.12 8.504,4.87 13.405,4.968l36.82,-0l-7.541,-29.393c-0.543,-2.139 0.093,-4.406 1.671,-5.95c1.578,-1.543 3.859,-2.128 5.986,-1.535c2.127,0.593 3.776,2.273 4.329,4.41l8.331,32.468l50.561,-0c-14.585,-16.755 -22.288,-38.41 -21.563,-60.614c0.022,-5.526 0.47,-11.041 1.339,-16.499c0.959,-5.36 4.225,-10.028 8.933,-12.766c4.706,-2.739 10.378,-3.271 15.513,-1.456c-8.298,-34.095 12.87,-53.131 23.122,-58.011c2.492,-1.177 5.214,-1.79 7.971,-1.798c2.59,-0.002 5.152,0.535 7.521,1.58c-5.008,-29.582 16.459,-52.032 30.813,-61.009c4.772,-2.986 10.641,-3.644 15.956,-1.79c5.315,1.854 9.501,6.021 11.38,11.328c1.879,5.306 1.247,11.179 -1.717,15.964c-1.939,3.132 -1.643,8.98 0.81,16.038l0.001,0.002c1.443,3.563 3.221,6.984 5.307,10.215c4.196,6.446 7.434,13.467 9.611,20.845c1.433,5.289 2.23,10.732 2.375,16.211c1.969,-0.681 4.037,-1.028 6.121,-1.026c4.383,-0.003 8.621,1.569 11.943,4.428c24.102,20.775 26.271,56.546 17.727,82.785l0.001,-0c-4.481,13.443 -12.084,25.634 -22.186,35.572l55.157,0l9.018,-32.58c0.592,-2.126 2.273,-3.777 4.41,-4.33c2.138,-0.553 4.407,0.074 5.958,1.648c1.549,1.572 2.143,3.852 1.558,5.981l-8.105,29.281l37.413,0c4.901,-0.098 9.626,-1.849 13.408,-4.969c3.781,-3.12 6.396,-7.428 7.422,-12.22l8.626,-45.421c0.471,-3.02 0.055,-6.11 -1.197,-8.899c-1.251,-2.788 -3.284,-5.152 -5.852,-6.809l0.002,-0.004Z" style="fill:#ccc;fill-rule:nonzero;stroke:#000;stroke-width:4.17px;"/></svg>