<?xml version="1.0" encoding="UTF-8" standalone="no"?><!DOCTYPE svg PUBLIC "-//W3C//DTD SVG 1.1//EN" "http://www.w3.org/Graphics/SVG/1.1/DTD/svg11.dtd"><svg width="100%" height="100%" viewBox="0 0 417 417" version="1.1" xmlns="http://www.w3.org/2000/svg" xmlns:xlink="http://www.w3.org/1999/xlink" xml:space="preserve" xmlns:serif="http://www.serif.com/" style="fill-rule:evenodd;clip-rule:evenodd;stroke-linejoin:round;stroke-miterlimit:2;"><g><path d="M294.522,169.166c-0,21.37 17.385,38.76 38.76,38.76c21.375,-0 38.76,-17.39 38.76,-38.76c0,-21.371 -17.385,-38.761 -38.76,-38.761c-21.375,0 -38.76,17.39 -38.76,38.761Z" style="fill:#ccc;fill-rule:nonzero;stroke:#000;stroke-width:4.17px;"/><path d="M118.853,237.463c7.526,5.34 13.472,9.557 26.428,9.557c12.953,0 18.895,-4.217 26.42,-9.557c8.457,-5.999 18.041,-12.802 36.601,-12.802c18.564,-0 28.152,6.799 36.609,12.802c7.525,5.34 13.472,9.557 26.433,9.557c12.961,0 18.907,-4.217 26.432,-9.557c4.042,-2.867 8.374,-5.897 13.788,-8.303c-16.224,-28.24 -72.432,-126.142 -72.432,-126.142c-0.866,-1.609 -0.923,-3.487 -0.158,-5.15c0.765,-1.658 2.225,-2.836 3.976,-3.219l70.448,-14.166c12.104,-2.652 20.249,-14.338 18.547,-26.613c-1.852,-13.34 -14.844,-22.875 -28.478,-20.104l-101.947,22.888c-9.078,1.856 -16.383,7.164 -20.566,14.953c-4.314,8.027 -4.701,17.808 -1.033,26.908l26.665,60.517l-110.849,67.071c10.252,2.305 17.007,7.024 23.116,11.36Z" style="fill:#ccc;fill-rule:nonzero;stroke:#000;stroke-width:4.17px;"/></g><g><path d="M397.45,317.399c-12.961,0 -18.907,-4.218 -26.437,-9.557c-8.462,-5.999 -18.05,-12.803 -36.618,-12.803c-18.565,0 -28.152,6.8 -36.614,12.803c-7.53,5.339 -13.476,9.557 -26.433,9.557c-12.957,0 -18.903,-4.218 -26.432,-9.557c-8.458,-5.999 -18.05,-12.803 -36.61,-12.803c-18.56,0 -28.143,6.8 -36.601,12.803c-7.525,5.339 -13.471,9.557 -26.419,9.557c-12.957,0 -18.903,-4.218 -26.428,-9.557c-8.458,-5.999 -18.046,-12.803 -36.61,-12.803c-18.564,0 -28.148,6.8 -36.605,12.803c-7.53,5.339 -13.476,9.557 -26.428,9.557c-4.856,0 -8.796,3.941 -8.796,8.796c-0,4.856 3.94,8.796 8.796,8.796c18.56,0 28.148,-6.799 36.605,-12.802c7.525,-5.34 13.471,-9.558 26.428,-9.558c12.957,0 18.903,4.218 26.428,9.558c8.458,5.999 18.046,12.802 36.61,12.802c18.56,0 28.143,-6.799 36.601,-12.802c7.525,-5.34 13.471,-9.558 26.423,-9.558c12.957,0 18.903,4.218 26.433,9.558c8.457,5.999 18.05,12.802 36.61,12.802c18.564,0 28.152,-6.799 36.614,-12.802c7.529,-5.34 13.475,-9.558 26.432,-9.558c12.961,0 18.907,4.218 26.437,9.558c8.462,5.999 18.05,12.802 36.618,12.802c4.856,0 8.797,-3.94 8.797,-8.796c-0,-4.855 -3.946,-8.796 -8.801,-8.796Z" style="fill:#ccc;fill-rule:nonzero;stroke:#000;stroke-width:4.17px;"/><path d="M397.45,269.011c-12.961,-0 -18.907,-4.218 -26.437,-9.557c-8.462,-5.999 -18.05,-12.803 -36.618,-12.803c-18.565,0 -28.152,6.799 -36.614,12.803c-7.53,5.339 -13.476,9.557 -26.433,9.557c-12.957,-0 -18.903,-4.218 -26.432,-9.557c-8.458,-5.999 -18.05,-12.803 -36.61,-12.803c-18.56,0 -28.143,6.799 -36.601,12.803c-7.525,5.339 -13.471,9.557 -26.419,9.557c-12.957,-0 -18.903,-4.218 -26.428,-9.557c-8.458,-5.999 -18.046,-12.803 -36.61,-12.803c-18.564,0 -28.148,6.799 -36.605,12.803c-7.53,5.339 -13.476,9.557 -26.428,9.557c-4.856,-0 -8.796,3.941 -8.796,8.796c-0,4.856 3.94,8.796 8.796,8.796c18.56,0 28.148,-6.799 36.605,-12.803c7.525,-5.339 13.471,-9.557 26.428,-9.557c12.957,0 18.903,4.218 26.428,9.557c8.458,5.999 18.046,12.803 36.61,12.803c18.56,0 28.143,-6.799 36.601,-12.803c7.525,-5.339 13.471,-9.557 26.423,-9.557c12.957,0 18.903,4.218 26.433,9.557c8.457,5.999 18.05,12.803 36.61,12.803c18.564,0 28.152,-6.799 36.614,-12.803c7.529,-5.339 13.475,-9.557 26.432,-9.557c12.961,0 18.907,4.218 26.437,9.557c8.462,5.999 18.05,12.803 36.618,12.803c4.856,0 8.797,-3.94 8.797,-8.796c-0,-4.855 -3.946,-8.796 -8.801,-8.796Z" style="fill:#ccc;fill-rule:nonzero;stroke:#000;stroke-width:4.17px;"/><path d="M397.45,365.787c-12.961,0 -18.907,-4.217 -26.437,-9.557c-8.462,-5.999 -18.05,-12.803 -36.618,-12.803c-18.565,0 -28.152,6.8 -36.614,12.803c-7.53,5.34 -13.476,9.557 -26.433,9.557c-12.957,0 -18.903,-4.217 -26.432,-9.557c-8.458,-5.999 -18.05,-12.803 -36.61,-12.803c-18.56,0 -28.143,6.8 -36.601,12.803c-7.525,5.34 -13.471,9.557 -26.419,9.557c-12.957,0 -18.903,-4.217 -26.428,-9.557c-8.458,-5.999 -18.046,-12.803 -36.61,-12.803c-18.564,0 -28.148,6.8 -36.605,12.803c-7.53,5.34 -13.476,9.557 -26.428,9.557c-4.856,0 -8.796,3.941 -8.796,8.796c-0,4.856 3.94,8.797 8.796,8.797c18.56,-0 28.148,-6.8 36.605,-12.803c7.525,-5.339 13.471,-9.557 26.428,-9.557c12.957,-0 18.903,4.218 26.428,9.557c8.458,5.999 18.046,12.803 36.61,12.803c18.56,-0 28.143,-6.8 36.601,-12.803c7.525,-5.339 13.471,-9.557 26.423,-9.557c12.957,-0 18.903,4.218 26.433,9.557c8.457,5.999 18.05,12.803 36.61,12.803c18.564,-0 28.152,-6.8 36.614,-12.803c7.529,-5.339 13.475,-9.557 26.432,-9.557c12.961,-0 18.907,4.218 26.437,9.557c8.462,5.999 18.05,12.803 36.618,12.803c4.856,-0 8.797,-3.941 8.797,-8.797c-0,-4.855 -3.946,-8.796 -8.801,-8.796Z" style="fill:#ccc;fill-rule:nonzero;stroke:#000;stroke-width:4.17px;"/></g></svg>