<svg xmlns="http://www.w3.org/2000/svg" xml:space="preserve" width="512" height="512" fill-rule="evenodd" stroke-linejoin="round" stroke-miterlimit="2" clip-rule="evenodd" viewBox="0 0 512 512">
  <g fill="#ccc" fill-rule="nonzero" stroke="#000" stroke-width="5.12">
    <path d="M361.619 207.705c0 26.238 21.346 47.59 47.59 47.59s47.59-21.352 47.59-47.59c0-26.24-21.346-47.591-47.59-47.591s-47.59 21.352-47.59 47.591Z"/>
    <path d="M145.93 291.561c9.241 6.557 16.541 11.734 32.449 11.734 15.904 0 23.2-5.178 32.439-11.734 10.384-7.366 22.151-15.719 44.939-15.719 22.793 0 34.566 8.348 44.949 15.719 9.239 6.557 16.541 11.734 32.455 11.734s23.214-5.178 32.454-11.734c4.963-3.52 10.282-7.24 16.929-10.195a1167867 1167867 0 0 1-88.933-154.879 7.04 7.04 0 0 1-.194-6.323 7.02 7.02 0 0 1 4.882-3.952l86.497-17.393c14.862-3.256 24.862-17.604 22.772-32.676-2.274-16.379-18.226-28.086-34.966-24.684L247.43 69.561c-11.146 2.279-20.115 8.796-25.251 18.36-5.297 9.856-5.772 21.865-1.268 33.038l32.74 74.304-136.102 82.351c12.588 2.83 20.881 8.624 28.382 13.948Z"/>
  </g>
  <path fill="#ccc" fill-rule="nonzero" stroke="#000" stroke-width="5.12" d="M487.996 389.708c-15.914 0-23.214-5.179-32.46-11.734-10.39-7.366-22.162-15.72-44.96-15.72-22.794 0-34.566 8.349-44.955 15.72-9.245 6.555-16.546 11.734-32.455 11.734s-23.209-5.179-32.454-11.734c-10.385-7.366-22.162-15.72-44.95-15.72s-34.554 8.349-44.939 15.72c-9.239 6.555-16.54 11.734-32.438 11.734-15.909 0-23.209-5.179-32.449-11.734-10.385-7.366-22.157-15.72-44.95-15.72s-34.561 8.349-44.944 15.72c-9.245 6.555-16.546 11.734-32.449 11.734-5.962 0-10.8 4.839-10.8 10.8a10.805 10.805 0 0 0 10.8 10.8c22.788 0 34.561-8.348 44.944-15.719 9.239-6.557 16.54-11.735 32.449-11.735s23.209 5.179 32.449 11.735c10.385 7.366 22.157 15.719 44.95 15.719 22.788 0 34.554-8.348 44.939-15.719 9.239-6.557 16.54-11.735 32.443-11.735 15.909 0 23.209 5.179 32.455 11.735 10.384 7.366 22.162 15.719 44.95 15.719 22.793 0 34.566-8.348 44.955-15.719 9.244-6.557 16.545-11.735 32.454-11.735 15.914 0 23.214 5.179 32.46 11.735 10.39 7.366 22.162 15.719 44.96 15.719 5.962 0 10.801-4.838 10.801-10.8s-4.845-10.8-10.806-10.8Zm0-59.412c-15.914 0-23.214-5.179-32.46-11.734-10.39-7.366-22.162-15.72-44.96-15.72-22.794 0-34.566 8.348-44.955 15.72-9.245 6.555-16.546 11.734-32.455 11.734s-23.209-5.179-32.454-11.734c-10.385-7.366-22.162-15.72-44.95-15.72s-34.554 8.348-44.939 15.72c-9.239 6.555-16.54 11.734-32.438 11.734-15.909 0-23.209-5.179-32.449-11.734-10.385-7.366-22.157-15.72-44.95-15.72s-34.561 8.348-44.945 15.72c-9.245 6.555-16.546 11.734-32.449 11.734-5.962 0-10.8 4.839-10.8 10.8a10.805 10.805 0 0 0 10.8 10.8c22.788 0 34.561-8.348 44.944-15.72 9.239-6.555 16.54-11.734 32.449-11.734s23.209 5.179 32.449 11.734c10.385 7.366 22.157 15.72 44.95 15.72 22.788 0 34.554-8.348 44.939-15.72 9.239-6.555 16.54-11.734 32.443-11.734 15.909 0 23.209 5.179 32.455 11.734 10.384 7.366 22.162 15.72 44.95 15.72 22.793 0 34.566-8.348 44.955-15.72 9.244-6.555 16.545-11.734 32.454-11.734 15.914 0 23.214 5.179 32.46 11.734 10.39 7.366 22.162 15.72 44.96 15.72 5.962 0 10.801-4.838 10.801-10.8s-4.845-10.8-10.806-10.8Zm0 118.823c-15.914 0-23.214-5.178-32.46-11.734-10.39-7.366-22.162-15.72-44.96-15.72-22.794 0-34.566 8.349-44.955 15.72-9.245 6.557-16.546 11.734-32.455 11.734s-23.209-5.178-32.454-11.734c-10.385-7.366-22.162-15.72-44.95-15.72s-34.554 8.349-44.939 15.72c-9.239 6.557-16.54 11.734-32.438 11.734-15.909 0-23.209-5.178-32.449-11.734-10.385-7.366-22.157-15.72-44.95-15.72s-34.561 8.349-44.944 15.72c-9.245 6.557-16.546 11.734-32.449 11.734-5.962 0-10.8 4.839-10.8 10.8s4.838 10.801 10.8 10.801c22.788 0 34.561-8.349 44.944-15.72 9.239-6.555 16.54-11.734 32.449-11.734s23.209 5.179 32.449 11.734c10.385 7.366 22.157 15.72 44.95 15.72 22.788 0 34.554-8.349 44.939-15.72 9.239-6.555 16.54-11.734 32.443-11.734 15.909 0 23.209 5.179 32.455 11.734 10.384 7.366 22.162 15.72 44.95 15.72 22.793 0 34.566-8.349 44.955-15.72 9.244-6.555 16.545-11.734 32.454-11.734 15.914 0 23.214 5.179 32.46 11.734 10.39 7.366 22.162 15.72 44.96 15.72 5.962 0 10.801-4.839 10.801-10.801s-4.845-10.8-10.806-10.8Z"/>
</svg>
