<svg xmlns="http://www.w3.org/2000/svg" xml:space="preserve" width="512" height="512" fill-rule="evenodd" stroke-linejoin="round" stroke-miterlimit="2" clip-rule="evenodd" viewBox="0 0 512 512">
  <path fill="#ccc" fill-rule="nonzero" stroke="#000" stroke-width="5.12" d="M267.458 80.27c18.493 0 33.496-15.112 33.496-33.747 0-18.628-15.003-33.734-33.496-33.734-18.481 0-33.465 15.101-33.465 33.734.002 18.635 14.984 33.747 33.465 33.747Zm-22.542 226.039v-13.03l-51.773 27.216-7.178 178.192h30.621l16.84-134.328 8.876 29.115 7.023 105.325h31.599l5.266-143.944-6.036-67.073zM285.656 96.8l-67.566-.255-3.57 26.482 30.395 15.98V125.97l24.885 13.085 9.697 13.111 85.18 111.201 19.557-17.841zm127.889 119.345-57.022-29.981 29.469 44.464z"/>
  <path fill="#ccc" fill-rule="nonzero" stroke="#000" stroke-width="5.12" d="m344.215 252.593-76.71-100.143-9.662-5.078v13.037l-57.49-30.223v15.63l-70.613-37.122v98.531H98.044v18.988h31.696v97.377l70.613-37.122v15.631l57.49-30.225v13.032l51.06-26.844v13.092z"/>
</svg>
