<?xml version="1.0" encoding="UTF-8" standalone="no"?>
<!DOCTYPE svg PUBLIC "-//W3C//DTD SVG 1.1//EN" "http://www.w3.org/Graphics/SVG/1.1/DTD/svg11.dtd">
<svg width="100%" height="100%" viewBox="0 0 100 100" version="1.1" xmlns="http://www.w3.org/2000/svg" xmlns:xlink="http://www.w3.org/1999/xlink" xml:space="preserve" xmlns:serif="http://www.serif.com/" style="fill-rule:evenodd;clip-rule:evenodd;">
    <g>
        <path d="M50.028,18.972C28.378,18.972 10.763,36.587 10.763,58.237C10.763,79.888 28.378,97.503 50.028,97.503C71.679,97.503 89.294,79.889 89.294,58.237C89.294,36.587 71.679,18.972 50.028,18.972ZM68.014,36.281C68.719,34.918 70.39,34.38 71.762,35.084L71.928,35.168C73.292,35.873 73.83,37.551 73.116,38.915C72.625,39.88 71.651,40.427 70.649,40.427C70.212,40.427 69.777,40.325 69.37,40.112L69.212,40.029C67.838,39.323 67.31,37.645 68.014,36.281ZM48.989,26.43L49.165,26.374C50.631,25.901 52.198,26.708 52.672,28.173C53.135,29.63 52.338,31.197 50.872,31.67L50.695,31.726C50.408,31.819 50.12,31.866 49.842,31.866C48.663,31.866 47.569,31.114 47.189,29.936C46.726,28.47 47.523,26.903 48.989,26.43ZM26.782,36.401L26.865,36.234C27.57,34.871 29.249,34.341 30.613,35.047C31.976,35.752 32.514,37.43 31.81,38.794L31.726,38.961C31.226,39.917 30.251,40.463 29.249,40.463C28.823,40.463 28.377,40.361 27.969,40.148C26.606,39.444 26.077,37.765 26.782,36.401ZM21.625,60.973C21.337,61.067 21.05,61.104 20.771,61.104C19.593,61.104 18.499,60.352 18.127,59.173L18.071,58.998C17.598,57.532 18.405,55.965 19.871,55.5C21.337,55.028 22.904,55.835 23.368,57.3L23.424,57.477C23.897,58.942 23.081,60.51 21.625,60.973ZM31.856,80.185C31.364,81.139 30.39,81.697 29.37,81.697C28.944,81.697 28.516,81.594 28.108,81.39L27.941,81.307C26.577,80.611 26.03,78.932 26.735,77.56C27.431,76.196 29.11,75.658 30.473,76.353L30.64,76.437C32.014,77.132 32.552,78.812 31.856,80.185ZM50.863,90.045L50.687,90.1C50.409,90.193 50.121,90.231 49.843,90.231C48.664,90.231 47.57,89.48 47.19,88.292C46.726,86.836 47.533,85.269 48.999,84.795L49.175,84.739C50.632,84.266 52.199,85.083 52.673,86.549C53.135,88.004 52.328,89.57 50.863,90.045ZM73.088,80.055L73.004,80.221C72.513,81.186 71.529,81.733 70.519,81.733C70.092,81.733 69.666,81.641 69.257,81.436C67.894,80.732 67.346,79.053 68.042,77.69L68.125,77.522C68.831,76.159 70.509,75.611 71.873,76.306C73.245,77.012 73.783,78.69 73.088,80.055ZM50.028,82.311C36.197,82.311 25.955,72.059 25.955,58.237C25.955,44.407 36.197,34.155 50.028,34.155C63.859,34.155 74.101,44.406 74.101,58.237C74.101,72.059 63.858,82.311 50.028,82.311ZM79.989,60.973C79.711,61.067 79.423,61.104 79.144,61.104C77.966,61.104 76.872,60.352 76.492,59.173L76.436,58.998C75.962,57.532 76.78,55.965 78.236,55.5C79.702,55.028 81.269,55.835 81.732,57.3L81.788,57.477C82.262,58.942 81.455,60.51 79.989,60.973Z" style="fill:rgb(204,204,204);fill-rule:nonzero;stroke:black;stroke-width:1px;"/>
        <path d="M61.93,10.039L52.812,10.039L52.812,5.285C52.812,3.748 51.567,2.502 50.029,2.502C48.492,2.502 47.246,3.748 47.246,5.285L47.246,10.039L38.136,10.039C30.623,10.039 24.51,16.152 24.51,23.665C24.51,24.045 24.529,24.426 24.566,24.796C31.634,19.398 40.465,16.188 50.028,16.188C59.592,16.188 68.422,19.397 75.491,24.796C75.527,24.425 75.546,24.045 75.546,23.665C75.546,16.152 69.433,10.039 61.93,10.039Z" style="fill:rgb(204,204,204);fill-rule:nonzero;stroke:black;stroke-width:1px;"/>
        <path d="M96.167,54.935L96.167,62.161C96.167,66.4 93.578,70.056 89.896,71.624C91.307,67.421 92.077,62.913 92.077,58.237C92.077,53.831 91.39,49.583 90.129,45.586C93.68,47.198 96.167,50.779 96.167,54.935Z" style="fill:rgb(204,204,204);fill-rule:nonzero;stroke:black;stroke-width:1px;"/>
        <path d="M10.169,71.641C6.449,70.092 3.833,66.428 3.833,62.161L3.833,54.935C3.833,50.762 6.347,47.153 9.937,45.548C8.666,49.555 7.98,53.813 7.98,58.236C7.98,62.922 8.75,67.43 10.169,71.641Z" style="fill:rgb(204,204,204);fill-rule:nonzero;stroke:black;stroke-width:1px;"/>
    </g>
    <g id="Layer1">
        <g transform="matrix(1.1424,0,0,1.1424,-9.4088,-6.00759)">
            <path d="M58.893,49.372L67.385,49.372C65.517,45.724 62.538,42.743 58.893,40.872L58.893,49.372Z" style="fill:rgb(204,204,204);fill-rule:nonzero;stroke:black;stroke-width:1px;"/>
        </g>
        <g transform="matrix(1.1424,0,0,1.1424,-7.124,-6.00759)">
            <path d="M46.732,49.372L53.326,49.372L53.326,39.021C52.252,38.836 51.154,38.72 50.028,38.72C48.903,38.72 47.805,38.837 46.732,39.021L46.732,49.372Z" style="fill:rgb(204,204,204);fill-rule:nonzero;stroke:black;stroke-width:1px;"/>
        </g>
        <g transform="matrix(1.1424,0,0,1.1424,-7.124,-8.29239)">
            <rect x="46.732" y="54.938" width="6.594" height="6.595" style="fill:rgb(204,204,204);stroke:black;stroke-width:1px;"/>
        </g>
        <g transform="matrix(1.1424,0,0,1.1424,-9.4088,-8.29239)">
            <path d="M69.535,58.236C69.535,57.11 69.419,56.012 69.235,54.937L58.893,54.937L58.893,61.532L69.236,61.532C69.419,60.459 69.535,59.362 69.535,58.236Z" style="fill:rgb(204,204,204);fill-rule:nonzero;stroke:black;stroke-width:1px;"/>
        </g>
        <g transform="matrix(1.1424,0,0,1.1424,-7.124,-10.5772)">
            <path d="M53.326,67.099L46.732,67.099L46.732,77.446C47.806,77.629 48.902,77.746 50.028,77.746C51.154,77.746 52.252,77.629 53.326,77.446L53.326,67.099Z" style="fill:rgb(204,204,204);fill-rule:nonzero;stroke:black;stroke-width:1px;"/>
        </g>
        <g transform="matrix(1.1424,0,0,1.1424,-4.8392,-10.5772)">
            <path d="M41.167,67.099L32.67,67.099C34.539,70.746 37.518,73.727 41.167,75.595L41.167,67.099Z" style="fill:rgb(204,204,204);fill-rule:nonzero;stroke:black;stroke-width:1px;"/>
        </g>
        <g transform="matrix(1.1424,0,0,1.1424,-4.8392,-6.00759)">
            <path d="M41.167,49.372L41.167,40.872C37.52,42.743 34.541,45.723 32.671,49.372L41.167,49.372Z" style="fill:rgb(204,204,204);fill-rule:nonzero;stroke:black;stroke-width:1px;"/>
        </g>
        <g transform="matrix(1.1424,0,0,1.1424,-9.4088,-10.5772)">
            <path d="M58.893,67.099L58.893,75.595C62.539,73.725 65.517,70.746 67.386,67.099L58.893,67.099Z" style="fill:rgb(204,204,204);fill-rule:nonzero;stroke:black;stroke-width:1px;"/>
        </g>
        <g transform="matrix(1.1424,0,0,1.1424,-4.8392,-8.29239)">
            <path d="M41.167,54.938L30.821,54.938C30.637,56.013 30.521,57.111 30.521,58.237C30.521,59.363 30.638,60.46 30.821,61.534L41.167,61.534L41.167,54.938Z" style="fill:rgb(204,204,204);fill-rule:nonzero;stroke:black;stroke-width:1px;"/>
        </g>
    </g>
</svg>
