<svg xmlns="http://www.w3.org/2000/svg" xml:space="preserve" width="512" height="512" fill-rule="evenodd" stroke-linejoin="round" stroke-miterlimit="2" clip-rule="evenodd" viewBox="0 0 512 512">
  <path fill="#ccc" stroke="#000" stroke-width="5.12" d="M253.931 104.819a111.12 111.12 0 0 0-82.369 36.243 22.2 22.2 0 0 1 8.504-1.608 23 23 0 0 1 16.168 6.666l31.184 30.649a46.84 46.84 0 0 1 26.59-8.199 47.354 47.354 0 0 1 15.635 92.038 47.35 47.35 0 0 1-42.3-5.531l-31.185 30.649-.001.001a23.6 23.6 0 0 1-16.168 6.59 22 22 0 0 1-8.428-1.532 111.41 111.41 0 0 0 135.221 23.745 111.4 111.4 0 0 0 49.434-53.18 111.412 111.412 0 0 0-102.28-156.526z"/>
  <path fill="#ccc" fill-rule="nonzero" stroke="#000" stroke-width="5.12" d="M286.036 216.23a32.103 32.103 0 0 1-32.105 32.104 32.86 32.86 0 0 1-15.323-3.907l12.029-11.875a23 23 0 0 0 6.821-16.245 23.37 23.37 0 0 0-6.897-16.472l-11.877-11.647a32.54 32.54 0 0 1 15.324-3.908 32.107 32.107 0 0 1 32.028 31.952Z"/>
  <path fill="#ccc" fill-rule="nonzero" stroke="#000" stroke-width="5.12" d="m496.807 289.402-40.46-70.722v.001a7.74 7.74 0 0 1-.996-3.984 202.34 202.34 0 0 0-68.958-147.345A199.84 199.84 0 0 0 231 18.466 201.9 201.9 0 0 0 57.753 172.941h77.084A126.737 126.737 0 0 1 351.02 134.76a126.74 126.74 0 0 1 0 162.95 126.735 126.735 0 0 1-160.478 28.258 126.7 126.7 0 0 1-55.705-66.441H56.605A200.21 200.21 0 0 0 182.19 407.101l-1.073 79.609h-.001a7.65 7.65 0 0 0 2.222 5.515 7.65 7.65 0 0 0 5.44 2.222h158.99a7.66 7.66 0 0 0 5.517-2.298 7.66 7.66 0 0 0 2.145-5.439l-.844-48.884 31.799 4.367a61.98 61.98 0 0 0 49.075-14.69 61.96 61.96 0 0 0 21.262-46.609V346.26a8.6 8.6 0 0 1 2.517-6.144 8.57 8.57 0 0 1 6.142-2.515h3.374a32.27 32.27 0 0 0 27.824-16.066 32.26 32.26 0 0 0 .142-32.128z"/>
  <path fill="#ccc" fill-rule="nonzero" stroke="#000" stroke-width="5.12" d="M241.978 216.23a7.66 7.66 0 0 1-2.298 5.44l-54.324 53.635a8.13 8.13 0 0 1-5.44 2.146 7.6 7.6 0 0 1-2.911-.535 7.65 7.65 0 0 1-3.464-2.837 7.6 7.6 0 0 1-1.287-4.29v-25.59H18.319a7.66 7.66 0 0 1-7.662-7.663v-40.609a7.665 7.665 0 0 1 7.662-7.664h153.935v-25.516a7.65 7.65 0 0 1 4.75-7.048 7.66 7.66 0 0 1 8.274 1.531l54.4 53.636a7.67 7.67 0 0 1 2.3 5.363Z"/>
</svg>
