<?xml version="1.0" encoding="UTF-8" standalone="no"?>
<!DOCTYPE svg PUBLIC "-//W3C//DTD SVG 1.1//EN" "http://www.w3.org/Graphics/SVG/1.1/DTD/svg11.dtd">
<svg width="100%" height="100%" viewBox="0 0 100 100" version="1.1" xmlns="http://www.w3.org/2000/svg" xmlns:xlink="http://www.w3.org/1999/xlink" xml:space="preserve" xmlns:serif="http://www.serif.com/" style="fill-rule:evenodd;clip-rule:evenodd;stroke-linejoin:round;stroke-miterlimit:2;">
    <g transform="matrix(1,0,0,1,0,2.14011)">
        <g transform="matrix(0.0833333,0,0,0.0833333,0,4.4975)">
            <path d="M752.45,872.57C739.009,887.515 721.063,896.945 701.384,899.73C702.997,901.675 704.49,903.691 706.357,905.558C730.435,929.636 765.369,933.718 784.412,914.691C796.639,902.476 799.197,883.679 793.158,865.437L752.45,872.57Z" style="fill:rgb(204,204,204);fill-rule:nonzero;stroke:black;stroke-width:12px;"/>
        </g>
        <g transform="matrix(0.0833333,0,0,0.0833333,0,4.4975)">
            <path d="M447.55,872.57L406.843,865.41C400.804,883.664 403.378,902.437 415.605,914.676C434.632,933.715 469.578,929.621 493.66,905.527C495.511,903.676 497.007,901.676 498.621,899.688C478.937,896.942 460.992,887.516 447.551,872.571L447.55,872.57Z" style="fill:rgb(204,204,204);fill-rule:nonzero;stroke:black;stroke-width:12px;"/>
        </g>
        <g transform="matrix(0.0833333,0,0,0.0833333,0,4.4975)">
            <path d="M1147.8,738.31L1142.29,707.001C1137.93,682.282 1114.37,665.774 1089.68,670.134L739.129,731.946C721.68,792.399 666.067,836.646 600.009,836.646C533.951,836.646 478.339,792.408 460.899,731.956L110.349,670.167C85.642,665.819 62.083,682.3 57.736,707.019L52.217,738.339C47.857,763.046 64.35,786.593 89.057,790.952L457.537,855.925C469.775,871.991 488.924,882.538 510.697,882.538L689.317,882.538C711.09,882.538 730.223,871.991 742.465,855.897L1110.95,790.952C1135.65,786.565 1152.14,763.034 1147.78,738.315L1147.8,738.31Z" style="fill:rgb(204,204,204);fill-rule:nonzero;stroke:black;stroke-width:12px;"/>
        </g>
        <g transform="matrix(0.0833333,0,0,0.0833333,0,4.4975)">
            <path d="M721.73,691.76C721.73,758.99 667.226,813.49 600,813.49C532.774,813.49 478.27,758.99 478.27,691.76C478.27,624.526 532.774,570.03 600,570.03C667.226,570.03 721.73,624.53 721.73,691.76" style="fill:rgb(204,204,204);fill-rule:nonzero;stroke:black;stroke-width:12px;"/>
        </g>
        <g transform="matrix(0.0833333,0,0,0.0833333,0,4.4975)">
            <path d="M744.68,691.76C744.68,696.026 744.399,700.241 744.039,704.412L816.812,691.584C809.879,656.303 780.917,621.689 746.187,621.689C746.187,621.689 737.015,619.451 723.281,616.33C736.761,638.307 744.679,664.076 744.679,691.76L744.68,691.76Z" style="fill:rgb(204,204,204);fill-rule:nonzero;stroke:black;stroke-width:12px;"/>
        </g>
        <g transform="matrix(0.0833333,0,0,0.0833333,0,4.4975)">
            <path d="M455.32,691.76C455.32,663.522 463.547,637.24 477.547,614.959C459.602,618.811 447.149,621.693 447.149,621.693C412.79,621.693 384.094,655.588 376.79,690.455L455.962,704.416C455.603,700.237 455.321,696.026 455.321,691.76L455.32,691.76Z" style="fill:rgb(204,204,204);fill-rule:nonzero;stroke:black;stroke-width:12px;"/>
        </g>
    </g>
    <g transform="matrix(1,0,0,1,26,7.14011)">
        <path d="M25,10L25,42C25,42.552 24.552,43 24,43C23.448,43 23,42.552 23,42L23,10C23,9.448 23.448,9 24,9C24.552,9 25,9.448 25,10Z" style="fill:rgb(250,250,250);stroke:black;stroke-width:1px;stroke-linecap:round;stroke-miterlimit:1.5;"/>
    </g>
    <g transform="matrix(1,0,0,0.823529,13.5,18.7283)">
        <path d="M25,10.214L25,41.786C25,42.456 24.552,43 24,43C23.448,43 23,42.456 23,41.786L23,10.214C23,9.544 23.448,9 24,9C24.552,9 25,9.544 25,10.214Z" style="fill:rgb(250,250,250);stroke:black;stroke-width:1.09px;stroke-linecap:round;stroke-miterlimit:1.5;"/>
    </g>
    <g transform="matrix(1,0,0,0.823529,38.5,18.7283)">
        <path d="M25,10.214L25,41.786C25,42.456 24.552,43 24,43C23.448,43 23,42.456 23,41.786L23,10.214C23,9.544 23.448,9 24,9C24.552,9 25,9.544 25,10.214Z" style="fill:rgb(250,250,250);stroke:black;stroke-width:1.09px;stroke-linecap:round;stroke-miterlimit:1.5;"/>
    </g>
</svg>
