<svg xmlns="http://www.w3.org/2000/svg" xml:space="preserve" width="512" height="512" fill-rule="evenodd" stroke-linejoin="round" stroke-miterlimit="2" clip-rule="evenodd" viewBox="0 0 512 512">
  <path fill="#ccc" fill-rule="nonzero" stroke="#000" stroke-width="5.12" d="M153.126 143.428c25.203 2.478 47.514-16.526 49.993-41.73s-16.526-47.513-41.73-49.992-47.513 16.526-49.992 41.729c-2.066 25.617 16.526 47.927 41.729 49.993Zm240.169-27.122c25.185 2.478 47.48-16.514 49.956-41.698s-16.514-47.478-41.698-49.955-47.48 16.514-49.956 41.698 16.102 47.478 41.699 49.955Z"/>
  <path fill="#ccc" fill-rule="nonzero" stroke="#000" stroke-width="5.12" d="M474.124 186.841h-41.95s-35.297-42.462-39.388-47.065c-4.094-5.115-13.813-12.278-20.464-15.348-23.02-11.253-47.575-5.115-58.319 14.325-7.162 12.79-13.812 36.833-24.043 90.036l-27.114-7.673c-1.535-.511-3.58-.511-5.115.511s-2.558 2.559-3.07 4.094l-.511 2.047-47.577-22.51s-43.483-38.879-47.575-42.46c-4.604-4.094-10.743-8.697-15.348-10.743-23.02-11.253-47.063-5.115-58.319 14.325-7.674 13.813-14.836 40.926-26.601 104.361-5.115 27.626 6.651 46.553 18.417 58.319l-15.348 58.319-42.972 54.225c-9.721 12.282-7.162 29.675 5.116 39.391 5.115 4.092 11.253 5.627 16.882 5.627 8.185 0 16.882-3.582 21.998-10.743l46.042-59.854c2.558-3.068 4.094-6.137 5.116-10.23l10.742-41.948 27.626 17.394v77.249c0 15.348 12.789 28.135 28.135 28.135s28.137-12.282 28.137-28.135v-92.597c0-9.721-5.116-18.416-13.301-24.043l-54.735-34.276 24.556-74.177 11.253 10.231c1.535 1.535 3.58 3.07 5.627 3.58l51.669 25.067c3.58 1.535 7.162 2.558 10.742 2.558 5.627 0 10.743-2.046 14.836-5.115l31.206 8.695c3.579 9.209 9.719 16.882 14.836 22.51l-18.417 71.62-33.763 74.691c-6.651 14.325 0 30.695 14.325 36.835 3.58 1.535 7.674 2.556 11.254 2.556 10.742 0 20.974-6.139 25.578-16.369l35.297-77.249 1.535-4.604 8.697-34.788 18.927 23.022 12.789 86.453c2.047 13.813 14.325 24.044 27.626 24.044 1.535 0 2.558 0 4.094-.512 15.348-2.558 26.09-16.37 23.532-31.717l-13.813-94.127q-1.535-7.674-6.138-13.813l-49.622-60.364 23.532-72.132 10.742 12.278c4.604 5.627 11.767 8.697 18.927 8.697h53.716c13.301 0 24.556-11.254 24.556-24.556 0-13.298-11.255-24.043-24.556-24.043zm-208.21 48.599 40.926 11.253-5.627 19.952-40.926-11.254z"/>
</svg>
