<svg xmlns="http://www.w3.org/2000/svg" xml:space="preserve" width="512" height="512" fill-rule="evenodd" stroke-linejoin="round" stroke-miterlimit="2" clip-rule="evenodd" viewBox="0 0 512 512">
  <path fill="#ccc" fill-rule="nonzero" stroke="#000" stroke-width="5.12" d="M275.371 164.989a23.33 23.33 0 0 1 11.313 4.013l.255.171a39.916 39.916 0 0 1 13.149 49.648 8.96 8.96 0 0 0-.81 5.165l2.86 21.3c2.135 35.772 23.993 76.843 23.993 76.843h-.002a167.6 167.6 0 0 1-16.01 58.697l22.926 6.959a177.4 177.4 0 0 0 17.631-58.74c1.75-20.108-4.184-44.652-8.411-58.997a25.64 25.64 0 0 1 3.031-21.432 109 109 0 0 0 13.149-26.636 34.9 34.9 0 0 0 .939-17.29 150.62 150.62 0 0 0-55.624-92.633 43.3 43.3 0 0 1-6.83 34.621 42.2 42.2 0 0 1-27.366 17.631c2.135.341 4.098.555 5.806.683z"/>
  <path fill="#ccc" fill-rule="nonzero" stroke="#000" stroke-width="5.12" d="m16.87 97.082 8.387 1.516v-.002a47.3 47.3 0 0 1 18.45 7.616l5.115 3.531v.002a17.17 17.17 0 0 0 18.28.778 17.14 17.14 0 0 1 14.944-.995c39.261 15.992 65.439 11.356 77.564 7.167a24.7 24.7 0 0 1 16.704.129 298 298 0 0 0 41.416 11.535 56 56 0 0 1 25.338 12.939 44 44 0 0 0 5.379 4.038c29.512 18.651 57.911-24.066 30.125-45.201l-.586-.44a54.15 54.15 0 0 0-21.37-9.288c-51.518-10.693-154.979-4.394-174.965-3.041a45 45 0 0 1-6.914-.065l-25.759-2.213a45.4 45.4 0 0 0-9.706.209L17.1 88.164h-.002a4.512 4.512 0 0 0-.223 8.915zm322.916 29.572c43.457-20.791 88.326-47.47 100.019-54.514a46 46 0 0 1 6.148-3.116l23.947-9.819.002.002a47 47 0 0 0 8.535-4.61l18.4-12.723a4.45 4.45 0 0 0 1.451-5.763 4.506 4.506 0 0 0-5.336-2.262l-6.361 1.963h.002a56.2 56.2 0 0 1-23.523 1.965l-4.312-.556a20 20 0 0 0-2.22-.128 17.12 17.12 0 0 0-14.386 7.813 17.24 17.24 0 0 1-12.85 7.727c-42.219 3.714-63.393 19.808-72.233 29.113h.002a25.38 25.38 0 0 1-15.284 7.557 282 282 0 0 0-34.321 6.703 181.7 181.7 0 0 1 32.315 30.649zM233.327 266.396c-20.479 9.716-36.833 18.124-29.56 33.454s26.797 36.009 55.895 22.064c20.441-9.796 36.652-14.626 29.378-29.954-7.27-15.334-20.133-42.444-55.713-25.564Zm71.976 128.659a70.7 70.7 0 0 1-16.039 19.821 13.95 13.95 0 0 0-4.8 11.906l.859 8.983a13.94 13.94 0 0 0 10.952 12.303l1.94.417v-.002c2.419.519 4.932.387 7.283-.387a13.95 13.95 0 0 0 6.088-4.014l2.895-3.277a13.94 13.94 0 0 0 3.159-6.2l2.684-12.068a70.6 70.6 0 0 1 4.348-13.224l3.289-7.441-22.626-6.873zm-271.808-.059a20.703 20.703 0 1 0 0 41.408h9.463v28.728a12.8 12.8 0 0 0 12.807 12.807h27.957c4.113 0 7.976-1.974 10.381-5.309l26.165-36.227h150.104l-.769-8.197A29.73 29.73 0 0 1 280 403.144a54 54 0 0 0 7.576-8.149zm444.266 0H347.347l-9.008 20.365v-.002a52.3 52.3 0 0 0-3.415 10.416l-2.349 10.63h58.411l26.165 36.228a12.8 12.8 0 0 0 10.381 5.308h27.96a12.806 12.806 0 0 0 12.805-12.807v-28.728h9.465a20.7 20.7 0 0 0 20.702-20.703v-.002a20.7 20.7 0 0 0-20.702-20.702z"/>
</svg>
