<svg xmlns="http://www.w3.org/2000/svg" xml:space="preserve" width="512" height="512" fill-rule="evenodd" clip-rule="evenodd" viewBox="0 0 512 512">
  <path fill="#ccc" stroke="#000" stroke-width="5.12" d="M468.928 90.39a43.356 43.356 0 0 1-43.356 43.355 43.356 43.356 0 0 1-43.356-43.356 43.356 43.356 0 0 1 86.712 0z"/>
  <path fill="#ccc" fill-rule="nonzero" stroke="#000" stroke-width="5.12" d="M375.599 256.931c2.515 11.099 12.487 18.816 24.192 18.816h74.139c13.7 0 24.884-10.839 24.884-24.193 0-13.267-11.185-24.192-24.884-24.192h-54.282l-10.233-43.182c4.856-7.804 6.937-16.995 5.722-26.707l-1.126-5.464a58 58 0 0 0-.521-1.907c-18.209-3.469-33.47-15.175-41.967-30.956l-80.296-10.666c-6.763-1.387-13.874-.086-19.596 3.816l-75.613 51.507c-5.55 3.728-9.191 9.365-10.231 15.867-1.127 6.417.433 12.833 4.334 18.21 7.805 10.231 23.326 13.006 34.512 5.55l66.682-45.437 34.338 7.283-57.75 89.054c-.433.519-.781 1.04-.953 1.473-.088.086-.174.173-.174.346l-.692 1.041v.086l-24.799 32.343h-79.428c-15.955 0-28.962 12.573-28.962 28.008 0 15.522 13.006 28.181 28.962 28.181h94.428c9.452 0 18.383-4.596 23.758-11.966l12.401-16.388 30.87 24.712-20.378 88.012c-1.734 7.109-.433 14.567 3.556 20.809 4.162 6.59 10.752 11.099 18.729 12.834 1.995.346 3.989.607 5.983.607 13.441 0 25.32-9.277 28.181-21.937l24.366-104.834c2.427-10.406-1.301-21.158-9.884-27.923l-30.091-24.017 28.268-43.79z"/>
  <path fill="#ccc" fill-rule="nonzero" stroke="#000" stroke-width="5.12" d="M370.687 59.925c0 7.043-4.943 12.752-11.039 12.752H23.831c-6.097 0-11.041-5.709-11.041-12.752s4.943-12.752 11.042-12.752h335.816c6.097 0 11.041 5.709 11.041 12.752Zm-160.872 65.292c0 7.043-4.328 12.752-9.668 12.752H22.457c-5.339 0-9.668-5.709-9.668-12.752s4.328-12.751 9.668-12.751h177.69c5.339 0 9.668 5.709 9.668 12.751Zm-49.106 65.291c0 7.044-3.85 12.752-8.601 12.752H21.391c-4.749 0-8.601-5.709-8.601-12.752s3.85-12.751 8.601-12.751h130.72c4.749 0 8.6 5.709 8.6 12.751Zm80.491 65.293c0 7.043-4.555 12.751-10.172 12.751H22.963c-5.617 0-10.172-5.708-10.172-12.751s4.555-12.752 10.172-12.752h208.066c5.618 0 10.172 5.709 10.172 12.752Zm-122.996 65.292c0 7.043-4.033 12.752-9.01 12.752H21.8c-4.976 0-9.01-5.709-9.01-12.752s4.035-12.752 9.01-12.752h87.396c4.975 0 9.008 5.709 9.008 12.752Zm175.973 65.292c0 7.043-3.8 12.752-8.487 12.752H21.278c-4.687 0-8.487-5.709-8.487-12.752s3.8-12.752 8.487-12.752h264.414c4.687 0 8.487 5.709 8.487 12.752Zm-9.352 65.292c0 7.043-3.981 12.752-8.889 12.752H21.681c-4.91 0-8.889-5.709-8.889-12.752s3.979-12.751 8.889-12.751h254.256c4.908 0 8.889 5.709 8.889 12.751Z"/>
</svg>
