<svg xmlns="http://www.w3.org/2000/svg" xml:space="preserve" width="512" height="512" fill-rule="evenodd" stroke-linejoin="round" stroke-miterlimit="2" clip-rule="evenodd" viewBox="0 0 512 512">
  <path fill="#ccc" fill-rule="nonzero" stroke="#000" stroke-width="5.114" d="M221.724 399.984c14.176-30.036 21.731-63.25 21.731-96.448V103.419c0-9.086-7.39-16.475-16.476-16.475s-16.476 7.389-16.476 16.475v107.093h-16.475V70.467c0-9.086-7.391-16.475-16.477-16.475s-16.475 7.39-16.475 16.476v140.045H144.6V37.515c0-9.086-7.39-16.476-16.476-16.476s-16.475 7.391-16.475 16.477v177.41H95.173V70.468c0-9.086-7.39-16.476-16.476-16.476s-16.476 7.39-16.476 16.476v80.442c10.166 9.579 16.477 23.066 16.477 38.026v42.022a84.84 84.84 0 0 1 31.665 47.556l1.038 4.128-15.973 4.013-1.038-4.137a68.5 68.5 0 0 0-28.495-40.448l-3.674-2.438v-50.697c0-19.903-16.188-36.092-36.09-36.092-7.678 0-13.337 5.603-13.337 12.481 0 1.597.296 3.163.888 4.653 10.338 25.844 15.587 53.071 15.587 80.903v45.284c0 40.867 19.483 79.462 52.195 103.816zm-134.79 82.357H218.74v16.476H86.934z"/>
  <path fill="#ccc" fill-rule="nonzero" stroke="#000" stroke-width="5.114" d="M376.86 12.976c-.544-.025-1.045-.172-1.597-.172l.14.172c-2.084 0-4.143-.123-6.261-.025C305.858 16 254.132 68.342 251.777 131.653c-1.952 52.673 29.071 98.353 74.058 118.006v43.231c0 9.103 7.372 16.477 16.475 16.477h16.477v33.404a76 76 0 0 0-8.239-.454c-40.951 0-74.142 33.19-74.142 74.142 0 2.783.156 5.537.454 8.239h-41.643v-8.239H70.461v49.428h164.767v-8.239H288.9c13.303 19.872 35.949 32.952 61.649 32.952 40.951 0 74.142-33.193 74.142-74.142 0-25.702-13.081-48.355-32.951-61.65v.031-45.472h-8.239v-32.952h-16.475v-16.476h16.475c9.086 0 16.477 7.39 16.477 16.476v32.952h8.236c9.103 0 16.477-7.373 16.477-16.477v-49.426c0-9.102-7.324-16.475-20.654-16.475h-25.776c-47.055 0-90.719-38.216-93.469-85.196-2.036-34.838 15.274-64.124 42.458-80.476 7.158-4.307 16.352-2.447 21.519 4.118 4.851 6.178 12.759 12.654 24.755 13.231 16.772.801 31.147-10.389 34.096-26.856l.016.025c34.494 13.61 58.242 48.421 58.242 87.322a72.83 72.83 0 0 1-21.327 51.496 11.54 11.54 0 0 0-3.386 8.174v.041a11.647 11.647 0 0 0 11.647 11.648h12.653c5.725 0 10.998-3.007 14.082-7.833 12.205-19.163 19.283-41.905 19.283-66.308 0-67.701-54.476-122.514-121.969-123.397zm13.248 391.671-.01.265a41.4 41.4 0 0 1 1.639 11.548c0 22.745-18.443 41.19-41.19 41.19a41.3 41.3 0 0 1-11.541-1.639l-.264.009c2.102-1.489 3.568-3.831 3.568-6.608v-16.475a8.24 8.24 0 0 0-8.239-8.239h-23.887a41 41 0 0 1-.824-8.237c0-22.745 18.443-41.188 41.188-41.188 2.819 0 5.578.279 8.239.823v23.891a8.24 8.24 0 0 0 8.239 8.239h16.475c2.776 0 5.116-1.467 6.607-3.577ZM375.262 53.995a8.239 8.239 0 1 1 8.239-8.239 8.24 8.24 0 0 1-8.239 8.239Z"/>
</svg>
