<?xml version="1.0" encoding="UTF-8" standalone="no"?><!DOCTYPE svg PUBLIC "-//W3C//DTD SVG 1.1//EN" "http://www.w3.org/Graphics/SVG/1.1/DTD/svg11.dtd"><svg width="417px" height="417px" version="1.1" xmlns="http://www.w3.org/2000/svg" xmlns:xlink="http://www.w3.org/1999/xlink" xml:space="preserve" xmlns:serif="http://www.serif.com/" style="fill-rule:evenodd;clip-rule:evenodd;"><g transform="matrix(4.16667,0,0,4.16667,0,0)"><g transform="matrix(0.166667,0,0,0.166667,0,0)"><g transform="matrix(0.996991,0,0,0.996991,-3.44437,0.902615)"><circle cx="503.418" cy="105.588" r="51" style="fill:rgb(204,204,204);stroke:black;stroke-width:6.02px;"/></g><g transform="matrix(0.996991,0,0,0.996991,-3.44437,0.902615)"><path d="M445.278,301.326C448.236,314.382 459.966,323.46 473.736,323.46L560.946,323.46C577.062,323.46 590.219,310.71 590.219,295.002C590.219,279.396 577.061,266.544 560.946,266.544L497.093,266.544L485.057,215.748C490.769,206.568 493.217,195.756 491.789,184.332L490.463,177.906C490.259,177.09 490.055,176.376 489.851,175.662C468.431,171.582 450.48,157.812 440.484,139.248L346.032,126.702C338.076,125.07 329.712,126.6 322.98,131.19L234.036,191.778C227.508,196.164 223.224,202.794 222,210.444C220.674,217.992 222.51,225.54 227.1,231.864C236.28,243.9 254.538,247.164 267.696,238.392L346.134,184.944L386.527,193.512L318.594,298.266C318.084,298.878 317.676,299.49 317.473,300C317.37,300.102 317.268,300.204 317.268,300.408L316.453,301.632L316.453,301.734L287.281,339.779L193.849,339.779C175.081,339.779 159.781,354.57 159.781,372.726C159.781,390.984 175.081,405.875 193.849,405.875L304.927,405.875C316.045,405.875 326.551,400.469 332.875,391.799L347.461,372.521L383.774,401.591L359.803,505.121C357.763,513.485 359.293,522.257 363.986,529.6C368.882,537.352 376.633,542.657 386.017,544.697C388.364,545.105 390.709,545.411 393.055,545.411C408.866,545.411 422.839,534.497 426.205,519.605L454.867,396.287C457.722,384.047 453.337,371.399 443.239,363.442L407.844,335.189L441.096,283.679L445.278,301.326Z" style="fill:rgb(204,204,204);fill-rule:nonzero;stroke:black;stroke-width:6.02px;"/></g></g><g transform="matrix(0.166166,0,0,0.166166,-0.574063,0.150436)"><path d="M439.5,69.588C439.5,77.872 433.685,84.588 426.513,84.588L31.487,84.588C24.314,84.588 18.5,77.872 18.5,69.588C18.5,61.303 24.314,54.588 31.487,54.588L426.512,54.588C433.685,54.588 439.5,61.303 439.5,69.588Z" style="fill:rgb(204,204,204);fill-rule:nonzero;stroke:black;stroke-width:6.02px;"/></g><g transform="matrix(0.166166,0,0,0.166166,-0.574063,0.150436)"><path d="M250.262,146.392C250.262,154.676 245.171,161.392 238.89,161.392L29.872,161.392C23.592,161.392 18.5,154.676 18.5,146.392C18.5,138.108 23.591,131.392 29.872,131.392L238.89,131.392C245.17,131.392 250.262,138.108 250.262,146.392Z" style="fill:rgb(204,204,204);fill-rule:nonzero;stroke:black;stroke-width:6.02px;"/></g><g transform="matrix(0.166166,0,0,0.166166,-0.574063,0.150436)"><path d="M192.5,223.196C192.5,231.481 187.971,238.196 182.383,238.196L28.617,238.196C23.03,238.196 18.5,231.481 18.5,223.196C18.5,214.911 23.029,208.196 28.617,208.196L182.384,208.196C187.971,208.196 192.5,214.911 192.5,223.196Z" style="fill:rgb(204,204,204);fill-rule:nonzero;stroke:black;stroke-width:6.02px;"/></g><g transform="matrix(0.166166,0,0,0.166166,-0.574063,0.150436)"><path d="M287.183,300C287.183,308.285 281.826,315 275.217,315L30.466,315C23.858,315 18.5,308.285 18.5,300C18.5,291.715 23.858,285 30.466,285L275.217,285C281.826,285 287.183,291.715 287.183,300Z" style="fill:rgb(204,204,204);fill-rule:nonzero;stroke:black;stroke-width:6.02px;"/></g><g transform="matrix(0.166166,0,0,0.166166,-0.574063,0.150436)"><path d="M142.5,376.804C142.5,385.089 137.755,391.804 131.902,391.804L29.098,391.804C23.244,391.804 18.5,385.089 18.5,376.804C18.5,368.519 23.245,361.804 29.098,361.804L131.902,361.804C137.755,361.804 142.5,368.52 142.5,376.804Z" style="fill:rgb(204,204,204);fill-rule:nonzero;stroke:black;stroke-width:6.02px;"/></g><g transform="matrix(0.166166,0,0,0.166166,-0.574063,0.150436)"><path d="M349.5,453.608C349.5,461.893 345.031,468.608 339.518,468.608L28.482,468.608C22.969,468.608 18.5,461.893 18.5,453.608C18.5,445.323 22.97,438.608 28.482,438.608L339.517,438.608C345.031,438.608 349.5,445.323 349.5,453.608Z" style="fill:rgb(204,204,204);fill-rule:nonzero;stroke:black;stroke-width:6.02px;"/></g><g transform="matrix(0.166166,0,0,0.166166,-0.574063,0.150436)"><path d="M338.5,530.412C338.5,538.696 333.817,545.412 328.043,545.412L28.958,545.412C23.182,545.412 18.5,538.696 18.5,530.412C18.5,522.128 23.182,515.412 28.958,515.412L328.043,515.412C333.817,515.412 338.5,522.128 338.5,530.412Z" style="fill:rgb(204,204,204);fill-rule:nonzero;stroke:black;stroke-width:6.02px;"/></g></g></svg>