<svg xmlns="http://www.w3.org/2000/svg" xml:space="preserve" width="512" height="512" fill-rule="evenodd" clip-rule="evenodd" viewBox="0 0 512 512">
  <g fill="#ccc" fill-rule="nonzero" stroke="#000" stroke-width="5.12">
    <path d="M256.143 97.137c-110.848 0-201.037 90.189-201.037 201.037s90.189 201.042 201.037 201.042 201.042-90.184 201.042-201.042c0-110.848-90.189-201.037-201.042-201.037Zm92.088 88.622a14.25 14.25 0 0 1 19.19-6.129l.85.43a14.18 14.18 0 0 1 6.083 19.185 14.15 14.15 0 0 1-19.18 6.129l-.809-.425a14.213 14.213 0 0 1-6.134-19.19Zm-97.407-50.437.901-.287a14.27 14.27 0 0 1 17.956 9.211 14.27 14.27 0 0 1-9.216 17.905l-.906.287c-1.469.476-2.944.717-4.367.717a14.285 14.285 0 0 1-13.583-9.882 14.3 14.3 0 0 1 9.216-17.951Zm-113.7 51.052.425-.855a14.234 14.234 0 0 1 19.19-6.077 14.254 14.254 0 0 1 6.129 19.185l-.43.855a14.234 14.234 0 0 1-19.236 6.077 14.234 14.234 0 0 1-6.077-19.185ZM110.72 312.183a13.8 13.8 0 0 1-4.372.671 14.18 14.18 0 0 1-13.537-9.887l-.287-.896a14.2 14.2 0 0 1 9.216-17.91 14.2 14.2 0 0 1 17.905 9.216l.287.906a14.234 14.234 0 0 1-9.211 17.9Zm52.383 98.365a14.29 14.29 0 0 1-12.728 7.741c-2.181 0-4.372-.527-6.461-1.572l-.855-.425a14.239 14.239 0 0 1 12.964-25.364l.855.43a14.254 14.254 0 0 1 6.226 19.19Zm97.316 50.483-.901.282a14.254 14.254 0 0 1-17.905-9.257 14.285 14.285 0 0 1 9.262-17.905l.901-.287c7.46-2.422 15.483 1.761 17.91 9.267a14.31 14.31 0 0 1-9.267 17.9Zm113.792-51.149-.43.85a14.23 14.23 0 0 1-12.723 7.741 14.3 14.3 0 0 1-6.461-1.521 14.32 14.32 0 0 1-6.221-19.18l.425-.86c3.615-6.979 12.206-9.784 19.19-6.226a14.3 14.3 0 0 1 6.221 19.195Zm-118.067 11.551c-70.815 0-123.254-52.49-123.254-123.259 0-70.81 52.439-123.3 123.254-123.3s123.254 52.485 123.254 123.3c0 70.769-52.444 123.259-123.254 123.259Zm153.4-109.251a14.285 14.285 0 0 1-17.905-9.216l-.287-.896a14.234 14.234 0 0 1 9.216-17.91 14.18 14.18 0 0 1 17.9 9.216l.287.906a14.18 14.18 0 0 1-9.211 17.9Z"/>
    <path d="M317.082 51.4h-46.684V27.059a14.244 14.244 0 1 0-28.498 0v24.34h-46.643c-38.467 0-69.765 31.299-69.765 69.765 0 1.946.097 3.896.287 5.791a214.12 214.12 0 0 1 130.365-44.073 214.12 214.12 0 0 1 130.371 44.073c.184-1.9.282-3.845.282-5.791 0-38.467-31.299-69.765-69.714-69.765Zm175.293 229.868v36.997c0 21.704-13.256 40.422-32.108 48.451a215 215 0 0 0 11.167-68.541c0-22.559-3.517-44.308-9.974-64.773 18.181 8.253 30.915 26.588 30.915 47.867Zm-440.31 85.534c-19.046-7.931-32.44-26.691-32.44-48.538v-36.997c0-21.366 12.872-39.844 31.252-48.061a214.5 214.5 0 0 0-10.019 64.962c0 23.992 3.942 47.073 11.208 68.634Z"/>
  </g>
  <path fill="#ccc" fill-rule="nonzero" stroke="#000" stroke-width="5.12" d="M296.294 258.022h49.674a114.7 114.7 0 0 0-49.674-49.715zm-59.428 0h38.569v-60.544a112.6 112.6 0 0 0-19.292-1.761 114 114 0 0 0-19.277 1.761z"/>
  <path fill="#ccc" stroke="#000" stroke-width="5.12" d="M236.867 278.886h38.569v38.569h-38.569z"/>
  <path fill="#ccc" fill-rule="nonzero" stroke="#000" stroke-width="5.12" d="M358.543 298.173c0-6.589-.681-13.005-1.756-19.297h-60.493v38.574h60.498c1.075-6.277 1.751-12.692 1.751-19.277Zm-83.108 40.141h-38.569v60.518c6.282 1.075 12.692 1.756 19.277 1.756s13.005-.686 19.292-1.756zm-59.423 0h-49.705a114.7 114.7 0 0 0 49.7 49.695zm0-80.292v-49.715a114.7 114.7 0 0 0-49.7 49.715zm80.282 80.292v49.695a114.7 114.7 0 0 0 49.679-49.695zm-80.281-59.428h-60.519a114 114 0 0 0-1.756 19.292c0 6.584.686 13.005 1.756 19.282h60.518z"/>
</svg>
