<svg xmlns="http://www.w3.org/2000/svg" xml:space="preserve" width="512" height="512" fill-rule="evenodd" stroke-linejoin="round" stroke-miterlimit="2" clip-rule="evenodd" viewBox="0 0 512 512">
  <path fill="#ccc" stroke="#000" stroke-width="5.12" d="M372.891 199.636c0 95.686-77.574 173.257-173.259 173.257-95.705 0-173.277-77.571-173.277-173.257 0-95.703 77.589-173.277 173.277-173.277s173.256 77.591 173.256 173.277Zm-173.26 143.722c79.366 0 143.723-64.355 143.743-143.743 0-79.389-64.355-143.744-143.743-143.744S55.888 120.225 55.888 199.615s64.355 143.743 143.744 143.743Z"/>
  <path fill="#ccc" stroke="#000" stroke-width="5.12" d="M309.459 168.96a5.623 5.623 0 0 1-5.971-5.264l-.802-12.011-41.393 48.825a22.42 22.42 0 0 1 4.154 13.026c0 6.23-2.524 11.871-6.607 15.953a22.47 22.47 0 0 1-15.953 6.607 22.5 22.5 0 0 1-15.953-6.606 22.47 22.47 0 0 1-6.608-15.954c0-2.172.307-4.272.873-6.253l-35.116-20.719a22.5 22.5 0 0 1-15.974 6.607 22.2 22.2 0 0 1-9.841-2.265l-34.736 40.967a22.4 22.4 0 0 1 4.154 13.027c0 6.23-2.526 11.869-6.609 15.953a22.47 22.47 0 0 1-15.952 6.606 22.5 22.5 0 0 1-15.953-6.606 22.47 22.47 0 0 1-6.607-15.954 22.5 22.5 0 0 1 6.607-15.953 22.47 22.47 0 0 1 15.953-6.607c3.54 0 6.867.802 9.841 2.265l34.736-40.967a22.42 22.42 0 0 1-4.152-13.027 22.5 22.5 0 0 1 6.608-15.952 22.47 22.47 0 0 1 15.953-6.607c6.23 0 11.868 2.523 15.952 6.606a22.47 22.47 0 0 1 6.608 15.954c0 2.171-.307 4.272-.874 6.253l35.116 20.719a22.52 22.52 0 0 1 15.976-6.607c3.539 0 6.866.802 9.84 2.264l41.795-49.297-12.674.848a5.628 5.628 0 0 1-.707-11.232l25.934-1.723a5.623 5.623 0 0 1 5.971 5.264l1.723 25.934c.142 3.045-2.219 5.735-5.309 5.924Z"/>
  <path fill="#ccc" stroke="#000" stroke-width="5.12" d="M476.197 476.205c-11.462 11.463-30.231 11.463-41.711 0L306.358 348.057a183.8 183.8 0 0 0 41.711-41.713l128.15 128.15c11.441 11.48 11.441 30.25-.022 41.711Z"/>
</svg>
