<svg xmlns="http://www.w3.org/2000/svg" width="512" height="512" viewBox="0 0 512 512">
  <g stroke="#000" stroke-linejoin="round">
    <path fill="#ccc" stroke-miterlimit="2" stroke-width="5.12" d="M321.035 406.262a35.84 35.84 0 0 1-21.793 11.59c.692.832 1.332 1.691 2.125 2.484 10.274 10.277 25.176 12.016 33.301 3.898 5.219-5.214 6.309-13.23 3.734-21.015Zm-130.09 0-17.367-3.051c-2.574 7.781-1.48 15.793 3.738 21.016 8.122 8.12 23.028 6.375 33.305-3.899.79-.797 1.43-1.644 2.113-2.496a35.83 35.83 0 0 1-21.789-11.57Zm298.762-57.282-2.348-13.359c-1.855-10.543-11.906-17.586-22.449-15.73l-149.558 26.375c-7.446 25.793-31.176 44.671-59.356 44.671-28.183 0-51.914-18.878-59.351-44.671l-149.567-26.36c-10.539-1.86-20.59 5.18-22.445 15.719l-2.356 13.363c-1.863 10.543 5.176 20.598 15.72 22.453l157.214 27.72c5.223 6.855 13.387 11.355 22.68 11.355h76.203c9.285 0 17.449-4.5 22.676-11.368l157.21-27.707c10.54-1.863 17.579-11.914 15.72-22.457Zm0 0"/>
    <path fill="#ccc" stroke-miterlimit="2" stroke-width="5.12" d="M307.926 329.117c0 28.688-23.254 51.938-51.938 51.938-28.68 0-51.937-23.25-51.937-51.938 0-28.687 23.258-51.93 51.937-51.93 28.684 0 51.938 23.25 51.938 51.93m9.789 0c0 1.824-.117 3.621-.27 5.403l31.047-5.477c-2.957-15.055-15.312-29.82-30.129-29.82 0 0-3.918-.953-9.777-2.282a61.4 61.4 0 0 1 9.129 32.176Zm-123.453 0c0-12.047 3.508-23.258 9.484-32.765a992 992 0 0 0-12.969 2.875c-14.66 0-26.902 14.46-30.02 29.34l33.778 5.953c-.156-1.782-.273-3.583-.273-5.403Zm0 0"/>
    <path fill="#fafafa" fill-rule="evenodd" stroke-linecap="round" stroke-miterlimit="1.5" stroke-width="5.12" d="M261.121 87.758v163.84a5.121 5.121 0 0 1-10.242 0V87.758a5.121 5.121 0 0 1 10.242 0"/>
    <path fill="#fafafa" fill-rule="evenodd" stroke-linecap="round" stroke-miterlimit="1.5" stroke-width="1.09" d="M25 10.214v31.572c0 .67-.448 1.214-1 1.214s-1-.544-1-1.214V10.214C23 9.544 23.448 9 24 9s1 .544 1 1.214" transform="matrix(5.12 0 0 4.21647 69.12 95.887)"/>
    <path fill="#fafafa" fill-rule="evenodd" stroke-linecap="round" stroke-miterlimit="1.5" stroke-width="1.09" d="M25 10.214v31.572c0 .67-.448 1.214-1 1.214s-1-.544-1-1.214V10.214C23 9.544 23.448 9 24 9s1 .544 1 1.214" transform="matrix(5.12 0 0 4.21647 197.12 95.887)"/>
  </g>
</svg>
