<svg xmlns="http://www.w3.org/2000/svg" xml:space="preserve" width="512" height="512" fill-rule="evenodd" stroke-linejoin="round" stroke-miterlimit="2" clip-rule="evenodd" viewBox="0 0 512 512">
  <path fill="#ccc" fill-rule="nonzero" stroke="#000" stroke-width="5.12" d="M373.299 232.3a15.636 15.636 0 1 1-31.278 0 15.636 15.636 0 0 1 31.278 0"/>
  <path fill="#ccc" stroke="#000" stroke-linecap="round" stroke-miterlimit="1.5" stroke-width="5.12" d="M271.642 259.123v70.856A24.17 24.17 0 0 0 256 324.337V264.76a24.17 24.17 0 0 0 15.642-5.642"/>
  <path fill="#ccc" stroke="#000" stroke-width="5.12" d="M280.556 235.146A24.96 24.96 0 0 0 256 214.717V186.69a25.037 25.037 0 0 0 25.021-25.016A25.037 25.037 0 0 0 256 136.653v-82.57a25.04 25.04 0 0 0 24.038-18.068l163.615 47.718 54.738 125.107-46.915 164.198-101.647 117.284H279.91A25.027 25.027 0 0 0 256 457.917v-79.482l3.436-4.808c13.814 0 21.586-10.46 21.586-24.269q.01-3.031-.758-5.837l21.166-5.279a15.693 15.693 0 0 0 10.793-20.802zm77.092 28.431c30.259 0 54.733-31.278 54.733-31.278s-24.474-31.273-54.733-31.273-54.733 31.273-54.733 31.273 24.474 31.278 54.733 31.278Zm74.67-79.053 7.04-13.916c-1.331-.707-33.316-16.497-66.074-16.497-34.248 0-74.824 24.709-91.556 41.364l11.1 11.105c15.017-15.094 52.311-36.833 80.456-36.833 29.01 0 58.803 14.705 59.034 14.776ZM271.636 441.866c36.47-7.188 54.738-37.55 54.738-37.55l-46.915-23.455-7.823 2.601z"/>
  <path fill="#ccc" stroke="#000" stroke-width="5.12" d="M239.969 26.332A16.266 16.266 0 1 1 256 45.327a16.18 16.18 0 0 1-10.921-4.219L119.654 85.007l126.884 63.442A16.271 16.271 0 1 1 256 177.935a16.18 16.18 0 0 1-10.854-4.157l-105.16 35.057 58.798 19.604a15.46 15.46 0 0 1 10.301-3.963c5.78 0 10.762 3.164 13.471 7.813h18.98A16.271 16.271 0 1 1 256 256a16.28 16.28 0 0 1-14.044-8.064h-19.4a15.6 15.6 0 0 1-7.03 6.4l-5.97 59.699 37.75 21.576a16.271 16.271 0 1 1 7.66 29.978l-70.595 109.102h57.39q1.004-1.572 2.355-2.852A16.271 16.271 0 1 1 256 499.2a16.28 16.28 0 0 1-14.198-8.325l-.338-.553H183.46a15.62 15.62 0 0 1-13.471 7.818 15.636 15.636 0 0 1-15.636-15.636c0-1.183.159-2.314.399-3.42l-81.828-75.526a15.4 15.4 0 0 1-4.577.753 15.63 15.63 0 0 1-15.642-15.636c0-4.746 2.161-8.945 5.509-11.812L24.018 192.241a15.62 15.62 0 0 1-10.409-14.674 15.64 15.64 0 0 1 15.642-15.642c.625 0 1.208.113 1.818.189l54.17-72.233a15.647 15.647 0 0 1 14.382-21.78c3.886 0 7.388 1.464 10.127 3.809zM84.803 250.972 41.99 203.397l31.519 170.22 49.894-44.344a15.36 15.36 0 0 1 1.935-11.136L99.354 271.36a15.63 15.63 0 0 1-15.37-15.611c0-1.674.338-3.261.819-4.777Zm26.501-5.53c2.432 2.76 3.963 6.344 3.963 10.307 0 2.934-.86 5.642-2.258 7.987l25.989 46.776c.758.015 1.485.113 2.212.225l53.283-65.131a15.4 15.4 0 0 1-.727-2.36l-73.559-24.52zm-14.817-5.023 8.945-26.839-49.413-17.966L96.38 240.45q.056-.01.108-.031Zm97.618 70.902 4.618-46.198-41.58 50.816zM99.62 99.369c-.625 0-1.213-.108-1.823-.184l-54.169 72.233a15.4 15.4 0 0 1 .983 3.405l70.764 25.738 120.248-40.084-127.396-63.703a15.5 15.5 0 0 1-8.607 2.596Zm140.119 249.912-40.09-22.902-46.52 5.811c-.922 2.181-2.36 4.06-4.106 5.601l24.858 124.298 67.871-104.893a16.1 16.1 0 0 1-2.012-7.839zM83.661 385.516a15.4 15.4 0 0 1-.077 6.574l74.025 68.332-23.885-119.404z"/>
</svg>
