<?xml version="1.0" encoding="UTF-8" standalone="no"?><!DOCTYPE svg PUBLIC "-//W3C//DTD SVG 1.1//EN" "http://www.w3.org/Graphics/SVG/1.1/DTD/svg11.dtd"><svg width="417px" height="417px" version="1.1" xmlns="http://www.w3.org/2000/svg" xmlns:xlink="http://www.w3.org/1999/xlink" xml:space="preserve" xmlns:serif="http://www.serif.com/" style="fill-rule:evenodd;clip-rule:evenodd;stroke-linejoin:round;stroke-miterlimit:2;"><g transform="matrix(4.16667,0,0,4.16667,0,0)"><g transform="matrix(0.0858758,0,0,0.0858758,-2.33066,-0.71825)"><path d="M531.79,918.75C564.056,850.387 581.251,774.79 581.251,699.23L581.251,243.75C581.251,223.07 564.431,206.25 543.751,206.25C523.071,206.25 506.251,223.07 506.251,243.75L506.251,487.5L468.751,487.5L468.751,168.75C468.751,148.07 451.931,131.25 431.251,131.25C410.571,131.25 393.751,148.07 393.751,168.75L393.751,487.5L356.251,487.5L356.251,93.75C356.251,73.07 339.431,56.25 318.751,56.25C298.071,56.25 281.251,73.07 281.251,93.75L281.251,497.55L243.751,497.55L243.751,168.75C243.751,148.07 226.931,131.25 206.251,131.25C185.571,131.25 168.751,148.07 168.751,168.75L168.751,351.84C191.888,373.645 206.251,404.34 206.251,438.391L206.251,534.036C242.024,560.7 267.47,598.778 278.325,642.276L280.688,651.671L244.333,660.803L241.97,651.389C232.521,613.608 209.493,580.928 177.115,559.327L168.752,553.776L168.752,438.386C168.752,393.085 131.908,356.241 86.607,356.241C69.134,356.241 56.252,368.991 56.252,384.647C56.252,388.284 56.927,391.847 58.275,395.241C81.806,454.061 93.752,516.031 93.752,579.381L93.752,682.451C93.752,775.467 138.096,863.311 212.552,918.741L531.79,918.75Z" style="fill:rgb(204,204,204);fill-rule:nonzero;stroke:black;stroke-width:11.64px;"/></g><g transform="matrix(0.0858758,0,0,0.0858758,-2.33066,-0.71825)"><rect x="225" y="1106.2" width="300" height="37.5" style="fill:rgb(204,204,204);fill-rule:nonzero;stroke:black;stroke-width:11.64px;"/></g><g transform="matrix(0.0858758,0,0,0.0858758,-2.33066,-0.71825)"><path d="M884.89,37.895C883.652,37.836 882.511,37.5 881.253,37.5L881.574,37.895C876.831,37.895 872.144,37.614 867.324,37.84C723.284,44.778 605.554,163.91 600.194,308.01C595.748,427.9 666.362,531.87 768.754,576.6L768.754,674.998C768.754,695.717 785.535,712.498 806.254,712.498L843.754,712.498L843.754,788.529C837.605,787.854 831.34,787.498 825.004,787.498C731.797,787.498 656.254,863.041 656.254,956.248C656.254,962.584 656.609,968.85 657.285,974.998L562.504,974.998L562.504,956.248L187.504,956.248L187.504,1068.75L562.524,1068.75L562.524,1050L684.684,1050C714.965,1095.23 766.508,1125 825.004,1125C918.211,1125 993.754,1049.45 993.754,956.248C993.754,897.748 963.981,846.188 918.754,815.928L918.754,816.002L918.754,712.502L900.004,712.502L900.004,637.502L862.504,637.502L862.504,600.002L900.004,600.002C920.684,600.002 937.504,616.822 937.504,637.502L937.504,712.502L956.254,712.502C976.973,712.502 993.754,695.721 993.754,675.002L993.754,562.502C993.754,541.783 977.086,525.002 946.746,525.002L888.078,525.002C780.978,525.002 681.598,438.022 675.338,331.092C670.705,251.799 710.1,185.142 771.975,147.922C788.268,138.118 809.194,142.352 820.952,157.297C831.995,171.359 849.995,186.098 877.296,187.41C915.472,189.231 948.191,163.765 954.901,126.285L954.94,126.34C1033.45,157.317 1087.5,236.55 1087.5,325.09C1087.5,369.059 1070.04,411.207 1038.96,442.3C1034.02,447.234 1031.25,453.925 1031.25,460.902L1031.25,460.996C1031.25,475.641 1043.12,487.508 1057.76,487.508L1086.56,487.508C1099.59,487.508 1111.59,480.664 1118.61,469.676C1146.39,426.063 1162.5,374.297 1162.5,318.756C1162.5,164.666 1038.51,39.906 884.891,37.896L884.89,37.895ZM915.042,929.365L915.022,929.967C917.44,938.306 918.753,947.119 918.753,956.252C918.753,1008.02 876.773,1050 825.003,1050C815.89,1050 807.058,1048.69 798.733,1046.27L798.131,1046.29C802.917,1042.9 806.253,1037.57 806.253,1031.25L806.253,993.752C806.253,983.4 797.854,975.002 787.503,975.002L733.128,975.002C731.889,968.947 731.253,962.666 731.253,956.252C731.253,904.482 773.233,862.502 825.003,862.502C831.417,862.502 837.698,863.138 843.753,864.377L843.753,918.752C843.753,929.104 852.151,937.502 862.503,937.502L900.003,937.502C906.323,937.502 911.648,934.166 915.042,929.365L915.042,929.365ZM881.253,131.255C870.901,131.255 862.503,122.857 862.503,112.505C862.503,102.153 870.901,93.755 881.253,93.755C891.605,93.755 900.003,102.153 900.003,112.505C900.003,122.857 891.605,131.255 881.253,131.255Z" style="fill:rgb(204,204,204);fill-rule:nonzero;stroke:black;stroke-width:11.64px;"/></g></g></svg>