<?xml version="1.0" encoding="UTF-8" standalone="no"?><!DOCTYPE svg PUBLIC "-//W3C//DTD SVG 1.1//EN" "http://www.w3.org/Graphics/SVG/1.1/DTD/svg11.dtd"><svg width="100%" height="100%" viewBox="0 0 417 417" version="1.1" xmlns="http://www.w3.org/2000/svg" xmlns:xlink="http://www.w3.org/1999/xlink" xml:space="preserve" xmlns:serif="http://www.serif.com/" style="fill-rule:evenodd;clip-rule:evenodd;stroke-linejoin:round;stroke-miterlimit:2;"><g><g><path d="M206.815,85.37c-12.623,-0.03 -25.113,2.58 -36.666,7.663c-11.553,5.084 -21.915,12.528 -30.42,21.855c2.2,-0.887 4.553,-1.332 6.926,-1.31c4.933,0.005 9.666,1.956 13.168,5.429l25.398,24.962c6.375,-4.368 13.928,-6.697 21.656,-6.678c12.238,0.009 23.745,5.825 31.01,15.674c7.263,9.849 9.423,22.56 5.818,34.254c-3.604,11.695 -12.546,20.985 -24.094,25.033c-11.548,4.05 -24.334,2.378 -34.451,-4.505l-25.399,24.962l-0.001,0.001c-3.542,3.406 -8.253,5.327 -13.168,5.367c-2.347,0.039 -4.679,-0.387 -6.864,-1.248c13.561,15.059 31.772,25.143 51.733,28.649c19.961,3.505 40.517,0.227 58.398,-9.31c17.88,-9.536 32.053,-24.784 40.262,-43.313c8.206,-18.528 9.975,-39.271 5.022,-58.922c-4.951,-19.649 -16.339,-37.076 -32.347,-49.501c-16.008,-12.425 -35.714,-19.135 -55.977,-19.06l-0.004,-0.002Z" style="fill:#ccc;stroke:#000;stroke-width:4.17px;"/></g><g><path d="M232.963,176.109c0,6.935 -2.754,13.585 -7.659,18.49c-4.903,4.903 -11.553,7.657 -18.489,7.657c-4.357,-0.028 -8.641,-1.122 -12.48,-3.182l9.797,-9.672c3.535,-3.499 5.533,-8.258 5.555,-13.231c-0.023,-5.039 -2.042,-9.864 -5.617,-13.416l-9.673,-9.486c3.835,-2.071 8.122,-3.165 12.481,-3.183c6.902,0.017 13.518,2.761 18.405,7.637c4.886,4.874 7.648,11.484 7.68,18.386l0,-0Z" style="fill:#ccc;fill-rule:nonzero;stroke:#000;stroke-width:4.17px;"/></g><g><path d="M404.626,235.704l-32.953,-57.6l0,0.001c-0.556,-0.988 -0.84,-2.11 -0.811,-3.245c-0.546,-22.8 -5.821,-45.238 -15.49,-65.897c-9.668,-20.657 -23.517,-39.082 -40.673,-54.109c-17.116,-15.152 -37.234,-26.529 -59.039,-33.389c-21.806,-6.86 -44.812,-9.05 -67.521,-6.426c-33.603,3.909 -65.183,18.088 -90.436,40.604c-25.25,22.515 -42.941,52.271 -50.666,85.209l62.781,-0c8.292,-22.812 24.356,-41.969 45.369,-54.113c21.016,-12.143 45.639,-16.491 69.541,-12.282c23.903,4.209 45.559,16.707 61.161,35.298c15.602,18.591 24.155,42.086 24.155,66.356c0,24.272 -8.553,47.764 -24.155,66.359c-15.604,18.59 -37.258,31.088 -61.161,35.297c-23.903,4.209 -48.525,-0.139 -69.541,-12.282c-21.014,-12.142 -37.08,-31.302 -45.369,-54.113l-63.716,0c5.482,27.053 17.742,52.271 35.632,73.294c17.889,21.023 40.823,37.16 66.651,46.898l-0.874,64.838l-0.001,0c-0.026,1.682 0.627,3.302 1.81,4.492c1.178,1.169 2.773,1.821 4.431,1.81l129.49,-0c1.689,0.011 3.31,-0.667 4.493,-1.872c1.145,-1.186 1.774,-2.781 1.747,-4.43l-0.687,-39.814l25.899,3.557c14.426,1.962 28.996,-2.399 39.969,-11.964c10.979,-9.565 17.292,-23.402 17.317,-37.961l0,-28.208c-0.014,-1.874 0.721,-3.679 2.05,-5.004c1.325,-1.327 3.13,-2.065 5.002,-2.048l2.748,0c9.345,-0.023 17.969,-5.005 22.661,-13.085c4.689,-8.081 4.732,-18.045 0.116,-26.167l0.07,-0.004Z" style="fill:#ccc;fill-rule:nonzero;stroke:#000;stroke-width:4.17px;"/></g><g><path d="M197.08,176.109c-0.007,1.668 -0.681,3.263 -1.872,4.431l-44.244,43.683c-1.209,1.113 -2.789,1.735 -4.431,1.748c-0.811,0.01 -1.617,-0.138 -2.371,-0.436c-1.15,-0.472 -2.133,-1.277 -2.821,-2.311c-0.69,-1.034 -1.056,-2.251 -1.048,-3.494l-0,-20.842l-125.373,-0c-1.655,-0 -3.242,-0.659 -4.412,-1.829c-1.17,-1.17 -1.828,-2.757 -1.828,-4.412l0,-33.074c0,-1.656 0.658,-3.244 1.828,-4.414c1.17,-1.171 2.757,-1.828 4.412,-1.828l125.373,0l-0,-20.781c0.006,-1.231 0.376,-2.434 1.065,-3.457c0.688,-1.021 1.663,-1.815 2.804,-2.283c1.122,-0.474 2.359,-0.606 3.556,-0.386c1.197,0.222 2.304,0.789 3.183,1.633l44.306,43.684c1.176,1.153 1.849,2.723 1.873,4.368l0,-0Z" style="fill:#ccc;fill-rule:nonzero;stroke:#000;stroke-width:4.17px;"/></g></g></svg>