<?xml version="1.0" encoding="UTF-8" standalone="no"?><!DOCTYPE svg PUBLIC "-//W3C//DTD SVG 1.1//EN" "http://www.w3.org/Graphics/SVG/1.1/DTD/svg11.dtd"><svg width="417px" height="417px" version="1.1" xmlns="http://www.w3.org/2000/svg" xmlns:xlink="http://www.w3.org/1999/xlink" xml:space="preserve" xmlns:serif="http://www.serif.com/" style="fill-rule:evenodd;clip-rule:evenodd;stroke-linejoin:round;stroke-miterlimit:2;"><g transform="matrix(4.16667,0,0,4.16667,0,0)"><g transform="matrix(0.239808,0,0,0.239808,0,0)"><path d="M303.955,162.729C303.955,240.726 240.722,303.958 162.726,303.958C84.715,303.958 21.483,240.726 21.483,162.729C21.483,84.719 84.729,21.486 162.726,21.486C240.722,21.486 303.955,84.733 303.955,162.729ZM162.726,279.882C227.42,279.882 279.88,227.424 279.896,162.712C279.896,98 227.438,45.542 162.726,45.542C98.014,45.542 45.556,98 45.556,162.712C45.556,227.424 98.014,279.882 162.726,279.882Z" style="fill:rgb(204,204,204);stroke:black;stroke-width:4.17px;"/></g><g transform="matrix(0.283415,0,0,0.283415,-7.09724,-7.09635)"><path d="M238.476,141.57C236.327,141.7 234.488,140.072 234.358,137.94L233.805,129.656L205.256,163.331C207.063,165.87 208.121,168.979 208.121,172.315C208.121,176.612 206.38,180.502 203.564,183.318C200.748,186.134 196.858,187.875 192.561,187.875C188.264,187.875 184.374,186.133 181.558,183.318C178.742,180.502 177.001,176.612 177.001,172.315C177.001,170.817 177.213,169.369 177.603,168.002L153.384,153.712C150.568,156.527 146.679,158.269 142.366,158.269C139.924,158.269 137.629,157.715 135.579,156.706L111.62,184.962C113.427,187.5 114.485,190.609 114.485,193.946C114.485,198.243 112.743,202.133 109.927,204.949C107.112,207.765 103.222,209.506 98.925,209.506C94.627,209.506 90.738,207.764 87.922,204.949C85.106,202.133 83.365,198.243 83.365,193.946C83.365,189.649 85.106,185.759 87.922,182.943C90.738,180.127 94.627,178.386 98.925,178.386C101.366,178.386 103.661,178.939 105.712,179.948L129.67,151.693C127.863,149.154 126.806,146.045 126.806,142.709C126.806,138.412 128.547,134.522 131.363,131.706C134.179,128.89 138.068,127.149 142.366,127.149C146.663,127.149 150.552,128.89 153.368,131.706C156.184,134.522 157.926,138.412 157.926,142.709C157.926,144.206 157.714,145.655 157.323,147.022L181.542,161.312C184.358,158.497 188.248,156.755 192.561,156.755C195.002,156.755 197.297,157.308 199.348,158.317L228.173,124.317L219.433,124.902C217.284,125.033 215.445,123.405 215.315,121.273C215.185,119.125 216.813,117.285 218.945,117.155L236.832,115.967C238.981,115.837 240.82,117.465 240.95,119.597L242.138,137.484C242.236,139.584 240.608,141.44 238.476,141.57L238.476,141.57Z" style="fill:rgb(204,204,204);stroke:black;stroke-width:4.17px;"/></g><g transform="matrix(0.239808,0,0,0.239808,0,0)"><path d="M388.163,388.17C378.82,397.514 363.521,397.514 354.163,388.17L249.722,283.712C262.808,274.288 274.298,262.797 283.722,249.711L388.181,354.17C397.507,363.528 397.507,378.827 388.163,388.17Z" style="fill:rgb(204,204,204);stroke:black;stroke-width:4.17px;"/></g></g></svg>