<?xml version="1.0" encoding="UTF-8" standalone="no"?>
<!DOCTYPE svg PUBLIC "-//W3C//DTD SVG 1.1//EN" "http://www.w3.org/Graphics/SVG/1.1/DTD/svg11.dtd">
<svg width="100%" height="100%" viewBox="0 0 100 100" version="1.1" xmlns="http://www.w3.org/2000/svg" xmlns:xlink="http://www.w3.org/1999/xlink" xml:space="preserve" xmlns:serif="http://www.serif.com/" style="fill-rule:evenodd;clip-rule:evenodd;stroke-linejoin:round;stroke-miterlimit:2;">
    <g id="Right">
        <g transform="matrix(0.0814472,0,0,0.0814472,1.13169,1.08282)">
            <path d="M881.25,543.75C881.25,564.461 864.461,581.25 843.75,581.25C823.039,581.25 806.25,564.461 806.25,543.75C806.25,523.039 823.039,506.25 843.75,506.25C864.461,506.25 881.25,523.039 881.25,543.75" style="fill:rgb(204,204,204);fill-rule:nonzero;stroke:black;stroke-width:12.28px;"/>
        </g>
        <g transform="matrix(0.977366,0,0,0.977366,1.13169,1.08282)">
            <path d="M53.125,50.673L53.125,64.833C52.281,64.122 51.189,63.706 50,63.706L50,51.8C51.189,51.8 52.281,51.384 53.125,50.673Z" style="fill:rgb(204,204,204);stroke:black;stroke-width:1.02px;stroke-linecap:round;stroke-miterlimit:1.5;"/>
        </g>
        <path d="M54.796,45.927C54.382,43.657 52.391,41.937 50,41.937L50,36.463C52.698,36.463 54.887,34.274 54.887,31.577C54.887,28.879 52.698,26.69 50,26.69L50,10.563C52.226,10.563 54.107,9.072 54.695,7.034L86.651,16.354L97.342,40.789L88.179,72.859L68.326,95.766L54.67,95.766C54.811,95.31 54.887,94.826 54.887,94.324C54.887,91.626 52.698,89.437 50,89.437L50,73.913L50.671,72.974C53.369,72.974 54.887,70.931 54.887,68.234C54.887,67.84 54.84,67.458 54.739,67.094L58.873,66.063C60.644,65.619 61.637,63.71 60.981,62L54.796,45.927ZM69.853,51.48C75.763,51.48 80.543,45.371 80.543,45.371C80.543,45.371 75.763,39.263 69.853,39.263C63.943,39.263 59.163,45.371 59.163,45.371C59.163,45.371 63.943,51.48 69.853,51.48ZM84.437,36.04L85.812,33.322C85.552,33.184 79.305,30.1 72.907,30.1C66.218,30.1 58.293,34.926 55.025,38.179L57.193,40.348C60.126,37.4 67.41,33.154 72.907,33.154C78.573,33.154 84.392,36.026 84.437,36.04ZM53.054,86.302C60.177,84.898 63.745,78.968 63.745,78.968L54.582,74.387L53.054,74.895L53.054,86.302Z" style="fill:rgb(204,204,204);stroke:black;stroke-width:1.02px;"/>
    </g>
    <g>
        <path d="M46.869,5.143C47.123,3.644 48.428,2.5 50,2.5C51.753,2.5 53.176,3.923 53.176,5.676C53.176,7.43 51.753,8.853 50,8.853C49.179,8.853 48.431,8.541 47.867,8.029L23.37,16.603L48.152,28.994C48.673,28.62 49.311,28.4 50,28.4C51.753,28.4 53.176,29.823 53.176,31.577C53.176,33.33 51.753,34.753 50,34.753C49.186,34.753 48.442,34.446 47.88,33.941L27.341,40.788L38.825,44.617C39.362,44.141 40.061,43.843 40.837,43.843C41.966,43.843 42.939,44.461 43.468,45.369L47.175,45.369C47.703,44.347 48.77,43.647 50,43.647C51.753,43.647 53.176,45.07 53.176,46.824C53.176,48.577 51.753,50 50,50C48.831,50 47.809,49.367 47.257,48.425L43.468,48.425C43.151,48.97 42.676,49.412 42.095,49.675L40.929,61.335L48.302,65.549C48.794,65.238 49.375,65.057 50,65.057C51.753,65.057 53.176,66.48 53.176,68.234C53.176,69.987 51.753,71.41 50,71.41C49.932,71.41 49.864,71.408 49.798,71.404L36.01,92.713L47.219,92.713C47.349,92.509 47.504,92.322 47.679,92.156C48.258,91.535 49.084,91.147 50,91.147C51.753,91.147 53.176,92.57 53.176,94.324C53.176,96.077 51.753,97.5 50,97.5C48.81,97.5 47.772,96.844 47.227,95.874C47.205,95.838 47.182,95.802 47.161,95.766L35.832,95.766C35.302,96.674 34.328,97.293 33.201,97.293C31.514,97.293 30.147,95.926 30.147,94.239C30.147,94.008 30.178,93.787 30.225,93.571L14.243,78.82C13.96,78.907 13.662,78.967 13.349,78.967C11.661,78.967 10.294,77.601 10.294,75.913C10.294,74.986 10.716,74.166 11.37,73.606L4.691,37.547C3.51,37.124 2.658,36.007 2.658,34.681C2.658,32.993 4.026,31.626 5.713,31.626C5.835,31.626 5.949,31.648 6.068,31.663L16.648,17.555C16.491,17.186 16.403,16.781 16.403,16.355C16.403,14.667 17.769,13.301 19.457,13.301C20.216,13.301 20.9,13.587 21.435,14.045L46.869,5.143ZM16.563,49.018L8.201,39.726L14.357,72.972L24.102,64.311C24.061,64.112 24.039,63.906 24.039,63.695C24.039,63.122 24.205,62.594 24.48,62.136L19.405,53C17.743,52.97 16.403,51.619 16.403,49.951C16.403,49.624 16.469,49.314 16.563,49.018ZM21.739,47.938C22.214,48.477 22.513,49.177 22.513,49.951C22.513,50.524 22.345,51.053 22.072,51.511L27.148,60.647C27.296,60.65 27.438,60.669 27.58,60.691L37.987,47.97C37.931,47.82 37.878,47.669 37.845,47.509L23.478,42.72L21.739,47.938ZM18.845,46.957L20.592,41.715L10.941,38.206L18.824,46.963C18.832,46.962 18.838,46.959 18.845,46.957ZM37.911,60.805L38.813,51.782L30.692,61.707L37.911,60.805ZM19.457,19.408C19.335,19.408 19.22,19.387 19.101,19.372L8.521,33.48C8.61,33.691 8.672,33.914 8.713,34.145L22.534,39.172L46.02,31.343L21.138,18.901C20.657,19.221 20.078,19.408 19.457,19.408ZM46.824,68.219L38.994,63.746L29.908,64.881C29.728,65.307 29.447,65.674 29.106,65.975L33.961,90.252L47.217,69.765C46.966,69.311 46.824,68.789 46.824,68.234L46.824,68.219ZM16.34,75.296C16.382,75.495 16.403,75.701 16.403,75.911C16.403,76.142 16.373,76.363 16.325,76.58L30.783,89.926L26.118,66.605L16.34,75.296Z" style="fill:rgb(204,204,204);stroke:black;stroke-width:1.02px;"/>
    </g>
</svg>
