<svg xmlns="http://www.w3.org/2000/svg" xml:space="preserve" width="512" height="512" fill-rule="evenodd" stroke-linejoin="round" stroke-miterlimit="2" clip-rule="evenodd" viewBox="0 0 512 512">
  <path fill="#ccc" stroke="#000" stroke-width="5.12" d="m158.925 368.292-35.302 44.652-38.559-30.484 35.297-44.652z"/>
  <path fill="#ccc" fill-rule="nonzero" stroke="#000" stroke-width="5.12" d="m99.092 301.327 34.954 33.823 112.62-116.398-35.328-34.181-73.4 75.863-33.096-32.026-64.768 66.944 33.469 32.379z"/>
  <path fill="#ccc" stroke="#000" stroke-width="5.12" d="m121.651 225.469-25.871-44.81 71.695-41.395 25.871 44.81zM19.635 408.218l-4.403-56.745 56.745-4.403 4.403 56.745zm410.639-89.6-9.882-56.054 56.049-9.882 9.882 56.049zm-24.125 67.057 9.882-56.059 48.41 8.54-9.882 56.054zM53.35 479.529l22.118-60.774 53.489 19.461-22.118 60.78zm83.794-52.628 135.311-234.373 123.239 71.152-135.316 234.368zm172.093-105.585 28.457-49.295-49.29-28.457-28.462 49.295zm-71.669 124.129 28.462-49.29-49.295-28.462-28.457 49.295z"/>
  <path fill="#ccc" fill-rule="nonzero" stroke="#000" stroke-width="5.12" d="m317.553 139.233-27.75-23.281-29.932 35.676 71.342 59.869 29.604-35.277 80.466 67.517 31.596-37.658-124.068-104.105z"/>
  <path fill="#ccc" stroke="#000" stroke-width="5.12" d="m300.503 455.593 49.546-41.574 36.588 43.602-49.546 41.574zm84.214-28.058 44.815-25.871 41.395 71.695-44.81 25.871z"/>
  <path fill="#ccc" fill-rule="nonzero" stroke="#000" stroke-width="5.12" d="m145.49 499.226 26.742-9.733-5.484-15.073-6.323 2.304-2.304-6.328 6.323-2.299-3.697-10.158-26.742 9.738zm213.233-90.808 28.022-4.946-2.785-15.795-6.625 1.167-1.167-6.625 6.625-1.167-1.874-10.644-28.027 4.941z"/>
</svg>
