<?xml version="1.0" encoding="UTF-8" standalone="no"?>
<!DOCTYPE svg PUBLIC "-//W3C//DTD SVG 1.1//EN" "http://www.w3.org/Graphics/SVG/1.1/DTD/svg11.dtd">
<svg width="100%" height="100%" viewBox="0 0 100 100" version="1.1" xmlns="http://www.w3.org/2000/svg" xmlns:xlink="http://www.w3.org/1999/xlink" xml:space="preserve" xmlns:serif="http://www.serif.com/" style="fill-rule:evenodd;clip-rule:evenodd;stroke-linejoin:round;stroke-miterlimit:2;">
    <g id="Corners">
        <g transform="matrix(0.769974,0,0,0.769974,-3.24157,-12.863)">
            <path d="M9.473,19.953C8.36,19.953 7.457,20.856 7.457,21.969L7.457,37.418C7.457,38.531 8.359,39.434 9.473,39.434C10.586,39.434 11.488,38.531 11.488,37.418L11.488,23.984L24.922,23.984C26.036,23.984 26.938,23.082 26.938,21.968C26.938,20.855 26.036,19.953 24.922,19.953L9.473,19.953Z" style="fill:rgb(102,102,102);stroke:black;stroke-width:1.3px;"/>
        </g>
        <g transform="matrix(0.769974,0,0,0.769974,26.2443,-12.8636)">
            <path d="M75.077,19.953C73.964,19.953 73.062,20.856 73.062,21.969C73.062,23.082 73.964,23.985 75.077,23.985L88.512,23.985L88.512,37.419C88.512,38.532 89.414,39.435 90.527,39.435C91.641,39.435 92.543,38.532 92.543,37.419L92.543,21.97C92.543,20.856 91.641,19.954 90.527,19.954L75.077,19.953Z" style="fill:rgb(102,102,102);stroke:black;stroke-width:1.3px;"/>
        </g>
        <g transform="matrix(0.770001,0,0,0.770001,-2.94113,35.8643)">
            <path d="M9.471,60.565C8.358,60.565 7.456,61.468 7.456,62.581L7.456,78.031C7.456,79.144 8.358,80.046 9.472,80.046L24.921,80.046C26.034,80.046 26.936,79.144 26.936,78.031C26.936,76.917 26.034,76.015 24.921,76.015L11.487,76.015L11.487,62.581C11.487,61.468 10.585,60.565 9.471,60.565Z" style="fill:rgb(102,102,102);stroke:black;stroke-width:1.3px;"/>
        </g>
        <g transform="matrix(0.770001,0,0,0.770001,26.2428,35.8637)">
            <path d="M90.526,60.566C89.413,60.566 88.511,61.468 88.511,62.581L88.511,76.016L75.077,76.016C73.964,76.016 73.061,76.918 73.061,78.031C73.061,79.145 73.963,80.047 75.077,80.047L90.526,80.047C91.639,80.047 92.542,79.145 92.542,78.031L92.542,62.582C92.542,61.469 91.64,60.566 90.526,60.566Z" style="fill:rgb(102,102,102);stroke:black;stroke-width:1.3px;"/>
        </g>
    </g>
    <g id="Sprite">
        <rect x="30.394" y="20.691" width="11.117" height="9.601" style="fill:rgb(204,204,204);stroke:black;stroke-width:1px;"/>
        <path d="M12,47.676L2.5,47.676L2.5,79.309L12.101,79.309L12.101,58.692L21.096,58.692L21.096,40.5L12,40.5L12,47.676Z" style="fill:rgb(204,204,204);fill-rule:nonzero;stroke:black;stroke-width:1px;"/>
        <rect x="23.622" y="63.138" width="10.106" height="16.17" style="fill:rgb(204,204,204);stroke:black;stroke-width:1px;"/>
        <g transform="matrix(1,0,0,1,-2,-2)">
            <rect x="19.276" y="9.574" width="11.117" height="11.117" style="fill:rgb(204,204,204);stroke:black;stroke-width:1px;"/>
        </g>
        <g transform="matrix(1,0,0,1,2,-2)">
            <rect x="69.303" y="9.574" width="11.117" height="11.117" style="fill:rgb(204,204,204);stroke:black;stroke-width:1px;"/>
        </g>
        <rect x="58.186" y="20.691" width="11.117" height="9.601" style="fill:rgb(204,204,204);stroke:black;stroke-width:1px;"/>
        <g transform="matrix(1,0,0,1,2,2)">
            <rect x="33.627" y="79.309" width="12.633" height="11.117" style="fill:rgb(204,204,204);stroke:black;stroke-width:1px;"/>
        </g>
        <path d="M23.622,32.819L76.479,32.819L76.479,60.612L23.622,60.612L23.622,32.819ZM58.287,51.617L69.404,51.617L69.404,40.5L58.287,40.5L58.287,51.617ZM30.292,51.617L41.409,51.617L41.409,40.5L30.292,40.5L30.292,51.617Z" style="fill:rgb(204,204,204);stroke:black;stroke-width:1px;"/>
        <path d="M88,47.675L88,40.601L78.904,40.601L78.904,58.792L87.899,58.792L87.899,79.308L97.5,79.308L97.5,47.675L88,47.675Z" style="fill:rgb(204,204,204);fill-rule:nonzero;stroke:black;stroke-width:1px;"/>
        <g transform="matrix(1,0,0,1,-2,2)">
            <rect x="53.638" y="79.308" width="12.633" height="11.117" style="fill:rgb(204,204,204);stroke:black;stroke-width:1px;"/>
        </g>
        <rect x="66.271" y="63.138" width="10.106" height="16.17" style="fill:rgb(204,204,204);stroke:black;stroke-width:1px;"/>
        <g transform="matrix(1,0,0,1,-0.153846,-0.0769231)">
            <path d="M34.335,50.202L39.894,50.202L39.894,47.069L38.58,47.069L38.58,45.755L39.894,45.755L39.894,43.644L34.335,43.644L34.335,50.202Z" style="fill:rgb(204,204,204);fill-rule:nonzero;stroke:black;stroke-width:1px;"/>
            <path d="M62.33,50.202L67.888,50.202L67.888,47.069L66.574,47.069L66.574,45.755L67.888,45.755L67.888,43.644L62.33,43.644L62.33,50.202Z" style="fill:rgb(204,204,204);fill-rule:nonzero;stroke:black;stroke-width:1px;"/>
        </g>
    </g>
    <g>
        <g>
            <g transform="matrix(1.15108,0,0,1.93575,-7.55319,-46.7867)">
                <path d="M32.966,33.825L40.277,33.825L40.277,31.316C40.277,30.222 39.391,29.34 38.301,29.34L32.972,29.336L32.966,33.825Z" style="fill:rgb(102,102,102);stroke:black;stroke-width:0.63px;"/>
            </g>
            <g transform="matrix(1.15108,0,0,1.93575,-7.55319,-46.7867)">
                <path d="M30.074,34.859L30.074,40.091L31.229,40.081L31.229,34.859L30.074,34.859Z" style="fill:rgb(102,102,102);stroke:black;stroke-width:0.63px;"/>
            </g>
        </g>
        <g transform="matrix(1.15108,0,0,1.93575,-7.55319,-46.7867)">
            <path d="M40.277,56.515L37.6,56.509L37.6,63.224L38.301,63.223C39.391,63.223 40.277,62.34 40.277,61.246L40.277,56.515Z" style="fill:rgb(102,102,102);stroke:black;stroke-width:0.63px;"/>
        </g>
        <g transform="matrix(1.15108,0,0,1.93575,-7.55319,-46.7867)">
            <path d="M59.723,33.825L66.769,33.825L66.766,29.34L61.703,29.336L61.699,29.336C61.176,29.336 60.672,29.547 60.301,29.918C59.93,30.289 59.723,30.789 59.723,31.316L59.723,33.825Z" style="fill:rgb(102,102,102);stroke:black;stroke-width:0.63px;"/>
        </g>
        <g transform="matrix(1.15108,0,0,1.93575,-7.55319,-46.7867)">
            <path d="M69.926,40.091L69.926,34.859L68.506,34.859L68.506,40.081L69.926,40.091Z" style="fill:rgb(102,102,102);stroke:black;stroke-width:0.63px;"/>
        </g>
        <g transform="matrix(1.15108,0,0,1.93575,-7.55319,-46.7867)">
            <path d="M59.723,56.515L59.723,61.246C59.723,61.77 59.93,62.274 60.301,62.645C60.672,63.016 61.176,63.227 61.699,63.227L61.703,63.227L62.397,63.225L62.397,56.509L59.723,56.515Z" style="fill:rgb(102,102,102);stroke:black;stroke-width:0.63px;"/>
        </g>
        <g transform="matrix(1.15108,0,0,1.93575,-7.55319,-46.7867)">
            <path d="M15.249,66.174L15.249,68.683C15.249,69.21 15.456,69.71 15.827,70.081C16.199,70.452 16.702,70.663 17.226,70.663L23.476,70.663C24.566,70.659 25.452,69.777 25.452,68.683L25.414,55.523L18.812,55.523L18.812,66.174L15.249,66.174Z" style="fill:rgb(102,102,102);stroke:black;stroke-width:0.63px;"/>
        </g>
        <g transform="matrix(1.15108,0,0,1.93575,-7.55319,-46.7867)">
            <path d="M25.414,44.059L25.452,34.859L19.833,34.859L19.833,29.338L17.226,29.336C16.702,29.336 16.198,29.547 15.827,29.918C15.456,30.289 15.249,30.789 15.249,31.316L15.249,44.059L25.414,44.059Z" style="fill:rgb(102,102,102);stroke:black;stroke-width:0.63px;"/>
        </g>
        <g transform="matrix(1.15108,0,0,1.93575,-7.55319,-46.7867)">
            <path d="M44.898,56.515L44.898,65.14L55.101,65.14L55.101,56.515L44.898,56.515Z" style="fill:rgb(102,102,102);stroke:black;stroke-width:0.63px;"/>
        </g>
        <g transform="matrix(1.15108,0,0,1.93575,-7.55319,-46.7867)">
            <path d="M55.101,40.091L55.101,31.316C55.101,30.222 54.214,29.34 53.124,29.34L46.874,29.336C46.351,29.336 45.847,29.547 45.476,29.918C45.105,30.289 44.898,30.789 44.898,31.316L44.898,40.091L55.101,40.091Z" style="fill:rgb(102,102,102);stroke:black;stroke-width:0.63px;"/>
        </g>
        <g transform="matrix(1.15108,0,0,1.93575,-7.55319,-46.7867)">
            <path d="M74.546,34.859L74.585,44.111L84.749,44.111L84.749,31.316C84.749,30.222 83.862,29.34 82.772,29.34L79.901,29.337L79.901,34.859L74.546,34.859Z" style="fill:rgb(102,102,102);stroke:black;stroke-width:0.63px;"/>
        </g>
        <g transform="matrix(1.15108,0,0,1.93575,-7.55319,-46.7867)">
            <path d="M74.585,55.575L74.546,68.683C74.546,69.21 74.753,69.71 75.124,70.081C75.495,70.452 75.999,70.663 76.522,70.663L82.772,70.663C83.862,70.659 84.749,69.777 84.749,68.683L84.749,66.173L81.186,66.173L81.186,55.575L74.585,55.575Z" style="fill:rgb(102,102,102);stroke:black;stroke-width:0.63px;"/>
        </g>
    </g>
</svg>
