<svg xmlns="http://www.w3.org/2000/svg" xml:space="preserve" width="512" height="512" fill-rule="evenodd" stroke-linejoin="round" stroke-miterlimit="2" clip-rule="evenodd" viewBox="0 0 512 512">
  <path fill="#ccc" stroke="#000" stroke-width="5.12" d="M155.617 105.938h56.919v49.157h-56.919z"/>
  <path fill="#ccc" fill-rule="nonzero" stroke="#000" stroke-width="5.12" d="M61.44 244.101H12.8v161.961h49.157V300.503h46.054V207.36H61.44z"/>
  <path fill="#ccc" stroke="#000" stroke-width="5.12" d="M120.945 323.267h51.743v82.79h-51.743zM88.453 38.779h56.919v56.919H88.453zm276.618 0h56.919v56.919h-56.919zm-67.159 67.159h56.919v49.157h-56.919zM182.41 416.302h64.681v56.919H182.41zm-61.466-248.269h270.628v142.3H120.945zm177.485 96.246h56.919V207.36h-56.919zm-143.334 0h56.919V207.36h-56.919z"/>
  <path fill="#ccc" fill-rule="nonzero" stroke="#000" stroke-width="5.12" d="M450.56 244.096v-36.219h-46.572v93.138h46.054v105.042H499.2V244.096z"/>
  <path fill="#ccc" stroke="#000" stroke-width="5.12" d="M264.387 416.297h64.681v56.919h-64.681zm74.921-93.03h51.743v82.79h-51.743z"/>
  <path fill="#ccc" fill-rule="nonzero" stroke="#000" stroke-width="5.12" d="M175.007 256.64h28.462v-16.041h-6.728v-6.728h6.728v-10.808h-28.462zm143.334 0h28.457v-16.041h-6.728v-6.728h6.728v-10.808h-28.457z"/>
</svg>
