<svg xmlns="http://www.w3.org/2000/svg" width="512" height="512" viewBox="0 0 512 512">
  <g stroke="#000" stroke-linejoin="round" stroke-miterlimit="2">
    <path fill="#666" fill-rule="evenodd" stroke-width="5.12" d="M20.746 12.8a7.95 7.95 0 0 0-7.945 7.946v60.906a7.943 7.943 0 0 0 11.972 7.051 7.95 7.95 0 0 0 3.914-7.05V28.69h52.961a7.94 7.94 0 0 0 7.946-7.945 7.945 7.945 0 0 0-7.946-7.945Zm409.594 0a7.947 7.947 0 0 0-7.945 7.946 7.945 7.945 0 0 0 7.945 7.945h52.969v52.961a7.943 7.943 0 0 0 11.972 7.051 7.95 7.95 0 0 0 3.914-7.05V20.745a7.933 7.933 0 0 0-7.945-7.945ZM22.28 422.396a7.93 7.93 0 0 0-5.62 2.324 7.93 7.93 0 0 0-2.325 5.62v60.915a7.944 7.944 0 0 0 7.945 7.941h60.91a7.95 7.95 0 0 0 7.047-3.914 7.945 7.945 0 0 0-7.047-11.972H30.227v-52.973a7.94 7.94 0 0 0-7.946-7.938Zm468.973.003c-2.11 0-4.129.836-5.621 2.325a7.93 7.93 0 0 0-2.324 5.617v52.969h-52.961a7.945 7.945 0 1 0 0 15.89h60.906a7.92 7.92 0 0 0 5.621-2.324 7.92 7.92 0 0 0 2.324-5.621v-60.906a7.933 7.933 0 0 0-7.945-7.95Zm0 0"/>
    <path fill="#ccc" fill-rule="evenodd" stroke-width="5.12" d="M155.617 105.938h56.918v49.156h-56.918Zm0 0"/>
    <path fill="#ccc" stroke-width="5.12" d="M61.441 244.102h-48.64v161.96h49.156V300.504h46.055v-93.145h-46.57Zm0 0"/>
    <path fill="#ccc" fill-rule="evenodd" stroke-width="5.12" d="M120.945 323.266h51.742v82.793h-51.742ZM88.453 38.777h56.918V95.7H88.453Zm276.617 0h56.922V95.7H365.07Zm-67.156 67.16h56.918v49.157h-56.918ZM182.41 416.302h64.68v56.922h-64.68Zm-61.465-248.266h270.63v142.297h-270.63Zm177.485 96.242h56.918V207.36H298.43Zm-143.336 0h56.922V207.36h-56.922Zm0 0"/>
    <path fill="#ccc" stroke-width="5.12" d="M450.559 244.098v-36.22h-46.57v93.138h46.054v105.043h49.156V244.098Zm0 0"/>
    <path fill="#ccc" fill-rule="evenodd" stroke-width="5.12" d="M264.387 416.297h64.68v56.918h-64.68Zm74.922-93.031h51.742v82.793h-51.742Zm0 0"/>
    <path fill="#ccc" stroke-width="5.12" d="M175.008 256.64h28.46v-16.042h-6.726v-6.727h6.727v-10.808h-28.461Zm143.332 0h28.457v-16.042h-6.727v-6.727h6.727v-10.808H318.34Zm0 0"/>
    <path fill="#666" fill-rule="evenodd" stroke-width=".63" d="M32.966 33.825h7.311v-2.509a1.977 1.977 0 0 0-1.976-1.976l-5.33-.004Zm-2.892 1.034v5.232l1.155-.01v-5.222Zm10.203 21.656L37.6 56.51v6.715l.701-.001c1.09 0 1.976-.883 1.976-1.977Zm19.446-22.69h7.046l-.003-4.485-5.063-.004h-.004a1.98 1.98 0 0 0-1.976 1.98Zm10.203 6.266v-5.232h-1.42v5.222ZM59.723 56.515v4.73a1.98 1.98 0 0 0 1.976 1.982h.004l.694-.002v-6.716Zm-44.474 9.66v2.508a1.983 1.983 0 0 0 1.977 1.98h6.25a1.98 1.98 0 0 0 1.976-1.98l-.038-13.16h-6.602v10.651Zm10.165-22.116.038-9.2h-5.619v-5.521l-2.607-.002a1.98 1.98 0 0 0-1.977 1.98v12.743Zm19.484 12.456v8.625h10.203v-8.625Zm10.203-16.424v-8.775a1.975 1.975 0 0 0-1.977-1.976l-6.25-.004a1.98 1.98 0 0 0-1.976 1.98v8.775Zm19.445-5.232.04 9.252h10.163V31.316a1.976 1.976 0 0 0-1.977-1.976l-2.871-.003v5.522Zm.04 20.716-.04 13.108a1.98 1.98 0 0 0 1.976 1.98h6.25a1.98 1.98 0 0 0 1.977-1.98v-2.51h-3.563V55.575Zm0 0" transform="matrix(5.89353 0 0 9.91104 -38.671 -239.55)"/>
  </g>
</svg>
