<svg xmlns="http://www.w3.org/2000/svg" xml:space="preserve" width="512" height="512" fill-rule="evenodd" stroke-linejoin="round" stroke-miterlimit="2" clip-rule="evenodd" viewBox="0 0 512 512">
  <path fill="#ccc" fill-rule="nonzero" stroke="#000" stroke-width="5.12" d="m274.089 196.608 7.107-156.175a34.92 34.92 0 0 1 12.237-24.806 243.2 243.2 0 0 0-167.219 34.739A243.3 243.3 0 0 0 23.04 186.486a243.25 243.25 0 0 0 132.618 291.056 46 46 0 0 1-.384-9.155l13.85-234.865a50.07 50.07 0 0 0-9.933-32.952 67.43 67.43 0 0 1-13.302-45.261l7.137-99.753h95.488l7.117 99.758a67.38 67.38 0 0 1-13.302 45.245 50.18 50.18 0 0 0-9.933 32.963l13.824 234.89a44.85 44.85 0 0 1-9.334 30.034 244.7 244.7 0 0 0 53.381-1.659 41.3 41.3 0 0 1-5.868-24.028l13.215-198.226a66.46 66.46 0 0 0-13.143-44.308 52.22 52.22 0 0 1-10.383-33.623zm-122.25 186.337-10.429 13.901c-28.134-21.094-44.457-44.759-56.617-77.752a182.43 182.43 0 0 1-6.81-103.122c7.716-34.314 20.07-60.544 45.184-85.156l12.165 12.416c-22.728 22.272-33.413 45.517-40.397 76.559a165.07 165.07 0 0 0 6.164 93.297c11.008 29.855 25.283 50.775 50.739 69.868z"/>
  <path fill="#ccc" stroke="#000" stroke-width="5.12" d="m169.984 72.12-6.769 84.439a50.07 50.07 0 0 0 9.882 33.577 67.43 67.43 0 0 1 13.363 44.406l-13.865 234.89a27.9 27.9 0 0 0 7.629 20.982 28.83 28.83 0 0 0 20.506 8.561 28.83 28.83 0 0 0 20.5-8.561 27.9 27.9 0 0 0 7.629-20.982l-13.804-234.885a67.58 67.58 0 0 1 13.373-44.406 50.02 50.02 0 0 0 9.876-33.577l-6.758-84.439h-9.073v88.32h-17.377v-88.32h-8.689v88.32H179.03v-88.32z"/>
  <path fill="#ccc" fill-rule="nonzero" stroke="#000" stroke-width="5.12" d="M315.95 25.969a5.12 5.12 0 0 0-4.224-.819 17.5 17.5 0 0 0-9.216 5.878 17.5 17.5 0 0 0-3.937 10.199l-7.122 156.165a34.8 34.8 0 0 0 6.948 22.431 83.87 83.87 0 0 1 16.589 55.875l-13.251 198.226a23.55 23.55 0 0 0 6.349 17.818 24.32 24.32 0 0 0 34.755 0 23.55 23.55 0 0 0 6.333-17.869l-31.181-444.15a5.02 5.02 0 0 0-2.048-3.753zm18.903-.036a20.5 20.5 0 0 1 .471 2.611l31.165 444.119v.061A243.2 243.2 0 0 0 487.004 332.39a243.2 243.2 0 0 0-13.061-184.515A243.2 243.2 0 0 0 334.848 25.933zm44.861 363.597-11.295-13.194c26.025-22.252 39.368-46.925 47.708-80.133a165.07 165.07 0 0 0-6.277-100.096c-12.421-31.908-29.338-54.042-57.938-72.873l9.559-14.5c31.606 20.813 50.842 45.814 64.563 81.08a182.43 182.43 0 0 1 6.938 110.628c-9.216 36.7-24.499 64.512-53.258 89.103z"/>
</svg>
