<?xml version="1.0" encoding="UTF-8" standalone="no"?>
<!DOCTYPE svg PUBLIC "-//W3C//DTD SVG 1.1//EN" "http://www.w3.org/Graphics/SVG/1.1/DTD/svg11.dtd">
<svg width="100%" height="100%" viewBox="0 0 100 100" version="1.1" xmlns="http://www.w3.org/2000/svg" xmlns:xlink="http://www.w3.org/1999/xlink" xml:space="preserve" xmlns:serif="http://www.serif.com/" style="fill-rule:evenodd;clip-rule:evenodd;stroke-linejoin:round;stroke-miterlimit:2;">
    <g transform="matrix(1.02098,0,0,1.01332,0.991759,-0.666543)">
        <path d="M94.525,9.785L86.779,4.734L86.779,4.144C86.779,3.582 85.862,3.125 85.3,3.125C84.738,3.125 83.74,3.582 83.74,4.144L83.74,22.684C85.068,23.875 85.201,25.953 83.74,27.156L83.74,28.144C83.74,28.707 84.738,29.164 85.3,29.164C85.862,29.164 86.779,28.707 86.779,28.144L86.779,14.833L94.525,9.785Z" style="fill:rgb(204,204,204);stroke:black;stroke-width:0.98px;"/>
    </g>
    <g transform="matrix(1.02098,0,0,1.01332,-1.0502,-0.666543)">
        <path d="M66.697,47.918C66.388,51.75 65.72,59.942 65.345,63.212C64.994,66.286 61.427,67.372 59.208,65.809C58.298,65.169 57.814,64.219 57.841,63.126C57.923,59.766 59.197,52.564 59.583,47.021C62.048,47.447 64.243,47.642 66.697,47.919L66.697,47.918Z" style="fill:rgb(204,204,204);stroke:black;stroke-width:0.98px;"/>
    </g>
    <g transform="matrix(1.02098,0,0,1.01332,-1.0502,-0.666543)">
        <path d="M59.462,8.782C62.431,8.211 65.314,10.09 65.904,12.977C66.49,15.864 64.56,18.668 61.587,19.235C58.619,19.805 55.736,17.926 55.146,15.039C54.564,12.153 56.494,9.352 59.462,8.782Z" style="fill:rgb(204,204,204);stroke:black;stroke-width:0.98px;"/>
    </g>
    <g transform="matrix(1.02098,0,0,1.01332,-1.0502,-0.666543)">
        <path d="M81.099,56.825C79.642,56.938 78.337,56.184 77.743,54.887C76.81,52.852 74.587,49.11 74.4,48.626C74.06,47.739 73.439,47.091 72.497,46.856C67.72,45.673 65.052,45.923 59.688,44.969C57.973,44.419 56.903,43.602 56.665,41.489C56.665,41.489 56.454,37.946 56.028,30.86C55.13,30.637 54.266,31.223 53.438,32.614L49.208,39.805C48.391,41.196 46.552,41.68 45.122,40.879C43.618,40.04 43.122,38.282 43.973,36.864C46.809,32.126 50.903,23.954 55.318,23.028C62.04,21.864 66.252,22.2 71.951,25.829C74.049,26.77 75.803,25.364 76.826,24.653L79.982,22.458C81.299,21.544 83.131,21.809 84.107,23.063L84.193,23.176C85.189,24.454 84.935,26.282 83.623,27.255L78.396,31.118C74.904,33.231 71.49,32.774 68.767,31.047C68.294,30.751 67.681,31.114 67.744,31.657C68.052,34.497 68.404,37.676 68.556,38.778C68.607,39.145 68.916,39.419 69.298,39.43C79.267,40.696 81.478,45.876 84.208,52.27C85.103,54.36 83.634,56.63 81.357,56.805L81.099,56.825Z" style="fill:rgb(204,204,204);stroke:black;stroke-width:0.98px;"/>
    </g>
    <g transform="matrix(1.02098,0,0,1.01332,-3.09217,-0.666543)">
        <path d="M30.037,96.876C30.576,96.876 31.069,96.493 31.069,95.962L31.069,89.149C31.069,88.618 30.58,88.235 30.037,88.235L14.549,88.235C14.01,88.235 13.522,88.618 13.522,89.149L13.522,95.962C13.522,96.489 14.01,96.876 14.549,96.876L30.037,96.876Z" style="fill:rgb(204,204,204);stroke:black;stroke-width:0.98px;"/>
    </g>
    <g transform="matrix(1.02098,0,0,1.01332,-3.09217,-0.666543)">
        <path d="M88.803,96.876C89.342,96.876 89.834,96.493 89.834,95.962L89.831,60.153C89.831,59.625 89.342,59.238 88.799,59.238L73.311,59.238C72.772,59.238 72.28,59.625 72.28,60.153L72.28,95.962C72.28,96.489 72.772,96.876 73.311,96.876L88.803,96.876Z" style="fill:rgb(204,204,204);stroke:black;stroke-width:0.98px;"/>
    </g>
    <g transform="matrix(1.02098,0,0,1.01332,-3.09217,-0.666543)">
        <path d="M69.213,96.876C69.752,96.876 70.244,96.493 70.244,95.962L70.244,69.817C70.244,69.289 69.752,68.903 69.213,68.903L53.725,68.903C53.186,68.903 52.697,69.289 52.697,69.817L52.697,95.962C52.697,96.489 53.19,96.876 53.725,96.876L69.213,96.876Z" style="fill:rgb(204,204,204);stroke:black;stroke-width:0.98px;"/>
    </g>
    <g transform="matrix(1.02098,0,0,1.01332,-3.09217,-0.666543)">
        <path d="M49.627,96.876C50.166,96.876 50.659,96.493 50.659,95.962L50.655,79.482C50.655,78.95 50.166,78.568 49.623,78.568L34.135,78.568C33.596,78.568 33.104,78.954 33.104,79.482L33.104,95.958C33.104,96.486 33.592,96.873 34.135,96.873L49.627,96.876Z" style="fill:rgb(204,204,204);stroke:black;stroke-width:0.98px;"/>
    </g>
    <g transform="matrix(1.02098,0,0,1.01332,-3.09217,-0.666543)">
        <path d="M28.162,67.021C27.701,70.837 26.697,79.001 26.19,82.251C25.713,85.309 22.108,86.255 19.951,84.61C19.069,83.934 18.623,82.966 18.694,81.876C18.912,78.52 20.479,71.372 21.088,65.849C23.533,66.369 25.725,66.646 28.162,67.021L28.162,67.021Z" style="fill:rgb(204,204,204);stroke:black;stroke-width:0.98px;"/>
    </g>
    <g transform="matrix(1.02098,0,0,1.01332,-3.09217,-0.666543)">
        <path d="M22.483,27.837C25.475,27.38 28.279,29.368 28.748,32.274C29.217,35.18 27.174,37.907 24.182,38.364C21.19,38.821 18.385,36.833 17.916,33.927C17.447,31.02 19.49,28.294 22.483,27.837Z" style="fill:rgb(204,204,204);stroke:black;stroke-width:0.98px;"/>
    </g>
    <g transform="matrix(1.02098,0,0,1.01332,-3.09217,-0.666543)">
        <path d="M42.189,76.47L42.439,76.462C44.724,76.372 46.279,74.161 45.474,72.04C43.006,65.548 41.002,60.282 31.095,58.639C30.713,58.611 30.416,58.326 30.38,57.955C30.275,56.85 30.052,53.658 29.857,50.811C29.818,50.268 30.447,49.924 30.908,50.24C33.556,52.068 37.267,52.022 39.892,50.479L45.271,46.818C46.622,45.9 46.954,44.08 46.009,42.768L45.927,42.65C44.997,41.361 43.181,41.022 41.829,41.889L38.587,43.963C37.533,44.635 35.329,45.865 34.302,45.154C28.22,40.94 25.154,41.162 17.849,42.135C13.4,42.893 8.981,50.487 5.954,55.112C5.048,56.498 5.466,58.272 6.938,59.17C8.337,60.022 10.2,59.615 11.067,58.252L15.536,51.229C16.423,49.873 17.309,49.319 18.196,49.576C18.333,56.67 18.403,60.221 18.403,60.221C18.555,62.342 19.594,63.198 21.286,63.815C26.602,64.971 29.282,64.823 34.009,66.19C34.943,66.46 35.537,67.132 35.841,68.03C36.009,68.522 38.079,72.35 38.927,74.417C39.454,75.725 40.732,76.53 42.189,76.471L42.189,76.47Z" style="fill:rgb(204,204,204);stroke:black;stroke-width:0.98px;"/>
    </g>
</svg>
