<svg xmlns="http://www.w3.org/2000/svg" xml:space="preserve" width="512" height="512" fill-rule="evenodd" stroke-linejoin="round" stroke-miterlimit="2" clip-rule="evenodd" viewBox="0 0 512 512">
  <path fill="#ccc" fill-rule="nonzero" stroke="#000" stroke-width="5.12" d="M180.019 423.777a77.8 77.8 0 0 0 17.101 0l-8.55-47.196zm8.55 8.914q-5.038-.005-10.056-.594l-12.155 67.082h44.411l-12.155-67.087a87 87 0 0 1-10.051.594zm37.796-148.905a26.32 26.32 0 0 0-19.845-4.291 26.27 26.27 0 0 0-12.288 5.791 35.02 35.02 0 0 1 6.031 26.726l-7.434 41.047 26.47 146.104h54.026l-35.907-198.195a26.52 26.52 0 0 0-11.054-17.183zm-55.757-4.291a26.32 26.32 0 0 0-19.845 4.291 26.52 26.52 0 0 0-11.059 17.183l-35.907 198.195h54.031l34.176-188.646c2.627-14.474-6.973-28.39-21.402-31.017zM278.784 49.659V12.8h-23.306v49.044h11.167a12.186 12.186 0 0 0 12.134-12.186Zm-43.356 80.118a11.69 11.69 0 0 0 11.653-11.704V12.8h-23.306v105.267a11.694 11.694 0 0 0 11.653 11.704zm-95.089-73.698a11.69 11.69 0 0 0 11.653-11.699V25.293a4.2 4.2 0 0 1 4.198-4.198 4.2 4.2 0 0 1 4.198 4.198v30.095c0 6.451 5.222 11.699 11.648 11.699s11.653-5.248 11.653-11.699V31.196a4.2 4.2 0 0 1 4.198-4.198 4.2 4.2 0 0 1 4.198 4.198v33.178c0 6.451 5.222 11.699 11.648 11.699a11.69 11.69 0 0 0 11.653-11.699V12.8h-86.7v31.575c0 6.451 5.222 11.704 11.648 11.704z"/>
  <path fill="#ccc" fill-rule="nonzero" stroke="#000" stroke-width="5.12" d="M131.446 299.474a34.82 34.82 0 0 1 14.541-22.584 34.7 34.7 0 0 1 26.127-5.647 34.8 34.8 0 0 1 16.456 7.854 34.56 34.56 0 0 1 16.451-7.854 34.7 34.7 0 0 1 26.127 5.647 34.82 34.82 0 0 1 14.541 22.584l15.319 84.582c19.072-25.554 29.875-60.145 29.875-96.415 0-75.346-45.901-136.643-102.318-136.643S86.252 212.296 86.252 287.642c0 36.27 10.803 70.861 29.875 96.41zm157.338 49.787c-6.144 17.172-14.853 32.773-25.784 45.783l18.862 104.12h41.431c2.406-13.194 10.322-62.618 1.152-97.638-7.987-30.52-27.192-46.5-35.656-52.265Zm-200.443 0c-8.463 5.765-27.663 21.745-35.656 52.265-9.175 35.046-1.254 84.454 1.152 97.638h41.431l18.862-104.12c-10.931-13.005-19.645-28.611-25.789-45.783ZM347.029 149.13c-1.981-3.502-5.381-6.067-9.574-7.219a19.5 19.5 0 0 0-5.171-.686c-3.763 0-7.629 1.024-11.126 3.021-7.27 4.137-20.25 23.352-27.796 35.471 14.239-.297 37.325-1.628 44.595-5.765 9.636-5.494 13.706-16.625 9.073-24.822zm17.29 228.726a16.092 16.092 0 0 0 4.306 29.389l56.463 14.203q2.048-1.966 4.541-3.461a25.1 25.1 0 0 1 19.195-2.831l17.27 4.342a4.198 4.198 0 0 1-2.048 8.141l-17.27-4.347a16.9 16.9 0 0 0-12.836 1.894 16.9 16.9 0 0 0-4.413 3.799 16.9 16.9 0 0 0-3.354 6.692 17.065 17.065 0 0 0 12.339 20.685l18.253 4.598a4.2 4.2 0 0 1 3.046 5.094 4.2 4.2 0 0 1-4.065 3.174 4 4 0 0 1-1.024-.128l-18.258-4.593a16.9 16.9 0 0 0-12.831 1.894 16.9 16.9 0 0 0-7.772 10.491 17.07 17.07 0 0 0 12.344 20.685l6.349 1.603h64.63v-92.217l-122.767-30.899a15.87 15.87 0 0 0-12.093 1.792zm87.623-267.11a26.62 26.62 0 0 1-18.048-9.923 27 27 0 0 1-3.128-4.905l-24.765 19.953 27.049 27.136c3.354 3.359 7.818 5.217 12.564 5.217s9.201-1.853 12.559-5.222a17.9 17.9 0 0 0 4.178-6.646l-.056-.061a26.98 26.98 0 0 1-4.475-25.549 27 27 0 0 1-5.883 0z"/>
  <path fill="#ccc" fill-rule="nonzero" stroke="#000" stroke-width="5.12" d="M464.865 12.8 357.642 99.195a17.56 17.56 0 0 0-2.678 24.612 17.3 17.3 0 0 0 11.704 6.436 17.3 17.3 0 0 0 12.8-3.753l48.737-39.27a26.98 26.98 0 0 1 9.83-24.259l14.863-11.981a4.198 4.198 0 0 1 5.263 6.538l-14.858 11.981a18.62 18.62 0 0 0-2.836 26.081 18.33 18.33 0 0 0 12.407 6.82 18.28 18.28 0 0 0 13.568-3.973l.005-.005 15.703-12.657a4.198 4.198 0 1 1 5.263 6.533l-15.702 12.662h-.005a18.61 18.61 0 0 0-2.831 26.092 18.33 18.33 0 0 0 12.401 6.815 18.28 18.28 0 0 0 13.568-3.973l4.337-3.492V12.805zM29.261 282.122c4.526 2.15 10.061 2.34 15.206.512 7.25-2.575 22.047-17.761 31.017-27.679-13.179-2.043-34.171-4.495-41.405-1.925-9.651 3.43-15.171 12.867-12.298 21.028 1.229 3.482 3.886 6.349 7.48 8.064Zm354.913 29.501c6.052-2.877 10.532-7.706 12.616-13.588 4.833-13.65-4.193-29.384-20.111-35.077-12.257-4.383-48.691.164-68.536 3.364 13.373 15.073 38.779 41.738 51.046 46.126 8.428 3.011 17.531 2.703 24.986-.829zM62.351 173.67a13.3 13.3 0 0 0-6.543-1.782q-1.546 0-2.995.394c-1.669.461-3.958 1.536-5.371 4.035-2.637 4.659-.22 11.039 5.381 14.234 3.789 2.156 15.775 3.19 25.733 3.507-5.376-8.422-12.411-18.227-16.205-20.388z"/>
</svg>
