<svg xmlns="http://www.w3.org/2000/svg" xml:space="preserve" width="512" height="512" fill-rule="evenodd" stroke-linejoin="round" stroke-miterlimit="2" clip-rule="evenodd" viewBox="0 0 512 512">
  <path fill="#ccc" stroke="#000" stroke-width="5.12" d="m483.968 50.099-39.66-25.861v-3.021c0-2.877-4.695-5.217-7.572-5.217s-7.987 2.34-7.987 5.217v94.925c6.799 6.098 7.48 16.737 0 22.897v5.059c0 2.883 5.11 5.222 7.987 5.222s7.572-2.34 7.572-5.222V75.945z" transform="matrix(1.02098 0 0 1.01332 .992 -.667)"/>
  <path fill="#ccc" stroke="#000" stroke-width="5.12" d="M341.489 245.34c-1.582 19.62-5.002 61.563-6.922 78.305-1.797 15.739-20.06 21.299-31.421 13.297-4.659-3.277-7.137-8.141-6.999-13.737.42-17.203 6.943-54.077 8.919-82.458 12.621 2.181 23.859 3.18 36.424 4.598zM304.445 44.964c15.201-2.924 29.962 6.697 32.983 21.478 3 14.781-6.881 29.138-22.103 32.041-15.196 2.918-29.957-6.702-32.978-21.484-2.98-14.776 6.902-29.117 22.098-32.036Z" transform="matrix(1.02098 0 0 1.01332 -1.05 -.667)"/>
  <path fill="#ccc" stroke="#000" stroke-width="5.12" d="M415.227 290.944c-7.46.579-14.141-3.282-17.183-9.923-4.777-10.419-16.159-29.578-17.116-32.056-1.741-4.541-4.92-7.859-9.743-9.062-24.458-6.057-38.118-4.777-65.582-9.661-8.781-2.816-14.259-6.999-15.478-17.818l-3.261-54.42q-6.902-1.71-13.261 8.98l-21.658 36.818c-4.183 7.122-13.599 9.6-20.92 5.499-7.7-4.296-10.24-13.297-5.883-20.557 14.52-24.259 35.482-66.099 58.086-70.84 34.417-5.96 55.982-4.239 85.161 14.341 10.742 4.818 19.722-2.381 24.96-6.021l16.159-11.238c6.743-4.68 16.123-3.323 21.12 3.098l.44.579a14.67 14.67 0 0 1-2.918 20.884l-26.762 19.779c-17.879 10.819-35.359 8.479-49.3-.364-2.422-1.516-5.56.343-5.238 3.123 1.577 14.541 3.379 30.817 4.157 36.46a3.89 3.89 0 0 0 3.799 3.338c51.041 6.482 62.362 33.004 76.339 65.741 4.582 10.701-2.939 22.323-14.597 23.219z" transform="matrix(1.02098 0 0 1.01332 -1.05 -.667)"/>
  <path fill="#ccc" stroke="#000" stroke-width="5.12" d="M153.789 496.005c2.76 0 5.284-1.961 5.284-4.68v-34.883c0-2.719-2.504-4.68-5.284-4.68H74.491c-2.76 0-5.258 1.961-5.258 4.68v34.883c0 2.698 2.499 4.68 5.258 4.68zm300.882 0c2.76 0 5.279-1.961 5.279-4.68l-.015-183.342c0-2.703-2.504-4.685-5.284-4.685h-79.299c-2.76 0-5.279 1.981-5.279 4.685v183.342c0 2.698 2.519 4.68 5.279 4.68zm-100.301 0c2.76 0 5.279-1.961 5.279-4.68V357.463c0-2.703-2.519-4.68-5.279-4.68h-79.298c-2.76 0-5.263 1.976-5.263 4.68v133.862c0 2.698 2.524 4.68 5.263 4.68zm-100.28 0c2.76 0 5.284-1.961 5.284-4.68l-.02-84.378c0-2.724-2.504-4.68-5.284-4.68h-79.299c-2.76 0-5.279 1.976-5.279 4.68v84.357c0 2.703 2.499 4.685 5.279 4.685zM144.189 343.148c-2.36 19.538-7.501 61.338-10.097 77.978-2.442 15.657-20.9 20.5-31.944 12.078-4.516-3.461-6.799-8.417-6.436-13.998 1.116-17.183 9.139-53.78 12.257-82.058 12.518 2.662 23.741 4.081 36.219 6.001Zm-29.076-200.622c15.319-2.34 29.676 7.839 32.077 22.717s-8.059 28.841-23.378 31.181-29.681-7.839-32.082-22.717 8.059-28.841 23.383-31.181Z" transform="matrix(1.02098 0 0 1.01332 -3.092 -.667)"/>
  <path fill="#ccc" stroke="#000" stroke-width="5.12" d="m216.008 391.526 1.28-.041c11.699-.461 19.661-11.781 15.539-22.641-12.636-33.239-22.897-60.201-73.62-68.613a3.89 3.89 0 0 1-3.661-3.502c-.538-5.658-1.679-22.001-2.678-36.577-.2-2.78 3.021-4.541 5.381-2.924 13.558 9.359 32.558 9.124 45.998 1.224l27.54-18.744c6.917-4.7 8.617-14.019 3.779-20.736l-.42-.604c-4.762-6.6-14.06-8.335-20.982-3.896l-16.599 10.619c-5.396 3.441-16.681 9.738-21.939 6.098-31.14-21.576-46.838-20.439-84.239-15.457-22.779 3.881-45.404 42.762-60.902 66.442-4.639 7.096-2.499 16.179 5.038 20.777 7.163 4.362 16.701 2.278 21.14-4.7l22.881-35.958c4.541-6.943 9.078-9.779 13.619-8.463l1.06 54.502c.778 10.86 6.098 15.242 14.761 18.401 27.218 5.919 40.94 5.161 65.142 12.16 4.782 1.382 7.823 4.823 9.38 9.421.86 2.519 11.459 22.118 15.8 32.701 2.698 6.697 9.242 10.819 16.701 10.516z" transform="matrix(1.02098 0 0 1.01332 -3.092 -.667)"/>
</svg>
