<?xml version="1.0" encoding="UTF-8" standalone="no"?>
<!DOCTYPE svg PUBLIC "-//W3C//DTD SVG 1.1//EN" "http://www.w3.org/Graphics/SVG/1.1/DTD/svg11.dtd">
<svg width="100%" height="100%" viewBox="0 0 100 100" version="1.1" xmlns="http://www.w3.org/2000/svg" xmlns:xlink="http://www.w3.org/1999/xlink" xml:space="preserve" xmlns:serif="http://www.serif.com/" style="fill-rule:evenodd;clip-rule:evenodd;stroke-linejoin:round;stroke-miterlimit:2;">
    <g transform="matrix(0.0833333,0,0,0.0833333,1.27957,-2.50314)">
        <path d="M406.57,1023.3C419.867,1024.77 433.355,1024.77 446.652,1023.3L426.613,912.68L406.57,1023.3Z" style="fill:rgb(204,204,204);fill-rule:nonzero;stroke:black;stroke-width:12px;"/>
    </g>
    <g transform="matrix(0.0833333,0,0,0.0833333,1.27957,-2.50314)">
        <path d="M426.61,1044.2C418.758,1044.2 410.872,1043.71 403.051,1042.8L374.563,1200.04L478.653,1200.04L450.165,1042.79C442.345,1043.71 434.458,1044.19 426.606,1044.19L426.61,1044.2Z" style="fill:rgb(204,204,204);fill-rule:nonzero;stroke:black;stroke-width:12px;"/>
    </g>
    <g transform="matrix(0.0833333,0,0,0.0833333,1.27957,-2.50314)">
        <path d="M515.21,695.19C501.546,685.729 485.026,682.159 468.694,685.135C457.917,687.1 448.112,691.772 439.885,698.705C452.416,716.189 458.162,738.533 454.03,761.338L436.6,857.549L498.639,1200L625.279,1200L541.119,735.459C538.139,718.994 528.935,704.686 515.209,695.182L515.21,695.19Z" style="fill:rgb(204,204,204);fill-rule:nonzero;stroke:black;stroke-width:12px;"/>
    </g>
    <g transform="matrix(0.0833333,0,0,0.0833333,1.27957,-2.50314)">
        <path d="M384.52,685.13C368.188,682.153 351.668,685.72 338.004,695.185C324.274,704.689 315.074,718.997 312.09,735.462L227.926,1200L354.566,1200L434.671,757.842C440.823,723.916 418.319,691.303 384.515,685.139L384.52,685.13Z" style="fill:rgb(204,204,204);fill-rule:nonzero;stroke:black;stroke-width:12px;"/>
    </g>
    <g transform="matrix(1,0,0,1,0,2.5005)">
        <g transform="matrix(0.0833333,0,0,0.0833333,0,0)">
            <path d="M653.42,86.388L653.42,0L598.799,0L598.799,114.95L624.975,114.95C640.659,114.95 653.42,102.138 653.42,86.388Z" style="fill:rgb(204,204,204);fill-rule:nonzero;stroke:black;stroke-width:12px;"/>
        </g>
        <g transform="matrix(0.0833333,0,0,0.0833333,0,0)">
            <path d="M551.81,274.17C566.872,274.17 579.122,261.869 579.122,246.744L579.118,-0.006L524.493,-0.006L524.493,246.744C524.497,261.865 536.747,274.17 551.809,274.17L551.81,274.17Z" style="fill:rgb(204,204,204);fill-rule:nonzero;stroke:black;stroke-width:12px;"/>
        </g>
        <g transform="matrix(0.0833333,0,0,0.0833333,0,0)">
            <path d="M328.92,101.44C343.982,101.44 356.232,89.139 356.232,74.014L356.232,29.295C356.232,23.861 360.634,19.459 366.068,19.459C371.502,19.459 375.904,23.861 375.904,29.295L375.904,99.826C375.904,114.947 388.154,127.252 403.216,127.252C418.278,127.252 430.528,114.951 430.528,99.826L430.528,43.123C430.528,37.689 434.93,33.287 440.364,33.287C445.797,33.287 450.2,37.689 450.2,43.123L450.2,120.877C450.2,135.998 462.45,148.303 477.509,148.303C492.571,148.303 504.821,136.002 504.821,120.877L504.825,-0.003L301.615,-0.003L301.615,74.009C301.611,89.13 313.865,101.435 328.924,101.435L328.92,101.44Z" style="fill:rgb(204,204,204);fill-rule:nonzero;stroke:black;stroke-width:12px;"/>
        </g>
    </g>
    <g transform="matrix(0.0833333,0,0,0.0833333,1.27957,-2.50314)">
        <path d="M292.73,731.96C296.652,710.319 308.753,691.515 326.8,679.019C344.788,666.566 366.538,661.871 388.042,665.781C402.827,668.476 415.952,675.031 426.612,684.199C437.573,674.765 450.702,668.418 465.171,665.781C486.679,661.867 508.429,666.562 526.417,679.019C544.468,691.519 556.569,710.32 560.487,731.96L596.401,930.2C641.1,870.309 666.421,789.24 666.421,704.22C666.421,527.62 558.841,383.95 426.611,383.95C294.381,383.95 186.801,527.63 186.801,704.22C186.801,789.24 212.125,870.31 256.821,930.2L292.73,731.96Z" style="fill:rgb(204,204,204);fill-rule:nonzero;stroke:black;stroke-width:12px;"/>
    </g>
    <g transform="matrix(0.0833333,0,0,0.0833333,1.27957,-2.50314)">
        <path d="M661.51,848.65C647.108,888.904 626.686,925.47 601.065,955.96L645.28,1200L742.385,1200C748.022,1169.08 766.573,1053.23 745.088,971.15C726.361,899.615 681.35,862.16 661.51,848.65L661.51,848.65Z" style="fill:rgb(204,204,204);fill-rule:nonzero;stroke:black;stroke-width:12px;"/>
    </g>
    <g transform="matrix(0.0833333,0,0,0.0833333,1.27957,-2.50314)">
        <path d="M191.7,848.65C171.86,862.162 126.852,899.615 108.126,971.15C86.622,1053.3 105.185,1169.1 110.825,1200L207.93,1200L252.145,955.96C226.524,925.468 206.102,888.905 191.7,848.65L191.7,848.65Z" style="fill:rgb(204,204,204);fill-rule:nonzero;stroke:black;stroke-width:12px;"/>
    </g>
    <g transform="matrix(0.0833333,0,0,0.0833333,-0.720432,-0.503142)">
        <path d="M822.02,355.58C817.372,347.365 809.407,341.353 799.586,338.646C795.676,337.568 791.594,337.04 787.461,337.04C778.645,337.04 769.578,339.451 761.387,344.115C744.34,353.822 713.922,398.865 696.235,427.26C729.61,426.572 783.715,423.447 800.745,413.756C823.343,400.881 832.886,374.783 822.022,355.58L822.02,355.58Z" style="fill:rgb(204,204,204);fill-rule:nonzero;stroke:black;stroke-width:12px;"/>
    </g>
    <g transform="matrix(0.0833333,0,0,0.0833333,-2.50076,-2.49956)">
        <path d="M883.91,915.63C875.285,920.798 869.191,929.025 866.742,938.802C861.703,958.95 873.933,979.45 894.008,984.505L1026.34,1017.81C1029.53,1014.75 1033.1,1012.03 1036.99,1009.7C1050.61,1001.54 1066.58,999.181 1081.97,1003.06L1122.45,1013.24C1127.72,1014.57 1130.91,1019.92 1129.58,1025.18C1128.26,1030.45 1122.92,1033.65 1117.65,1032.32L1077.17,1022.13C1066.88,1019.55 1056.2,1021.12 1047.09,1026.58C1043.39,1028.79 1040.14,1031.53 1037.39,1034.7C1037.19,1034.97 1036.97,1035.23 1036.74,1035.47C1033.03,1039.99 1030.34,1045.31 1028.88,1051.16C1023.53,1072.54 1036.51,1094.3 1057.81,1099.65L1100.59,1110.42C1105.86,1111.75 1109.06,1117.1 1107.73,1122.36C1106.6,1126.82 1102.6,1129.8 1098.2,1129.8C1097.4,1129.8 1096.6,1129.7 1095.79,1129.5L1053.01,1118.73C1042.72,1116.15 1032.04,1117.72 1022.93,1123.17C1013.78,1128.65 1007.31,1137.39 1004.72,1147.76C999.368,1169.13 1012.35,1190.89 1033.65,1196.25L1048.53,1200L1200.01,1200L1200.01,983.855L912.259,911.441C902.564,909.003 892.497,910.491 883.915,915.628L883.91,915.63Z" style="fill:rgb(204,204,204);fill-rule:nonzero;stroke:black;stroke-width:12px;"/>
    </g>
    <g transform="matrix(1,0,0,1,-2.50166,2.5)">
        <g transform="matrix(0.0833333,0,0,0.0833333,0,0)">
            <path d="M1089.3,229.56C1072.56,227.732 1057.54,219.474 1047,206.314C1044.09,202.681 1041.65,198.822 1039.67,194.81L981.628,241.576L1045.03,305.174C1052.89,313.061 1063.35,317.408 1074.47,317.408C1085.59,317.408 1096.04,313.064 1103.91,305.174C1108.32,300.752 1111.64,295.424 1113.7,289.6C1113.66,289.549 1113.61,289.498 1113.57,289.448C1099.61,272.01 1096.4,249.335 1103.08,229.569C1098.55,230.061 1093.94,230.065 1089.3,229.561L1089.3,229.56Z" style="fill:rgb(204,204,204);fill-rule:nonzero;stroke:black;stroke-width:12px;"/>
        </g>
        <g transform="matrix(0.0833333,0,0,0.0833333,0,0)">
            <path d="M1119.6,0L868.28,202.5C850.694,216.668 847.885,242.543 862.011,260.184C868.85,268.723 878.593,274.079 889.44,275.262C900.272,276.442 910.932,273.321 919.432,266.473L1033.67,174.426C1031.16,153.477 1039.14,131.719 1056.72,117.563L1091.55,89.497C1095.78,86.091 1101.97,86.759 1105.38,90.985C1108.79,95.216 1108.13,101.407 1103.89,104.817L1069.06,132.883C1050.43,147.899 1047.45,175.328 1062.41,194.024C1069.66,203.075 1079.99,208.751 1091.49,210.008C1102.98,211.274 1114.27,207.953 1123.29,200.692C1123.29,200.688 1123.3,200.684 1123.31,200.68L1160.11,171.024C1164.34,167.61 1170.53,168.282 1173.94,172.508C1177.35,176.739 1176.68,182.93 1172.45,186.336L1135.64,215.996L1135.63,216.008C1116.99,231.02 1114.01,258.449 1128.99,277.149C1136.24,286.2 1146.56,291.876 1158.06,293.129C1169.55,294.395 1180.84,291.074 1189.86,283.813L1200.02,275.629L1200.02,0.009L1119.6,0Z" style="fill:rgb(204,204,204);fill-rule:nonzero;stroke:black;stroke-width:12px;"/>
        </g>
    </g>
    <g transform="matrix(0.0774969,0.0306377,-0.0306377,0.0774969,23.3439,0.131808)">
        <path d="M45.793,691.24C57.508,692.041 69.734,687.678 79.383,679.252C92.961,667.397 112.133,621.545 123.137,592.201C92.649,599.107 44.778,611.842 31.223,623.681C13.141,639.478 9.243,664.794 22.543,680.115C28.215,686.646 36.473,690.595 45.793,691.24L45.793,691.24Z" style="fill:rgb(204,204,204);fill-rule:nonzero;stroke:black;stroke-width:12px;"/>
    </g>
    <g transform="matrix(0.0775548,-0.0304909,0.0304909,0.0775548,-15.2556,26.5458)">
        <path d="M857.7,779.72C873.372,778.638 887.286,771.954 896.876,760.904C919.122,735.279 912.927,693.216 883.083,667.142C860.106,647.076 776.733,625.747 730.703,615.708C746.949,660.056 779.496,740.008 802.484,760.088C818.289,773.893 838.414,781.033 857.703,779.717L857.7,779.72Z" style="fill:rgb(204,204,204);fill-rule:nonzero;stroke:black;stroke-width:12px;"/>
    </g>
    <g transform="matrix(0.0833333,0,0,0.0833333,3.27957,-0.503142)">
        <path d="M106.78,413.09C101.948,410.34 96.616,408.914 91.444,408.914C89.046,408.914 86.682,409.219 84.425,409.844C80.51,410.922 75.147,413.438 71.835,419.297C65.659,430.211 71.319,445.168 84.448,452.649C93.338,457.711 121.421,460.137 144.764,460.876C132.166,441.134 115.678,418.157 106.78,413.091L106.78,413.09Z" style="fill:rgb(204,204,204);fill-rule:nonzero;stroke:black;stroke-width:12px;"/>
    </g>
</svg>
