<svg xmlns="http://www.w3.org/2000/svg" xml:space="preserve" width="512" height="512" fill-rule="evenodd" stroke-linejoin="round" stroke-miterlimit="2" clip-rule="evenodd" viewBox="0 0 512 512">
  <path fill="#ccc" fill-rule="nonzero" stroke="#000" stroke-width="5.12" d="M174.7 293.763a31.43 31.43 0 0 0-9.156 22.169c0 17.246 14.195 31.436 31.437 31.436s31.436-14.19 31.436-31.436c0-17.232-14.165-31.412-31.398-31.437a31.5 31.5 0 0 0-22.319 9.268Z"/>
  <path fill="#ccc" fill-rule="nonzero" stroke="#000" stroke-width="5.12" d="M343.791 296.874a29.2 29.2 0 0 0-8.656 1.67 74.4 74.4 0 0 1-24.219 4.86c-17.315 0-27.107-10.175-29.006-30.371v-1.594l-39.784 41.305q.111 1.522 0 3.038c-.992 24.065-21.057 43.327-45.144 43.327s-44.149-19.263-45.141-43.327c.083-24.603 20.352-44.799 44.95-44.799h1.142q1.332.097 2.658 0l48.29-46.851-.681-.758c-25.668-12.527-21.867-32.495-21.716-33.332a86.5 86.5 0 0 1 14.121-34.094 156 156 0 0 0 7.595-13.364 12.1 12.1 0 0 0 0-11.921 12.98 12.98 0 0 0-11.39-5.009 20.4 20.4 0 0 0-6.609 1.063c-19.891 6.906-61.881 34.318-64.689 75.093-3.417 50.19-35.61 54.063-45.558 54.063h-2.661a39 39 0 0 0-5.773-.079c-12.829 0-46.16 3.874-78.433 39.713C-1.916 334.232 9.32 403.553 58.751 453.213a145.1 145.1 0 0 0 100.606 44.192 93.5 93.5 0 0 0 54.368-15.871 102.44 102.44 0 0 0 44.193-80.104c.68-46.092 30.371-47.079 31.508-47.079a74.83 74.83 0 0 0 40.242-14.501 59.9 59.9 0 0 0 20.045-25.74c2.581-6.606 2.965-11.464.987-14.273a7.58 7.58 0 0 0-6.91-2.964ZM155.034 424.89l-13.135-13.513h-.458a16 16 0 0 1-5.394.835 35.67 35.67 0 0 1-23.763-11.468c-9.11-9.034-13.441-21.033-10.633-29.08v-.457l-13.664-13.364 14.579-14.501 66.969 67.046z"/>
  <path fill="#ccc" fill-rule="nonzero" stroke="#000" stroke-width="5.12" d="m488.819 57.921 9.947-8.349-1.137-.456a63.1 63.1 0 0 1-33.788-33.866l-.534-1.065-8.354 9.874-1.744-1.443a7.58 7.58 0 0 0-4.938-2.206 7 7 0 0 0-5.161 2.206 7.63 7.63 0 0 0 0 10.4l2.507 2.585-7.595 9.034-1.065-.987a7.58 7.58 0 0 0-6.531-3.726c-4.165 0-7.595 3.431-7.595 7.595a7.6 7.6 0 0 0 3.728 6.531l1.895 1.899-8.427 10.025 3.946 3.946-163.551 158.619-46.845 45.558 1.058.452a42.7 42.7 0 0 1 14.2 9.646 45.7 45.7 0 0 1 9.719 14.272l.379.987L443.41 88.75l3.951 3.951 9.568-8.126 1.896 1.896a7.58 7.58 0 0 0 5.238 2.201 7.63 7.63 0 0 0 7.071-7.572 7.6 7.6 0 0 0-1.906-5.029l-.835-.764 9.34-7.59 2.279 2.352a7.56 7.56 0 0 0 5.238 2.201 7.63 7.63 0 0 0 7.592-7.59 7.58 7.58 0 0 0-2.201-5.239z"/>
</svg>
