<svg xmlns="http://www.w3.org/2000/svg" xml:space="preserve" width="512" height="512" fill-rule="evenodd" stroke-linejoin="round" stroke-miterlimit="2" clip-rule="evenodd" viewBox="0 0 512 512">
  <path fill="#ccc" fill-rule="nonzero" stroke="#000" stroke-width="5.12" d="M498.775 338.282 358.719 192.706v52.834h-92.531l51.044-201.026a7.563 7.563 0 0 0-5.463-9.196c-4.051-1.012-8.164 1.413-9.196 5.463L292.469 80.54h-139.65l.021-52.817L12.807 173.299l140.056 145.578v-52.835h92.53L194.35 467.069a7.563 7.563 0 0 0 5.463 9.196 8.2 8.2 0 0 0 1.877.232c3.374 0 6.455-2.279 7.319-5.696l10.102-39.758h139.651v52.835l140.056-145.577zM163.281 235.25c-34.211 0-61.951-27.736-61.951-61.951 0-34.212 27.736-61.951 61.951-61.951 34.212 0 61.952 27.735 61.952 61.951 0 34.211-27.736 61.951-61.952 61.951Zm185.021 164.983c-34.211 0-61.951-27.735-61.951-61.951 0-34.211 27.736-61.951 61.951-61.951 34.211 0 61.951 27.736 61.951 61.951 0 34.212-27.736 61.951-61.951 61.951Z"/>
  <path fill="#ccc" fill-rule="nonzero" stroke="#000" stroke-width="5.12" d="M381.608 304.958a7.563 7.563 0 0 0-10.693 0l-22.632 22.632-22.631-22.632a7.563 7.563 0 0 0-10.694 10.694l22.632 22.631-22.632 22.632a7.561 7.561 0 0 0 5.336 12.908 7.47 7.47 0 0 0 5.336-2.215l22.632-22.631 22.631 22.631a7.54 7.54 0 0 0 5.336 2.215 7.47 7.47 0 0 0 5.336-2.215 7.563 7.563 0 0 0 0-10.693l-22.631-22.632 22.631-22.631a7.563 7.563 0 0 0 0-10.694zM200.872 139.641c-3.481-2.278-8.185-1.308-10.462 2.194l-30.921 47.269-20.142-20.459a7.563 7.563 0 0 0-10.779 10.61l26.725 27.145a7.55 7.55 0 0 0 5.378 2.258c.253 0 .506-.022.76-.043a7.58 7.58 0 0 0 5.568-3.374l36.046-55.093c2.278-3.502 1.308-8.185-2.194-10.462z"/>
</svg>
