<svg xmlns="http://www.w3.org/2000/svg" xml:space="preserve" width="512" height="512" fill-rule="evenodd" stroke-linejoin="round" stroke-miterlimit="2" clip-rule="evenodd" viewBox="0 0 512 512">
  <path fill="#ccc" stroke="#000" stroke-width="5.12" d="M248.974 340.841c-28.798-8.048-65.659-12.072-102.436-12.072s-73.642 4.025-102.436 12.072V48.302c31.336-10.33 66.842-15.494 102.436-15.494 35.575 0 71.103 5.164 102.436 15.494zM215.66 93.431h-.001c-22.041-4.175-45.063-6.284-68.026-6.284-22.965 0-45.969 2.087-68.027 6.284a6.8 6.8 0 0 0-5.444 7.94 6.8 6.8 0 0 0 7.94 5.445c21.114-4.025 43.3-6.026 65.53-6.026 22.254 0 44.42 2.001 65.53 6.026a6.814 6.814 0 0 0 7.942-5.445 6.814 6.814 0 0 0-5.443-7.94Zm0 47.212h-.001c-22.041-4.175-45.063-6.284-68.026-6.284-22.965 0-45.969 2.089-68.027 6.284a6.8 6.8 0 0 0-5.444 7.942 6.8 6.8 0 0 0 7.94 5.444c21.114-4.025 43.3-6.026 65.53-6.026 22.254 0 44.42 2.001 65.53 6.026a6.814 6.814 0 0 0 7.942-5.444 6.814 6.814 0 0 0-5.443-7.942Zm0 47.213-.001-.001c-22.041-4.175-45.063-6.283-68.026-6.283-22.965 0-45.969 2.087-68.027 6.284a6.8 6.8 0 0 0-5.444 7.94 6.8 6.8 0 0 0 7.94 5.444c21.114-4.024 43.3-6.025 65.53-6.025 22.254 0 44.42 2.001 65.53 6.025a6.814 6.814 0 0 0 7.942-5.444 6.814 6.814 0 0 0-5.443-7.94ZM82.102 248.368l.02.043c21.218-4.003 43.405-6.004 65.548-5.961 22.125.043 44.269 2.087 65.466 6.154a6.824 6.824 0 1 0 2.561-13.407c-21.93-4.218-44.958-6.327-68.027-6.37-23.045-.043-46.092 2.001-68.064 6.155a6.8 6.8 0 0 0-5.444 7.94 6.8 6.8 0 0 0 7.94 5.445Zm0 47.212.02.043c21.218-4.003 43.405-6.004 65.548-5.961 22.125.043 44.269 2.087 65.466 6.155a6.827 6.827 0 0 0 2.561-13.407c-21.93-4.219-44.958-6.327-68.027-6.37-23.045-.043-46.092 2.001-68.064 6.154a6.8 6.8 0 0 0-5.444 7.942 6.8 6.8 0 0 0 7.94 5.444Z"/>
  <path fill="#ccc" stroke="#000" stroke-width="5.12" d="M30.422 71.739v278.317a6.824 6.824 0 0 0 9.211 6.391c28.428-9.361 67.595-14.03 106.866-14.03 37.273 0 74.46 4.218 102.436 12.632v18.507c-32.946-9.404-112.572-14.117-112.572-14.117-42.501 0-90.596 10.223-123.59 19.627l.043-302.052a329 329 0 0 1 10.416-3.249 298 298 0 0 1 7.209-2.023zm263.576 301.574v.021c.022.108.043.237.065.345l7.94 46.051c.452 2.625 1.227 4.971 2.367 7.166 1.162 2.216 2.69 4.283 4.669 6.284l18.852 19.088a6.75 6.75 0 0 1 2.13 3.896l3.895 22.618 118.77-20.465-3.896-22.639h.022c-.258-1.55 0-3.185.861-4.649l10.544-17.646c1.721-2.862 2.841-5.724 3.4-8.608.56-2.862.56-5.832.044-8.952l-3.573-21.046a5 5 0 0 1-.129-.754l-9.383-55.453a2.5 2.5 0 0 1-.086-.409l-6.284-36.497c-.603-3.551-3.271-5.487-6.348-6.026-1.464-.258-3.013-.236-4.52.022-1.55.28-3.034.775-4.283 1.464-2.711 1.527-4.561 4.24-3.96 7.811l3.723 21.627a6.84 6.84 0 0 1-5.573 7.876 6.843 6.843 0 0 1-7.876-5.573l-3.723-21.563v-.043l-2.561-14.892c-.602-3.551-3.271-5.487-6.348-6.026-1.464-.258-3.013-.236-4.52.022-1.55.28-3.034.775-4.281 1.464-2.712 1.527-4.563 4.24-3.939 7.832l4.477 25.974a6.843 6.843 0 0 1-5.574 7.876 6.843 6.843 0 0 1-7.876-5.574l-4.475-25.974-1.807-10.522c-.603-3.551-3.271-5.487-6.349-6.026-1.464-.258-3.012-.236-4.518.022-1.55.28-3.035.775-4.283 1.464-2.712 1.527-4.563 4.238-3.939 7.832v.022l6.284 36.497 2.647 15.301a6.84 6.84 0 0 1-5.573 7.875 6.84 6.84 0 0 1-7.876-5.573l-2.625-15.301v-.021l-6.284-36.498v-.021l-8.759-50.872c-.602-3.55-3.271-5.487-6.348-6.025-1.464-.258-3.013-.237-4.52.022-1.55.279-3.034.774-4.281 1.462-2.712 1.529-4.563 4.24-3.939 7.833l17.948 104.199 7.403 42.975a6.84 6.84 0 0 1-5.574 7.875 6.84 6.84 0 0 1-7.876-5.573l-7.403-42.975c-1.227-7.166-9.878-12.546-18.507-14.483-2.668-.602-5.315-.839-7.703-.688-2.044.129-3.831.559-5.121 1.29-1.615.926-2.496 2.841-1.937 6.004l8.479 49.196zM481.157 71.739v278.317a6.7 6.7 0 0 1-.344 2.13c-1.184 3.572-5.035 5.53-8.608 4.346-.495-.172-.99-.323-1.464-.473l1.915 11.362a352 352 0 0 1 16.27 3.529c3.4.84 6.692 1.701 9.834 2.604l.022-296.543a329 329 0 0 0-10.416-3.249 298 298 0 0 0-7.21-2.023zM276.378 351.387a264 264 0 0 0-6.478 1.592 184 184 0 0 0-7.296 2.044v18.528a369 369 0 0 1 6.435-1.742 318 318 0 0 1 10.416-2.496l-3.099-17.948z"/>
  <path fill="#ccc" stroke="#000" stroke-width="5.12" d="M433.665 235.068c-14.676-2.798-29.804-4.649-45.083-5.574a378 378 0 0 0-40.135-.301l-1.592-9.297c-1.764-10.242-9.059-15.709-17.452-17.172-2.991-.516-6.133-.495-9.168.022a26.9 26.9 0 0 0-8.65 3.077c-7.425 4.197-12.482 11.771-10.718 21.972l1.12 6.477c-1.292.237-2.733.495-4.348.797a6.814 6.814 0 0 0-5.444 7.94 6.814 6.814 0 0 0 7.94 5.444c1.206-.215 2.583-.473 4.154-.753l10.459 60.728a47 47 0 0 0-11.47-4.218c-3.958-.883-7.94-1.249-11.599-1.012-4.024.28-7.768 1.27-10.953 3.056-6.606 3.744-10.373 10.308-8.672 20.142l1.979 11.534a228 228 0 0 0-7.574 1.85q-1.969.517-3.874 1.033l.043-292.52c31.333-10.33 66.862-15.494 102.437-15.494 35.593 0 71.098 5.164 102.436 15.494v288.581l-7.854-46.441a9 9 0 0 0-.259-1.055l-1.721-10.028c-1.764-10.244-9.059-15.71-17.452-17.172-2.991-.517-6.133-.495-9.168.021a26.9 26.9 0 0 0-8.651 3.077 12 12 0 0 0-.968.582c-2.819-7.554-9.168-11.728-16.334-12.977-2.991-.517-6.133-.495-9.168.021a26.9 26.9 0 0 0-8.65 3.078c-.689.387-1.357.818-2.001 1.27-3.271-5.251-8.63-8.242-14.526-9.275-2.991-.517-6.133-.495-9.168.021a26.9 26.9 0 0 0-8.65 3.078c-.194.107-.409.236-.603.344l-1.507-8.715a366 366 0 0 1 37.014.366c14.719.882 29.266 2.69 43.362 5.38a6.8 6.8 0 0 0 7.942-5.444 6.8 6.8 0 0 0-5.444-7.942zm.002-141.637h-.002c-22.039-4.175-45.062-6.284-68.025-6.284-22.966 0-45.969 2.087-68.027 6.284a6.8 6.8 0 0 0-5.445 7.94 6.8 6.8 0 0 0 7.942 5.445c21.114-4.025 43.3-6.026 65.53-6.026 22.254 0 44.419 2.001 65.53 6.026a6.814 6.814 0 0 0 7.94-5.445 6.814 6.814 0 0 0-5.442-7.94Zm0 47.212h-.002c-22.039-4.175-45.062-6.284-68.025-6.284-22.966 0-45.969 2.089-68.027 6.284a6.8 6.8 0 0 0-5.445 7.942 6.8 6.8 0 0 0 7.942 5.444c21.114-4.025 43.3-6.026 65.53-6.026 22.254 0 44.419 2.001 65.53 6.026a6.814 6.814 0 0 0 7.94-5.444 6.814 6.814 0 0 0-5.442-7.942Zm0 47.213-.002-.001c-22.039-4.175-45.062-6.283-68.025-6.283-22.966 0-45.969 2.087-68.027 6.284a6.8 6.8 0 0 0-5.445 7.94 6.8 6.8 0 0 0 7.942 5.444c21.114-4.024 43.3-6.025 65.53-6.025 22.254 0 44.419 2.001 65.53 6.025a6.81 6.81 0 0 0 7.94-5.444 6.81 6.81 0 0 0-5.442-7.94Z"/>
</svg>
