<?xml version="1.0" encoding="UTF-8" standalone="no"?><!DOCTYPE svg PUBLIC "-//W3C//DTD SVG 1.1//EN" "http://www.w3.org/Graphics/SVG/1.1/DTD/svg11.dtd"><svg width="417px" height="417px" version="1.1" xmlns="http://www.w3.org/2000/svg" xmlns:xlink="http://www.w3.org/1999/xlink" xml:space="preserve" xmlns:serif="http://www.serif.com/" style="fill-rule:evenodd;clip-rule:evenodd;stroke-linejoin:round;stroke-miterlimit:2;"><g transform="matrix(4.16667,0,0,4.16667,0,0)"><g transform="matrix(0.949885,0,0,0.949885,2.50546,2.5059)"><path d="M33.313,57.813C32.107,59.024 31.429,60.666 31.429,62.375C31.429,65.924 34.35,68.844 37.898,68.844C41.447,68.844 44.367,65.924 44.367,62.375C44.367,58.829 41.452,55.911 37.906,55.906C36.183,55.906 34.529,56.592 33.313,57.813Z" style="fill:rgb(204,204,204);fill-rule:nonzero;stroke:black;stroke-width:1.05px;"/></g><g transform="matrix(0.949885,0,0,0.949885,2.50546,2.5059)"><path d="M68.109,58.453C67.502,58.478 66.901,58.594 66.328,58.797C64.734,59.406 63.049,59.744 61.344,59.797C57.781,59.797 55.766,57.703 55.375,53.547L55.375,53.219L47.188,61.719C47.203,61.927 47.203,62.136 47.188,62.344C46.984,67.296 42.855,71.26 37.898,71.26C32.942,71.26 28.813,67.296 28.609,62.344C28.626,57.281 32.797,53.125 37.859,53.125L38.094,53.125C38.276,53.138 38.459,53.138 38.641,53.125L48.578,43.484L48.438,43.328C43.156,40.75 43.938,36.641 43.969,36.469C44.422,33.949 45.413,31.556 46.875,29.453C47.442,28.563 47.963,27.645 48.438,26.703C48.869,25.943 48.869,25.01 48.438,24.25C47.883,23.531 46.999,23.141 46.094,23.219C45.632,23.216 45.172,23.29 44.734,23.438C40.641,24.859 32,30.5 31.422,38.891C30.719,49.219 24.094,50.016 22.047,50.016L21.5,50.016C21.105,49.981 20.708,49.976 20.312,50C17.672,50 10.813,50.797 4.172,58.172C-3.031,66.141 -0.719,80.406 9.453,90.625C14.892,96.252 22.332,99.521 30.156,99.719C34.133,99.813 38.043,98.672 41.344,96.453C46.795,92.697 50.167,86.583 50.438,79.969C50.578,70.484 56.688,70.281 56.922,70.281C59.913,70.113 62.792,69.076 65.203,67.297C67.041,65.947 68.47,64.113 69.328,62C69.859,60.641 69.938,59.641 69.531,59.063C69.199,58.623 68.657,58.391 68.109,58.453ZM29.266,84.797L26.563,82.016L26.469,82.016C26.112,82.137 25.736,82.195 25.359,82.188C23.488,82.056 21.736,81.211 20.469,79.828C18.594,77.969 17.703,75.5 18.281,73.844L18.281,73.75L15.469,71L18.469,68.016L32.25,81.813L29.266,84.797Z" style="fill:rgb(204,204,204);fill-rule:nonzero;stroke:black;stroke-width:1.05px;"/></g><g transform="matrix(0.949885,0,0,0.949885,2.50546,2.5059)"><path d="M97.953,9.281L100,7.563L99.766,7.469C96.624,6.149 94.125,3.644 92.813,0.5L92.703,0.281L90.984,2.313L90.625,2.016C90.354,1.745 89.992,1.584 89.609,1.562C89.208,1.558 88.822,1.723 88.547,2.016C87.985,2.614 87.985,3.558 88.547,4.156L89.063,4.688L87.5,6.547L87.281,6.344C87,5.869 86.488,5.577 85.937,5.577C85.08,5.577 84.374,6.283 84.374,7.14C84.374,7.691 84.666,8.203 85.141,8.484L85.531,8.875L83.797,10.938L84.609,11.75L50.953,44.391L41.313,53.766L41.531,53.859C42.629,54.317 43.623,54.992 44.453,55.844C45.301,56.686 45.98,57.684 46.453,58.781L46.531,58.984L88.609,15.625L89.422,16.438L91.391,14.766L91.781,15.156C92.068,15.441 92.455,15.604 92.859,15.609C93.674,15.553 94.314,14.867 94.314,14.051C94.314,13.669 94.174,13.301 93.922,13.016L93.75,12.859L95.672,11.297L96.141,11.781C96.428,12.066 96.814,12.229 97.219,12.234C98.076,12.234 98.781,11.529 98.781,10.672C98.775,10.268 98.613,9.881 98.328,9.594L97.953,9.281Z" style="fill:rgb(204,204,204);fill-rule:nonzero;stroke:black;stroke-width:1.05px;"/></g></g></svg>