<?xml version="1.0" encoding="UTF-8" standalone="no"?><!DOCTYPE svg PUBLIC "-//W3C//DTD SVG 1.1//EN" "http://www.w3.org/Graphics/SVG/1.1/DTD/svg11.dtd"><svg width="100%" height="100%" viewBox="0 0 417 417" version="1.1" xmlns="http://www.w3.org/2000/svg" xmlns:xlink="http://www.w3.org/1999/xlink" xml:space="preserve" xmlns:serif="http://www.serif.com/" style="fill-rule:evenodd;clip-rule:evenodd;stroke-linejoin:round;stroke-miterlimit:2;"><path d="M154.619,302.902c0.423,-0.311 0.856,-0.607 1.272,-0.929c6.565,-5.076 12.233,-9.462 13.334,-16.675c0.531,-3.482 -0.137,-6.749 -1.169,-9.473c-4.378,2.549 -8.858,4.652 -13.442,6.279l0.005,20.798Z" style="fill:#ccc;fill-rule:nonzero;stroke:#000;stroke-width:4.17px;"/><path d="M137.888,179.385c0.242,9.041 4.553,16.952 10.8,20.71c0.439,-13.256 2.516,-28.921 6.142,-45.844c-9.815,1.653 -17.28,12.486 -16.942,25.133l0,0.001Z" style="fill:#ccc;fill-rule:nonzero;stroke:#000;stroke-width:4.17px;"/><path d="M89.537,285.294c1.099,7.214 6.769,11.599 13.334,16.675c0.415,0.322 0.85,0.618 1.272,0.929l0.005,-20.951c-4.878,-1.728 -9.369,-3.843 -13.432,-6.151c-1.039,2.729 -1.712,6.006 -1.179,9.497l0,0.001Z" style="fill:#ccc;fill-rule:nonzero;stroke:#000;stroke-width:4.17px;"/><path d="M109.435,112.905c0.017,-3.971 -0.221,-7.949 -0.714,-11.897c-3.991,3.37 -8.292,6.352 -12.851,8.912c-2.91,1.633 -5.953,3.1 -9.038,4.366c-13.224,5.419 -23.731,14.877 -29.58,26.631c-0.143,0.288 -0.288,0.579 -0.43,0.873c-5.393,11.136 -8.38,23.113 -8.89,35.597c1.822,18.293 5.124,34.792 9.293,47.06c0.044,0.109 0.082,0.221 0.115,0.336c1.802,5.248 3.762,9.712 5.833,13.188c2.075,3.48 4.895,7.244 8.156,10.888c0.035,0.039 0.071,0.079 0.106,0.123c2.828,3.415 9.523,10.743 19.525,17.178c0.034,0.019 0.067,0.027 0.1,0.045c0.065,0.039 0.118,0.09 0.18,0.132c9.744,6.216 22.58,11.557 38.029,11.657c14.243,0.12 27.722,-4.292 40.203,-13.026c-9.068,-12.386 -15.121,-25.627 -18.068,-36.062c-2.187,-7.743 -4.183,-20.984 -3.199,-21.004c-14.684,-3.832 -18.706,-21.397 -18.698,-28.289c0.014,-12.931 5.796,-24.455 14.95,-30.17c0.37,-13.162 2.202,-25.98 5.472,-38.338c-2.653,2.652 -5.387,5.218 -8.207,7.676c-8.823,7.691 -18.498,14.449 -28.751,20.089c-1.454,0.8 -3.244,0.666 -4.564,-0.339c-1.321,-1.006 -1.922,-2.696 -1.535,-4.311c1.673,-6.98 2.534,-14.15 2.564,-21.315l-0.001,0Z" style="fill:#ccc;fill-rule:nonzero;stroke:#000;stroke-width:4.17px;"/><path d="M129.214,286.385c-5.92,-0.039 -11.481,-0.771 -16.681,-1.982l-0.007,23.768c5.21,2.751 10.84,4.872 16.852,6.312c6.013,-1.442 11.643,-3.561 16.853,-6.312l-0.007,-23.639c-5.39,1.227 -10.898,1.855 -16.514,1.855c-0.167,-0 -0.33,-0 -0.496,-0.002l-0,-0Z" style="fill:#ccc;fill-rule:nonzero;stroke:#000;stroke-width:4.17px;"/><path d="M33.983,207.765c2.524,6.91 7.748,11.974 13.464,13.578c-3.151,-10.778 -5.665,-23.778 -7.323,-38.142c-6.955,4.301 -9.733,14.734 -6.141,24.565l-0,-0.001Z" style="fill:#ccc;fill-rule:nonzero;stroke:#000;stroke-width:4.17px;"/><path d="M88.199,406.232l39.952,-21.93c2.441,-1.341 4.459,-3.162 6.001,-5.415c3.077,-4.496 6.451,-8.857 10.027,-12.958c1.807,-2.073 3.7,-4.117 5.626,-6.077c4.992,-5.082 11.616,-7.881 18.654,-7.881l11.506,-0l11.272,-33.626c-8.01,8.608 -20.001,15.282 -34.089,18.38c-0.303,0.067 -0.606,0.099 -0.904,0.099c-1.927,-0 -3.662,-1.334 -4.091,-3.294c-0.497,-2.261 0.932,-4.499 3.195,-4.997c20.139,-4.428 35.716,-17.394 37.879,-31.53c0.228,-1.489 0.514,-4.393 0.161,-8.235c-6.519,-4.556 -12.336,-9.934 -17.427,-15.721c1.674,4.511 2.225,9.095 1.554,13.499c-1.605,10.532 -9.514,16.65 -16.492,22.046c-8.865,6.857 -19.199,11.657 -30.713,14.271c-0.305,0.07 -0.616,0.103 -0.927,0.103c-0.312,0 -0.623,-0.034 -0.928,-0.103c-11.516,-2.614 -21.847,-7.416 -30.712,-14.271c-6.979,-5.396 -14.89,-11.514 -16.493,-22.046c-0.761,-4.992 0.047,-10.215 2.291,-15.302c-2.87,-2.003 -5.461,-4.041 -7.744,-6.006c-2.886,3.132 -6.049,7.558 -8.167,13.401c-3.199,8.822 -2.41,16.286 -2.091,18.364c2.162,14.137 17.738,27.103 37.878,31.53c2.263,0.498 3.692,2.734 3.196,4.997c-0.432,1.959 -2.167,3.294 -4.092,3.294c-0.298,-0 -0.601,-0.033 -0.904,-0.098c-21.334,-4.691 -37.854,-17.578 -43.022,-32.979c-1.72,1.172 -3.513,2.816 -4.907,5.119c-0.014,0.021 -2.486,4.271 -2.396,9.481c0.133,7.801 10.583,19.09 30.297,25.574c2.202,0.722 3.397,3.093 2.673,5.293c-0.581,1.765 -2.221,2.884 -3.983,2.884c-0.435,-0 -0.876,-0.068 -1.31,-0.212c-8.026,-2.639 -15.079,-6.182 -20.774,-10.265c-7.817,7.59 -14.992,15.877 -21.344,24.692c-8.884,12.325 -16.235,25.73 -21.911,39.92l38.746,-0l0,-25.026c0,-2.316 1.878,-4.193 4.193,-4.193c2.316,0 4.193,1.878 4.193,4.193l-0,25.026l26.128,-0.002l-0.001,0.001Z" style="fill:#ccc;fill-rule:nonzero;stroke:#000;stroke-width:4.17px;"/><path d="M169.615,384.719l26.716,8.961c1.056,0.355 2.186,0.275 3.184,-0.223c1.012,-0.506 1.768,-1.382 2.126,-2.466c0.739,-2.235 -0.456,-4.656 -2.664,-5.396l-26.716,-8.962c-2.197,-0.737 -3.379,-3.113 -2.643,-5.308c0.679,-2.025 2.752,-3.167 4.79,-2.761l2.746,-8.192l-8.695,0c-4.769,0 -9.269,1.907 -12.669,5.372c-1.81,1.843 -3.59,3.766 -5.289,5.714c-3.363,3.857 -6.533,7.956 -9.427,12.184c-2.26,3.301 -5.332,6.077 -8.887,8.029l-26.561,14.579l90.879,0c0.269,-1.993 -0.886,-3.961 -2.841,-4.617l-26.716,-8.962c-2.196,-0.737 -3.379,-3.113 -2.643,-5.308c0.738,-2.198 3.117,-3.38 5.31,-2.644l-0,-0Z" style="fill:#ccc;fill-rule:nonzero;stroke:#000;stroke-width:4.17px;"/><path d="M203.865,400.606c0.762,1.75 1.135,3.668 1.049,5.626l38.916,-0c-5.678,-14.19 -13.029,-27.597 -21.911,-39.92c-3.438,-4.771 -7.141,-9.405 -11.039,-13.847l-8.528,25.439c6.118,2.47 9.362,9.345 7.253,15.71c-0.994,2.995 -3.026,5.448 -5.74,6.992l-0,-0Z" style="fill:#ccc;fill-rule:nonzero;stroke:#000;stroke-width:4.17px;"/><path d="M213.264,298.959c-2.017,-0.684 -3.98,-1.465 -5.903,-2.304l-24.984,74.527l12.033,4.038l24.966,-74.472c-2.046,-0.508 -4.084,-1.097 -6.113,-1.785l0.001,-0.004Z" style="fill:#ccc;fill-rule:nonzero;stroke:#000;stroke-width:4.17px;"/><path d="M152.982,146.073c1.037,-0.199 2.093,-0.335 3.167,-0.393c0.908,-0.049 1.863,-0.012 2.852,0.063c20.632,-13.469 40.611,-28.358 59.395,-44.284c16.656,-14.124 32.711,-29.341 47.716,-45.231c1.156,-1.224 2.934,-1.638 4.511,-1.05c1.578,0.587 2.652,2.061 2.727,3.744c0.864,19.498 4.403,38.629 10.517,56.859c15.104,45.039 42.941,75.755 63.768,93.671c0.981,0.551 1.984,1.247 2.951,2.033c4.023,-7.185 11.63,-22.144 16.987,-40.998c9.393,-33.068 7.541,-61.923 -5.506,-85.755c-3.976,-7.263 -16.077,-29.37 -42.771,-41.497c-22.107,-10.044 -43.21,-8.122 -53.824,-6.084c-1.117,0.213 -2.276,-0.035 -3.207,-0.691c-7.301,-5.147 -15.472,-8.137 -23.626,-8.645c-15.067,-0.939 -26.09,6.604 -34.94,12.665l-0.098,0.066c-21.823,14.941 -31.404,36.199 -37.13,48.901c-7.979,17.701 -12.499,36.728 -13.49,56.628l0.001,-0.002Z" style="fill:#ccc;fill-rule:nonzero;stroke:#000;stroke-width:4.17px;"/><path d="M49.273,138.136c0.155,-0.32 0.313,-0.64 0.469,-0.958c6.759,-13.575 18.801,-24.463 33.908,-30.656c2.771,-1.135 5.502,-2.456 8.116,-3.921c6.182,-3.468 11.837,-7.811 16.806,-12.903c1.082,-1.109 2.689,-1.53 4.176,-1.097c1.486,0.435 2.614,1.653 2.93,3.169c1.45,6.95 2.17,14.071 2.141,21.168c-0.02,4.662 -0.361,9.324 -1.022,13.943c6.83,-4.297 13.336,-9.13 19.413,-14.428c7.53,-6.563 14.458,-13.895 20.607,-21.792c0.646,-1.564 1.311,-3.124 2.007,-4.669c4.249,-9.43 10.505,-23.292 21.979,-36.337c-21.252,-19.808 -50.103,-32.866 -84.033,-37.996l2.865,10.146c0.387,1.368 0.054,2.84 -0.886,3.907c-0.937,1.069 -2.357,1.589 -3.761,1.381c-8.762,-1.294 -17.455,-3.375 -25.839,-6.189c-8.28,-2.779 -16.344,-6.296 -24.045,-10.487c-0.436,7.649 -0.095,15.315 1.022,22.869c1.033,6.986 2.741,13.917 5.075,20.602c0.605,1.73 0.015,3.652 -1.453,4.746c-1.47,1.094 -3.479,1.107 -4.964,0.035l-10.986,-7.949c-1.68,11.489 -2.559,23.116 -2.616,34.654c-0.123,24.846 3.495,49.553 10.77,73.67c1.638,-7.204 4.071,-14.198 7.32,-20.91l0.001,0.002Z" style="fill:#ccc;fill-rule:nonzero;stroke:#000;stroke-width:4.17px;"/><path d="M275.916,118.447c-5.358,-15.977 -8.815,-32.614 -10.309,-49.579c-13.291,13.629 -27.314,26.713 -41.785,38.985c-18.992,16.104 -39.191,31.16 -60.047,44.787c-4.508,20.091 -6.836,38.793 -6.771,53.389c0.005,0.112 0.007,0.223 0.004,0.338c0.045,6.401 0.549,12.007 1.541,16.576c2.338,10.772 8.932,26.099 19.625,39.807c0.182,0.165 0.356,0.34 0.511,0.54c0.107,0.136 0.183,0.286 0.268,0.431c5.65,7.072 12.4,13.662 20.236,18.922c0.282,0.138 0.54,0.317 0.781,0.511c2.195,1.437 4.466,2.778 6.829,3.985c0.08,0.042 0.165,0.077 0.243,0.123c2.854,1.445 5.826,2.711 8.92,3.762c3.089,1.049 6.21,1.853 9.346,2.442c0.087,0.01 0.172,0.035 0.256,0.05c30.806,5.685 62.81,-9.471 77.021,-21.642c3.52,-3.014 7.275,-7.14 11.145,-12.172c0.107,-0.16 0.223,-0.313 0.353,-0.458c8.605,-11.298 17.747,-27.064 26.068,-45.188c-21.381,-18.83 -49.011,-50.205 -64.237,-95.606l0.002,-0.003Z" style="fill:#ccc;fill-rule:nonzero;stroke:#000;stroke-width:4.17px;"/><path d="M345.221,249.816c7.879,-9.852 8.456,-23.018 1.645,-30.336c-7.093,15.222 -14.634,28.607 -22.052,39.269c8.149,0.113 15.737,-3.09 20.407,-8.933l0,-0Z" style="fill:#ccc;fill-rule:nonzero;stroke:#000;stroke-width:4.17px;"/><path d="M378.342,34.998c-7.557,-6.944 -23.148,-18.238 -42.669,-15.86c-11.109,1.354 -19.818,6.785 -25.677,11.759c4.176,1.202 8.445,2.742 12.751,4.698c29.242,13.283 42.353,37.236 46.659,45.107c31.187,56.974 -5.141,124.17 -13.08,137.601c5.973,10.499 4.499,25.423 -4.56,36.752c-6.491,8.116 -16.994,12.5 -28.06,12.065c3.122,6.512 9.259,15.772 20.529,21.756c3.853,2.047 7.661,3.374 11.287,4.205c0.023,0.005 0.047,0.01 0.071,0.015c7.325,1.668 13.896,1.287 18.524,0.519c-1.731,-4.522 -3.163,-9.164 -4.267,-13.853c-7.213,-30.586 1.532,-52.844 11.66,-78.62c4.721,-12.017 9.604,-24.443 13.299,-38.854c0.947,-3.707 22.816,-91.182 -16.471,-127.29l0.004,-0Z" style="fill:#ccc;fill-rule:nonzero;stroke:#000;stroke-width:4.17px;"/></svg>