<svg xmlns="http://www.w3.org/2000/svg" xml:space="preserve" width="512" height="512" fill-rule="evenodd" stroke-linejoin="round" stroke-miterlimit="2" clip-rule="evenodd" viewBox="0 0 512 512">
  <path fill="#ccc" stroke="#000" stroke-width="5.12" d="M169.855 415.619s-7.856 9.778-8.023 9.992a10.7 10.7 0 0 1-7.048 3.702c-2.658.285-5.436-.356-7.713-2.089-.167-.166-.404-.333-.594-.474a10.9 10.9 0 0 1-3.679-7.049c-.308-2.777.427-5.696 2.302-7.998 0 0 8.995-11.06 9.707-11.582.095-.048.166-.119.262-.19a10.8 10.8 0 0 1 5.102-1.898c2.777-.308 5.673.427 7.998 2.302a10.7 10.7 0 0 1 3.988 7.263c.308 2.801-.427 5.696-2.302 8.021ZM152.34 250.746l.474-.855L12.79 162.578v155.738l77.701 40.108 61.418-106.96c.142-.262.285-.498.427-.735zm48.248 183.478c1.852-2.325 2.587-5.221 2.302-8.021-.308-2.635-1.542-5.174-3.702-7.026-.19-.166-.404-.308-.594-.474a10.78 10.78 0 0 0-7.712-2.089 10.83 10.83 0 0 0-7.049 3.679c-.167.214-11.915 14.809-11.915 14.809a10.93 10.93 0 0 0-2.302 8.023c.309 2.634 1.543 5.173 3.703 7.024.189.166.403.308.593.475a10.8 10.8 0 0 0 7.713 2.089 10.9 10.9 0 0 0 7.049-3.679c.166-.262 11.866-14.787 11.866-14.787l.023-.023zm61.779-172.891c-1.448-.474-2.943-.925-6.906-2.112-2.468-.759-4.937-.735-7.191-.023-2.183.688-4.177 2.089-5.767 4.106l-41.272 52.614c-2.231 2.824-3.109 6.337-2.682 9.73.404 3.346 2.041 6.574 4.912 8.781 2.824 2.231 6.313 3.086 9.659 2.682a13.68 13.68 0 0 0 8.947-4.96l35.101-43.596a6.894 6.894 0 0 1 8.9-1.59v-.025l113.441 67.165 21.549-2.895-48.747-84.916c-28.337 13.954-61.586 3.726-89.924-4.96zm96.398-11.415 1.828 3.18.095.119c.142.214.285.451.404.688l60.045 104.571 77.663-24.811V177.927l-140.009 72.015zm16.329 117.689c-.142-.118-.333-.214-.546-.356l-.047-.023-.025-.023-110.357-65.313-31.351 38.945a27.48 27.48 0 0 1-18.06 10.039c-6.86.807-14.003-.949-19.842-5.553-5.862-4.604-9.28-11.178-10.134-18.037-.807-6.883.974-14.05 5.578-19.912l23.78-30.331-13.742.333c-3.821.118-7.405-.214-10.917-.997-3.536-.76-6.93-1.994-10.323-3.679l-18.275-9.042-52.357 91.134 42.837 31.517a24 24 0 0 1 7.357-1.969c6.266-.689 12.816.996 18.131 5.269a24.46 24.46 0 0 1 8.662 14.025 27 27 0 0 1 3.94-.735c6.266-.689 12.816.997 18.131 5.269a24.75 24.75 0 0 1 9.09 16.589c0 .166.025.308.025.475.166-.025.332-.048.498-.096a24.86 24.86 0 0 1 18.131 5.269l.023.025a24.4 24.4 0 0 1 8.473 13.29 26.5 26.5 0 0 1 4.912-1.044c6.289-.665 12.815.996 18.156 5.269v.023a24.48 24.48 0 0 1 9.065 16.589 24.6 24.6 0 0 1-1.661 12.009l4.367 3.228c2.943 2.16 6.503 2.919 9.873 2.42 3.369-.545 6.503-2.302 8.662-5.221 2.135-2.919 2.895-6.479 2.397-9.873a13.22 13.22 0 0 0-4.96-8.472l-.166-.096-37.261-22.048c-3.276-1.946-4.367-6.17-2.445-9.492 1.946-3.276 6.194-4.391 9.493-2.421l42.647 25.892c2.92 2.136 6.479 2.896 9.85 2.398a13.14 13.14 0 0 0 8.662-5.222c2.136-2.919 2.895-6.478 2.397-9.848-.498-3.322-2.231-6.431-5.078-8.568-.166-.095-50.005-29.571-50.005-29.571a6.98 6.98 0 0 1-2.445-9.493c1.946-3.276 6.194-4.367 9.493-2.445l51.951 30.9c2.942 2.16 6.479 2.919 9.873 2.42 3.369-.545 6.503-2.302 8.638-5.221 2.16-2.919 2.92-6.479 2.421-9.848a13.2 13.2 0 0 0-5.079-8.592c-.166-.047-.308-.142-.451-.214l-54.989-32.537c-3.275-1.946-4.366-6.194-2.445-9.493a6.98 6.98 0 0 1 9.493-2.445l59.069 35.362c2.92 2.16 6.479 2.919 9.873 2.397a13.05 13.05 0 0 0 8.639-5.197c.166-.214.333-.451.498-.735 1.827-2.824 2.516-6.29 2.112-9.493-.427-2.99-1.827-5.744-4.224-7.523zm-144.437 80.876a10.83 10.83 0 0 0-3.702-7.049 11 11 0 0 1-.594-.474c-2.278-1.686-5.03-2.35-7.713-2.089-2.634.308-5.197 1.542-7.048 3.702-.167.214-11.915 14.857-12.128 15.07a10.8 10.8 0 0 0-2.089 7.713 10.85 10.85 0 0 0 3.988 7.286 10.93 10.93 0 0 0 8.021 2.302c2.564-.285 5.032-1.448 6.883-3.512 4.129-5.293 8.449-10.751 12.745-15.996 1.352-2.136 1.85-4.604 1.59-7.026zm27.862 10.514a6 6 0 0 1-.616-.474c-2.279-1.686-5.032-2.35-7.713-2.089-2.635.308-5.174 1.542-7.026 3.702-.166.214-4.058 4.984-4.058 4.984s-12.863 16.067-13.076 16.281a10.85 10.85 0 0 0-2.042 7.713c.285 2.634 1.519 5.197 3.679 7.049.19.142.404.308.594.474 2.278 1.709 5.055 2.35 7.713 2.089a10.85 10.85 0 0 0 7.286-3.987l16.423-20.482c.047-.095.142-.166.189-.214 1.875-2.325 2.612-5.245 2.302-8.021a10.9 10.9 0 0 0-3.679-7.049zm-98.727-350.203c0-53.044 42.98-96.024 95.999-96.024 52.994 0 96.024 42.98 96.024 96.024 0 47.727-34.816 87.286-80.405 94.769l-.902 1.543-14.714 25.44-14.713-25.44-.879-1.543c-45.613-7.452-80.405-47.014-80.405-94.769zm40.678 14.762 27.056 27.055c4.888 4.889 12.768 4.889 17.609 0l66.001-66c4.888-4.866 4.888-12.769 0-17.611-4.866-4.865-12.745-4.865-17.586 0l-57.222 57.172-18.25-18.252c-4.865-4.865-12.768-4.865-17.609 0-4.866 4.889-4.866 12.769 0 17.611z"/>
</svg>
