<svg xmlns="http://www.w3.org/2000/svg" xml:space="preserve" width="512" height="512" fill-rule="evenodd" stroke-linejoin="round" stroke-miterlimit="2" clip-rule="evenodd" viewBox="0 0 512 512">
  <path fill="#ccc" fill-rule="nonzero" stroke="#000" stroke-width="5.12" d="M189.844 371.908c.519-.382 1.051-.745 1.562-1.141 8.061-6.232 15.02-11.618 16.372-20.474.652-4.275-.168-8.287-1.435-11.631-5.375 3.13-10.876 5.712-16.504 7.709zm-20.543-151.656c.297 11.101 5.59 20.814 13.26 25.428.539-16.276 3.089-35.51 7.541-56.288-12.051 2.03-21.217 15.331-20.802 30.859zm-59.366 130.037c1.349 8.857 8.311 14.241 16.372 20.474.51.395 1.044.759 1.562 1.141l.006-25.724a103 103 0 0 1-16.492-7.552c-1.276 3.351-2.102 7.374-1.448 11.661z"/>
  <path fill="#ccc" fill-rule="nonzero" stroke="#000" stroke-width="5.12" d="M134.366 138.627a114 114 0 0 0-.877-14.607 101.4 101.4 0 0 1-15.779 10.942 102 102 0 0 1-11.097 5.361c-16.237 6.654-29.137 18.266-36.319 32.698q-.265.53-.528 1.072c-6.622 13.673-10.289 28.379-10.915 43.707 2.237 22.46 6.291 42.718 11.41 57.781q.081.2.141.413c2.213 6.444 4.619 11.925 7.162 16.192 2.548 4.273 6.01 8.894 10.014 13.368q.065.071.13.151c3.472 4.193 11.693 13.19 23.973 21.091.042.023.082.033.123.055.08.048.145.111.221.162 11.964 7.632 27.724 14.19 46.693 14.313 17.488.147 34.038-5.27 49.362-15.994-11.134-15.208-18.566-31.465-22.184-44.278-2.685-9.507-5.136-25.765-3.928-25.789-18.029-4.705-22.968-26.272-22.958-34.734.017-15.877 7.116-30.026 18.356-37.043.454-16.161 2.704-31.899 6.719-47.072a203 203 0 0 1-10.077 9.425 202 202 0 0 1-35.301 24.666 5.16 5.16 0 0 1-5.604-.416 5.15 5.15 0 0 1-1.885-5.293 114.4 114.4 0 0 0 3.148-26.171zm24.285 213.002a92.7 92.7 0 0 1-20.481-2.434l-.009 29.183c6.397 3.378 13.31 5.982 20.691 7.75 7.383-1.771 14.295-4.372 20.692-7.75l-.009-29.024a91 91 0 0 1-20.276 2.278q-.306 0-.609-.002ZM41.725 255.098c3.099 8.484 9.513 14.702 16.531 16.671-3.869-13.233-6.956-29.195-8.991-46.831-8.539 5.281-11.95 18.091-7.54 30.161z"/>
  <path fill="#ccc" fill-rule="nonzero" stroke="#000" stroke-width="5.12" d="m108.292 498.779 49.054-26.926c2.997-1.647 5.475-3.882 7.368-6.649a173 173 0 0 1 12.311-15.91 171 171 0 0 1 6.908-7.461c6.129-6.24 14.262-9.676 22.904-9.676h14.127l13.84-41.287c-9.835 10.569-24.558 18.764-41.855 22.567a5.14 5.14 0 0 1-6.133-3.923 5.15 5.15 0 0 1 3.923-6.135c24.727-5.437 43.853-21.357 46.509-38.713.28-1.828.631-5.394.198-10.111-8.004-5.594-15.146-12.197-21.397-19.303 2.055 5.539 2.732 11.167 1.908 16.574-1.971 12.931-11.681 20.443-20.249 27.068-10.885 8.419-23.573 14.313-37.71 17.522q-.564.128-1.138.126-.577 0-1.139-.126c-14.14-3.21-26.824-9.105-37.709-17.522-8.569-6.625-18.282-14.137-20.25-27.068-.934-6.129.058-12.542 2.813-18.788a119 119 0 0 1-9.508-7.374 48.9 48.9 0 0 0-10.028 16.454c-3.928 10.832-2.959 19.996-2.567 22.548 2.655 17.358 21.779 33.278 46.507 38.713a5.151 5.151 0 0 1-2.21 10.06c-26.194-5.76-46.478-21.583-52.823-40.492-2.112 1.439-4.313 3.458-6.025 6.285-.017.026-3.052 5.244-2.942 11.641.163 9.578 12.994 23.439 37.199 31.4a5.145 5.145 0 0 1 3.282 6.499 5.16 5.16 0 0 1-4.89 3.541 5.2 5.2 0 0 1-1.608-.26c-9.854-3.24-18.514-7.59-25.507-12.604a229 229 0 0 0-26.207 30.317 229.6 229.6 0 0 0-26.903 49.014h47.573v-30.727a5.148 5.148 0 0 1 10.296 0v30.727l32.08-.002z"/>
  <path fill="#ccc" fill-rule="nonzero" stroke="#000" stroke-width="5.12" d="m208.256 472.365 32.802 11.002a5.07 5.07 0 0 0 3.909-.274 5.16 5.16 0 0 0 2.61-3.028c.907-2.744-.56-5.717-3.271-6.625l-32.802-11.004a5.145 5.145 0 0 1-3.245-6.517c.834-2.486 3.379-3.888 5.881-3.39l3.372-10.058h-10.676c-5.855 0-11.381 2.341-15.555 6.596a162 162 0 0 0-6.494 7.016 162 162 0 0 0-11.575 14.96 31.8 31.8 0 0 1-10.912 9.858l-32.612 17.9h111.583c.33-2.447-1.088-4.863-3.488-5.669l-32.802-11.004a5.148 5.148 0 1 1 3.275-9.764Zm42.053 19.506a15.6 15.6 0 0 1 1.288 6.908h47.782c-6.972-17.423-15.997-33.884-26.903-49.014a227 227 0 0 0-13.554-17.002l-10.471 31.234c7.512 3.033 11.495 11.474 8.905 19.289a15.4 15.4 0 0 1-7.048 8.585Z"/>
  <path fill="#ccc" fill-rule="nonzero" stroke="#000" stroke-width="5.12" d="M261.849 367.067a92 92 0 0 1-7.248-2.829l-30.676 91.506 14.774 4.958 30.654-91.438a93 93 0 0 1-7.506-2.192zm-74.015-187.716a29 29 0 0 1 3.888-.483c1.115-.06 2.287-.015 3.502.077a732 732 0 0 0 72.926-54.373 733 733 0 0 0 58.587-55.535 5.148 5.148 0 0 1 8.887 3.308c1.061 23.94 5.406 47.429 12.913 69.812 18.545 55.3 52.724 93.013 78.295 115.011a26 26 0 0 1 3.623 2.496c4.94-8.822 14.28-27.189 20.857-50.338 11.533-40.601 9.259-76.03-6.76-105.292-4.882-8.918-19.74-36.061-52.515-50.951-27.143-12.332-53.054-9.972-66.086-7.47a5.16 5.16 0 0 1-3.938-.848c-8.964-6.32-18.997-9.991-29.008-10.614-18.5-1.153-32.034 8.109-42.9 15.55l-.12.081c-26.795 18.345-38.558 44.446-45.589 60.042-9.797 21.734-15.346 45.095-16.563 69.529zm-127.336-9.745.576-1.176c8.299-16.668 23.084-30.036 41.633-37.64a91 91 0 0 0 9.965-4.814 91.1 91.1 0 0 0 20.635-15.843 5.16 5.16 0 0 1 5.127-1.347 5.16 5.16 0 0 1 3.598 3.891 125 125 0 0 1 2.629 25.99 125 125 0 0 1-1.255 17.119 191.5 191.5 0 0 0 23.836-17.715 192 192 0 0 0 25.302-26.757 198 198 0 0 1 2.464-5.733c5.217-11.578 12.898-28.598 26.986-44.615-26.094-24.319-61.518-40.352-103.178-46.651l3.518 12.457a5.15 5.15 0 0 1-1.088 4.797 5.15 5.15 0 0 1-4.618 1.696 185 185 0 0 1-31.726-7.599A185 185 0 0 1 55.379 12.79a138.3 138.3 0 0 0 1.255 28.079 138.3 138.3 0 0 0 6.231 25.296 5.149 5.149 0 0 1-7.879 5.87l-13.488-9.76a305 305 0 0 0-3.212 42.549c-.151 30.506 4.291 60.842 13.224 90.453a119.7 119.7 0 0 1 8.988-25.674z"/>
  <path fill="#ccc" fill-rule="nonzero" stroke="#000" stroke-width="5.12" d="M338.775 145.431c-6.579-19.617-10.823-40.044-12.658-60.874a744 744 0 0 1-51.304 47.866 742 742 0 0 1-73.727 54.99c-5.535 24.668-8.393 47.631-8.314 65.552q.01.205.005.415c.055 7.859.674 14.742 1.892 20.352 2.871 13.226 10.967 32.045 24.096 48.876.223.203.437.417.627.663.131.167.225.351.329.529 6.937 8.683 15.225 16.774 24.846 23.233.346.169.663.389.959.627a91 91 0 0 0 8.385 4.893c.098.052.203.095.298.151a85 85 0 0 0 10.952 4.619 83.5 83.5 0 0 0 11.475 2.998c.107.012.211.043.314.061 37.824 6.98 77.119-11.629 94.568-26.572 4.322-3.701 8.932-8.767 13.684-14.945q.196-.295.433-.562c10.565-13.872 21.79-33.23 32.007-55.483-26.252-23.12-60.177-61.643-78.871-117.387zm85.094 161.297c9.674-12.096 10.382-28.262 2.02-37.247-8.709 18.69-17.968 35.124-27.076 48.215 10.005.139 19.322-3.794 25.056-10.968Z"/>
  <path fill="#ccc" fill-rule="nonzero" stroke="#000" stroke-width="5.12" d="M464.535 42.971c-9.279-8.526-28.422-22.393-52.39-19.473-13.64 1.662-24.333 8.331-31.527 14.438a114 114 0 0 1 15.656 5.768c35.904 16.309 52.002 45.719 57.289 55.383 38.292 69.954-6.312 152.458-16.06 168.949 7.334 12.891 5.524 31.215-5.599 45.125-7.97 9.965-20.866 15.348-34.453 14.814 3.833 7.996 11.368 19.365 25.206 26.712a56 56 0 0 0 13.946 5.181c8.994 2.048 17.062 1.58 22.744.637a133 133 0 0 1-5.239-17.009c-8.856-37.554 1.881-64.883 14.316-96.531 5.797-14.755 11.792-30.012 16.329-47.706 1.163-4.552 28.014-111.955-20.223-156.289z"/>
</svg>
