<?xml version="1.0" encoding="UTF-8" standalone="no"?><!DOCTYPE svg PUBLIC "-//W3C//DTD SVG 1.1//EN" "http://www.w3.org/Graphics/SVG/1.1/DTD/svg11.dtd"><svg width="100%" height="100%" viewBox="0 0 417 417" version="1.1" xmlns="http://www.w3.org/2000/svg" xmlns:xlink="http://www.w3.org/1999/xlink" xml:space="preserve" xmlns:serif="http://www.serif.com/" style="fill-rule:evenodd;clip-rule:evenodd;stroke-linejoin:round;stroke-miterlimit:2;"><path d="M138.339,338.502c-0,0 -6.398,7.964 -6.534,8.138c-1.507,1.759 -3.556,2.783 -5.74,3.015c-2.165,0.232 -4.427,-0.29 -6.282,-1.701c-0.136,-0.135 -0.329,-0.271 -0.484,-0.386c-1.739,-1.508 -2.764,-3.596 -2.996,-5.741c-0.251,-2.262 0.348,-4.639 1.875,-6.514c0,-0 7.326,-9.008 7.906,-9.433c0.077,-0.039 0.135,-0.097 0.213,-0.155c1.237,-0.869 2.667,-1.391 4.155,-1.546c2.262,-0.251 4.62,0.348 6.514,1.875c1.895,1.508 3.016,3.672 3.248,5.915c0.251,2.281 -0.348,4.639 -1.875,6.533Zm-14.265,-134.281l0.386,-0.696l-114.043,-71.112l-0,126.841l63.284,32.666l50.022,-87.114c0.116,-0.213 0.232,-0.406 0.348,-0.599l0.003,0.014Zm39.296,149.434c1.508,-1.894 2.107,-4.252 1.875,-6.533c-0.251,-2.146 -1.256,-4.214 -3.015,-5.722c-0.155,-0.135 -0.329,-0.251 -0.484,-0.386c-1.855,-1.392 -4.117,-1.953 -6.281,-1.701c-2.165,0.231 -4.234,1.256 -5.741,2.996c-0.136,0.174 -9.704,12.061 -9.704,12.061c-1.507,1.894 -2.126,4.252 -1.875,6.534c0.252,2.145 1.257,4.213 3.016,5.721c0.154,0.135 0.328,0.251 0.483,0.387c1.856,1.391 4.117,1.952 6.282,1.701c2.145,-0.232 4.233,-1.257 5.741,-2.996c0.135,-0.213 9.664,-12.043 9.664,-12.043l0.019,-0.019l0.02,-0Zm50.316,-140.812c-1.179,-0.386 -2.397,-0.753 -5.625,-1.72c-2.01,-0.618 -4.021,-0.599 -5.857,-0.019c-1.778,0.56 -3.402,1.701 -4.697,3.344l-33.614,42.852c-1.817,2.3 -2.532,5.161 -2.184,7.925c0.329,2.725 1.662,5.354 4.001,7.152c2.3,1.817 5.142,2.513 7.867,2.184c2.764,-0.348 5.412,-1.72 7.287,-4.04l28.588,-35.507c1.759,-2.185 4.871,-2.726 7.249,-1.295l-0,-0.02l92.392,54.703l17.551,-2.358l-39.702,-69.16c-23.079,11.365 -50.159,3.035 -73.239,-4.04l-0.017,-0.001Zm78.512,-9.297l1.489,2.59l0.077,0.097c0.116,0.174 0.232,0.367 0.329,0.56l48.904,85.168l63.253,-20.207l-0,-126.841l-114.031,58.653l-0.021,-0.02Zm13.299,95.852c-0.116,-0.096 -0.271,-0.174 -0.445,-0.29l-0.038,-0.019l-0.02,-0.019l-89.881,-53.194l-25.534,31.719c-3.788,4.697 -9.143,7.5 -14.709,8.176c-5.587,0.657 -11.405,-0.773 -16.16,-4.523c-4.774,-3.75 -7.558,-9.104 -8.254,-14.69c-0.657,-5.606 0.793,-11.443 4.543,-16.217l19.368,-24.703l-11.192,0.271c-3.112,0.096 -6.031,-0.174 -8.891,-0.812c-2.88,-0.619 -5.644,-1.624 -8.408,-2.996l-14.884,-7.364l-42.642,74.224l34.889,25.669c1.894,-0.851 3.924,-1.392 5.992,-1.604c5.103,-0.561 10.438,0.811 14.767,4.291c3.731,2.996 6.128,7.055 7.055,11.423c1.044,-0.271 2.107,-0.483 3.209,-0.599c5.103,-0.561 10.438,0.812 14.767,4.291c4.311,3.479 6.843,8.389 7.403,13.511c0,0.135 0.02,0.251 0.02,0.387c0.135,-0.02 0.27,-0.039 0.406,-0.078c5.122,-0.541 10.437,0.851 14.767,4.291l0.019,0.02c3.557,2.86 5.896,6.688 6.901,10.824c1.295,-0.406 2.648,-0.696 4.001,-0.85c5.122,-0.542 10.437,0.811 14.787,4.291l-0,0.019c4.31,3.441 6.842,8.37 7.383,13.511c0.367,3.267 -0.077,6.649 -1.353,9.781l3.557,2.629c2.397,1.759 5.296,2.377 8.041,1.971c2.744,-0.444 5.296,-1.875 7.055,-4.252c1.739,-2.377 2.358,-5.277 1.952,-8.041c-0.406,-2.648 -1.778,-5.142 -4.04,-6.9l-0.135,-0.078l-30.347,-17.957c-2.668,-1.585 -3.557,-5.025 -1.991,-7.731c1.585,-2.668 5.045,-3.576 7.732,-1.972l34.734,21.088c2.378,1.74 5.277,2.359 8.022,1.953c2.745,-0.406 5.296,-1.875 7.055,-4.253c1.74,-2.377 2.358,-5.276 1.952,-8.021c-0.406,-2.706 -1.817,-5.238 -4.136,-6.978c-0.135,-0.077 -40.727,-24.084 -40.727,-24.084c-2.667,-1.605 -3.556,-5.045 -1.991,-7.732c1.585,-2.668 5.045,-3.557 7.732,-1.991l42.312,25.167c2.396,1.759 5.277,2.377 8.041,1.971c2.744,-0.444 5.296,-1.875 7.035,-4.252c1.759,-2.377 2.378,-5.277 1.972,-8.021c-0.406,-2.706 -1.817,-5.239 -4.137,-6.998c-0.135,-0.038 -0.251,-0.116 -0.367,-0.174l-44.786,-26.5c-2.667,-1.585 -3.556,-5.045 -1.991,-7.732c1.605,-2.667 5.045,-3.556 7.732,-1.991l48.109,28.801c2.378,1.759 5.277,2.377 8.041,1.952c2.726,-0.406 5.297,-1.855 7.036,-4.233c0.135,-0.174 0.271,-0.367 0.406,-0.599c1.488,-2.3 2.049,-5.123 1.72,-7.732c-0.348,-2.435 -1.488,-4.678 -3.44,-6.127l-0.014,0.076Zm-117.637,65.87c-0.232,-2.145 -1.257,-4.233 -3.015,-5.741c-0.155,-0.116 -0.329,-0.251 -0.484,-0.386c-1.855,-1.373 -4.097,-1.914 -6.282,-1.701c-2.145,0.251 -4.233,1.256 -5.74,3.015c-0.136,0.174 -9.704,12.1 -9.878,12.274c-1.391,1.856 -1.952,4.117 -1.701,6.282c0.252,2.262 1.353,4.407 3.248,5.934c1.894,1.508 4.252,2.127 6.533,1.875c2.088,-0.232 4.098,-1.179 5.606,-2.86c3.363,-4.311 6.881,-8.756 10.38,-13.028c1.101,-1.74 1.507,-3.75 1.295,-5.722l0.038,0.058Zm22.692,8.563c-0.174,-0.116 -0.348,-0.251 -0.502,-0.386c-1.856,-1.373 -4.098,-1.914 -6.282,-1.701c-2.146,0.251 -4.214,1.256 -5.722,3.015c-0.135,0.174 -3.305,4.059 -3.305,4.059c0,0 -10.476,13.086 -10.65,13.26c-1.373,1.856 -1.914,4.117 -1.663,6.282c0.232,2.145 1.237,4.233 2.996,5.741c0.155,0.116 0.329,0.251 0.484,0.386c1.855,1.392 4.117,1.914 6.282,1.701c2.261,-0.251 4.407,-1.353 5.934,-3.247l13.376,-16.681c0.038,-0.077 0.116,-0.135 0.154,-0.174c1.527,-1.894 2.127,-4.272 1.875,-6.533c-0.232,-2.146 -1.256,-4.234 -2.996,-5.741l0.019,0.019Zm-80.409,-285.223c-0,-43.202 35.005,-78.207 78.187,-78.207c43.161,-0 78.207,35.005 78.207,78.207c0,38.871 -28.356,71.09 -65.486,77.185l-0.735,1.257l-11.984,20.72l-11.983,-20.72l-0.716,-1.257c-37.15,-6.069 -65.486,-38.291 -65.486,-77.185l-0.004,0Zm33.13,12.023l22.036,22.035c3.981,3.982 10.399,3.982 14.342,0l53.755,-53.754c3.981,-3.963 3.981,-10.4 -0,-14.343c-3.963,-3.962 -10.38,-3.962 -14.323,0l-46.605,46.564l-14.864,-14.865c-3.962,-3.962 -10.399,-3.962 -14.342,0c-3.963,3.982 -3.963,10.4 -0,14.343l0.001,0.02Z" style="fill:#ccc;stroke:#000;stroke-width:4.17px;"/></svg>