<?xml version="1.0" encoding="UTF-8" standalone="no"?>
<!DOCTYPE svg PUBLIC "-//W3C//DTD SVG 1.1//EN" "http://www.w3.org/Graphics/SVG/1.1/DTD/svg11.dtd">
<svg width="100%" height="100%" viewBox="0 0 100 100" version="1.1" xmlns="http://www.w3.org/2000/svg" xmlns:xlink="http://www.w3.org/1999/xlink" xml:space="preserve" xmlns:serif="http://www.serif.com/" style="fill-rule:evenodd;clip-rule:evenodd;stroke-linejoin:round;stroke-miterlimit:2;">
    <g transform="matrix(0.0904967,0,0,0.0904967,-4.29952,-4.2975)">
        <path d="M639.04,471.8L654.376,134.75C655.435,114.027 664.993,94.66 680.794,81.219C555.384,61.766 427.174,88.403 319.894,156.192C212.614,223.981 133.514,328.342 97.234,449.952C60.961,571.562 69.964,702.202 122.582,817.682C175.199,933.172 267.872,1025.68 383.442,1078.11C382.516,1071.57 382.243,1064.95 382.618,1058.35L412.505,551.48C413.985,525.988 406.395,500.792 391.075,480.363C370.055,452.324 359.864,417.644 362.368,382.695L377.763,167.405L583.84,167.405L599.195,382.695L599.199,382.695C601.706,417.64 591.511,452.316 570.492,480.343C555.176,500.784 547.586,525.984 549.058,551.48L578.89,1058.41C580.218,1081.74 573.065,1104.76 558.753,1123.23C597.167,1126.25 635.8,1125.04 673.953,1119.65C664.535,1104.06 660.117,1085.96 661.297,1067.79L689.817,639.985C692.11,605.743 682.043,571.813 661.45,544.36C645.821,523.489 637.903,497.848 639.044,471.798L639.04,471.8ZM375.2,873.95L352.7,903.95C291.977,858.415 256.75,807.35 230.51,736.14C204.264,664.921 199.162,587.64 215.815,513.59C232.468,439.54 259.117,382.93 313.325,329.81L339.575,356.603C290.532,404.669 267.473,454.833 252.406,521.833C237.34,588.829 241.957,658.753 265.703,723.183C289.449,787.613 320.262,832.763 375.203,873.963L375.2,873.95Z" style="fill:rgb(204,204,204);fill-rule:nonzero;stroke:black;stroke-width:11.05px;"/>
    </g>
    <g transform="matrix(0.0904967,0,0,0.0904967,-4.29952,-4.2975)">
        <path d="M414.366,203.135L399.755,385.369C397.911,411.303 405.477,437.033 421.075,457.838C441.723,485.365 451.95,519.318 449.93,553.67L420.004,1060.6C418.957,1077.33 424.922,1093.73 436.465,1105.88C448.156,1117.7 464.09,1124.35 480.715,1124.35C497.344,1124.35 513.277,1117.7 524.965,1105.88C536.516,1093.74 542.485,1077.33 541.43,1060.6L511.637,553.67C509.641,519.322 519.863,485.373 540.492,457.838C556.094,437.037 563.664,411.307 561.808,385.369L547.235,203.135L527.645,203.135L527.645,393.75L490.145,393.75L490.145,203.135L471.395,203.135L471.395,393.75L433.895,393.75L433.895,203.135L414.366,203.135Z" style="fill:rgb(204,204,204);stroke:black;stroke-width:11.05px;"/>
    </g>
    <g transform="matrix(0.0904967,0,0,0.0904967,-4.29952,-4.2975)">
        <path d="M729.38,103.54C726.751,101.638 723.415,100.993 720.267,101.774C712.454,103.774 705.486,108.216 700.376,114.458C695.27,120.701 692.294,128.411 691.88,136.462L676.505,473.492C675.747,490.883 681.048,507.992 691.505,521.906C717.47,556.527 730.169,599.308 727.298,642.486L698.704,1070.29C697.7,1084.45 702.668,1098.4 712.411,1108.74C722.286,1118.82 735.802,1124.5 749.911,1124.5C764.02,1124.5 777.536,1118.82 787.411,1108.74C797.165,1098.36 802.122,1084.38 801.079,1070.17L733.786,111.633C733.594,108.415 731.981,105.442 729.379,103.536L729.38,103.54Z" style="fill:rgb(204,204,204);fill-rule:nonzero;stroke:black;stroke-width:11.05px;"/>
    </g>
    <g transform="matrix(0.0904967,0,0,0.0904967,-4.29952,-4.2975)">
        <path d="M770.18,103.46C770.633,105.316 770.969,107.194 771.192,109.085L838.45,1067.57L838.45,1067.7C961.65,1004.95 1055.12,896.118 1098.54,764.848C1141.96,633.578 1131.83,490.478 1070.35,366.638C1008.87,242.798 900.989,148.228 770.179,103.458L770.18,103.46ZM866.992,888.16L842.617,859.68C898.781,811.66 927.575,758.41 945.577,686.74C963.577,615.072 958.847,539.58 932.034,470.72C905.225,401.857 868.717,354.09 806.994,313.45L827.619,282.157C895.83,327.067 937.339,381.027 966.969,457.137C996.598,533.239 1001.83,616.677 981.938,695.887C962.043,775.098 929.066,835.107 866.998,888.187L866.992,888.16Z" style="fill:rgb(204,204,204);fill-rule:nonzero;stroke:black;stroke-width:11.05px;"/>
    </g>
</svg>
