<?xml version="1.0" encoding="UTF-8" standalone="no"?><!DOCTYPE svg PUBLIC "-//W3C//DTD SVG 1.1//EN" "http://www.w3.org/Graphics/SVG/1.1/DTD/svg11.dtd"><svg width="100%" height="100%" viewBox="0 0 417 417" version="1.1" xmlns="http://www.w3.org/2000/svg" xmlns:xlink="http://www.w3.org/1999/xlink" xml:space="preserve" xmlns:serif="http://www.serif.com/" style="fill-rule:evenodd;clip-rule:evenodd;stroke-linejoin:round;stroke-miterlimit:2;"><path d="M202.778,277.599c-23.455,-6.555 -53.476,-9.832 -83.429,-9.832c-29.953,-0 -59.978,3.278 -83.429,9.832l-0,-238.259c25.522,-8.413 54.44,-12.619 83.429,-12.619c28.974,-0 57.91,4.206 83.429,12.619l0,238.259Zm-27.133,-201.504l-0.001,-0c-17.951,-3.4 -36.702,-5.118 -55.404,-5.118c-18.704,0 -37.44,1.7 -55.405,5.118c-3.015,0.561 -4.995,3.453 -4.434,6.467c0.561,3.015 3.453,4.995 6.467,4.435c17.196,-3.278 35.266,-4.908 53.371,-4.908c18.125,0 36.178,1.63 53.371,4.908c2.998,0.56 5.907,-1.42 6.468,-4.435c0.561,-2.996 -1.419,-5.905 -4.433,-6.467Zm0,38.452l-0.001,0c-17.951,-3.4 -36.702,-5.118 -55.404,-5.118c-18.704,0 -37.44,1.701 -55.405,5.118c-3.015,0.561 -4.995,3.453 -4.434,6.468c0.561,3.014 3.453,4.995 6.467,4.434c17.196,-3.278 35.266,-4.908 53.371,-4.908c18.125,0 36.178,1.63 53.371,4.908c2.998,0.561 5.907,-1.42 6.468,-4.434c0.561,-2.997 -1.419,-5.906 -4.433,-6.468Zm0,38.453l-0.001,-0.001c-17.951,-3.4 -36.702,-5.117 -55.404,-5.117c-18.704,-0 -37.44,1.7 -55.405,5.118c-3.015,0.56 -4.995,3.453 -4.434,6.467c0.561,3.014 3.453,4.995 6.467,4.434c17.196,-3.277 35.266,-4.907 53.371,-4.907c18.125,-0 36.178,1.63 53.371,4.907c2.998,0.561 5.907,-1.419 6.468,-4.434c0.561,-2.997 -1.419,-5.906 -4.433,-6.467Zm-108.777,49.284l0.016,0.035c17.281,-3.26 35.351,-4.89 53.386,-4.855c18.02,0.035 36.055,1.7 53.319,5.012c3.015,0.579 5.924,-1.401 6.503,-4.416c0.578,-3.015 -1.402,-5.924 -4.417,-6.503c-17.861,-3.435 -36.616,-5.153 -55.405,-5.188c-18.769,-0.035 -37.54,1.63 -55.435,5.013c-3.015,0.561 -4.995,3.453 -4.434,6.467c0.561,3.015 3.453,4.995 6.467,4.435Zm0,38.452l0.016,0.035c17.281,-3.26 35.351,-4.89 53.386,-4.855c18.02,0.035 36.055,1.7 53.319,5.013c3.015,0.578 5.924,-1.402 6.503,-4.417c0.578,-3.015 -1.402,-5.924 -4.417,-6.502c-17.861,-3.436 -36.616,-5.153 -55.405,-5.188c-18.769,-0.035 -37.54,1.63 -55.435,5.012c-3.015,0.561 -4.995,3.453 -4.434,6.468c0.561,3.014 3.453,4.995 6.467,4.434Z" style="fill:#ccc;stroke:#000;stroke-width:4.17px;"/><path d="M24.777,58.428l0,226.676c0,3.067 2.489,5.556 5.556,5.556c0.684,-0 1.35,-0.123 1.946,-0.351c23.153,-7.624 55.053,-11.427 87.037,-11.427c30.357,-0 60.644,3.435 83.429,10.288l0,15.073c-26.833,-7.659 -91.685,-11.498 -91.685,-11.498c-34.615,0 -73.786,8.326 -100.658,15.985l0.035,-246.007c2.769,-0.911 5.608,-1.805 8.483,-2.646c1.963,-0.579 3.908,-1.122 5.871,-1.648l-0.014,-0.001Z" style="fill:#ccc;stroke:#000;stroke-width:4.17px;"/><path d="M239.447,304.046l0,0.017c0.018,0.088 0.035,0.193 0.053,0.281l6.467,37.506c0.368,2.138 0.999,4.049 1.928,5.836c0.946,1.805 2.191,3.488 3.803,5.118l15.354,15.546c0.893,0.807 1.524,1.911 1.735,3.173l3.172,18.421l96.733,-16.668l-3.173,-18.438l0.018,-0c-0.21,-1.262 -0,-2.594 0.701,-3.786l8.588,-14.372c1.402,-2.331 2.314,-4.662 2.769,-7.011c0.456,-2.331 0.456,-4.75 0.036,-7.291l-2.91,-17.141c-0.052,-0.211 -0.088,-0.403 -0.105,-0.614l-7.642,-45.164c-0.035,-0.105 -0.052,-0.21 -0.07,-0.333l-5.118,-29.725c-0.491,-2.892 -2.664,-4.469 -5.17,-4.908c-1.192,-0.21 -2.454,-0.192 -3.681,0.018c-1.262,0.228 -2.471,0.631 -3.488,1.192c-2.208,1.244 -3.715,3.453 -3.225,6.362l3.032,17.614c0.509,3.033 -1.524,5.889 -4.539,6.415c-3.032,0.508 -5.889,-1.525 -6.415,-4.539l-3.032,-17.562l-0,-0.035l-2.086,-12.129c-0.49,-2.892 -2.664,-4.469 -5.17,-4.908c-1.192,-0.21 -2.454,-0.192 -3.681,0.018c-1.262,0.228 -2.471,0.631 -3.487,1.192c-2.209,1.244 -3.716,3.453 -3.208,6.379l3.646,21.155c0.508,3.032 -1.525,5.889 -4.54,6.415c-3.032,0.508 -5.889,-1.525 -6.415,-4.54l-3.645,-21.155l-1.472,-8.57c-0.491,-2.892 -2.664,-4.469 -5.171,-4.908c-1.192,-0.21 -2.453,-0.192 -3.68,0.018c-1.262,0.228 -2.472,0.631 -3.488,1.192c-2.209,1.244 -3.716,3.452 -3.208,6.379l0,0.018l5.118,29.725l2.156,12.462c0.508,3.032 -1.525,5.889 -4.539,6.414c-3.032,0.509 -5.889,-1.525 -6.415,-4.539l-2.138,-12.462l-0,-0.017l-5.118,-29.726l-0,-0.017l-7.134,-41.433c-0.49,-2.891 -2.664,-4.469 -5.17,-4.907c-1.192,-0.21 -2.454,-0.193 -3.681,0.018c-1.262,0.227 -2.471,0.63 -3.487,1.191c-2.209,1.245 -3.716,3.453 -3.208,6.38l14.618,84.865l6.029,35.001c0.508,3.032 -1.525,5.889 -4.54,6.414c-3.032,0.509 -5.889,-1.524 -6.415,-4.539l-6.029,-35.001c-0.999,-5.836 -8.045,-10.218 -15.073,-11.796c-2.173,-0.49 -4.329,-0.683 -6.274,-0.56c-1.665,0.105 -3.12,0.455 -4.171,1.051c-1.315,0.754 -2.033,2.314 -1.578,4.89l6.906,40.068l-0.073,0.05Z" style="fill:#ccc;stroke:#000;stroke-width:4.17px;"/><path d="M391.88,58.428l0,226.676c0,0.578 -0.087,1.156 -0.28,1.735c-0.964,2.909 -4.101,4.504 -7.011,3.54c-0.403,-0.14 -0.806,-0.263 -1.192,-0.385l1.56,9.254c4.47,0.859 8.904,1.823 13.251,2.874c2.769,0.684 5.45,1.385 8.009,2.121l0.018,-241.52c-2.769,-0.911 -5.609,-1.805 -8.483,-2.646c-1.963,-0.579 -3.909,-1.122 -5.872,-1.648l0,-0.001Z" style="fill:#ccc;stroke:#000;stroke-width:4.17px;"/><path d="M225.097,286.188c-1.788,0.421 -3.541,0.841 -5.276,1.297c-1.98,0.508 -3.961,1.069 -5.942,1.665l0,15.09c1.683,-0.473 3.436,-0.946 5.241,-1.419c2.839,-0.736 5.661,-1.402 8.483,-2.033l-2.524,-14.618l0.018,0.018Z" style="fill:#ccc;stroke:#000;stroke-width:4.17px;"/><path d="M353.2,191.452c-11.953,-2.279 -24.274,-3.786 -36.718,-4.54c-10.867,-0.666 -21.821,-0.736 -32.688,-0.245l-1.297,-7.572c-1.437,-8.342 -7.378,-12.794 -14.214,-13.986c-2.436,-0.42 -4.995,-0.403 -7.467,0.018c-2.436,0.42 -4.854,1.262 -7.045,2.506c-6.047,3.418 -10.166,9.587 -8.729,17.895l0.912,5.275c-1.052,0.193 -2.226,0.403 -3.541,0.649c-3.014,0.56 -4.995,3.47 -4.434,6.467c0.561,3.015 3.47,4.995 6.467,4.434c0.982,-0.175 2.104,-0.385 3.383,-0.613l8.518,49.46c-2.962,-1.56 -6.152,-2.717 -9.342,-3.435c-3.224,-0.719 -6.467,-1.017 -9.447,-0.824c-3.277,0.228 -6.327,1.034 -8.921,2.489c-5.38,3.049 -8.448,8.395 -7.063,16.405l1.612,9.394c-2.103,0.473 -4.153,0.981 -6.169,1.507c-1.069,0.281 -2.121,0.561 -3.155,0.841l0.035,-238.244c25.519,-8.413 54.456,-12.619 83.43,-12.619c28.989,-0 57.906,4.206 83.429,12.619l-0,235.036l-6.397,-37.824c-0.053,-0.298 -0.123,-0.578 -0.211,-0.859l-1.402,-8.167c-1.437,-8.343 -7.378,-12.795 -14.214,-13.986c-2.436,-0.421 -4.995,-0.403 -7.467,0.017c-2.436,0.421 -4.854,1.262 -7.046,2.506c-0.262,0.141 -0.525,0.298 -0.788,0.474c-2.296,-6.152 -7.467,-9.552 -13.303,-10.569c-2.436,-0.421 -4.995,-0.403 -7.467,0.017c-2.436,0.421 -4.854,1.262 -7.045,2.507c-0.561,0.315 -1.105,0.666 -1.63,1.034c-2.664,-4.277 -7.029,-6.713 -11.831,-7.554c-2.436,-0.421 -4.995,-0.403 -7.467,0.017c-2.436,0.421 -4.854,1.262 -7.045,2.507c-0.158,0.087 -0.333,0.192 -0.491,0.28l-1.227,-7.098c10.043,-0.403 20.138,-0.316 30.146,0.298c11.988,0.718 23.836,2.191 35.316,4.382c3.015,0.56 5.907,-1.42 6.468,-4.434c0.561,-3.015 -1.42,-5.907 -4.434,-6.468l-0.021,0.003Zm0.002,-115.357l-0.002,-0c-17.95,-3.4 -36.701,-5.118 -55.403,-5.118c-18.705,0 -37.44,1.7 -55.405,5.118c-3.015,0.561 -4.995,3.453 -4.435,6.467c0.561,3.015 3.453,4.995 6.468,4.435c17.196,-3.278 35.266,-4.908 53.371,-4.908c18.125,0 36.177,1.63 53.371,4.908c2.997,0.56 5.907,-1.42 6.467,-4.435c0.561,-2.996 -1.418,-5.905 -4.432,-6.467Zm-0,38.452l-0.002,0c-17.95,-3.4 -36.701,-5.118 -55.403,-5.118c-18.705,0 -37.44,1.701 -55.405,5.118c-3.015,0.561 -4.995,3.453 -4.435,6.468c0.561,3.014 3.453,4.995 6.468,4.434c17.196,-3.278 35.266,-4.908 53.371,-4.908c18.125,0 36.177,1.63 53.371,4.908c2.997,0.561 5.907,-1.42 6.467,-4.434c0.561,-2.997 -1.418,-5.906 -4.432,-6.468Zm-0,38.453l-0.002,-0.001c-17.95,-3.4 -36.701,-5.117 -55.403,-5.117c-18.705,-0 -37.44,1.7 -55.405,5.118c-3.015,0.56 -4.995,3.453 -4.435,6.467c0.561,3.014 3.453,4.995 6.468,4.434c17.196,-3.277 35.266,-4.907 53.371,-4.907c18.125,-0 36.177,1.63 53.371,4.907c2.997,0.561 5.907,-1.419 6.467,-4.434c0.561,-2.997 -1.418,-5.906 -4.432,-6.467Z" style="fill:#ccc;stroke:#000;stroke-width:4.17px;"/></svg>