<?xml version="1.0" encoding="UTF-8" standalone="no"?><!DOCTYPE svg PUBLIC "-//W3C//DTD SVG 1.1//EN" "http://www.w3.org/Graphics/SVG/1.1/DTD/svg11.dtd"><svg width="100%" height="100%" viewBox="0 0 417 417" version="1.1" xmlns="http://www.w3.org/2000/svg" xmlns:xlink="http://www.w3.org/1999/xlink" xml:space="preserve" xmlns:serif="http://www.serif.com/" style="fill-rule:evenodd;clip-rule:evenodd;stroke-linejoin:round;stroke-miterlimit:2;"><path d="M406.229,275.515l-114.069,-118.565l-0,43.031l-75.362,0l41.573,-163.726c0.842,-3.298 -1.151,-6.648 -4.449,-7.49c-3.299,-0.824 -6.649,1.151 -7.49,4.449l-8.229,32.382l-113.739,-0l0.017,-43.017l-114.05,118.565l114.069,118.566l-0,-43.032l75.361,0l-41.572,163.727c-0.842,3.298 1.151,6.648 4.449,7.49c0.515,0.12 1.013,0.189 1.529,0.189c2.748,-0 5.257,-1.856 5.961,-4.639l8.228,-32.381l113.739,0l0,43.032l114.069,-118.566l-0.035,-0.015Zm-273.244,-83.915c-27.863,-0 -50.456,-22.59 -50.456,-50.456c0,-27.864 22.59,-50.456 50.456,-50.456c27.864,-0 50.457,22.589 50.457,50.456c-0,27.863 -22.59,50.456 -50.457,50.456Zm150.691,134.371c-27.863,0 -50.456,-22.589 -50.456,-50.456c-0,-27.863 22.59,-50.456 50.456,-50.456c27.863,0 50.456,22.59 50.456,50.456c0,27.864 -22.59,50.456 -50.456,50.456Z" style="fill:#ccc;fill-rule:nonzero;stroke:#000;stroke-width:4.17px;"/><path d="M310.802,248.374c-2.405,-2.405 -6.304,-2.405 -8.709,0l-18.433,18.433l-18.432,-18.433c-2.405,-2.405 -6.305,-2.405 -8.71,0c-2.405,2.405 -2.405,6.305 0,8.71l18.433,18.432l-18.433,18.433c-2.405,2.405 -2.405,6.304 0,8.709c1.203,1.203 2.783,1.804 4.346,1.804c1.581,0 3.161,-0.601 4.346,-1.804l18.433,-18.432l18.432,18.432c1.203,1.203 2.783,1.804 4.346,1.804c1.581,0 3.161,-0.601 4.346,-1.804c2.405,-2.404 2.405,-6.304 0,-8.709l-18.432,-18.433l18.432,-18.432c2.405,-2.405 2.405,-6.305 0,-8.71l0.035,0Z" style="fill:#ccc;fill-rule:nonzero;stroke:#000;stroke-width:4.17px;"/><path d="M163.601,113.731c-2.835,-1.855 -6.666,-1.065 -8.521,1.787l-25.184,38.498l-16.405,-16.663c-2.388,-2.422 -6.287,-2.457 -8.71,-0.069c-2.422,2.388 -2.456,6.287 -0.069,8.71l21.766,22.108c1.168,1.186 2.748,1.839 4.38,1.839c0.206,-0 0.412,-0.018 0.619,-0.035c1.855,-0.189 3.521,-1.202 4.535,-2.748l29.358,-44.871c1.855,-2.852 1.065,-6.666 -1.787,-8.521l0.018,-0.035Z" style="fill:#ccc;fill-rule:nonzero;stroke:#000;stroke-width:4.17px;"/></svg>