<?xml version="1.0" encoding="UTF-8" standalone="no"?><!DOCTYPE svg PUBLIC "-//W3C//DTD SVG 1.1//EN" "http://www.w3.org/Graphics/SVG/1.1/DTD/svg11.dtd"><svg width="100%" height="100%" viewBox="0 0 417 417" version="1.1" xmlns="http://www.w3.org/2000/svg" xmlns:xlink="http://www.w3.org/1999/xlink" xml:space="preserve" xmlns:serif="http://www.serif.com/" style="fill-rule:evenodd;clip-rule:evenodd;stroke-linejoin:round;stroke-miterlimit:2;"><g><path d="M237.8,367.298l0.97,10.391l-2.671,1.186l-1.507,-4.897l-0,0.002c1.194,-2.165 2.265,-4.396 3.208,-6.683l0,0.001Z" style="fill:#ccc;fill-rule:nonzero;stroke:#000;stroke-width:4.17px;"/><path d="M215.735,386.255c-7.324,7.079 -16.102,12.451 -25.716,15.738c17.312,-13.755 26.94,-33.511 31.963,-47.617l1.469,9.532c0.299,1.901 1.949,3.285 3.86,3.239l2.247,-0.061l-0,0.001c-3.448,7.16 -8.129,13.65 -13.823,19.168l-0,-0Z" style="fill:#ccc;fill-rule:nonzero;stroke:#000;stroke-width:4.17px;"/><path d="M328.483,155.467c-14.793,25.354 -21.345,46.717 -22.183,49.561c-2.117,0.603 -4.141,1.213 -6.072,1.827c2.262,-6.908 7.896,-23.796 11.956,-33.249c0.4,-0.932 0.416,-1.986 0.045,-2.93c-0.372,-0.944 -1.101,-1.7 -2.027,-2.103c-1.928,-0.839 -4.166,0.055 -4.999,1.995c-5.306,12.36 -12.891,36.015 -13.21,37.015l-0,0.001c-0.216,0.68 -0.236,1.409 -0.059,2.101c-7.004,2.483 -13.79,5.55 -20.287,9.17c-1.845,-0.334 -5.257,-0.878 -9.69,-1.271c8.82,-24.49 -1.081,-44.443 -5.964,-52.149c28.259,-20.019 38.79,-45.153 42.625,-63.011c2.283,-10.477 2.894,-21.255 1.811,-31.927c31.71,-5.206 52.197,-16.177 60.91,-32.629c4.392,-8.435 5.634,-18.175 3.504,-27.454c15.656,5.446 27.036,14.231 33.878,26.174c10.39,18.14 7.382,38.483 6.188,44.39c-21.159,9.976 -51.013,30.926 -76.427,74.488l0.001,0.001Zm45.391,-111.075c13.272,13.336 6.359,31.865 6.288,32.051c-0.759,1.971 0.215,4.188 2.173,4.952c1.958,0.762 4.159,-0.217 4.917,-2.188c0.364,-0.948 8.736,-23.41 -8.008,-40.231c-1.486,-1.493 -3.893,-1.49 -5.376,0.006c-1.483,1.495 -1.482,3.92 0.005,5.413l0.001,-0.003Zm-5.367,34.743c0.716,-1.984 -0.299,-4.179 -2.27,-4.903c-23.622,-8.667 -53.084,6.847 -54.326,7.512c-1.854,0.993 -2.559,3.31 -1.575,5.176c0.986,1.867 3.288,2.577 5.143,1.585c0.401,-0.213 27.782,-14.555 48.157,-7.08l-0,0.002c0.948,0.347 1.994,0.3 2.907,-0.129c0.915,-0.43 1.623,-1.208 1.966,-2.163l-0.002,0Z" style="fill:#ccc;fill-rule:nonzero;stroke:#000;stroke-width:4.17px;"/><path d="M259.133,301.358c1.998,-1.403 4.435,-3.093 7.302,-5.002l9.022,26.215l-0.001,0.002c0.598,1.722 0.277,3.632 -0.851,5.061l-6.419,8.183c-1.003,1.289 -2.541,2.039 -4.166,2.033c-2.549,-0.004 -5.041,0.753 -7.162,2.175c-2.121,1.422 -3.775,3.445 -4.753,5.813l-0.452,1.09l-3.977,-0.617c0.907,-2.716 2.921,-4.912 5.537,-6.039l0.307,-0.132l0.002,-0.001c5.718,-2.481 9.717,-7.812 10.523,-14.029l1.15,-9.041c0.737,-5.931 -1.542,-11.836 -6.062,-15.711l0,-0Z" style="fill:#ccc;fill-rule:nonzero;stroke:#000;stroke-width:4.17px;"/><path d="M82.794,93.832c25.385,-1.997 49.137,1.485 56.833,2.799c3.236,18.139 17.311,49.22 63.923,97.636c2.526,2.625 5.086,7.652 7.563,12.513c5.269,10.34 11.24,22.068 21.498,19.857c19.241,-4.145 38.746,-0.041 38.944,0c0.975,0.21 1.994,0.026 2.835,-0.514c0.146,-0.093 15.317,-9.619 44.279,-16.399c5.852,-1.419 11.871,-2.016 17.885,-1.77c1.28,3.846 2.852,7.589 4.705,11.192c1.059,1.796 3.353,2.405 5.154,1.369c1.803,-1.036 2.446,-3.335 1.449,-5.166c-2.028,-3.569 -4.768,-11.535 -6.643,-17.443c15.888,3.731 16.174,24.052 16.18,24.999l-0.002,-0.001c0.008,2.11 1.708,3.814 3.802,3.817l0.008,0c2.096,-0.003 3.795,-1.714 3.795,-3.824c-0.154,-5.578 -1.334,-11.078 -3.476,-16.224c-1.778,-4.342 -4.572,-8.186 -8.149,-11.203c-0.479,-4.14 -0.509,-8.322 -0.089,-12.469c15.968,14.307 18.412,45.383 18.51,46.748l0.963,25.886l-0.002,0c0.015,0.55 -0.371,1.026 -0.909,1.122l-8.726,1.597l-5.507,-8.716c-0.444,-0.701 -1.102,-1.237 -1.877,-1.529c-0.112,-0.043 -10.466,-4.126 -14.633,-13.524c2.906,0.363 4.625,0.764 4.702,0.782l-0,0.001c2.041,0.502 4.098,-0.757 4.597,-2.81c0.497,-2.053 -0.752,-4.125 -2.792,-4.626c-1.636,-0.404 -40.412,-9.551 -69.596,19.349c-1.497,1.482 -1.518,3.906 -0.045,5.412c1.472,1.508 3.88,1.529 5.377,0.046c2.04,-2.021 4.213,-3.899 6.507,-5.621c-2.754,12.059 -9.191,30.94 -23.47,40.137c-6.009,3.872 -10.637,7.14 -13.698,9.304l-1.323,0.932c-0.058,-0.013 -0.11,-0.031 -0.167,-0.044l-14.488,-2.916c-5.602,-1.124 -11.4,0.556 -15.549,4.511l-9.213,8.787l-0,-0.001c-0.739,0.698 -1.171,1.662 -1.201,2.679c-0.03,1.02 0.345,2.008 1.04,2.747c0.697,0.739 1.656,1.169 2.668,1.194c1.011,0.025 1.991,-0.358 2.722,-1.062l9.213,-8.788c2.356,-2.243 5.646,-3.197 8.826,-2.559l14.488,2.911c2.477,0.506 4.67,1.936 6.144,4.001c1.473,2.065 2.118,4.615 1.805,7.138l-1.152,9.043c-0.457,3.53 -2.726,6.555 -5.972,7.965l-0.306,0.132l-0.002,-0c-3.167,1.362 -5.867,3.632 -7.763,6.527c-1.897,2.895 -2.906,6.286 -2.904,9.755c0,1.889 1.37,3.495 3.223,3.782l9.752,1.511c1.877,0.282 3.59,1.236 4.826,2.686c1.235,1.448 1.911,3.298 1.903,5.209l-0,7.828l-2.584,0.715l-0.055,-0.228c-0.86,-3.462 -2.863,-6.526 -5.681,-8.69c-2.818,-2.163 -6.284,-3.298 -9.827,-3.216l-10.657,0.288l-5.147,-33.394l0,-0.002c-0.155,-1.003 -0.699,-1.904 -1.512,-2.503c-0.815,-0.599 -1.831,-0.848 -2.829,-0.692c-2.075,0.323 -3.496,2.28 -3.175,4.369l1.414,9.169c-1.091,5.305 -10.08,44.708 -39.372,63.555c-2.703,1.259 -37.989,16.955 -65.553,-6.274c-0.075,-0.062 -0.151,-0.123 -0.231,-0.179l-13.407,-9.636l-4.494,-4.341c-6.436,-6.195 -10.252,-14.65 -10.65,-23.606l-0.452,-9.822l8.06,7.384c6.381,5.836 10.373,13.858 11.194,22.498l0.619,6.462l-0.002,0c0.077,0.788 0.392,1.532 0.906,2.132c18.738,21.881 52.591,14.928 54.025,14.621c29.667,-6.892 33.034,-38.965 33.065,-39.286c0.014,-0.134 0.019,-0.269 0.018,-0.404c-0.642,-62.227 12.912,-75.597 13.811,-76.411c0.87,-0.55 1.46,-1.455 1.616,-2.478c0.161,-1.072 -0.148,-2.16 -0.846,-2.984c-11.829,-15.268 -29.968,-24.235 -52.454,-25.931l0.001,-0c-8.866,-0.645 -17.779,-0.225 -26.546,1.25c-7.668,-38.11 -26.955,-57.112 -42.039,-66.387c-8.99,-5.58 -19.015,-9.261 -29.463,-10.819c-1.433,-15.14 -6.888,-26.607 -16.239,-34.121c-10.356,-8.321 -22.869,-9.648 -30.36,-9.546c10.775,-22.416 35.089,-35.253 72.386,-38.187l-0.005,-0.001Zm282.14,150.11c1.709,-0 3.25,-1.036 3.904,-2.626c0.654,-1.588 0.293,-3.418 -0.916,-4.634c-1.208,-1.217 -3.025,-1.581 -4.603,-0.922c-1.58,0.658 -2.609,2.209 -2.609,3.928c0.002,2.349 1.893,4.251 4.224,4.254l0,-0Zm-231.059,-3.047l0.002,0.001c0.66,2.008 2.813,3.096 4.807,2.429c1.996,-0.666 3.075,-2.834 2.414,-4.842c-0.128,-0.387 -12.605,-39.093 -0.132,-67.484c0.415,-0.929 0.444,-1.987 0.082,-2.937c-0.363,-0.952 -1.086,-1.72 -2.012,-2.132c-0.927,-0.412 -1.976,-0.435 -2.919,-0.064c-0.944,0.37 -1.701,1.104 -2.105,2.038c-13.68,31.126 -0.696,71.3 -0.135,72.992l-0.002,-0.001Zm-7.85,-133.796c2.256,17.666 15.253,49.43 64.354,100.431l0,0.002c1.462,1.518 3.869,1.556 5.376,0.084c1.509,-1.47 1.546,-3.893 0.085,-5.412c-21.531,-22.364 -58.25,-64.585 -62.27,-96.082c-0.267,-2.096 -2.173,-3.578 -4.255,-3.309c-2.084,0.271 -3.555,2.188 -3.288,4.286l-0.002,-0Zm-59.147,65.181l-0,0.002c2.041,0.492 4.092,-0.773 4.582,-2.828c0.35,-1.442 8.903,-34.733 48.992,-41.392l0,-0.001c1.006,-0.154 1.907,-0.707 2.505,-1.535c0.597,-0.828 0.84,-1.862 0.675,-2.872c-0.165,-1.01 -0.726,-1.912 -1.556,-2.503c-0.829,-0.591 -1.861,-0.822 -2.861,-0.643c-23.579,3.916 -37.304,16.465 -44.668,26.301c-7.996,10.683 -10.382,20.443 -10.478,20.853l-0.002,-0.001c-0.235,0.988 -0.072,2.03 0.455,2.896c0.527,0.867 1.375,1.486 2.356,1.723l-0,0Z" style="fill:#ccc;fill-rule:nonzero;stroke:#000;stroke-width:4.17px;"/><path d="M98.084,259.848c2.556,7.289 4.495,14.783 5.798,22.4c0.175,1.001 -0.052,2.029 -0.63,2.86c-0.579,0.832 -1.462,1.398 -2.455,1.574c-0.218,0.038 -0.44,0.058 -0.662,0.058c-1.845,-0.003 -3.421,-1.337 -3.741,-3.166c-1.228,-7.191 -3.057,-14.265 -5.469,-21.147c-0.707,-1.99 0.321,-4.181 2.299,-4.893c1.977,-0.712 4.153,0.323 4.86,2.315l0,-0.001Z" style="fill:#ccc;fill-rule:nonzero;stroke:#000;stroke-width:4.17px;"/><path d="M77.491,237.086c-0.626,-0.805 -0.905,-1.828 -0.777,-2.842c0.128,-1.014 0.654,-1.935 1.459,-2.556c0.807,-0.622 1.826,-0.892 2.831,-0.754c1.006,0.14 1.915,0.679 2.524,1.498c1.254,1.648 2.478,3.379 3.636,5.147c1.157,1.764 0.676,4.138 -1.076,5.304c-1.752,1.164 -4.111,0.678 -5.268,-1.086c-1.062,-1.619 -2.183,-3.203 -3.329,-4.711l0,0Z" style="fill:#ccc;fill-rule:nonzero;stroke:#000;stroke-width:4.17px;"/><path d="M28.242,200.868c5.478,0.413 10.879,1.535 16.072,3.335c10.164,3.364 19.558,8.735 27.634,15.8c1.585,1.385 1.755,3.803 0.379,5.399c-1.378,1.595 -3.778,1.766 -5.364,0.381c-7.313,-6.396 -15.819,-11.259 -25.02,-14.306c-4.524,-1.564 -9.224,-2.558 -13.99,-2.959c-2.098,-0.081 -3.734,-1.858 -3.655,-3.971c0.08,-2.112 1.846,-3.76 3.944,-3.68l-0,0.001Z" style="fill:#ccc;fill-rule:nonzero;stroke:#000;stroke-width:4.17px;"/><path d="M227.41,159.148c-1.754,1.162 -4.112,0.673 -5.266,-1.093c-1.155,-1.765 -0.67,-4.139 1.085,-5.301c10.31,-6.709 19.362,-15.198 26.742,-25.074c1.254,-1.684 3.623,-2.034 5.304,-0.782c1.681,1.252 2.043,3.635 0.81,5.335c-7.912,10.6 -17.618,19.711 -28.676,26.915l0.001,0Z" style="fill:#ccc;fill-rule:nonzero;stroke:#000;stroke-width:4.17px;"/><path d="M270.174,90.389c2.048,0.468 3.33,2.519 2.866,4.582c-1.57,6.971 -3.874,13.754 -6.872,20.233c-0.888,1.916 -3.151,2.743 -5.054,1.849c-0.914,-0.43 -1.62,-1.208 -1.965,-2.161c-0.344,-0.955 -0.297,-2.008 0.13,-2.927c2.77,-5.986 4.896,-12.251 6.344,-18.691c0.466,-2.061 2.502,-3.354 4.551,-2.885l0,-0Z" style="fill:#ccc;fill-rule:nonzero;stroke:#000;stroke-width:4.17px;"/><path d="M271.876,72.455l-0.139,0c-2.046,-0.001 -3.723,-1.631 -3.797,-3.69c-0.078,-3.091 -0.374,-6.172 -0.889,-9.219c-0.406,-2.068 0.926,-4.077 2.978,-4.493c2.053,-0.417 4.054,0.916 4.476,2.98c0.602,3.455 0.948,6.951 1.034,10.457c0.037,1.016 -0.329,2.004 -1.015,2.747c-0.688,0.743 -1.64,1.182 -2.648,1.219l-0,-0.001Z" style="fill:#ccc;fill-rule:nonzero;stroke:#000;stroke-width:4.17px;"/></g></svg>