<svg xmlns="http://www.w3.org/2000/svg" xml:space="preserve" width="512" height="512" fill-rule="evenodd" stroke-linejoin="round" stroke-miterlimit="2" clip-rule="evenodd" viewBox="0 0 512 512">
  <g fill="#ccc" fill-rule="nonzero" stroke="#000" stroke-width="5.12">
    <path d="m291.975 450.975 1.191 12.758-3.28 1.456-1.85-6.013v.002a81 81 0 0 0 3.939-8.206zm-27.092 23.276a85 85 0 0 1-31.575 19.323c21.256-16.889 33.077-41.145 39.245-58.465l1.804 11.704a4.69 4.69 0 0 0 4.739 3.977l2.759-.075v.001a82.8 82.8 0 0 1-16.972 23.535Zm138.434-283.366c-18.163 31.13-26.208 57.36-27.237 60.852a257 257 0 0 0-7.455 2.243c2.777-8.482 9.695-29.217 14.68-40.824a4.74 4.74 0 0 0 .055-3.598 4.657 4.657 0 0 0-8.627-.133c-6.515 15.176-15.828 44.22-16.219 45.448v.001a4.67 4.67 0 0 0-.072 2.58 163.3 163.3 0 0 0-24.909 11.259c-2.265-.41-6.455-1.078-11.898-1.561 10.829-30.069-1.327-54.568-7.323-64.029 34.697-24.58 47.627-55.44 52.336-77.366a124.9 124.9 0 0 0 2.224-39.201c38.934-6.392 64.088-19.862 74.786-40.062a49.2 49.2 0 0 0 4.302-33.709c19.223 6.687 33.195 17.473 41.596 32.137 12.757 22.273 9.064 47.25 7.598 54.503-25.979 12.249-62.635 37.971-93.838 91.458zm55.732-136.38c16.296 16.374 7.808 39.124 7.721 39.353-.932 2.42.264 5.142 2.668 6.08a4.66 4.66 0 0 0 6.037-2.686c.447-1.164 10.726-28.743-9.832-49.396a4.646 4.646 0 0 0-6.601.007 4.72 4.72 0 0 0 .006 6.646zm-6.59 42.658c.879-2.436-.367-5.131-2.787-6.02-29.004-10.641-65.177 8.407-66.702 9.223a4.72 4.72 0 0 0-1.934 6.355 4.653 4.653 0 0 0 6.315 1.946c.492-.262 34.111-17.871 59.128-8.693v.002a4.64 4.64 0 0 0 3.569-.158 4.67 4.67 0 0 0 2.414-2.656zm-134.291 272.85a432 432 0 0 1 8.966-6.142l11.077 32.187-.001.002a6.56 6.56 0 0 1-1.045 6.214l-7.881 10.047a6.46 6.46 0 0 1-5.115 2.496 15.7 15.7 0 0 0-8.794 2.671 15.9 15.9 0 0 0-5.836 7.137l-.555 1.338-4.883-.758a12.32 12.32 0 0 1 6.798-7.415l.377-.162.002-.001c7.021-3.046 11.931-9.592 12.92-17.225l1.412-11.101a21.86 21.86 0 0 0-7.443-19.29Z"/>
    <path d="M101.656 115.209c31.168-2.452 60.331 1.823 69.781 3.437 3.973 22.271 21.255 60.433 78.486 119.879 3.101 3.223 6.245 9.395 9.286 15.364 6.469 12.696 13.801 27.095 26.396 24.381 23.624-5.089 47.573-.05 47.816 0a4.64 4.64 0 0 0 3.481-.631c.179-.114 18.806-11.81 54.367-20.135a79.4 79.4 0 0 1 21.96-2.173 97 97 0 0 0 5.777 13.742 4.65 4.65 0 0 0 6.328 1.681 4.715 4.715 0 0 0 1.779-6.343c-2.49-4.382-5.854-14.163-8.156-21.417 19.508 4.581 19.859 29.531 19.866 30.694l-.002-.001c.01 2.591 2.097 4.683 4.668 4.687h.01c2.574-.004 4.66-2.104 4.66-4.695a55.9 55.9 0 0 0-4.268-19.92 35.7 35.7 0 0 0-10.005-13.755 71 71 0 0 1-.109-15.31c19.606 17.566 22.607 55.722 22.727 57.398l1.182 31.783h-.002a1.36 1.36 0 0 1-1.116 1.378l-10.714 1.961-6.762-10.702a4.67 4.67 0 0 0-2.305-1.877c-.138-.053-12.85-5.066-17.967-16.605 3.568.446 5.679.938 5.773.96v.001c2.506.616 5.032-.929 5.644-3.45.61-2.521-.923-5.065-3.428-5.68-2.009-.496-49.619-11.727-85.451 23.757a4.72 4.72 0 0 0-.055 6.645 4.645 4.645 0 0 0 6.602.056 77 77 0 0 1 7.989-6.902c-3.381 14.806-11.285 37.989-28.817 49.281-7.378 4.754-13.06 8.767-16.819 11.424l-1.624 1.144c-.071-.016-.135-.038-.205-.054l-17.789-3.58a21.52 21.52 0 0 0-19.091 5.539l-11.312 10.789v-.001a4.72 4.72 0 0 0-.198 6.662 4.67 4.67 0 0 0 3.276 1.466 4.67 4.67 0 0 0 3.342-1.304l11.312-10.79a12.23 12.23 0 0 1 10.837-3.142l17.789 3.574a12.28 12.28 0 0 1 7.544 4.912 12.46 12.46 0 0 1 2.216 8.764l-1.414 11.103a12.39 12.39 0 0 1-7.333 9.78l-.376.162h-.002a21.6 21.6 0 0 0-9.532 8.014 21.86 21.86 0 0 0-3.566 11.977 4.69 4.69 0 0 0 3.957 4.644l11.974 1.855a9.68 9.68 0 0 1 5.925 3.298 9.8 9.8 0 0 1 2.337 6.396v9.611l-3.173.878-.068-.28a19.33 19.33 0 0 0-6.975-10.67 19.1 19.1 0 0 0-12.066-3.949l-13.085.354-6.32-41.002v-.003a4.72 4.72 0 0 0-1.856-3.073 4.67 4.67 0 0 0-3.473-.85c-2.548.397-4.292 2.799-3.898 5.364l1.736 11.258c-1.34 6.514-12.376 54.893-48.342 78.034-3.319 1.546-46.644 20.818-80.487-7.703a5 5 0 0 0-.284-.22l-16.461-11.831-5.518-5.33a42.88 42.88 0 0 1-13.076-28.984l-.555-12.06 9.896 9.066a42.94 42.94 0 0 1 13.744 27.623l.76 7.934h-.002a4.73 4.73 0 0 0 1.112 2.618c23.007 26.866 64.572 18.329 66.333 17.952 36.426-8.462 40.56-47.842 40.598-48.236a5 5 0 0 0 .022-.496c-.788-76.403 15.854-92.819 16.957-93.819a4.38 4.38 0 0 0 1.984-3.043 4.6 4.6 0 0 0-1.039-3.664c-14.524-18.746-36.795-29.756-64.404-31.839h.001a136.7 136.7 0 0 0-32.594 1.535c-9.415-46.792-33.096-70.123-51.616-81.511a95.3 95.3 0 0 0-36.175-13.284c-1.759-18.589-8.457-32.669-19.939-41.894-12.715-10.217-28.079-11.846-37.277-11.721 13.23-27.523 43.083-43.284 88.877-46.887zm346.416 184.308a5.19 5.19 0 0 0 4.793-3.224 5.24 5.24 0 0 0-1.125-5.69 5.16 5.16 0 0 0-5.652-1.132 5.22 5.22 0 0 0-3.203 4.823c.002 2.884 2.324 5.219 5.186 5.223Zm-283.698-3.741.002.001a4.66 4.66 0 0 0 5.902 2.982c2.451-.818 3.776-3.48 2.964-5.945-.157-.475-15.477-47.999-.162-82.858a4.73 4.73 0 0 0 .101-3.606 4.7 4.7 0 0 0-2.47-2.618 4.64 4.64 0 0 0-3.584-.079 4.67 4.67 0 0 0-2.585 2.502c-16.797 38.217-.855 87.543-.166 89.621zm-9.638-164.277c2.77 21.691 18.728 60.691 79.015 123.311v.002a4.645 4.645 0 0 0 6.601.103 4.72 4.72 0 0 0 .104-6.645c-26.436-27.459-71.52-79.299-76.456-117.971-.328-2.574-2.668-4.393-5.224-4.063-2.559.333-4.365 2.686-4.037 5.262zm-72.622 80.029v.002c2.506.604 5.024-.949 5.626-3.472.43-1.771 10.931-42.646 60.153-50.822v-.001a4.67 4.67 0 0 0 3.076-1.885 4.73 4.73 0 0 0 .829-3.526 4.7 4.7 0 0 0-1.91-3.073 4.64 4.64 0 0 0-3.513-.789c-28.951 4.808-45.803 20.216-54.844 32.293-9.818 13.117-12.747 25.1-12.865 25.604l-.002-.001a4.74 4.74 0 0 0 .559 3.556 4.67 4.67 0 0 0 2.893 2.116Z"/>
    <path d="M120.429 319.046a169.4 169.4 0 0 1 7.119 27.503 4.73 4.73 0 0 1-.774 3.512 4.67 4.67 0 0 1-3.827 2.004 4.68 4.68 0 0 1-4.593-3.887 159.6 159.6 0 0 0-6.715-25.965c-.868-2.443.394-5.134 2.823-6.008a4.66 4.66 0 0 1 5.967 2.842zm-25.284-27.948a4.72 4.72 0 0 1 .837-6.628 4.67 4.67 0 0 1 3.476-.926 4.67 4.67 0 0 1 3.099 1.839 111 111 0 0 1 4.464 6.32 4.72 4.72 0 0 1-1.321 6.512 4.653 4.653 0 0 1-6.468-1.333 103 103 0 0 0-4.087-5.784Zm-60.469-44.469a78.2 78.2 0 0 1 19.733 4.095 98.6 98.6 0 0 1 33.93 19.4 4.72 4.72 0 0 1 .465 6.629 4.65 4.65 0 0 1-6.586.468 89.3 89.3 0 0 0-30.72-17.565 70.7 70.7 0 0 0-17.177-3.633c-2.576-.099-4.585-2.281-4.488-4.876s2.267-4.617 4.843-4.518zm244.542-51.225a4.65 4.65 0 0 1-6.466-1.342 4.715 4.715 0 0 1 1.332-6.509 128.4 128.4 0 0 0 32.834-30.786 4.65 4.65 0 0 1 6.512-.96 4.72 4.72 0 0 1 .995 6.55 137.8 137.8 0 0 1-35.209 33.047zm52.506-84.424c2.515.575 4.089 3.093 3.519 5.626a124 124 0 0 1-8.438 24.842 4.655 4.655 0 0 1-8.618-.383 4.73 4.73 0 0 1 .16-3.594 114.2 114.2 0 0 0 7.789-22.949c.572-2.531 3.072-4.118 5.588-3.542Zm2.09-22.02h-.171c-2.512-.001-4.571-2.003-4.662-4.531a80 80 0 0 0-1.092-11.319c-.498-2.539 1.137-5.006 3.656-5.517s4.978 1.125 5.496 3.659a87 87 0 0 1 1.27 12.839 4.72 4.72 0 0 1-1.246 3.373 4.67 4.67 0 0 1-3.251 1.497z"/>
  </g>
</svg>
