<svg xmlns="http://www.w3.org/2000/svg" xml:space="preserve" width="512" height="512" fill-rule="evenodd" stroke-linejoin="round" stroke-miterlimit="2" clip-rule="evenodd" viewBox="0 0 512 512">
  <path fill="#ccc" stroke="#000" stroke-width="5.12" d="M325.699 499.205H45.082a7.885 7.885 0 0 1-7.88-7.875V111.989c0-4.285 3.589-7.875 7.88-7.875h47.729v51.79c-3.021 1.27-5.683 3.123-8.003 5.683-8.346 9.267-7.772 23.526 1.5 31.867l13.896 12.631a22.53 22.53 0 0 0 15.186 5.914c5.914 0 11.571-2.324 15.862-6.487l12.861-12.626c8.909-8.684 9.037-23.04.23-31.98a24.6 24.6 0 0 0-6.374-4.516v-52.254H241.07v84.46c0 4.393 3.594 7.88 7.885 7.88h38.118c4.393 0 7.875-3.466 7.875-7.88 0-4.285-3.482-7.88-7.875-7.88h-30.244l.041-71.956 74.388 74.255a7.83 7.83 0 0 1 2.319 5.555V491.3c0 4.413-3.482 7.9-7.875 7.9zM115.405 197.274a7.9 7.9 0 0 1-5.325-2.089l-13.896-12.631a7.987 7.987 0 0 1-.461-11.131 7.885 7.885 0 0 1 11.126-.461l.696.563-.02-78.746a37.786 37.786 0 0 1 37.76-37.765h17.613c4.398 0 7.885 3.584 7.885 7.875a7.834 7.834 0 0 1-7.885 7.88h-17.613a21.996 21.996 0 0 0-22.006 22.006v77.85c3.123-2.56 7.752-2.324 10.665.589a8.003 8.003 0 0 1-.102 11.238l-12.862 12.62a8 8 0 0 1-5.581 2.202zM410.619 343.02a7.9 7.9 0 0 1-5.325-2.089l-.717-.573v78.776c0 20.849-17.019 37.888-37.888 37.888h-17.485a7.885 7.885 0 0 1-7.885-7.875c0-4.285 3.594-7.88 7.885-7.88h17.485a22.22 22.22 0 0 0 22.134-22.134v-77.972a7.987 7.987 0 0 1-10.772-.486c-3.021-3.103-2.893-8.11.236-11.213l12.964-12.631c2.898-2.893 7.649-2.893 10.772-.102l13.921 12.626c3.226 2.893 3.461 7.88.461 11.131a7.58 7.58 0 0 1-5.786 2.534zm56.305 64.881h-47.621v-51.917c3.021-1.265 5.786-3.123 8.003-5.678a22.456 22.456 0 0 0-1.5-31.867l-13.896-12.631a22.697 22.697 0 0 0-30.94.461L367.981 318.9c-8.909 8.704-9.144 23.066-.461 31.98 1.961 1.981 4.157 3.584 6.605 4.751v52.25H348.3V188.575a22.9 22.9 0 0 0-6.615-15.99l-76.71-76.58a22.9 22.9 0 0 0-15.99-6.61l-70.431.02V20.69c0-4.285 3.589-7.875 7.875-7.875h195.912v84.588c0 4.393 3.584 7.88 7.875 7.88h38.231c4.413 0 7.875-3.487 7.875-7.88 0-4.285-3.461-7.88-7.875-7.88h-30.351V17.464l74.378 74.363a7.78 7.78 0 0 1 2.324 5.581v302.628c0 4.393-3.482 7.875-7.875 7.875z"/>
</svg>
