<svg xmlns="http://www.w3.org/2000/svg" xml:space="preserve" width="512" height="512" fill-rule="evenodd" stroke-linejoin="round" stroke-miterlimit="2" clip-rule="evenodd" viewBox="0 0 512 512">
  <path fill="#ccc" stroke="#000" stroke-width="5.12" d="M310.252 386.191v30.659H202.025v-30.659zM12.8 332.703h486.4v18.022a25.395 25.395 0 0 1-25.298 25.37H38.093A25.395 25.395 0 0 1 12.8 350.731zm431.8 19.164a8.474 8.474 0 1 0 8.474-8.474 8.4 8.4 0 0 0-6.159 2.381 8.5 8.5 0 0 0-2.55 6.093zm-32.809 0h-.02a8.45 8.45 0 0 0 5.248 7.823 8.479 8.479 0 0 0 11.049-11.11 8.5 8.5 0 0 0-7.864-5.187 8.35 8.35 0 0 0-6.113 2.406 8.35 8.35 0 0 0-2.529 6.067zm-32.809 0h-.02a8.5 8.5 0 0 0 5.228 7.823 8.5 8.5 0 0 0 9.257-1.853 8.5 8.5 0 0 0 1.792-9.257 8.45 8.45 0 0 0-7.864-5.187 8.4 8.4 0 0 0-6.113 2.406 8.5 8.5 0 0 0-2.529 6.067zM499.2 62.828V322.54H12.8V62.822a25.364 25.364 0 0 1 25.293-25.318h435.814a25.36 25.36 0 0 1 25.298 25.324Zm-32.696 119.716a14.87 14.87 0 0 0-12.273-14.715 14.85 14.85 0 0 0-16.553 9.636h-80.957q-.005-3.236-.486-6.477a17.87 17.87 0 0 0-14.423-15.539c-2.867-.589-7.02-1.997-8.202-4.91a11.21 11.21 0 0 1 2.319-9.339 17.82 17.82 0 0 0-.737-21.171 620 620 0 0 0-4.362-5.396l16.932-16.573h49.546a14.92 14.92 0 0 0 16.594 9.615c7.107-1.265 12.314-7.444 12.314-14.674s-5.207-13.43-12.314-14.674a14.925 14.925 0 0 0-16.589 9.595h-51.764a4.92 4.92 0 0 0-3.569 1.516l-18.294 18.236a118 118 0 0 0-4.977-4.214h.02a17.82 17.82 0 0 0-21.207-.804 11.37 11.37 0 0 1-9.129 2.212c-2.975-1.244-4.367-5.396-4.915-8.305a17.87 17.87 0 0 0-15.601-14.423 100.4 100.4 0 0 0-23.322 0 17.87 17.87 0 0 0-15.539 14.572c-.548 2.867-1.94 7.066-4.915 8.305v.026a11.42 11.42 0 0 1-9.339-2.386 17.82 17.82 0 0 0-21.207.804 131 131 0 0 0-4.977 4.214l-18.237-18.237a5.38 5.38 0 0 0-3.604-1.516h-51.931a14.904 14.904 0 0 0-28.908 5.079 14.92 14.92 0 0 0 12.334 14.674 14.9 14.9 0 0 0 16.573-9.615h49.439l16.783 16.783a61 61 0 0 0-4.367 5.396v.026a17.77 17.77 0 0 0-.758 21.146 11.16 11.16 0 0 1 2.319 9.339c-1.178 2.913-5.396 4.321-8.202 4.915a17.87 17.87 0 0 0-14.418 15.539 133 133 0 0 0-.486 6.472H74.153a14.904 14.904 0 0 0-28.908 5.079 14.904 14.904 0 0 0 28.908 5.084h80.963q.005 3.236.486 6.472a17.97 17.97 0 0 0 14.418 15.601c2.867.553 7.025 1.946 8.202 4.915a10.8 10.8 0 0 1-2.319 9.277 17.92 17.92 0 0 0 .865 21.105c1.413 1.731 2.867 3.456 4.362 5.396l-16.88 16.198h-49.444a14.904 14.904 0 0 0-28.908 5.079 14.92 14.92 0 0 0 12.339 14.674 14.9 14.9 0 0 0 16.568-9.61h51.661a5.37 5.37 0 0 0 3.599-1.5l18.237-18.237a118 118 0 0 0 4.977 4.219v-.02a17.77 17.77 0 0 0 21.212.799 11.16 11.16 0 0 1 9.129-2.089c2.97 1.178 4.362 5.402 4.915 8.269v-.02a17.82 17.82 0 0 0 15.811 14.628 98.3 98.3 0 0 0 23.316 0 17.82 17.82 0 0 0 15.606-14.418c.548-2.867 1.94-7.066 4.915-8.269v.026a11.16 11.16 0 0 1 9.339 2.319c6.554 4.301 15.176 3.789 21.207-1.244a132 132 0 0 0 4.977-4.219l18.299 18.299h-.02a4.92 4.92 0 0 0 3.564 1.459h51.656a14.85 14.85 0 0 0 16.527 9.549 14.85 14.85 0 0 0 12.273-14.612 14.88 14.88 0 0 0-12.273-14.633 14.85 14.85 0 0 0-16.527 9.554h-49.444l-16.778-16.783c1.516-1.664 2.97-3.395 4.362-5.396a17.92 17.92 0 0 0 .758-21.212 10.85 10.85 0 0 1-2.319-9.298c1.178-2.97 5.396-4.362 8.202-4.915a17.92 17.92 0 0 0 14.423-15.58q.323-3.236.481-6.472h80.968v-.02a14.838 14.838 0 0 0 28.652-4.577zM346.133 172.13a88 88 0 0 1 0 20.828 7.61 7.61 0 0 1-6.262 6.748 20.17 20.17 0 0 0-15.642 10.798 20.12 20.12 0 0 0 3.354 18.893 7.63 7.63 0 0 1-.384 9.165 92.2 92.2 0 0 1-14.843 14.909 7.76 7.76 0 0 1-9.231.379 17.92 17.92 0 0 0-18.913-3.328 17.87 17.87 0 0 0-10.988 15.729 7.63 7.63 0 0 1-6.431 6.492 92.2 92.2 0 0 1-21.043 0 7.61 7.61 0 0 1-6.743-6.262 20.22 20.22 0 0 0-10.793-15.77 19.97 19.97 0 0 0-18.893 3.348 7.76 7.76 0 0 1-9.236-.379 88.6 88.6 0 0 1-14.843-14.904 7.6 7.6 0 0 1-.379-9.17 20.27 20.27 0 0 0 3.354-18.893 20.17 20.17 0 0 0-15.667-10.798 7.63 7.63 0 0 1-6.262-6.743 90.6 90.6 0 0 1 0-20.833 7.68 7.68 0 0 1 6.262-6.748 20.17 20.17 0 0 0 15.667-10.793 20.12 20.12 0 0 0-3.354-18.826 7.73 7.73 0 0 1-.102-9.513 90 90 0 0 1 14.838-14.904 7.73 7.73 0 0 1 9.236-.317 19.97 19.97 0 0 0 18.893 3.292 20.07 20.07 0 0 0 10.793-15.708 7.7 7.7 0 0 1 6.748-6.308 90 90 0 0 1 21.043 0 7.73 7.73 0 0 1 6.743 6.308 17.87 17.87 0 0 0 11.008 15.729 17.87 17.87 0 0 0 18.893-3.313 7.73 7.73 0 0 1 9.231.317 90 90 0 0 1 15.053 14.904c2.15 2.662 2.324 6.41.384 9.236a20.12 20.12 0 0 0-3.354 18.826 20.12 20.12 0 0 0 15.667 10.798 7.68 7.68 0 0 1 6.262 6.81zm-40.586 10.414a49.53 49.53 0 0 0-39.91-48.553 49.51 49.51 0 0 0-55.409 29.645 49.546 49.546 0 0 0 80.794 53.996 49.66 49.66 0 0 0 14.592-35.082zM256 143.073a39.465 39.465 0 1 0 32.829 61.373A39.47 39.47 0 0 0 256 143.078zm73.897 283.884H182.093a33.434 33.434 0 0 0-33.398 33.398v5.837a8.346 8.346 0 0 0 8.371 8.31h197.852a8.346 8.346 0 0 0 8.366-8.31v-5.837a33.434 33.434 0 0 0-33.393-33.398z"/>
</svg>
