<svg xmlns="http://www.w3.org/2000/svg" xml:space="preserve" width="512" height="512" fill-rule="evenodd" stroke-linejoin="round" stroke-miterlimit="2" clip-rule="evenodd" viewBox="0 0 512 512">
  <path fill="#ccc" fill-rule="nonzero" stroke="#000" stroke-width="62.771" d="M5520.384 3174.4c37.222 102.4 139.622 176.881 251.341 176.881 148.941 0 269.978-121.021 269.978-269.962s-121.037-269.962-269.978-269.962c-121.037 0-214.118 74.481-251.341 176.881l-586.496-.02v-418.9l148.941-232.719h176.896c37.222 102.4 139.622 176.881 251.341 176.881 148.941 0 269.926-121.021 269.926-269.962s-120.986-269.962-269.926-269.962c-121.037 0-214.118 74.481-251.341 176.881H5026.99c-27.919 0-65.162 18.621-74.481 46.541l-18.621 27.899v-502.702h409.6c18.637 0 37.222-9.298 55.859-18.621l242.022-167.562c46.541 27.919 93.133 46.541 148.941 46.541 148.941 0 269.978-121.021 269.978-269.962s-121.037-269.962-269.978-269.962-269.926 121.021-269.926 269.962c0 27.919 9.267 55.859 9.267 83.779l-223.386 139.638h-372.383V996.084H1210.26v539.904H837.898L623.78 1396.35c9.298-27.919 9.298-55.859 9.298-83.779 0-148.941-121.021-269.962-269.962-269.962S93.174 1163.63 93.174 1312.571s121.001 269.962 269.962 269.962c55.859 0 102.4-18.621 148.941-46.541l242.038 167.562c18.621 9.303 37.238 18.621 55.859 18.621h400.282v512l-27.919-37.238c-18.621-27.919-46.541-46.541-74.481-46.541H875.137c-37.238-102.4-139.638-176.881-251.341-176.881-148.941 0-269.962 121.021-269.962 269.962s121.021 269.962 269.962 269.962c121.021 0 214.098-74.481 251.341-176.881h176.881l148.941 232.719v418.898l-577.178.041c-37.238-102.4-139.638-176.881-251.341-176.881-148.941 0-269.962 121.021-269.962 269.962-9.298 148.961 111.698 269.978 260.659 269.978 121.021 0 214.098-74.481 251.341-176.881h595.763v400.302L1061.3 3807.415H875.121c-37.238-102.4-139.638-176.881-251.361-176.881-148.941 0-269.962 121.021-269.962 269.962s121.021 269.962 269.962 269.962c121.021 0 214.098-74.481 251.341-176.881h232.719c27.919 0 65.162-18.621 74.481-46.541l27.919-37.238V4412.5H809.959c-18.621 0-37.238 9.298-55.859 18.616l-242.038 167.562c-46.541-27.919-93.102-37.217-148.941-37.217-148.961 0-269.962 121.021-269.962 269.962s121.021 269.962 269.962 269.962 269.962-121.021 269.962-269.962c0-27.919-9.298-55.859-9.298-83.779l214.098-139.638h372.362V5147.9h3723.622v-539.89h372.347l214.118 139.638c-9.318 27.919-9.318 55.859-9.318 83.779 0 148.941 121.037 269.962 269.978 269.962s269.978-121.021 269.978-269.962-121.037-269.962-269.978-269.962c-55.859 0-102.4 18.616-148.941 46.541l-242.022-167.562c-18.637-9.303-37.274-18.621-55.859-18.621h-400.302v-502.702l27.919 37.238c18.621 27.919 46.541 46.541 74.481 46.541h232.724c37.222 102.4 139.622 176.881 251.341 176.881 148.941 0 269.978-121.021 269.978-269.962s-121.037-269.962-269.978-269.962c-121.037 0-214.118 74.481-251.341 176.881h-176.886L4933.867 3574.7v-400.302zm260.659-176.881c46.541 0 83.763 37.238 83.763 83.779s-37.222 83.779-83.763 83.779-83.814-37.238-83.814-83.779c-9.267-46.541 37.274-83.779 83.814-83.779Zm-260.659-847.104c46.541 0 83.763 37.238 83.763 83.779s-37.222 83.779-83.763 83.779-83.763-37.238-83.763-83.779c-.051-37.238 37.222-83.779 83.763-83.779Zm260.659-921.6c46.541 0 83.763 37.238 83.763 83.779s-37.222 83.779-83.763 83.779-83.814-37.238-83.814-83.779c-9.267-46.541 37.274-83.779 83.814-83.779ZM363.039 1396.378a83.42 83.42 0 0 1-83.779-83.779c0-46.541 37.238-83.779 83.779-83.779s83.779 37.238 83.779 83.779c9.298 46.541-37.238 83.779-83.779 83.779Zm260.639 930.918a83.436 83.436 0 0 1-83.779-83.779c0-46.541 37.238-83.779 83.779-83.779s83.779 37.238 83.779 83.779a83.405 83.405 0 0 1-83.779 83.779Zm-260.639 837.837a83.425 83.425 0 0 1-83.779-83.799c0-46.541 37.238-83.779 83.779-83.779s83.779 37.238 83.779 83.779c9.298 46.561-37.238 83.799-83.779 83.799Zm260.639 828.518a83.436 83.436 0 0 1-83.779-83.779c0-46.541 37.238-83.779 83.779-83.779s83.779 37.238 83.779 83.779a83.405 83.405 0 0 1-83.779 83.779Zm-260.639 921.6a83.436 83.436 0 0 1-83.779-83.779c0-46.541 37.217-83.779 83.779-83.779 46.541 0 83.779 37.238 83.779 83.779 9.298 46.541-37.238 83.779-83.779 83.779Zm5418.004-167.562c46.541 0 83.763 37.238 83.763 83.779s-37.222 83.779-83.763 83.779-83.814-37.238-83.814-83.779c-9.267-46.541 37.274-83.779 83.814-83.779Zm-260.659-930.918c46.541 0 83.763 37.238 83.763 83.779s-37.222 83.779-83.763 83.779-83.763-37.238-83.763-83.779c-.051-46.541 37.222-83.779 83.763-83.779ZM3100.006 4831.453c0 55.859-37.238 93.102-93.102 93.102-55.859 0-93.102-37.238-93.102-93.102v-167.562c0-55.859 37.238-93.102 93.102-93.102 55.859 0 93.102 37.238 93.102 93.102zm0-539.904c0 46.541-37.238 93.102-93.102 93.102-55.859 0-93.102-46.541-93.102-93.102V4105.37c0-55.859 37.238-93.102 93.102-93.102 55.859 0 93.102 37.238 93.102 93.102zm0-558.541c0 46.541-37.238 93.102-93.102 93.102-55.859 0-93.102-46.541-93.102-93.102v-186.179c0-55.859 37.238-93.102 93.102-93.102 55.859 0 93.102 37.238 93.102 93.102zm0-558.541c0 46.541-37.238 93.102-93.102 93.102-55.859 0-93.102-46.541-93.102-93.102v-186.179c0-55.859 37.238-93.102 93.102-93.102 55.859 0 93.102 37.238 93.102 93.102zm0-558.541c0 55.859-37.238 93.102-93.102 93.102-55.859 0-93.102-37.238-93.102-93.102v-186.179c0-55.859 37.238-93.102 93.102-93.102 55.859 0 93.102 37.238 93.102 93.102zm0-558.541c0 55.859-37.238 93.102-93.102 93.102-55.859 0-93.102-37.238-93.102-93.102v-186.179c0-55.859 37.238-93.102 93.102-93.102 55.859 0 93.102 37.238 93.102 93.102zm0-558.541c0 55.859-37.238 93.102-93.102 93.102-55.859 0-93.102-37.238-93.102-93.102v-186.178c0-55.859 37.238-93.102 93.102-93.102 55.859 0 93.102 37.238 93.102 93.102zM1210.163 5678.592c0 204.8 167.562 372.378 372.362 372.378h2978.918c204.8 0 372.362-167.578 372.362-372.378v-353.741H1210.183zm1554.637-83.763h605.082c55.859 0 93.102 37.222 93.102 93.082s-37.238 93.133-93.102 93.133H2764.8c-55.859 0-93.102-37.274-93.102-93.133 0-46.541 46.561-93.082 93.102-93.082Zm2169.037-5129.37c0-204.8-167.562-372.362-372.362-372.362H1582.557c-204.8 0-372.362 167.562-372.362 372.362V819.2h3723.622zm-2466.918 83.779h-55.859c-55.859 0-93.102-37.238-93.102-93.102s37.238-93.102 93.102-93.102h55.859c46.541 0 93.102 37.238 93.102 93.102 0 46.561-46.541 93.102-93.102 93.102Zm1266.022 0h-856.423c-46.541 0-93.102-37.238-93.102-93.102s46.541-93.102 93.102-93.102h856.422c46.541 0 93.102 37.238 93.102 93.102 0 46.561-37.238 93.102-93.102 93.102Z" transform="matrix(.08151 0 0 .08164 1.017 1.016)"/>
</svg>
