<svg xmlns="http://www.w3.org/2000/svg" xml:space="preserve" width="512" height="512" fill-rule="evenodd" stroke-linejoin="round" stroke-miterlimit="2" clip-rule="evenodd" viewBox="0 0 512 512">
  <path fill="#ccc" fill-rule="nonzero" stroke="#000" stroke-width="5.12" d="m234.532 350.633-20.787-16.824a8.09 8.09 0 0 0-10.189 0l-24.745 20.029-28.037-18.294 5.929-37.499 99.497-1.393zm-19.61 61.481-9.37-59.095-21.146 17.111a8.115 8.115 0 0 1-9.523.497l-26.895-17.572-9.349 59.059zm272.794 51.661a69.63 69.63 0 0 1-44.329 30.172 69.63 69.63 0 0 1-52.71-9.994 69.63 69.63 0 0 1-30.208-44.349 69.6 69.6 0 0 1 1.311-33.935v-.036c.077-.251.133-.497.23-.748v-.051a70.7 70.7 0 0 1 8.468-17.951 69.6 69.6 0 0 1 25.544-23.388q.461-.236.911-.497a70.7 70.7 0 0 1 17.859-6.298 70 70 0 0 1 14.418-1.505c13.507 0 26.726 3.932 38.267 11.484a69.63 69.63 0 0 1 30.213 44.37c3.855 18.33.287 37.043-9.979 52.721zm-40.243-10.056a13.686 13.686 0 0 0 18.898-3.953 13.57 13.57 0 0 0 1.946-10.276 13.57 13.57 0 0 0-5.888-8.648 13.655 13.655 0 0 0-18.908 3.932 13.737 13.737 0 0 0 3.953 18.944Zm-69.786-97.766-32.86-21.535-.86-.573-37.448-24.545-24.187 36.89 7.475-1.889a8.2 8.2 0 0 1 6.431 1.07 8.08 8.08 0 0 1 3.548 5.453l3.814 23.235 22.815-5.76a8.2 8.2 0 0 1 6.431 1.085 8.1 8.1 0 0 1 3.548 5.458l3.794 23.214 6.605-1.659q.512-.123 1.024-.195-.005-.031.02-.072a88 88 0 0 1 9.078-18.125 86.5 86.5 0 0 1 20.777-22.052zm-77.512-188.119.189.195 25.907 27.505q.015.005.036.036l.077.077.092.118q.036.015.041.036l4.977 5.284L474.327 82.419c7.04-5.857 11.259-14.403 11.848-24.09a39.58 39.58 0 0 0-10.604-29.44 39.53 39.53 0 0 0-28.672-12.319h-.077c-9.687.02-18.463 3.702-24.74 10.378l-126.72 135.281-.23.251.23.246zm-187.023-48.871c0-35.082 28.539-63.611 63.611-63.611 35.082 0 63.616 28.534 63.616 63.611v39.68h38.758v-39.68c0-56.458-45.937-102.4-102.4-102.4-56.474 0-102.415 45.937-102.415 102.4v39.68h38.799zm40.668 162.883 13.962-.195 40.305-37.975a33.95 33.95 0 0 0-31.299-20.777 33.997 33.997 0 0 0-33.956 33.956 33.9 33.9 0 0 0 10.988 24.986zm69.171-29.952-31.232 29.414 32.358-.461 84.926-79.995-15.012-15.923-.118-.118a8 8 0 0 1-.896 1.065l-.307.287-69.693 65.69zm110.633 164.26a8.2 8.2 0 0 1-4.449-1.336 8.1 8.1 0 0 1-3.548-5.458l-3.789-23.194-22.82 5.76a8.09 8.09 0 0 1-9.979-6.543l-3.809-23.235-19.098 4.813a8.115 8.115 0 0 1-8.581-3.154 8.09 8.09 0 0 1-.174-9.134l40.038-61.041c2.458-3.738 7.475-4.787 11.213-2.33l32.087 21.043v-97.878l-4.731 3.932a8.04 8.04 0 0 1-5.171 1.869 8.04 8.04 0 0 1-5.888-2.56l-4.792-5.069-72.044 67.866 20.009-.287c2.688 0 5.263 1.28 6.789 3.512s1.853 5.094.84 7.593l-30.269 75.474a8.14 8.14 0 0 1-5.473 4.828 8.2 8.2 0 0 1-2.038.266 8.08 8.08 0 0 1-5.094-1.812l-9.385-7.608 8.924 56.422a8.12 8.12 0 0 1-1.843 6.528 8.09 8.09 0 0 1-6.164 2.842h-95.248a8.03 8.03 0 0 1-6.144-2.842 8.2 8.2 0 0 1-1.843-6.523l12.739-80.594.036-.195 7.27-45.972a49.97 49.97 0 0 1-14.572-35.364c0-27.658 22.487-50.15 50.15-50.15a50.18 50.18 0 0 1 43.622 25.39l58.768-55.424v-1.828l-243.072.051A23.296 23.296 0 0 0 12.8 198.077v238.781a23.327 23.327 0 0 0 23.296 23.296h281.339a23.31 23.31 0 0 0 23.291-23.296v-22.24l-5.115 1.28a7.7 7.7 0 0 1-1.981.251zm52.117-177.132a8.1 8.1 0 0 0 3.814-.957l32.389-17.321c3.953-2.115 5.437-7.014 3.318-10.967s-7.014-5.437-10.967-3.318l-32.389 17.321a8.095 8.095 0 0 0 3.835 15.242Zm3.814 42.173a8.1 8.1 0 1 0-7.649 14.285l32.389 17.321a8.2 8.2 0 0 0 3.814.952 8.1 8.1 0 0 0 3.835-15.237zm41.011-21.576a8.1 8.1 0 0 0-8.105-8.105H385.72a8.1 8.1 0 1 0 0 16.215h36.741a8.125 8.125 0 0 0 8.105-8.11Z"/>
</svg>
