<svg xmlns="http://www.w3.org/2000/svg" xml:space="preserve" width="512" height="512" fill-rule="evenodd" stroke-linejoin="round" stroke-miterlimit="2" clip-rule="evenodd" viewBox="0 0 512 512">
  <g fill="#ccc" stroke="#000">
    <path stroke-width="5.12" d="M204.94 45.139a23.94 23.94 0 0 1-7.002-9.589l-18.707 11.004a4.46 4.46 0 0 1-4.639-.072c-6.151-3.674-14.658-7.021-21.587-8.918a4.47 4.47 0 0 1-3.18-3.384l-5.562-21.39h-32.141l-5.617 21.59a4.46 4.46 0 0 1-3.153 3.192l.01.01a93.3 93.3 0 0 0-21.732 8.99 4.48 4.48 0 0 1-4.484-.027L57.939 35.259 35.219 58.01 46.49 77.243a4.48 4.48 0 0 1-.074 4.644c-3.669 6.16-7.012 14.677-8.905 21.617a4.47 4.47 0 0 1-3.38 3.184l-21.352 5.562.001 32.184 21.56 5.625a4.47 4.47 0 0 1 3.187 3.158l.01-.01a93.3 93.3 0 0 0 8.978 21.762 4.5 4.5 0 0 1-.029 4.493l-11.269 19.231 8.19 8.201 29.66-29.701c-25.692-29.029-24.523-73.306 3.081-100.946 27.631-27.669 71.868-28.768 100.809-3.086l27.992-28.011z"/>
    <path stroke-width="5.12" d="m123.924 102.168 53.287 53.141c2.841 2.833-.32 10.213 2.198 17.485 2.591 7.508 9.566 7.555 17.468 7.902l-8.751-8.727a4.47 4.47 0 0 1-1.219-4.111l1.852-11.716a4.51 4.51 0 0 1 3.807-3.735l11.873-1.882a4.48 4.48 0 0 1 3.875 1.256l8.751 8.727c-.35-7.881-.421-14.857-7.944-17.434-7.24-2.477-14.664.645-17.496-2.181l-.018.018-53.286-53.141c-2.842-2.834.319-10.213-2.199-17.487-2.599-7.517-9.566-7.554-17.468-7.902l8.279 8.257a4.47 4.47 0 0 1 1.218 4.112l-1.852 11.715a4.49 4.49 0 0 1-3.807 3.735l-11.873 1.883a4.48 4.48 0 0 1-3.874-1.257l-8.279-8.256c.35 7.881.421 14.857 7.944 17.434 7.24 2.477 14.664-.645 17.496 2.179zm2.542 40.411-23.335 23.336c-2.139 2.139-5.932.692-5.934-2.442-.001-1.703 1.014-2.465 2.12-3.57l22.228-22.23c2.139-2.139 5.932-.692 5.934 2.442a3.52 3.52 0 0 1-1.014 2.465zm-16.815-8.23-27.088-27.006a10.4 10.4 0 0 0-7.395-3.03c-9.398.007-13.853 11.352-7.382 17.807l27.097 26.997zm9.791 30.455 5.603-5.603 30.21 30.122a4.4 4.4 0 0 0 2.532 1.257l9.872 1.406 7.975 15.849-7.396 7.398-15.881-7.943-1.405-9.675a4.45 4.45 0 0 0-1.289-2.699z"/>
    <path fill-rule="nonzero" stroke-width="5.12" d="m133.616 327.028 218.092-.486q.059-.002.117.005c3.514.055 7.088.052 10.623-.023 10.697-.228 35.453-4.688 35.453-4.688l77.484-18.484s15.845-4.744 23.416-7.485c-7.421-2.707-22.938-7.25-22.938-7.25l-75.681-18.221s-24.995-4.338-35.93-4.518a281 281 0 0 0-10.623.023l-.118.001-218.092.486c-19.952.538-39.354 5.876-56.109 15.437-7.916 4.512-16.146 11.281-20.476 15.026 4.133 3.771 11.997 10.556 19.58 14.998 16.192 9.485 35.28 14.735 55.203 15.178Zm199.276 171.713 4.828-162.203-101.813.231 71.016 162.033z"/>
    <path stroke-width="5.12" d="m401.332 330.137 75.675-18.64-2.244 75.526a6.1 6.1 0 0 1-1.887 4.21 6.24 6.24 0 0 1-4.301 1.756l-35.817.076c-2.344.005-4.43-1.332-5.355-3.434z"/>
    <path fill-rule="nonzero" stroke-width="5.12" d="m340.681 255.909 4.824-162.201-25.967.056-80.669 162.378zm137.866-55.08a5.72 5.72 0 0 1 1.633 4.202l-2.24 75.329-74.506-18.266 29.539-59.46a6.26 6.26 0 0 1 5.561-3.464l35.817-.082a5.83 5.83 0 0 1 4.194 1.737z"/>
    <path stroke-width="5.12" d="m254.2 398.219 23.521 54.379-49.981.111a5.83 5.83 0 0 1-4.197-1.735 5.73 5.73 0 0 1-1.637-4.199l1.278-42.987c.097-3.288 2.871-5.96 6.188-5.966zm32.872-258.224-26.479 54.4-25.184.6c-3.315.01-5.929-2.652-5.83-5.936l1.278-42.987c.096-3.282 2.869-5.954 6.185-5.964z"/>
  </g>
</svg>
