<svg xmlns="http://www.w3.org/2000/svg" xml:space="preserve" width="512" height="512" fill-rule="evenodd" stroke-linejoin="round" stroke-miterlimit="2" clip-rule="evenodd" viewBox="0 0 512 512">
  <path fill="#ccc" fill-rule="nonzero" stroke="#000" stroke-width="5.12" d="M294.989 331.663a39.17 39.17 0 0 0-15.887-29 51.7 51.7 0 0 1-17.152 5.1 47.72 47.72 0 0 1-2.033 36.751 36 36 0 0 1-1.638 3.092 47.5 47.5 0 0 1-21.519 19.548 108.5 108.5 0 0 0 40.73-.338 41 41 0 0 0 5.023-3.953 39.07 39.07 0 0 0 12.59-28.682 15.4 15.4 0 0 0-.113-2.519z"/>
  <path fill="#ccc" fill-rule="nonzero" stroke="#000" stroke-width="5.12" d="M250.762 343.235a26 26 0 0 0 1.3-2.417 38.91 38.91 0 0 0 .476-32.865 51.7 51.7 0 0 1-17.219-4.127 47.4 47.4 0 0 1-20.127 30.74 31 31 0 0 1-3.046 1.956 44.54 44.54 0 0 1-28.621 5.939 112.6 112.6 0 0 0 35.86 20.244 38.81 38.81 0 0 0 31.375-19.471z"/>
  <path fill="#ccc" fill-rule="nonzero" stroke="#000" stroke-width="5.12" d="M207.923 328.934a26 26 0 0 0 2.34-1.521 38.91 38.91 0 0 0 16.901-28.042 52.7 52.7 0 0 1-12.938-12.36 47.46 47.46 0 0 1-32.855 16.589 20.5 20.5 0 0 1-3.517.179 47.77 47.77 0 0 1-27.694-8.873 112.6 112.6 0 0 0 20.849 35.174 39.42 39.42 0 0 0 36.915-1.147Zm127.335-149.273a39.27 39.27 0 0 0-31.14 3.441 26 26 0 0 0-2.34 1.516 38.91 38.91 0 0 0-16.906 28.042 52.2 52.2 0 0 1 12.938 12.365 47.4 47.4 0 0 1 32.855-16.589 20.5 20.5 0 0 1 3.517-.184 47.77 47.77 0 0 1 27.694 8.873 112.6 112.6 0 0 0-20.849-35.174 41 41 0 0 0-5.775-2.289zm-7.844 122.107a38.91 38.91 0 0 0-28.037-16.896 52.7 52.7 0 0 1-12.396 12.964 47.4 47.4 0 0 1 16.625 32.829q.23 1.756.179 3.523a47.77 47.77 0 0 1-8.873 27.694 112.6 112.6 0 0 0 35.174-20.849 39.42 39.42 0 0 0-1.147-36.915 26 26 0 0 0-1.521-2.35Z"/>
  <path fill="#ccc" fill-rule="nonzero" stroke="#000" stroke-width="5.12" d="M331.684 217.047a39.22 39.22 0 0 0-29.02 15.877 51.7 51.7 0 0 1 5.105 17.162 47.72 47.72 0 0 1 36.746 2.028 31 31 0 0 1 3.113 1.659 47.5 47.5 0 0 1 19.533 21.499 108.5 108.5 0 0 0-.338-40.735 41 41 0 0 0-3.953-5.018 39.07 39.07 0 0 0-28.682-12.59 18 18 0 0 0-2.509.118z"/>
  <path fill="#ccc" fill-rule="nonzero" stroke="#000" stroke-width="5.12" d="M343.235 261.258a26 26 0 0 0-2.417-1.285 38.91 38.91 0 0 0-32.865-.486 51.7 51.7 0 0 1-4.132 17.224 47.46 47.46 0 0 1 30.746 20.122 31 31 0 0 1 1.946 3.036 48.13 48.13 0 0 1 6.067 28.508 112.6 112.6 0 0 0 20.127-35.732 38.86 38.86 0 0 0-19.471-31.386zm-162.888 33.725a39.22 39.22 0 0 0 29.02-15.877 51.7 51.7 0 0 1-5.105-17.162 47.62 47.62 0 0 1-36.746-2.028 31 31 0 0 1-3.113-1.659 47.5 47.5 0 0 1-19.528-21.504 108.5 108.5 0 0 0 .338 40.74 39.37 39.37 0 0 0 33.239 17.608 12 12 0 0 0 1.894-.118Zm36.7-114.616a39.17 39.17 0 0 0 15.887 29 51.7 51.7 0 0 1 17.152-5.1 47.72 47.72 0 0 1 2.033-36.751 36 36 0 0 1 1.644-3.092 47.5 47.5 0 0 1 21.514-19.548 108 108 0 0 0-40.73.338 41 41 0 0 0-5.023 3.953 39.07 39.07 0 0 0-12.59 28.682 15.4 15.4 0 0 0 .113 2.519Z"/>
  <path fill="#ccc" fill-rule="nonzero" stroke="#000" stroke-width="5.12" d="M261.268 168.796a20.5 20.5 0 0 0-1.3 2.422 38.91 38.91 0 0 0-.476 32.86 51.7 51.7 0 0 1 17.219 4.132 47.4 47.4 0 0 1 20.127-30.746 31 31 0 0 1 3.046-1.951 48.13 48.13 0 0 1 28.488-6.067 112.6 112.6 0 0 0-35.732-20.122 38.86 38.86 0 0 0-31.37 19.471zm29.491 87.219a34.739 34.739 0 1 1-69.484 0 34.739 34.739 0 0 1 69.478 0Zm-106.143-45.747a38.91 38.91 0 0 0 28.037 16.896 52.7 52.7 0 0 1 12.36-12.938 47.4 47.4 0 0 1-16.589-32.855 22.5 22.5 0 0 1-.179-3.517 47.77 47.77 0 0 1 8.878-27.694 112.6 112.6 0 0 0-35.174 20.844 39.42 39.42 0 0 0 1.152 36.915 26 26 0 0 0 1.516 2.355Z"/>
  <path fill="#ccc" fill-rule="nonzero" stroke="#000" stroke-width="5.12" d="M168.796 250.772a26 26 0 0 0 2.422 1.285 38.91 38.91 0 0 0 32.86.486 51.7 51.7 0 0 1 4.132-17.224 47.46 47.46 0 0 1-30.746-20.122 31 31 0 0 1-1.94-3.036 48.13 48.13 0 0 1-6.072-28.508 112.6 112.6 0 0 0-20.127 35.732 38.86 38.86 0 0 0 19.471 31.386zm-79.58 33.106a8.284 8.284 0 1 0-.026-.026l.015.01zm116.47-203.366a8.284 8.284 0 1 0 .026.02l-.015-.01zm-86.851 78.157a8.284 8.284 0 1 0 .02.02l-.01-.01zm165.018-78.162a8.284 8.284 0 1 0 .02.02l-.015-.01zm147.651 121.59a8.284 8.284 0 1 0 .02.026l-.015-.01zM49.352 245.524a8.284 8.284 0 1 0 .026.02l-.015-.01zm349.972-80.707a8.7 8.7 0 0 0-5.35-8.023 8.7 8.7 0 0 0-9.462 1.874l-.005.015-.015.01a8.684 8.684 0 0 0 8.402 14.51 8.684 8.684 0 0 0 6.431-8.387zm-14.812 188.54a8.284 8.284 0 1 0-.02-.02l.015.01zm69.478-86.851a8.284 8.284 0 1 0-.02-.02l.015.01z"/>
  <path fill="#ccc" fill-rule="nonzero" stroke="#000" stroke-width="5.12" d="m479.514 160.251-39.229 39.229a17.2 17.2 0 0 1 2.458 8.771 17.367 17.367 0 1 1-17.367-17.372 17.2 17.2 0 0 1 8.765 2.458l41.549-41.539A244.53 244.53 0 0 0 341.955 28.57l-12.119 12.119V97.89l52.034 52.024a17.15 17.15 0 0 1 8.76-2.458 17.372 17.372 0 1 1-17.367 17.367 17.2 17.2 0 0 1 2.458-8.771l-53.299-53.299a4.35 4.35 0 0 1-1.27-3.067V49.372L292.634 77.89a17.2 17.2 0 0 1 2.468 8.771 17.372 17.372 0 1 1-17.372-17.372 17.15 17.15 0 0 1 8.765 2.458l35.927-35.922 10.465-10.465a240.6 240.6 0 0 0-54.436-11.448l-63.979 63.979a17.2 17.2 0 0 1 2.458 8.771 17.367 17.367 0 1 1-17.367-17.372 17.15 17.15 0 0 1 8.765 2.458l58.639-58.624a246 246 0 0 0-10.957-.282 243.2 243.2 0 0 0-51.507 5.545l-30.996 30.996v58.998a4.35 4.35 0 0 1-1.27 3.072l-44.616 44.605a17.2 17.2 0 0 1 2.458 8.771 17.372 17.372 0 1 1-17.367-17.367 17.15 17.15 0 0 1 8.765 2.458l43.346-43.336V47.58a4.35 4.35 0 0 1 1.27-3.072l21.929-21.929a242.2 242.2 0 0 0-57.943 25.472v34.268a4.35 4.35 0 0 1-1.27 3.072l-50.842 50.836v85.053a4.35 4.35 0 0 1-1.27 3.072l-18.56 18.555a17.2 17.2 0 0 1 2.463 8.771 17.372 17.372 0 1 1-17.372-17.367 17.15 17.15 0 0 1 8.765 2.458l17.295-17.285v-85.053a4.35 4.35 0 0 1 1.27-3.072L121.4 80.517V53.622c-93.547 62.136-132.341 180.26-93.849 285.757l52.884-52.874a17.2 17.2 0 0 1-2.463-8.771 17.372 17.372 0 1 1 17.372 17.372 17.2 17.2 0 0 1-8.765-2.458l-55.552 55.538a242.7 242.7 0 0 0 26.501 48.067l30.397-30.392v-.01h.01l18.555-18.555a17.2 17.2 0 0 1-2.463-8.771 17.372 17.372 0 1 1 17.372 17.372 17.15 17.15 0 0 1-8.771-2.458L97.14 368.922l41.544 41.544a17.15 17.15 0 0 1 8.771-2.458 17.367 17.367 0 1 1-17.372 17.367 17.2 17.2 0 0 1 2.458-8.771L91.002 375.06l-28.283 28.283a243.2 243.2 0 0 0 163.053 93.911l63.109-63.104a17.2 17.2 0 0 1-2.463-8.771 17.367 17.367 0 1 1 17.367 17.367 17.15 17.15 0 0 1-8.76-2.458l-58.097 58.093c6.308.497 12.657.819 19.087.819a243.7 243.7 0 0 0 40.771-3.482l33.055-33.055v-58.997c0-1.152.461-2.253 1.275-3.072l44.616-44.605a17.2 17.2 0 0 1-2.463-8.776 17.372 17.372 0 1 1 17.367 17.372 17.2 17.2 0 0 1-8.765-2.458l-43.346 43.336v58.998a4.35 4.35 0 0 1-1.27 3.072l-25.047 25.047a241.7 241.7 0 0 0 61.061-23.593v-39.265a4.35 4.35 0 0 1 1.27-3.072l50.842-50.836v-85.049a4.35 4.35 0 0 1 1.27-3.072l18.56-18.555a17.15 17.15 0 0 1-2.463-8.771 17.372 17.372 0 0 1 29.65-12.288 17.372 17.372 0 0 1-12.278 29.655 17.15 17.15 0 0 1-8.765-2.458l-17.29 17.285v85.053a4.35 4.35 0 0 1-1.27 3.072l-50.843 50.828v32.466c103.731-62.73 145.357-192.328 97.567-303.739zM256.016 386.299c-71.946 0-130.273-58.332-130.273-130.284 0-71.946 58.327-130.273 130.273-130.273 71.951 0 130.278 58.327 130.278 130.273-.077 71.921-58.358 130.202-130.278 130.278Z"/>
  <path fill="#ccc" fill-rule="nonzero" stroke="#000" stroke-width="5.12" d="M297.661 431.529a8.289 8.289 0 1 0-.02-.026l.015.01zm-182.384-86.856a8.284 8.284 0 1 0-.026-.02l.015.01zm40.858 80.701a8.65 8.65 0 0 0-5.345-8.023 8.7 8.7 0 0 0-9.457 1.874l-.01.01-.015.01a8.684 8.684 0 0 0-1.362 10.481 8.68 8.68 0 0 0 9.764 4.035 8.684 8.684 0 0 0 6.431-8.387z"/>
</svg>
