<svg xmlns="http://www.w3.org/2000/svg" width="512" height="512" viewBox="0 0 512 511">
  <g fill="#ccc" stroke="#000" stroke-linejoin="round" stroke-miterlimit="2">
    <path fill-rule="evenodd" stroke-width="18.7" d="M310.248 738.206c1.41 14.902-.93 29.626-6.645 42.89l76.824 19.967a16.35 16.35 0 0 1 11.809 12.192c6.426 25.406 19.781 56.066 32.82 78.886 3.09 5.53 2.707 12.046-.517 16.97l-40.885 69.661 83.163 83.143 70.307-41.248c5.258-3.092 11.44-2.9 16.415-.083l-.01-.05c25.136 14.345 51.66 25.4 79.462 32.992 5.861 1.606 10.071 6.199 11.525 11.666l20.527 78.856 117.57.005 20.525-78.847a16.34 16.34 0 0 1 12.183-11.819c25.414-6.412 56.07-19.786 78.897-32.798 5.53-3.102 12.047-2.738 16.972.513l69.606 40.866 83.157-83.157-41.25-70.314c-3.09-5.248-2.899-11.43-.099-16.395h-.04c14.342-25.129 25.409-51.656 32.999-79.463 1.596-5.846 6.185-10.07 11.678-11.516l78.837-20.536v-42.375l-153.47-.005c-8.531 141.466-125.955 252.84-268.779 252.833-142.965.013-260.267-111.602-268.787-252.834l-144.784-.05Zm0 0" transform="matrix(.19368 -.19303 -.19368 -.19303 128.05 407.17)"/>
    <path fill-rule="evenodd" stroke-width="18.7" d="m785.523 706.481-.007-275.151c.006-14.678-27.266-25.593-39.591-50.907-12.752-26.103 5.138-44.256 24.648-65.588l-.005 45.194c0 5.808 2.998 10.864 7.498 13.77l35.105 25.505c5.947 4.313 13.916 4.034 19.505-.18l35.524-25.83c4.41-3.195 6.754-8.211 6.756-13.272l-.005-45.183c19.501 21.276 37.38 39.498 24.626 65.609-12.272 25.122-39.527 36.248-39.522 50.875h-.101l-.004 275.162c.004 14.667 27.266 25.572 39.592 50.886 12.761 26.154-5.128 44.266-24.639 65.598l.01-42.75a16.38 16.38 0 0 0-7.509-13.78L832.3 740.935c-5.947-4.313-13.917-4.034-19.496.19l-35.534 25.82c-4.409 3.194-6.754 8.21-6.755 13.272l.01 42.749c-19.51-21.286-37.38-39.499-24.625-65.61 12.271-25.121 39.526-36.248 39.522-50.875Zm-98.069-111.057-120.66.01c-11.062-.008-17.11 13.548-9.005 21.652 4.411 4.412 9.006 3.743 14.724 3.752l114.943.001c11.061-.012 17.11-13.547 8.995-21.662-2.337-2.297-5.522-3.747-8.997-3.753Zm-22.104 64.763-.018 139.854c-.003 10.485-4.31 20.054-11.259 26.942-24.283 24.283-65.153 6.467-65.148-26.949l.058-139.853Zm-53.57-104.053 28.97-.012.012-155.976c.004-3.424 1.039-6.847 3.286-9.802l21.841-29.147-20.437-61.602-38.244-.004-20.443 61.605 21.423 28.643a16.17 16.17 0 0 1 3.653 10.31Zm0 0" transform="matrix(.19368 -.19303 -.19368 -.19303 108.774 391.803)"/>
    <path stroke-width="4.17" d="M225.683 196.747H152.43v-12.53c0-2.592 1.069-4.954 2.774-6.679a9.43 9.43 0 0 1 6.678-2.776h54.568a9.1 9.1 0 0 1 6.51 2.719c1.67 1.67 2.72 3.978 2.72 6.509Zm59.538-91.1h10.935l-.9-12.86c-4.426-1.69-8.572-2.496-12.437-2.458a26 26 0 0 0-10.636 2.362l-4.463 104.072h33.09l-4.429-79.134H285.24c-1.069 0-1.915-4.922-1.915-5.97 0-1.072.865-5.975 1.915-5.975Zm77.847 0h10.935l-.9-12.86c-4.43-1.69-8.572-2.496-12.437-2.458a26 26 0 0 0-10.636 2.362l-4.466 104.072h33.09l-4.426-79.134h-11.141c-1.072 0-1.915-4.922-1.915-5.97 0-1.072.862-5.975 1.915-5.975Zm0 0" transform="scale(1.22782 1.22542)"/>
    <path fill-rule="evenodd" stroke-width="4.17" d="M395.853 402.837a3.08 3.08 0 0 1-3.077 3.076l-325.116.338a3.078 3.078 0 0 1 0-6.152v-78.13c0-4.11 1.69-7.861 4.41-10.583a14.9 14.9 0 0 1 10.578-4.403h23.924v17.236H96.455c-2.965 0-5.663 1.218-7.638 3.169a10.78 10.78 0 0 0-3.166 7.634v65.035l28.811-.035V222.156h278.314v177.567a3.074 3.074 0 0 1 3.074 3.076ZM231.12 378.282v21.648h7.903v-19.735h40.783v19.678h7.906V292.11a28.2 28.2 0 0 0-8.307-19.977 28.2 28.2 0 0 0-19.976-8.308 28.2 28.2 0 0 0-19.977 8.308 28.2 28.2 0 0 0-8.313 19.977v86.172Zm-78.862-69.988a1.904 1.904 0 0 0 1.915 1.912h16.77a1.91 1.91 0 0 0 1.912-1.912v-16.77c0-.508-.2-.995-.56-1.352a1.9 1.9 0 0 0-1.352-.561h-16.77a1.904 1.904 0 0 0-1.915 1.913Zm157.982 69.988v21.575h7.906v-19.64h40.786v19.598h7.906v-107.69a28.2 28.2 0 0 0-8.313-19.977 28.2 28.2 0 0 0-19.977-8.307 28.2 28.2 0 0 0-19.976 8.307 28.2 28.2 0 0 0-8.313 19.978v86.172Zm-124.443-69.988a1.904 1.904 0 0 0 1.915 1.912h16.77a1.91 1.91 0 0 0 1.912-1.912v-16.77a1.9 1.9 0 0 0-.56-1.352 1.9 1.9 0 0 0-1.352-.561h-16.77a1.904 1.904 0 0 0-1.915 1.913Zm-33.539-33.541c-.003.51.2.998.56 1.355.36.36.846.56 1.355.557h16.77a1.903 1.903 0 0 0 1.912-1.912v-16.77a1.91 1.91 0 0 0-1.912-1.91h-16.77a1.9 1.9 0 0 0-1.355.558c-.36.357-.563.845-.56 1.355Zm33.54 0a1.907 1.907 0 0 0 1.914 1.912h16.77a1.903 1.903 0 0 0 1.912-1.912v-16.77c.003-.507-.2-.992-.56-1.352a1.9 1.9 0 0 0-1.352-.558h-16.77a1.9 1.9 0 0 0-1.355.558c-.36.357-.563.845-.56 1.355Zm-27.463 125.253 33.39-.041v-48.226a1.91 1.91 0 0 0-1.912-1.916h-29.566c-.506 0-.996.2-1.352.56a1.92 1.92 0 0 0-.56 1.356Zm0 0" transform="scale(1.22782 1.22542)"/>
    <path fill-rule="evenodd" stroke-width="4.17" d="M279.707 292.932h-.012v4.128h-40.59v-4.128c0-5.588 2.288-10.663 5.963-14.335a20.3 20.3 0 0 1 14.339-5.964c5.586 0 10.664 2.286 14.342 5.964a20.32 20.32 0 0 1 5.958 14.335Zm-40.598 26.697h40.602v38.016h-40.602Zm119.718-26.697h-.013v4.125h-40.592v-4.125c0-5.38 2.148-10.545 5.962-14.338a20.3 20.3 0 0 1 14.342-5.961c5.59 0 10.664 2.286 14.339 5.961a20.3 20.3 0 0 1 5.962 14.338Zm-40.592 26.697h40.602v38.016h-40.602Zm0 0" transform="scale(1.22782 1.22542)"/>
    <path stroke-width="4.17" d="M101.034 204.652h305.222v9.643H101.034Zm0 0" transform="scale(1.22782 1.22542)"/>
  </g>
</svg>
