<svg xmlns="http://www.w3.org/2000/svg" xml:space="preserve" width="512" height="512" fill-rule="evenodd" stroke-linejoin="round" stroke-miterlimit="2" clip-rule="evenodd" viewBox="0 0 512 512">
  <path fill="#ccc" stroke="#000" stroke-width="5.12" d="M377.308 355.384V193.541l-75.12 110.997zm-93.399-23.849 92.908 62.874a15.05 15.05 0 0 1-3.942 6.82 15.05 15.05 0 0 1-10.696 4.444H233.728l50.161-74.138zm57.237-302.028a56.83 56.83 0 0 1 16.712 40.32c0 27.914-44.175 106.353-57.027 128.573-12.851-22.226-57.032-100.659-57.032-128.573a56.83 56.83 0 0 1 16.701-40.32A56.83 56.83 0 0 1 300.826 12.8c15.744 0 30.008 6.39 40.325 16.707Zm-40.315 2.376a34.97 34.97 0 0 0-24.771 10.266 34.82 34.82 0 0 0-10.26 24.765c0 9.656 3.922 18.422 10.26 24.765a34.82 34.82 0 0 0 24.771 10.271 34.97 34.97 0 0 0 24.765-10.271 34.82 34.82 0 0 0 10.271-24.765 34.97 34.97 0 0 0-10.271-24.765 34.82 34.82 0 0 0-24.765-10.266Z"/>
  <path fill="#ccc" stroke="#000" stroke-width="5.12" d="M266.117 156.396a1106 1106 0 0 0 31.206 57.001 4.045 4.045 0 0 0 6.979.072c.097-.143 15.744-26.506 31.227-57.073h22.508l-58.338 86.205-132.029-86.205zm-16.655 160.43 26.788-39.567-141.542-95.795V336.61l114.78-19.779zM208.41 499.2l13.112-106.563-86.682 63.319 49.275-4.25a3.99 3.99 0 0 1 4.014 2.371l20.26 45.117zm-20.25-93.532h-38.349c-4.157 0-7.936-1.69-10.685-4.439a15.05 15.05 0 0 1-4.444-10.701v-21.939l89.636-14.638-33.859 50.022z"/>
</svg>
