<?xml version="1.0" encoding="UTF-8" standalone="no"?>
<!DOCTYPE svg PUBLIC "-//W3C//DTD SVG 1.1//EN" "http://www.w3.org/Graphics/SVG/1.1/DTD/svg11.dtd">
<svg width="100%" height="100%" viewBox="0 0 100 100" version="1.1" xmlns="http://www.w3.org/2000/svg" xmlns:xlink="http://www.w3.org/1999/xlink" xml:space="preserve" xmlns:serif="http://www.serif.com/" style="fill-rule:evenodd;clip-rule:evenodd;stroke-linejoin:round;stroke-miterlimit:2;">
    <g transform="matrix(0.098959,0,0,0.098959,-9.37551,-9.37491)">
        <path d="M868.557,278.02L331.79,278.02C302.071,278.02 278.024,302.067 278.024,331.786L278.024,868.506C278.024,897.99 302.071,921.944 331.79,921.944L868.51,921.944C897.994,921.944 921.948,897.991 921.948,868.506L921.995,331.786C921.995,302.067 898.042,278.02 868.557,278.02ZM847.972,649.92C846.566,656.623 841.363,661.967 834.66,663.467L793.738,672.842C792.238,677.014 790.363,681.28 788.441,685.686L810.894,721.217C814.503,727.123 814.363,734.529 810.566,740.201C791.816,768.185 768.238,791.81 740.254,810.513C734.582,814.31 727.176,814.451 721.41,810.841L685.644,788.388C681.613,790.357 677.3,792.091 672.941,793.826L663.566,834.654C662.066,841.357 656.722,846.56 650.019,847.826C633.003,851.201 616.691,852.794 600.05,852.794C583.738,852.794 566.956,851.154 550.175,847.826C543.472,846.56 538.034,841.357 536.534,834.654L527.487,793.826C522.987,792.185 518.675,790.357 514.549,788.529L479.158,810.748C473.392,814.451 466.08,814.357 460.314,810.607C432.189,791.998 408.47,768.279 389.626,740.154C385.689,734.482 385.689,727.076 389.298,721.17L411.751,685.639C410.017,681.467 408.282,677.202 406.548,672.795L365.486,663.42C358.783,661.92 353.58,656.576 352.174,649.873C348.939,632.998 347.299,616.685 347.299,599.904C347.299,583.357 348.939,566.716 352.268,550.263C353.533,543.56 358.736,538.216 365.44,536.716L406.502,527.341C408.142,523.076 409.877,518.763 411.705,514.497L389.252,478.966C385.642,473.2 385.642,465.794 389.58,459.982C408.658,431.529 432.471,407.716 460.268,389.294C465.94,385.497 473.346,385.497 479.112,389.06L514.737,411.513C518.909,409.685 523.174,407.903 527.44,406.31L536.487,365.248C537.987,358.545 543.331,353.342 550.128,351.936C583.69,345.467 616.409,345.467 649.972,351.936C656.675,353.342 662.019,358.404 663.519,365.108L672.894,406.405C677.159,408.045 681.331,409.639 685.503,411.514L721.362,389.061C727.127,385.358 734.534,385.452 740.206,389.295C767.487,407.67 791.815,432.092 810.518,459.983C814.315,465.749 814.455,473.155 810.846,478.967L788.393,514.498C790.221,518.436 792.096,522.842 793.69,527.436L834.612,536.671C841.315,538.171 846.518,543.515 847.784,550.218C851.159,566.624 852.753,583.312 852.753,599.859C852.799,616.593 851.206,632.906 847.971,649.921L847.972,649.92ZM388.832,243.18L354.004,243.18L354.004,137.34C354.004,127.731 361.879,119.996 371.488,119.996C381.097,119.996 388.832,127.73 388.832,137.34L388.832,243.18ZM502.882,243.18L468.194,243.18L468.194,137.34C468.194,127.731 475.928,119.996 485.538,119.996C495.148,119.996 502.882,127.73 502.882,137.34L502.882,243.18ZM617.402,243.18L582.574,243.18L582.574,137.34C582.574,127.731 590.449,119.996 599.918,119.996C609.527,119.996 617.402,127.73 617.402,137.34L617.402,243.18ZM731.822,243.18L697.134,243.18L697.134,137.34C697.134,127.731 704.868,119.996 714.478,119.996C724.088,119.996 731.822,127.73 731.822,137.34L731.822,243.18ZM846.242,243.18L811.554,243.18L811.554,137.34C811.554,127.731 819.288,119.996 828.898,119.996C838.508,119.996 846.242,127.73 846.242,137.34L846.242,243.18ZM1062.66,388.82L956.822,388.82L956.822,353.992L1062.66,353.992C1072.27,353.992 1080.01,361.867 1080.01,371.476C1080.01,381.085 1072.27,388.82 1062.66,388.82ZM1080.01,485.851C1080.01,495.46 1072.27,503.195 1062.66,503.195L956.822,503.195L956.822,468.507L1062.66,468.507C1072.27,468.507 1080.01,476.288 1080.01,485.851ZM1080.01,599.941C1080.01,609.55 1072.27,617.425 1062.66,617.425L956.822,617.425L956.822,582.597L1062.66,582.597C1072.27,582.597 1080.01,590.331 1080.01,599.941ZM1080.01,714.461C1080.01,724.07 1072.27,731.805 1062.66,731.805L956.822,731.805L956.822,696.977L1062.66,696.977C1072.27,696.977 1080.01,704.852 1080.01,714.461ZM1080.01,828.841C1080.01,838.45 1072.27,846.185 1062.66,846.185L956.822,846.185L956.822,811.497L1062.66,811.497C1072.27,811.497 1080.01,819.278 1080.01,828.841ZM354.006,956.661L388.834,956.661L388.834,1062.6C388.834,1072.21 381.1,1079.94 371.49,1079.94C361.88,1079.94 354.006,1072.21 354.006,1062.6L354.006,956.661ZM468.196,956.661L502.884,956.661L502.884,1062.6C502.884,1072.21 495.15,1079.94 485.54,1079.94C475.93,1079.94 468.196,1072.21 468.196,1062.6L468.196,956.661ZM582.616,956.661L617.444,956.661L617.444,1062.6C617.444,1072.21 609.569,1079.94 599.96,1079.94C590.491,1079.94 582.616,1072.21 582.616,1062.6L582.616,956.661ZM697.136,956.661L731.824,956.661L731.824,1062.6C731.824,1072.21 724.09,1079.94 714.48,1079.94C704.87,1079.94 697.136,1072.21 697.136,1062.6L697.136,956.661ZM811.516,956.661L846.204,956.661L846.204,1062.6C846.204,1072.21 838.47,1079.94 828.86,1079.94C819.25,1079.94 811.516,1072.21 811.516,1062.6L811.516,956.661ZM137.356,353.981L243.196,353.981L243.196,388.809L137.356,388.809C127.747,388.809 120.012,381.075 120.012,371.465C120.012,361.855 127.746,353.981 137.356,353.981ZM137.356,468.501L243.196,468.501L243.196,503.189L137.356,503.189C127.747,503.189 120.012,495.455 120.012,485.845C120.012,476.282 127.746,468.501 137.356,468.501ZM137.356,582.591L243.196,582.591L243.196,617.419L137.356,617.419C127.747,617.419 120.012,609.544 120.012,599.935C120.012,590.326 127.746,582.591 137.356,582.591ZM137.356,696.971L243.196,696.971L243.196,731.799L137.356,731.799C127.747,731.799 120.012,724.065 120.012,714.455C120.012,704.845 127.746,696.971 137.356,696.971ZM137.356,811.491L243.196,811.491L243.196,846.179L137.356,846.179C127.747,846.179 120.012,838.445 120.012,828.835C120.012,819.272 127.746,811.491 137.356,811.491ZM776.456,559.211C770.315,557.805 765.347,553.211 763.612,547.07C760.846,537.367 756.44,528.086 752.971,521.148C750.299,515.71 750.534,509.242 753.768,504.132L775.143,470.335C762.205,452.991 746.784,437.476 729.815,424.773L695.784,446.148C690.581,449.382 684.112,449.617 678.768,446.945C670.33,442.679 661.518,439.07 652.518,436.07C646.752,434.101 642.346,429.367 641.08,423.461L632.174,384.227C610.799,380.992 589.612,380.992 567.862,384.227L559.19,423.321C557.924,429.321 553.424,434.196 547.612,436.024C538.471,439.024 529.8,442.493 521.128,446.899C515.69,449.571 509.222,449.336 504.112,445.961L470.221,424.68C453.112,437.383 437.83,452.664 424.752,470.242L446.033,504.039C449.408,509.149 449.642,515.617 446.97,521.055C442.564,529.727 439.095,538.399 436.095,547.539C434.267,553.305 429.392,557.711 423.486,559.117L384.252,568.024C382.612,578.571 381.815,589.305 381.815,599.852C381.815,610.586 382.612,621.227 384.252,632.149L423.486,641.055C429.392,642.32 434.127,646.727 436.095,652.493C439.33,662.102 442.939,671.009 446.97,678.977C449.642,684.414 449.408,690.883 446.033,696.086L424.752,729.883C437.69,747.227 452.877,762.414 470.221,775.117L504.112,753.742C509.409,750.367 516.018,750.132 521.596,753.179C529.565,757.445 538.143,761.054 547.612,764.054C553.377,766.023 557.924,770.898 559.19,776.898L567.862,815.664C589.612,818.899 610.659,818.805 632.174,815.664L641.08,776.805C642.345,770.899 646.752,766.071 652.518,764.196C661.987,760.962 670.424,757.352 678.299,753.227C683.736,750.227 690.44,750.462 695.783,753.79L729.908,775.165C747.158,762.321 762.299,747.181 775.142,729.931L753.767,696.134C750.532,690.931 750.298,684.462 752.97,679.025C757.845,669.415 761.314,660.884 763.704,653.009C765.438,647.009 770.313,642.462 776.407,641.103L815.641,632.197C817.282,621.322 818.079,610.681 818.079,599.9C818.079,589.353 817.282,578.619 815.641,568.072L776.456,559.211ZM599.976,733.401C526.382,733.401 466.616,673.495 466.616,599.901C466.616,526.307 526.428,466.541 599.976,466.541C673.664,466.541 733.476,526.353 733.476,599.901C733.429,673.495 673.664,733.401 599.976,733.401ZM698.742,599.951C698.742,654.42 654.445,698.717 599.976,698.717C545.601,698.717 501.304,654.42 501.304,599.951C501.304,545.576 545.601,501.279 599.976,501.279C654.445,501.279 698.742,545.576 698.742,599.951Z" style="fill:rgb(204,204,204);fill-rule:nonzero;stroke:black;stroke-width:10.11px;"/>
    </g>
</svg>
