<?xml version="1.0" encoding="UTF-8" standalone="no"?>
<!DOCTYPE svg PUBLIC "-//W3C//DTD SVG 1.1//EN" "http://www.w3.org/Graphics/SVG/1.1/DTD/svg11.dtd">
<svg width="100%" height="100%" viewBox="0 0 100 100" version="1.1" xmlns="http://www.w3.org/2000/svg" xmlns:xlink="http://www.w3.org/1999/xlink" xml:space="preserve" xmlns:serif="http://www.serif.com/" style="fill-rule:evenodd;clip-rule:evenodd;stroke-linejoin:round;stroke-miterlimit:2;">
    <g transform="matrix(0.125694,0,0,0.125694,-25.4168,-25.4167)">
        <path d="M660.56,717.54C659.384,699.614 650.349,683.118 635.872,672.481C627.516,676.653 618.497,679.333 609.22,680.403C615.849,699.094 614.712,719.665 606.064,737.508C605.294,739.152 604.439,740.758 603.509,742.313C595.814,755.684 584.126,766.305 570.083,772.688C591.021,776.516 612.497,776.336 633.368,772.16C636.13,770.324 638.739,768.274 641.173,766.024C653.622,754.544 660.712,738.387 660.732,721.454C660.775,720.145 660.716,718.836 660.56,717.539L660.56,717.54Z" style="fill:rgb(204,204,204);fill-rule:nonzero;stroke:black;stroke-width:7.96px;"/>
    </g>
    <g transform="matrix(0.125694,0,0,0.125694,-25.4168,-25.4167)">
        <path d="M591.84,735.52C592.586,734.309 593.258,733.055 593.856,731.766C601.641,715.692 601.914,696.996 594.602,680.704C585.383,680.118 576.332,677.946 567.848,674.286C564.266,693.763 552.993,710.981 536.571,722.056C535.055,723.162 533.473,724.173 531.84,725.091C518.469,733.076 502.801,736.325 487.36,734.322C503.848,748.138 522.739,758.802 543.087,765.779C563.403,764.564 581.735,753.189 591.841,735.521L591.84,735.52Z" style="fill:rgb(204,204,204);fill-rule:nonzero;stroke:black;stroke-width:7.96px;"/>
    </g>
    <g transform="matrix(0.125694,0,0,0.125694,-25.4168,-25.4167)">
        <path d="M525.27,713.3C526.528,712.589 527.743,711.8 528.907,710.941C543.653,700.991 553.262,685.05 555.173,667.367C547.423,662.164 540.622,655.668 535.071,648.16C522.216,663.273 503.813,672.562 484.02,673.937C482.207,674.179 480.379,674.273 478.551,674.218C463.125,674.202 448.086,669.386 435.524,660.429C442.903,680.468 453.879,698.988 467.915,715.081C486.145,724.042 507.634,723.374 525.27,713.3L525.27,713.3Z" style="fill:rgb(204,204,204);fill-rule:nonzero;stroke:black;stroke-width:7.96px;"/>
    </g>
    <g transform="matrix(0.125694,0,0,0.125694,-25.4168,-25.4167)">
        <path d="M723.12,481.36C706.948,476.356 689.429,478.294 674.741,486.704C673.483,487.415 672.268,488.204 671.104,489.063C656.358,499.008 646.749,514.95 644.834,532.637C652.588,537.84 659.389,544.336 664.939,551.844C677.794,536.731 696.197,527.438 715.99,526.067C717.803,525.825 719.631,525.731 721.459,525.786C736.885,525.798 751.924,530.618 764.486,539.571C757.103,519.536 746.127,501.012 732.091,484.923C729.197,483.501 726.197,482.31 723.118,481.36L723.12,481.36Z" style="fill:rgb(204,204,204);fill-rule:nonzero;stroke:black;stroke-width:7.96px;"/>
    </g>
    <g transform="matrix(0.125694,0,0,0.125694,-25.4168,-25.4167)">
        <path d="M710.94,671.09C700.991,656.356 685.053,646.75 667.378,644.832C662.159,652.605 655.644,659.422 648.112,664.984C663.241,677.812 672.557,696.203 673.948,715.992C674.186,717.805 674.28,719.633 674.225,721.461C674.214,736.887 669.389,751.93 660.428,764.492C680.467,757.113 698.99,746.133 715.084,732.097C724.026,713.863 723.358,692.386 713.299,674.742C712.584,673.48 711.799,672.261 710.94,671.09L710.94,671.09Z" style="fill:rgb(204,204,204);fill-rule:nonzero;stroke:black;stroke-width:7.96px;"/>
    </g>
    <g transform="matrix(0.125694,0,0,0.125694,-25.4168,-25.4167)">
        <path d="M717.57,539.45C699.64,540.618 683.136,549.649 672.484,564.122C676.66,572.481 679.343,581.505 680.414,590.79C699.102,584.161 719.664,585.294 737.512,593.938C739.172,594.7 740.789,595.56 742.348,596.513C755.703,604.204 766.317,615.888 772.696,629.919C776.524,608.981 776.344,587.501 772.168,566.63C770.332,563.872 768.278,561.262 766.032,558.829C754.552,546.38 738.395,539.29 721.462,539.27C720.161,539.239 718.864,539.297 717.571,539.449L717.57,539.45Z" style="fill:rgb(204,204,204);fill-rule:nonzero;stroke:black;stroke-width:7.96px;"/>
    </g>
    <g transform="matrix(0.125694,0,0,0.125694,-25.4168,-25.4167)">
        <path d="M735.52,608.15C734.309,607.412 733.055,606.744 731.766,606.146C715.688,598.377 697,598.099 680.704,605.396C680.118,614.619 677.946,623.669 674.282,632.154C693.759,635.74 710.973,647.006 722.055,663.424C723.145,664.936 724.153,666.51 725.071,668.135C732.723,681.569 736.02,697.049 734.504,712.436C748.234,695.995 758.832,677.174 765.777,656.913C764.559,636.601 753.179,618.268 735.519,608.151L735.52,608.15Z" style="fill:rgb(204,204,204);fill-rule:nonzero;stroke:black;stroke-width:7.96px;"/>
    </g>
    <g transform="matrix(0.125694,0,0,0.125694,-25.4168,-25.4167)">
        <path d="M482.43,660.55C500.364,659.382 516.868,650.351 527.52,635.878C523.344,627.519 520.661,618.491 519.59,609.21C500.902,615.847 480.336,614.714 462.492,606.062C460.832,605.3 459.215,604.44 457.656,603.487C444.301,595.792 433.687,584.108 427.308,570.077C423.48,591.018 423.656,612.495 427.836,633.37C439.297,650.659 458.738,660.96 479.481,660.729C480.465,660.749 481.453,660.69 482.43,660.55L482.43,660.55Z" style="fill:rgb(204,204,204);fill-rule:nonzero;stroke:black;stroke-width:7.96px;"/>
    </g>
    <g transform="matrix(0.125694,0,0,0.125694,-25.4168,-25.4167)">
        <path d="M539.45,482.46C540.626,500.386 549.661,516.878 564.134,527.519C572.49,523.347 581.513,520.664 590.79,519.597C584.161,500.906 585.294,480.335 593.946,462.488C594.716,460.847 595.567,459.242 596.501,457.687C604.196,444.316 615.884,433.695 629.927,427.312C608.989,423.484 587.513,423.66 566.642,427.84C563.88,429.676 561.271,431.726 558.837,433.976C546.388,445.456 539.298,461.613 539.278,478.546C539.235,479.855 539.294,481.164 539.45,482.46L539.45,482.46Z" style="fill:rgb(204,204,204);fill-rule:nonzero;stroke:black;stroke-width:7.96px;"/>
    </g>
    <g transform="matrix(0.125694,0,0,0.125694,-25.4168,-25.4167)">
        <path d="M608.16,464.48C607.414,465.691 606.738,466.945 606.144,468.238C598.359,484.312 598.086,503.008 605.398,519.3C614.617,519.886 623.668,522.058 632.152,525.718C635.734,506.241 647.007,489.023 663.429,477.948C664.945,476.842 666.527,475.831 668.16,474.913C681.586,467.264 697.051,463.972 712.426,465.487C695.985,451.764 677.168,441.167 656.906,434.221C636.594,435.444 618.269,446.823 608.16,464.479L608.16,464.48Z" style="fill:rgb(204,204,204);fill-rule:nonzero;stroke:black;stroke-width:7.96px;"/>
    </g>
    <g transform="matrix(0.125694,0,0,0.125694,-25.4168,-25.4167)">
        <path d="M653.98,600C653.98,629.812 629.812,653.98 600,653.98C570.191,653.98 546.023,629.812 546.023,600C546.023,570.191 570.191,546.023 600,546.023C629.812,546.023 653.98,570.191 653.98,600Z" style="fill:rgb(204,204,204);fill-rule:nonzero;stroke:black;stroke-width:7.96px;"/>
    </g>
    <g transform="matrix(0.125694,0,0,0.125694,-25.4168,-25.4167)">
        <path d="M489.06,528.92C499.013,543.654 514.947,553.256 532.626,555.174C537.829,547.424 544.325,540.623 551.833,535.069C536.72,522.217 527.423,503.811 526.052,484.018C525.818,482.205 525.724,480.377 525.779,478.549C525.79,463.119 530.614,448.08 539.572,435.522C519.537,442.897 501.013,453.874 484.92,467.909C475.978,486.143 476.646,507.624 486.705,525.268C487.416,526.53 488.205,527.749 489.06,528.92L489.06,528.92Z" style="fill:rgb(204,204,204);fill-rule:nonzero;stroke:black;stroke-width:7.96px;"/>
    </g>
    <g transform="matrix(0.125694,0,0,0.125694,-25.4168,-25.4167)">
        <path d="M464.48,591.85C465.695,592.588 466.949,593.256 468.238,593.854C484.316,601.623 503.004,601.901 519.3,594.604C519.886,585.381 522.058,576.331 525.722,567.846C506.245,564.26 489.027,552.994 477.949,536.576C476.855,535.064 475.847,533.49 474.933,531.865C467.281,518.431 463.984,502.951 465.5,487.564C451.77,504.005 441.172,522.826 434.223,543.087C435.445,563.399 446.821,581.732 464.481,591.849L464.48,591.85Z" style="fill:rgb(204,204,204);fill-rule:nonzero;stroke:black;stroke-width:7.96px;"/>
    </g>
    <g transform="matrix(0.125694,0,0,0.125694,-25.4168,-25.4167)">
        <path d="M340.83,643.29C345.967,648.196 354.107,648.017 359.021,642.884C363.935,637.747 363.759,629.607 358.63,624.689C353.501,619.771 345.36,619.939 340.435,625.06C335.513,630.185 335.674,638.33 340.791,643.255L340.814,643.27L340.83,643.29Z" style="fill:rgb(204,204,204);fill-rule:nonzero;stroke:black;stroke-width:7.96px;"/>
    </g>
    <g transform="matrix(0.125694,0,0,0.125694,-25.4168,-25.4167)">
        <path d="M521.8,327.3C516.663,322.394 508.519,322.573 503.605,327.71C498.695,332.843 498.867,340.983 503.996,345.901C509.125,350.819 517.269,350.651 522.191,345.53C527.113,340.405 526.956,332.264 521.835,327.335L521.812,327.319L521.8,327.3Z" style="fill:rgb(204,204,204);fill-rule:nonzero;stroke:black;stroke-width:7.96px;"/>
    </g>
    <g transform="matrix(0.125694,0,0,0.125694,-25.4168,-25.4167)">
        <path d="M386.85,448.75C381.713,443.844 373.569,444.027 368.659,449.16C363.745,454.293 363.921,462.433 369.046,467.351C374.175,472.269 382.319,472.105 387.241,466.98C392.163,461.855 392.006,453.714 386.885,448.785L386.862,448.769L386.85,448.75Z" style="fill:rgb(204,204,204);fill-rule:nonzero;stroke:black;stroke-width:7.96px;"/>
    </g>
    <g transform="matrix(0.125694,0,0,0.125694,-25.4168,-25.4167)">
        <path d="M643.25,327.3C638.113,322.394 629.969,322.573 625.059,327.71C620.145,332.843 620.321,340.983 625.45,345.901C630.575,350.819 638.72,350.651 643.641,345.53C648.566,340.405 648.406,332.264 643.285,327.335L643.262,327.319L643.25,327.3Z" style="fill:rgb(204,204,204);fill-rule:nonzero;stroke:black;stroke-width:7.96px;"/>
    </g>
    <g transform="matrix(0.125694,0,0,0.125694,-25.4168,-25.4167)">
        <path d="M872.67,516.23C867.533,511.32 859.389,511.503 854.479,516.636C849.565,521.769 849.741,529.913 854.866,534.831C859.995,539.749 868.139,539.581 873.061,534.46C877.983,529.335 877.826,521.19 872.705,516.265L872.682,516.25L872.67,516.23Z" style="fill:rgb(204,204,204);fill-rule:nonzero;stroke:black;stroke-width:7.96px;"/>
    </g>
    <g transform="matrix(0.125694,0,0,0.125694,-25.4168,-25.4167)">
        <path d="M278.89,583.7C273.753,578.794 265.613,578.977 260.699,584.11C255.785,589.243 255.961,597.383 261.09,602.301C266.219,607.219 274.36,607.055 279.285,601.93C284.207,596.805 284.046,588.664 278.929,583.735L278.906,583.719L278.89,583.7Z" style="fill:rgb(204,204,204);fill-rule:nonzero;stroke:black;stroke-width:7.96px;"/>
    </g>
    <g transform="matrix(0.125694,0,0,0.125694,-25.4168,-25.4167)">
        <path d="M822.67,458.3C822.674,452.847 819.393,447.929 814.358,445.835C809.318,443.745 803.517,444.894 799.659,448.745L799.647,448.765L799.623,448.78C795.315,453.105 794.444,459.78 797.502,465.061C800.561,470.347 806.787,472.917 812.682,471.331C818.577,469.749 822.671,464.405 822.671,458.3L822.67,458.3Z" style="fill:rgb(204,204,204);fill-rule:nonzero;stroke:black;stroke-width:7.96px;"/>
    </g>
    <g transform="matrix(0.125694,0,0,0.125694,-25.4168,-25.4167)">
        <path d="M799.66,751.25C804.797,756.16 812.941,755.977 817.855,750.844C822.765,745.711 822.593,737.567 817.464,732.649C812.335,727.735 804.191,727.899 799.269,733.024C794.347,738.145 794.504,746.29 799.625,751.219L799.648,751.234L799.66,751.25Z" style="fill:rgb(204,204,204);fill-rule:nonzero;stroke:black;stroke-width:7.96px;"/>
    </g>
    <g transform="matrix(0.125694,0,0,0.125694,-25.4168,-25.4167)">
        <path d="M907.62,616.3C912.757,621.206 920.897,621.023 925.811,615.89C930.725,610.757 930.549,602.617 925.42,597.699C920.291,592.781 912.15,592.945 907.229,598.07C902.304,603.195 902.464,611.336 907.581,616.265L907.608,616.281L907.62,616.3Z" style="fill:rgb(204,204,204);fill-rule:nonzero;stroke:black;stroke-width:7.96px;"/>
    </g>
    <g transform="matrix(0.125694,0,0,0.125694,-25.4168,-25.4167)">
        <path d="M947.27,451.2L886.313,512.153C888.79,516.266 890.114,520.977 890.137,525.782C890.137,540.688 878.055,552.77 863.149,552.77C848.243,552.77 836.161,540.688 836.161,525.782C836.161,510.876 848.243,498.79 863.149,498.79C867.95,498.817 872.657,500.138 876.77,502.614L941.325,438.063C899.251,349.903 824.835,281.333 733.535,246.593L714.703,265.425L714.703,354.304L795.551,435.14C799.665,432.664 804.368,431.343 809.168,431.32C824.074,431.32 836.16,443.402 836.16,458.308C836.16,473.214 824.074,485.3 809.168,485.3C794.262,485.3 782.18,473.214 782.18,458.308C782.204,453.503 783.528,448.796 786.004,444.679L703.188,361.867C701.923,360.601 701.212,358.886 701.212,357.097L701.212,278.917L656.9,323.226C659.38,327.344 660.701,332.051 660.728,336.855C660.728,351.761 648.642,363.843 633.736,363.843C618.83,363.843 606.748,351.761 606.748,336.855C606.748,321.949 618.83,309.867 633.736,309.867C638.537,309.891 643.244,311.211 647.357,313.688L703.185,257.864L719.443,241.606C692.029,232.438 663.646,226.469 634.861,223.821L535.447,323.227C537.924,327.344 539.248,332.051 539.271,336.856C539.271,351.762 527.189,363.844 512.283,363.844C497.377,363.844 485.295,351.762 485.295,336.856C485.295,321.95 497.377,309.868 512.283,309.868C517.084,309.891 521.787,311.212 525.9,313.688L617.017,222.583C611.369,222.329 605.705,222.149 599.997,222.149C573.087,222.161 546.255,225.048 519.958,230.763L471.798,278.923L471.798,370.595C471.798,372.384 471.087,374.099 469.822,375.364L400.498,444.68C402.974,448.797 404.298,453.504 404.322,458.309C404.322,473.215 392.24,485.301 377.334,485.301C362.428,485.301 350.346,473.215 350.346,458.309C350.346,443.403 362.428,431.321 377.334,431.321C382.135,431.345 386.842,432.665 390.955,435.142L458.303,367.802L458.303,276.13C458.303,274.34 459.014,272.622 460.279,271.356L494.349,237.29C462.736,246.485 432.47,259.79 404.322,276.868L404.322,330.11C404.322,331.899 403.611,333.614 402.346,334.88L323.354,413.872L323.354,546.032C323.354,547.821 322.643,549.536 321.377,550.801L292.537,579.633C295.018,583.75 296.338,588.457 296.365,593.262C296.365,608.168 284.279,620.25 269.373,620.25C254.467,620.25 242.385,608.168 242.385,593.262C242.385,578.356 254.467,566.274 269.373,566.274C274.178,566.298 278.881,567.618 282.994,570.094L309.861,543.239L309.861,411.079C309.857,409.29 310.568,407.572 311.838,406.306L390.83,327.314L390.83,285.521C245.49,382.068 185.21,565.611 245.02,729.531L327.184,647.375C324.703,643.258 323.383,638.551 323.356,633.746C323.356,618.84 335.442,606.758 350.348,606.758C365.254,606.758 377.336,618.84 377.336,633.746C377.336,648.652 365.254,660.738 350.348,660.738C345.547,660.711 340.84,659.39 336.727,656.914L250.415,743.223C261.274,769.594 275.087,794.649 291.591,817.911L338.821,770.684L338.829,770.672L338.84,770.664L367.668,741.84C365.188,737.723 363.867,733.016 363.84,728.211C363.84,713.305 375.926,701.223 390.832,701.223C405.738,701.223 417.82,713.305 417.82,728.211C417.82,743.117 405.738,755.199 390.832,755.199C386.031,755.176 381.324,753.855 377.211,751.379L353.141,775.445L417.696,839.992C421.809,837.515 426.516,836.195 431.317,836.172C446.223,836.172 458.305,848.254 458.305,863.16C458.305,878.066 446.223,890.148 431.317,890.148C416.411,890.148 404.325,878.066 404.325,863.16C404.352,858.355 405.673,853.648 408.153,849.531L343.602,784.984L299.657,828.929C361.106,909.589 452.397,962.169 553.007,974.839L651.066,876.788C648.586,872.67 647.262,867.963 647.238,863.159C647.238,848.253 659.32,836.171 674.226,836.171C689.132,836.171 701.218,848.253 701.218,863.159C701.218,878.065 689.132,890.147 674.226,890.147C669.425,890.123 664.722,888.803 660.609,886.326L570.339,976.588C580.14,977.358 590.011,977.866 600.003,977.866C621.233,977.838 642.425,976.03 663.351,972.452L714.71,921.093L714.71,829.421C714.71,827.631 715.421,825.917 716.687,824.651L786.011,755.335C783.534,751.218 782.21,746.511 782.187,741.706C782.187,726.8 794.269,714.714 809.175,714.714C824.081,714.714 836.167,726.8 836.167,741.706C836.167,756.612 824.081,768.694 809.175,768.694C804.374,768.671 799.667,767.346 795.554,764.874L728.206,832.214L728.206,923.886C728.206,925.675 727.495,927.394 726.229,928.655L687.315,967.573C720.456,959.714 752.37,947.382 782.186,930.917L782.186,869.905C782.186,868.116 782.897,866.401 784.163,865.136L863.155,786.144L863.155,653.984C863.155,652.195 863.865,650.48 865.131,649.214L893.971,620.378C891.491,616.265 890.17,611.558 890.143,606.753C890.143,595.835 896.721,585.995 906.807,581.815C916.889,577.639 928.498,579.948 936.217,587.667C943.936,595.386 946.248,606.995 942.069,617.081C937.893,627.167 928.049,633.741 917.135,633.741C912.334,633.717 907.627,632.397 903.514,629.921L876.651,656.776L876.651,788.936C876.651,790.725 875.94,792.443 874.674,793.705L795.678,872.697L795.678,923.146C956.858,825.669 1021.54,624.306 947.278,451.196L947.27,451.2ZM600,802.43C488.21,802.43 397.58,711.801 397.58,600C397.58,488.21 488.209,397.58 600,397.58C711.8,397.58 802.43,488.209 802.43,600C802.305,711.75 711.75,802.3 600,802.43Z" style="fill:rgb(204,204,204);fill-rule:nonzero;stroke:black;stroke-width:7.96px;"/>
    </g>
    <g transform="matrix(0.125694,0,0,0.125694,-25.4168,-25.4167)">
        <path d="M664.71,872.71C669.851,877.616 677.991,877.433 682.905,872.3C687.815,867.167 687.643,859.027 682.514,854.109C677.385,849.191 669.241,849.355 664.319,854.48C659.397,859.605 659.558,867.746 664.675,872.675L664.698,872.691L664.71,872.71Z" style="fill:rgb(204,204,204);fill-rule:nonzero;stroke:black;stroke-width:7.96px;"/>
    </g>
    <g transform="matrix(0.125694,0,0,0.125694,-25.4168,-25.4167)">
        <path d="M381.32,737.76C386.457,742.666 394.597,742.483 399.511,737.35C404.425,732.217 404.249,724.077 399.12,719.159C393.991,714.241 385.85,714.405 380.929,719.53C376.004,724.655 376.164,732.796 381.281,737.725L381.304,737.741L381.32,737.76Z" style="fill:rgb(204,204,204);fill-rule:nonzero;stroke:black;stroke-width:7.96px;"/>
    </g>
    <g transform="matrix(0.125694,0,0,0.125694,-25.4168,-25.4167)">
        <path d="M444.81,863.15C444.818,857.697 441.537,852.775 436.498,850.685C431.462,848.595 425.662,849.744 421.803,853.595L421.791,853.615L421.763,853.63C417.455,857.955 416.588,864.63 419.646,869.915C422.705,875.197 428.927,877.767 434.822,876.181C440.717,874.599 444.814,869.251 444.811,863.15L444.81,863.15Z" style="fill:rgb(204,204,204);fill-rule:nonzero;stroke:black;stroke-width:7.96px;"/>
    </g>
</svg>
