<?xml version="1.0" encoding="UTF-8" standalone="no"?>
<!DOCTYPE svg PUBLIC "-//W3C//DTD SVG 1.1//EN" "http://www.w3.org/Graphics/SVG/1.1/DTD/svg11.dtd">
<svg width="100%" height="100%" viewBox="0 0 100 100" version="1.1" xmlns="http://www.w3.org/2000/svg" xmlns:xlink="http://www.w3.org/1999/xlink" xml:space="preserve" xmlns:serif="http://www.serif.com/" style="fill-rule:evenodd;clip-rule:evenodd;stroke-linejoin:round;stroke-miterlimit:2;">
    <g transform="matrix(0.0794797,0,0,0.0794797,2.31352,2.31162)">
        <path d="M547.22,832.55L496.126,791.206C488.814,785.3 478.36,785.3 471.095,791.206L410.298,840.425L341.392,795.472L355.97,703.316L600.47,699.894L547.22,832.55ZM499.032,983.63L476.016,838.41L424.032,880.457C417.329,885.895 407.86,886.363 400.641,881.676L334.547,838.504L311.578,983.634L499.032,983.63ZM1169.39,1110.57C1144.17,1149.05 1105.45,1175.4 1060.45,1184.73C1015.4,1194.1 969.374,1185.38 930.932,1160.16C892.448,1134.9 866.057,1096.23 856.682,1051.18C850.823,1023.06 852.041,994.606 859.916,967.793L859.916,967.699C860.104,967.09 860.245,966.48 860.479,965.871L860.479,965.731C865.213,950.309 872.198,935.497 881.291,921.622C897.369,897.106 918.885,877.56 944.057,864.153C944.807,863.778 945.557,863.356 946.307,862.934C959.995,855.903 974.713,850.7 990.182,847.465C1001.99,844.98 1013.85,843.762 1025.62,843.762C1058.81,843.762 1091.29,853.418 1119.65,871.981C1158.18,897.247 1184.53,935.965 1193.9,981.011C1203.37,1026.06 1194.6,1072.04 1169.38,1110.57L1169.39,1110.57ZM1070.49,1085.87C1085.95,1095.99 1106.77,1091.63 1116.94,1076.16C1121.86,1068.66 1123.55,1059.71 1121.72,1050.9C1119.89,1042.13 1114.78,1034.59 1107.24,1029.66C1101.56,1025.96 1095.19,1024.18 1088.91,1024.18C1077.94,1024.18 1067.2,1029.52 1060.78,1039.32C1050.66,1054.79 1055.02,1075.65 1070.49,1085.87L1070.49,1085.87ZM899.016,845.627L818.25,792.705L816.141,791.299L724.125,730.971L664.687,821.627L683.062,816.986C688.452,815.627 694.171,816.564 698.859,819.611C703.499,822.658 706.687,827.533 707.577,833.017L716.952,890.111L773.014,875.955C778.452,874.596 784.17,875.58 788.811,878.627C793.452,881.674 796.64,886.549 797.53,892.033L806.858,949.08L823.077,945.002C823.921,944.815 824.765,944.627 825.609,944.533C825.609,944.486 825.609,944.393 825.655,944.346C831.28,928.877 838.733,913.924 847.967,899.815C861.936,878.534 879.233,860.299 899.014,845.627L899.016,845.627ZM708.516,383.347L708.985,383.816L772.641,451.41C772.688,451.41 772.688,451.457 772.735,451.503L772.922,451.691L773.156,451.972C773.203,452.019 773.25,452.019 773.25,452.066L785.484,465.05L1136.48,173.44C1153.78,159.049 1164.14,138.049 1165.59,114.237C1167.23,87.612 1157.72,61.268 1139.53,41.909C1121.34,22.643 1095.7,11.628 1069.08,11.628L1068.89,11.628C1045.08,11.675 1023.52,20.722 1008.09,37.128L696.704,369.568L696.141,370.177L696.704,370.787L708.516,383.347ZM248.956,263.247C248.956,177.044 319.081,106.927 405.276,106.927C491.479,106.927 561.596,177.052 561.596,263.247L561.596,360.747L656.846,360.747L656.846,263.247C656.846,124.507 543.966,11.617 405.216,11.617C266.426,11.617 153.536,124.497 153.536,263.247L153.536,360.747L248.88,360.747L248.956,263.247ZM348.894,663.507L383.206,663.038L482.253,569.71C469.456,539.148 439.269,518.663 405.331,518.663C359.347,518.663 321.893,556.069 321.893,602.101C321.893,625.492 331.69,647.71 348.893,663.507L348.894,663.507ZM518.864,589.913L442.13,662.194L521.63,661.069L730.32,464.469L693.429,425.328L693.148,425.047C692.492,425.984 691.742,426.875 690.945,427.672L690.195,428.375L518.915,589.815L518.864,589.913ZM790.734,993.553C786.89,993.553 783.093,992.428 779.812,990.272C775.171,987.225 771.984,982.35 771.093,976.866L761.765,919.866L705.703,934.022C700.313,935.381 694.594,934.397 689.906,931.35C685.266,928.303 682.078,923.428 681.187,917.944L671.812,860.85L624.89,872.662C616.922,874.677 608.578,871.584 603.796,864.927C599.062,858.271 598.874,849.318 603.374,842.474L701.765,692.474C707.812,683.287 720.14,680.709 729.327,686.756L808.171,738.459L808.171,497.939L796.546,507.595C792.843,510.689 788.343,512.189 783.843,512.189C778.547,512.189 773.249,510.079 769.359,505.907L757.593,493.438L580.543,660.218L629.715,659.515C636.325,659.515 642.653,662.656 646.403,668.14C650.153,673.625 650.95,680.656 648.466,686.796L574.075,872.276C571.731,878.136 566.716,882.542 560.622,884.135C558.981,884.557 557.294,884.792 555.606,884.792C551.106,884.792 546.653,883.245 543.09,880.339L520.028,861.636L541.966,1000.3C542.857,1006.06 541.216,1011.92 537.419,1016.33C533.623,1020.78 528.091,1023.31 522.278,1023.31L288.228,1023.31C282.416,1023.31 276.884,1020.78 273.134,1016.33C269.338,1011.87 267.697,1006.06 268.588,1000.3L299.9,802.246L299.993,801.777L317.852,688.807C294.93,665.791 282.04,634.713 282.04,601.901C282.04,533.932 337.306,478.661 405.28,478.661C450.374,478.661 491.014,503.177 512.48,541.052L656.9,404.872L656.9,400.372L59.58,400.512C28.033,400.512 2.346,426.153 2.346,457.653L2.346,1044.43C2.346,1075.98 28.034,1101.67 59.58,1101.67L750.94,1101.67C782.534,1101.67 808.174,1075.98 808.174,1044.43L808.174,989.777L795.612,992.918C794.018,993.34 792.378,993.527 790.737,993.527L790.734,993.553ZM918.794,558.273C921.982,558.273 925.169,557.523 928.169,555.929L1007.76,513.367C1017.47,508.164 1021.12,496.117 1015.92,486.414C1010.72,476.711 998.669,473.055 988.966,478.258L909.372,520.82C899.669,526.023 896.013,538.07 901.216,547.773C904.825,554.476 911.716,558.273 918.794,558.273ZM928.169,661.913C918.466,656.71 906.419,660.366 901.216,670.069C896.013,679.772 899.669,691.819 909.372,697.022L988.966,739.584C991.966,741.178 995.154,741.928 998.341,741.928C1005.47,741.928 1012.31,738.131 1015.92,731.428C1021.12,721.725 1017.47,709.678 1007.76,704.475L928.169,661.913ZM1028.95,608.897C1028.95,597.881 1020.04,588.975 1009.03,588.975L918.746,588.975C907.73,588.975 898.824,597.881 898.824,608.897C898.824,619.913 907.73,628.819 918.746,628.819L1009.03,628.819C1020.04,628.772 1028.95,619.866 1028.95,608.897Z" style="fill:rgb(204,204,204);fill-rule:nonzero;stroke:black;stroke-width:12.58px;"/>
    </g>
</svg>
