<?xml version="1.0" encoding="UTF-8" standalone="no"?><!DOCTYPE svg PUBLIC "-//W3C//DTD SVG 1.1//EN" "http://www.w3.org/Graphics/SVG/1.1/DTD/svg11.dtd"><svg width="417px" height="417px" version="1.1" xmlns="http://www.w3.org/2000/svg" xmlns:xlink="http://www.w3.org/1999/xlink" xml:space="preserve" xmlns:serif="http://www.serif.com/" style="fill-rule:evenodd;clip-rule:evenodd;stroke-linejoin:round;stroke-miterlimit:2;"><g transform="matrix(4.16667,0,0,4.16667,0,0)"><g id="Charge"><g transform="matrix(1.12593,0,0,1.13548,-2.77834,-10.7265)"><rect x="14.063" y="60.938" width="3.125" height="15.625" style="fill:rgb(204,204,204);stroke:black;stroke-width:0.98px;"/></g><g transform="matrix(1.12593,0,0,1.13548,-2.77834,-10.7265)"><rect x="14.063" y="48.438" width="3.125" height="9.375" style="fill:rgb(204,204,204);stroke:black;stroke-width:0.98px;"/></g><g transform="matrix(1.12593,0,0,1.13548,-2.77834,-10.7265)"><path d="M4.688,81.25L4.688,93.75C4.688,94.611 5.389,95.313 6.25,95.313L10.938,95.313L10.938,79.688L6.25,79.688C5.389,79.688 4.688,80.389 4.688,81.25Z" style="fill:rgb(204,204,204);fill-rule:nonzero;stroke:black;stroke-width:0.98px;"/></g><g transform="matrix(1.12593,0,0,1.13548,-2.77834,-10.7265)"><path d="M82.813,95.313L87.5,95.313C88.361,95.313 89.063,94.611 89.063,93.75L89.063,81.25C89.063,80.389 88.361,79.688 87.5,79.688L82.813,79.688L82.813,95.313Z" style="fill:rgb(204,204,204);fill-rule:nonzero;stroke:black;stroke-width:0.98px;"/></g><g transform="matrix(1.12593,0,0,1.13548,-2.77834,-10.7265)"><path d="M89.063,75L89.063,62.5C89.063,61.639 88.361,60.938 87.5,60.938L82.813,60.938L82.813,76.563L87.5,76.563C88.361,76.563 89.063,75.861 89.063,75Z" style="fill:rgb(204,204,204);fill-rule:nonzero;stroke:black;stroke-width:0.98px;"/></g><g transform="matrix(1.12593,0,0,1.13548,-2.77834,-10.7265)"><path d="M4.688,62.5L4.688,75C4.688,75.861 5.389,76.563 6.25,76.563L10.938,76.563L10.938,60.938L6.25,60.938C5.389,60.938 4.688,61.639 4.688,62.5Z" style="fill:rgb(204,204,204);fill-rule:nonzero;stroke:black;stroke-width:0.98px;"/></g><g transform="matrix(1.12593,0,0,1.13548,-2.77834,-10.7265)"><rect x="70.313" y="48.438" width="9.375" height="9.375" style="fill:rgb(204,204,204);stroke:black;stroke-width:0.98px;"/></g><g transform="matrix(1.12593,0,0,1.13548,-2.77834,-10.7265)"><path d="M89.063,56.25L89.063,50C89.063,49.139 88.361,48.438 87.5,48.438L82.813,48.438L82.813,57.813L87.5,57.813C88.361,57.813 89.063,57.111 89.063,56.25Z" style="fill:rgb(204,204,204);fill-rule:nonzero;stroke:black;stroke-width:0.98px;"/></g><g transform="matrix(1.12593,0,0,1.13548,-2.77834,-10.7265)"><path d="M4.688,50L4.688,56.25C4.688,57.111 5.389,57.813 6.25,57.813L10.938,57.813L10.938,48.438L6.25,48.438C5.389,48.438 4.688,49.139 4.688,50Z" style="fill:rgb(204,204,204);fill-rule:nonzero;stroke:black;stroke-width:0.98px;"/></g><g transform="matrix(1.12593,0,0,1.13548,-2.77834,-10.7265)"><path d="M73.438,82.813L70.313,82.813L70.313,87.5C70.313,90.084 68.209,92.188 65.625,92.188L21.875,92.188C19.291,92.188 17.188,90.084 17.188,87.5L17.188,79.688L14.063,79.688L14.063,95.313L79.688,95.313L79.688,79.688L76.563,79.688C76.563,81.411 75.161,82.813 73.438,82.813Z" style="fill:rgb(204,204,204);fill-rule:nonzero;stroke:black;stroke-width:0.98px;"/></g><g transform="matrix(1.12593,0,0,1.13548,-2.77834,-10.7265)"><path d="M70.313,73.438L73.438,73.438C75.161,73.438 76.563,74.839 76.563,76.563L79.688,76.563L79.688,60.938L70.313,60.938L70.313,73.438Z" style="fill:rgb(204,204,204);fill-rule:nonzero;stroke:black;stroke-width:0.98px;"/></g></g><g id="Device"><g transform="matrix(1.12593,0,0,1.13548,-2.77834,-10.7265)"><path d="M21.875,89.063L65.625,89.063C66.486,89.063 67.188,88.361 67.188,87.5L67.188,46.875C67.188,46.014 66.486,45.313 65.625,45.313L21.875,45.313C21.014,45.313 20.313,46.014 20.313,46.875L20.313,87.5C20.313,88.361 21.014,89.063 21.875,89.063ZM42.188,84.375L39.063,84.375L39.063,78.125L42.188,78.125L42.188,84.375ZM50,84.375L45.313,84.375L45.313,78.125L50,78.125L50,84.375ZM59.375,84.375C57.648,84.375 56.25,82.977 56.25,81.25C56.25,79.523 57.648,78.125 59.375,78.125C61.102,78.125 62.5,79.523 62.5,81.25C62.5,82.977 61.102,84.375 59.375,84.375ZM37.5,53.125L62.5,53.125L62.5,71.875L37.5,71.875L37.5,53.125ZM32.813,78.125L35.938,78.125L35.938,84.375L32.813,84.375L32.813,78.125ZM28.125,53.125C29.852,53.125 31.25,54.523 31.25,56.25C31.25,57.977 29.852,59.375 28.125,59.375C26.398,59.375 25,57.977 25,56.25C25,54.523 26.398,53.125 28.125,53.125ZM28.125,65.625C29.852,65.625 31.25,67.023 31.25,68.75C31.25,70.477 29.852,71.875 28.125,71.875C26.398,71.875 25,70.477 25,68.75C25,67.023 26.398,65.625 28.125,65.625ZM25,78.125L29.688,78.125L29.688,84.375L25,84.375L25,78.125Z" style="fill:rgb(204,204,204);fill-rule:nonzero;stroke:black;stroke-width:0.98px;"/></g><g transform="matrix(1.12593,0,0,1.13548,-2.77834,-10.7265)"><rect x="70.313" y="76.563" width="3.125" height="3.125" style="fill:rgb(204,204,204);stroke:black;stroke-width:0.98px;"/></g><g transform="matrix(1.12593,0,0,1.13548,-2.77834,0.725237)"><path d="M23.438,28.125C23.438,24.353 26.127,21.197 29.688,20.47L29.688,32.345L32.813,32.345L32.813,20.47C36.373,21.197 39.063,24.352 39.063,28.125L39.063,32.345L42.188,32.345L42.188,28.125C42.188,22.627 38.105,18.075 32.813,17.313L32.813,15.625C32.813,9.594 37.719,4.688 43.75,4.688C49.781,4.688 54.688,9.594 54.688,15.625L54.688,17.313C49.395,18.075 45.313,22.627 45.313,28.125L45.313,32.345L48.438,32.345L48.438,28.125C48.438,24.353 51.127,21.197 54.688,20.47L54.688,32.345L57.813,32.345L57.813,20.47C61.373,21.197 64.063,24.352 64.063,28.125L64.063,32.345L67.188,32.345L67.188,28.125C67.188,22.627 63.105,18.075 57.813,17.313L57.813,15.625C57.813,7.872 51.503,1.563 43.75,1.563C35.997,1.563 29.688,7.872 29.688,15.625L29.688,17.313C24.395,18.075 20.313,22.627 20.313,28.125L20.313,32.345L23.438,32.345L23.438,28.125Z" style="fill:rgb(204,204,204);fill-rule:nonzero;stroke:black;stroke-width:0.98px;"/></g></g></g></svg>