<?xml version="1.0" encoding="UTF-8" standalone="no"?>
<!DOCTYPE svg PUBLIC "-//W3C//DTD SVG 1.1//EN" "http://www.w3.org/Graphics/SVG/1.1/DTD/svg11.dtd">
<svg width="100%" height="100%" viewBox="0 0 100 100" version="1.1" xmlns="http://www.w3.org/2000/svg" xmlns:xlink="http://www.w3.org/1999/xlink" xml:space="preserve" xmlns:serif="http://www.serif.com/" style="fill-rule:evenodd;clip-rule:evenodd;stroke-linejoin:round;stroke-miterlimit:2;">
    <g transform="matrix(0.979381,0,0,0.979381,1.03092,1.03093)">
        <path d="M74.193,69.821L74.193,37.545L59.212,59.682L74.193,69.821Z" style="fill:rgb(204,204,204);stroke:black;stroke-width:1.02px;"/>
    </g>
    <g transform="matrix(0.979381,0,0,0.979381,1.03092,1.03093)">
        <path d="M55.567,65.065L74.095,77.604C73.954,78.125 73.682,78.593 73.308,78.963C72.759,79.512 72.005,79.849 71.176,79.849L45.559,79.849L55.563,65.065L55.567,65.065Z" style="fill:rgb(204,204,204);stroke:black;stroke-width:1.02px;"/>
    </g>
    <g transform="matrix(0.979381,0,0,0.979381,1.03092,0.051544)">
        <path d="M66.982,5.831C69.039,7.889 70.314,10.733 70.314,13.872C70.314,19.439 61.504,35.081 58.941,39.513C56.378,35.08 47.568,19.439 47.568,13.872C47.568,10.733 48.842,7.889 50.899,5.831C52.956,3.774 55.801,2.5 58.94,2.5C62.08,2.5 64.925,3.774 66.982,5.831ZM58.941,6.305C57.015,6.305 55.267,7.087 54.002,8.352C52.737,9.613 51.955,11.361 51.955,13.291C51.955,15.217 52.737,16.965 54.002,18.23C55.263,19.495 57.011,20.278 58.941,20.278C60.867,20.278 62.615,19.495 63.88,18.23C65.145,16.97 65.928,15.222 65.928,13.291C65.928,11.365 65.145,9.618 63.88,8.352C62.62,7.087 60.872,6.305 58.941,6.305Z" style="fill:rgb(204,204,204);stroke:black;stroke-width:1.02px;"/>
    </g>
    <g transform="matrix(0.979381,0,0,0.979381,1.03092,1.03093)">
        <path d="M52.019,30.137C55.056,36.121 58.12,41.299 58.242,41.505C58.308,41.622 58.406,41.725 58.533,41.8C58.917,42.025 59.409,41.898 59.634,41.519C59.653,41.491 62.773,36.233 65.861,30.137L70.35,30.137L58.716,47.329L32.386,30.137L52.019,30.137Z" style="fill:rgb(204,204,204);stroke:black;stroke-width:1.02px;"/>
    </g>
    <g transform="matrix(0.979381,0,0,0.979381,1.03092,1.03093)">
        <path d="M48.697,62.131L54.039,54.24L25.812,35.136L25.812,66.077L48.702,62.132L48.697,62.131Z" style="fill:rgb(204,204,204);stroke:black;stroke-width:1.02px;"/>
    </g>
    <g transform="matrix(0.979381,0,0,0.979381,0.0515426,2.01031)">
        <path d="M41.509,97.5L44.124,76.249L26.838,88.877L36.664,88.029C36.997,88.001 37.325,88.183 37.465,88.502L41.505,97.499L41.509,97.5Z" style="fill:rgb(204,204,204);stroke:black;stroke-width:1.02px;"/>
    </g>
    <g transform="matrix(0.979381,0,0,0.979381,1.03092,1.03093)">
        <path d="M36.472,79.848L28.825,79.848C27.995,79.848 27.241,79.511 26.693,78.963C26.144,78.414 25.807,77.66 25.807,76.83L25.807,72.454L43.683,69.535L36.93,79.511L36.472,79.848Z" style="fill:rgb(204,204,204);stroke:black;stroke-width:1.02px;"/>
    </g>
</svg>
