<svg xmlns="http://www.w3.org/2000/svg" xml:space="preserve" width="512" height="512" fill-rule="evenodd" stroke-linejoin="round" stroke-miterlimit="2" clip-rule="evenodd" viewBox="0 0 512 512">
  <path fill="#ccc" stroke="#000" stroke-width="1.203" d="M17.267 74.821h3.837v19.185h-3.837zm0-15.348h3.837v11.511h-3.837z" transform="matrix(4.69138 0 0 4.73117 -11.575 -44.692)"/>
  <path fill="#ccc" fill-rule="nonzero" stroke="#000" stroke-width="1.203" d="M5.756 99.76v15.348c0 1.057.861 1.919 1.918 1.919h5.756V97.842H7.674a1.92 1.92 0 0 0-1.918 1.918Zm95.923 17.267h5.755a1.923 1.923 0 0 0 1.919-1.919V99.76a1.92 1.92 0 0 0-1.919-1.918h-5.755zm7.674-24.941V76.739a1.92 1.92 0 0 0-1.919-1.918h-5.755v19.185h5.755a1.923 1.923 0 0 0 1.919-1.919ZM5.756 76.739v15.347c0 1.057.861 1.919 1.918 1.919h5.756V74.821H7.674a1.92 1.92 0 0 0-1.918 1.918Z" transform="matrix(4.69138 0 0 4.73117 -11.575 -44.692)"/>
  <path fill="#ccc" stroke="#000" stroke-width="1.203" d="M86.332 59.473h11.511v11.511H86.332z" transform="matrix(4.69138 0 0 4.73117 -11.575 -44.692)"/>
  <path fill="#ccc" fill-rule="nonzero" stroke="#000" stroke-width="1.203" d="M109.353 69.065v-7.674a1.92 1.92 0 0 0-1.919-1.918h-5.755v11.511h5.755a1.923 1.923 0 0 0 1.919-1.919ZM5.756 61.391v7.674c0 1.057.861 1.919 1.918 1.919h5.756V59.473H7.674a1.92 1.92 0 0 0-1.918 1.918Zm84.412 40.288h-3.837v5.755a5.765 5.765 0 0 1-5.756 5.756H26.858a5.763 5.763 0 0 1-5.755-5.756v-9.592h-3.837v19.185h80.576V97.842h-3.837a3.843 3.843 0 0 1-3.837 3.837Zm-3.837-11.511h3.837a3.843 3.843 0 0 1 3.837 3.837h3.837V74.821H86.331z" transform="matrix(4.69138 0 0 4.73117 -11.575 -44.692)"/>
  <path fill="#ccc" fill-rule="nonzero" stroke="#000" stroke-width="1.203" d="M26.859 109.353h53.717a1.923 1.923 0 0 0 1.919-1.919v-49.88a1.92 1.92 0 0 0-1.919-1.918H26.859a1.92 1.92 0 0 0-1.918 1.918v49.88c0 1.057.861 1.919 1.918 1.919Zm24.941-5.756h-3.837v-7.674H51.8zm9.592 0h-5.755v-7.674h5.754zm11.511 0a3.836 3.836 0 0 1-3.837-3.837 3.836 3.836 0 0 1 3.837-3.837 3.836 3.836 0 0 1 3.836 3.837 3.836 3.836 0 0 1-3.837 3.837Zm-26.86-38.369h30.695V88.25H46.043zm-5.755 30.695h3.837v7.674h-3.837zm-5.756-30.695a3.836 3.836 0 0 1 3.837 3.837 3.836 3.836 0 0 1-3.837 3.837 3.836 3.836 0 0 1-3.837-3.837 3.836 3.836 0 0 1 3.837-3.837Zm0 15.348a3.836 3.836 0 0 1 3.837 3.837 3.836 3.836 0 0 1-3.837 3.837 3.836 3.836 0 0 1-3.837-3.838 3.836 3.836 0 0 1 3.837-3.837Zm-3.837 15.347h5.756v7.674h-5.756z" transform="matrix(4.69138 0 0 4.73117 -11.575 -44.692)"/>
  <path fill="#ccc" stroke="#000" stroke-width="1.203" d="M86.332 94.005h3.837v3.837h-3.837z" transform="matrix(4.69138 0 0 4.73117 -11.575 -44.692)"/>
  <path fill="#ccc" fill-rule="nonzero" stroke="#000" stroke-width="1.203" d="M28.778 34.532c0-4.631 3.302-8.506 7.674-9.399v14.58h3.837v-14.58c4.371.893 7.674 4.766 7.674 9.399v5.181H51.8v-5.181c0-6.751-5.013-12.34-11.511-13.275v-2.073c0-7.405 6.024-13.429 13.429-13.429s13.43 6.024 13.43 13.429v2.073c-6.499.936-11.511 6.525-11.511 13.275v5.181h3.837v-5.181c0-4.631 3.302-8.506 7.674-9.399v14.58h3.837v-14.58c4.371.893 7.674 4.766 7.674 9.399v5.181h3.837v-5.181c0-6.751-5.013-12.34-11.511-13.275v-2.073c0-9.519-7.748-17.266-17.267-17.266S36.451 9.665 36.451 19.185v2.073c-6.499.936-11.511 6.525-11.511 13.275v5.181h3.837z" transform="matrix(4.69138 0 0 4.73117 -11.575 3.02)"/>
</svg>
