<?xml version="1.0" encoding="UTF-8" standalone="no"?><!DOCTYPE svg PUBLIC "-//W3C//DTD SVG 1.1//EN" "http://www.w3.org/Graphics/SVG/1.1/DTD/svg11.dtd"><svg width="100%" height="100%" viewBox="0 0 417 417" version="1.1" xmlns="http://www.w3.org/2000/svg" xmlns:xlink="http://www.w3.org/1999/xlink" xml:space="preserve" xmlns:serif="http://www.serif.com/" style="fill-rule:evenodd;clip-rule:evenodd;stroke-linejoin:round;stroke-miterlimit:2;"><g><path d="M166.914,36.764C164.347,34.636 162.399,31.947 161.211,28.954L145.975,37.916C144.765,38.626 143.311,38.559 142.197,37.857C137.187,34.865 130.259,32.139 124.615,30.594C123.257,30.21 122.291,29.124 122.025,27.838L117.495,10.417L91.318,10.417L86.743,28.001C86.403,29.316 85.4,30.261 84.175,30.601L84.183,30.609C77.97,32.308 72.053,34.746 66.483,37.931C65.309,38.603 63.922,38.544 62.831,37.909L47.188,28.717L28.684,47.247L37.864,62.911C38.571,64.122 38.505,65.578 37.804,66.693C34.816,71.71 32.093,78.647 30.551,84.299C30.167,85.658 29.083,86.627 27.798,86.892L10.408,91.422L10.409,117.634L27.969,122.215C29.281,122.556 30.225,123.561 30.565,124.787L30.573,124.779C32.269,131.001 34.704,136.926 37.885,142.503C38.555,143.679 38.497,145.068 37.861,146.162L28.683,161.825L35.353,168.504L59.51,144.314C38.585,120.671 39.537,84.61 62.019,62.098C84.523,39.563 120.552,38.668 144.123,59.585L166.921,36.771L166.914,36.764Z" style="fill:#ccc;stroke:#000;stroke-width:4.16px;"/><path d="M100.93,83.211L144.33,126.492C146.644,128.799 144.069,134.81 146.12,140.733C148.23,146.848 153.911,146.886 160.347,147.169L153.22,140.061C152.303,139.147 151.977,137.878 152.227,136.713L153.735,127.171C153.993,125.555 155.292,124.345 156.836,124.129L166.506,122.596C167.703,122.403 168.864,122.823 169.662,123.619L176.789,130.727C176.504,124.308 176.446,118.627 170.319,116.528C164.422,114.511 158.376,117.053 156.069,114.752L156.054,114.767L112.655,71.486C110.34,69.178 112.915,63.168 110.864,57.244C108.747,51.122 103.073,51.092 96.637,50.808L103.38,57.533C104.297,58.447 104.623,59.716 104.372,60.882L102.864,70.423C102.607,72.039 101.307,73.25 99.763,73.465L90.093,74.999C88.896,75.191 87.736,74.772 86.938,73.975L80.195,67.251C80.48,73.67 80.538,79.351 86.665,81.45C92.562,83.467 98.608,80.925 100.915,83.225L100.93,83.211Z" style="fill:#ccc;stroke:#000;stroke-width:4.16px;"/><path d="M103,116.124L83.995,135.13C82.253,136.872 79.164,135.694 79.162,133.141C79.161,131.754 79.988,131.133 80.889,130.233L98.993,112.128C100.735,110.386 103.824,111.564 103.826,114.117C103.819,114.848 103.547,115.578 103,116.125L103,116.124Z" style="fill:#ccc;stroke:#000;stroke-width:4.16px;"/><path d="M89.305,109.421L67.244,87.426C65.588,85.774 63.4,84.95 61.221,84.958C53.567,84.964 49.938,94.204 55.209,99.461L77.278,121.449L89.305,109.421Z" style="fill:#ccc;stroke:#000;stroke-width:4.16px;"/><path d="M97.279,134.225L101.842,129.662L126.447,154.195C126.987,154.733 127.689,155.109 128.509,155.219L136.549,156.364L143.044,169.272L137.02,175.297L124.086,168.828L122.942,160.948C122.86,160.144 122.505,159.362 121.892,158.75L97.279,134.225Z" style="fill:#ccc;stroke:#000;stroke-width:4.16px;"/><path d="M108.824,266.349L286.45,265.953C286.482,265.953 286.514,265.952 286.545,265.957C289.407,266.002 292.318,265.999 295.197,265.938C303.909,265.752 324.072,262.12 324.072,262.12L387.179,247.066C387.179,247.066 400.084,243.202 406.25,240.97C400.206,238.765 387.568,235.065 387.568,235.065L325.929,220.225C325.929,220.225 305.572,216.692 296.666,216.545C293.791,216.496 290.879,216.504 288.014,216.564C287.982,216.564 287.95,216.565 287.918,216.565L110.292,216.961C94.042,217.399 78.24,221.747 64.594,229.534C58.147,233.209 51.444,238.722 47.917,241.772C51.283,244.843 57.688,250.369 63.864,253.987C77.052,261.712 92.598,265.988 108.824,266.349Z" style="fill:#ccc;fill-rule:nonzero;stroke:#000;stroke-width:3.98px;"/><path d="M271.125,406.201L275.057,274.094L192.135,274.282L249.974,406.25L271.125,406.201Z" style="fill:#ccc;fill-rule:nonzero;stroke:#000;stroke-width:3.98px;"/><path d="M326.866,268.881L388.5,253.7L386.672,315.212C386.634,316.498 386.082,317.731 385.135,318.641C384.19,319.553 382.931,320.068 381.632,320.071L352.461,320.133C350.552,320.137 348.853,319.048 348.1,317.336L326.866,268.881Z" style="fill:#ccc;stroke:#000;stroke-width:3.98px;"/><path d="M277.469,208.426L281.398,76.321L260.249,76.367L194.548,208.616L277.469,208.426Z" style="fill:#ccc;fill-rule:nonzero;stroke:#000;stroke-width:3.98px;"/><path d="M389.754,163.566C390.61,164.44 391.126,165.649 391.084,166.988L389.26,228.34L328.578,213.463L352.636,165.036C353.492,163.321 355.256,162.219 357.165,162.215L386.336,162.148C387.683,162.146 388.894,162.686 389.752,163.563L389.754,163.566Z" style="fill:#ccc;fill-rule:nonzero;stroke:#000;stroke-width:3.98px;"/><path d="M207.034,324.331L226.191,368.62L185.484,368.71C184.185,368.713 182.956,368.206 182.066,367.297C181.173,366.391 180.696,365.159 180.733,363.877L181.774,328.866C181.853,326.188 184.112,324.012 186.814,324.007L207.034,324.331Z" style="fill:#ccc;stroke:#000;stroke-width:3.98px;"/><path d="M233.807,114.02L212.241,158.326L191.73,158.815C189.03,158.823 186.901,156.655 186.982,153.98L188.023,118.969C188.101,116.296 190.36,114.12 193.06,114.112L233.807,114.02Z" style="fill:#ccc;stroke:#000;stroke-width:3.98px;"/></g></svg>