<?xml version="1.0" encoding="UTF-8" standalone="no"?>
<!DOCTYPE svg PUBLIC "-//W3C//DTD SVG 1.1//EN" "http://www.w3.org/Graphics/SVG/1.1/DTD/svg11.dtd">
<svg width="100%" height="100%" viewBox="0 0 100 100" version="1.1" xmlns="http://www.w3.org/2000/svg" xmlns:xlink="http://www.w3.org/1999/xlink" xml:space="preserve" xmlns:serif="http://www.serif.com/" style="fill-rule:evenodd;clip-rule:evenodd;stroke-linejoin:round;stroke-miterlimit:2;">
    <g transform="matrix(0.0815132,0,0,0.0816401,1.01686,1.01554)">
        <path d="M1078.2,620C1085.47,640 1105.47,654.547 1127.29,654.547C1156.38,654.547 1180.02,630.91 1180.02,601.82C1180.02,572.73 1156.38,549.093 1127.29,549.093C1103.65,549.093 1085.47,563.64 1078.2,583.64L963.65,583.636L963.65,501.82L992.74,456.367L1027.29,456.367C1034.56,476.367 1054.56,490.914 1076.38,490.914C1105.47,490.914 1129.1,467.277 1129.1,438.187C1129.1,409.097 1105.47,385.46 1076.38,385.46C1052.74,385.46 1034.56,400.007 1027.29,420.007L981.834,420.007C976.381,420.007 969.107,423.644 967.287,429.097L963.65,434.546L963.65,336.362L1043.65,336.362C1047.29,336.362 1050.92,334.546 1054.56,332.725L1101.83,299.998C1110.92,305.451 1120.02,309.088 1130.92,309.088C1160.01,309.088 1183.65,285.451 1183.65,256.361C1183.65,227.271 1160.01,203.634 1130.92,203.634C1101.83,203.634 1078.2,227.271 1078.2,256.361C1078.2,261.814 1080.01,267.271 1080.01,272.724L1036.38,299.997L963.649,299.997L963.649,194.547L236.379,194.547L236.379,299.997L163.652,299.997L121.832,272.724C123.648,267.271 123.648,261.814 123.648,256.361C123.648,227.271 100.011,203.634 70.921,203.634C41.831,203.634 18.198,227.271 18.198,256.361C18.198,285.451 41.831,309.088 70.925,309.088C81.835,309.088 90.925,305.451 100.015,299.998L147.288,332.725C150.925,334.542 154.561,336.362 158.198,336.362L236.378,336.362L236.378,436.362L230.925,429.089C227.288,423.636 221.835,419.999 216.378,419.999L170.925,419.999C163.652,399.999 143.652,385.452 121.835,385.452C92.745,385.452 69.108,409.089 69.108,438.179C69.108,467.269 92.745,490.906 121.835,490.906C145.472,490.906 163.651,476.359 170.925,456.359L205.472,456.359L234.562,501.812L234.562,583.628L121.832,583.636C114.559,563.636 94.559,549.089 72.742,549.089C43.652,549.089 20.015,572.726 20.015,601.816C18.199,630.91 41.831,654.546 70.925,654.546C94.562,654.546 112.741,639.999 120.015,619.999L236.375,619.999L236.375,698.183L207.285,743.636L170.922,743.636C163.649,723.636 143.649,709.089 121.828,709.089C92.738,709.089 69.101,732.726 69.101,761.816C69.101,790.906 92.738,814.543 121.828,814.543C145.465,814.543 163.644,799.996 170.918,779.996L216.371,779.996C221.824,779.996 229.098,776.359 230.918,770.906L236.371,763.633L236.371,861.817L158.195,861.817C154.558,861.817 150.922,863.633 147.285,865.453L100.012,898.18C90.922,892.727 81.828,890.911 70.922,890.911C41.828,890.911 18.195,914.548 18.195,943.638C18.195,972.728 41.832,996.365 70.922,996.365C100.012,996.365 123.649,972.728 123.649,943.638C123.649,938.185 121.833,932.728 121.833,927.275L163.649,900.002L236.376,900.002L236.376,1005.45L963.646,1005.45L963.646,900.002L1036.37,900.002L1078.19,927.275C1076.37,932.728 1076.37,938.185 1076.37,943.638C1076.37,972.728 1100.01,996.365 1129.1,996.365C1158.19,996.365 1181.83,972.728 1181.83,943.638C1181.83,914.548 1158.19,890.911 1129.1,890.911C1118.19,890.911 1109.1,894.547 1100.01,900.001L1052.74,867.274C1049.1,865.457 1045.46,863.637 1041.83,863.637L963.646,863.637L963.646,765.453L969.099,772.726C972.736,778.179 978.189,781.816 983.646,781.816L1029.1,781.816C1036.37,801.816 1056.37,816.363 1078.19,816.363C1107.28,816.363 1130.92,792.726 1130.92,763.636C1130.92,734.546 1107.28,710.909 1078.19,710.909C1054.55,710.909 1036.37,725.456 1029.1,745.456L994.552,745.456L963.646,698.183L963.646,619.999L1078.2,620ZM1129.11,585.453C1138.2,585.453 1145.47,592.726 1145.47,601.816C1145.47,610.906 1138.2,618.179 1129.11,618.179C1120.02,618.179 1112.74,610.906 1112.74,601.816C1110.93,592.726 1120.02,585.453 1129.11,585.453ZM1078.2,420.003C1087.29,420.003 1094.56,427.276 1094.56,436.366C1094.56,445.456 1087.29,452.729 1078.2,452.729C1069.11,452.729 1061.84,445.456 1061.84,436.366C1061.83,429.093 1069.11,420.003 1078.2,420.003ZM1129.11,240.003C1138.2,240.003 1145.47,247.276 1145.47,256.366C1145.47,265.456 1138.2,272.729 1129.11,272.729C1120.02,272.729 1112.74,265.456 1112.74,256.366C1110.93,247.276 1120.02,240.003 1129.11,240.003ZM70.906,272.73C61.812,272.73 54.543,265.457 54.543,256.367C54.543,247.277 61.816,240.004 70.906,240.004C79.996,240.004 87.269,247.277 87.269,256.367C89.085,265.457 79.996,272.73 70.906,272.73ZM121.812,454.55C112.722,454.55 105.449,447.277 105.449,438.187C105.449,429.097 112.722,421.824 121.812,421.824C130.902,421.824 138.175,429.097 138.175,438.187C138.179,447.277 130.905,454.55 121.812,454.55ZM70.906,618.19C61.812,618.19 54.543,610.917 54.543,601.823C54.543,592.733 61.816,585.46 70.906,585.46C79.996,585.46 87.269,592.733 87.269,601.823C89.085,610.917 79.996,618.19 70.906,618.19ZM121.812,780.01C112.722,780.01 105.449,772.737 105.449,763.647C105.449,754.557 112.722,747.284 121.812,747.284C130.902,747.284 138.175,754.557 138.175,763.647C138.179,772.737 130.905,780.01 121.812,780.01ZM70.906,960.01C61.816,960.01 54.543,952.737 54.543,943.647C54.543,934.557 61.812,927.284 70.906,927.284C79.996,927.284 87.269,934.557 87.269,943.647C89.085,952.737 79.996,960.01 70.906,960.01ZM1129.11,927.283C1138.2,927.283 1145.47,934.556 1145.47,943.646C1145.47,952.736 1138.2,960.009 1129.11,960.009C1120.02,960.009 1112.74,952.736 1112.74,943.646C1110.93,934.556 1120.02,927.283 1129.11,927.283ZM1078.2,745.463C1087.29,745.463 1094.56,752.736 1094.56,761.826C1094.56,770.916 1087.29,778.189 1078.2,778.189C1069.11,778.189 1061.84,770.916 1061.84,761.826C1061.83,752.736 1069.11,745.463 1078.2,745.463ZM605.47,943.643C605.47,954.553 598.197,961.827 587.286,961.827C576.376,961.827 569.102,954.554 569.102,943.643L569.102,910.916C569.102,900.006 576.375,892.732 587.286,892.732C598.196,892.732 605.47,900.005 605.47,910.916L605.47,943.643ZM605.47,838.193C605.47,847.283 598.197,856.377 587.286,856.377C576.376,856.377 569.102,847.287 569.102,838.193L569.102,801.83C569.102,790.92 576.375,783.646 587.286,783.646C598.196,783.646 605.47,790.919 605.47,801.83L605.47,838.193ZM605.47,729.103C605.47,738.193 598.197,747.287 587.286,747.287C576.376,747.287 569.102,738.197 569.102,729.103L569.102,692.74C569.102,681.83 576.375,674.556 587.286,674.556C598.196,674.556 605.47,681.829 605.47,692.74L605.47,729.103ZM605.47,620.013C605.47,629.103 598.197,638.197 587.286,638.197C576.376,638.197 569.102,629.107 569.102,620.013L569.102,583.65C569.102,572.74 576.375,565.466 587.286,565.466C598.196,565.466 605.47,572.739 605.47,583.65L605.47,620.013ZM605.47,510.923C605.47,521.833 598.197,529.107 587.286,529.107C576.376,529.107 569.102,521.834 569.102,510.923L569.102,474.56C569.102,463.65 576.375,456.376 587.286,456.376C598.196,456.376 605.47,463.649 605.47,474.56L605.47,510.923ZM605.47,401.833C605.47,412.743 598.197,420.017 587.286,420.017C576.376,420.017 569.102,412.744 569.102,401.833L569.102,365.47C569.102,354.56 576.375,347.286 587.286,347.286C598.196,347.286 605.47,354.559 605.47,365.47L605.47,401.833ZM605.47,292.743C605.47,303.653 598.197,310.927 587.286,310.927C576.376,310.927 569.102,303.654 569.102,292.743L569.102,256.38C569.102,245.47 576.375,238.196 587.286,238.196C598.196,238.196 605.47,245.469 605.47,256.38L605.47,292.743Z" style="fill:rgb(204,204,204);fill-rule:nonzero;stroke:black;stroke-width:12.26px;"/>
    </g>
    <g transform="matrix(0.0815132,0,0,0.0816401,1.01686,1.01554)">
        <path d="M236.36,1109.1C236.36,1149.1 269.087,1181.83 309.087,1181.83L890.907,1181.83C930.907,1181.83 963.634,1149.1 963.634,1109.1L963.634,1040.01L236.364,1040.01L236.36,1109.1ZM540,1092.74L658.18,1092.74C669.09,1092.74 676.364,1100.01 676.364,1110.92C676.364,1121.83 669.091,1129.11 658.18,1129.11L540,1129.11C529.09,1129.11 521.816,1121.83 521.816,1110.92C521.816,1101.83 530.91,1092.74 540,1092.74Z" style="fill:rgb(204,204,204);fill-rule:nonzero;stroke:black;stroke-width:12.26px;"/>
    </g>
    <g transform="matrix(0.0815132,0,0,0.0816401,1.01686,1.01554)">
        <path d="M963.64,90.91C963.64,50.91 930.913,18.183 890.913,18.183L309.093,18.183C269.093,18.183 236.366,50.91 236.366,90.91L236.366,160L963.636,160L963.64,90.91ZM481.82,107.273L470.91,107.273C460,107.273 452.726,100 452.726,89.089C452.726,78.178 459.999,70.905 470.91,70.905L481.82,70.905C490.91,70.905 500.004,78.178 500.004,89.089C500.004,98.183 490.914,107.273 481.82,107.273ZM729.09,107.273L561.82,107.273C552.73,107.273 543.636,100 543.636,89.089C543.636,78.178 552.726,70.905 561.82,70.905L729.09,70.905C738.18,70.905 747.274,78.178 747.274,89.089C747.274,98.183 740.001,107.273 729.09,107.273Z" style="fill:rgb(204,204,204);fill-rule:nonzero;stroke:black;stroke-width:12.26px;"/>
    </g>
</svg>
