<?xml version="1.0" encoding="UTF-8" standalone="no"?>
<!DOCTYPE svg PUBLIC "-//W3C//DTD SVG 1.1//EN" "http://www.w3.org/Graphics/SVG/1.1/DTD/svg11.dtd">
<svg width="100%" height="100%" viewBox="0 0 100 100" version="1.1" xmlns="http://www.w3.org/2000/svg" xmlns:xlink="http://www.w3.org/1999/xlink" xml:space="preserve" xmlns:serif="http://www.serif.com/" style="fill-rule:evenodd;clip-rule:evenodd;stroke-linejoin:round;stroke-miterlimit:2;">
    <g transform="matrix(1.50819,0,0,1.50819,-1.27047,-25.4095)">
        <g transform="matrix(0.0901046,0,0,0.0901046,1.83625,-8.37952)">
            <path d="M440.93,531.66C453.235,546.836 450.907,569.109 435.731,581.414C420.555,593.719 398.282,591.387 385.977,576.215C373.676,561.039 376,538.762 391.176,526.461C406.352,514.156 428.625,516.484 440.93,531.66Z" style="fill:rgb(204,204,204);fill-rule:nonzero;stroke:black;stroke-width:7.36px;"/>
        </g>
        <g transform="matrix(0.0901046,0,0,0.0901046,2.49929,-7.71648)">
            <path d="M699.07,486.46L687.015,473.679C680.824,477.781 674.73,482.019 668.703,486.343L624.555,439.538L640.571,424.433L628.704,411.851L584.477,453.566L581.958,450.898L569.376,462.765L624.548,521.253C605.318,537.999 587.169,555.96 570.22,575.042C568.532,574.847 566.778,574.979 565.048,575.515C537.501,584.046 503.36,589.538 476.349,592.769C462.833,594.394 451.076,595.472 442.72,596.14C438.544,596.472 435.22,596.706 432.95,596.855C432.817,596.862 432.7,596.87 432.571,596.878C431.817,596.765 431.044,596.71 430.251,596.737L370.224,598.761C370.095,598.761 369.986,598.765 369.845,598.765C363.118,598.823 345.372,597.616 330.232,589.226C322.611,585.042 315.607,579.257 310.091,570.847C304.595,562.413 300.427,551.171 299.329,535.316C298.974,530.066 295.438,525.788 290.731,524.23C289.977,518.222 289.231,512.21 288.442,506.21C286.989,495.187 285.876,483.292 281.821,472.839C278.864,465.225 271.571,457.519 265.059,462.062C259.836,465.706 257.415,474.007 255.25,479.605C244.863,506.437 236.812,534.125 226.418,560.972C212.52,596.882 195.891,632.148 173.113,663.352C155.359,687.672 133.367,709.293 106.207,722.809C76.113,737.782 41.953,738.36 9.715,730.887C6.344,730.106 -4.523,742.707 2.114,744.242C43.524,753.843 86.567,749.285 123.514,727.644C157.002,708.027 182.174,676.949 201.756,643.984C220.807,611.922 235.057,577.261 247.541,542.194C255.06,521.077 260.416,497.866 270.432,477.635C271.494,480.791 272.151,484.541 272.721,487.256C275.416,500.154 277.217,513.299 278.78,526.475C275.768,528.967 273.948,532.819 274.237,537.018C275.541,556.502 280.979,572.33 289.038,584.62C301.143,603.136 318.565,613.042 333.909,618.128C342.264,620.901 350.1,622.358 356.624,623.12C356.624,623.12 375.74,728.912 375.737,733.175C375.702,741.507 373.831,754.405 364.053,771.523C354.26,788.601 336.287,809.957 303.553,833.675C294.764,840.046 292.799,852.335 299.167,861.124C303.01,866.429 309.014,869.249 315.105,869.249C319.101,869.249 323.136,868.034 326.621,865.511C362.859,839.253 385.039,813.945 398.152,791.081C410.949,768.843 414.871,748.995 415.031,734.343L423.027,734.339C423.269,734.401 423.523,734.468 423.812,734.546C429.8,736.202 444.148,741.487 456.89,756.284C469.57,771.132 481.992,796.011 482.113,841.628C482.113,843.714 482.086,845.855 482.031,848.054C481.757,858.906 490.336,867.921 501.191,868.195C501.359,868.199 501.523,868.203 501.691,868.203C512.32,868.203 521.066,859.718 521.332,849.035C521.391,846.535 521.426,844.066 521.426,841.628C521.43,810.413 516.191,785.245 507.778,765.163C495.212,734.972 475.372,716.901 458.731,707.171C454.363,704.597 450.235,702.57 446.469,700.957L443.781,621.289C452.457,620.605 464.91,619.48 479.355,617.746C498.679,615.414 521.503,612.027 543.718,607.074C540.081,611.796 536.507,616.577 533.007,621.414C537.679,624.789 542.351,628.171 547.023,631.547C554.902,620.649 563.156,610.051 571.753,599.758C571.991,599.683 572.238,599.617 572.48,599.543C577.503,597.992 580.847,593.582 581.288,588.652C615.714,549.492 655.319,515.101 699.078,486.452L699.07,486.46ZM596.34,466.151L617.692,446.01L661.02,491.948C653.122,497.803 645.372,503.85 637.782,510.085L596.34,466.151Z" style="fill:rgb(204,204,204);fill-rule:nonzero;stroke:black;stroke-width:7.36px;"/>
        </g>
    </g>
</svg>
