<?xml version="1.0" encoding="UTF-8" standalone="no"?>
<!DOCTYPE svg PUBLIC "-//W3C//DTD SVG 1.1//EN" "http://www.w3.org/Graphics/SVG/1.1/DTD/svg11.dtd">
<svg width="100%" height="100%" viewBox="0 0 100 100" version="1.1" xmlns="http://www.w3.org/2000/svg" xmlns:xlink="http://www.w3.org/1999/xlink" xml:space="preserve" xmlns:serif="http://www.serif.com/" style="fill-rule:evenodd;clip-rule:evenodd;stroke-linejoin:round;stroke-miterlimit:2;">
    <g transform="matrix(1,0,0,0.930777,0.00053332,0.172657)">
        <path d="M50,93.739L52.076,94.792L51.911,100.165C51.911,100.165 51.855,101.826 50.001,101.826C48.146,101.826 48.106,100.181 48.106,100.181L47.935,94.792L50,93.739Z" style="fill:rgb(204,204,204);fill-rule:nonzero;stroke:black;stroke-width:1.04px;"/>
    </g>
    <g transform="matrix(1,0,0,0.930777,0.00053332,0.172657)">
        <path d="M47.426,76.491L47.611,82.328L50,83.485L52.394,82.367L52.573,76.49L50,75.241L47.426,76.491Z" style="fill:rgb(204,204,204);fill-rule:nonzero;stroke:black;stroke-width:1.04px;"/>
    </g>
    <g transform="matrix(1,0,0,0.930777,0.00053332,0.172657)">
        <path d="M46.244,34.568L46.394,39.438L50,41.044L53.581,39.438L53.73,34.535C52.845,33.417 52.358,32.113 52.358,30.719C52.358,29.197 52.949,27.798 53.972,26.633L54.356,14.022C55.721,12.814 56.583,11.052 56.583,9.086C56.584,5.449 53.636,2.5 50,2.5C46.364,2.5 43.416,5.449 43.416,9.087C43.416,11.034 44.261,12.781 45.602,13.987L45.997,26.594C47.041,27.767 47.644,29.181 47.644,30.719C47.644,32.127 47.147,33.444 46.244,34.568L46.244,34.568Z" style="fill:rgb(204,204,204);fill-rule:nonzero;stroke:black;stroke-width:1.04px;"/>
    </g>
    <g transform="matrix(1,0,0,0.930777,0.00053332,0.172657)">
        <path d="M46.808,54.588L47.065,62.915L50,64.226L52.926,62.914L53.178,54.587L50,53.144L46.808,54.588Z" style="fill:rgb(204,204,204);fill-rule:nonzero;stroke:black;stroke-width:1.04px;"/>
    </g>
    <g transform="matrix(1,0,0,0.930777,0.00053332,0.172657)">
        <path d="M27.902,35.485C26.62,31.442 27.835,28.803 28.254,28.07C29.694,25.22 33.458,23.306 37.628,23.306C40.233,23.306 42.575,24.008 44.339,25.173L44.125,15.41C44.125,15.41 41.432,13.897 37.816,16.333C27.548,23.252 2.499,21.415 2.499,21.415C2.499,31.717 15.796,32.015 15.796,32.015C16.537,39.561 23.466,36.628 23.466,36.628C25.889,41.376 29.228,41.624 31.541,41.042C29.652,39.212 28.434,37.355 27.901,35.485L27.902,35.485Z" style="fill:rgb(204,204,204);fill-rule:nonzero;stroke:black;stroke-width:1.04px;"/>
    </g>
    <g transform="matrix(1,0,0,0.930777,0.00053332,0.172657)">
        <path d="M62.185,16.333C58.569,13.897 55.876,15.41 55.876,15.41L55.662,25.175C57.425,24.008 59.769,23.307 62.374,23.307C66.544,23.307 70.308,25.221 71.747,28.07C72.165,28.803 73.378,31.435 72.1,35.485C71.573,37.351 70.352,39.208 68.456,41.043C70.769,41.625 74.108,41.378 76.532,36.63C76.532,36.63 83.461,39.562 84.201,32.016C84.201,32.016 97.499,31.718 97.499,21.416C97.5,21.416 72.452,23.252 62.184,16.333L62.185,16.333Z" style="fill:rgb(204,204,204);fill-rule:nonzero;stroke:black;stroke-width:1.04px;"/>
    </g>
    <g transform="matrix(1,0,0,0.930777,0.00053332,0.172657)">
        <path d="M43.201,96.947C43.201,94.859 46.731,93.008 48.704,92.135L44.219,90.256C41.321,91.89 38.421,94.142 38.421,96.613C38.421,100.597 48.871,104.566 48.871,104.566C48.87,104.566 43.202,99.096 43.202,96.947L43.201,96.947Z" style="fill:rgb(204,204,204);fill-rule:nonzero;stroke:black;stroke-width:1.04px;"/>
    </g>
    <g transform="matrix(1,0,0,0.930777,0.00053332,0.172657)">
        <path d="M55.62,70.785C52.651,69.254 49.768,67.544 49.768,67.544C49.768,67.544 40.144,62.882 40.144,58.679C40.144,55.456 45.944,52.689 48.645,51.576C47.242,51.014 44.62,49.931 42.07,48.718C37.724,51.108 33.212,54.482 33.212,58.194C33.212,62.574 39.5,67.444 44.379,69.785C47.472,71.271 50,72.143 50,72.143C50,72.143 58.037,75.91 58.037,79.337C58.037,81.889 53.583,84.116 51.306,85.088L55.778,87.044C59.517,85.08 63.691,82.165 63.691,78.941C63.691,75.671 59.398,72.737 55.62,70.785L55.62,70.785Z" style="fill:rgb(204,204,204);fill-rule:nonzero;stroke:black;stroke-width:1.04px;"/>
    </g>
    <g transform="matrix(1,0,0,0.930777,0.00053332,0.172657)">
        <path d="M54.621,88.629C52.164,87.367 49.999,86.607 49.999,86.607C49.999,86.607 41.962,82.765 41.962,79.336C41.962,76.791 46.395,74.61 48.677,73.656L43.262,71.386C39.803,73.313 36.308,75.991 36.308,78.94C36.308,82.503 41.405,86.688 45.378,88.629C47.918,89.871 50,90.605 50,90.605C50,90.605 56.797,94.048 56.797,96.946C56.797,99.096 51.129,104.564 51.129,104.564C51.129,104.564 61.579,100.594 61.579,96.611C61.578,93.809 57.847,90.286 54.621,88.629L54.621,88.629Z" style="fill:rgb(204,204,204);fill-rule:nonzero;stroke:black;stroke-width:1.04px;"/>
    </g>
    <g transform="matrix(1,0,0,0.930777,0.00053332,0.172657)">
        <path d="M66.786,58.194C66.786,62.237 61.429,65.845 56.768,68.218L51.296,65.826C53.971,64.722 59.855,61.927 59.855,58.68C59.855,54.478 49.999,50.053 49.999,50.053C49.999,50.053 46.902,48.979 43.124,47.155C37.812,44.591 31.159,39.542 29.858,34.904C28.688,31.238 30.029,29.073 30.049,29.041C31.096,26.896 34.091,25.348 37.626,25.348C42.031,25.348 45.602,27.752 45.602,30.719C45.602,33.435 42.608,35.679 38.72,36.038C41.253,40.104 49.998,44.127 49.998,44.127C49.998,44.127 53.24,45.268 56.873,47.154C61.509,49.561 66.786,54.18 66.786,58.194ZM38.853,30.97C39.909,30.97 40.766,30.113 40.766,29.056C40.766,27.998 39.91,27.141 38.853,27.141C37.796,27.141 36.939,27.998 36.939,29.056C36.939,30.113 37.796,30.97 38.853,30.97Z" style="fill:rgb(204,204,204);stroke:black;stroke-width:1.04px;"/>
    </g>
    <g transform="matrix(1,0,0,0.930777,0.00053332,0.172657)">
        <path d="M70.146,34.892C68.94,39.221 63.068,43.037 57.97,45.615C55.44,44.308 52.781,43.186 51.362,42.611C53.923,41.58 59.365,39.106 61.274,36.039C57.39,35.678 54.399,33.435 54.399,30.719C54.399,27.752 57.97,25.348 62.375,25.348C65.911,25.348 68.906,26.896 69.953,29.042C69.972,29.074 71.31,31.233 70.146,34.892ZM63.06,29.056C63.06,27.999 62.205,27.141 61.146,27.141C60.091,27.141 59.233,27.998 59.233,29.056C59.233,30.113 60.09,30.97 61.146,30.97C62.205,30.97 63.06,30.112 63.06,29.056Z" style="fill:rgb(204,204,204);stroke:black;stroke-width:1.04px;"/>
    </g>
</svg>
