<svg xmlns="http://www.w3.org/2000/svg" xml:space="preserve" width="512" height="512" fill-rule="evenodd" stroke-linejoin="round" stroke-miterlimit="2" clip-rule="evenodd" viewBox="0 0 512 512">
  <path fill="#ccc" stroke="#000" stroke-width="5.12" d="M45.139 204.951a23.94 23.94 0 0 0-9.589-7.003l11.004-18.707a4.46 4.46 0 0 0-.072-4.637c-3.674-6.151-7.021-14.658-8.918-21.589a4.47 4.47 0 0 0-3.384-3.179l-21.39-5.563v-32.141l21.59-5.616a4.46 4.46 0 0 0 3.192-3.153l.01.009a93.3 93.3 0 0 1 8.99-21.732 4.48 4.48 0 0 0-.027-4.484L35.259 57.949l22.751-22.72L77.243 46.5a4.48 4.48 0 0 0 4.644-.074c6.16-3.669 14.677-7.012 21.617-8.905a4.47 4.47 0 0 0 3.184-3.38l5.562-21.351h32.184l5.625 21.56a4.46 4.46 0 0 0 3.158 3.187l-.01.01a93.3 93.3 0 0 1 21.762 8.978 4.5 4.5 0 0 0 4.493-.028l19.231-11.269 8.201 8.19-29.701 29.659c-29.029-25.691-73.306-24.523-100.946 3.081-27.669 27.631-28.768 71.868-3.086 100.809L45.15 204.959z"/>
  <path fill="#ccc" stroke="#000" stroke-width="5.12" d="m123.994 103.845 53.25 53.178c2.84 2.835-.327 10.213 2.187 17.488 2.585 7.509 9.561 7.561 17.462 7.913l-8.745-8.732a4.47 4.47 0 0 1-1.216-4.113l1.86-11.713a4.49 4.49 0 0 1 3.81-3.733l11.874-1.875a4.48 4.48 0 0 1 3.874 1.26l8.745 8.732c-.345-7.881-.411-14.857-7.932-17.439-7.239-2.481-14.665.635-17.495-2.192l-.018.017-53.25-53.177c-2.84-2.836.327-10.213-2.187-17.488-2.594-7.519-9.561-7.561-17.462-7.915l8.273 8.262a4.47 4.47 0 0 1 1.216 4.113l-1.86 11.713a4.49 4.49 0 0 1-3.81 3.731l-11.874 1.876a4.48 4.48 0 0 1-3.874-1.26l-8.273-8.262c.345 7.881.411 14.858 7.932 17.439 7.239 2.483 14.665-.634 17.496 2.193zm2.515 40.414-23.351 23.319c-2.141 2.139-5.933.689-5.933-2.446 0-1.703 1.017-2.463 2.123-3.569l22.244-22.212c2.14-2.139 5.932-.689 5.932 2.446a3.52 3.52 0 0 1-1.015 2.464zm-16.81-8.241L82.63 108.993a10.4 10.4 0 0 0-7.393-3.035c-9.398 0-13.861 11.341-7.393 17.801l27.077 27.016zm9.771 30.461 5.606-5.598 30.19 30.142a4.4 4.4 0 0 0 2.532 1.259l9.869 1.413 7.965 15.854-7.403 7.393-15.876-7.954-1.396-9.675a4.45 4.45 0 0 0-1.289-2.7z"/>
  <g fill="#ccc" fill-rule="nonzero" stroke="#000" stroke-width="5.12">
    <path d="M397.813 460.213c-5.352-5.661-10.261-11.367-18.574-11.278H234.975c-8.823-.088-13.953 6.457-19.614 12.383h183.47a41 41 0 0 1-1.018-1.105Z"/>
    <path d="M139.27 320.572c-9.42 8.138-26.335 24.634-23.55 41.44 5.616 30.671 6.169 54.929 6.258 79.162.044 7.784 4.511 14.551 10.99 17.911v28.129c0 6.41 4.732 11.586 10.591 11.586h34.607c5.837 0 10.591-5.199 10.591-11.586v-25.896h12.693c10.659-9.044 17.137-22.068 33.523-22.068h144.262c16.364-.023 22.842 13.001 33.523 22.068h12.693v25.896c0 6.41 4.732 11.586 10.591 11.586h34.607c5.837 0 10.591-5.199 10.591-11.586v-28.129c6.501-3.338 10.968-10.105 10.99-17.889.088-24.257.641-48.56 6.258-79.119 2.765-16.585-13.666-32.904-22.909-40.91-.221-.177-.442-.398-.663-.575-3.494-3.095-6.899-6.126-10.017-9.642 12.559 1.791 33.037-3.14 33.414-17.247 0-9.84-12.031-17.558-27.4-17.558-4.024 0-7.474.796-10.26 2.3-4.29 2.344-7.032 6.279-8.248 11.808-3.981-11.079-11.896-33.28-15.346-42.545-21.051-49.269-64.368-44.182-126.351-45.198-1.813.022-5.439 0-7.253 0-61.958 1.017-105.26-4.069-126.351 45.198-3.338 9.022-10.88 30.073-14.838 41.152-1.348-4.069-3.869-7.695-7.872-10.017-3.141-1.813-6.545-2.653-11.145-2.72-15.346 0-27.398 7.695-27.398 17.558.442 14.196 20.742 18.972 33.389 17.291-3.14 3.494-6.5 6.501-9.972 9.598zm164.173-94.843h7.293c49.929 1.326 90.401-5.064 104.552 30.029 2.83 7.695 8.713 24.059 12.67 35.071-23.527 6.855-218.189 6.855-241.739 0 3.958-11.034 9.819-27.375 12.671-35.071 14.13-35.071 54.618-28.703 104.552-30.029Zm-154.53 123.699c13.023-1.105 46.127 9.067 56.009 13.932 7.407 3.913 4.843 24.766-.731 29.609-7.43 6.391-45.884 4.953-55.457-4.997-7.431-7.895-9.331-36.973.177-38.52zm104.636 44.712c0-3.626 2.964-6.59 6.59-6.59h93.938c3.627 0 6.59 2.964 6.59 6.59v12.384a6.593 6.593 0 0 1-6.59 6.59h-93.938a6.593 6.593 0 0 1-6.59-6.59zm211.774-6.014c-9.641 9.707-47.938 11.233-55.282 4.82-5.573-4.843-8.138-25.696-.731-29.609 9.885-4.865 42.965-15.015 56.011-13.932 9.508 1.548 7.606 30.56.199 38.476-.066.09-.133.133-.199.222z"/>
  </g>
</svg>
