<?xml version="1.0" encoding="UTF-8" standalone="no"?>
<!DOCTYPE svg PUBLIC "-//W3C//DTD SVG 1.1//EN" "http://www.w3.org/Graphics/SVG/1.1/DTD/svg11.dtd">
<svg width="100%" height="100%" viewBox="0 0 100 100" version="1.1" xmlns="http://www.w3.org/2000/svg" xmlns:xlink="http://www.w3.org/1999/xlink" xml:space="preserve" xmlns:serif="http://www.serif.com/" style="fill-rule:evenodd;clip-rule:evenodd;stroke-linejoin:round;stroke-miterlimit:2;">
    <g transform="matrix(0.0880152,0,0,0.0880152,-2.80916,-2.80909)">
        <path d="M890.39,388.31L735.84,388.31C728.34,388.357 722.246,394.451 722.199,401.998L722.199,430.123C722.293,437.576 728.34,443.623 735.84,443.67L890.39,443.67C897.89,443.623 903.984,437.576 904.031,430.123L904.031,401.998C903.984,394.451 897.937,388.357 890.39,388.31ZM859.687,919.68C853.734,919.68 848.859,914.805 848.859,908.852C848.859,902.899 853.734,898.071 859.687,898.071L864.89,898.071C870.843,898.071 875.671,902.899 875.671,908.852C875.671,914.805 870.843,919.68 864.89,919.68L859.687,919.68ZM749.739,949.38C744.114,948.912 739.801,944.224 739.801,938.599C739.801,932.975 744.114,928.287 749.739,927.865L760.098,927.865L760.051,927.865C765.676,928.287 769.988,932.975 769.988,938.599C769.988,944.224 765.676,948.911 760.051,949.38L749.739,949.38ZM785.158,878.523C779.205,878.523 774.377,873.695 774.377,867.742C774.377,861.742 779.205,856.914 785.158,856.914L795.611,856.914C801.564,856.914 806.392,861.742 806.392,867.742C806.392,873.695 801.564,878.523 795.611,878.523L785.158,878.523ZM854.439,975.976C848.486,975.976 843.658,971.148 843.658,965.195C843.658,959.242 848.486,954.367 854.439,954.367L864.845,954.367C870.845,954.367 875.673,959.242 875.673,965.195C875.673,971.148 870.845,975.976 864.845,975.976L854.439,975.976ZM371.539,332.756L371.586,332.803C348.055,309.272 312.711,302.287 282.008,314.991C251.305,327.695 231.289,357.694 231.289,390.929C231.289,424.164 251.305,454.117 282.008,466.82C312.711,479.57 348.055,472.539 371.586,449.054C387.008,433.632 395.68,412.726 395.68,390.929C395.68,369.085 387.008,348.179 371.586,332.804L371.539,332.756ZM337.93,366.412L337.977,366.459C328.086,356.568 313.18,353.568 300.243,358.959C287.305,364.303 278.915,376.912 278.915,390.928C278.915,404.897 287.305,417.506 300.243,422.897C313.181,428.241 328.087,425.241 337.977,415.35C351.43,401.85 351.43,379.959 337.977,366.459L337.93,366.412ZM313.461,334.771C336.195,334.771 356.68,348.412 365.352,369.412C374.071,390.365 369.289,414.553 353.258,430.584C337.18,446.662 313.039,451.49 292.039,442.818C271.086,434.099 257.398,413.662 257.398,390.927C257.398,359.943 282.476,334.865 313.46,334.771L313.461,334.771ZM694.881,959.241L705.756,959.241L705.803,959.288C727.272,959.335 746.303,973.257 752.772,993.788C753.287,995.522 754.928,996.741 756.803,996.694L947.403,996.694C948.809,996.694 950.122,995.991 950.919,994.819C951.669,993.647 951.809,992.147 951.247,990.835L881.169,827.195C880.466,825.507 878.778,824.523 876.95,824.663C853.794,826.304 833.403,819.507 813.059,820.492C791.825,821.429 768.856,831.273 745.653,832.023C744.012,832.069 742.559,833.101 741.95,834.601L690.997,953.381L691.044,953.381C690.481,954.693 690.622,956.193 691.419,957.365C692.169,958.537 693.481,959.24 694.888,959.24L694.881,959.241ZM733.225,1058.8C733.834,1055.33 733.694,1013.19 733.506,1007.8C733.037,992.803 720.803,980.897 705.803,980.803L109.593,980.803C94.312,980.897 81.937,993.272 81.89,1008.55L81.89,1054.44C81.937,1069.72 94.312,1082.1 109.593,1082.19L705.803,1082.19C719.397,1082.1 730.975,1072.26 733.225,1058.8L733.225,1058.8ZM566.445,449.013L382.925,539.388C377.628,542.013 374.441,547.591 374.816,553.497C375.191,559.403 379.081,564.513 384.706,566.435C388.362,567.748 392.441,567.513 395.909,565.779L579.519,475.357L579.519,475.404C586.972,472.122 590.394,463.451 587.16,455.998C583.879,448.545 575.207,445.123 567.754,448.357L566.445,449.013ZM377.345,195.613L340.126,120.144C339.657,119.113 338.767,118.363 337.735,117.988C336.657,117.66 335.532,117.753 334.501,118.222L263.063,153.378C262.079,153.894 261.282,154.738 260.954,155.816C260.579,156.847 260.625,158.019 261.141,159.003L298.36,234.519C298.829,235.504 299.719,236.3 300.751,236.629C301.829,237.004 302.954,236.957 303.985,236.441L375.423,201.285C377.486,200.254 378.376,197.723 377.345,195.613L377.345,195.613ZM300.001,262.363C292.876,266.113 286.267,267.707 283.267,276.425C281.204,282.284 282.189,291.894 288.236,290.347C335.674,278.441 385.033,301.316 406.596,345.238C428.112,389.16 416.065,442.176 377.627,472.458C376.033,473.724 375.517,475.88 376.408,477.661L390.799,506.817L390.799,506.864C391.877,508.88 394.361,509.77 396.424,508.786L534.744,440.677C536.806,439.646 537.697,437.114 536.713,435.052L429.933,218.262L429.886,218.215C425.527,209.449 414.933,205.793 406.12,210.106L300.09,262.325L299.949,262.325L300.001,262.363ZM462.521,561.703L471.802,580.547L471.802,580.5C472.318,581.531 473.162,582.281 474.24,582.656C475.318,583.031 476.49,582.938 477.474,582.422L543.849,549.75L543.849,549.797C545.912,548.719 546.755,546.234 545.771,544.172L536.396,525.281C535.365,523.171 532.88,522.328 530.771,523.359L464.396,555.984C462.333,557.062 461.49,559.593 462.474,561.703L462.521,561.703ZM663.761,855.093L614.777,953.202C614.121,954.515 614.168,956.061 614.918,957.327C615.714,958.593 617.074,959.343 618.574,959.296L662.402,959.296C664.089,959.343 665.636,958.311 666.292,956.718L726.198,816.798C728.12,812.345 732.761,809.72 737.589,810.376C757.277,812.626 786.808,800.251 812.167,799.079C834.339,798.048 866.167,806.719 884.026,802.173L883.98,802.173C889.136,800.907 894.433,803.532 896.496,808.407L979.98,1003.31C981.386,1006.63 981.011,1010.43 979.042,1013.43C977.026,1016.43 973.698,1018.26 970.089,1018.26L759.249,1018.26C758.124,1018.26 757.046,1018.68 756.296,1019.48C755.499,1020.28 755.03,1021.31 755.077,1022.43L755.077,1045.4C755.077,1047.7 756.952,1049.57 759.249,1049.57L990.009,1049.57C1005.01,1049.67 1018.98,1041.93 1026.81,1029.18C1034.68,1016.38 1035.29,1000.45 1028.4,987.088L892.46,714.878C884.397,700.066 880.038,683.566 879.663,666.737L879.663,469.397C879.663,467.1 877.741,465.225 875.397,465.225L750.797,465.225C748.5,465.225 746.625,467.1 746.625,469.397L746.625,666.737C746.25,683.565 741.844,700.065 733.781,714.878L694.172,794.097L694.172,794.05C693.61,795.128 693.563,796.394 694.032,797.519C703.313,820.535 689.063,843.457 665.907,853.019L665.953,853.019C664.969,853.394 664.172,854.097 663.75,855.034L663.761,855.093ZM145.231,708.233C148.465,708.233 158.45,710.202 157.137,703.499C140.356,616.733 177.34,539.209 247.746,477.469L247.699,477.469C248.637,476.672 249.199,475.5 249.199,474.281C249.199,473.016 248.637,471.844 247.699,471.047C228.246,455.063 215.261,432.516 211.23,407.672C210.996,406.219 210.058,404.953 208.699,404.391C207.34,403.828 205.793,404.016 204.574,404.906C95.874,483.422 47.354,608.386 63.294,737.536C63.481,739.177 64.56,740.536 66.106,741.052C67.7,741.567 69.388,741.145 70.513,739.927C90.06,719.63 117.013,708.193 145.232,708.239L145.231,708.233ZM251.171,836.393L640.751,836.393C669.157,836.393 687.298,811.924 666.157,795.612C658.798,790.175 649.845,787.362 640.751,787.55L609.813,787.55C604.329,787.55 605.547,780.471 605.547,775.034L605.594,775.034C605.547,769.455 601.047,764.909 595.469,764.862L463.229,764.862C457.604,764.908 453.104,769.455 453.057,775.034C453.057,780.471 454.323,787.55 448.792,787.55L251.162,787.55C249.943,787.55 248.724,788.112 247.927,789.05C247.13,789.987 246.802,791.253 247.037,792.471C249.474,805.362 249.474,818.58 247.037,831.424C246.802,832.643 247.13,833.956 247.927,834.893C248.724,835.878 249.896,836.44 251.162,836.44L251.171,836.393ZM221.171,843.049C234.859,809.533 225.062,771.049 196.983,748.174C168.905,725.346 129.249,723.518 99.202,743.721C69.202,763.924 55.89,801.377 66.483,835.971C77.076,870.565 109.045,894.19 145.233,894.143C178.561,894.096 208.608,873.94 221.264,843.096L221.171,843.049ZM133.702,921.987L133.702,921.94C142.233,934.409 151.374,946.362 161.218,957.799C161.968,958.737 163.187,959.299 164.406,959.252L385.006,959.252C386.974,959.299 388.662,957.94 389.131,956.018C389.552,954.096 388.615,952.127 386.834,951.284C336.959,927.331 290.74,896.253 249.724,859.081C247.942,857.346 244.145,857.956 240.677,857.956L240.724,857.956C239.13,857.909 237.677,858.799 237.02,860.253C217.801,896.769 178.754,918.425 137.598,915.425C135.958,915.331 134.411,916.128 133.614,917.534C132.817,918.94 132.864,920.675 133.755,922.034L133.702,921.987ZM169.561,787.507C159.67,777.617 144.764,774.616 131.873,780.007C118.935,785.351 110.498,797.96 110.498,811.929C110.498,825.945 118.935,838.554 131.873,843.898C144.764,849.289 159.67,846.289 169.561,836.398C183.061,822.898 183.061,801.007 169.561,787.507ZM145.233,755.819C167.921,755.819 188.405,769.507 197.077,790.507C205.796,811.46 200.968,835.648 184.936,851.679C168.858,867.757 144.717,872.538 123.764,863.867C102.764,855.195 89.076,834.711 89.076,811.976C89.123,780.992 114.248,755.867 145.232,755.82L145.233,755.819ZM1139.17,437.539L1093.05,357.664L1093.1,357.664C1092.35,356.305 1090.89,355.508 1089.35,355.508L997.001,355.508C995.501,355.508 994.095,356.352 993.391,357.664L947.266,437.539C946.516,438.852 946.516,440.445 947.266,441.758L993.391,521.633C994.141,522.899 995.501,523.696 997.001,523.696L1089.3,523.696C1090.85,523.742 1092.25,522.946 1093,521.633L1139.13,441.758C1139.88,440.446 1139.88,438.852 1139.13,437.539L1139.17,437.539ZM811.333,245.859L764.224,164.203L764.224,164.156C763.474,162.844 762.115,162.047 760.615,162L668.224,162C666.724,162 665.364,162.844 664.661,164.156L618.489,244.031L618.489,244.078C617.692,245.344 617.692,246.984 618.489,248.297L664.567,328.125C665.317,329.438 666.677,330.234 668.177,330.234L762.583,330.234C764.083,330.234 765.489,329.438 766.192,328.125L811.286,250.031C812.083,248.765 812.083,247.125 811.286,245.859L811.333,245.859ZM796.661,366.799L890.411,366.799C909.817,366.846 925.52,382.549 925.567,401.955L925.567,428.861L927.208,428.861L974.552,346.783C975.348,345.518 975.348,343.924 974.552,342.611L928.427,262.783C927.723,261.471 926.317,260.674 924.817,260.721L832.473,260.721C831.02,260.674 829.614,261.518 828.911,262.783L782.739,342.658L782.739,342.705C781.942,343.971 781.942,345.565 782.739,346.877L793.051,364.736C793.801,366.049 795.207,366.845 796.707,366.845L796.661,366.799ZM901.191,466.502L901.191,614.392C901.191,616.736 903.113,618.658 905.457,618.658L924.769,618.658C926.269,618.658 927.628,617.861 928.378,616.548L974.69,536.392C975.393,535.08 975.393,533.486 974.69,532.174L928.659,452.486C927.112,449.861 924.347,450.376 921.206,450.376C916.612,450.376 916.659,457.267 903.862,462.517L903.815,462.47C902.221,463.127 901.19,464.72 901.19,466.455L901.191,466.502ZM1093,331.872L1139.13,251.997C1139.88,250.685 1139.88,249.044 1139.13,247.778L1093,167.856C1092.25,166.544 1090.85,165.747 1089.3,165.794L997.001,165.794C995.501,165.794 994.141,166.591 993.391,167.856L947.172,247.918C946.376,249.231 946.376,250.872 947.172,252.184L993.203,331.872C993.953,333.185 995.313,333.981 996.813,333.981L1089.3,333.981C1090.84,333.981 1092.25,333.185 1093,331.872L1093,331.872Z" style="fill:rgb(204,204,204);fill-rule:nonzero;stroke:black;stroke-width:11.36px;"/>
    </g>
</svg>
