<svg xmlns="http://www.w3.org/2000/svg" xml:space="preserve" width="512" height="512" fill-rule="evenodd" stroke-linejoin="round" stroke-miterlimit="2" clip-rule="evenodd" viewBox="0 0 512 512">
  <path fill="#ccc" fill-rule="nonzero" stroke="#000" stroke-width="5.12" d="M180.173 226.432h106.516v18.56H180.173zm0 131.763h106.516v18.591H180.173zM93.015 254.669h338.959v18.596H93.015zm-9.651 93.875v-65.628H15.616c1.331 35.635 30.991 64.358 67.753 65.628Zm9.651 0H386.79c.855 0 1.608-.609 1.608-1.423v-28.57c0-3.22 1.423-6.246 3.825-8.376l31.57-27.259H93.015zm116.214 37.949h48.404v18.555h-48.404zm-58.107 105.641c0 3.917 3.18 7.04 7.045 7.04h150.502a7.036 7.036 0 0 0 7.04-7.04l.02-30.331H151.121zm155.843-40.023-46.167-37.427h-54.692l-46.131 37.427zM208 50.596l16.993 8.704-8.31 16.21-16.988-8.704zm280.975 163.251 7.306-14.264a1.05 1.05 0 0 0-.461-1.439l-157.567-80.732-8.305 16.21 157.583 80.742c.532.189 1.183-.026 1.439-.522zM263.081 12.8l90.583 46.413-64.717 126.31-90.583-46.408z"/>
</svg>
