<svg xmlns="http://www.w3.org/2000/svg" xml:space="preserve" width="512" height="512" fill-rule="evenodd" stroke-linejoin="round" stroke-miterlimit="2" clip-rule="evenodd" viewBox="0 0 512 512">
  <path fill="#ccc" fill-rule="nonzero" stroke="#000" stroke-width="5.12" d="M392.069 92.867H120.105a27.24 27.24 0 0 0-27.238 27.238v271.944c0 14.94 12.18 27.08 27.238 27.08h271.944a27.085 27.085 0 0 0 27.075-27.08l.026-271.939c0-15.058-12.134-27.244-27.08-27.244Zm-10.424 188.426a8.91 8.91 0 0 1-6.743 6.861l-20.736 4.751c-.758 2.115-1.71 4.275-2.683 6.508l11.377 18.007a8.91 8.91 0 0 1-.164 9.615 129 129 0 0 1-35.625 35.625 8.81 8.81 0 0 1-9.549.169l-18.125-11.377c-2.043.998-4.224 1.874-6.436 2.755l-4.751 20.685a8.7 8.7 0 0 1-6.861 6.676 128 128 0 0 1-25.318 2.514 130.6 130.6 0 0 1-25.272-2.514 8.81 8.81 0 0 1-6.912-6.676l-4.582-20.685a108 108 0 0 1-6.554-2.683l-17.935 11.259a8.76 8.76 0 0 1-9.544-.072 128 128 0 0 1-35.82-35.697c-1.997-2.877-1.997-6.63-.164-9.62l11.377-18.002a369 369 0 0 1-2.637-6.508l-20.808-4.751a8.91 8.91 0 0 1-6.743-6.861 133 133 0 0 1-2.468-25.324c0-8.381.829-16.814 2.514-25.149a8.7 8.7 0 0 1 6.676-6.861l20.803-4.751a184 184 0 0 1 2.637-6.508l-11.377-18.007a8.81 8.81 0 0 1 .169-9.615c9.667-14.418 21.729-26.481 35.814-35.814a8.86 8.86 0 0 1 9.549-.123l18.048 11.377c2.115-.922 4.275-1.828 6.436-2.637l4.588-20.803a8.91 8.91 0 0 1 6.912-6.743 131.6 131.6 0 0 1 50.586 0c3.4.712 6.103 3.277 6.861 6.671l4.756 20.925c2.161.829 4.275 1.638 6.385 2.586l18.171-11.377a8.65 8.65 0 0 1 9.549.123 132.6 132.6 0 0 1 35.625 35.814c1.925 2.918 1.997 6.671.164 9.62l-11.377 18.002c.927 1.997 1.879 4.224 2.688 6.554l20.736 4.68a8.7 8.7 0 0 1 6.671 6.861c1.71 8.315 2.514 16.773 2.514 25.155a133 133 0 0 1-2.422 25.364zM149.012 75.213h-17.649V21.581c0-4.864 3.994-8.786 8.858-8.786a8.77 8.77 0 0 1 8.791 8.786zm57.784 0h-17.577V21.581a8.77 8.77 0 0 1 8.787-8.781 8.77 8.77 0 0 1 8.786 8.786zm58.025 0h-17.644V21.581a8.827 8.827 0 0 1 17.649 0zm57.974 0h-17.577V21.581a8.77 8.77 0 0 1 8.792-8.781 8.77 8.77 0 0 1 8.786 8.786zm57.974 0h-17.577V21.581a8.77 8.77 0 0 1 8.786-8.781 8.77 8.77 0 0 1 8.786 8.786zm109.655 73.789h-53.637v-17.649h53.627c4.864 0 8.791 3.994 8.791 8.858a8.77 8.77 0 0 1-8.791 8.791Zm8.791 49.162a8.77 8.77 0 0 1-8.791 8.786h-53.637v-17.577h53.627a8.79 8.79 0 0 1 8.791 8.791Zm0 57.805c0 4.869-3.922 8.858-8.791 8.858h-53.637v-17.633h53.627a8.77 8.77 0 0 1 8.791 8.786Zm0 58.025a8.77 8.77 0 0 1-8.791 8.786h-53.637v-17.644h53.627c4.864 0 8.791 3.994 8.791 8.858Zm0 57.958a8.77 8.77 0 0 1-8.791 8.781h-53.637v-17.571h53.627a8.79 8.79 0 0 1 8.791 8.786ZM131.359 436.71h17.649v53.684a8.755 8.755 0 0 1-8.786 8.786c-4.869 0-8.858-3.917-8.858-8.786zm57.856 0h17.577v53.684a8.755 8.755 0 0 1-8.786 8.786 8.755 8.755 0 0 1-8.786-8.786zm57.979 0h17.644v53.684a8.827 8.827 0 0 1-17.644 0zm58.025 0h17.572v53.684a8.755 8.755 0 0 1-8.786 8.786 8.755 8.755 0 0 1-8.786-8.786zm57.953 0h17.572v53.684a8.755 8.755 0 0 1-8.786 8.786 8.755 8.755 0 0 1-8.786-8.786zM21.591 131.354h53.622v17.649H21.591a8.77 8.77 0 0 1-8.791-8.792c0-4.864 3.922-8.858 8.791-8.858Zm0 58.025h53.622v17.577H21.591a8.77 8.77 0 0 1-8.791-8.792 8.785 8.785 0 0 1 8.791-8.786Zm0 57.805h53.622v17.649H21.591c-4.869 0-8.791-3.994-8.791-8.858a8.77 8.77 0 0 1 8.791-8.791Zm0 57.958h53.622v17.644H21.591a8.77 8.77 0 0 1-8.791-8.792c0-4.864 3.922-8.858 8.791-8.858Zm0 58.02h53.622v17.577H21.591a8.77 8.77 0 0 1-8.791-8.786 8.786 8.786 0 0 1 8.791-8.791Zm323.814-127.821a8.76 8.76 0 0 1-6.508-6.154c-1.403-4.915-3.635-9.62-5.391-13.133a8.86 8.86 0 0 1 .404-8.622l10.829-17.126a114.2 114.2 0 0 0-22.968-23.081l-17.239 10.829a8.86 8.86 0 0 1-8.622.404 97 97 0 0 0-13.302-5.514 8.76 8.76 0 0 1-5.796-6.385l-4.511-19.881a108.5 108.5 0 0 0-32.584 0l-4.398 19.809a8.7 8.7 0 0 1-5.862 6.436 92 92 0 0 0-13.42 5.509 8.7 8.7 0 0 1-8.622-.476l-17.172-10.783a111.6 111.6 0 0 0-23.04 23.091l10.783 17.121c1.71 2.586 1.833 5.862.476 8.622a92 92 0 0 0-5.509 13.414 8.86 8.86 0 0 1-6.39 5.868l-19.876 4.516a105.5 105.5 0 0 0-1.239 16.128c0 5.437.41 10.829 1.239 16.358l19.876 4.516a8.76 8.76 0 0 1 6.39 5.796c1.638 4.864 3.466 9.38 5.509 13.414a8.76 8.76 0 0 1-.476 8.673l-10.783 17.121a109 109 0 0 0 23.04 22.922l17.172-10.834a8.65 8.65 0 0 1 8.858-.282c4.04 2.161 8.387 3.988 13.184 5.509 2.918.998 5.222 3.466 5.862 6.502l4.398 19.645c11.018 1.638 21.683 1.587 32.584 0l4.511-19.686a8.7 8.7 0 0 1 5.796-6.39c4.797-1.638 9.073-3.466 13.061-5.56a8.76 8.76 0 0 1 8.858.287l17.295 10.829a111.6 111.6 0 0 0 22.917-22.917L333.91 304.71a8.96 8.96 0 0 1-.41-8.668c2.473-4.864 4.234-9.19 5.443-13.179a8.65 8.65 0 0 1 6.436-6.031l19.881-4.516a107.5 107.5 0 0 0 1.234-16.364c0-5.345-.404-10.783-1.234-16.128zm-89.415 88.253c-37.289 0-67.574-30.351-67.574-67.635s30.31-67.574 67.574-67.574c37.335 0 67.635 30.305 67.635 67.569-.02 37.289-30.3 67.64-67.635 67.64Zm50.043-67.615c0 27.597-22.446 50.043-50.043 50.043-27.551 0-49.997-22.446-49.997-50.043 0-27.546 22.446-49.992 49.997-49.992 27.597 0 50.043 22.441 50.043 49.992Z"/>
</svg>
