<?xml version="1.0" encoding="UTF-8" standalone="no"?>
<!DOCTYPE svg PUBLIC "-//W3C//DTD SVG 1.1//EN" "http://www.w3.org/Graphics/SVG/1.1/DTD/svg11.dtd">
<svg width="100%" height="100%" viewBox="0 0 100 100" version="1.1" xmlns="http://www.w3.org/2000/svg" xmlns:xlink="http://www.w3.org/1999/xlink" xml:space="preserve" xmlns:serif="http://www.serif.com/" style="fill-rule:evenodd;clip-rule:evenodd;stroke-linejoin:round;stroke-miterlimit:2;">
    <g transform="matrix(0.0880013,0,0,0.0880013,-2.80085,-2.80097)">
        <path d="M754.69,1139.8L131.87,1139.8C122.354,1139.8 114.386,1132.07 114.386,1122.32L114.386,280.396C114.386,270.88 122.355,262.912 131.87,262.912L237.81,262.912L237.81,377.852C231.107,380.665 225.201,384.79 220.044,390.461C201.528,411.039 202.794,442.68 223.372,461.195L254.216,489.226C263.451,497.71 275.544,502.351 287.919,502.351C301.044,502.351 313.607,497.195 323.122,487.96L351.669,459.929C371.45,440.663 371.731,408.788 352.185,388.96C348.06,384.835 343.185,381.507 338.029,378.929L338.029,262.959L566.869,262.959L566.869,450.409C566.869,460.159 574.838,467.893 584.353,467.893L668.962,467.893C678.712,467.893 686.446,460.206 686.446,450.409C686.446,440.893 678.711,432.925 668.962,432.925L601.837,432.925L601.93,273.215L767.03,438.025C770.359,441.353 772.187,445.759 772.187,450.353L772.187,1122.25C772.187,1132.05 764.452,1139.78 754.703,1139.78L754.69,1139.8ZM287.95,469.67C283.825,469.67 279.466,468.123 276.138,465.029L245.294,436.998C238.357,430.576 237.841,419.514 244.263,412.295C250.685,405.358 261.747,404.561 268.966,411.264L270.513,412.53L270.466,237.74C270.466,191.474 308.013,153.928 354.278,153.928L393.372,153.928C403.122,153.928 410.856,161.897 410.856,171.412C410.856,181.162 403.121,188.896 393.372,188.896L354.278,188.896C327.278,188.896 305.434,210.74 305.434,237.74L305.434,410.52C312.371,404.848 322.637,405.364 329.106,411.832C335.809,418.77 335.809,429.832 328.871,436.77L300.324,464.801C296.949,468.129 292.309,469.676 287.949,469.676L287.95,469.67ZM943.17,793.15C939.045,793.15 934.686,791.603 931.358,788.509L929.764,787.244L929.764,962.084C929.764,1008.35 891.983,1046.18 845.67,1046.18L806.858,1046.18C797.343,1046.18 789.374,1038.44 789.374,1028.69C789.374,1019.18 797.343,1011.21 806.858,1011.21L845.67,1011.21C872.67,1011.21 894.795,989.085 894.795,962.085L894.795,789.025C887.858,794.931 877.311,794.415 870.889,787.947C864.186,781.056 864.467,769.947 871.405,763.056L900.186,735.025C906.608,728.603 917.155,728.603 924.092,734.79L954.983,762.821C962.155,769.243 962.67,780.305 956.014,787.524C952.686,791.321 948.045,793.149 943.17,793.149L943.17,793.15ZM1068.14,937.15L962.44,937.15L962.44,821.93C969.143,819.117 975.284,814.992 980.206,809.321C998.956,789.024 997.456,757.102 976.878,738.587L946.034,710.556C926.487,692.79 896.393,693.306 877.362,711.587L848.534,739.618C828.753,758.93 828.237,790.806 847.503,810.587C851.862,814.993 856.737,818.556 862.175,821.134L862.175,937.104L804.847,937.104L804.847,450.364C804.847,437.005 799.456,424.395 790.175,414.88L619.915,244.91C610.399,235.629 597.79,230.238 584.431,230.238L428.111,230.285L428.111,77.755C428.111,68.239 436.08,60.271 445.595,60.271L880.405,60.271L880.405,248.011C880.405,257.761 888.374,265.495 897.889,265.495L982.733,265.495C992.53,265.495 1000.22,257.761 1000.22,248.011C1000.22,238.495 992.529,230.527 982.733,230.527L915.374,230.527L915.374,70.587L1080.47,235.637C1083.85,239.012 1085.63,243.371 1085.63,248.012L1085.63,919.692C1085.63,929.442 1077.89,937.176 1068.15,937.176L1068.14,937.15Z" style="fill:rgb(204,204,204);stroke:black;stroke-width:11.36px;"/>
    </g>
</svg>
