<svg xmlns="http://www.w3.org/2000/svg" width="512" height="512" viewBox="0 0 512 511">
  <g fill="#ccc" stroke="#000" stroke-linejoin="round" stroke-miterlimit="2">
    <path fill-rule="evenodd" stroke-width="18.7" d="M310.248 738.206c1.41 14.902-.93 29.626-6.645 42.89l76.824 19.967a16.35 16.35 0 0 1 11.809 12.192c6.426 25.406 19.781 56.066 32.82 78.886 3.09 5.53 2.707 12.046-.517 16.97l-40.885 69.661 83.163 83.143 70.307-41.248c5.258-3.092 11.44-2.9 16.415-.083l-.01-.05c25.136 14.345 51.66 25.4 79.462 32.992 5.861 1.606 10.071 6.199 11.525 11.666l20.527 78.856 117.57.005 20.525-78.847a16.34 16.34 0 0 1 12.183-11.819c25.414-6.412 56.07-19.786 78.897-32.798 5.53-3.102 12.047-2.738 16.972.513l69.606 40.866 83.157-83.157-41.25-70.314c-3.09-5.248-2.899-11.43-.099-16.395h-.04c14.342-25.129 25.409-51.656 32.999-79.463 1.596-5.846 6.185-10.07 11.678-11.516l78.837-20.536v-42.375l-153.47-.005c-8.531 141.466-125.955 252.84-268.779 252.833-142.965.013-260.267-111.602-268.787-252.834l-144.784-.05Zm0 0" transform="matrix(.19368 -.19303 -.19368 -.19303 128.05 407.17)"/>
    <path fill-rule="evenodd" stroke-width="18.7" d="m785.523 706.481-.007-275.151c.006-14.678-27.266-25.593-39.591-50.907-12.752-26.103 5.138-44.256 24.648-65.588l-.005 45.194c0 5.808 2.998 10.864 7.498 13.77l35.105 25.505c5.947 4.313 13.916 4.034 19.505-.18l35.524-25.83c4.41-3.195 6.754-8.211 6.756-13.272l-.005-45.183c19.501 21.276 37.38 39.498 24.626 65.609-12.272 25.122-39.527 36.248-39.522 50.875h-.101l-.004 275.162c.004 14.667 27.266 25.572 39.592 50.886 12.761 26.154-5.128 44.266-24.639 65.598l.01-42.75a16.38 16.38 0 0 0-7.509-13.78L832.3 740.935c-5.947-4.313-13.917-4.034-19.496.19l-35.534 25.82c-4.409 3.194-6.754 8.21-6.755 13.272l.01 42.749c-19.51-21.286-37.38-39.499-24.625-65.61 12.271-25.121 39.526-36.248 39.522-50.875Zm-98.069-111.057-120.66.01c-11.062-.008-17.11 13.548-9.005 21.652 4.411 4.412 9.006 3.743 14.724 3.752l114.943.001c11.061-.012 17.11-13.547 8.995-21.662-2.337-2.297-5.522-3.747-8.997-3.753Zm-22.104 64.763-.018 139.854c-.003 10.485-4.31 20.054-11.259 26.942-24.283 24.283-65.153 6.467-65.148-26.949l.058-139.853Zm-53.57-104.053 28.97-.012.012-155.976c.004-3.424 1.039-6.847 3.286-9.802l21.841-29.147-20.437-61.602-38.244-.004-20.443 61.605 21.423 28.643a16.17 16.17 0 0 1 3.653 10.31Zm0 0" transform="matrix(.19368 -.19303 -.19368 -.19303 108.774 391.803)"/>
    <path fill-rule="evenodd" stroke-width="5.12" d="M230.777 198.829h-.004c-1.664-.906-3.483-.906-5.026 0l-76.839 44.356 6.799-57.094c.958-7.995 8.272-14.524 16.27-14.524h112.528c7.998 0 15.316 6.529 16.267 14.524l6.802 57.094Zm27.462-17.408c-2.816 0-5.075 2.257-5.106 5.106 0 2.802 2.303 5.104 5.106 5.104s5.106-2.302 5.106-5.104a5.105 5.105 0 0 0-5.106-5.106Zm-60.072 10.178a5.114 5.114 0 0 0 5.106-5.104 5.094 5.094 0 0 0-5.106-5.103 5.095 5.095 0 0 0-5.103 5.103c0 2.802 2.303 5.104 5.103 5.104Zm12.315-5.104c0 2.802 2.288 5.104 5.059 5.104h25.327c2.8 0 5.103-2.302 5.103-5.104a5.094 5.094 0 0 0-5.103-5.103h-25.28c-2.803 0-5.106 2.301-5.106 5.103Zm0 0" transform="scale(1.22782 1.22542)"/>
    <path stroke-width="5.12" d="m331.276 283.379-97.97-56.575V212.05l103.273 59.632ZM255.9 349.494a51 51 0 0 1-22.63 8.03l-.013-119.009 93.863 54.169-20.734 46.164a71 71 0 0 0-11.635-.954 71.04 71.04 0 0 0-38.851 11.604Zm-105.892-10.646-20.737-46.168 93.818-54.168v119.025a50.8 50.8 0 0 1-22.63-8.027 71 71 0 0 0-38.852-11.59 71 71 0 0 0-11.602.924Zm73.084-112.044-97.97 56.571-5.255-11.705 103.273-59.635V226.8Zm0 0" transform="scale(1.22782 1.22542)"/>
    <path fill-rule="evenodd" stroke-width="5.12" d="M184.712 140.296c.592-4.788 4.986-8.708 9.742-8.708h67.418c4.785 0 9.15 3.92 9.739 8.708l2.529 21.084h-91.957Zm26.992 2.044a5.09 5.09 0 0 0-5.103 5.106c0 2.802 2.3 5.104 5.103 5.104h33.033c2.803 0 5.106-2.302 5.106-5.104a5.1 5.1 0 0 0-1.492-3.615 5.1 5.1 0 0 0-3.614-1.491Zm0 0" transform="scale(1.22782 1.22542)"/>
    <path stroke-width="5.12" d="M406.24 348.066v38.307c-1.377 0-2.723.56-3.754 1.667-18.436 20.251-48.867 24.051-71.659 9.1-21.888-14.357-50.213-14.357-72.13 0-18.526 12.149-42.504 12.149-61.01 0-21.89-14.357-50.258-14.357-72.13 0-22.8 14.922-53.217 11.167-71.66-9.1a5.1 5.1 0 0 0-3.757-1.639v-38.306c20.145 22.16 53.334 26.235 78.19 9.936 20.219-13.254 46.38-13.254 66.585 0 20.174 13.254 46.335 13.254 66.556 0 20.206-13.254 46.35-13.254 66.556 0 24.886 16.27 58.072 12.193 78.216-9.965ZM243.582 111.563l1.18 9.846h-33.157l1.18-9.846c.214-1.712 1.76-3.09 3.455-3.09h23.903c1.695 0 3.242 1.378 3.439 3.09Zm0 0" transform="scale(1.22782 1.22542)"/>
  </g>
</svg>
