<?xml version="1.0" encoding="UTF-8" standalone="no"?>
<!DOCTYPE svg PUBLIC "-//W3C//DTD SVG 1.1//EN" "http://www.w3.org/Graphics/SVG/1.1/DTD/svg11.dtd">
<svg width="100%" height="100%" viewBox="0 0 100 100" version="1.1" xmlns="http://www.w3.org/2000/svg" xmlns:xlink="http://www.w3.org/1999/xlink" xml:space="preserve" xmlns:serif="http://www.serif.com/" style="fill-rule:evenodd;clip-rule:evenodd;stroke-linejoin:round;stroke-miterlimit:2;">
    <g transform="matrix(0.0708171,0.0708171,-0.0708171,0.0708171,50,-34.9806)">
        <path d="M322.64,850.6L399.609,850.6L399.609,776.866C399.609,666.286 489.234,576.476 600.849,576.476C711.329,576.476 801.239,666.382 801.239,776.866L801.239,850.6L877.411,850.6C884.536,849.194 889.552,842.772 889.552,835.131L889.552,739.975C889.552,732.334 884.536,725.959 877.411,724.506L853.411,719.772C843.755,717.85 836.395,711.522 833.067,702.241C830.723,695.725 828.098,689.303 825.145,683.069C820.926,674.162 821.629,664.46 827.114,656.303L840.755,636.006C844.786,629.959 843.802,621.85 838.411,616.459L771.145,549.193C765.754,543.802 757.645,542.818 751.598,546.849L731.301,560.49C723.098,565.974 713.395,566.677 704.535,562.459C698.301,559.505 691.926,556.834 685.363,554.537C676.082,551.255 669.707,543.896 667.832,534.193L663.098,510.193C661.691,503.068 655.27,498.052 647.629,498.052L552.473,498.052C544.832,498.052 538.457,503.067 537.004,510.193L532.269,534.193C530.347,543.849 524.019,551.209 514.738,554.537C508.223,556.88 501.8,559.505 495.566,562.459C486.66,566.677 476.957,565.974 468.8,560.49L448.503,546.849C442.456,542.818 434.347,543.802 428.956,549.193L361.69,616.459C356.3,621.849 355.315,629.959 359.346,636.006L372.987,656.303C378.472,664.459 379.175,674.209 374.956,683.069C372.003,689.303 369.331,695.678 367.034,702.241C363.753,711.522 356.393,717.897 346.69,719.772L322.69,724.506C315.565,725.912 310.549,732.334 310.549,739.975L310.549,835.131C310.456,842.772 315.518,849.193 322.643,850.6L322.64,850.6ZM358.031,256.97C373.547,256.97 373.547,280.548 358.031,280.548L312.281,280.548L312.281,484.828L385.922,529.406C390.281,534.187 389.953,541.64 385.172,546C380.391,550.36 372.938,550.031 368.578,545.25L292.594,498.047C290.203,495.891 288.703,492.75 288.703,489.281L288.703,268.781C288.703,262.266 294,256.969 300.515,256.969L358.031,256.97ZM841.971,280.548C826.455,280.548 826.455,256.97 841.971,256.97L899.487,256.97C906.003,256.97 911.299,262.267 911.299,268.782L911.299,489.332C911.299,492.801 909.799,495.941 907.408,498.098L831.424,545.301C827.065,550.082 819.612,550.41 814.83,546.051C810.048,541.691 809.721,534.239 814.08,529.457L887.721,484.879L887.721,280.559L841.971,280.548ZM525.571,122.488C525.571,138.004 501.993,138.004 501.993,122.488L501.993,87.426C501.993,71.91 525.571,71.91 525.571,87.426L525.571,122.488ZM453.759,170.722C469.275,170.722 469.275,194.3 453.759,194.3L418.697,194.3C403.181,194.3 403.181,170.722 418.697,170.722L453.759,170.722ZM453.759,228.238C469.275,228.238 469.275,251.816 453.759,251.816L418.697,251.816C403.181,251.816 403.181,228.238 418.697,228.238L453.759,228.238ZM453.759,285.707C469.275,285.707 469.275,309.285 453.759,309.285L418.697,309.285C403.181,309.285 403.181,285.707 418.697,285.707L453.759,285.707ZM453.759,343.223C469.275,343.223 469.275,366.801 453.759,366.801L418.697,366.801C403.181,366.801 403.181,343.223 418.697,343.223L453.759,343.223ZM781.319,170.723C796.835,170.723 796.835,194.301 781.319,194.301L746.257,194.301C730.741,194.301 730.741,170.723 746.257,170.723L781.319,170.723ZM781.319,228.239C796.835,228.239 796.835,251.817 781.319,251.817L746.257,251.817C730.741,251.817 730.741,228.239 746.257,228.239L781.319,228.239ZM781.319,285.708C796.835,285.708 796.835,309.286 781.319,309.286L746.257,309.286C730.741,309.286 730.741,285.708 746.257,285.708L781.319,285.708ZM781.319,343.224C796.835,343.224 796.835,366.802 781.319,366.802L746.257,366.802C730.741,366.802 730.741,343.224 746.257,343.224L781.319,343.224ZM698.022,450.104C698.022,465.62 674.444,465.62 674.444,450.104L674.444,415.042C674.444,399.526 698.022,399.526 698.022,415.042L698.022,450.104ZM640.553,450.104C640.553,465.62 616.975,465.62 616.975,450.104L616.975,415.042C616.975,399.526 640.553,399.526 640.553,415.042L640.553,450.104ZM583.037,450.104C583.037,465.62 559.459,465.62 559.459,450.104L559.459,415.042C559.459,399.526 583.037,399.526 583.037,415.042L583.037,450.104ZM525.568,450.104C525.568,465.62 501.99,465.62 501.99,450.104L501.99,415.042C501.99,399.526 525.568,399.526 525.568,415.042L525.568,450.104ZM698.018,122.494C698.018,138.01 674.44,138.01 674.44,122.494L674.44,87.432C674.44,71.916 698.018,71.916 698.018,87.432L698.018,122.494ZM640.549,122.494C640.549,138.01 616.971,138.01 616.971,122.494L616.971,87.432C616.971,71.916 640.549,71.916 640.549,87.432L640.549,122.494ZM583.033,122.494C583.033,138.01 559.455,138.01 559.455,122.494L559.455,87.432C559.455,71.916 583.033,71.916 583.033,87.432L583.033,122.494ZM487.127,147.15L712.867,147.15C717.695,147.15 721.586,151.087 721.586,155.869L721.586,381.609C721.586,386.437 717.695,390.328 712.867,390.328L487.127,390.328C482.299,390.328 478.408,386.437 478.408,381.609L478.408,155.899C478.408,151.071 482.299,147.133 487.127,147.133L487.127,147.15ZM542.955,192.9C532.643,192.9 524.158,201.384 524.158,211.697L524.158,325.787C524.158,336.146 532.595,344.584 542.955,344.584L657.045,344.584C667.357,344.584 675.842,336.1 675.842,325.787L675.842,211.697C675.842,201.338 667.404,192.9 657.045,192.9L542.955,192.9ZM652.975,215.775L546.995,215.775L546.995,321.755L652.975,321.755L652.975,215.775ZM477.895,1053.06C477.895,1073.26 461.536,1089.62 441.379,1089.62C421.176,1089.62 404.817,1073.26 404.817,1053.06C404.817,1036.93 415.223,1023.29 429.708,1018.41L429.567,956.445L429.614,956.445C429.614,952.836 431.255,949.273 434.442,946.976L495.192,902.351L495.099,776.911C495.099,719.02 541.927,672.001 600.849,672.001C658.646,672.001 705.759,719.11 705.759,776.911L705.759,902.301L765.853,946.457C769.134,948.567 771.337,952.223 771.337,956.442L771.196,1018.41C785.68,1023.29 796.087,1036.93 796.087,1053.05C796.087,1073.26 779.728,1089.61 759.525,1089.61C739.322,1089.61 723.009,1073.26 723.009,1053.05C723.009,1036.93 733.415,1023.29 747.9,1018.41L747.76,962.395L687.01,917.77C683.869,915.473 682.182,911.91 682.182,908.301L682.135,908.301L682.182,776.911C682.182,732.052 645.901,695.583 600.01,695.583C555.244,695.583 518.682,732.145 518.682,776.911L518.682,908.251C518.682,912.423 516.479,916.126 513.197,918.235L453.103,962.391L452.963,1018.41C467.447,1023.24 477.901,1036.92 477.901,1053.05L477.895,1053.06ZM636.995,1087.65C636.995,1107.85 620.636,1124.21 600.479,1124.21C580.276,1124.21 563.917,1107.85 563.917,1087.65C563.917,1071.52 574.323,1057.88 588.808,1053.01L588.667,777.988C588.667,762.472 612.245,762.472 612.245,777.988L612.105,1053.01C626.589,1057.88 636.996,1071.57 636.996,1087.65L636.995,1087.65ZM303.995,937.749C303.995,908.358 336.901,891.296 360.854,907.374L423.245,861.296L423.245,776.926C423.245,679.473 502.604,600.116 600.055,600.116C698.633,600.116 777.715,679.335 777.715,776.926L777.715,861.296L840.106,907.374C864.106,891.296 896.965,908.358 896.965,937.749C896.965,957.952 880.606,974.311 860.403,974.311C835.091,974.311 817.7,949.28 825.856,925.795C821.825,923.639 769.512,884.029 759.575,877.233C756.294,875.124 754.091,871.467 754.091,867.249L754.091,776.929C754.091,692.46 685.325,623.689 600.851,623.689C515.304,623.689 446.821,692.361 446.821,776.929L446.821,867.209L446.774,867.209C446.774,870.818 445.133,874.381 441.946,876.677L375.008,925.708C383.164,949.239 365.773,974.224 340.461,974.224C320.352,974.271 303.992,957.912 303.992,937.755L303.995,937.749Z" style="fill:rgb(204,204,204);stroke:black;stroke-width:9.98px;"/>
    </g>
</svg>
