<svg xmlns="http://www.w3.org/2000/svg" xml:space="preserve" width="512" height="512" fill-rule="evenodd" stroke-linejoin="round" stroke-miterlimit="2" clip-rule="evenodd" viewBox="0 0 512 512">
  <path fill="#ccc" stroke="#000" stroke-width="5.12" d="M126.193 466.4h129.602v32.401H126.193zm-32.401-48.601h16.2v81.002h-16.2zm32.401 0h129.602V450.2H126.193z"/>
  <path fill="#ccc" fill-rule="nonzero" stroke="#000" stroke-width="5.12" d="M28.99 442.099V474.5c0 13.398 10.904 24.301 24.301 24.301h24.301v-81.002H53.291c-13.397 0-24.301 10.902-24.301 24.3Z"/>
  <path fill="#ccc" stroke="#000" stroke-width="5.12" d="M336.797 174.793h113.411v16.2H336.797z"/>
  <path fill="#ccc" fill-rule="nonzero" stroke="#000" stroke-width="5.12" d="M336.797 458.3a4.99 4.99 0 0 0-2.777-4.48l-13.423-6.706v22.381l13.43-6.715a5 5 0 0 0 2.77-4.479Z"/>
  <path fill="#ccc" fill-rule="nonzero" stroke="#000" stroke-width="5.12" d="m438.616 298.475-4.617-2.201v-89.078h-81v89.078l-4.617 2.195c-36.564 17.398-60.184 54.701-60.184 95.031 0 6.854.802 13.657 2.113 20.347l50.967 25.482c7.224 3.625 11.721 10.894 11.721 18.971 0 8.079-4.496 15.349-11.713 18.97l-6.747 3.37c17.326 11.733 37.828 18.164 58.961 18.164 58.061 0 105.301-47.24 105.301-105.304 0-40.33-23.621-77.632-60.185-95.023zm-166.62 195.303 32.401-16.2v-38.589l-32.401-16.2z"/>
  <path fill="#ccc" stroke="#000" stroke-width="5.12" d="M12.79 271.996h32.401v16.2H12.79zm48.601 0h32.401v16.2H61.391zM12.79 304.397h81.002v16.2H12.79zm0 32.401h81.002v16.2H12.79zm0 32.4h16.2v16.2h-16.2zm32.401 0h16.2v16.2h-16.2z"/>
  <path fill="#ccc" fill-rule="nonzero" stroke="#000" stroke-width="5.12" d="m244.074 384.548 7.249-14.492-60.33-30.164v-69.385c9.404-3.354 16.2-12.265 16.2-22.81 0-1.004-.178-1.968-.298-2.942l23.976-11.988c4.375 4.205 10.287 6.829 16.824 6.829s12.45-2.624 16.825-6.835l44.356 22.178 7.249-14.491-44.421-22.211c.113-.972.292-1.936.292-2.941 0-10.546-6.797-19.456-16.201-22.81v-51.589c9.404-3.354 16.201-12.265 16.201-22.81 0-1.006-.179-1.968-.3-2.942l23.977-11.988c4.375 4.213 10.287 6.838 16.824 6.838s12.449-2.625 16.824-6.836l23.976 11.99c-.12.979-.298 1.942-.298 2.947 0 10.546 6.796 19.456 16.2 22.81v17.69H385.4v-17.69c9.404-3.354 16.2-12.265 16.2-22.81 0-13.397-10.903-24.301-24.3-24.301-6.538 0-12.45 2.625-16.825 6.836l-23.976-11.988c.12-.98.298-1.944.298-2.948 0-13.397-10.903-24.3-24.3-24.3s-24.301 10.903-24.301 24.3c0 1.004.179 1.968.3 2.942l-23.977 11.988c-4.375-4.205-10.287-6.829-16.824-6.829s-12.449 2.624-16.824 6.836L190.994 80.69V12.791h-16.202v67.896l-39.877 19.942c-4.375-4.211-10.287-6.836-16.824-6.836-13.397 0-24.301 10.903-24.301 24.3 0 10.547 6.797 19.457 16.201 22.81v51.59c-9.404 3.353-16.201 12.263-16.201 22.81 0 1.004.179 1.967.3 2.941l-44.421 22.21 7.249 14.492 44.356-22.179c4.367 4.204 10.281 6.828 16.817 6.828s12.449-2.624 16.824-6.835l23.976 11.988c-.12.98-.3 1.942-.3 2.948 0 10.546 6.797 19.456 16.201 22.81v69.385l-60.323 30.165 7.249 14.492 61.172-30.596zM166.07 230.232l-23.976-11.99c.12-.98.298-1.942.298-2.947 0-10.547-6.796-19.457-16.2-22.81v-51.59c9.404-3.353 16.2-12.263 16.2-22.809 0-1.006-.178-1.969-.298-2.942l40.8-20.395 40.8 20.395c-.12.981-.3 1.945-.3 2.949 0 10.546 6.797 19.456 16.201 22.81v51.589c-9.404 3.354-16.201 12.265-16.201 22.81 0 1.004.179 1.968.3 2.941l-23.976 11.99c-4.375-4.213-10.287-6.838-16.825-6.838s-12.449 2.624-16.824 6.836z"/>
</svg>
