<svg xmlns="http://www.w3.org/2000/svg" xml:space="preserve" width="512" height="512" fill-rule="evenodd" stroke-linejoin="round" stroke-miterlimit="2" clip-rule="evenodd" viewBox="0 0 512 512">
  <path fill="#ccc" stroke="#000" stroke-width="5.12" d="m64.568 246.298 27.909 27.904 26.737-26.732c40.09-40.095 105.155-40.161 145.623.307 40.059 40.059 40.059 105.257 0 145.316L238.1 419.825l27.622 27.622c3.092 2.074 7.24 1.562 10.01-1.208l34.499-34.504c2.775-2.765 3.267-6.897 1.208-10.01l-6.984-10.419a13.62 13.62 0 0 1-1.024-13.732 108 108 0 0 0 4.081-9.825 13.57 13.57 0 0 1 10.419-8.991l12.308-2.406c3.651-.732 6.236-4.029 6.236-7.936v-48.778c0-3.912-2.586-7.209-6.236-7.936l-12.308-2.417a13.62 13.62 0 0 1-10.419-8.991 102 102 0 0 0-4.076-9.825 13.52 13.52 0 0 1 1.019-13.732l6.984-10.419c2.074-3.092 1.567-7.24-1.208-10.01l-34.499-34.504c-2.77-2.765-6.902-3.261-10.01-1.203l-10.419 6.984c-4.198 2.806-9.165 3.174-13.737 1.024a108 108 0 0 0-9.82-4.081 13.57 13.57 0 0 1-8.991-10.419l-2.417-12.308c-.727-3.651-4.024-6.236-7.936-6.236h-48.778c-3.907 0-7.209 2.586-7.936 6.236l-2.417 12.308a13.57 13.57 0 0 1-8.991 10.419 102 102 0 0 0-9.82 4.076 13.52 13.52 0 0 1-13.737-1.019l-10.414-6.984c-3.098-2.074-7.245-1.567-10.015 1.203l-34.499 34.504c-2.806 2.734-3.297 6.902-1.229 9.994zM292.644 43.889c5.622 5.627-2.924 14.172-8.55 8.55L267.505 35.85l-74.066 74.066 10.537 42.865c-.154 3.313-2.975 5.898-6.287 5.745s-5.898-2.97-5.745-6.287l-10.44-44.668a6.04 6.04 0 0 1 1.772-4.588l79.943-79.948a6.06 6.06 0 0 1 8.566 0zm166.917 184.013c-5.627-5.622 2.924-14.172 8.55-8.545l20.854 20.854a6.06 6.06 0 0 1 0 8.566l-79.969 79.968a6.04 6.04 0 0 1-4.588 1.766l-44.667-10.435a6.04 6.04 0 0 1-6.287-5.745 6.04 6.04 0 0 1 5.745-6.287l42.865 10.537 74.086-74.086zM402.15 55.88c-5.627 5.627-14.177-2.918-8.55-8.55l12.713-12.713c5.627-5.622 14.177 2.924 8.55 8.55zm-43.525-8.55c5.622 5.632-2.924 14.177-8.55 8.55l-12.718-12.718c-5.627-5.627 2.918-14.172 8.55-8.55zm-20.854 20.854c5.622 5.632-2.924 14.177-8.55 8.55l-12.713-12.713c-5.627-5.627 2.918-14.172 8.55-8.55zm-20.838 20.838c5.627 5.627-2.924 14.177-8.55 8.55L295.67 84.859c-5.627-5.627 2.924-14.177 8.55-8.55zm-20.854 20.854c5.622 5.632-2.924 14.177-8.55 8.55l-12.713-12.713c-5.627-5.627 2.918-14.172 8.55-8.55zm181.31 56.217c5.632 5.627-2.918 14.177-8.55 8.55l-12.708-12.713c-5.632-5.627 2.918-14.177 8.55-8.55zm-20.854 20.854c5.627 5.627-2.918 14.177-8.55 8.55l-12.708-12.713c-5.632-5.627 2.918-14.177 8.55-8.55zm-20.838 20.838c5.632 5.627-2.918 14.177-8.55 8.55l-12.708-12.713c-5.632-5.632 2.918-14.177 8.55-8.55zm-20.854 20.854c5.632 5.627-2.918 14.177-8.55 8.55l-12.708-12.713c-5.632-5.627 2.918-14.177 8.55-8.55zm-68.951 8.55c-5.632 5.627-14.177-2.918-8.55-8.55l12.713-12.713c5.627-5.622 14.172 2.924 8.55 8.55zm-20.838-20.838c-5.627 5.632-14.177-2.918-8.55-8.55l12.713-12.708c5.627-5.632 14.177 2.918 8.55 8.55zM304.2 195.497c-5.627 5.632-14.177-2.918-8.55-8.55l12.713-12.708c5.627-5.632 14.177 2.918 8.55 8.55zm-20.838-20.838c-5.627 5.632-14.177-2.918-8.55-8.55l12.713-12.708c5.627-5.627 14.177 2.918 8.55 8.55zm181.315-56.253c-5.632 5.622-14.177-2.924-8.55-8.55l12.713-12.713c5.627-5.627 14.172 2.918 8.55 8.55zm-20.838-20.838c-5.627 5.627-14.177-2.924-8.55-8.55l12.713-12.713c5.627-5.627 14.177 2.924 8.55 8.55zm-20.854-20.854c-5.627 5.627-14.177-2.924-8.55-8.55l12.713-12.713c5.627-5.627 14.177 2.924 8.55 8.55zM379.27 50.878l81.848 81.848a4.48 4.48 0 0 1 0 6.323l-81.849 81.848a4.454 4.454 0 0 1-6.323 0l-81.848-81.848a4.454 4.454 0 0 1 0-6.323l81.838-81.833a4.485 4.485 0 0 1 6.339-.015zm3.656 36.828a9.677 9.677 0 0 0-13.635 0l-41.37 41.37a9.65 9.65 0 0 0 0 13.629l41.37 41.37c3.738 3.738 9.892 3.738 13.635 0l41.37-41.37a9.65 9.65 0 0 0 0-13.629zm31.596 48.189-38.426-38.426-38.426 38.426 38.426 38.426zM47.457 375.997a18.739 18.739 0 1 1-26.501-26.496 18.74 18.74 0 0 1 21.591-3.538l22.415-22.523.015.02a5.94 5.94 0 0 1 5.187-1.684l38.205 5.847 45.45-45.517c20.992-20.992 55.014-21.059 76.38.307 20.956 20.956 20.956 55.117 0 76.073l-45.466 45.466 5.786 37.801c.42 1.956-.102 4.081-1.638 5.606l-22.518 22.42a18.739 18.739 0 1 1-8.448-8.448l20.26-20.362-5.847-38.205a6.04 6.04 0 0 1 1.684-5.187l-.015-.015 47.652-47.621c16.266-16.266 16.333-42.644-.307-59.284-16.23-16.23-42.742-16.23-58.972 0l-47.621 47.621a6.1 6.1 0 0 1-5.612 1.633l-37.796-5.78-20.362 20.26a18.74 18.74 0 0 1-3.517 21.606zM92.6 446.223a18.739 18.739 0 1 1-26.496-26.496 18.74 18.74 0 0 1 21.586-3.533l99.666-99.768c5.627-5.632 14.172 2.918 8.55 8.55l-99.778 99.661a18.74 18.74 0 0 1-3.533 21.581zM26.209 271.135c10.66-10.655 28.774-4.915 31.631 9.6l39.332 5.919 30.587-30.592c35.338-35.333 92.882-35.333 128.22 0 35.738 35.738 35.686 93.138.307 128.522l-30.596 30.597 5.914 39.327c14.531 2.872 20.26 20.977 9.605 31.631a18.74 18.74 0 0 1-26.516 0c-9.175-9.175-6.405-24.561 5.069-30.116-.681-2.243-5.289-35.574-6.426-41.641-.425-1.956.102-4.081 1.628-5.606l32.753-32.753c30.623-30.623 30.628-80.492 0-111.119-31.022-31.022-80.748-30.95-111.411-.287l-32.737 32.732-.015-.015a5.94 5.94 0 0 1-5.181 1.679l-42.053-6.497c-5.576 11.489-20.941 14.244-30.116 5.069a18.69 18.69 0 0 1 0-26.45z"/>
</svg>
