<svg xmlns="http://www.w3.org/2000/svg" xml:space="preserve" width="512" height="512" fill-rule="evenodd" clip-rule="evenodd" viewBox="0 0 512 512">
  <g fill="#ccc" stroke="#000" stroke-width="5.12">
    <path fill-rule="nonzero" d="M308.116 117.028h-17.372v34.744h-69.488v-34.744h-17.372v104.228h104.233z"/>
    <path d="M203.884 238.628h104.228V256H203.884z"/>
    <path fill-rule="nonzero" d="M186.516 12.8H82.284v86.856h104.228V12.8zm-69.488 34.744H99.656V30.172h17.372zm34.744 0H134.4V30.172h17.372z"/>
    <path d="M238.628 82.284h34.744v17.372h-34.744z"/>
    <path fill-rule="nonzero" d="M221.256 64.916h69.489v34.739h17.372V12.8H203.884v86.856h17.372z"/>
    <path d="M30.172 90.972h34.744v86.856H30.172zm208.456 26.056h34.744V134.4h-34.744z"/>
    <path fill-rule="nonzero" d="M325.484 273.372H186.516V117.028H82.284V499.2h347.428V117.028H325.484zm-182.4 208.456H99.656v-60.8h17.372v43.423h26.056zm34.744 0h-17.372v-17.377h17.372zm78.172 0c-52.767 0-95.544-42.778-95.544-95.544s42.777-95.54 95.544-95.54 95.544 42.772 95.544 95.539c-.066 52.747-42.798 95.483-95.544 95.545Zm69.484-382.172h104.233V47.544h-34.744V30.172h34.744V12.8H325.484z"/>
    <path fill-rule="nonzero" d="M256 308.116c-43.172 0-78.172 34.995-78.172 78.172s35 78.168 78.172 78.168 78.172-34.995 78.172-78.172c-.051-43.146-35.021-78.121-78.172-78.167Zm60.8 104.228h-34.744v34.739h-52.112v-34.739H195.2v-52.116h34.744v-34.744h52.111v34.744h34.744z"/>
    <path fill-rule="nonzero" d="M264.684 342.856h-17.367V377.6h-34.744v17.372h34.744v34.744h17.367v-34.744h34.744V377.6h-34.744z"/>
    <path d="M447.084 90.972h34.744v86.856h-34.744z"/>
  </g>
</svg>
