<?xml version="1.0" encoding="UTF-8" standalone="no"?>
<!DOCTYPE svg PUBLIC "-//W3C//DTD SVG 1.1//EN" "http://www.w3.org/Graphics/SVG/1.1/DTD/svg11.dtd">
<svg width="100%" height="100%" viewBox="0 0 100 100" version="1.1" xmlns="http://www.w3.org/2000/svg" xmlns:xlink="http://www.w3.org/1999/xlink" xml:space="preserve" xmlns:serif="http://www.serif.com/" style="fill-rule:evenodd;clip-rule:evenodd;stroke-linejoin:round;stroke-miterlimit:2;">
    <g transform="matrix(0.95,0,0,0.95,2.5,2.5)">
        <g>
            <path d="M31.25,28.571L31.25,39.285C31.251,40.764 32.45,41.962 33.929,41.964L44.643,41.964C46.122,41.963 47.32,40.764 47.321,39.285L47.321,28.571C47.32,27.092 46.121,25.894 44.643,25.893L33.929,25.893C32.45,25.895 31.251,27.093 31.25,28.571ZM36.607,27.679C37.637,27.682 38.614,28.133 39.286,28.913C40.157,27.903 41.519,27.465 42.815,27.778C44.111,28.091 45.123,29.103 45.436,30.399C45.749,31.695 45.311,33.058 44.301,33.928C45.311,34.799 45.749,36.161 45.436,37.457C45.123,38.753 44.111,39.765 42.815,40.079C41.519,40.392 40.156,39.954 39.286,38.944C38.415,39.954 37.053,40.392 35.757,40.079C34.461,39.766 33.449,38.754 33.135,37.457C32.822,36.161 33.26,34.799 34.27,33.928C33.142,32.955 32.739,31.384 33.261,29.989C33.783,28.594 35.118,27.672 36.607,27.679Z" style="fill:rgb(204,204,204);fill-rule:nonzero;stroke:black;stroke-width:1.05px;"/>
            <path d="M42.857,70.535L46.429,70.535C46.922,70.535 47.322,70.935 47.322,71.429L47.322,75C47.322,75.493 46.923,75.893 46.429,75.893L42.857,75.893C42.364,75.893 41.964,75.494 41.964,75L41.964,71.429C41.964,70.936 42.364,70.535 42.857,70.535Z" style="fill:rgb(204,204,204);fill-rule:nonzero;stroke:black;stroke-width:1.05px;"/>
            <circle cx="36.607" cy="36.607" r="1.786" style="fill:rgb(204,204,204);stroke:black;stroke-width:1.05px;"/>
            <path d="M32.143,70.535L35.714,70.535C36.207,70.535 36.607,70.935 36.607,71.429L36.607,75C36.607,75.493 36.208,75.893 35.714,75.893L32.143,75.893C31.65,75.893 31.25,75.494 31.25,75L31.25,71.429C31.25,70.936 31.65,70.535 32.143,70.535Z" style="fill:rgb(204,204,204);fill-rule:nonzero;stroke:black;stroke-width:1.05px;"/>
            <path d="M32.143,49.107L35.714,49.107C36.207,49.107 36.607,49.507 36.607,50L36.607,53.571C36.607,54.064 36.208,54.465 35.714,54.465L32.143,54.465C31.65,54.465 31.25,54.065 31.25,53.571L31.25,50C31.25,49.507 31.65,49.107 32.143,49.107Z" style="fill:rgb(204,204,204);fill-rule:nonzero;stroke:black;stroke-width:1.05px;"/>
            <path d="M42.857,49.107L46.429,49.107C46.922,49.107 47.322,49.507 47.322,50L47.322,53.571C47.322,54.064 46.923,54.465 46.429,54.465L42.857,54.465C42.364,54.465 41.964,54.065 41.964,53.571L41.964,50C41.964,49.507 42.364,49.107 42.857,49.107Z" style="fill:rgb(204,204,204);fill-rule:nonzero;stroke:black;stroke-width:1.05px;"/>
            <circle cx="36.607" cy="31.25" r="1.786" style="fill:rgb(204,204,204);stroke:black;stroke-width:1.05px;"/>
            <path d="M53.571,65.179L57.142,65.179C57.635,65.178 58.035,64.779 58.035,64.285L58.035,58.035L52.679,58.035L52.679,64.285C52.68,64.778 53.078,65.178 53.571,65.179Z" style="fill:rgb(204,204,204);fill-rule:nonzero;stroke:black;stroke-width:1.05px;"/>
            <path d="M58.035,50C58.035,49.507 57.636,49.108 57.142,49.107L53.571,49.107C53.078,49.108 52.679,49.507 52.678,50L52.678,56.25L58.034,56.25L58.034,50L58.035,50Z" style="fill:rgb(204,204,204);fill-rule:nonzero;stroke:black;stroke-width:1.05px;"/>
            <path d="M64.285,70.535L67.857,70.535C68.349,70.535 68.75,70.935 68.75,71.429L68.75,75C68.75,75.493 68.35,75.893 67.857,75.893L64.285,75.893C63.793,75.893 63.392,75.494 63.392,75L63.392,71.429C63.393,70.936 63.793,70.535 64.285,70.535Z" style="fill:rgb(204,204,204);fill-rule:nonzero;stroke:black;stroke-width:1.05px;"/>
            <path d="M53.571,70.535L57.142,70.535C57.635,70.535 58.035,70.935 58.035,71.429L58.035,75C58.035,75.493 57.636,75.893 57.142,75.893L53.571,75.893C53.078,75.893 52.678,75.494 52.678,75L52.678,71.429C52.679,70.936 53.078,70.535 53.571,70.535Z" style="fill:rgb(204,204,204);fill-rule:nonzero;stroke:black;stroke-width:1.05px;"/>
            <path d="M39.627,33.929C39.506,33.823 39.392,33.709 39.286,33.587C39.18,33.709 39.066,33.823 38.945,33.929C39.067,34.035 39.18,34.149 39.286,34.27C39.392,34.148 39.506,34.035 39.627,33.929Z" style="fill:rgb(204,204,204);fill-rule:nonzero;stroke:black;stroke-width:1.05px;"/>
            <circle cx="41.964" cy="36.607" r="1.786" style="fill:rgb(204,204,204);stroke:black;stroke-width:1.05px;"/>
            <circle cx="41.964" cy="31.25" r="1.786" style="fill:rgb(204,204,204);stroke:black;stroke-width:1.05px;"/>
            <path d="M32.143,59.821L46.429,59.821C46.922,59.821 47.322,60.22 47.322,60.715L47.322,64.285C47.322,64.779 46.923,65.179 46.429,65.179L32.143,65.179C31.65,65.179 31.25,64.78 31.25,64.285L31.25,60.715C31.25,60.221 31.65,59.821 32.143,59.821Z" style="fill:rgb(204,204,204);fill-rule:nonzero;stroke:black;stroke-width:1.05px;"/>
            <path d="M73.215,4.464L67.36,4.464C66.974,4.464 66.632,4.711 66.512,5.076L65.954,6.763C65.341,8.585 63.636,9.815 61.712,9.822L38.287,9.822C36.367,9.816 34.663,8.59 34.048,6.771L33.488,5.077C33.367,4.712 33.026,4.465 32.64,4.465L26.786,4.465C26.293,4.465 25.894,4.865 25.893,5.358L25.893,94.644C25.893,95.137 26.293,95.537 26.786,95.537L73.215,95.537C73.707,95.537 74.107,95.138 74.108,94.644L74.108,5.357C74.106,4.864 73.707,4.465 73.215,4.464ZM50.893,50C50.895,48.521 52.093,47.323 53.572,47.321L57.143,47.321C58.622,47.323 59.821,48.521 59.822,50L59.822,64.285C59.821,65.764 58.622,66.963 57.143,66.965L53.572,66.965C52.093,66.963 50.895,65.764 50.893,64.285L50.893,50ZM50.893,71.429C50.895,69.95 52.093,68.752 53.572,68.75L57.143,68.75C58.622,68.752 59.821,69.949 59.822,71.429L59.822,75C59.821,76.479 58.622,77.677 57.143,77.679L53.572,77.679C52.093,77.677 50.895,76.479 50.893,75L50.893,71.429ZM44.643,24.107C47.107,24.11 49.104,26.107 49.107,28.571L49.107,39.285C49.105,41.749 47.107,43.747 44.643,43.749L33.929,43.749C31.464,43.747 29.467,41.749 29.465,39.285L29.465,28.571C29.467,26.107 31.465,24.11 33.929,24.107L44.643,24.107ZM46.429,66.965L32.143,66.965C30.664,66.963 29.466,65.764 29.464,64.285L29.464,60.715C29.465,59.236 30.664,58.037 32.143,58.035L46.429,58.035C47.908,58.037 49.106,59.236 49.107,60.715L49.107,64.285C49.105,65.764 47.907,66.963 46.429,66.965ZM49.107,71.429L49.107,75C49.106,76.479 47.907,77.677 46.429,77.679L42.857,77.679C41.378,77.677 40.18,76.479 40.179,75L40.179,71.429C40.18,69.95 41.379,68.752 42.857,68.75L46.429,68.75C47.907,68.752 49.105,69.949 49.107,71.429ZM29.464,53.571L29.464,50C29.465,48.521 30.664,47.323 32.143,47.321L35.714,47.321C37.193,47.323 38.391,48.521 38.393,50L38.393,53.571C38.391,55.05 37.193,56.248 35.714,56.25L32.143,56.25C30.664,56.248 29.466,55.051 29.464,53.571ZM46.429,56.25L42.857,56.25C41.378,56.248 40.18,55.051 40.179,53.571L40.179,50C40.18,48.521 41.379,47.323 42.857,47.321L46.429,47.321C47.908,47.323 49.106,48.521 49.107,50L49.107,53.571C49.105,55.051 47.907,56.248 46.429,56.25ZM28.571,16.071C28.571,15.597 28.759,15.143 29.094,14.808C29.429,14.473 29.883,14.285 30.357,14.285L35.714,14.285C36.7,14.285 37.5,15.084 37.5,16.071C37.5,17.058 36.701,17.857 35.714,17.857L30.357,17.857C29.883,17.857 29.429,17.669 29.094,17.335C28.759,17 28.571,16.545 28.571,16.071ZM32.143,77.679C30.664,77.677 29.466,76.479 29.464,75L29.464,71.429C29.465,69.95 30.664,68.752 32.143,68.75L35.714,68.75C37.193,68.752 38.391,69.949 38.393,71.429L38.393,75C38.391,76.479 37.193,77.677 35.714,77.679L32.143,77.679ZM62.5,91.965L37.5,91.965C37.007,91.965 36.607,91.565 36.607,91.071C36.607,90.577 37.007,90.178 37.5,90.178L62.5,90.178C62.993,90.178 63.393,90.577 63.393,91.071C63.393,91.565 62.993,91.965 62.5,91.965ZM70.535,75C70.534,76.479 69.336,77.677 67.857,77.679L64.285,77.679C62.806,77.677 61.609,76.479 61.607,75L61.607,71.429C61.609,69.95 62.806,68.752 64.285,68.75L67.857,68.75C69.336,68.752 70.534,69.949 70.535,71.429L70.535,75ZM70.535,64.285C70.534,65.764 69.336,66.963 67.857,66.965L64.285,66.965C62.806,66.963 61.609,65.764 61.607,64.285L61.607,50C61.609,48.521 62.806,47.323 64.285,47.321L67.857,47.321C69.336,47.323 70.534,48.521 70.535,50L70.535,64.285ZM70.535,39.286C70.533,41.75 68.536,43.748 66.071,43.75L55.357,43.75C52.892,43.748 50.895,41.75 50.892,39.286L50.892,28.571C50.895,26.107 52.892,24.11 55.357,24.107L66.071,24.107C68.536,24.11 70.533,26.107 70.535,28.571L70.535,39.286ZM69.643,17.857L60.715,17.857C59.729,17.857 58.929,17.058 58.929,16.071C58.929,15.084 59.729,14.285 60.715,14.285L69.643,14.285C70.629,14.285 71.429,15.084 71.429,16.071C71.429,17.058 70.629,17.857 69.643,17.857Z" style="fill:rgb(204,204,204);fill-rule:nonzero;stroke:black;stroke-width:1.05px;"/>
            <path d="M67.857,49.107L64.285,49.107C63.793,49.108 63.393,49.507 63.392,50L63.392,56.25L68.749,56.25L68.749,50C68.75,49.507 68.35,49.108 67.857,49.107Z" style="fill:rgb(204,204,204);fill-rule:nonzero;stroke:black;stroke-width:1.05px;"/>
            <path d="M63.393,64.285C63.394,64.778 63.793,65.178 64.286,65.179L67.858,65.179C68.35,65.178 68.751,64.779 68.751,64.285L68.751,58.035L63.394,58.035L63.394,64.285L63.393,64.285Z" style="fill:rgb(204,204,204);fill-rule:nonzero;stroke:black;stroke-width:1.05px;"/>
            <path d="M73.215,0L26.786,0C23.829,0.003 21.432,2.4 21.429,5.357L21.429,94.643C21.432,97.6 23.829,99.997 26.786,100L73.215,100C76.172,99.996 78.569,97.6 78.571,94.643L78.571,5.357C78.568,2.4 76.172,0.003 73.215,0ZM57.178,3.214C57.198,3.102 57.235,2.994 57.285,2.892C57.324,2.778 57.379,2.67 57.446,2.571C57.511,2.477 57.584,2.388 57.66,2.303C58.377,1.642 59.48,1.642 60.196,2.303C60.267,2.392 60.34,2.481 60.41,2.571C60.478,2.671 60.531,2.779 60.571,2.892C60.623,2.993 60.658,3.101 60.677,3.214C60.698,3.332 60.71,3.452 60.714,3.571C60.71,3.804 60.661,4.035 60.57,4.25C60.479,4.466 60.352,4.666 60.195,4.839C59.491,5.529 58.364,5.529 57.659,4.839C57.502,4.665 57.376,4.466 57.284,4.25C57.184,4.038 57.136,3.806 57.141,3.571C57.146,3.452 57.157,3.332 57.178,3.214ZM75.893,94.643C75.891,96.122 74.694,97.321 73.215,97.322L26.786,97.322C25.307,97.321 24.109,96.122 24.107,94.643L24.107,5.357C24.109,3.878 25.307,2.68 26.786,2.679L32.64,2.679C33.795,2.678 34.821,3.418 35.183,4.515L35.741,6.202C36.111,7.295 37.134,8.032 38.287,8.036L61.713,8.036C62.869,8.03 63.895,7.289 64.264,6.194L64.818,4.515C65.18,3.418 66.206,2.678 67.361,2.679L73.215,2.679C74.694,2.68 75.891,3.879 75.893,5.357L75.893,94.643Z" style="fill:rgb(204,204,204);fill-rule:nonzero;stroke:black;stroke-width:1.05px;stroke-linejoin:miter;stroke-miterlimit:4;"/>
            <path d="M66.071,25.893L55.357,25.893C53.878,25.894 52.679,27.093 52.678,28.571L52.678,39.285C52.679,40.764 53.878,41.962 55.357,41.964L66.071,41.964C67.55,41.963 68.748,40.764 68.75,39.285L68.75,28.571C68.748,27.093 67.551,25.895 66.071,25.893ZM57.143,27.679L64.286,27.679C64.78,27.679 65.18,28.078 65.18,28.572C65.18,29.066 64.781,29.465 64.286,29.465L57.143,29.465C56.651,29.465 56.25,29.065 56.25,28.572C56.25,28.079 56.65,27.679 57.143,27.679ZM57.773,36.869C58.003,37.094 58.093,37.424 58.011,37.735C57.929,38.046 57.687,38.288 57.376,38.37C57.065,38.452 56.735,38.361 56.511,38.132L54.726,36.346C54.558,36.179 54.464,35.951 54.464,35.715C54.464,35.479 54.558,35.251 54.726,35.084L56.511,33.298C56.736,33.069 57.066,32.978 57.376,33.06C57.686,33.142 57.929,33.385 58.011,33.695C58.093,34.006 58.003,34.336 57.773,34.561L56.619,35.716L57.773,36.869ZM61.346,38.131C60.996,38.473 60.436,38.471 60.09,38.125C59.743,37.779 59.74,37.218 60.083,36.869L61.237,35.715L60.083,34.561C59.74,34.211 59.743,33.651 60.09,33.305C60.436,32.959 60.996,32.956 61.346,33.299L63.131,35.085C63.299,35.252 63.393,35.48 63.393,35.716C63.393,35.952 63.299,36.18 63.131,36.347L61.346,38.131ZM66.703,36.346L64.917,38.132C64.567,38.474 64.007,38.472 63.66,38.126C63.314,37.78 63.312,37.219 63.654,36.87L64.808,35.716L63.654,34.562C63.312,34.212 63.314,33.652 63.66,33.306C64.007,32.96 64.567,32.957 64.917,33.3L66.703,35.086C66.87,35.253 66.965,35.481 66.965,35.717C66.965,35.953 66.87,36.178 66.703,36.346Z" style="fill:rgb(204,204,204);fill-rule:nonzero;stroke:black;stroke-width:1.05px;"/>
        </g>
    </g>
</svg>
