<?xml version="1.0" encoding="UTF-8" standalone="no"?>
<!DOCTYPE svg PUBLIC "-//W3C//DTD SVG 1.1//EN" "http://www.w3.org/Graphics/SVG/1.1/DTD/svg11.dtd">
<svg width="100%" height="100%" viewBox="0 0 100 100" version="1.1" xmlns="http://www.w3.org/2000/svg" xmlns:xlink="http://www.w3.org/1999/xlink" xml:space="preserve" xmlns:serif="http://www.serif.com/" style="fill-rule:evenodd;clip-rule:evenodd;stroke-linejoin:round;stroke-miterlimit:2;">
    <g transform="matrix(0.0878488,0,0,0.0878488,-2.70926,-2.70926)">
        <path d="M720.61,889.45L720.61,957.606L480,957.606L480,889.45L720.61,889.45ZM59.3,770.53L1140.7,770.53L1140.7,810.608C1140.65,841.686 1115.53,866.858 1084.45,866.999L115.55,866.999C84.472,866.858 59.347,841.687 59.3,810.608L59.3,770.53ZM1019.3,813.139C1019.3,820.733 1023.89,827.623 1030.92,830.53C1037.96,833.437 1046.07,831.843 1051.46,826.452C1056.85,821.061 1058.44,812.952 1055.53,805.921C1052.63,798.89 1045.74,794.296 1038.14,794.296C1033.03,794.108 1028.11,796.03 1024.45,799.593C1020.8,803.155 1018.78,808.03 1018.78,813.14L1019.3,813.139ZM946.362,813.139L946.315,813.139C946.315,820.733 950.909,827.623 957.987,830.53C965.018,833.436 973.128,831.796 978.518,826.405C983.909,820.968 985.503,812.858 982.549,805.827C979.596,798.796 972.659,794.249 965.065,794.296C959.956,794.155 955.081,796.077 951.471,799.64C947.815,803.202 945.799,808.03 945.846,813.14L946.362,813.139ZM873.424,813.139L873.377,813.139C873.377,820.733 877.971,827.623 885.002,830.53C892.08,833.436 900.19,831.796 905.58,826.405C910.924,820.968 912.518,812.858 909.565,805.827C906.611,798.796 899.721,794.249 892.081,794.296C887.018,794.155 882.096,796.077 878.487,799.64C874.877,803.202 872.862,808.03 872.862,813.14L873.424,813.139ZM1140.7,170.529L1140.7,747.929L59.304,747.929L59.304,170.529C59.351,139.451 84.523,114.326 115.554,114.232L1084.45,114.232C1115.49,114.326 1140.66,139.451 1140.7,170.529ZM1068,436.689C1068.1,420.611 1056.56,406.783 1040.72,403.97C1024.88,401.204 1009.31,410.251 1003.92,425.392L823.923,425.392C823.923,420.611 823.548,415.783 822.845,411.001C820.876,393.704 807.892,379.689 790.783,376.454C784.408,375.142 775.174,372.001 772.549,365.532C771.049,358.173 772.971,350.532 777.705,344.766C787.549,330.422 786.893,311.344 776.065,297.704C772.924,293.767 769.69,289.782 766.361,285.704L804.002,248.86L914.162,248.86C919.647,264.001 935.209,273.001 951.053,270.235C966.85,267.423 978.428,253.688 978.428,237.61C978.428,221.532 966.85,207.751 951.053,204.985C935.209,202.219 919.647,211.219 914.162,226.313L799.082,226.313C796.082,226.313 793.223,227.532 791.161,229.688L750.473,270.235C746.863,267.001 743.16,263.86 739.411,260.86L739.457,260.86C725.816,249.938 706.691,249.235 692.301,259.079C686.536,263.579 679.176,265.36 672.004,264.001C665.395,261.235 662.301,252.001 661.082,245.532C657.801,228.376 643.738,215.391 626.394,213.47C609.191,211.454 591.8,211.454 574.55,213.47C557.159,215.485 543.097,228.658 540.003,245.861C538.785,252.236 535.691,261.564 529.081,264.33L529.081,264.377C521.722,265.783 514.128,263.814 508.315,259.08C493.924,249.236 474.753,249.939 461.159,260.861C457.456,263.861 453.706,267.001 450.097,270.236L409.55,229.689C407.394,227.579 404.535,226.408 401.535,226.314L286.085,226.314C280.6,211.22 265.038,202.22 249.241,204.986C233.397,207.751 221.819,221.533 221.819,237.611C221.819,253.689 233.397,267.423 249.241,270.236C265.038,273.001 280.6,264.001 286.085,248.861L396.005,248.861L433.317,286.173C429.942,289.876 426.707,293.86 423.614,298.173L423.614,298.22C412.786,311.814 412.083,330.892 421.926,345.236C426.707,351.048 428.582,358.642 427.082,366.002C424.457,372.471 415.082,375.611 408.848,376.924C391.739,380.158 378.754,394.174 376.786,411.471C376.318,416.252 375.943,421.08 375.708,425.862L195.708,425.862C190.271,410.768 174.708,401.768 158.864,404.534C143.02,407.3 131.442,421.081 131.442,437.159C131.442,453.237 143.02,467.018 158.864,469.784C174.708,472.55 190.27,463.549 195.708,448.456L375.708,448.456C375.708,453.237 376.083,458.065 376.786,462.847C378.755,480.191 391.739,494.206 408.848,497.535C415.223,498.754 424.457,501.847 427.082,508.457C428.676,515.769 426.754,523.363 421.926,529.082C412.317,543.473 413.067,562.457 423.848,576.004C426.989,579.848 430.223,583.691 433.551,588.004L396.004,624.004L286.084,624.004C280.6,608.863 265.037,599.863 249.24,602.676C233.396,605.441 221.818,619.223 221.818,635.301C221.818,651.379 233.396,665.113 249.24,667.926C265.037,670.691 280.599,661.691 286.084,646.551L400.924,646.551C403.924,646.504 406.784,645.285 408.94,643.223L449.487,602.676C453.096,605.91 456.799,609.051 460.549,612.051L460.549,612.004C474.19,622.926 493.315,623.676 507.705,613.785C513.47,609.332 520.877,607.644 528.002,609.144C534.611,611.769 537.705,621.144 538.924,627.519L538.924,627.473C542.018,645.004 556.408,658.27 574.08,660.004C591.283,662.066 608.721,662.066 625.924,660.004C643.268,658.129 657.377,645.145 660.612,627.942C661.831,621.567 664.924,612.239 671.534,609.567L671.534,609.613C678.846,608.113 686.487,609.988 692.3,614.77C706.878,624.332 726.05,623.207 739.456,612.004C743.159,609.004 746.909,605.863 750.518,602.629L791.206,643.317L791.159,643.317C793.268,645.426 796.128,646.598 799.081,646.551L913.921,646.551C919.405,661.598 934.874,670.551 950.671,667.785C966.421,665.02 977.952,651.285 977.952,635.301C977.952,619.27 966.421,605.582 950.671,602.77C934.874,600.005 919.405,608.958 913.921,624.004L804.001,624.004L766.689,586.692C770.064,582.989 773.298,579.145 776.392,574.692C787.22,561.004 787.876,541.926 778.079,527.536C773.251,521.818 771.329,514.177 772.923,506.864C775.548,500.255 784.923,497.161 791.157,495.942C808.266,492.661 821.251,478.598 823.219,461.301C823.688,456.52 824.063,451.692 824.297,446.91L1004.3,446.91L1004.3,446.864C1009.92,461.395 1024.92,469.973 1040.25,467.536C1055.62,465.051 1067.2,452.208 1068,436.692L1068,436.689ZM800.391,413.533C802.219,428.908 802.219,444.471 800.391,459.845C799.641,467.392 793.969,473.533 786.469,474.845C771.61,476.533 758.531,485.533 751.688,498.845C746.907,513.189 749.719,528.986 759.141,540.845C763.454,547.079 763.079,555.376 758.297,561.236C748.594,573.517 737.531,584.627 725.297,594.377C719.391,599.158 711.047,599.486 704.766,595.221C693.375,584.815 676.969,581.909 662.719,587.815C648.469,593.768 638.953,607.409 638.297,622.784C637.266,630.237 631.407,636.096 624,637.222C608.438,639.003 592.734,639.003 577.219,637.222C569.626,636.472 563.531,630.753 562.219,623.3C560.579,608.3 551.578,595.175 538.219,588.238C523.828,583.409 508.031,586.222 496.219,595.691C489.938,599.956 481.594,599.628 475.688,594.847C463.407,585.144 452.344,574.035 442.688,561.706C437.86,555.893 437.532,547.55 441.845,541.315C451.22,529.456 454.033,513.659 449.298,499.315C442.407,486.003 429.376,477.003 414.47,475.315C407.017,474.002 401.298,467.862 400.548,460.315C398.767,444.94 398.767,429.377 400.548,414.003C401.345,406.456 407.017,400.362 414.47,399.003C429.376,397.315 442.408,388.315 449.298,375.003C454.032,360.706 451.22,344.909 441.845,333.144C436.923,326.956 436.829,318.285 441.61,312.003C451.266,299.722 462.329,288.612 474.61,278.862C480.516,274.128 488.86,273.846 495.141,278.159C506.953,287.581 522.797,290.347 537.141,285.471C550.5,278.627 559.5,265.502 561.141,250.549C562.454,243.096 568.547,237.377 576.141,236.533C591.657,234.705 607.36,234.705 622.922,236.533C630.469,237.377 636.563,243.096 637.922,250.549C638.578,265.971 648.141,279.611 662.391,285.518C676.641,291.425 693,288.565 704.391,278.159C710.626,273.846 719.016,274.128 724.922,278.862C737.344,288.565 748.594,299.674 758.391,312.003C763.172,317.909 763.547,326.253 759.235,332.534C749.86,344.346 747.047,360.096 751.782,374.393C758.672,387.705 771.704,396.752 786.61,398.393C794.11,399.752 799.782,405.94 800.532,413.534L800.391,413.533ZM710.157,436.689C710.11,384.142 672.985,338.955 621.423,328.739C569.907,318.52 518.303,346.083 498.233,394.645C478.124,443.207 495.092,499.175 538.78,528.385C582.514,557.588 640.73,551.823 677.86,514.697C698.626,494.025 710.251,465.947 710.298,436.697L710.157,436.689ZM599.997,348.939C558.138,348.986 522.138,378.564 513.981,419.58C505.825,460.642 527.809,501.705 566.481,517.736C605.153,533.72 649.731,520.22 672.981,485.392C696.231,450.611 691.637,404.204 662.059,374.622C645.606,358.169 623.247,348.934 599.997,348.934L599.997,348.939ZM764.287,980.069L435.687,980.069C394.718,980.116 361.484,1013.35 361.437,1054.32L361.437,1067.3C361.484,1077.52 369.781,1085.77 380.046,1085.77L819.916,1085.77C830.182,1085.77 838.478,1077.52 838.525,1067.3L838.525,1054.32C838.478,1013.35 805.244,980.116 764.275,980.069L764.287,980.069Z" style="fill:rgb(204,204,204);stroke:black;stroke-width:11.38px;"/>
    </g>
</svg>
