<?xml version="1.0" encoding="UTF-8" standalone="no"?><!DOCTYPE svg PUBLIC "-//W3C//DTD SVG 1.1//EN" "http://www.w3.org/Graphics/SVG/1.1/DTD/svg11.dtd"><svg width="417px" height="417px" version="1.1" xmlns="http://www.w3.org/2000/svg" xmlns:xlink="http://www.w3.org/1999/xlink" xml:space="preserve" xmlns:serif="http://www.serif.com/" style="fill-rule:evenodd;clip-rule:evenodd;stroke-linejoin:round;stroke-miterlimit:2;"><g transform="matrix(4.16667,0,0,4.16667,0,0)"><g transform="matrix(-1.38232e-16,-0.7525,-0.753529,1.38421e-16,73.2332,73.2645)"><g transform="matrix(0.0502414,-0.0502414,0.0502414,0.0502414,-8.61243,63.9701)"><path d="M310.255,738.204C311.661,753.11 309.318,767.829 303.599,781.095L380.427,801.064C386.521,802.658 390.927,807.486 392.239,813.252C398.661,838.658 412.02,869.314 425.051,892.143C428.145,897.674 427.77,904.19 424.535,909.112L383.66,978.768L466.816,1061.92L537.128,1020.67C542.378,1017.58 548.566,1017.77 553.534,1020.58L553.534,1020.53C578.659,1034.88 605.19,1045.94 632.987,1053.53C638.847,1055.13 643.065,1059.72 644.518,1065.2L665.049,1144.05L782.609,1144.05L803.14,1065.2C804.734,1059.11 809.562,1054.7 815.328,1053.39C840.734,1046.97 871.39,1033.61 894.219,1020.58C899.75,1017.49 906.266,1017.86 911.188,1021.1L980.797,1061.97L1063.95,978.816L1022.7,908.504C1019.61,903.254 1019.8,897.066 1022.61,892.098L1022.56,892.098C1036.91,866.973 1047.97,840.442 1055.56,812.645C1057.16,806.786 1061.75,802.567 1067.24,801.114L1146.08,780.583L1146.08,738.208L992.609,738.208C984.077,879.678 866.659,991.048 723.829,991.048C580.859,991.048 463.569,879.438 455.049,738.208L310.259,738.161L310.255,738.204Z" style="fill:rgb(204,204,204);stroke:black;stroke-width:18.7px;"/></g><g transform="matrix(0.0502414,-0.0502414,0.0502414,0.0502414,-4.61243,68.9701)"><path d="M785.517,706.481L785.517,431.321C785.517,416.649 758.251,405.742 745.922,380.429C733.172,354.32 751.064,336.164 770.564,314.836L770.564,360.024C770.564,365.837 773.564,370.899 778.064,373.805L813.173,399.305C819.126,403.618 827.095,403.336 832.673,399.118L868.204,373.29C872.61,370.102 874.954,365.086 874.954,360.024L874.954,314.836C894.454,336.117 912.328,354.337 899.578,380.446C887.297,405.571 860.048,416.695 860.048,431.321L859.954,431.321L859.954,706.481C859.954,721.153 887.221,732.06 899.55,757.373C912.3,783.529 894.408,801.638 874.907,822.966L874.907,780.216C874.907,774.403 871.907,769.341 867.407,766.435L832.298,740.935C826.345,736.622 818.376,736.903 812.798,741.122L777.267,766.95C772.861,770.138 770.517,775.153 770.517,780.216L770.517,822.966C751.017,801.685 733.143,783.464 745.893,757.355C758.174,732.23 785.423,721.107 785.423,706.481L785.517,706.481Z" style="fill:rgb(204,204,204);stroke:black;stroke-width:18.7px;"/></g><g transform="matrix(0.0502414,-0.0502414,0.0502414,0.0502414,-4.61243,68.9701)"><path d="M687.455,595.427L566.795,595.427C555.733,595.427 549.686,608.974 557.795,617.083C562.201,621.489 566.795,620.833 572.514,620.833L687.454,620.833C698.516,620.833 704.563,607.286 696.454,599.177C694.11,596.88 690.923,595.427 687.454,595.427L687.455,595.427Z" style="fill:rgb(204,204,204);stroke:black;stroke-width:18.7px;"/></g><g transform="matrix(0.0502414,-0.0502414,0.0502414,0.0502414,-4.61243,68.9701)"><path d="M665.348,660.18L665.33,800.033C665.33,810.533 661.018,820.095 654.08,826.986C629.799,851.267 588.924,833.455 588.924,800.033L588.989,660.18L665.348,660.18Z" style="fill:rgb(204,204,204);stroke:black;stroke-width:18.7px;"/></g><g transform="matrix(0.0502414,-0.0502414,0.0502414,0.0502414,-4.61243,68.9701)"><path d="M611.781,556.128L640.75,556.128L640.768,400.145C640.768,396.723 641.799,393.301 644.049,390.348L665.893,361.192L645.455,299.598L607.205,299.598L586.767,361.192L608.189,389.833C610.486,392.646 611.845,396.255 611.845,400.145L611.781,556.128Z" style="fill:rgb(204,204,204);stroke:black;stroke-width:18.7px;"/></g></g><g transform="matrix(1.70933,0,0,1.70933,-71.6447,-1561.33)"><g transform="matrix(0.0453708,0,0,0.0453708,46.7329,926.427)"><path d="M607.97,328.55L607.96,328.55C602.804,325.738 597.179,325.738 592.398,328.55L354.608,465.81L375.655,289.13C378.608,264.38 401.249,244.177 425.999,244.177L774.239,244.177C798.989,244.177 821.63,264.38 824.583,289.13L845.63,465.81L607.97,328.55ZM692.954,274.675C684.235,274.675 677.251,281.66 677.157,290.472C677.157,299.144 684.282,306.269 692.954,306.269C701.626,306.269 708.751,299.144 708.751,290.472C708.751,281.659 701.626,274.675 692.954,274.675ZM507.054,306.175C515.773,306.175 522.851,299.05 522.851,290.378C522.851,281.565 515.726,274.581 507.054,274.581C498.241,274.581 491.257,281.706 491.257,290.378C491.257,299.05 498.382,306.175 507.054,306.175ZM545.163,290.378C545.163,299.05 552.241,306.175 560.819,306.175L639.194,306.175C647.866,306.175 654.991,299.05 654.991,290.378C654.991,281.565 647.866,274.581 639.194,274.581L560.96,274.581C552.288,274.581 545.163,281.706 545.163,290.378Z" style="fill:rgb(204,204,204);stroke:black;stroke-width:12.89px;"/></g><g transform="matrix(0.0453708,0,0,0.0453708,46.7329,926.427)"><path d="M918.983,590.198L615.793,415.118L615.793,369.462L935.393,554.012L918.983,590.198Z" style="fill:rgb(204,204,204);fill-rule:nonzero;stroke:black;stroke-width:12.89px;"/></g><g transform="matrix(0.0453708,0,0,0.0453708,46.7329,926.427)"><path d="M685.723,794.808C664.676,808.542 640.676,817.074 615.692,819.652L615.645,451.362L906.125,618.992L841.953,761.862C830.094,759.893 818.094,758.909 805.953,758.909C763.203,758.956 721.437,771.425 685.713,794.815L685.723,794.808Z" style="fill:rgb(204,204,204);fill-rule:nonzero;stroke:black;stroke-width:12.89px;"/></g><g transform="matrix(0.0453708,0,0,0.0453708,46.7329,926.427)"><path d="M358.013,761.855L293.841,618.985L584.181,451.355L584.181,819.695C559.197,817.117 535.337,808.679 514.15,794.851C478.384,771.46 436.619,758.992 393.91,758.992C381.91,758.945 369.769,759.929 358.004,761.851L358.013,761.855Z" style="fill:rgb(204,204,204);fill-rule:nonzero;stroke:black;stroke-width:12.89px;"/></g><g transform="matrix(0.0453708,0,0,0.0453708,46.7329,926.427)"><path d="M584.193,415.115L281.003,590.195L264.737,553.961L584.337,369.411L584.337,415.114L584.193,415.115Z" style="fill:rgb(204,204,204);fill-rule:nonzero;stroke:black;stroke-width:12.89px;"/></g><g transform="matrix(0.0453708,0,0,0.0453708,46.7329,926.427)"><path d="M465.413,147.405L465.415,147.405C467.244,132.593 480.837,120.452 495.556,120.452L704.196,120.452C719.009,120.452 732.509,132.593 734.337,147.405L742.165,212.655L457.585,212.655L465.413,147.405ZM548.944,153.73C540.225,153.73 533.147,160.714 533.147,169.527C533.147,178.199 540.272,185.324 548.944,185.324L651.174,185.324C659.846,185.324 666.971,178.199 666.971,169.527C666.971,160.714 659.846,153.73 651.174,153.73L548.944,153.73Z" style="fill:rgb(204,204,204);stroke:black;stroke-width:12.89px;"/></g><g transform="matrix(0.0453708,0,0,0.0453708,46.7329,926.427)"><path d="M1150.97,790.384L1150.97,908.934C1146.71,908.934 1142.54,910.668 1139.35,914.09C1082.3,976.762 988.129,988.528 917.589,942.262C849.855,897.824 762.199,897.824 694.369,942.262C637.041,979.856 562.839,979.856 505.559,942.262C437.825,897.824 350.029,897.824 282.339,942.262C211.792,988.434 117.659,976.809 60.579,914.09C57.532,910.762 53.22,909.028 48.954,909.028L48.954,790.478C111.298,859.056 214.004,871.666 290.924,821.228C353.502,780.212 434.454,780.212 496.984,821.228C559.422,862.244 640.374,862.244 702.954,821.228C765.532,780.212 846.344,780.212 908.924,821.228C985.94,871.572 1088.64,858.962 1150.98,790.384L1150.97,790.384Z" style="fill:rgb(204,204,204);fill-rule:nonzero;stroke:black;stroke-width:12.89px;"/></g><g transform="matrix(0.0453708,0,0,0.0453708,46.7329,926.427)"><path d="M647.594,58.485L651.25,88.954L548.64,88.954L552.296,58.485C552.953,53.188 557.734,48.922 562.984,48.922L636.953,48.922C642.203,48.922 646.984,53.188 647.594,58.485L647.594,58.485Z" style="fill:rgb(204,204,204);fill-rule:nonzero;stroke:black;stroke-width:12.89px;"/></g></g></g></svg>