<svg xmlns="http://www.w3.org/2000/svg" xml:space="preserve" width="512" height="512" fill-rule="evenodd" stroke-linejoin="round" stroke-miterlimit="2" clip-rule="evenodd" viewBox="0 0 512 512">
  <path fill="#ccc" fill-rule="nonzero" stroke="#000" stroke-width="5.12" d="m256 479.944 10.629 5.391-.845 27.51s-.287 8.504-9.779 8.504c-9.498 0-9.702-8.422-9.702-8.422l-.876-27.592zm-13.179-88.31.947 29.885L256 427.443l12.257-5.724.916-30.09L256 385.234zm-6.052-214.646.768 24.934L256 210.145l18.335-8.223.763-25.103c-4.531-5.724-7.025-12.401-7.025-19.538 0-7.793 3.026-14.956 8.264-20.92l1.966-64.568a33.71 33.71 0 1 0-44.82-.179l2.022 64.548c5.345 6.006 8.433 13.245 8.433 21.12 0 7.209-2.545 13.952-7.168 19.707Zm2.888 102.502 1.316 42.634L256 328.837l14.981-6.717 1.29-42.634L256 272.097z" transform="matrix(1 0 0 .93078 0 .173)"/>
  <path fill="#ccc" fill-rule="nonzero" stroke="#000" stroke-width="5.12" d="M142.858 181.683c-6.564-20.7-.343-34.212 1.802-37.965 7.373-14.592 26.644-24.392 47.995-24.392 13.338 0 25.329 3.594 34.36 9.559l-1.096-49.987s-13.788-7.747-32.302 4.726c-52.572 35.425-180.823 26.02-180.823 26.02 0 52.746 68.081 54.272 68.081 54.272 3.794 38.636 39.27 23.619 39.27 23.619 12.406 24.31 29.501 25.58 41.344 22.6-9.672-9.37-15.908-18.877-18.637-28.452zm175.529-98.058c-18.514-12.472-32.302-4.726-32.302-4.726l-1.096 49.997c9.027-5.975 21.028-9.564 34.365-9.564 21.35 0 40.622 9.8 47.99 24.387 2.14 3.753 8.351 17.229 1.807 37.965-2.698 9.554-8.95 19.062-18.657 28.457 11.843 2.98 28.938 1.715 41.349-22.595 0 0 35.476 15.012 39.265-23.624 0 0 68.086-1.526 68.086-54.272.005 0-128.241 9.4-180.813-26.025zm-97.198 412.744c0-10.691 18.074-20.168 28.175-24.637l-22.963-9.62c-14.838 8.366-29.686 19.896-29.686 32.548 0 20.398 53.504 40.719 53.504 40.719-.005 0-29.025-28.006-29.025-39.009zm63.585-133.95c-15.201-7.839-29.962-16.594-29.962-16.594s-49.275-23.869-49.275-45.389c0-16.502 29.696-30.669 43.525-36.367a614 614 0 0 1-33.664-14.633c-22.252 12.237-45.353 29.512-45.353 48.517 0 22.426 32.195 47.36 57.175 59.346 15.837 7.609 28.78 12.073 28.78 12.073s41.149 19.287 41.149 36.833c0 13.066-22.804 24.468-34.463 29.445l22.897 10.015c19.144-10.056 40.515-24.98 40.515-41.487 0-16.742-21.98-31.764-41.324-41.759Z" transform="matrix(1 0 0 .93078 0 .173)"/>
  <path fill="#ccc" fill-rule="nonzero" stroke="#000" stroke-width="5.12" d="M279.66 453.78a210 210 0 0 0-23.665-10.353s-41.149-19.671-41.149-37.228c0-13.03 22.697-24.197 34.381-29.082l-27.725-11.622c-17.71 9.866-35.604 23.578-35.604 38.676 0 18.243 26.097 39.67 46.438 49.608A246 246 0 0 0 256 463.898s34.801 17.628 34.801 32.466c0 11.008-29.02 39.004-29.02 39.004s53.504-20.326 53.504-40.719c-.005-14.346-19.108-32.384-35.625-40.868Z" transform="matrix(1 0 0 .93078 0 .173)"/>
  <path fill="#ccc" stroke="#000" stroke-width="5.12" d="M341.944 297.953c0 20.7-27.428 39.173-51.292 51.323l-28.017-12.247c13.696-5.652 43.822-19.963 43.822-36.588 0-21.514-50.463-44.17-50.463-44.17s-15.857-5.499-35.2-14.838c-27.197-13.128-61.261-38.979-67.922-62.725-5.99-18.77.876-29.855.978-30.019 5.361-10.982 20.695-18.908 38.794-18.908 22.554 0 40.837 12.308 40.837 27.5 0 13.906-15.329 25.395-35.236 27.233 12.969 20.818 57.743 41.416 57.743 41.416s16.599 5.842 35.2 15.498c23.736 12.324 50.755 35.973 50.755 56.525ZM198.927 158.566a9.8 9.8 0 1 0-.01-19.599 9.8 9.8 0 0 0 .01 19.599Z" transform="matrix(1 0 0 .93078 0 .173)"/>
  <path fill="#ccc" stroke="#000" stroke-width="5.12" d="M359.148 178.647c-6.175 22.164-36.239 41.702-62.341 54.902-12.954-6.692-26.568-12.436-33.833-15.38 13.112-5.279 40.975-17.946 50.749-33.649-19.886-1.848-35.2-13.332-35.2-27.238 0-15.191 18.284-27.5 40.837-27.5 18.104 0 33.439 7.926 38.799 18.913.097.164 6.948 11.218.988 29.952Zm-36.28-29.88a9.8 9.8 0 1 0-19.594-.015 9.8 9.8 0 0 0 19.594.015Z" transform="matrix(1 0 0 .93078 0 .173)"/>
</svg>
