<svg xmlns="http://www.w3.org/2000/svg" xml:space="preserve" width="512" height="512" fill-rule="evenodd" stroke-linejoin="round" stroke-miterlimit="2" clip-rule="evenodd" viewBox="0 0 512 512">
  <path fill="#ccc" fill-rule="nonzero" stroke="#000" stroke-width="5.12" d="M314.45 175.094a24.607 24.607 0 1 1-38.226 30.996 24.607 24.607 0 0 1 38.226-30.996Z"/>
  <path fill="#ccc" fill-rule="nonzero" stroke="#000" stroke-width="5.12" d="m499.18 148.772-8.387-8.893a415 415 0 0 0-12.744 8.806l-30.715-32.563 11.141-10.506-8.253-8.755-30.771 29.025-1.751-1.859-8.755 8.259 38.385 40.694a415 415 0 0 0-37.801 37.427 8.7 8.7 0 0 0-3.594.323c-19.169 5.939-42.921 9.759-61.711 12.006a599 599 0 0 1-23.398 2.345c-2.908.23-5.222.394-6.799.497l-.261.015a10 10 0 0 0-1.618-.097l-41.764 1.408h-.261c-4.68.046-17.029-.794-27.561-6.63-5.304-2.918-10.173-6.938-14.013-12.79-3.825-5.868-6.723-13.691-7.485-24.719a8.755 8.755 0 0 0-5.985-7.716q-.778-6.272-1.587-12.534c-1.014-7.67-1.792-15.949-4.608-23.219-2.058-5.299-7.132-10.66-11.663-7.501-3.635 2.54-5.32 8.315-6.825 12.206-7.229 18.668-12.831 37.934-20.06 56.612-9.672 24.986-21.238 49.521-37.089 71.229-12.349 16.922-27.648 31.964-46.546 41.37-20.941 10.414-44.708 10.819-67.133 5.622-2.345-.548-9.907 8.223-5.289 9.288 28.81 6.682 58.757 3.512 84.465-11.546 23.296-13.65 40.806-35.272 54.436-58.209 13.251-22.303 23.168-46.418 31.852-70.82 5.233-14.694 8.96-30.838 15.923-44.913.742 2.191 1.203 4.803 1.597 6.692 1.874 8.975 3.123 18.12 4.214 27.29a8.7 8.7 0 0 0-3.159 7.332c.906 13.558 4.69 24.571 10.296 33.121 8.422 12.882 20.547 19.773 31.222 23.311 5.811 1.93 11.264 2.944 15.8 3.471 0 0 13.302 73.605 13.302 76.57-.026 5.801-1.331 14.771-8.131 26.68-6.81 11.884-19.318 26.742-42.092 43.244a13.676 13.676 0 0 0 8.038 24.75 13.6 13.6 0 0 0 8.008-2.601c25.216-18.268 40.648-35.876 49.766-51.784 8.909-15.473 11.633-29.281 11.745-39.475h5.565l.543.143c4.168 1.152 14.152 4.828 23.014 15.124 8.822 10.327 17.464 27.638 17.551 59.377q0 2.176-.056 4.47a13.67 13.67 0 0 0 13.327 14.013l.348.005a13.67 13.67 0 0 0 13.67-13.338 220 220 0 0 0 .061-5.151c0-21.719-3.64-39.229-9.498-53.197-8.74-21.007-22.543-33.582-34.125-40.351a77 77 0 0 0-8.53-4.326l-1.869-55.429a620 620 0 0 0 24.75-2.463c13.445-1.623 29.322-3.978 44.78-7.424a415 415 0 0 0-7.45 9.974l9.748 7.05a399 399 0 0 1 17.203-22.118l.512-.148a8.755 8.755 0 0 0 6.124-7.578 403 403 0 0 1 81.956-71.101zm-71.475-14.131 14.853-14.013 30.147 31.964a415 415 0 0 0-16.169 12.616z"/>
</svg>
