<svg xmlns="http://www.w3.org/2000/svg" xml:space="preserve" width="512" height="512" fill-rule="evenodd" stroke-linejoin="round" stroke-miterlimit="2" clip-rule="evenodd" viewBox="0 0 512 512">
  <path fill="#ccc" fill-rule="nonzero" stroke="#000" stroke-width="5.12" d="M37.96 314.716a50.2 50.2 0 0 0-23.706 5.929 138 138 0 0 0 3.681 17.49 33.5 33.5 0 0 1 20.024-6.646 33.587 33.587 0 0 1 33.546 33.546c0 14.065-8.704 26.122-20.997 31.104a138 138 0 0 0 12.979 12.242 50.53 50.53 0 0 0 24.791-43.346c0-27.75-22.574-50.319-50.319-50.319zm83.333-275.103c11.976 4.214 27.853 6.733 42.47 6.733s30.495-2.519 42.465-6.733c13.194-4.644 16.189-9.308 16.236-10.04-.041-.732-3.041-5.396-16.23-10.04-11.981-4.214-27.853-6.733-42.476-6.733s-30.495 2.519-42.465 6.733c-13.204 4.649-16.195 9.318-16.241 10.04.046.722 3.036 5.391 16.241 10.035zm0 33.546c11.976 4.219 27.853 6.733 42.47 6.733s30.495-2.519 42.465-6.733c13.204-4.649 16.195-9.313 16.236-10.035V50.857a82 82 0 0 1-10.173 4.398c-13.957 4.997-31.642 7.859-48.532 7.859s-34.575-2.867-48.532-7.859a79 79 0 0 1-10.173-4.403v12.262c.041.727 3.036 5.391 16.236 10.04zm76.017 107.366a50.48 50.48 0 0 0 27.29 44.749 172 172 0 0 1 31.416-2.811q3.297 0 6.584.123a189 189 0 0 1 10.819-21.627 140.3 140.3 0 0 0-19.098-15.913 112.85 112.85 0 0 1-37.617-44.221 50.18 50.18 0 0 0-19.395 39.706z"/>
  <path fill="#ccc" fill-rule="nonzero" stroke="#000" stroke-width="5.12" d="M37.96 348.262a16.74 16.74 0 0 0-13.875 7.373 139.8 139.8 0 0 0 14.669 26.138 16.794 16.794 0 0 0 15.98-16.737 16.794 16.794 0 0 0-16.773-16.773zm41.933-159.345c0-2.642-.63-5.192-1.782-7.485a113 113 0 0 1-4.915 3.615 140.3 140.3 0 0 0-20.326 17.152 16.794 16.794 0 0 0 27.023-13.286z"/>
  <path fill="#ccc" fill-rule="nonzero" stroke="#000" stroke-width="5.12" d="M113.439 188.918a50.07 50.07 0 0 0-11.776-32.317 112.6 112.6 0 0 1-10.865 13.353 33.43 33.43 0 0 1 5.868 18.964 33.587 33.587 0 0 1-33.546 33.546 33.28 33.28 0 0 1-21.263-7.583 138 138 0 0 0-9.421 13.901 49.97 49.97 0 0 0 30.684 10.455c27.75 0 50.319-22.579 50.319-50.324zM432.133 29.573c0 9.267-22.528 16.773-50.319 16.773s-50.319-7.511-50.319-16.773c0-9.267 22.528-16.773 50.319-16.773s50.319 7.511 50.319 16.773ZM331.489 365.035a50 50 0 0 1 27.51 8.228 103.4 103.4 0 0 0-18.575-32.154 33.3 33.3 0 0 0-8.934-1.234 33.64 33.64 0 0 0-25.416 11.674q.256 2.519.256 5.1c0 5.816-1.034 11.571-2.985 17.009a50.4 50.4 0 0 1 28.145-8.622zm-4.076-83.866h171.136a169 169 0 0 0-2.335-16.773h-166.01zm2.048-33.546h162.714a174 174 0 0 0-5.893-16.773H307.476c10.496 4.116 18.447 9.728 21.985 16.773zm138.465-50.319H295.638a174 174 0 0 0-10.373 16.773h193.039a174 174 0 0 0-10.378-16.773ZM415.355 64.712v-5.781c-10.03 2.724-21.56 4.188-33.546 4.188s-23.521-1.464-33.546-4.188v5.78a189.7 189.7 0 0 1-39.578 115.814h146.248a189.7 189.7 0 0 1-39.578-115.814z"/>
  <path fill="#ccc" fill-rule="nonzero" stroke="#000" stroke-width="5.12" d="M172.206 316.795a37.68 37.68 0 0 0 12.575-34.601l-3.523-21.146a18.4 18.4 0 0 1-.727-5.038c0-10.865 9.257-19.174 23.132-24.801a67.28 67.28 0 0 1-23.132-50.678c0-22.692 11.31-43.505 29.932-55.875a112.6 112.6 0 0 1-4.772-32.425V90.92c-12.708 3.676-27.607 5.745-41.933 5.745s-29.22-2.068-41.933-5.745v1.311a112.84 112.84 0 0 1-11.305 49.229 66.77 66.77 0 0 1 19.692 47.457c0 36.992-30.095 67.092-67.092 67.092-13.947 0-27.249-4.255-38.451-12.119A140.3 140.3 0 0 0 12.8 300.314q0 1.26.031 2.509a67.1 67.1 0 0 1 25.129-4.879c36.992 0 67.092 30.1 67.092 67.092 0 21.381-10.317 41.324-27.1 53.842a139.3 139.3 0 0 0 56.402 20.408A120.12 120.12 0 0 1 172.211 316.8zm25.149-61.184.251 1.495c2.611 5.35 22.886 15.677 58.404 15.677 35.512 0 55.788-10.322 58.409-15.672l.251-1.5c-1.05-5.089-21.524-16.374-58.655-16.374-37.146 0-57.62 11.29-58.655 16.374zm103.757 221.317a50.2 50.2 0 0 1 5.217 22.272h5.699l9.672-6.902a102.4 102.4 0 0 0 13.353-11.392 33.5 33.5 0 0 0-20.337-6.861 33.3 33.3 0 0 0-13.604 2.883zm21.99-53.181a33.18 33.18 0 0 0-20.255 6.799 50.2 50.2 0 0 1 3.482 18.36q-.005 4.705-.85 9.231a51 51 0 0 1 9.236-.845 50.18 50.18 0 0 1 31.13 10.803 104.5 104.5 0 0 0 10.097-17.649 33.66 33.66 0 0 0-32.84-26.701zm8.387-41.938a33.64 33.64 0 0 0-25.416 11.674 50.7 50.7 0 0 1-1.137 16.911 50.2 50.2 0 0 1 18.166-3.43c16.21 0 30.899 7.844 40.166 20.086a102.4 102.4 0 0 0 1.654-14.377c-1.372-17.347-15.959-30.863-33.434-30.863zm-20.849-101.96c-14.438 6.415-34.601 9.708-54.63 9.708s-40.192-3.292-54.63-9.708a54.58 54.58 0 0 1-12.554 43.96 50.5 50.5 0 0 1 22.472 9.805c8.371-16.184 25.267-27.29 44.718-27.29s36.342 11.105 44.718 27.29a50.5 50.5 0 0 1 22.472-9.805 54.58 54.58 0 0 1-12.559-43.96zm71.168 128.256q0 3.635-.22 7.25h.22c39.813 0 75.054-19.927 96.297-50.319H373.837a120.3 120.3 0 0 1 7.972 43.064z"/>
  <path fill="#ccc" fill-rule="nonzero" stroke="#000" stroke-width="5.12" d="M256.01 323.103a33.587 33.587 0 0 0-33.27 37.78c8.873-7.844 20.521-12.621 33.27-12.621s24.397 4.777 33.27 12.621q.271-2.104.276-4.234a33.587 33.587 0 0 0-33.546-33.546Zm72.013-25.16a37.63 37.63 0 0 0 9.574 16.773h160.415a118 118 0 0 0 1.203-16.773zm37.847 50.319h122.01a118 118 0 0 0 6.451-16.773H354.253a120.3 120.3 0 0 1 11.622 16.773zm-185.344-8.387c-3.026 0-6.021.43-8.929 1.234a103.4 103.4 0 0 0-18.575 32.154 50.2 50.2 0 0 1 27.51-8.228 50.33 50.33 0 0 1 28.145 8.627 50.2 50.2 0 0 1-2.729-22.108 33.64 33.64 0 0 0-25.416-11.674zm26.015 118.241a51 51 0 0 1-.85-9.231 50.1 50.1 0 0 1 3.482-18.36 33.18 33.18 0 0 0-20.255-6.799 33.66 33.66 0 0 0-32.84 26.701 104 104 0 0 0 10.097 17.644 50.18 50.18 0 0 1 40.366-9.953zm.538-47.718a51.2 51.2 0 0 1-1.388-11.817q0-2.58.256-5.094a33.64 33.64 0 0 0-25.416-11.674c-17.475 0-32.061 13.517-33.434 30.858a102.4 102.4 0 0 0 1.649 14.382c9.267-12.247 23.962-20.086 40.172-20.086 6.252 0 12.411 1.198 18.161 3.43zm48.932-45.363a33.587 33.587 0 0 0-33.546 33.546 33.3 33.3 0 0 0 1.93 11.208c8.653-7.004 19.651-11.213 31.616-11.213s22.968 4.209 31.616 11.213a33.3 33.3 0 0 0 1.93-11.213 33.587 33.587 0 0 0-33.546-33.541zm-79.043 115.902a102.4 102.4 0 0 0 13.353 11.387l9.672 6.912h5.699a50 50 0 0 1 5.212-22.277 33.3 33.3 0 0 0-13.599-2.888 33.5 33.5 0 0 0-20.337 6.866zm79.043-15.278a33.587 33.587 0 0 0-33.547 33.541h67.092a33.587 33.587 0 0 0-33.546-33.546zm0-50.304a33.587 33.587 0 0 0-33.546 33.546c0 3.876.666 7.649 1.93 11.208 8.653-6.999 19.651-11.213 31.616-11.213s22.968 4.214 31.616 11.213a33.3 33.3 0 0 0 1.93-11.213 33.587 33.587 0 0 0-33.546-33.541z"/>
</svg>
