<?xml version="1.0" encoding="UTF-8" standalone="no"?>
<!DOCTYPE svg PUBLIC "-//W3C//DTD SVG 1.1//EN" "http://www.w3.org/Graphics/SVG/1.1/DTD/svg11.dtd">
<svg width="100%" height="100%" viewBox="0 0 100 100" version="1.1" xmlns="http://www.w3.org/2000/svg" xmlns:xlink="http://www.w3.org/1999/xlink" xml:space="preserve" xmlns:serif="http://www.serif.com/" style="fill-rule:evenodd;clip-rule:evenodd;stroke-linejoin:round;stroke-miterlimit:2;">
    <g transform="matrix(0.079167,0,0,0.079167,2.49974,2.49984)">
        <path d="M62.07,744.83C41.496,744.83 21.511,749.869 3.597,759.459C5.722,774.158 8.761,788.557 12.663,802.6C26.659,792.182 43.862,786.209 62.069,786.209C107.702,786.209 144.827,823.334 144.827,868.967C144.827,903.658 123.362,933.412 93.022,945.697C103.045,956.424 113.733,966.525 125.053,975.904C162.553,953.748 186.205,913.002 186.205,868.964C186.205,800.515 130.517,744.824 62.065,744.824L62.07,744.83Z" style="fill:rgb(204,204,204);fill-rule:nonzero;stroke:black;stroke-width:12.63px;"/>
    </g>
    <g transform="matrix(0.079167,0,0,0.079167,2.49974,2.49984)">
        <path d="M267.64,66.148C297.179,76.55 336.347,82.757 372.41,82.757C408.476,82.757 447.644,76.546 477.18,66.148C509.727,54.687 517.121,43.183 517.235,41.378C517.122,39.577 509.727,28.069 477.184,16.608C447.641,6.21 408.469,-0.001 372.404,-0.001C336.338,-0.001 297.17,6.21 267.634,16.608C235.068,28.077 227.685,39.592 227.579,41.381C227.684,43.166 235.067,54.678 267.634,66.147L267.64,66.148Z" style="fill:rgb(204,204,204);fill-rule:nonzero;stroke:black;stroke-width:12.63px;"/>
    </g>
    <g transform="matrix(0.079167,0,0,0.079167,2.49974,2.49984)">
        <path d="M267.64,148.91C297.179,159.312 336.347,165.519 372.41,165.519C408.476,165.519 447.644,159.308 477.18,148.91C509.746,137.441 517.125,125.933 517.231,124.14L517.235,93.894C510.083,97.648 501.794,101.292 492.133,104.749C457.703,117.073 414.067,124.14 372.403,124.14C330.743,124.14 287.106,117.074 252.673,104.749C243.013,101.292 234.72,97.647 227.571,93.894L227.571,124.14C227.676,125.929 235.059,137.441 267.626,148.91L267.64,148.91Z" style="fill:rgb(204,204,204);fill-rule:nonzero;stroke:black;stroke-width:12.63px;"/>
    </g>
    <g transform="matrix(0.079167,0,0,0.079167,2.49974,2.49984)">
        <path d="M455.17,413.79C455.17,460.329 481.404,502.985 522.494,524.18C546.943,519.582 573.514,517.243 599.998,517.243C605.416,517.243 610.838,517.348 616.248,517.543C624.021,499.164 632.924,481.355 642.939,464.191C628.439,449.761 612.658,436.582 595.83,424.929C555.318,396.886 523.635,359.058 503.018,315.839C473.069,339.116 455.17,374.964 455.17,413.792L455.17,413.79Z" style="fill:rgb(204,204,204);fill-rule:nonzero;stroke:black;stroke-width:12.63px;"/>
    </g>
    <g transform="matrix(0.079167,0,0,0.079167,2.49974,2.49984)">
        <path d="M62.07,827.59C48.172,827.59 35.437,834.543 27.828,845.774C37.609,868.637 49.773,890.239 64.031,910.251C85.933,909.216 103.449,891.122 103.449,868.97C103.449,846.154 84.883,827.591 62.07,827.591L62.07,827.59Z" style="fill:rgb(204,204,204);fill-rule:nonzero;stroke:black;stroke-width:12.63px;"/>
    </g>
    <g transform="matrix(0.079167,0,0,0.079167,2.49974,2.49984)">
        <path d="M165.52,434.48C165.52,427.968 163.961,421.679 161.126,416.011C157.172,419.077 153.141,422.062 149.001,424.929C130.802,437.531 114.052,451.734 98.849,467.253C105.966,472.765 114.775,475.859 124.142,475.859C146.958,475.859 165.521,457.293 165.521,434.48L165.52,434.48Z" style="fill:rgb(204,204,204);fill-rule:nonzero;stroke:black;stroke-width:12.63px;"/>
    </g>
    <g transform="matrix(0.079167,0,0,0.079167,2.49974,2.49984)">
        <path d="M248.28,434.48C248.28,404.945 237.874,376.925 219.233,354.757C211.178,366.362 202.217,377.378 192.421,387.698C201.773,401.319 206.901,417.553 206.901,434.479C206.901,480.112 169.776,517.237 124.143,517.237C104.565,517.237 86.221,510.495 71.678,498.53C63.244,509.507 55.487,520.96 48.448,532.831C70.061,549.53 96.417,558.616 124.139,558.616C192.588,558.616 248.279,502.928 248.279,434.476L248.28,434.48Z" style="fill:rgb(204,204,204);fill-rule:nonzero;stroke:black;stroke-width:12.63px;"/>
    </g>
    <g transform="matrix(0.079167,0,0,0.079167,2.49974,2.49984)">
        <path d="M1034.5,41.379C1034.5,64.234 978.922,82.758 910.36,82.758C841.801,82.758 786.22,64.235 786.22,41.379C786.22,18.527 841.798,0 910.36,0C978.922,0 1034.5,18.527 1034.5,41.379Z" style="fill:rgb(204,204,204);fill-rule:nonzero;stroke:black;stroke-width:12.63px;"/>
    </g>
    <g transform="matrix(0.079167,0,0,0.079167,2.49974,2.49984)">
        <path d="M786.21,868.96C811.151,868.96 834.499,876.429 854.077,889.265C843.761,860.394 828.284,833.499 808.253,809.937C801.069,807.949 793.687,806.894 786.21,806.894C762.054,806.894 739.155,817.55 723.507,835.699C723.925,839.836 724.14,844.031 724.14,848.273C724.14,862.628 721.589,876.828 716.769,890.242C737.039,876.57 761.179,868.961 786.21,868.961L786.21,868.96Z" style="fill:rgb(204,204,204);fill-rule:nonzero;stroke:black;stroke-width:12.63px;"/>
    </g>
    <g transform="matrix(0.079167,0,0,0.079167,2.49974,2.49984)">
        <path d="M776.15,662.07L1198.34,662.07C1197.11,648.16 1195.17,634.355 1192.58,620.691L783.042,620.691L776.15,662.07Z" style="fill:rgb(204,204,204);fill-rule:nonzero;stroke:black;stroke-width:12.63px;"/>
    </g>
    <g transform="matrix(0.079167,0,0,0.079167,2.49974,2.49984)">
        <path d="M781.2,579.31L1182.61,579.31C1178.47,565.279 1173.63,551.462 1168.08,537.931L726.969,537.931C752.852,548.083 772.477,561.923 781.203,579.31L781.2,579.31Z" style="fill:rgb(204,204,204);fill-rule:nonzero;stroke:black;stroke-width:12.63px;"/>
    </g>
    <g transform="matrix(0.079167,0,0,0.079167,2.49974,2.49984)">
        <path d="M1122.8,455.17L697.77,455.17C688.438,468.471 679.903,482.283 672.168,496.549L1148.4,496.549C1140.68,482.315 1132.13,468.494 1122.8,455.17L1122.8,455.17Z" style="fill:rgb(204,204,204);fill-rule:nonzero;stroke:black;stroke-width:12.63px;"/>
    </g>
    <g transform="matrix(0.079167,0,0,0.079167,2.49974,2.49984)">
        <path d="M993.1,128.06L993.1,113.81C968.362,120.525 939.912,124.134 910.342,124.134C880.772,124.134 852.322,120.525 827.584,113.81L827.584,128.06C827.584,231.43 793.01,332.22 729.943,413.79L1090.74,413.79C1027.67,332.22 993.098,231.43 993.098,128.06L993.1,128.06Z" style="fill:rgb(204,204,204);fill-rule:nonzero;stroke:black;stroke-width:12.63px;"/>
    </g>
    <g transform="matrix(0.079167,0,0,0.079167,2.49974,2.49984)">
        <path d="M393.26,749.96C417.678,729.03 429.561,696.323 424.276,664.597L415.581,612.429C414.452,608.449 413.796,604.316 413.796,600.003C413.796,573.191 436.628,552.702 470.858,538.812C435.241,507.824 413.796,462.39 413.796,413.792C413.796,357.808 441.691,306.472 487.636,275.952C479.936,250.307 475.866,223.397 475.866,195.956L475.866,192.722C444.507,201.788 407.761,206.894 372.416,206.894C337.071,206.894 300.326,201.792 268.966,192.726L268.966,195.96C268.966,238.648 259.169,280.077 241.075,317.41C272.118,348.351 289.657,390.14 289.657,434.48C289.657,525.746 215.407,600 124.137,600C89.731,600 56.91,589.504 29.289,570.102C10.254,613.379 -0.004,660.676 -0.004,709.302C-0.004,711.368 0.035,713.427 0.07,715.486C19.633,707.575 40.605,703.451 62.066,703.451C153.332,703.451 227.586,777.701 227.586,868.971C227.586,921.713 202.137,970.911 160.731,1001.79C201.907,1027.84 249.063,1045.44 299.871,1052.14C293.183,1027.31 289.66,1001.47 289.66,975.221C289.66,888.502 327.422,806.401 393.26,749.971L393.26,749.96Z" style="fill:rgb(204,204,204);fill-rule:nonzero;stroke:black;stroke-width:12.63px;"/>
    </g>
    <g transform="matrix(0.079167,0,0,0.079167,2.49974,2.49984)">
        <path d="M455.3,599.02L455.913,602.7C462.362,615.903 512.378,641.376 600.003,641.376C687.608,641.376 737.623,615.911 744.093,602.712L744.71,599.013C742.125,586.462 691.616,558.618 600.01,558.618C508.369,558.618 457.86,586.477 455.31,599.02L455.3,599.02Z" style="fill:rgb(204,204,204);fill-rule:nonzero;stroke:black;stroke-width:12.63px;"/>
    </g>
    <g transform="matrix(0.079167,0,0,0.079167,2.49974,2.49984)">
        <path d="M711.27,1145C719.493,1161.58 724.137,1180.23 724.137,1199.96L738.196,1199.96L762.055,1182.92C773.914,1174.45 784.903,1165.03 794.996,1154.82C780.707,1143.92 763.152,1137.89 744.828,1137.89C733.082,1137.89 721.738,1140.34 711.269,1145L711.27,1145Z" style="fill:rgb(204,204,204);fill-rule:nonzero;stroke:black;stroke-width:12.63px;"/>
    </g>
    <g transform="matrix(0.079167,0,0,0.079167,2.49974,2.49984)">
        <path d="M765.52,1013.8C747.153,1013.8 729.832,1019.69 715.551,1030.58C721.074,1044.62 724.141,1059.89 724.141,1075.87C724.141,1083.6 723.418,1091.21 722.043,1098.65C729.488,1097.28 737.102,1096.56 744.828,1096.56C772.992,1096.56 799.918,1106.09 821.625,1123.21C831.34,1109.53 839.68,1094.95 846.535,1079.68C838.672,1041.75 804.801,1013.8 765.519,1013.8L765.52,1013.8Z" style="fill:rgb(204,204,204);fill-rule:nonzero;stroke:black;stroke-width:12.63px;"/>
    </g>
    <g transform="matrix(0.079167,0,0,0.079167,2.49974,2.49984)">
        <path d="M786.21,910.34C762.054,910.34 739.155,920.996 723.507,939.145C723.925,943.282 724.14,947.477 724.14,951.719C724.14,961.66 722.972,971.418 720.706,980.86C734.897,975.36 750.093,972.411 765.518,972.411C805.502,972.411 841.748,991.747 864.612,1021.95C866.792,1010.31 868.151,998.454 868.686,986.481C865.308,943.696 829.311,910.34 786.209,910.34L786.21,910.34Z" style="fill:rgb(204,204,204);fill-rule:nonzero;stroke:black;stroke-width:12.63px;"/>
    </g>
    <g transform="matrix(0.079167,0,0,0.079167,2.49974,2.49984)">
        <path d="M734.77,658.81C699.145,674.642 649.415,682.755 600,682.755C550.585,682.755 500.852,674.642 465.23,658.81C471.414,697.81 459.707,737.701 434.25,767.26C454.488,770.658 473.543,778.998 489.688,791.455C510.344,751.517 552.024,724.135 600.008,724.135C647.992,724.135 689.668,751.518 710.328,791.455C726.473,778.998 745.527,770.658 765.766,767.26C740.305,737.705 728.602,697.811 734.786,658.81L734.77,658.81Z" style="fill:rgb(204,204,204);fill-rule:nonzero;stroke:black;stroke-width:12.63px;"/>
    </g>
    <g transform="matrix(0.079167,0,0,0.079167,2.49974,2.49984)">
        <path d="M910.34,975.21C910.34,981.198 910.156,987.163 909.797,993.101L910.34,993.101C1008.56,993.101 1095.5,943.949 1147.91,868.961L890.68,868.961C903.528,902.481 910.348,938.422 910.348,975.211L910.34,975.21Z" style="fill:rgb(204,204,204);fill-rule:nonzero;stroke:black;stroke-width:12.63px;"/>
    </g>
    <g transform="matrix(0.079167,0,0,0.079167,2.49974,2.49984)">
        <path d="M600,765.52C554.367,765.52 517.242,802.645 517.242,848.278C517.242,851.778 517.476,855.262 517.918,858.716C539.813,839.368 568.551,827.591 600,827.591C631.449,827.591 660.188,839.368 682.082,858.72C682.523,855.267 682.758,851.783 682.758,848.282C682.758,802.645 645.633,765.52 600,765.52L600,765.52Z" style="fill:rgb(204,204,204);fill-rule:nonzero;stroke:black;stroke-width:12.63px;"/>
    </g>
    <g transform="matrix(0.079167,0,0,0.079167,2.49974,2.49984)">
        <path d="M777.66,703.45C781.781,718.919 789.851,733.27 801.281,744.829L1197.02,744.829C1198.96,731.309 1199.99,717.497 1199.99,703.45L777.66,703.45Z" style="fill:rgb(204,204,204);fill-rule:nonzero;stroke:black;stroke-width:12.63px;"/>
    </g>
    <g transform="matrix(0.079167,0,0,0.079167,2.49974,2.49984)">
        <path d="M871.02,827.59L1172.02,827.59C1178.34,814.32 1183.67,800.496 1187.94,786.211L842.352,786.211C853.106,799.219 862.688,813.063 871.024,827.59L871.02,827.59Z" style="fill:rgb(204,204,204);fill-rule:nonzero;stroke:black;stroke-width:12.63px;"/>
    </g>
    <g transform="matrix(0.079167,0,0,0.079167,2.49974,2.49984)">
        <path d="M413.79,806.9C406.313,806.9 398.931,807.959 391.751,809.943C371.72,833.509 356.239,860.4 345.923,889.271C365.501,876.435 388.849,868.966 413.79,868.966C438.821,868.966 462.962,876.575 483.231,890.247C478.407,876.833 475.86,862.634 475.86,848.278C475.86,844.036 476.079,839.84 476.493,835.704C460.845,817.556 437.946,806.899 413.79,806.899L413.79,806.9Z" style="fill:rgb(204,204,204);fill-rule:nonzero;stroke:black;stroke-width:12.63px;"/>
    </g>
    <g transform="matrix(0.079167,0,0,0.079167,2.49974,2.49984)">
        <path d="M477.96,1098.6C476.585,1091.15 475.862,1083.54 475.862,1075.82C475.862,1059.84 478.929,1044.57 484.452,1030.53C470.167,1019.63 452.85,1013.75 434.483,1013.75C395.202,1013.75 361.331,1041.7 353.467,1079.62C360.323,1094.89 368.662,1109.48 378.377,1123.15C400.08,1106.03 427.006,1096.5 455.17,1096.5C462.897,1096.5 470.514,1097.23 477.959,1098.6L477.96,1098.6Z" style="fill:rgb(204,204,204);fill-rule:nonzero;stroke:black;stroke-width:12.63px;"/>
    </g>
    <g transform="matrix(0.079167,0,0,0.079167,2.49974,2.49984)">
        <path d="M479.29,980.87C477.024,971.425 475.86,961.667 475.86,951.725C475.86,947.483 476.079,943.288 476.493,939.151C460.845,921.006 437.946,910.346 413.79,910.346C370.688,910.346 334.692,943.701 331.31,986.487C331.841,998.46 333.205,1010.31 335.384,1021.96C358.247,991.753 394.493,972.417 434.482,972.417C449.908,972.417 465.103,975.366 479.291,980.87L479.29,980.87Z" style="fill:rgb(204,204,204);fill-rule:nonzero;stroke:black;stroke-width:12.63px;"/>
    </g>
    <g transform="matrix(0.079167,0,0,0.079167,2.49974,2.49984)">
        <path d="M600,868.96C554.367,868.96 517.242,906.085 517.242,951.718C517.242,961.288 518.89,970.585 522.008,979.374C543.34,962.097 570.477,951.718 600,951.718C629.523,951.718 656.66,962.097 677.992,979.374C681.109,970.589 682.757,961.288 682.757,951.718C682.757,906.085 645.632,868.96 599.999,868.96L600,868.96Z" style="fill:rgb(204,204,204);fill-rule:nonzero;stroke:black;stroke-width:12.63px;"/>
    </g>
    <g transform="matrix(0.079167,0,0,0.079167,2.49974,2.49984)">
        <path d="M405,1154.9C415.09,1165.1 426.086,1174.53 437.941,1182.99L461.8,1200.03L475.859,1200.03C475.859,1180.31 480.507,1161.65 488.726,1145.08C478.257,1140.42 466.914,1137.96 455.167,1137.96C436.843,1137.96 419.288,1143.99 404.999,1154.9L405,1154.9Z" style="fill:rgb(204,204,204);fill-rule:nonzero;stroke:black;stroke-width:12.63px;"/>
    </g>
    <g transform="matrix(0.079167,0,0,0.079167,2.49974,2.49984)">
        <path d="M600,1117.2C554.367,1117.2 517.242,1154.33 517.242,1199.96L682.762,1199.96C682.762,1154.33 645.637,1117.2 600.004,1117.2L600,1117.2Z" style="fill:rgb(204,204,204);fill-rule:nonzero;stroke:black;stroke-width:12.63px;"/>
    </g>
    <g transform="matrix(0.079167,0,0,0.079167,2.49974,2.49984)">
        <path d="M600,993.1C554.367,993.1 517.242,1030.22 517.242,1075.86C517.242,1085.43 518.89,1094.73 522.008,1103.51C543.34,1086.24 570.477,1075.86 600,1075.86C629.523,1075.86 656.66,1086.24 677.992,1103.52C681.109,1094.73 682.757,1085.43 682.757,1075.86C682.757,1030.22 645.632,993.1 599.999,993.1L600,993.1Z" style="fill:rgb(204,204,204);fill-rule:nonzero;stroke:black;stroke-width:12.63px;"/>
    </g>
</svg>
