<svg xmlns="http://www.w3.org/2000/svg" xml:space="preserve" width="512" height="512" fill-rule="evenodd" stroke-linejoin="round" stroke-miterlimit="2" clip-rule="evenodd" viewBox="0 0 512 512">
  <g fill="#ccc" stroke="#000" stroke-width="5.12">
    <path fill-rule="nonzero" d="M154.5 141.47v52.113a13.034 13.034 0 0 0 13.03 13.03h52.113a13.034 13.034 0 0 0 13.026-13.03V141.47a13.034 13.034 0 0 0-13.026-13.026H167.53a13.034 13.034 0 0 0-13.03 13.026Zm26.057-4.339a17.27 17.27 0 0 1 13.03 6.002 17.301 17.301 0 1 1 24.393 24.393 17.301 17.301 0 1 1-24.393 24.398 17.301 17.301 0 1 1-24.398-24.398 17.292 17.292 0 0 1 11.367-30.395Zm30.4 208.452h17.374a4.345 4.345 0 0 1 4.344 4.348V367.3a4.34 4.34 0 0 1-4.344 4.343h-17.374a4.34 4.34 0 0 1-4.344-4.343v-17.37a4.35 4.35 0 0 1 4.344-4.348Z"/>
    <path d="M189.243 180.557a8.687 8.687 0 0 1-8.686 8.686 8.687 8.687 0 0 1-8.687-8.686 8.687 8.687 0 0 1 17.373 0z"/>
    <path fill-rule="nonzero" d="M158.843 345.582h17.37a4.345 4.345 0 0 1 4.344 4.348v17.37a4.34 4.34 0 0 1-4.344 4.343h-17.37a4.34 4.34 0 0 1-4.343-4.343v-17.37a4.35 4.35 0 0 1 4.343-4.348Zm0-104.225h17.37a4.344 4.344 0 0 1 4.344 4.343v17.37a4.34 4.34 0 0 1-4.344 4.348h-17.37a4.34 4.34 0 0 1-4.343-4.348V245.7a4.344 4.344 0 0 1 4.343-4.343Zm52.114 0h17.374a4.344 4.344 0 0 1 4.344 4.343v17.37a4.34 4.34 0 0 1-4.344 4.348h-17.374a4.34 4.34 0 0 1-4.344-4.348V245.7a4.344 4.344 0 0 1 4.344-4.343Z"/>
    <path d="M189.243 154.5a8.687 8.687 0 0 1-8.686 8.687 8.687 8.687 0 0 1-8.687-8.687 8.687 8.687 0 0 1 17.373 0z"/>
    <path fill-rule="nonzero" d="M263.07 319.53h17.37a4.35 4.35 0 0 0 4.343-4.348v-30.4h-26.052v30.4a4.35 4.35 0 0 0 4.339 4.348Zm21.712-73.83a4.34 4.34 0 0 0-4.343-4.343h-17.37a4.35 4.35 0 0 0-4.344 4.343v30.4h26.052zm30.4 99.882h17.375a4.35 4.35 0 0 1 4.343 4.348v17.37a4.344 4.344 0 0 1-4.343 4.343h-17.375a4.34 4.34 0 0 1-4.343-4.343v-17.37a4.35 4.35 0 0 1 4.343-4.348Zm-52.113 0h17.37a4.345 4.345 0 0 1 4.343 4.348v17.37a4.34 4.34 0 0 1-4.343 4.343h-17.37a4.34 4.34 0 0 1-4.344-4.343v-17.37a4.35 4.35 0 0 1 4.344-4.348ZM195.245 167.53a20 20 0 0 1-1.658-1.663q-.778.89-1.659 1.663.885.778 1.659 1.659a20 20 0 0 1 1.658-1.659Z"/>
    <path d="M215.3 180.557a8.687 8.687 0 0 1-8.687 8.686 8.687 8.687 0 0 1-8.688-8.686 8.687 8.687 0 0 1 17.375 0zm0-26.057a8.687 8.687 0 0 1-8.687 8.687 8.687 8.687 0 0 1-8.688-8.687 8.687 8.687 0 0 1 17.375 0z"/>
    <path fill-rule="nonzero" d="M158.843 293.47h69.487a4.34 4.34 0 0 1 4.344 4.348v17.364a4.34 4.34 0 0 1-4.344 4.348h-69.487a4.34 4.34 0 0 1-4.343-4.348v-17.364a4.345 4.345 0 0 1 4.343-4.348Z"/>
    <path fill-rule="nonzero" d="M358.618 24.213h-28.48a4.33 4.33 0 0 0-4.124 2.977l-2.714 8.205a21.84 21.84 0 0 1-20.633 14.879h-113.94a21.84 21.84 0 0 1-20.618-14.84l-2.724-8.24a4.33 4.33 0 0 0-4.125-2.976h-28.473a4.35 4.35 0 0 0-4.344 4.343v434.287a4.344 4.344 0 0 0 4.344 4.344h225.83a4.35 4.35 0 0 0 4.343-4.344V28.557a4.36 4.36 0 0 0-4.343-4.344ZM250.043 245.7a13.034 13.034 0 0 1 13.03-13.03h17.37a13.034 13.034 0 0 1 13.032 13.03v69.482a13.05 13.05 0 0 1-13.03 13.036h-17.37a13.05 13.05 0 0 1-13.03-13.036zm0 104.23a13.034 13.034 0 0 1 13.03-13.03h17.37a13.034 13.034 0 0 1 13.03 13.03v17.37a13.034 13.034 0 0 1-13.03 13.03h-17.37a13.034 13.034 0 0 1-13.03-13.03zm-30.4-230.174a21.74 21.74 0 0 1 21.714 21.713v52.113a21.74 21.74 0 0 1-21.714 21.713H167.53a21.74 21.74 0 0 1-21.713-21.713V141.47a21.74 21.74 0 0 1 21.713-21.713zm8.687 208.461h-69.487a13.05 13.05 0 0 1-13.03-13.036v-17.364a13.05 13.05 0 0 1 13.03-13.036h69.487a13.034 13.034 0 0 1 13.026 13.036v17.364a13.05 13.05 0 0 1-13.026 13.036Zm13.026 21.713v17.37a13.034 13.034 0 0 1-13.026 13.03h-17.374a13.034 13.034 0 0 1-13.026-13.03v-17.37a13.034 13.034 0 0 1 13.026-13.03h17.374a13.034 13.034 0 0 1 13.026 13.03Zm-95.543-86.86V245.7a13.034 13.034 0 0 1 13.03-13.03h17.37a13.034 13.034 0 0 1 13.03 13.03v17.37a13.034 13.034 0 0 1-13.03 13.03h-17.37a13.034 13.034 0 0 1-13.03-13.03Zm82.518 13.03h-17.374a13.034 13.034 0 0 1-13.026-13.03V245.7a13.034 13.034 0 0 1 13.026-13.03h17.374a13.034 13.034 0 0 1 13.026 13.03v17.37a13.034 13.034 0 0 1-13.026 13.03ZM141.47 80.67a8.683 8.683 0 0 1 8.687-8.687h26.056a8.687 8.687 0 1 1 0 17.375h-26.056a8.707 8.707 0 0 1-8.687-8.687Zm17.374 299.661a13.034 13.034 0 0 1-13.03-13.031v-17.37a13.034 13.034 0 0 1 13.03-13.03h17.37a13.034 13.034 0 0 1 13.03 13.03v17.37a13.034 13.034 0 0 1-13.03 13.03zM306.5 449.818H184.9a4.346 4.346 0 0 1 0-8.692h121.6a4.346 4.346 0 1 1 0 8.692Zm39.082-82.518a13.034 13.034 0 0 1-13.025 13.03h-17.375a13.034 13.034 0 0 1-13.025-13.03v-17.37a13.034 13.034 0 0 1 13.025-13.03h17.375a13.034 13.034 0 0 1 13.025 13.03zm0-52.118a13.034 13.034 0 0 1-13.025 13.036h-17.375a13.034 13.034 0 0 1-13.025-13.036V245.7a13.034 13.034 0 0 1 13.025-13.03h17.375a13.034 13.034 0 0 1 13.025 13.03zm0-121.595a21.74 21.74 0 0 1-21.713 21.713h-52.112a21.74 21.74 0 0 1-21.718-21.713V141.47a21.74 21.74 0 0 1 21.718-21.713h52.113c11.99.014 21.703 9.728 21.713 21.713zm-4.339-104.23h-43.425a8.687 8.687 0 1 1 0-17.375h43.425a8.687 8.687 0 1 1 0 17.375Z"/>
    <path fill-rule="nonzero" d="M332.557 241.357h-17.375a4.35 4.35 0 0 0-4.343 4.343v30.4h26.056v-30.4a4.33 4.33 0 0 0-4.338-4.343Zm-21.714 73.825a4.355 4.355 0 0 0 4.344 4.348h17.374a4.35 4.35 0 0 0 4.344-4.348v-30.4h-26.057v30.4z"/>
    <path fill-rule="nonzero" stroke-linejoin="miter" stroke-miterlimit="4" d="M358.618 2.5H132.787a26.087 26.087 0 0 0-26.057 26.057v434.286a26.087 26.087 0 0 0 26.057 26.057h225.83a26.07 26.07 0 0 0 26.052-26.057V28.557A26.07 26.07 0 0 0 358.618 2.5Zm-78.005 15.633q.151-.822.521-1.566a6.8 6.8 0 0 1 .783-1.562q.481-.681 1.041-1.304a9.095 9.095 0 0 1 12.335 0q.525.647 1.041 1.304.491.73.783 1.562.379.739.516 1.566.15.866.18 1.737a8.7 8.7 0 0 1-.7 3.302 10.3 10.3 0 0 1-1.825 2.865c-3.424 3.357-8.906 3.357-12.335 0a10.3 10.3 0 0 1-1.824-2.865 7.3 7.3 0 0 1-.695-3.302q.034-.876.18-1.737Zm91.03 444.71a13.034 13.034 0 0 1-13.025 13.03H132.787a13.034 13.034 0 0 1-13.03-13.03V28.557a13.034 13.034 0 0 1 13.03-13.026h28.473a13.015 13.015 0 0 1 12.37 8.93l2.713 8.205a13.13 13.13 0 0 0 12.385 8.92h113.944a13.18 13.18 0 0 0 12.407-8.959l2.695-8.166a13.015 13.015 0 0 1 12.369-8.93h28.473a13.034 13.034 0 0 1 13.026 13.026z"/>
    <path fill-rule="nonzero" d="M323.87 128.443h-52.113a13.034 13.034 0 0 0-13.03 13.026v52.113a13.034 13.034 0 0 0 13.03 13.03h52.113a13.034 13.034 0 0 0 13.03-13.03V141.47a13.034 13.034 0 0 0-13.03-13.026Zm-43.426 8.687h34.744a4.343 4.343 0 1 1 0 8.687h-34.744a4.348 4.348 0 0 1 0-8.687Zm3.065 44.7a4.334 4.334 0 0 1-1.931 7.301 4.33 4.33 0 0 1-4.208-1.158l-8.682-8.687a4.33 4.33 0 0 1 0-6.138l8.682-8.686a4.343 4.343 0 1 1 6.138 6.143l-5.613 5.619zm17.38 6.138a4.343 4.343 0 0 1-6.144-6.137l5.612-5.613-5.612-5.613a4.342 4.342 0 0 1 6.143-6.138l8.682 8.687a4.33 4.33 0 0 1 0 6.138zm26.056-8.682-8.687 8.687a4.343 4.343 0 0 1-6.143-6.138l5.612-5.612-5.612-5.613a4.343 4.343 0 0 1 6.143-6.138l8.687 8.687a4.33 4.33 0 0 1 0 6.128Z"/>
  </g>
</svg>
