<svg xmlns="http://www.w3.org/2000/svg" xml:space="preserve" width="512" height="512" fill-rule="evenodd" stroke-linejoin="round" stroke-miterlimit="2" clip-rule="evenodd" viewBox="0 0 512 512">
  <path fill="#ccc" fill-rule="nonzero" stroke="#000" stroke-width="5.12" d="M386.877 160.609h-69.642a6.195 6.195 0 0 0-6.149 6.17v12.672a6.184 6.184 0 0 0 6.144 6.108h69.652a6.17 6.17 0 0 0 6.144-6.108v-12.672a6.195 6.195 0 0 0-6.144-6.17Zm-13.834 239.468c-2.683 0-4.879-2.196-4.879-4.879s2.196-4.859 4.879-4.859h2.345a4.874 4.874 0 0 1 0 9.738zm-49.551 13.384a4.88 4.88 0 0 1-4.48-4.859 4.84 4.84 0 0 1 4.48-4.833h4.669a4.84 4.84 0 0 1 4.475 4.833 4.883 4.883 0 0 1-4.475 4.864zm15.964-31.928a4.864 4.864 0 0 1 0-9.738h4.71a4.864 4.864 0 0 1 0 9.738zm31.222 43.914a4.864 4.864 0 0 1 0-9.738h4.69a4.864 4.864 0 1 1 0 9.738zM153.052 135.578l.02.02a37.043 37.043 0 0 0-63.226 26.194 37.02 37.02 0 0 0 22.856 34.202 37.02 37.02 0 0 0 40.371-8.008 37.07 37.07 0 0 0 10.854-26.194 36.97 36.97 0 0 0-10.854-26.199zm-15.145 15.171.02.02a15.585 15.585 0 0 0-26.618 11.023 15.62 15.62 0 0 0 9.61 14.408 15.63 15.63 0 0 0 17.009-3.4 15.616 15.616 0 0 0 0-22.031zm-11.028-14.259c10.24 0 19.476 6.144 23.383 15.611a25.29 25.29 0 0 1-5.448 27.566 25.34 25.34 0 0 1-27.592 5.514 25.313 25.313 0 0 1 9.651-48.691zm171.889 281.421h4.905l.02.026a22.22 22.22 0 0 1 21.166 15.544 1.84 1.84 0 0 0 1.818 1.311h85.893a1.95 1.95 0 0 0 1.587-.845 1.95 1.95 0 0 0 .148-1.792L382.72 358.4a1.89 1.89 0 0 0-1.894-1.142c-10.445.737-19.63-2.324-28.8-1.879-9.569.42-19.917 4.859-30.377 5.197a1.84 1.84 0 0 0-1.669 1.162l-22.958 53.53h.02a1.9 1.9 0 0 0 .169 1.792 1.84 1.84 0 0 0 1.562.845zm17.28 44.872c.276-1.567.215-20.557.128-22.989a12.56 12.56 0 0 0-12.483-12.165H35a12.544 12.544 0 0 0-12.483 12.508v20.68A12.544 12.544 0 0 0 35 473.32h268.692a12.595 12.595 0 0 0 12.355-10.537Zm-75.162-274.811-82.703 40.73a6.605 6.605 0 0 0-3.656 6.359 6.605 6.605 0 0 0 4.454 5.832 6.45 6.45 0 0 0 5.053-.297l82.744-40.755v.026a6.656 6.656 0 0 0 3.446-8.745 6.656 6.656 0 0 0-8.745-3.446zM155.668 73.769l-16.773-34.012a1.9 1.9 0 0 0-1.075-.973 2.05 2.05 0 0 0-1.459.102l-32.195 15.846a1.9 1.9 0 0 0-.952 1.101 1.8 1.8 0 0 0 .087 1.434L120.074 91.3a1.84 1.84 0 0 0 1.075.952 1.84 1.84 0 0 0 1.459-.082l32.195-15.846a1.92 1.92 0 0 0 .865-2.56Zm-34.857 30.08c-3.21 1.69-6.19 2.406-7.542 6.339-.927 2.642-.486 6.973 2.243 6.272a46.746 46.746 0 0 1 53.34 24.74 46.8 46.8 0 0 1-13.056 57.334 1.894 1.894 0 0 0-.553 2.345l6.487 13.138v.02a1.946 1.946 0 0 0 2.534.87l62.336-30.7a1.93 1.93 0 0 0 .886-2.534l-48.118-97.7-.02-.02a8.023 8.023 0 0 0-10.711-3.651l-47.785 23.532h-.061zm73.242 134.902 4.183 8.494v-.02a1.9 1.9 0 0 0 1.101.973 1.84 1.84 0 0 0 1.454-.108l29.916-14.725v.02a1.93 1.93 0 0 0 .865-2.534l-4.224-8.515a1.88 1.88 0 0 0-2.54-.865l-29.911 14.705a1.97 1.97 0 0 0-.865 2.575zm90.691 132.219-22.072 44.216a1.95 1.95 0 0 0 .061 1.859c.358.568.973.906 1.649.886h19.753a1.84 1.84 0 0 0 1.751-1.162l26.998-63.053a4.864 4.864 0 0 1 5.135-2.898c8.873 1.014 22.18-4.557 33.608-5.089 9.994-.461 24.335 3.441 32.384 1.393h-.02a4.864 4.864 0 0 1 5.642 2.811l37.622 87.834a4.864 4.864 0 0 1-4.454 6.738h-95.027a1.8 1.8 0 0 0-1.331.553 1.8 1.8 0 0 0-.548 1.331v10.348a1.88 1.88 0 0 0 1.879 1.879H431.77a19.3 19.3 0 0 0 16.584-9.19 19.3 19.3 0 0 0 .717-18.97l-61.266-122.675a47.6 47.6 0 0 1-5.765-21.693v-88.934a1.91 1.91 0 0 0-1.925-1.879h-56.147a1.894 1.894 0 0 0-1.879 1.879v88.934a47.6 47.6 0 0 1-5.786 21.699l-17.853 35.697v-.02a1.84 1.84 0 0 0-.061 1.567c4.183 10.368-2.243 20.7-12.677 25.011h.02a1.74 1.74 0 0 0-.993.906zM51.067 304.794c1.454 0 5.955.886 5.361-2.135-7.562-39.101 9.103-74.035 40.837-101.862h-.026a1.9 1.9 0 0 0 .676-1.434 1.9 1.9 0 0 0-.676-1.459 46.6 46.6 0 0 1-16.435-28.564c-.102-.655-.527-1.224-1.137-1.48s-1.311-.169-1.859.236C28.82 203.469 6.953 259.789 14.131 317.993a1.874 1.874 0 0 0 3.256 1.075 46.6 46.6 0 0 1 33.669-14.28zm47.739 57.754h175.565c12.805 0 20.982-11.023 11.453-18.381a18.64 18.64 0 0 0-11.448-3.63h-13.942c-2.473 0-1.925-3.19-1.925-5.642h.02a4.61 4.61 0 0 0-4.557-4.582h-59.597a4.61 4.61 0 0 0-4.588 4.582c0 2.458.573 5.642-1.92 5.642H98.801a1.95 1.95 0 0 0-1.454.676 1.84 1.84 0 0 0-.404 1.541 47.1 47.1 0 0 1 0 17.556 1.9 1.9 0 0 0 .404 1.562 1.84 1.84 0 0 0 1.454.696zm-13.517 3a37.053 37.053 0 0 0-54.968-44.764 37.053 37.053 0 0 0 20.741 67.789 37.12 37.12 0 0 0 34.268-23.004zm-39.424 35.574v-.02a184 184 0 0 0 12.401 16.159 1.8 1.8 0 0 0 1.439.655h99.415a1.894 1.894 0 0 0 1.859-1.454 1.894 1.894 0 0 0-1.034-2.135 259 259 0 0 1-61.788-41.554c-.804-.778-2.514-.507-4.081-.507h.026a1.74 1.74 0 0 0-1.669 1.034 46.8 46.8 0 0 1-44.817 24.862 1.95 1.95 0 0 0-1.792.947 1.95 1.95 0 0 0 .061 2.028zm16.164-60.605a15.565 15.565 0 0 0-16.988-3.379 15.565 15.565 0 0 0-9.631 14.387 15.565 15.565 0 0 0 9.631 14.408 15.58 15.58 0 0 0 16.983-25.416Zm-10.967-14.28a25.29 25.29 0 0 1 23.368 15.631 25.283 25.283 0 0 1-33.039 33.065 25.29 25.29 0 0 1-15.637-23.394 25.344 25.344 0 0 1 25.308-25.308zm447.933-143.443L478.208 146.8h.026a1.95 1.95 0 0 0-1.69-.973h-41.62a1.84 1.84 0 0 0-1.628.973l-20.787 35.994a1.9 1.9 0 0 0 0 1.905l20.787 35.994a1.9 1.9 0 0 0 1.628.932h41.595a1.84 1.84 0 0 0 1.669-.932l20.787-35.994a1.9 1.9 0 0 0 0-1.905zM351.252 96.415l-21.233-36.803v-.02a1.95 1.95 0 0 0-1.628-.973h-41.636a1.84 1.84 0 0 0-1.608.973l-20.808 35.994v.026a1.79 1.79 0 0 0 0 1.9l20.767 35.978a1.84 1.84 0 0 0 1.628.947h42.547a1.84 1.84 0 0 0 1.623-.947l20.326-35.195a1.79 1.79 0 0 0 0-1.879zm-6.615 54.502h42.25a15.87 15.87 0 0 1 15.841 15.841v12.124h.742l21.335-36.987a1.79 1.79 0 0 0 0-1.879l-20.787-35.978a1.79 1.79 0 0 0-1.628-.927h-41.615a1.79 1.79 0 0 0-1.603.927l-20.808 35.994v.026a1.79 1.79 0 0 0 0 1.879l4.644 8.049a1.9 1.9 0 0 0 1.649.952zm47.104 44.933v66.647a1.93 1.93 0 0 0 1.925 1.92h8.704c.676 0 1.29-.358 1.628-.947l20.869-36.127a2.05 2.05 0 0 0 0-1.9l-20.741-35.912c-.701-1.183-1.946-.952-3.359-.952-2.074 0-2.048 3.108-7.818 5.473l-.02-.02a1.95 1.95 0 0 0-1.183 1.792zm86.446-60.672 20.787-35.999a1.9 1.9 0 0 0 0-1.905L478.187 61.26a1.84 1.84 0 0 0-1.669-.932h-41.595a1.9 1.9 0 0 0-1.628.932l-20.828 36.081a1.84 1.84 0 0 0 0 1.92l20.746 35.912a1.84 1.84 0 0 0 1.623.952h41.682c.696 0 1.331-.358 1.669-.952Z"/>
</svg>
