<?xml version="1.0" encoding="UTF-8" standalone="no"?><!DOCTYPE svg PUBLIC "-//W3C//DTD SVG 1.1//EN" "http://www.w3.org/Graphics/SVG/1.1/DTD/svg11.dtd"><svg width="100%" height="100%" viewBox="0 0 417 417" version="1.1" xmlns="http://www.w3.org/2000/svg" xmlns:xlink="http://www.w3.org/1999/xlink" xml:space="preserve" xmlns:serif="http://www.serif.com/" style="fill-rule:evenodd;clip-rule:evenodd;stroke-linejoin:round;stroke-miterlimit:2;"><g><g><g><path d="M36.764,166.923C34.636,164.355 31.947,162.407 28.954,161.219L37.916,145.983C38.626,144.773 38.559,143.32 37.857,142.206C34.865,137.196 32.139,130.268 30.594,124.623C30.21,123.266 29.124,122.299 27.838,122.034L10.417,117.503L10.417,91.326L28.001,86.752C29.316,86.412 30.261,85.408 30.601,84.184L30.609,84.191C32.308,77.978 34.746,72.061 37.931,66.491C38.603,65.317 38.544,63.93 37.909,62.839L28.717,47.196L47.247,28.692L62.911,37.872C64.122,38.579 65.578,38.514 66.693,37.812C71.71,34.824 78.647,32.101 84.299,30.559C85.658,30.175 86.627,29.091 86.892,27.806L91.422,10.417L117.634,10.417L122.215,27.977C122.556,29.29 123.561,30.234 124.787,30.573L124.779,30.581C131.001,32.277 136.926,34.712 142.503,37.893C143.679,38.563 145.068,38.505 146.162,37.87L161.825,28.692L168.504,35.362L144.314,59.518C120.671,38.594 84.61,39.545 62.098,62.027C39.563,84.531 38.668,120.56 59.585,144.131L36.771,166.929L36.764,166.923Z" style="fill:#ccc;stroke:#000;stroke-width:4.16px;"/></g><g><path d="M100.987,84.577L144.357,127.888C146.67,130.197 144.091,136.206 146.138,142.131C148.243,148.247 153.925,148.289 160.36,148.576L153.238,141.464C152.322,140.549 151.997,139.28 152.248,138.114L153.763,128.574C154.021,126.958 155.322,125.748 156.866,125.534L166.537,124.007C167.734,123.815 168.894,124.236 169.692,125.033L176.814,132.145C176.533,125.726 176.479,120.045 170.354,117.942C164.458,115.921 158.41,118.459 156.105,116.157L156.09,116.171L112.72,72.861C110.407,70.551 112.986,64.543 110.939,58.618C108.826,52.494 103.152,52.46 96.717,52.172L103.455,58.901C104.371,59.816 104.696,61.085 104.445,62.251L102.93,71.791C102.672,73.406 101.371,74.617 99.827,74.83L90.156,76.358C88.959,76.549 87.799,76.129 87.001,75.332L80.263,68.603C80.544,75.022 80.598,80.704 86.723,82.806C92.619,84.828 98.667,82.29 100.973,84.592L100.987,84.577Z" style="fill:#ccc;stroke:#000;stroke-width:4.16px;"/></g><g><path d="M103.035,117.492L84.017,136.484C82.273,138.226 79.185,137.045 79.185,134.492C79.185,133.105 80.013,132.486 80.914,131.585L99.031,113.494C100.774,111.752 103.862,112.933 103.862,115.486C103.855,116.216 103.582,116.947 103.035,117.493L103.035,117.492Z" style="fill:#ccc;stroke:#000;stroke-width:4.16px;"/></g><g><path d="M89.344,110.78L67.298,88.77C65.643,87.117 63.457,86.29 61.277,86.298C53.623,86.298 49.988,95.535 55.256,100.796L77.309,122.799L89.344,110.78Z" style="fill:#ccc;stroke:#000;stroke-width:4.16px;"/></g><g><path d="M97.302,135.589L101.868,131.03L126.456,155.579C126.996,156.117 127.697,156.494 128.518,156.604L136.556,157.755L143.043,170.667L137.014,176.688L124.084,170.21L122.947,162.33C122.865,161.526 122.511,160.744 121.897,160.131L97.302,135.589Z" style="fill:#ccc;stroke:#000;stroke-width:4.16px;"/></g></g><g><path d="M324,374.822C319.641,370.211 315.643,365.564 308.872,365.637L191.376,365.637C184.19,365.565 180.012,370.896 175.401,375.722L324.829,375.722C324.54,375.416 324.252,375.11 324,374.822L324,374.822Z" style="fill:#ccc;fill-rule:nonzero;stroke:#000;stroke-width:4.16px;"/><path d="M113.429,261.091C105.757,267.719 91.98,281.154 94.249,294.842C98.823,319.822 99.273,339.579 99.346,359.316C99.382,365.656 103.02,371.167 108.297,373.904L108.297,396.814C108.297,402.035 112.151,406.25 116.923,406.25L145.109,406.25C149.863,406.25 153.735,402.016 153.735,396.814L153.735,375.723L164.073,375.723C172.754,368.357 178.03,357.75 191.376,357.75L308.871,357.75C322.199,357.731 327.475,368.339 336.174,375.723L346.512,375.723L346.512,396.814C346.512,402.035 350.366,406.25 355.138,406.25L383.324,406.25C388.078,406.25 391.95,402.016 391.95,396.814L391.95,373.904C397.245,371.185 400.883,365.674 400.901,359.334C400.973,339.578 401.423,319.784 405.998,294.895C408.25,281.387 394.868,268.096 387.34,261.576C387.16,261.432 386.98,261.252 386.8,261.108C383.954,258.587 381.181,256.119 378.642,253.255C388.871,254.714 405.549,250.698 405.856,239.208C405.856,231.194 396.057,224.908 383.54,224.908C380.263,224.908 377.453,225.556 375.184,226.781C371.69,228.69 369.457,231.895 368.466,236.398C365.224,227.375 358.777,209.293 355.967,201.747C338.822,161.62 303.542,165.763 253.06,164.935C251.583,164.953 248.63,164.935 247.153,164.935C196.691,165.763 161.424,161.621 144.246,201.747C141.527,209.095 135.385,226.24 132.161,235.263C131.063,231.949 129.01,228.996 125.75,227.105C123.192,225.628 120.419,224.944 116.673,224.89C104.174,224.89 94.359,231.157 94.359,239.19C94.719,250.752 111.252,254.642 121.553,253.273C118.996,256.119 116.259,258.568 113.431,261.09L113.429,261.091ZM247.14,183.846L253.08,183.846C293.745,184.926 326.707,179.722 338.233,208.303C340.538,214.57 345.329,227.898 348.552,236.867C329.39,242.45 170.847,242.45 151.667,236.867C154.891,227.88 159.664,214.571 161.987,208.303C173.495,179.739 206.471,184.926 247.14,183.846ZM121.283,284.593C131.89,283.693 158.851,291.978 166.9,295.94C172.933,299.127 170.844,316.111 166.305,320.055C160.254,325.26 128.935,324.089 121.138,315.985C115.086,309.555 113.538,285.872 121.282,284.612L121.283,284.593ZM206.504,321.009C206.504,318.056 208.918,315.642 211.871,315.642L288.379,315.642C291.333,315.642 293.746,318.056 293.746,321.009L293.746,331.095C293.746,334.066 291.333,336.462 288.379,336.462L211.871,336.462C208.9,336.462 206.504,334.049 206.504,331.095L206.504,321.009ZM378.984,316.111C371.132,324.017 339.941,325.26 333.959,320.037C329.42,316.093 327.331,299.109 333.364,295.922C341.415,291.96 368.357,283.693 378.982,284.575C386.726,285.836 385.177,309.465 379.144,315.912C379.09,315.985 379.036,316.02 378.982,316.093L378.984,316.111Z" style="fill:#ccc;fill-rule:nonzero;stroke:#000;stroke-width:4.16px;"/></g></g></svg>