<svg xmlns="http://www.w3.org/2000/svg" xml:space="preserve" width="512" height="512" fill-rule="evenodd" stroke-linejoin="round" stroke-miterlimit="2" clip-rule="evenodd" viewBox="0 0 512 512">
  <path fill="#ccc" fill-rule="nonzero" stroke="#000" stroke-width="5.12" d="M470.871 205.389h-7.962v206.909h7.962c4.393 0 7.962-3.553 7.962-7.956V213.345a7.96 7.96 0 0 0-7.962-7.956ZM33.172 213.35v190.996c0 4.393 3.569 7.956 7.962 7.956h23.875V205.389H41.134c-4.393 0-7.962 3.564-7.962 7.956Zm23.88 111.411H41.134V292.93h15.918z"/>
  <g fill="#ccc" stroke="#000" stroke-linejoin="miter" stroke-miterlimit="4" stroke-width="5.12">
    <path d="M248.044 229.263h15.918v15.913h-15.918zM12.8 28.083h15.923v15.913H12.8zm23.88 73.851h15.913v15.913H36.68zm211.364-73.851h15.918v15.913h-15.918zM128.671 300.887h15.918v15.918h-15.923zm29.609-198.953h15.913v15.913H158.28zm89.764 23.875h15.918v15.918h-15.918zm235.238-97.726H499.2v15.913h-15.923zm-145.464 73.851h15.913v15.913h-15.913zm121.6 0h15.913v15.913h-15.913zm-92.007 198.953h15.918v15.918h-15.918z"/>
    <path fill-rule="nonzero" d="M351.498 78.06h15.913V62.147h15.918V46.228h-15.918V30.31h-15.913v15.923H335.58v15.913h15.918zm-206.909 0h15.913V62.147h15.918V46.228h-15.918V30.31h-15.913v15.923h-15.923v15.913h15.918zm270.572 103.455v-15.918h15.918v-15.913h-15.918v-15.918h-15.913v15.918H383.33v15.913h15.918v15.918zm-318.321 0h15.913v-15.918h15.918v-15.913h-15.918v-15.918H96.84v15.918H80.922v15.913H96.84z"/>
  </g>
  <path fill="#ccc" fill-rule="nonzero" stroke="#000" stroke-width="5.12" d="M351.498 364.554a7.956 7.956 0 0 0-7.962 7.956v47.749a7.962 7.962 0 1 1-15.923 0v-55.706a7.32 7.32 0 0 0-2.304-5.494 7.53 7.53 0 0 0-5.647-2.458 7.955 7.955 0 0 0-7.956 7.962v55.687a7.962 7.962 0 1 1-15.923 0v-63.657a7.42 7.42 0 0 0-2.304-5.494 7.53 7.53 0 0 0-5.652-2.463 7.96 7.96 0 0 0-7.962 7.962v63.662a7.962 7.962 0 1 1-15.923 0V284.887a7.32 7.32 0 0 0-2.304-5.489 7.68 7.68 0 0 0-5.638-2.386 7.91 7.91 0 0 0-7.962 7.864v152.648a7.967 7.967 0 0 1-7.977 7.946 7.99 7.99 0 0 1-6.666-3.645l-.394-.548-31.913-30.715a15 15 0 0 1-1.034-1.193 16.435 16.435 0 0 0-22.129-4.055 15.974 15.974 0 0 0-4.454 21.642l54.113 56.966h118.579c2.145-4.936 6.047-13.609 13.286-29.286v-82.125a7.42 7.42 0 0 0-2.309-5.494 7.53 7.53 0 0 0-5.647-2.463Z"/>
  <path fill="#ccc" fill-rule="nonzero" stroke="#000" stroke-linejoin="miter" stroke-miterlimit="4" stroke-width="5.12" d="M232.131 253.138v-7.962h-59.055l-22.758 39.793h2.227a7.96 7.96 0 0 1 7.962 7.962v31.831a7.96 7.96 0 0 1-7.962 7.962h-31.831a7.96 7.96 0 0 1-7.962-7.962v-31.831c0-4.388 3.569-7.962 7.962-7.962h11.305l29.522-51.717a7.99 7.99 0 0 1 6.922-3.978h63.667c.041-1.684-5.417-23.88-5.417-23.88H80.922v206.909h74.808a31.85 31.85 0 0 1 13.133-20.055 31.4 31.4 0 0 1 18.145-5.647 31.9 31.9 0 0 1 25.626 12.974l19.497 18.78V284.892c.041-13.153 4.306-24.064 17.459-24.064l-9.508.266a7.956 7.956 0 0 1-7.951-7.956Zm47.744-23.875h63.667a7.94 7.94 0 0 1 6.922 3.978l29.522 51.722h11.305a7.96 7.96 0 0 1 7.962 7.962v31.831a7.96 7.96 0 0 1-7.962 7.962H359.46a7.96 7.96 0 0 1-7.962-7.956v-31.836a7.96 7.96 0 0 1 7.962-7.962h2.227l-22.758-39.793h-59.054v7.962a7.956 7.956 0 0 1-7.956 7.962l-9.513.266c13.117.097 17.331 10.419 17.469 23.532v49.178a24.37 24.37 0 0 1 24.919 5.729q1.812 1.797 3.185 3.978a24.55 24.55 0 0 1 28.646 3.978q1.812 1.792 3.185 3.973a24.6 24.6 0 0 1 28.646 3.978 23.55 23.55 0 0 1 6.917 16.794v39.788h71.624V205.39H285.235z"/>
  <path fill="#ccc" stroke="#000" stroke-linejoin="miter" stroke-miterlimit="4" stroke-width="5.12" d="m19.272 59.837 14.904-5.581 11.93 31.831-14.899 5.586zm46.367 42.097h79.585v15.913h-79.58zM465.89 86.072l11.935-31.831 14.899 5.586-11.93 31.836zm-99.113 15.862h79.58v15.913h-79.581zm-180.07-5.627 47.749-47.744 11.254 11.254-47.744 47.749zm79.575-36.5 11.254-11.254 47.749 47.749-11.254 11.254z"/>
  <path fill="#ccc" fill-rule="nonzero" stroke="#000" stroke-linejoin="miter" stroke-miterlimit="4" stroke-width="5.12" d="m184.694 130.028 37.171 59.443h18.775l-42.419-67.881zm108.314 59.448 37.166-59.448-13.532-8.438-42.419 67.886z"/>
</svg>
