<?xml version="1.0" encoding="UTF-8" standalone="no"?><!DOCTYPE svg PUBLIC "-//W3C//DTD SVG 1.1//EN" "http://www.w3.org/Graphics/SVG/1.1/DTD/svg11.dtd"><svg width="100%" height="100%" viewBox="0 0 417 417" version="1.1" xmlns="http://www.w3.org/2000/svg" xmlns:xlink="http://www.w3.org/1999/xlink" xml:space="preserve" xmlns:serif="http://www.serif.com/" style="fill-rule:evenodd;clip-rule:evenodd;stroke-linejoin:round;stroke-miterlimit:2;"><rect x="102.778" y="379.861" width="105.555" height="26.389" style="fill:#ccc;stroke:#000;stroke-width:4.17px;"/><rect x="76.389" y="340.278" width="13.194" height="65.972" style="fill:#ccc;stroke:#000;stroke-width:4.17px;"/><rect x="102.778" y="340.278" width="105.555" height="26.389" style="fill:#ccc;stroke:#000;stroke-width:4.17px;"/><path d="M23.611,360.069l0,26.389c0,10.912 8.881,19.792 19.792,19.792l19.792,-0l-0,-65.972l-19.792,-0c-10.911,-0 -19.792,8.879 -19.792,19.791Z" style="fill:#ccc;fill-rule:nonzero;stroke:#000;stroke-width:4.17px;"/><rect x="274.305" y="142.361" width="92.368" height="13.194" style="fill:#ccc;stroke:#000;stroke-width:4.17px;"/><path d="M274.305,373.264c0,-1.551 -0.864,-2.949 -2.262,-3.649l-10.932,-5.462l0,18.228l10.938,-5.469c1.392,-0.699 2.256,-2.098 2.256,-3.648l0,-0Z" style="fill:#ccc;fill-rule:nonzero;stroke:#000;stroke-width:4.17px;"/><path d="M357.232,243.094l-3.76,-1.793l0,-72.55l-65.971,0l-0,72.55l-3.76,1.788c-29.78,14.17 -49.017,44.551 -49.017,77.398c-0,5.582 0.653,11.123 1.721,16.572l41.51,20.754c5.884,2.952 9.546,8.873 9.546,15.451c0,6.58 -3.662,12.501 -9.54,15.45l-5.495,2.745c14.111,9.556 30.809,14.794 48.021,14.794c47.288,0 85.763,-38.475 85.763,-85.765c-0,-32.847 -19.238,-63.228 -49.018,-77.392l0,-0.002Z" style="fill:#ccc;fill-rule:nonzero;stroke:#000;stroke-width:4.17px;"/><path d="M221.528,402.159l26.389,-13.194l-0,-31.429l-26.389,-13.194l-0,57.817Z" style="fill:#ccc;fill-rule:nonzero;stroke:#000;stroke-width:4.17px;"/><rect x="10.417" y="221.528" width="26.389" height="13.194" style="fill:#ccc;stroke:#000;stroke-width:4.17px;"/><rect x="50" y="221.528" width="26.389" height="13.194" style="fill:#ccc;stroke:#000;stroke-width:4.17px;"/><rect x="10.417" y="247.917" width="65.972" height="13.194" style="fill:#ccc;stroke:#000;stroke-width:4.17px;"/><rect x="10.417" y="274.306" width="65.972" height="13.194" style="fill:#ccc;stroke:#000;stroke-width:4.17px;"/><rect x="10.417" y="300.694" width="13.194" height="13.194" style="fill:#ccc;stroke:#000;stroke-width:4.17px;"/><rect x="36.806" y="300.694" width="13.194" height="13.194" style="fill:#ccc;stroke:#000;stroke-width:4.17px;"/><path d="M198.787,313.196l5.904,-11.803l-49.136,-24.567l-0,-56.511c7.659,-2.732 13.194,-9.989 13.194,-18.578c0,-0.818 -0.145,-1.603 -0.243,-2.396l19.527,-9.764c3.563,3.425 8.378,5.562 13.702,5.562c5.325,0 10.14,-2.137 13.703,-5.567l36.126,18.063l5.904,-11.802l-36.179,-18.09c0.092,-0.792 0.238,-1.577 0.238,-2.395c-0,-8.589 -5.536,-15.846 -13.195,-18.578l0,-42.017c7.659,-2.732 13.195,-9.989 13.195,-18.578c-0,-0.819 -0.146,-1.603 -0.244,-2.396l19.528,-9.764c3.563,3.431 8.378,5.569 13.702,5.569c5.324,-0 10.139,-2.138 13.702,-5.568l19.527,9.765c-0.098,0.797 -0.243,1.582 -0.243,2.4c-0,8.589 5.535,15.846 13.194,18.578l0,14.408l13.195,0l-0,-14.408c7.659,-2.732 13.194,-9.989 13.194,-18.578c0,-10.911 -8.88,-19.792 -19.791,-19.792c-5.325,0 -10.14,2.138 -13.703,5.568l-19.527,-9.764c0.098,-0.798 0.243,-1.583 0.243,-2.401c0,-10.911 -8.88,-19.791 -19.791,-19.791c-10.911,-0 -19.792,8.88 -19.792,19.791c0,0.818 0.146,1.603 0.244,2.396l-19.528,9.764c-3.563,-3.425 -8.378,-5.562 -13.702,-5.562c-5.324,-0 -10.139,2.137 -13.702,5.568l-32.478,-16.242l-0,-55.298l-13.195,-0l0,55.298l-32.478,16.242c-3.563,-3.43 -8.378,-5.568 -13.702,-5.568c-10.911,-0 -19.792,8.88 -19.792,19.791c0,8.59 5.536,15.847 13.195,18.578l-0,42.018c-7.659,2.731 -13.195,9.988 -13.195,18.578c0,0.818 0.146,1.602 0.244,2.395l-36.179,18.089l5.904,11.803l36.126,-18.064c3.557,3.424 8.373,5.561 13.697,5.561c5.324,0 10.139,-2.137 13.702,-5.567l19.527,9.764c-0.098,0.798 -0.244,1.582 -0.244,2.401c0,8.589 5.536,15.846 13.195,18.578l-0,56.511l-49.13,24.568l5.904,11.803l49.822,-24.919l49.831,24.918Zm-63.531,-125.683l-19.527,-9.765c0.098,-0.798 0.243,-1.582 0.243,-2.4c0,-8.59 -5.535,-15.847 -13.194,-18.578l-0,-42.018c7.659,-2.731 13.194,-9.988 13.194,-18.577c0,-0.819 -0.145,-1.604 -0.243,-2.396l33.23,-16.611l33.23,16.611c-0.098,0.799 -0.244,1.584 -0.244,2.402c0,8.589 5.536,15.846 13.195,18.578l-0,42.017c-7.659,2.732 -13.195,9.989 -13.195,18.578c0,0.818 0.146,1.603 0.244,2.395l-19.527,9.765c-3.563,-3.431 -8.378,-5.569 -13.703,-5.569c-5.324,-0 -10.139,2.137 -13.702,5.568l-0.001,-0Z" style="fill:#ccc;fill-rule:nonzero;stroke:#000;stroke-width:4.17px;"/></svg>