<?xml version="1.0" encoding="UTF-8" standalone="no"?><!DOCTYPE svg PUBLIC "-//W3C//DTD SVG 1.1//EN" "http://www.w3.org/Graphics/SVG/1.1/DTD/svg11.dtd"><svg width="417px" height="417px" version="1.1" xmlns="http://www.w3.org/2000/svg" xmlns:xlink="http://www.w3.org/1999/xlink" xml:space="preserve" xmlns:serif="http://www.serif.com/" style="fill-rule:evenodd;clip-rule:evenodd;stroke-linejoin:round;stroke-miterlimit:2;"><g transform="matrix(4.16667,0,0,4.16667,0,0)"><g transform="matrix(-1.38232e-16,-0.7525,-0.753529,1.38421e-16,73.2332,73.2645)"><g transform="matrix(0.0502414,-0.0502414,0.0502414,0.0502414,-8.61243,63.9701)"><path d="M310.255,738.204C311.661,753.11 309.318,767.829 303.599,781.095L380.427,801.064C386.521,802.658 390.927,807.486 392.239,813.252C398.661,838.658 412.02,869.314 425.051,892.143C428.145,897.674 427.77,904.19 424.535,909.112L383.66,978.768L466.816,1061.92L537.128,1020.67C542.378,1017.58 548.566,1017.77 553.534,1020.58L553.534,1020.53C578.659,1034.88 605.19,1045.94 632.987,1053.53C638.847,1055.13 643.065,1059.72 644.518,1065.2L665.049,1144.05L782.609,1144.05L803.14,1065.2C804.734,1059.11 809.562,1054.7 815.328,1053.39C840.734,1046.97 871.39,1033.61 894.219,1020.58C899.75,1017.49 906.266,1017.86 911.188,1021.1L980.797,1061.97L1063.95,978.816L1022.7,908.504C1019.61,903.254 1019.8,897.066 1022.61,892.098L1022.56,892.098C1036.91,866.973 1047.97,840.442 1055.56,812.645C1057.16,806.786 1061.75,802.567 1067.24,801.114L1146.08,780.583L1146.08,738.208L992.609,738.208C984.077,879.678 866.659,991.048 723.829,991.048C580.859,991.048 463.569,879.438 455.049,738.208L310.259,738.161L310.255,738.204Z" style="fill:rgb(204,204,204);stroke:black;stroke-width:18.7px;"/></g><g transform="matrix(0.0502414,-0.0502414,0.0502414,0.0502414,-4.61243,68.9701)"><path d="M785.517,706.481L785.517,431.321C785.517,416.649 758.251,405.742 745.922,380.429C733.172,354.32 751.064,336.164 770.564,314.836L770.564,360.024C770.564,365.837 773.564,370.899 778.064,373.805L813.173,399.305C819.126,403.618 827.095,403.336 832.673,399.118L868.204,373.29C872.61,370.102 874.954,365.086 874.954,360.024L874.954,314.836C894.454,336.117 912.328,354.337 899.578,380.446C887.297,405.571 860.048,416.695 860.048,431.321L859.954,431.321L859.954,706.481C859.954,721.153 887.221,732.06 899.55,757.373C912.3,783.529 894.408,801.638 874.907,822.966L874.907,780.216C874.907,774.403 871.907,769.341 867.407,766.435L832.298,740.935C826.345,736.622 818.376,736.903 812.798,741.122L777.267,766.95C772.861,770.138 770.517,775.153 770.517,780.216L770.517,822.966C751.017,801.685 733.143,783.464 745.893,757.355C758.174,732.23 785.423,721.107 785.423,706.481L785.517,706.481Z" style="fill:rgb(204,204,204);stroke:black;stroke-width:18.7px;"/></g><g transform="matrix(0.0502414,-0.0502414,0.0502414,0.0502414,-4.61243,68.9701)"><path d="M687.455,595.427L566.795,595.427C555.733,595.427 549.686,608.974 557.795,617.083C562.201,621.489 566.795,620.833 572.514,620.833L687.454,620.833C698.516,620.833 704.563,607.286 696.454,599.177C694.11,596.88 690.923,595.427 687.454,595.427L687.455,595.427Z" style="fill:rgb(204,204,204);stroke:black;stroke-width:18.7px;"/></g><g transform="matrix(0.0502414,-0.0502414,0.0502414,0.0502414,-4.61243,68.9701)"><path d="M665.348,660.18L665.33,800.033C665.33,810.533 661.018,820.095 654.08,826.986C629.799,851.267 588.924,833.455 588.924,800.033L588.989,660.18L665.348,660.18Z" style="fill:rgb(204,204,204);stroke:black;stroke-width:18.7px;"/></g><g transform="matrix(0.0502414,-0.0502414,0.0502414,0.0502414,-4.61243,68.9701)"><path d="M611.781,556.128L640.75,556.128L640.768,400.145C640.768,396.723 641.799,393.301 644.049,390.348L665.893,361.192L645.455,299.598L607.205,299.598L586.767,361.192L608.189,389.833C610.486,392.646 611.845,396.255 611.845,400.145L611.781,556.128Z" style="fill:rgb(204,204,204);stroke:black;stroke-width:18.7px;"/></g></g><g transform="matrix(1.025,0,0,1.025,-558.513,-646.073)"><g transform="matrix(0.0936988,0,0,0.0936988,543.792,622.904)"><path d="M575.68,570.74L392.63,570.74L392.63,539.428C392.63,532.959 395.302,527.053 399.567,522.74C403.833,518.474 409.739,515.803 416.255,515.803L552.615,515.803C558.944,515.803 564.709,518.381 568.881,522.599C573.053,526.771 575.678,532.537 575.678,538.865L575.68,570.74Z" style="fill:rgb(204,204,204);fill-rule:nonzero;stroke:black;stroke-width:10.41px;"/></g><g transform="matrix(0.0936988,0,0,0.0936988,543.792,622.904)"><path d="M724.46,343.092L751.788,343.092L749.538,310.958C738.476,306.739 728.116,304.724 718.46,304.817C709.038,304.911 700.226,306.927 691.882,310.724L680.726,570.784L763.414,570.784L752.352,373.04L724.508,373.04C721.836,373.04 719.727,360.737 719.727,358.112C719.727,355.441 721.883,343.185 724.508,343.185L724.46,343.092Z" style="fill:rgb(204,204,204);fill-rule:nonzero;stroke:black;stroke-width:10.41px;"/></g><g transform="matrix(0.0936988,0,0,0.0936988,543.792,622.904)"><path d="M918.99,343.092L946.318,343.092L944.068,310.958C933.006,306.739 922.646,304.724 912.99,304.817C903.568,304.911 894.756,306.927 886.412,310.724L875.256,570.784L957.944,570.784L946.882,373.04L919.038,373.04C916.366,373.04 914.257,360.737 914.257,358.112C914.257,355.44 916.413,343.185 919.038,343.185L918.99,343.092Z" style="fill:rgb(204,204,204);fill-rule:nonzero;stroke:black;stroke-width:10.41px;"/></g><g transform="matrix(0.950725,0,0,0.950725,547.317,632.741)"><path d="M94.939,96.659C94.939,97.075 94.602,97.417 94.181,97.417L14.111,97.5C13.696,97.5 13.354,97.163 13.354,96.742C13.354,96.327 13.691,95.985 14.111,95.985L14.111,76.743C14.111,75.731 14.527,74.807 15.197,74.137C15.867,73.467 16.786,73.052 17.803,73.052L23.695,73.052L23.695,77.297L21.203,77.297C20.473,77.297 19.808,77.597 19.322,78.078C18.842,78.558 18.542,79.224 18.542,79.958L18.542,95.975L25.638,95.966L25.638,52.161L94.181,52.161L94.181,95.892C94.597,95.892 94.938,96.229 94.938,96.65L94.939,96.659ZM54.368,90.612L54.368,95.943L56.315,95.943L56.315,91.083L66.359,91.083L66.359,95.929L68.306,95.929L68.306,69.389C68.306,67.472 67.521,65.731 66.26,64.469C64.999,63.208 63.257,62.423 61.34,62.423C59.423,62.423 57.681,63.208 56.42,64.469C55.158,65.731 54.373,67.472 54.373,69.389L54.373,90.612L54.368,90.612ZM34.946,73.375C34.946,73.638 35.159,73.846 35.418,73.846L39.548,73.846C39.811,73.846 40.019,73.634 40.019,73.375L40.019,69.245C40.019,68.981 39.806,68.774 39.548,68.774L35.418,68.774C35.154,68.774 34.946,68.986 34.946,69.245L34.946,73.375ZM73.854,90.612L73.854,95.925L75.801,95.925L75.801,91.088L85.846,91.088L85.846,95.915L87.793,95.915L87.793,69.393C87.793,67.476 87.007,65.734 85.746,64.473C84.485,63.212 82.743,62.427 80.826,62.427C78.909,62.427 77.167,63.212 75.906,64.473C74.645,65.734 73.859,67.476 73.859,69.393L73.859,90.616L73.854,90.612ZM43.206,73.375C43.206,73.638 43.419,73.846 43.678,73.846L47.808,73.846C48.071,73.846 48.279,73.634 48.279,73.375L48.279,69.245C48.279,68.981 48.066,68.774 47.808,68.774L43.678,68.774C43.414,68.774 43.206,68.986 43.206,69.245L43.206,73.375ZM34.946,65.115C34.946,65.378 35.159,65.586 35.418,65.586L39.548,65.586C39.811,65.586 40.019,65.373 40.019,65.115L40.019,60.985C40.019,60.721 39.806,60.514 39.548,60.514L35.418,60.514C35.154,60.514 34.946,60.726 34.946,60.985L34.946,65.115ZM43.206,65.115C43.206,65.378 43.419,65.586 43.678,65.586L47.808,65.586C48.071,65.586 48.279,65.373 48.279,65.115L48.279,60.985C48.279,60.721 48.066,60.514 47.808,60.514L43.678,60.514C43.414,60.514 43.206,60.726 43.206,60.985L43.206,65.115ZM36.443,95.962L44.666,95.952L44.666,84.075C44.666,83.811 44.454,83.603 44.195,83.603L36.914,83.603C36.651,83.603 36.443,83.816 36.443,84.075L36.443,95.962Z" style="fill:rgb(204,204,204);stroke:black;stroke-width:1.03px;"/></g><g transform="matrix(0.78909,0,0,0.78909,557.231,644.154)"><path d="M67.359,69.384L67.355,69.384L67.355,70.609L55.311,70.609L55.311,69.384C55.311,67.726 55.99,66.22 57.08,65.13C58.175,64.039 59.681,63.36 61.335,63.36C62.993,63.36 64.499,64.039 65.59,65.13C66.68,66.224 67.359,67.731 67.359,69.384Z" style="fill:rgb(204,204,204);stroke:black;stroke-width:1.24px;"/></g><g transform="matrix(0.789349,0,0,0.789349,557.215,645.788)"><rect x="55.314" y="75.21" width="12.044" height="11.277" style="fill:rgb(204,204,204);stroke:black;stroke-width:1.24px;"/></g><g transform="matrix(0.78909,0,0,0.78909,560.38,644.154)"><path d="M86.845,69.384L86.841,69.384L86.841,70.608L74.797,70.608L74.797,69.384C74.797,67.726 75.476,66.22 76.566,65.129C77.661,64.039 79.167,63.36 80.821,63.36C82.48,63.36 83.986,64.039 85.076,65.129C86.166,66.224 86.845,67.73 86.845,69.384Z" style="fill:rgb(204,204,204);stroke:black;stroke-width:1.24px;"/></g><g transform="matrix(0.789349,0,0,0.789349,560.36,645.788)"><rect x="74.801" y="75.21" width="12.044" height="11.277" style="fill:rgb(204,204,204);stroke:black;stroke-width:1.24px;"/></g><g transform="matrix(0.0936988,0,0,0.0936988,543.792,623.855)"><rect x="264.202" y="580.349" width="762.71" height="24.094" style="fill:rgb(204,204,204);fill-rule:nonzero;stroke:black;stroke-width:10.41px;"/></g></g></g></svg>