<svg xmlns="http://www.w3.org/2000/svg" xml:space="preserve" width="512" height="512" fill-rule="evenodd" stroke-linejoin="round" stroke-miterlimit="2" clip-rule="evenodd" viewBox="0 0 512 512">
  <path fill="#ccc" stroke="#000" stroke-width="5.12" d="M254.464 133.949v130.156H124.293V133.949zm-83.441 82.048v24.274a5.212 5.212 0 0 0 10.409 0v-24.269a5.212 5.212 0 0 0-10.409 0Zm20.07-58.097a5.22 5.22 0 0 0-5.212 5.207v19.19a5.22 5.22 0 0 0 5.212 5.207h37.325a5.22 5.22 0 0 0 5.207-5.207v-19.19a5.22 5.22 0 0 0-5.207-5.207zm32.461 58.097v24.274a5.212 5.212 0 0 0 10.419 0v-24.269a5.212 5.212 0 0 0-10.414 0Zm-78.797 0v24.274a5.212 5.212 0 0 0 10.414 0v-24.269a5.212 5.212 0 0 0-10.419 0Zm13.005-59.761a16.466 16.466 0 1 0 11.643 28.093 16.486 16.486 0 0 0 0-23.276 16.5 16.5 0 0 0-11.643-4.818Zm39.526 59.761v24.274a5.212 5.212 0 0 0 10.414 0v-24.269a5.212 5.212 0 0 0-10.414 0Zm184.878-30.162h79.703v26.409h-79.702zm90.117-7.818H499.2v42.051h-26.916zm-207.384 66.719h9.702l6.226-14.044a3 3 0 0 1 .23-.532l3.308-7.501v-47.237l-3.328-7.521c-.102-.154-.169-.348-.236-.512l-6.226-14.065h-9.697v91.412zm28.79-73.989.65 1.485q.44 1.024.44 2.104v49.388a5.1 5.1 0 0 1-.584 2.355l-.532 1.229h78.09v-56.556h-78.09zm33.28 223.913-275.164.026-15.37 15.36v11.049h305.807v-11.044l-15.36-15.36zm-21.868-10.414-19.046-21.873H92.708l-19.046 21.873zM167.255 274.55h44.319v77.414h-44.319z"/>
  <path fill="#ccc" stroke="#000" stroke-width="5.12" d="M84.04 217.242v-26.819l-25.923-.23a5.22 5.22 0 0 1-3.84-1.505l-20.838-20.736H12.8v49.29zm21.586-69.105v.184a6.1 6.1 0 0 1-.41 2.109l-10.747 24.996v47.258l9.774 22.103h9.692V90.906h-8.309v57.257zm56.422 20.296a6.052 6.052 0 1 1-8.561 8.566 6.14 6.14 0 0 1-1.782-4.285 6.07 6.07 0 0 1 6.062-6.062c1.669 0 3.195.666 4.28 1.782Zm34.253-.118h26.911v8.796h-26.911z"/>
</svg>
