<?xml version="1.0" encoding="UTF-8" standalone="no"?>
<!DOCTYPE svg PUBLIC "-//W3C//DTD SVG 1.1//EN" "http://www.w3.org/Graphics/SVG/1.1/DTD/svg11.dtd">
<svg width="100%" height="100%" viewBox="0 0 100 100" version="1.1" xmlns="http://www.w3.org/2000/svg" xmlns:xlink="http://www.w3.org/1999/xlink" xml:space="preserve" xmlns:serif="http://www.serif.com/" style="fill-rule:evenodd;clip-rule:evenodd;stroke-linejoin:round;stroke-miterlimit:2;">
    <g transform="matrix(1.15716,0,0,1.15716,-11.4231,5.04044)">
        <path d="M52.821,18.253L52.821,40.222L30.851,40.222L30.851,18.253L52.821,18.253ZM38.739,32.102L38.739,36.199C38.739,36.684 39.133,37.078 39.618,37.078C40.102,37.078 40.496,36.684 40.496,36.199L40.496,32.102C40.496,31.617 40.102,31.223 39.618,31.223C39.133,31.223 38.739,31.617 38.739,32.102ZM42.126,22.296C41.641,22.296 41.247,22.691 41.247,23.175L41.247,26.414C41.247,26.898 41.641,27.293 42.126,27.293L48.426,27.293C48.911,27.293 49.305,26.898 49.305,26.414L49.305,23.175C49.305,22.691 48.911,22.296 48.426,22.296L42.126,22.296ZM47.606,32.102L47.606,36.199C47.606,36.684 48,37.078 48.485,37.078C48.969,37.078 49.364,36.684 49.364,36.199L49.364,32.102C49.364,31.617 48.969,31.223 48.485,31.223C48,31.223 47.606,31.617 47.606,32.102ZM34.305,32.102L34.305,36.199C34.305,36.684 34.7,37.078 35.184,37.078C35.668,37.078 36.063,36.684 36.063,36.199L36.063,32.102C36.063,31.617 35.668,31.223 35.184,31.223C34.7,31.223 34.305,31.617 34.305,32.102ZM36.501,22.015C35.735,22.015 35.04,22.324 34.536,22.828C34.036,23.332 33.723,24.023 33.723,24.793C33.723,25.558 34.032,26.254 34.536,26.757C35.04,27.257 35.731,27.57 36.501,27.57C37.266,27.57 37.962,27.261 38.466,26.757C38.966,26.253 39.278,25.558 39.278,24.793C39.278,24.027 38.97,23.332 38.466,22.828C37.966,22.328 37.266,22.015 36.501,22.015ZM43.172,32.102L43.172,36.199C43.172,36.684 43.567,37.078 44.051,37.078C44.535,37.078 44.93,36.684 44.93,36.199L44.93,32.102C44.93,31.617 44.535,31.223 44.051,31.223C43.567,31.223 43.172,31.617 43.172,32.102Z" style="fill:rgb(204,204,204);stroke:black;stroke-width:0.86px;"/>
    </g>
    <g transform="matrix(1.15716,0,0,1.15716,-11.4231,5.04044)">
        <rect x="74.376" y="27.011" width="13.453" height="4.457" style="fill:rgb(204,204,204);stroke:black;stroke-width:0.86px;"/>
    </g>
    <g transform="matrix(1.15716,0,0,1.15716,-11.4231,5.04044)">
        <rect x="89.587" y="25.691" width="4.543" height="7.098" style="fill:rgb(204,204,204);stroke:black;stroke-width:0.86px;"/>
    </g>
    <g transform="matrix(1.15716,0,0,1.15716,-11.4231,5.04044)">
        <path d="M54.583,36.953L56.22,36.953L57.271,34.582C57.282,34.55 57.294,34.519 57.31,34.492L57.868,33.226L57.868,25.253L57.306,23.984C57.29,23.957 57.278,23.925 57.267,23.898L56.216,21.523L54.579,21.523L54.579,36.953L54.583,36.953Z" style="fill:rgb(204,204,204);stroke:black;stroke-width:0.86px;"/>
    </g>
    <g transform="matrix(1.15716,0,0,1.15716,-11.4231,5.04044)">
        <path d="M59.442,24.464L59.552,24.714C59.602,24.828 59.626,24.949 59.626,25.07L59.626,33.406C59.626,33.55 59.591,33.683 59.528,33.804L59.438,34.011L72.618,34.011L72.618,24.464L59.438,24.464L59.442,24.464Z" style="fill:rgb(204,204,204);stroke:black;stroke-width:0.86px;"/>
    </g>
    <g transform="matrix(1.15716,0,0,1.15716,-11.4231,5.04044)">
        <path d="M65.06,62.258L18.615,62.262L16.021,64.855L16.021,66.719L67.637,66.719L67.637,64.855L65.044,62.262L65.06,62.258Z" style="fill:rgb(204,204,204);stroke:black;stroke-width:0.86px;"/>
    </g>
    <g transform="matrix(1.15716,0,0,1.15716,-11.4231,5.04044)">
        <path d="M61.368,60.5L58.153,56.808L25.52,56.808L22.305,60.5L61.368,60.5Z" style="fill:rgb(204,204,204);stroke:black;stroke-width:0.86px;"/>
    </g>
    <g transform="matrix(1.15716,0,0,1.15716,-11.4231,5.04044)">
        <rect x="38.102" y="41.985" width="7.48" height="13.066" style="fill:rgb(204,204,204);stroke:black;stroke-width:0.86px;"/>
    </g>
    <g transform="matrix(1.15716,0,0,1.15716,-11.4231,5.04044)">
        <path d="M24.056,32.312L24.056,27.785L19.681,27.746C19.446,27.754 19.212,27.668 19.032,27.492L15.516,23.992L12.032,23.992L12.032,32.312L24.056,32.312Z" style="fill:rgb(204,204,204);stroke:black;stroke-width:0.86px;"/>
    </g>
    <g transform="matrix(1.15716,0,0,1.15716,-11.4231,5.04044)">
        <path d="M27.7,20.648L27.7,20.679C27.7,20.797 27.677,20.918 27.63,21.035L25.817,25.254L25.817,33.23L27.466,36.961L29.102,36.961L29.102,10.988L27.7,10.988L27.7,20.652L27.7,20.648Z" style="fill:rgb(204,204,204);stroke:black;stroke-width:0.86px;"/>
    </g>
    <g transform="matrix(1.15716,0,0,1.15716,-11.4231,5.04044)">
        <path d="M37.223,24.074C37.407,24.257 37.524,24.515 37.524,24.796C37.524,25.078 37.411,25.336 37.223,25.519C37.04,25.703 36.782,25.82 36.501,25.82C36.22,25.82 35.962,25.707 35.778,25.519C35.595,25.336 35.477,25.078 35.477,24.796C35.477,24.515 35.591,24.257 35.778,24.074C35.962,23.89 36.22,23.773 36.501,23.773C36.782,23.773 37.04,23.886 37.223,24.074Z" style="fill:rgb(204,204,204);stroke:black;stroke-width:0.86px;"/>
    </g>
    <g transform="matrix(1.15716,0,0,1.15716,-11.4231,5.04044)">
        <rect x="43.004" y="24.054" width="4.543" height="1.484" style="fill:rgb(204,204,204);stroke:black;stroke-width:0.86px;"/>
    </g>
</svg>
