<svg xmlns="http://www.w3.org/2000/svg" xml:space="preserve" width="512" height="512" fill-rule="evenodd" stroke-linejoin="round" stroke-miterlimit="2" clip-rule="evenodd" viewBox="0 0 512 512">
  <path fill="#ccc" stroke="#000" stroke-width="5.12" d="M250.906 486.451c-119.552 0-230.415-110.874-230.415-230.42S131.359 25.61 250.906 25.61v34.708h-.005c-88.335 0-163.128 58.819-187.356 139.325h53.105l21.161-20.838c14.285-14.177 33.219-21.898 53.427-21.898h59.668v51.517c-35.021 0-63.478 28.457-63.478 63.478s28.462 63.473 63.478 63.473zm-53.847-42.429v-35.651a32.15 32.15 0 0 0-8.253-21.366l-62.736-69.724a33.28 33.28 0 0 0-24.545-10.895H61.958c17.777 66.33 69.299 118.804 135.101 137.636Z"/>
  <path fill="#ccc" stroke="#000" stroke-width="5.12" d="M262.426 69.663c-2.038-2.038-1.306-61.983-1.306-61.983 20.767 0 35.343 8.253 50.058 22.948a78.34 78.34 0 0 1 22.938 55.398v29.609l.005.02H296.74a199.7 199.7 0 0 0-34.319-45.993Zm-1.295 354.084V169.181c5.366 0 5.386 1.234 10.322 3.702l7.956 3.994a9.4 9.4 0 1 0 8.407-16.824l-7.977-3.994c-7.578-3.779-10.465-5.668-18.708-5.673V84.623a180.9 180.9 0 0 1 46.3 120.832v218.291zm0 13.45h36.71l1.741 18.811h-38.451zm114.058 17.193h25.436l13.24 39.69h-51.917zm-16.891-36.46h59.213v22.989h-59.213zm-37.407-25.375V281.59l79.647 70.768a80.18 80.18 0 0 1 26.547 52.122H320.896zm37.407-111.816h59.213v67.482l-59.213-52.628zm-24.166-7.204-13.245-11.761v-56.288a199.7 199.7 0 0 0-15.186-76.375h28.426zm24.166-104.474h59.208v98.203h-59.208zm58.481-13.466h-57.785a134.66 134.66 0 0 1 21.898-60.692l.02-.02a8.346 8.346 0 0 1 13.942 0l.026.02a134.66 134.66 0 0 1 21.898 60.687Z"/>
</svg>
