<?xml version="1.0" encoding="UTF-8" standalone="no"?>
<!DOCTYPE svg PUBLIC "-//W3C//DTD SVG 1.1//EN" "http://www.w3.org/Graphics/SVG/1.1/DTD/svg11.dtd">
<svg width="100%" height="100%" viewBox="0 0 100 100" version="1.1" xmlns="http://www.w3.org/2000/svg" xmlns:xlink="http://www.w3.org/1999/xlink" xml:space="preserve" xmlns:serif="http://www.serif.com/" style="fill-rule:evenodd;clip-rule:evenodd;stroke-linejoin:round;stroke-miterlimit:2;">
    <g transform="matrix(0.110191,0,0,0.110191,-17.1149,-17.1485)">
        <path d="M600,1017.76C388.12,1017.76 191.62,821.26 191.62,609.38C191.62,397.5 388.12,201 600,201L600,262.51C599.997,262.51 599.993,262.51 599.99,262.51C443.43,262.51 310.868,366.76 267.93,509.45L362.055,509.45L399.555,472.512C424.868,447.388 458.431,433.7 494.243,433.7L599.999,433.7L599.999,525.01C537.937,525.01 487.498,575.448 487.498,637.51C487.498,699.572 537.937,750.01 599.999,750.01L600,1017.76ZM504.56,942.57L504.56,879.377C504.56,865.502 499.31,852.002 489.935,841.502L378.745,717.942C367.683,705.755 351.745,698.63 335.245,698.63L265.12,698.63C296.62,816.19 387.94,909.195 504.56,942.57Z" style="fill:rgb(204,204,204);stroke:black;stroke-width:9.08px;"/>
    </g>
    <g transform="matrix(0.940594,0,0,0.940594,3.0297,2.02968)">
        <path d="M51,14.742L65.281,14.742C68.507,14.742 71.128,17.362 71.128,20.588L71.128,33.477C71.128,36.703 68.507,39.324 65.281,39.324L51,39.324L51,36.201L57.685,36.201C58.75,36.201 59.613,35.338 59.613,34.273L59.613,31.617C59.613,30.552 58.75,29.689 57.685,29.689L51,29.689L51,14.742ZM64.569,20.894C64.569,20.562 64.3,20.292 63.967,20.292L58.655,20.292C58.322,20.292 58.057,20.562 58.057,20.894L58.057,26.206C58.057,26.539 58.322,26.808 58.655,26.808L63.967,26.808C64.3,26.808 64.569,26.539 64.569,26.206L64.569,20.894Z" style="fill:rgb(204,204,204);stroke:black;stroke-width:1.06px;"/>
    </g>
    <g transform="matrix(0.940594,0,0,0.940594,3.0297,2.97028)">
        <path d="M51,40.527L67.531,40.527C71.885,40.527 75.416,44.057 75.416,48.412L75.416,65.389C75.416,69.74 71.886,73.274 67.531,73.274L51,73.274L51,50.985L62.258,50.985C62.59,50.985 62.86,50.715 62.86,50.383L62.86,43.44C62.86,43.107 62.59,42.838 62.258,42.838L51,42.838L51,40.527ZM68.489,52.679C66.161,52.679 64.269,54.571 64.269,56.898C64.269,59.23 66.161,61.118 68.489,61.118C70.82,61.118 72.708,59.23 72.708,56.898C72.708,54.571 70.82,52.679 68.489,52.679ZM56.993,52.679C54.666,52.679 52.774,54.571 52.774,56.898C52.774,59.23 54.666,61.118 56.993,61.118C59.325,61.118 61.213,59.23 61.213,56.898C61.213,54.571 59.325,52.679 56.993,52.679Z" style="fill:rgb(204,204,204);stroke:black;stroke-width:1.06px;"/>
    </g>
    <g transform="matrix(0.86277,0,0,0.687431,6.99875,10.3701)">
        <path d="M51,30.893L57.685,30.893C58.089,30.893 58.413,31.217 58.413,31.617L58.413,34.273C58.413,34.673 58.089,34.997 57.685,34.997L51,34.997L51,30.893Z" style="fill:rgb(204,204,204);stroke:black;stroke-width:1.28px;"/>
    </g>
    <g transform="matrix(0.779592,0,0,0.779079,12.2057,12.1605)">
        <path d="M56.993,53.882C58.66,53.882 60.009,55.236 60.009,56.898C60.009,58.565 58.66,59.919 56.993,59.919C55.327,59.919 53.977,58.565 53.977,56.898C53.977,55.236 55.327,53.882 56.993,53.882Z" style="fill:rgb(204,204,204);stroke:black;stroke-width:1.28px;"/>
    </g>
    <g transform="matrix(0.779592,0,0,0.779079,14.0564,12.1605)">
        <path d="M68.488,53.882C70.154,53.882 71.504,55.236 71.504,56.898C71.504,58.565 70.154,59.919 68.488,59.919C66.825,59.919 65.472,58.565 65.472,56.898C65.472,55.236 66.825,53.882 68.488,53.882Z" style="fill:rgb(204,204,204);stroke:black;stroke-width:1.28px;"/>
    </g>
    <g transform="matrix(0.68677,0,0,0.68677,18.5919,8.00729)">
        <rect x="59.257" y="21.496" width="4.109" height="4.109" style="fill:rgb(204,204,204);stroke:black;stroke-width:1.46px;"/>
    </g>
    <g transform="matrix(0.940594,0,0,0.940594,3.0297,5.79206)">
        <path d="M68.987,88.938L68.987,90.545C68.987,94.384 65.871,97.5 62.032,97.5C58.192,97.5 55.077,94.384 55.077,90.545L55.077,88.938L68.987,88.938Z" style="fill:rgb(204,204,204);stroke:black;stroke-width:1.06px;"/>
    </g>
    <g transform="matrix(0.940594,0,0,0.825074,3.0297,14.9866)">
        <path d="M53.339,86.594C53.339,85.965 53.85,85.454 54.479,85.454L69.579,85.454C70.209,85.454 70.723,85.965 70.723,86.594C70.723,87.224 70.209,87.734 69.579,87.734L54.479,87.734C53.85,87.734 53.339,87.224 53.339,86.594Z" style="fill:rgb(204,204,204);stroke:black;stroke-width:1.13px;"/>
    </g>
    <g transform="matrix(0.940594,0,0,0.82364,3.0297,14.5714)">
        <path d="M69.579,81.967C70.209,81.967 70.723,82.478 70.723,83.107C70.723,83.74 70.209,84.251 69.579,84.251L54.479,84.251C53.85,84.251 53.339,83.74 53.339,83.107C53.339,82.478 53.85,81.967 54.479,81.967L69.579,81.967Z" style="fill:rgb(204,204,204);stroke:black;stroke-width:1.13px;"/>
    </g>
    <g transform="matrix(0.940594,0,0,0.82364,3.0297,14.03)">
        <path d="M54.478,80.764C53.848,80.764 53.338,80.253 53.338,79.624C53.338,78.994 53.848,78.48 54.478,78.48L69.578,78.48C70.208,78.48 70.722,78.994 70.722,79.624C70.722,80.253 70.208,80.764 69.578,80.764L54.478,80.764Z" style="fill:rgb(204,204,204);stroke:black;stroke-width:1.13px;"/>
    </g>
    <g transform="matrix(0.940594,0,0,0.940594,3.0297,3.91087)">
        <path d="M68.985,74.363L68.984,77.28L55.074,77.28L55.074,74.478L67.532,74.478C68.027,74.478 68.514,74.438 68.985,74.363Z" style="fill:rgb(204,204,204);stroke:black;stroke-width:1.06px;"/>
    </g>
    <g transform="matrix(0.940594,0,0,0.940594,3.9703,4.85147)">
        <path d="M89.203,64.605L89.203,67.257C89.203,69.632 87.276,71.56 84.904,71.56C82.529,71.56 80.602,69.632 80.602,67.257L80.602,64.605L89.203,64.605Z" style="fill:rgb(204,204,204);stroke:black;stroke-width:1.06px;"/>
    </g>
    <g transform="matrix(0.940594,0,0,0.827956,3.9703,11.0523)">
        <path d="M89.943,61.13C90.505,61.201 90.94,61.68 90.94,62.262C90.94,62.891 90.43,63.402 89.8,63.402L80.087,63.402C79.457,63.402 78.943,62.891 78.943,62.262C78.943,61.68 79.382,61.201 79.944,61.13C79.992,61.13 80.039,61.134 80.087,61.134L89.8,61.134C89.848,61.134 89.895,61.13 89.943,61.13Z" style="fill:rgb(204,204,204);stroke:black;stroke-width:1.13px;"/>
    </g>
    <g transform="matrix(0.940594,0,0,0.826512,3.9703,10.6171)">
        <path d="M89.8,57.646C90.43,57.646 90.94,58.157 90.94,58.79C90.94,59.368 90.505,59.851 89.943,59.923C89.895,59.919 89.848,59.919 89.8,59.919L80.086,59.919C80.039,59.919 79.991,59.919 79.944,59.923C79.382,59.851 78.943,59.368 78.943,58.79C78.943,58.157 79.457,57.646 80.087,57.646L89.8,57.646Z" style="fill:rgb(204,204,204);stroke:black;stroke-width:1.13px;"/>
    </g>
    <g transform="matrix(0.940594,0,0,0.825074,3.9703,10.1678)">
        <path d="M80.086,56.443C79.456,56.443 78.942,55.932 78.942,55.303C78.942,54.674 79.456,54.163 80.086,54.163L89.799,54.163C90.429,54.163 90.939,54.674 90.939,55.303C90.939,55.932 90.429,56.443 89.799,56.443L80.086,56.443Z" style="fill:rgb(204,204,204);stroke:black;stroke-width:1.13px;"/>
    </g>
    <g transform="matrix(0.940594,0,0,0.940594,3.9703,2.97028)">
        <path d="M74.461,42.533L80.794,42.533C83.023,42.533 85.164,43.42 86.74,44.995C88.319,46.571 89.202,48.712 89.202,50.941L89.202,52.96L80.6,52.96L80.6,51.736C80.6,51.404 80.331,51.135 79.999,51.135L76.618,51.135L76.618,48.411C76.618,46.171 75.807,44.117 74.461,42.533Z" style="fill:rgb(204,204,204);stroke:black;stroke-width:1.06px;"/>
    </g>
    <g transform="matrix(0.940594,0,0,0.940594,3.0297,1.08909)">
        <path d="M57.234,13.543L54.89,13.543L56.062,8.73L57.234,13.543Z" style="fill:rgb(204,204,204);stroke:black;stroke-width:1.06px;"/>
    </g>
    <g transform="matrix(0.940594,0,0,0.940594,3.0297,0.148495)">
        <path d="M56.062,2.5C57.309,2.5 58.322,3.513 58.322,4.76C58.322,6.003 57.309,7.016 56.062,7.016C54.815,7.016 53.806,6.003 53.806,4.76C53.806,3.513 54.815,2.5 56.062,2.5Z" style="fill:rgb(204,204,204);stroke:black;stroke-width:1.06px;"/>
    </g>
</svg>
