<?xml version="1.0" encoding="UTF-8" standalone="no"?>
<!DOCTYPE svg PUBLIC "-//W3C//DTD SVG 1.1//EN" "http://www.w3.org/Graphics/SVG/1.1/DTD/svg11.dtd">
<svg width="100%" height="100%" viewBox="0 0 100 100" version="1.1" xmlns="http://www.w3.org/2000/svg" xmlns:xlink="http://www.w3.org/1999/xlink" xml:space="preserve" xmlns:serif="http://www.serif.com/" style="fill-rule:evenodd;clip-rule:evenodd;stroke-linejoin:round;stroke-miterlimit:2;">
    <g transform="matrix(0.110191,-7.70372e-34,0,0.110191,-17.1149,-17.1485)">
        <path d="M600,1017.76C388.12,1017.76 191.62,821.26 191.62,609.38C191.62,397.5 388.12,201 600,201L600,262.51L599.99,262.51C443.43,262.51 310.868,366.76 267.93,509.45L362.055,509.45L399.555,472.512C424.868,447.388 458.431,433.7 494.243,433.7L599.999,433.7L599.999,525.01C537.937,525.01 487.498,575.448 487.498,637.51C487.498,699.572 537.937,750.01 599.999,750.01L600,1017.76ZM504.56,942.57L504.56,879.377C504.56,865.502 499.31,852.002 489.935,841.502L378.745,717.942C367.683,705.755 351.745,698.63 335.245,698.63L265.12,698.63C296.62,816.19 387.94,909.195 504.56,942.57Z" style="fill:rgb(204,204,204);stroke:black;stroke-width:9.08px;"/>
    </g>
    <g transform="matrix(0.0792669,0,0,0.0792669,18.025,5.15181)">
        <path d="M416,525.782C416.029,525.782 416.057,525.782 416.086,525.782C444.351,525.782 467.367,548.844 467.367,577.11C467.367,599.048 453.399,617.845 433.805,625.251L433.863,670.486C503.936,680.276 596.514,747.454 591.733,817.016C587.793,877.063 458.461,885.266 416.133,885.547C416.089,885.547 416.044,885.546 416,885.546L416,525.782ZM416,921.197C416.044,921.197 416.089,921.197 416.133,921.197C483.305,921.197 621.633,907.416 627.443,819.387C627.724,814.887 627.724,810.387 627.443,806.168C713.927,836.543 769.993,880.746 769.993,912.998C769.993,931.748 751.196,951.107 718.431,968.545C661.853,1046.83 547.571,1100.27 416.141,1100.27C416.094,1100.27 416.047,1100.27 416,1100.27L416,969.029C416.028,969.029 416.057,969.029 416.085,969.029C425.882,969.029 433.804,961.154 433.804,951.076C433.804,941.279 425.882,933.31 416.085,933.31C416.057,933.31 416.028,933.31 416,933.31L416,921.197ZM540.115,960.591C550.193,960.591 558.115,952.669 558.115,942.872C558.115,932.794 550.193,924.872 540.115,924.872C530.318,924.872 522.396,932.794 522.396,942.872C522.396,952.622 530.318,960.591 540.115,960.591ZM664.425,929.091C674.222,929.091 682.425,920.935 682.425,911.138C682.425,901.06 674.222,893.138 664.425,893.138C654.628,893.138 646.425,901.06 646.425,911.138C646.425,920.888 654.628,929.091 664.425,929.091Z" style="fill:rgb(204,204,204);stroke:black;stroke-width:12.62px;"/>
    </g>
    <g transform="matrix(0.0749512,-0.0257983,0.0257983,0.0749512,3.25697,26.6069)">
        <path d="M702.255,641.679C667.052,652.507 639.817,651.991 626.599,638.773C603.865,616.039 612.068,545.164 651.724,462.383C654.349,465.289 657.021,468.195 659.927,470.867C726.583,530.914 834.717,442.555 882.867,394.414C930.492,346.836 1018.29,239.154 960.07,173.074C957.164,169.652 953.976,166.465 950.836,163.324C1033.62,123.902 1104.26,115.465 1127.23,138.48C1140.44,151.699 1140.96,178.699 1130.13,214.136C1145.23,309.62 1102.38,428.076 1009.24,520.926C916.195,613.879 797.742,656.766 702.262,641.666L702.255,641.679ZM1063.79,224.289C1070.92,217.164 1070.92,205.774 1063.79,198.93C1056.9,191.758 1045.56,191.758 1038.67,198.93C1031.54,205.773 1031.54,217.117 1038.67,224.289C1045.56,231.18 1056.9,231.18 1063.79,224.289ZM916.474,428.189C923.599,421.064 923.599,409.955 916.474,402.83C909.583,395.986 898.24,395.986 891.349,402.83C884.224,409.955 884.224,421.064 891.349,428.189C898.24,435.08 909.583,435.08 916.474,428.189ZM822.865,509.939C829.709,503.048 829.709,491.658 822.865,484.814C815.693,477.642 804.349,477.642 797.459,484.814C790.287,491.658 790.287,503.048 797.459,509.939C804.35,517.064 815.693,517.064 822.865,509.939ZM712.565,575.517C719.69,568.392 719.69,557.001 712.565,550.111C705.674,543.267 694.331,543.267 687.159,550.111C680.268,557.002 680.268,568.392 687.159,575.517C694.331,582.408 705.675,582.408 712.565,575.517ZM998.45,334.309C1005.34,327.419 1005.34,316.122 998.45,308.95C991.278,302.059 980.169,302.059 973.044,308.95C966.153,316.075 966.153,327.418 973.044,334.309C980.216,341.434 991.325,341.434 998.45,334.309Z" style="fill:rgb(204,204,204);stroke:black;stroke-width:12.62px;"/>
        <path d="M686.13,172.499C694.849,153.421 691.146,130.452 675.818,114.796C655.709,94.687 623.177,94.687 603.068,114.796C582.959,134.624 582.959,167.155 603.068,187.265C618.677,202.874 641.927,206.296 660.724,197.577L692.74,229.593C650.412,285.655 632.459,397.543 684.021,444.043C729.49,485.293 826.841,399.324 857.501,368.902C887.36,338.761 972.811,241.722 933.392,196.502C887.361,143.861 774.442,161.861 718.102,204.19L686.13,172.499Z" style="fill:rgb(204,204,204);stroke:black;stroke-width:12.62px;"/>
    </g>
</svg>
