<?xml version="1.0" encoding="UTF-8" standalone="no"?>
<!DOCTYPE svg PUBLIC "-//W3C//DTD SVG 1.1//EN" "http://www.w3.org/Graphics/SVG/1.1/DTD/svg11.dtd">
<svg width="100%" height="100%" viewBox="0 0 100 100" version="1.1" xmlns="http://www.w3.org/2000/svg" xmlns:xlink="http://www.w3.org/1999/xlink" xml:space="preserve" xmlns:serif="http://www.serif.com/" style="fill-rule:evenodd;clip-rule:evenodd;stroke-linejoin:round;stroke-miterlimit:2;">
    <g transform="matrix(0.239808,0,0,0.239808,0,0)">
        <g transform="matrix(1.20192,0,0,1.20192,-87.9605,-134.76)">
            <path d="M250.125,164.942C251.226,164.944 252.326,164.944 253.06,164.935C303.542,165.763 338.822,161.62 355.967,201.747C358.777,209.293 365.224,227.375 368.466,236.398C369.457,231.895 371.69,228.69 375.184,226.781C377.453,225.556 380.263,224.908 383.54,224.908C396.057,224.908 405.856,231.194 405.856,239.208C405.549,250.698 388.871,254.714 378.642,253.255C381.181,256.119 383.954,258.587 386.8,261.108C386.98,261.252 387.16,261.432 387.34,261.576C394.868,268.096 408.25,281.387 405.998,294.895C401.423,319.784 400.973,339.578 400.901,359.334C400.883,365.674 397.245,371.185 391.95,373.904L391.95,396.814C391.95,402.016 388.078,406.25 383.324,406.25L355.138,406.25C350.366,406.25 346.512,402.035 346.512,396.814L346.512,375.723L336.174,375.723C327.475,368.339 322.199,357.731 308.871,357.75L250.125,357.75L250.125,336.462L288.379,336.462C291.333,336.462 293.746,334.066 293.746,331.095L293.746,321.009C293.746,318.056 291.333,315.642 288.379,315.642L250.125,315.642L250.125,241.054C294.551,241.054 338.972,239.658 348.552,236.867C345.329,227.898 340.538,214.57 338.233,208.303C326.707,179.722 293.745,184.926 253.08,183.846L250.125,183.846L250.125,164.942ZM250.125,365.637L308.872,365.637C315.643,365.564 319.641,370.211 324,374.822C324.252,375.11 324.54,375.416 324.829,375.722L250.125,375.722L250.125,365.637ZM378.984,316.111L378.982,316.093C379.036,316.02 379.09,315.985 379.144,315.912C385.177,309.465 386.726,285.836 378.982,284.575C368.357,283.693 341.415,291.96 333.364,295.922C327.331,299.109 329.42,316.093 333.959,320.037C339.941,325.26 371.132,324.017 378.984,316.111Z" style="fill:rgb(204,204,204);stroke:black;stroke-width:3.47px;"/>
        </g>
        <g transform="matrix(0.459499,0,0,0.459499,-71.3691,-71.5092)">
            <path d="M600,1017.76C388.12,1017.76 191.62,821.26 191.62,609.38C191.62,397.5 388.12,201 600,201L600,262.51C599.997,262.51 599.993,262.51 599.99,262.51C443.43,262.51 310.868,366.76 267.93,509.45L362.055,509.45L399.555,472.512C424.868,447.388 458.431,433.7 494.243,433.7L599.999,433.7L599.999,525.01C537.937,525.01 487.498,575.448 487.498,637.51C487.498,699.572 537.937,750.01 599.999,750.01L600,1017.76ZM504.56,942.57L504.56,879.377C504.56,865.502 499.31,852.002 489.935,841.502L378.745,717.942C367.683,705.755 351.745,698.63 335.245,698.63L265.12,698.63C296.62,816.19 387.94,909.195 504.56,942.57Z" style="fill:rgb(204,204,204);stroke:black;stroke-width:9.08px;"/>
        </g>
    </g>
</svg>
