<svg xmlns="http://www.w3.org/2000/svg" xml:space="preserve" width="512" height="512" fill-rule="evenodd" stroke-linejoin="round" stroke-miterlimit="2" clip-rule="evenodd" viewBox="0 0 512 512">
  <path fill="#ccc" stroke="#000" stroke-width="5.12" d="M250.906 486.451c-119.552 0-230.415-110.874-230.415-230.42S131.359 25.61 250.906 25.61v34.708h-.005c-88.335 0-163.128 58.819-187.356 139.325h53.105l21.161-20.838c14.285-14.177 33.219-21.898 53.427-21.898h59.668v51.517c-35.021 0-63.478 28.457-63.478 63.478s28.462 63.473 63.478 63.473zm-53.847-42.429v-35.651a32.15 32.15 0 0 0-8.253-21.366l-62.736-69.724a33.28 33.28 0 0 0-24.545-10.895H61.958c17.777 66.33 69.299 118.804 135.101 137.636Zm64.066-204.252h.036a20.86 20.86 0 0 1 20.813 20.838c0 8.904-5.668 16.532-13.619 19.538l.02 18.355c28.442 3.973 66.017 31.242 64.077 59.474-1.603 24.371-54.093 27.699-71.27 27.812h-.051zm0 160.486h.051c27.269 0 83.405-5.591 85.765-41.318a41 41 0 0 0 0-5.366c35.103 12.329 57.856 30.269 57.856 43.356 0 7.613-7.629 15.468-20.925 22.548-22.963 31.77-69.345 53.458-122.691 53.458h-.051v-53.263h.031c3.978 0 7.194-3.195 7.194-7.286 0-3.978-3.215-7.214-7.194-7.214h-.036zm50.376 15.99c4.091 0 7.306-3.215 7.306-7.194 0-4.086-3.215-7.301-7.306-7.301-3.978 0-7.194 3.215-7.194 7.301 0 3.958 3.215 7.194 7.194 7.194Zm50.452-12.785c3.978 0 7.306-3.308 7.306-7.286a7.306 7.306 0 0 0-14.612 0c0 3.958 3.328 7.286 7.306 7.286Z"/>
  <g fill="#ccc" stroke="#000" stroke-width="5.12">
    <path d="M370.944 289.72c-12.083 8.806-22.605 12.206-29.425 8.878-11.725-5.724-17.94-34.007-13.655-71.014 1.388.768 2.801 1.536 4.27 2.176 33.51 14.234 63.334-33.956 75.453-58.793 11.991-24.545 31.462-77.466.389-95.14a67 67 0 0 0-4.828-2.519c26.563-26.061 52.557-38.636 64.41-32.835 6.815 3.328 10.583 13.619 11.11 28.652 18.406 34.647 17.613 85.765-5.873 133.704-23.424 47.959-63.222 80.067-101.857 86.886zm83.604-207.939a7.183 7.183 0 0 0-3.348-9.728 7.045 7.045 0 0 0-9.641 3.313c-1.833 3.569-.333 7.926 3.348 9.733a7.245 7.245 0 0 0 9.641-3.318Zm-29.599 97.71c1.792-3.676.323-7.936-3.354-9.728a7.27 7.27 0 0 0-9.641 3.313c-1.792 3.676-.323 7.936 3.348 9.733a7.245 7.245 0 0 0 9.646-3.318Zm-25.128 43.741a7.27 7.27 0 0 0-3.318-9.646c-3.697-1.802-8.054-.307-9.748 3.359a7.045 7.045 0 0 0 3.318 9.641c3.584 1.823 7.936.328 9.748-3.354Zm-33.664 39.731a7.22 7.22 0 0 0-3.359-9.748c-3.548-1.715-7.9-.215-9.748 3.359-1.736 3.553-.23 7.926 3.359 9.748 3.661 1.7 8.013.2 9.748-3.354Zm77.849-130.324c1.736-3.553.241-7.885-3.348-9.728a7.373 7.373 0 0 0-9.754 3.354c-1.7 3.645-.205 7.997 3.354 9.728a7.22 7.22 0 0 0 9.748-3.354Z"/>
    <path d="M302.776 111.795a20.99 20.99 0 0 0-11.581-20.787 20.864 20.864 0 0 0-27.919 9.615c-5.1 10.266-.799 22.748 9.574 27.812a20.79 20.79 0 0 0 23.485-3.661l16.517 8.059c-8.837 27.105-.947 72.412 24.986 83.451 22.897 9.82 48.896-36.029 56.648-51.753 7.475-15.514 27.448-64.041 6.349-76.186-24.617-14.121-65.572 7.7-81.603 31.386z"/>
  </g>
</svg>
