<svg xmlns="http://www.w3.org/2000/svg" width="512" height="512" viewBox="0 0 512 512">
  <g fill="#ccc" fill-rule="evenodd" stroke="#000" stroke-linejoin="round" stroke-miterlimit="2">
    <path stroke-width="5.12" d="M250.906 486.453c-119.55 0-230.414-110.875-230.414-230.422S131.36 25.61 250.906 25.61v34.71h-.004c-88.336 0-163.129 58.817-187.359 139.325h53.105l21.16-20.84c14.286-14.176 33.22-21.899 53.43-21.899h59.668v51.52c-35.02 0-63.476 28.457-63.476 63.476 0 35.02 28.46 63.473 63.476 63.473Zm-53.847-42.43v-35.652a32.15 32.15 0 0 0-8.254-21.367L126.07 317.28a33.28 33.28 0 0 0-24.547-10.894H61.957c17.777 66.328 69.3 118.804 135.102 137.636Zm0 0"/>
    <path stroke-width="5.12" d="M261.121 81.387h68.777c15.547.008 28.149 12.613 28.16 28.16v62.066c-.011 15.547-12.613 28.153-28.16 28.16h-68.773v-15.039h32.195c5.125-.004 9.278-4.16 9.282-9.289v-12.78c-.004-5.13-4.157-9.286-9.282-9.29h-32.199Zm65.352 29.629a2.9 2.9 0 0 0-.848-2.051 2.88 2.88 0 0 0-2.055-.848h-25.582a2.9 2.9 0 0 0-2.043.852 2.9 2.9 0 0 0-.84 2.047v25.582a2.885 2.885 0 0 0 2.883 2.902h25.582c.77.004 1.512-.3 2.055-.848a2.88 2.88 0 0 0 .848-2.054Zm-65.352 99.363h79.613c20.97.004 37.97 17.004 37.973 37.973v81.761c-.008 20.965-17.004 37.961-37.973 37.973h-79.613V260.742h54.219a2.905 2.905 0 0 0 2.898-2.898V224.41a2.89 2.89 0 0 0-2.898-2.902h-54.22Zm84.223 58.523c-11.219.004-20.317 9.098-20.32 20.317 0 11.226 9.101 20.328 20.324 20.328 11.047-.25 19.87-9.274 19.87-20.324 0-11.047-8.823-20.075-19.87-20.32Zm-55.356 0c-11.222.004-20.316 9.098-20.324 20.317.25 11.047 9.273 19.87 20.324 19.87 11.047 0 20.07-8.823 20.32-19.87-.007-11.223-9.105-20.317-20.328-20.317Zm0 0"/>
    <path stroke-width="1.28" d="M51 30.893h6.685c.404 0 .728.324.728.724v2.656c0 .4-.324.723-.728.723H51Zm0 0" transform="matrix(4.41738 0 0 3.51964 35.835 53.094)"/>
    <path stroke-width="1.28" d="M56.993 53.882a3.02 3.02 0 0 1 0 6.037 3.02 3.02 0 0 1 0-6.037Zm0 0" transform="matrix(3.99155 0 0 3.98889 62.495 62.26)"/>
    <path stroke-width="1.28" d="M68.488 53.882a3.018 3.018 0 1 1 0 6.036 3.018 3.018 0 0 1 0-6.036Zm0 0" transform="matrix(3.99155 0 0 3.98889 71.967 62.26)"/>
    <path stroke-width="5.135" d="M303.555 116.582h14.449v14.45h-14.45Zm0 0"/>
    <path stroke-width="5.105" d="M347.75 457.969v7.742c-.016 18.492-15.004 33.484-33.5 33.496-18.496-.008-33.488-15-33.496-33.496v-7.742Zm0 0"/>
    <path stroke-width="1.13" d="M53.339 86.594c0-.63.51-1.14 1.14-1.14h15.1c.63 0 1.144.51 1.144 1.14s-.514 1.14-1.144 1.14h-15.1c-.63 0-1.14-.51-1.14-1.14Zm0 0" transform="matrix(4.81587 0 0 4.22436 15.514 76.733)"/>
    <path stroke-width="1.13" d="M69.58 81.967a1.143 1.143 0 1 1-.001 2.284h-15.1a1.142 1.142 0 1 1 0-2.284Zm0 0" transform="matrix(4.81587 0 0 4.21704 15.514 74.604)"/>
    <path stroke-width="1.13" d="M54.478 80.764a1.143 1.143 0 0 1 0-2.284h15.1a1.143 1.143 0 1 1 0 2.284Zm0 0" transform="matrix(4.81587 0 0 4.21704 15.514 71.834)"/>
    <path stroke-width="5.105" d="M347.734 378.145v14.046h-66.996v-13.496h59.996q3.587 0 6.996-.55Zm102.18-42.18v12.773c0 11.438-9.262 20.711-20.7 20.723-11.44-.012-20.71-9.281-20.722-20.723v-12.773Zm0 0"/>
    <path stroke-width="1.13" d="M89.943 61.13a1.14 1.14 0 0 1-.143 2.272h-9.713c-.63 0-1.144-.51-1.144-1.14 0-.582.44-1.06 1.001-1.132l.143.004H89.8Zm0 0" transform="matrix(4.81587 0 0 4.23916 20.326 56.586)"/>
    <path stroke-width="1.13" d="M89.8 57.646c.63 0 1.14.511 1.14 1.144 0 .578-.435 1.061-.997 1.133a2 2 0 0 0-.143-.004h-9.714q-.072-.001-.142.004a1.15 1.15 0 0 1-1.001-1.133c0-.633.514-1.144 1.144-1.144Zm0 0" transform="matrix(4.81587 0 0 4.23173 20.326 54.359)"/>
    <path stroke-width="1.13" d="M80.086 56.443c-.63 0-1.144-.511-1.144-1.14s.514-1.14 1.144-1.14H89.8a1.14 1.14 0 1 1 0 2.28Zm0 0" transform="matrix(4.81587 0 0 4.22436 20.326 52.06)"/>
    <path stroke-width="5.105" d="M378.922 220.043h30.5a40.56 40.56 0 0 1 28.637 11.852 40.46 40.46 0 0 1 11.851 28.636v9.727h-41.422v-5.899a2.88 2.88 0 0 0-.847-2.047 2.88 2.88 0 0 0-2.051-.843h-16.281v-13.125a43.53 43.53 0 0 0-10.387-28.301ZM291.145 70.805h-11.286l5.641-23.188ZM285.5 12.8c6.012 0 10.883 4.87 10.887 10.879-.004 6-4.871 10.86-10.871 10.86s-10.864-4.864-10.868-10.864S279.5 12.809 285.5 12.8Zm0 0"/>
  </g>
</svg>
