<svg xmlns="http://www.w3.org/2000/svg" xml:space="preserve" width="512" height="512" fill-rule="evenodd" stroke-linejoin="round" stroke-miterlimit="2" clip-rule="evenodd" viewBox="0 0 512 512">
  <path fill="#ccc" stroke="#000" stroke-width="5.12" d="M250.906 486.451c-119.552 0-230.415-110.874-230.415-230.42S131.359 25.61 250.906 25.61v34.708h-.005c-88.335 0-163.128 58.819-187.356 139.325h53.105l21.161-20.838c14.285-14.177 33.219-21.898 53.427-21.898h59.668v51.517c-35.021 0-63.478 28.457-63.478 63.478s28.462 63.473 63.478 63.473zm-53.847-42.429v-35.651a32.15 32.15 0 0 0-8.253-21.366l-62.736-69.724a33.28 33.28 0 0 0-24.545-10.895H61.958c17.777 66.33 69.299 118.804 135.101 137.636Z"/>
  <path fill="#ccc" stroke="#000" stroke-width="5.12" d="M263.168 44.221h9.533a5.07 5.07 0 0 1 4.895 4.393l1.679 13.998h-16.102zm0 32.865h40.438c6.81 0 13.005 5.581 13.844 12.39l3.604 29.978h-57.881v-12.559h16.061a7.255 7.255 0 1 0 0-14.515h-16.061zm0 56.863h72.627c11.372 0 21.775 9.277 23.132 20.654l9.677 81.188-105.436-60.882v-12.477h10.563a7.255 7.255 0 1 0 0-14.515h-10.563zm0 57.682 146.683 84.695-7.537 16.63-139.146-80.348zm0 37.668 133.233 76.887-29.491 65.654a101.07 101.07 0 0 0-71.803 15.14 72.5 72.5 0 0 1-31.933 11.397zm0 183.634a86 86 0 0 0 39.859-13.809 86.32 86.32 0 0 1 94.664 0c35.389 23.132 66.586 17.341 95.237-14.182 0 0 1.449 55.286-.02 56.852-26.214 28.8-58.829 34.207-91.238 12.948a93.59 93.59 0 0 0-102.579 0 78.85 78.85 0 0 1-35.923 12.612zm35.272-264.975a7.26 7.26 0 1 0 0 14.525 7.26 7.26 0 0 0 0-14.525Z"/>
</svg>
