<?xml version="1.0" encoding="UTF-8" standalone="no"?>
<!DOCTYPE svg PUBLIC "-//W3C//DTD SVG 1.1//EN" "http://www.w3.org/Graphics/SVG/1.1/DTD/svg11.dtd">
<svg width="100%" height="100%" viewBox="0 0 100 100" version="1.1" xmlns="http://www.w3.org/2000/svg" xmlns:xlink="http://www.w3.org/1999/xlink" xml:space="preserve" xmlns:serif="http://www.serif.com/" style="fill-rule:evenodd;clip-rule:evenodd;stroke-linejoin:round;stroke-miterlimit:2;">
    <g transform="matrix(0.110191,0,0,0.110191,-17.1149,-17.1485)">
        <path d="M600,1017.76C388.12,1017.76 191.62,821.26 191.62,609.38C191.62,397.5 388.12,201 600,201L600,262.51C599.997,262.51 599.993,262.51 599.99,262.51C443.43,262.51 310.868,366.76 267.93,509.45L362.055,509.45L399.555,472.512C424.868,447.388 458.431,433.7 494.243,433.7L599.999,433.7L599.999,525.01C537.937,525.01 487.498,575.448 487.498,637.51C487.498,699.572 537.937,750.01 599.999,750.01L600,1017.76ZM504.56,942.57L504.56,879.377C504.56,865.502 499.31,852.002 489.935,841.502L378.745,717.942C367.683,705.755 351.745,698.63 335.245,698.63L265.12,698.63C296.62,816.19 387.94,909.195 504.56,942.57Z" style="fill:rgb(204,204,204);stroke:black;stroke-width:9.08px;"/>
    </g>
    <g transform="matrix(1.04396,0,0,1.04396,-3.28464,-1.1099)">
        <path d="M52.243,14.096C51.862,13.715 52,2.5 52,2.5C55.885,2.5 58.612,4.044 61.365,6.793C64.114,9.545 65.657,13.269 65.657,17.158L65.657,22.697L65.658,22.701L58.664,22.701C56.967,19.567 54.813,16.666 52.243,14.096Z" style="fill:rgb(204,204,204);stroke:black;stroke-width:0.96px;"/>
    </g>
    <g transform="matrix(1.04396,0,0,1.04396,-2.24068,-2.15386)">
        <path d="M51,81.341L51,33.714C52.004,33.714 52.008,33.946 52.931,34.407L54.42,35.154C55.289,35.586 56.345,35.234 56.782,34.365C57.214,33.495 56.862,32.439 55.993,32.007L54.5,31.26C53.083,30.553 52.542,30.199 51,30.198L51,17.895C56.563,24.091 59.662,32.135 59.662,40.502L59.662,81.341L51,81.341Z" style="fill:rgb(204,204,204);stroke:black;stroke-width:0.96px;"/>
    </g>
    <g transform="matrix(1.04396,0,0,1.04396,-2.24068,-3.19782)">
        <path d="M51,84.857L57.868,84.857L58.194,88.377L51,88.377L51,84.857Z" style="fill:rgb(204,204,204);stroke:black;stroke-width:0.96px;"/>
    </g>
    <g transform="matrix(1.04396,0,0,1.04396,-2.24068,-5.28573)">
        <path d="M72.339,90.074L77.098,90.074L79.575,97.5L69.862,97.5L72.339,90.074Z" style="fill:rgb(204,204,204);stroke:black;stroke-width:0.96px;"/>
    </g>
    <g transform="matrix(1.04396,0,0,1.04396,-2.24068,-4.24177)">
        <rect x="69.179" y="82.253" width="11.078" height="4.301" style="fill:rgb(204,204,204);stroke:black;stroke-width:0.96px;"/>
    </g>
    <g transform="matrix(1.04396,0,0,1.04396,-3.28464,-3.19782)">
        <path d="M63.182,76.506L63.182,55.745L78.082,68.986C80.92,71.506 82.68,74.996 83.049,78.737L63.183,78.737L63.182,76.506Z" style="fill:rgb(204,204,204);stroke:black;stroke-width:0.96px;"/>
    </g>
    <g transform="matrix(1.04396,0,0,1.04396,-2.24068,-1.1099)">
        <path d="M69.178,53.586L80.257,53.586L80.257,66.212L69.178,56.364L69.178,53.586Z" style="fill:rgb(204,204,204);stroke:black;stroke-width:0.96px;"/>
    </g>
    <g transform="matrix(1.04396,0,0,1.04396,-3.28464,-2.15386)">
        <path d="M65.658,53.239L63.181,51.038L63.181,40.507C63.181,35.557 62.197,30.705 60.339,26.218L65.658,26.218L65.658,53.239Z" style="fill:rgb(204,204,204);stroke:black;stroke-width:0.96px;"/>
    </g>
    <g transform="matrix(1.04396,0,0,1.04396,-2.24068,-0.0659469)">
        <rect x="69.178" y="31.693" width="11.078" height="18.373" style="fill:rgb(204,204,204);stroke:black;stroke-width:0.96px;"/>
    </g>
    <g transform="matrix(1.04396,0,0,1.04396,-2.24068,0.978009)">
        <path d="M80.12,28.173L69.309,28.173C69.733,24.123 71.132,20.225 73.406,16.819L73.41,16.815C73.698,16.378 74.19,16.115 74.712,16.115C75.238,16.115 75.726,16.378 76.018,16.815L76.023,16.819C78.296,20.224 79.696,24.126 80.12,28.173Z" style="fill:rgb(204,204,204);stroke:black;stroke-width:0.96px;"/>
    </g>
</svg>
