<?xml version="1.0" encoding="UTF-8" standalone="no"?>
<!DOCTYPE svg PUBLIC "-//W3C//DTD SVG 1.1//EN" "http://www.w3.org/Graphics/SVG/1.1/DTD/svg11.dtd">
<svg width="100%" height="100%" viewBox="0 0 100 100" version="1.1" xmlns="http://www.w3.org/2000/svg" xmlns:xlink="http://www.w3.org/1999/xlink" xml:space="preserve" xmlns:serif="http://www.serif.com/" style="fill-rule:evenodd;clip-rule:evenodd;stroke-linejoin:round;stroke-miterlimit:2;">
    <g transform="matrix(0.110191,-7.70372e-34,0,0.110191,-17.1149,-17.1485)">
        <path d="M600,1017.76C388.12,1017.76 191.62,821.26 191.62,609.38C191.62,397.5 388.12,201 600,201L600,262.51C599.997,262.51 599.993,262.51 599.99,262.51C443.43,262.51 310.868,366.76 267.93,509.45L362.055,509.45L399.555,472.512C424.868,447.388 458.431,433.7 494.243,433.7L599.999,433.7L599.999,525.01C537.937,525.01 487.498,575.448 487.498,637.51C487.498,699.572 537.937,750.01 599.999,750.01L600,1017.76ZM504.56,942.57L504.56,879.377C504.56,865.502 499.31,852.002 489.935,841.502L378.745,717.942C367.683,705.755 351.745,698.63 335.245,698.63L265.12,698.63C296.62,816.19 387.94,909.195 504.56,942.57Z" style="fill:rgb(204,204,204);stroke:black;stroke-width:9.08px;"/>
    </g>
    <g transform="matrix(1.62337e-17,0.265117,-0.265117,1.62337e-17,115.545,-10.2036)">
        <path d="M47.917,241.772C51.283,244.843 400.084,243.202 406.25,240.97C400.206,238.765 387.568,235.065 387.568,235.065L325.929,220.225C325.929,220.225 305.572,216.692 296.666,216.545C293.791,216.496 290.879,216.504 288.014,216.564C287.982,216.564 287.95,216.565 287.918,216.565L110.292,216.961C94.042,217.399 78.24,221.747 64.594,229.534C58.147,233.209 51.444,238.722 47.917,241.772Z" style="fill:rgb(204,204,204);fill-rule:nonzero;stroke:black;stroke-width:3.77px;"/>
        <path d="M277.469,208.426L281.398,76.321L260.249,76.367L194.548,208.616L277.469,208.426Z" style="fill:rgb(204,204,204);fill-rule:nonzero;stroke:black;stroke-width:3.77px;"/>
        <path d="M389.754,163.566C390.61,164.44 391.126,165.649 391.084,166.988L389.26,228.34L328.578,213.463L352.636,165.036C353.492,163.321 355.256,162.219 357.165,162.215L386.336,162.148C387.683,162.146 388.894,162.686 389.752,163.563L389.754,163.566Z" style="fill:rgb(204,204,204);fill-rule:nonzero;stroke:black;stroke-width:3.77px;"/>
        <path d="M233.807,114.02L212.241,158.326L191.73,158.815C189.03,158.823 186.901,156.655 186.982,153.98L188.023,118.969C188.101,116.296 190.36,114.12 193.06,114.112L233.807,114.02Z" style="fill:rgb(204,204,204);stroke:black;stroke-width:3.77px;"/>
    </g>
</svg>
