<?xml version="1.0" encoding="UTF-8" standalone="no"?>
<!DOCTYPE svg PUBLIC "-//W3C//DTD SVG 1.1//EN" "http://www.w3.org/Graphics/SVG/1.1/DTD/svg11.dtd">
<svg width="100%" height="100%" viewBox="0 0 100 100" version="1.1" xmlns="http://www.w3.org/2000/svg" xmlns:xlink="http://www.w3.org/1999/xlink" xml:space="preserve" xmlns:serif="http://www.serif.com/" style="fill-rule:evenodd;clip-rule:evenodd;stroke-linejoin:round;stroke-miterlimit:2;">
    <g transform="matrix(0.110191,0,0,0.110191,-17.1149,-17.1485)">
        <path d="M600,1017.76C388.12,1017.76 191.62,821.26 191.62,609.38C191.62,397.5 388.12,201 600,201L600,262.51C599.997,262.51 599.993,262.51 599.99,262.51C443.43,262.51 310.868,366.76 267.93,509.45L362.055,509.45L399.555,472.512C424.868,447.388 458.431,433.7 494.243,433.7L599.999,433.7L599.999,525.01C537.937,525.01 487.498,575.448 487.498,637.51C487.498,699.572 537.937,750.01 599.999,750.01L600,1017.76ZM504.56,942.57L504.56,879.377C504.56,865.502 499.31,852.002 489.935,841.502L378.745,717.942C367.683,705.755 351.745,698.63 335.245,698.63L265.12,698.63C296.62,816.19 387.94,909.195 504.56,942.57Z" style="fill:rgb(204,204,204);stroke:black;stroke-width:9.08px;"/>
    </g>
    <g transform="matrix(1.97824,0,0,1.97824,-96.3565,-1828.45)">
        <path d="M74.691,928.647L75.632,928.647C75.87,928.647 76.087,928.84 76.115,929.081L76.281,930.463L74.691,930.463L74.691,928.647ZM74.691,931.892L78.683,931.892C79.355,931.892 79.967,932.443 80.05,933.115L80.406,936.075L74.691,936.075L74.691,934.835L76.277,934.835C76.671,934.835 76.994,934.512 76.994,934.119C76.994,933.719 76.671,933.402 76.277,933.402L74.691,933.402L74.691,931.892ZM74.691,937.506L81.861,937.506C82.984,937.506 84.011,938.422 84.145,939.545L85.1,947.561L74.691,941.55L74.691,940.318L75.734,940.318C76.127,940.318 76.45,939.995 76.45,939.602C76.45,939.202 76.127,938.885 75.734,938.885L74.691,938.885L74.691,937.506ZM74.691,943.201L89.172,951.563L88.428,953.205L74.691,945.272L74.691,943.201ZM74.691,946.92L87.845,954.511L84.933,960.993C84.395,960.904 83.85,960.859 83.3,960.859C81.36,960.861 79.465,961.427 77.844,962.488C76.896,963.107 75.816,963.493 74.691,963.613L74.691,946.92ZM74.691,965.05C76.067,964.931 77.422,964.476 78.626,963.687C81.466,961.826 85.132,961.826 87.972,963.687C91.466,965.971 94.546,965.399 97.375,962.287C97.375,962.287 97.518,967.745 97.373,967.9C94.785,970.743 91.565,971.277 88.365,969.178C85.292,967.162 81.314,967.162 78.237,969.178C77.151,969.89 75.932,970.305 74.691,970.423L74.691,965.05ZM78.173,938.889C77.777,938.889 77.46,939.206 77.456,939.606C77.456,939.999 77.779,940.323 78.173,940.323C78.566,940.323 78.889,939.999 78.889,939.606C78.889,939.206 78.566,938.889 78.173,938.889Z" style="fill:rgb(204,204,204);stroke:black;stroke-width:0.51px;"/>
    </g>
</svg>
