<svg xmlns="http://www.w3.org/2000/svg" xml:space="preserve" width="512" height="512" fill-rule="evenodd" stroke-linejoin="round" stroke-miterlimit="2" clip-rule="evenodd" viewBox="0 0 512 512">
  <path fill="#ccc" stroke="#000" stroke-width="5.12" d="M261.11 77.947c1.628 0 3.251 0 4.332-.01 74.496 1.224 126.561-4.89 151.859 54.323 4.147 11.136 13.66 37.821 18.447 51.133q2.186-9.964 9.912-14.193c3.348-1.807 7.496-2.765 12.329-2.765 18.473 0 32.932 9.277 32.932 21.105-.451 16.957-25.062 22.886-40.156 20.731 3.743 4.224 7.834 7.869 12.032 11.587.271.215.538.481.799.691 11.11 9.626 30.858 29.235 27.535 49.167-6.753 36.731-7.414 65.94-7.521 95.094a24.27 24.27 0 0 1-13.21 21.504v33.802c0 7.68-5.714 13.926-12.728 13.926h-41.595c-7.04 0-12.728-6.221-12.728-13.926v-31.119h-15.258c-12.836-10.9-20.618-26.552-40.289-26.522H261.11v-31.416h56.453a7.936 7.936 0 0 0 7.921-7.921v-14.884a7.936 7.936 0 0 0-7.921-7.921H261.11V190.264c65.562 0 131.113-2.058 145.249-6.18a8417 8417 0 0 0-15.227-42.148c-17.009-42.179-65.654-34.499-125.66-36.096h-4.362zm0 296.166h86.692c9.994-.108 15.892 6.748 22.323 13.553.374.425.799.876 1.229 1.331H261.11zm190.157-73.088v-.026c.077-.108.154-.159.236-.266 8.909-9.513 11.192-44.385-.236-46.244-15.683-1.3-55.439 10.895-67.318 16.742-8.909 4.705-5.821 29.768.876 35.584 8.827 7.711 54.856 5.878 66.442-5.786Z"/>
  <path fill="#ccc" stroke="#000" stroke-width="5.12" d="M250.87 486.385c-119.532 0-230.39-110.859-230.39-230.395S131.338 25.6 250.87 25.6v34.698c-88.33 0-163.118 58.813-187.341 139.315h53.105l21.156-20.838c14.28-14.172 33.213-21.898 53.417-21.898h59.663v51.517c-35.011 0-63.468 28.452-63.468 63.468s28.457 63.468 63.468 63.468zm-53.842-42.419v-35.651a32.15 32.15 0 0 0-8.253-21.371l-62.721-69.704a33.28 33.28 0 0 0-24.545-10.895H61.952c17.766 66.319 69.289 118.789 135.081 137.62Z"/>
</svg>
