<svg xmlns="http://www.w3.org/2000/svg" xml:space="preserve" width="512" height="512" fill-rule="evenodd" stroke-linejoin="round" stroke-miterlimit="2" clip-rule="evenodd" viewBox="0 0 512 512">
  <path fill="#ccc" stroke="#000" stroke-width="5.12" d="M250.906 486.451c-119.552 0-230.415-110.874-230.415-230.42S131.359 25.61 250.906 25.61v34.708h-.005c-88.335 0-163.128 58.819-187.356 139.325h53.105l21.161-20.838c14.285-14.177 33.219-21.898 53.427-21.898h59.668v51.517c-35.021 0-63.478 28.457-63.478 63.478s28.462 63.473 63.478 63.473zm-53.847-42.429v-35.651a32.15 32.15 0 0 0-8.253-21.366l-62.736-69.724a33.28 33.28 0 0 0-24.545-10.895H61.958c17.777 66.33 69.299 118.804 135.101 137.636Z"/>
  <g fill="#ccc" stroke="#000" stroke-width="5.12">
    <path fill-rule="nonzero" d="M263.398 12.8c-4.168 4.567-1.94 478.034 1.091 486.405 2.995-8.202 8.018-25.359 8.018-25.359l20.142-83.671s4.797-27.633 4.997-39.721a312 312 0 0 0-.026-11.745v-.128l-.543-241.111c-.594-22.062-6.497-43.51-17.065-62.034-4.987-8.755-12.472-17.848-16.614-22.636Zm45.266 311.598 179.323 5.33-.061-28.708-179.517-89.18zm60.898 152.417a6.35 6.35 0 0 1-4.644 1.802l-83.282-2.473 20.198-82.371 65.736 32.655a6.91 6.91 0 0 1 3.83 6.144l.087 39.598a6.45 6.45 0 0 1-1.92 4.639z"/>
    <path d="m436.813 265.129-60.14-29.276-.666-27.843a6.35 6.35 0 0 1 6.564-6.441l47.524 1.413c3.63.102 6.584 3.174 6.595 6.835z"/>
  </g>
</svg>
