<?xml version="1.0" standalone="no"?>
<!DOCTYPE svg PUBLIC "-//W3C//DTD SVG 20010904//EN" "http://www.w3.org/TR/2001/REC-SVG-20010904/DTD/svg10.dtd">
<!-- Created using Krita: https://krita.org -->
<svg xmlns="http://www.w3.org/2000/svg" 
    xmlns:xlink="http://www.w3.org/1999/xlink"
    xmlns:krita="http://krita.org/namespaces/svg/krita"
    xmlns:sodipodi="http://sodipodi.sourceforge.net/DTD/sodipodi-0.dtd"
    width="216pt"
    height="216pt"
    viewBox="0 0 216 216">
<defs/>
<path id="shape0" transform="translate(9.88775113391125, 8.50499966823807)" fill="#ffffff" fill-rule="evenodd" stroke="none" stroke-width="5.4" stroke-linecap="square" stroke-linejoin="bevel" d="M98.1122 44.685L98.1122 157.815C90.2714 147.746 82.7159 137.301 76.0622 126.045L92.7797 128.79C88.1402 118.269 84.0227 114.354 80.4272 117.045C75.7202 121.972 93.1577 125.325 92.7797 128.767C89.3237 128.263 83.7212 127.386 75.9722 125.955C74.5142 126.495 72.0842 127.395 68.6822 128.655C63.6477 123.871 62.1205 116.969 60.4022 109.575C70.7732 109.074 76.2332 108.819 76.7822 108.81C82.0087 104.883 87.9487 109.63 94.6022 123.052C85.467 102.668 79.5045 97.875 76.7147 108.675C73.7942 109.656 68.3567 109.971 60.4022 109.62C58.5542 111.573 57.2342 112.968 56.4422 113.805C54.4048 112.144 49.6915 104.791 51.2222 96.345C61.3849 95.6193 71.2061 95.1505 81.5635 94.5562C81.3635 84.7562 74.0022 71.725 59.2322 76.275C60.1142 81.261 64.1042 93.411 77.1422 90.855C79.1282 92.469 80.5982 93.699 81.5522 94.545C75.3062 94.887 65.3762 95.517 51.7622 96.435C47.2654 93.951 37.5362 91.5301 39.8822 85.545L20.8922 78.885L33.3122 71.505C25.9941 65.2123 21.9215 54.2759 16.9322 43.515C24.3614 48.7076 32.019 53.2149 40.8722 54.135L44.1122 41.175L52.6622 52.335L62.0672 43.56C50.1337 18.4527 -4.01444 26.2892 0.237248 0C18.7679 25.6853 56.8412 -19.0088 88.6622 43.065L88.3922 23.895C88.3922 23.895 91.6322 30.825 98.1122 44.685Z" sodipodi:nodetypes="cccccccccccccccccccccccccccccccc"/><path id="shape1" transform="translate(60.7499992395991, 126.967498388634)" fill="#ffffff" fill-rule="evenodd" stroke="none" stroke-width="5.4" stroke-linecap="square" stroke-linejoin="bevel" d="M47.25 43.8075L47.25 60.2775C23.76 44.2575 11.07 34.8075 9.18 31.9275C7.29 29.0475 4.23 18.405 0 0L4.185 8.4375L7.29 5.3325L14.04 18.1575L24.3 19.6425C32.22 33.6825 39.87 41.7375 47.25 43.8075Z" sodipodi:nodetypes="cczcccccc"/><path id="shape2" transform="translate(11.2499998591852, 97.3799987811071)" fill="#ffffff" fill-rule="evenodd" stroke="none" stroke-width="5.4" stroke-linecap="square" stroke-linejoin="bevel" d="M49.05 24.57C22.1467 -6.25388 26.7653 15.4461 7.65 0C8.38384 8.64902 14.7055 12.6855 19.62 14.76C14.8002 19.2545 8.71795 19.4606 0 16.29C24.0464 47.4398 19.8101 6.69024 49.05 24.57Z" sodipodi:nodetypes="ccccc"/><path id="shape3" transform="translate(60.7499974291107, 101.60999569995)" fill="#ffffff" fill-rule="evenodd" stroke="none" stroke-width="5.4" stroke-linecap="square" stroke-linejoin="bevel" d="M0 1.8L1.35 5.04L31.14 2.16L25.92 0C25.92 0 17.28 0.6 0 1.8Z" sodipodi:nodetypes="ccccc"/><path id="shape4" transform="translate(70.3799949240907, 115.199991691606)" fill="#ffffff" fill-rule="evenodd" stroke="none" stroke-width="5.4" stroke-linecap="square" stroke-linejoin="bevel" d="M0 0.9L1.17 5.58L17.82 3.96L12.6 0C12.6 0 8.4 0.3 0 0.9Z" sodipodi:nodetypes="ccccc"/><path id="shape5" transform="translate(85.4099963855214, 132.749994382133)" fill="#ffffff" fill-rule="evenodd" stroke="none" stroke-width="5.4" stroke-linecap="square" stroke-linejoin="bevel" d="M0 0L2.88 5.04L18.36 4.95L17.46 3.51C17.46 3.51 11.64 2.34 0 0Z" sodipodi:nodetypes="ccccc"/><path id="shape01" transform="translate(9.88775027841502, 8.50499966823807)" fill="#ffffff" fill-rule="evenodd" stroke-opacity="0" stroke="#000000" stroke-width="0" stroke-linecap="square" stroke-linejoin="bevel" d="M98.1122 44.685L98.1122 157.815C90.2714 147.746 82.609 137.194 75.9553 125.938L92.7797 128.79C88.1402 118.269 84.0227 114.354 80.4272 117.045C75.7202 121.972 91.6116 125.608 92.7797 128.857C89.2919 128.178 83.693 127.231 75.9722 125.955L68.6822 128.655C63.6477 123.871 62.1205 116.969 60.4022 109.575C70.7732 109.074 76.2332 108.819 76.7822 108.81C82.0087 104.883 87.9487 109.63 94.6022 123.052C85.467 102.668 79.5045 97.875 76.7147 108.675C73.7942 109.656 68.3567 109.971 60.4022 109.62C58.5542 111.573 57.2342 112.968 56.4422 113.805C54.4048 112.144 50.254 104.881 51.7847 96.435C61.9474 95.7093 71.1949 95.1393 81.5522 94.545C81.3522 84.745 74.0022 71.725 59.2322 76.275C60.1142 81.261 64.1042 93.411 77.1422 90.855C79.1282 92.469 80.5982 93.699 81.5522 94.545C75.3062 94.887 65.3762 95.517 51.7622 96.435C47.2654 93.951 37.5362 91.5301 39.8822 85.545L20.8922 78.885L33.3122 71.505C25.9941 65.2123 21.9215 54.2759 16.9322 43.515C24.3614 48.7076 32.019 53.2149 40.8722 54.135L44.1122 41.175L52.6622 52.335L62.0672 43.56C50.1337 18.4527 -4.01444 26.2892 0.237249 0C18.7679 25.6853 56.8412 -19.0088 88.6622 43.065L88.3922 23.895C88.3922 23.895 91.6322 30.825 98.1122 44.685Z" sodipodi:nodetypes="cccccccccccccccccccccccccccccccc"/><path id="shape11" transform="translate(60.7499992395991, 126.967498388634)" fill="#ffffff" fill-rule="evenodd" stroke-opacity="0" stroke="#000000" stroke-width="0" stroke-linecap="square" stroke-linejoin="bevel" d="M47.25 43.8075L47.25 60.2775C23.76 44.2575 11.07 34.8075 9.18 31.9275C7.29 29.0475 4.23 18.405 0 0L4.185 8.4375L7.29 5.3325L14.04 18.1575L24.3 19.6425C32.22 33.6825 39.87 41.7375 47.25 43.8075Z" sodipodi:nodetypes="cczcccccc"/><path id="shape21" transform="translate(11.2499998591852, 97.3799987811071)" fill="#ffffff" fill-rule="evenodd" stroke-opacity="0" stroke="#000000" stroke-width="0" stroke-linecap="square" stroke-linejoin="bevel" d="M49.05 24.57C22.1467 -6.25388 26.7653 15.4461 7.65 0C8.38384 8.64902 14.7055 12.6855 19.62 14.76C14.8002 19.2545 8.71795 19.4606 0 16.29C24.0464 47.4398 19.8101 6.69024 49.05 24.57Z" sodipodi:nodetypes="ccccc"/><path id="shape31" transform="translate(60.7499974291107, 101.60999569995)" fill="#ffffff" fill-rule="evenodd" stroke-opacity="0" stroke="#000000" stroke-width="0" stroke-linecap="square" stroke-linejoin="bevel" d="M0 1.8C0.430694 2.87614 0.718915 3.92378 1.35 5.04L31.14 2.16C30.8968 0.898596 27.66 0.719996 25.92 0C25.92 0 17.28 0.6 0 1.8Z" sodipodi:nodetypes="ccccc"/><path id="shape41" transform="translate(70.3799949240907, 115.199991691606)" fill="#ffffff" fill-rule="evenodd" stroke-opacity="0" stroke="#000000" stroke-width="0" stroke-linecap="square" stroke-linejoin="bevel" d="M0 0.9C0.14895 2.31537 -0.0994465 3.49233 1.17 5.58L17.82 3.96C17.5166 2.22953 14.3995 1.30299 12.6 0C12.6 0 8.4 0.3 0 0.9Z" sodipodi:nodetypes="ccccc"/><path id="shape51" transform="translate(85.4099963855214, 132.749994382133)" fill="#ffffff" fill-rule="evenodd" stroke-opacity="0" stroke="#000000" stroke-width="0" stroke-linecap="square" stroke-linejoin="bevel" d="M0 0C0.219166 1.46833 1.9025 3.355 2.88 5.04L18.36 4.95L17.46 3.51C17.46 3.51 11.64 2.34 0 0Z" sodipodi:nodetypes="ccccc"/><path id="shape02" transform="matrix(-1 0 0 1 206.168720396505 8.35650030297408)" fill="#ffffff" fill-rule="evenodd" stroke-opacity="0" stroke="#000000" stroke-width="0" stroke-linecap="square" stroke-linejoin="bevel" d="M98.1122 44.685L98.1122 157.815C90.2714 147.746 82.6259 137.481 75.9722 126.225L92.7797 128.79C88.1402 118.269 84.0227 114.354 80.4272 117.045C75.7202 121.972 93.1577 125.415 92.7797 128.857C89.3237 128.353 83.7212 127.386 75.9722 125.955L68.6822 128.655C63.6477 123.871 62.1205 116.969 60.4022 109.575C70.7732 109.074 76.2332 108.819 76.7822 108.81C82.0087 104.883 87.9487 109.63 94.6022 123.052C85.467 102.668 79.5045 97.875 76.7147 108.675C73.7942 109.656 68.3567 109.971 60.4022 109.62C58.5542 111.573 57.2342 112.968 56.4422 113.805C54.4048 112.144 49.6915 104.791 51.2222 96.345C61.3849 95.6193 71.1949 95.1393 81.5522 94.545C81.3522 84.745 74.0022 71.725 59.2322 76.275C60.1142 81.261 64.1042 93.411 77.1422 90.855C79.1282 92.469 80.5982 93.699 81.5522 94.545C75.3062 94.887 65.3762 95.517 51.7622 96.435C47.2654 93.951 37.5362 91.5301 39.8822 85.545L20.8922 78.885L33.3122 71.505C25.9941 65.2123 21.9215 54.2759 16.9322 43.515C24.3614 48.7076 32.019 53.2149 40.8722 54.135L44.1122 41.175L52.6622 52.335L62.0672 43.56C50.1337 18.4527 -4.01444 26.2892 0.237249 0C18.7679 25.6853 56.8412 -19.0088 88.6622 43.065L88.3922 23.895C88.3922 23.895 91.6322 30.825 98.1122 44.685Z" sodipodi:nodetypes="cccccccccccccccccccccccccccccccc"/><path id="shape12" transform="matrix(-1 0 0 1 155.306471435321 126.81899902337)" fill="#ffffff" fill-rule="evenodd" stroke-opacity="0" stroke="#000000" stroke-width="0" stroke-linecap="square" stroke-linejoin="bevel" d="M47.25 43.8075L47.25 60.2775C23.76 44.2575 11.07 34.8075 9.18 31.9275C7.29 29.0475 4.23 18.405 0 0L4.185 8.4375L7.29 5.3325L14.04 18.1575L24.3 19.6425C32.22 33.6825 39.87 41.7375 47.25 43.8075Z" sodipodi:nodetypes="cczcccccc"/><path id="shape22" transform="matrix(-1 0 0 1 204.806470815735 97.2314994158431)" fill="#ffffff" fill-rule="evenodd" stroke-opacity="0" stroke="#000000" stroke-width="0" stroke-linecap="square" stroke-linejoin="bevel" d="M49.05 24.57C22.1467 -6.25388 26.7653 15.4461 7.65 0C8.38384 8.64902 14.7055 12.6855 19.62 14.76C14.8002 19.2545 8.71795 19.4606 0 16.29C24.0464 47.4398 19.8101 6.69024 49.05 24.57Z" sodipodi:nodetypes="ccccc"/><path id="shape32" transform="matrix(-1 0 0 1 155.30647324581 101.461496334686)" fill="#ffffff" fill-rule="evenodd" stroke-opacity="0" stroke="#000000" stroke-width="0" stroke-linecap="square" stroke-linejoin="bevel" d="M0 1.8L1.35 5.04L31.14 2.16L25.92 0C25.92 0 17.28 0.6 0 1.8Z" sodipodi:nodetypes="ccccc"/><path id="shape42" transform="matrix(-1 0 0 1 145.67647575083 115.051492326342)" fill="#ffffff" fill-rule="evenodd" stroke-opacity="0" stroke="#000000" stroke-width="0" stroke-linecap="square" stroke-linejoin="bevel" d="M0 0.9C0.0748215 2.49502 0.293138 4.0741 1.17 5.58L17.82 3.96C16.3875 2.60925 15.6915 1.18485 12.6 0C12.6 0 8.4 0.3 0 0.9Z" sodipodi:nodetypes="ccccc"/><path id="shape52" transform="matrix(-1 0 0 1 130.646474289399 132.601495016869)" fill="#ffffff" fill-rule="evenodd" stroke-opacity="0" stroke="#000000" stroke-width="0" stroke-linecap="square" stroke-linejoin="bevel" d="M0 0L2.88 5.04L18.36 4.95L17.46 3.51C17.46 3.51 11.64 2.34 0 0Z" sodipodi:nodetypes="ccccc"/><path id="shape011" transform="matrix(-1 0 0 1 206.168720360671 8.35650030297408)" fill="#ffffff" fill-rule="evenodd" stroke-opacity="0" stroke="#000000" stroke-width="0" stroke-linecap="square" stroke-linejoin="bevel" d="M98.1122 44.685L98.1122 157.815C90.2714 147.746 82.6259 137.481 75.9722 126.225L92.7797 128.79C88.1402 118.269 84.0227 114.354 80.4272 117.045C75.7202 121.972 93.1577 125.415 92.7797 128.857C89.3237 128.353 83.7212 127.386 75.9722 125.955L68.6822 128.655C63.6477 123.871 62.1205 116.969 60.4022 109.575C70.7732 109.074 76.2332 108.819 76.7822 108.81C82.0087 104.883 87.9487 109.63 94.6022 123.052C85.467 102.668 79.5045 97.875 76.7147 108.675C73.7942 109.656 68.3567 109.971 60.4022 109.62C58.5542 111.573 57.2342 112.968 56.4422 113.805C54.4048 112.144 49.6915 104.791 51.2222 96.345C61.3849 95.6193 71.1949 95.1393 81.5522 94.545C81.3522 84.745 74.0022 71.725 59.2322 76.275C60.1142 81.261 64.1042 93.411 77.1422 90.855C79.1282 92.469 80.5982 93.699 81.5522 94.545C75.3062 94.887 65.3762 95.517 51.7622 96.435C47.2654 93.951 37.5362 91.5301 39.8822 85.545L20.8922 78.885L33.3122 71.505C25.9941 65.2123 21.9215 54.2759 16.9322 43.515C24.3614 48.7076 32.019 53.2149 40.8722 54.135L44.1122 41.175L52.6622 52.335L62.0672 43.56C50.1337 18.4527 -4.01444 26.2892 0.237249 0C18.7679 25.6853 56.8412 -19.0088 88.6622 43.065L88.3922 23.895C88.3922 23.895 91.6322 30.825 98.1122 44.685Z" sodipodi:nodetypes="cccccccccccccccccccccccccccccccc"/><path id="shape111" transform="matrix(-1 0 0 1 155.306471435321 126.81899902337)" fill="#ffffff" fill-rule="evenodd" stroke-opacity="0" stroke="#000000" stroke-width="0" stroke-linecap="square" stroke-linejoin="bevel" d="M47.25 43.8075L47.25 60.2775C23.76 44.2575 11.07 34.8075 9.18 31.9275C7.29 29.0475 4.23 18.405 0 0L4.185 8.4375L7.29 5.3325L14.04 18.1575L24.3 19.6425C32.22 33.6825 39.87 41.7375 47.25 43.8075Z" sodipodi:nodetypes="cczcccccc"/><path id="shape211" transform="matrix(-1 0 0 1 204.806470815735 97.2314994158431)" fill="#ffffff" fill-rule="evenodd" stroke-opacity="0" stroke="#000000" stroke-width="0" stroke-linecap="square" stroke-linejoin="bevel" d="M49.05 24.57C22.1467 -6.25388 26.7653 15.4461 7.65 0C8.38384 8.64902 14.7055 12.6855 19.62 14.76C14.8002 19.2545 8.71795 19.4606 0 16.29C24.0464 47.4398 19.8101 6.69024 49.05 24.57Z" sodipodi:nodetypes="ccccc"/><path id="shape311" transform="matrix(-1 0 0 1 155.30647324581 101.461496334686)" fill="#ffffff" fill-rule="evenodd" stroke-opacity="0" stroke="#000000" stroke-width="0" stroke-linecap="square" stroke-linejoin="bevel" d="M0 1.8L1.35 5.04L31.14 2.16C29.9869 1.38896 29.663 0.545826 25.92 0C25.92 0 17.28 0.6 0 1.8Z" sodipodi:nodetypes="ccccc"/><path id="shape411" transform="matrix(-1 0 0 1 145.67647575083 115.051492326342)" fill="#ffffff" fill-rule="evenodd" stroke-opacity="0" stroke="#000000" stroke-width="0" stroke-linecap="square" stroke-linejoin="bevel" d="M0 0.9L1.17 5.58L17.82 3.96L12.6 0C12.6 0 8.4 0.3 0 0.9Z" sodipodi:nodetypes="ccccc"/><path id="shape511" transform="matrix(-1 0 0 1 130.646474289399 132.601495016869)" fill="#ffffff" fill-rule="evenodd" stroke-opacity="0" stroke="#000000" stroke-width="0" stroke-linecap="square" stroke-linejoin="bevel" d="M0 0C0.344901 1.68 1.89407 3.36 2.88 5.04L18.36 4.95L17.46 3.51C17.46 3.51 11.64 2.34 0 0Z" sodipodi:nodetypes="ccccc"/><path id="shape6" transform="translate(104.219992483505, 50.4899963585893)" fill="#ffffff" fill-rule="evenodd" stroke="none" stroke-width="5.4" stroke-linecap="square" stroke-linejoin="bevel" d="M7.83 0.540001L5.535 112.995L3.78001 115.29L1.62 112.455L0 0L3.78001 2.43C3.42 2.43 4.77 1.8 7.83 0.540001Z" sodipodi:nodetypes="ccccccc"/>
</svg>
