<?xml version="1.0" standalone="no"?>
<!DOCTYPE svg PUBLIC "-//W3C//DTD SVG 20010904//EN" "http://www.w3.org/TR/2001/REC-SVG-20010904/DTD/svg10.dtd">
<!-- Created using Krita: https://krita.org -->
<svg xmlns="http://www.w3.org/2000/svg" 
    xmlns:xlink="http://www.w3.org/1999/xlink"
    xmlns:krita="http://krita.org/namespaces/svg/krita"
    xmlns:sodipodi="http://sodipodi.sourceforge.net/DTD/sodipodi-0.dtd"
    width="216pt"
    height="216pt"
    viewBox="0 0 216 216">
<defs/>
<path id="shape0" transform="translate(36.3217015447502, 38.7449995311433)" fill="#ffffff" fill-rule="evenodd" stroke="none" stroke-width="5.4" stroke-linecap="square" stroke-linejoin="bevel" d="M68.1683 72.495C65.0036 70.9524 61.9793 68.8839 59.5283 64.665L64.2983 56.655C60.8336 50.9415 57.9986 49.4865 55.7933 52.29C53.588 55.0935 56.453 56.5185 64.3883 56.565L59.5283 64.665C60.9786 75.7419 63.4335 87.3605 66.6833 98.0775C59.1354 86.9692 52.5798 82.3546 48.5933 69.9975L43.8008 85.3875C39.0447 85.4446 37.9818 82.7317 35.1608 81.3375L32.1233 94.455C37.3515 100.6 43.2317 106.279 49.8983 111.465C48.4796 102.66 47.9374 92.969 48.9083 83.925C52.4622 91.5231 56.9919 101.243 61.9583 108.135L68.5283 108.405L68.5733 132.165C50.5538 122.123 26.7267 114.855 20.9183 93.825C15.3989 73.8419 22.7729 75.8937 14.8433 49.68C-1.70546 37.4863 -5.99951 23.5014 10.1183 0C10.9547 14.4104 16.5539 29.2262 31.1783 30.24C30.8513 33.021 30.8063 37.656 31.0433 44.145C37.9643 50.979 44.5793 55.389 50.8883 57.375C50.4079 59.1086 39.6248 61.9997 33.3147 59.2089C29.1056 57.3473 26.8867 52.9576 31.0433 44.01C31.0073 42.174 31.0373 37.614 31.1333 30.33L68.9333 32.04C68.2253 32.1089 67.9703 45.5939 68.1683 72.495Z" sodipodi:nodetypes="ccczccccccccccccscccccccccc"/><path id="shape1" transform="translate(66.1837452267599, 69.1537450125605)" fill="#ffffff" fill-rule="evenodd" stroke="none" stroke-width="5.4" stroke-linecap="square" stroke-linejoin="bevel" d="M0 0L2.9025 0L2.4975 14.04L0.3375 13.3941C0.3375 13.3941 0.225 8.92939 0 0Z" sodipodi:nodetypes="ccccc"/><path id="shape2" transform="translate(94.7362459908849, 95.4112459623197)" fill="#ffffff" fill-rule="evenodd" stroke="none" stroke-width="5.4" stroke-linecap="square" stroke-linejoin="bevel" d="M0 7.695L3.3075 9.315L6.44625 0L4.05 0.37125C4.05 0.37125 2.7 2.8125 0 7.695Z" sodipodi:nodetypes="ccccc"/><path id="shape01" transform="matrix(-1 0 0 1 173.069996669475 38.6549995188587)" fill="#ffffff" fill-rule="evenodd" stroke-opacity="0" stroke="#000000" stroke-width="0" stroke-linecap="square" stroke-linejoin="bevel" d="M68.1683 72.495C65.0036 70.9524 61.9793 68.8839 59.5283 64.665L64.2983 56.655C60.8336 50.9415 57.9986 49.4865 55.7933 52.29C53.588 55.0935 56.453 56.5185 64.3883 56.565L59.5283 64.665C60.9786 75.7419 63.4335 87.3605 66.6833 98.0775C59.1354 86.9692 52.5798 82.3546 48.5933 69.9975L43.8008 85.3875C39.0447 85.4446 37.9818 82.7317 35.1608 81.3375L32.1233 94.455C37.3515 100.6 43.2317 106.279 49.8983 111.465C48.4796 102.66 47.9374 92.969 48.9083 83.925C52.4622 91.5231 56.9919 101.243 61.9583 108.135L68.5283 108.405L68.5733 132.165C50.5538 122.123 26.7267 114.855 20.9183 93.825C15.3989 73.8419 22.7729 75.8937 14.8433 49.68C-1.70546 37.4863 -5.99951 23.5014 10.1183 0C10.9547 14.4104 16.5539 29.2262 31.1783 30.24C30.8513 33.021 30.8063 37.656 31.0433 44.145C37.9643 50.979 44.5793 55.389 50.8883 57.375C50.4079 59.1086 39.6248 61.9997 33.3147 59.2089C29.1056 57.3473 26.8867 52.9576 31.0433 44.01C31.0073 42.174 31.0373 37.614 31.1333 30.33L68.0333 32.13C67.9253 32.1389 67.9703 45.5939 68.1683 72.495Z" sodipodi:nodetypes="ccczccccccccccccscccccccccc"/><path id="shape11" transform="matrix(-1 0 0 1 143.207957071321 69.063745000276)" fill="#ffffff" fill-rule="evenodd" stroke-opacity="0" stroke="#000000" stroke-width="0" stroke-linecap="square" stroke-linejoin="bevel" d="M0 0L2.9025 0L2.4975 14.04L0.3375 13.3941C0.3375 13.3941 0.225 8.92939 0 0Z" sodipodi:nodetypes="ccccc"/><path id="shape21" transform="matrix(-1 0 0 1 114.655456307196 95.3212459500351)" fill="#ffffff" fill-rule="evenodd" stroke-opacity="0" stroke="#000000" stroke-width="0" stroke-linecap="square" stroke-linejoin="bevel" d="M0 7.695L3.3075 9.315L6.44625 0L4.05 0.37125C4.05 0.37125 2.7 2.8125 0 7.695Z" sodipodi:nodetypes="ccccc"/><path id="shape3" transform="translate(102.32999871921, 70.7399991145989)" fill="#ffffff" fill-rule="evenodd" stroke="none" stroke-width="5.4" stroke-linecap="square" stroke-linejoin="bevel" d="M0 0L5.67 0.18L3.69 39.6L2.43 40.86L1.17 38.61C1.17 38.61 0.78 25.74 0 0Z" sodipodi:nodetypes="cccccc"/><path id="shape4" transform="translate(101.699992665304, 146.699989419863)" fill="#ffffff" fill-rule="evenodd" stroke="none" stroke-width="5.4" stroke-linecap="square" stroke-linejoin="bevel" d="M0 3.15L3.15 0L6.30001 3.96L4.77 22.23L3.06 23.85L1.17 21.42C1.17 21.42 0.78 15.33 0 3.15Z" sodipodi:nodetypes="ccccccc"/>
</svg>
