<?xml version="1.0" standalone="no"?>
<!DOCTYPE svg PUBLIC "-//W3C//DTD SVG 20010904//EN" "http://www.w3.org/TR/2001/REC-SVG-20010904/DTD/svg10.dtd">
<!-- Created using Krita: https://krita.org -->
<svg xmlns="http://www.w3.org/2000/svg" 
    xmlns:xlink="http://www.w3.org/1999/xlink"
    xmlns:krita="http://krita.org/namespaces/svg/krita"
    xmlns:sodipodi="http://sodipodi.sourceforge.net/DTD/sodipodi-0.dtd"
    width="216pt"
    height="216pt"
    viewBox="0 0 216 216">
<defs/>
<ellipse id="shape0" transform="matrix(1.03575943849019 0 0 0.914907336245766 85.9338950008111 45.7586141132825)" rx="6.12" ry="9.36" cx="6.12" cy="9.36" fill="#ffffff" fill-rule="evenodd" stroke="none" stroke-width="3.6" stroke-linecap="square" stroke-linejoin="bevel"/><ellipse id="shape01" transform="matrix(1.03575943849019 0 0 0.914907336245766 111.252299228268 45.5475832638924)" rx="6.12" ry="9.36" cx="6.12" cy="9.36" fill="#ffffff" stroke="none" stroke-width="3.6" stroke-linecap="square" stroke-linejoin="bevel"/><path id="shape1" transform="matrix(1.05120523223835 0 0 1.25501163339416 90.5059855910963 40.0743428715054)" fill="#ffffff" fill-rule="evenodd" stroke="none" stroke-width="3.6" stroke-linecap="square" stroke-linejoin="bevel" d="M2.9785 2.79501C8.62682 0.376353 17.8976 -2.33007 23.6972 3.43959C13.4017 9.81503 21.9001 19.2431 27.6786 20.5212C19.0205 29.3943 5.66791 26.0458 0 20.3831C12.105 16.2026 13.0979 10.3399 2.9785 2.79501Z" sodipodi:nodetypes="ccccc"/><path id="shape2" transform="matrix(1.32242599328126 0 0 1.25501163339416 88.6787104897291 25.6692600401832)" fill="#ffffff" fill-rule="evenodd" stroke="none" stroke-width="3.6" stroke-linecap="square" stroke-linejoin="bevel" d="M8.86389 15.9613C6.16003 12.6155 3.07085 9.26981 0 5.92408L9.01687 0L5.52323 6.47659C6.53668 9.19819 7.65023 12.3597 8.86389 15.9613Z" sodipodi:nodetypes="ccccc"/><path id="shape02" transform="matrix(-1.32242599328126 0 0 1.25501163339416 118.922457977168 25.6499989145139)" fill="#ffffff" fill-rule="evenodd" stroke-opacity="0" stroke="#000000" stroke-width="0" stroke-linecap="square" stroke-linejoin="bevel" d="M8.86389 15.9613C6.16003 12.6155 3.07085 9.26981 0 5.92408L9.01687 0L5.52323 6.47659C6.53668 9.19819 7.65023 12.3597 8.86389 15.9613Z" sodipodi:nodetypes="ccccc"/><path id="shape3" transform="translate(57.0107327304063, 10.7382307240239)" fill="none" stroke="#ffffff" stroke-width="1.44" stroke-linecap="square" stroke-linejoin="miter" stroke-miterlimit="2" d="M47.6564 40.9058L0 0" sodipodi:nodetypes="cc"/><path id="shape03" transform="matrix(-1 0 0 1 156.577422022531 7.40390606839948)" fill="none" stroke="#ffffff" stroke-width="1.44" stroke-linecap="square" stroke-linejoin="miter" stroke-miterlimit="2" d="M47.6564 40.9058L0 0" sodipodi:nodetypes="cc"/><path id="shape4" transform="matrix(0.847473039853472 0.0646108971001823 -0.0753397323078573 0.988198505612555 61.1864178358982 71.3841609934731)" fill="#ffffff" fill-rule="evenodd" stroke="none" stroke-width="3.6" stroke-linecap="square" stroke-linejoin="bevel" d="M51.3434 0.0740236C50.3574 79.2702 59.2346 64.2112 53.151 85.3133C42.6511 121.734 5.7087 93.2517 2.26596 80.6784C-10.7192 33.2553 35.6544 -1.83123 51.3434 0.0740236Z" sodipodi:nodetypes="cssc"/><path id="shape04" transform="matrix(-0.848105679249752 0.0556945071519329 0.0649427487957418 0.988936196697219 150.180725897496 71.469853764351)" fill="#ffffff" fill-rule="evenodd" stroke-opacity="0" stroke="#000000" stroke-width="0" stroke-linecap="square" stroke-linejoin="bevel" d="M51.3434 0.0740238C50.3574 79.2702 59.2346 64.2112 53.151 85.3133C42.6511 121.734 5.70871 93.2517 2.26597 80.6784C-10.7192 33.2553 35.6544 -1.83123 51.3434 0.0740238Z" sodipodi:nodetypes="cssc"/><path id="shape5" transform="translate(87.1663977359011, 155.220440156448)" fill="#ffffff" fill-rule="evenodd" stroke="none" stroke-width="3.6" stroke-linecap="square" stroke-linejoin="bevel" d="M0.0976025 22.6374C-0.890781 29.682 5.6688 37.1561 17.9005 44.4153C33.906 35.4729 40.3475 24.5799 36.3515 22.8983C32.3555 21.2167 21.4078 11.279 18.4292 0C13.1848 12.7229 7.07426 20.2687 0.0976025 22.6374Z" sodipodi:nodetypes="cczcc"/><path id="shape05" transform="matrix(0.906351685263918 -0.324280387079309 1.07693271473814 3.00998709699961 59.4745174791789 52.019334792915)" fill="#ffffff" fill-rule="evenodd" stroke-opacity="0" stroke="#000000" stroke-width="0" stroke-linecap="square" stroke-linejoin="bevel" d="M8.86389 15.9613C6.16003 12.6155 3.07085 9.26981 0 5.92408L9.01687 0L5.52323 6.47659C6.53668 9.19819 7.65023 12.3597 8.86389 15.9613Z" sodipodi:nodetypes="ccccc"/><path id="shape06" transform="matrix(-0.00396801443997868 0.962608644095026 3.19681603211519 0.0131777459668621 17.3083373702042 128.220730578649)" fill="#ffffff" fill-rule="evenodd" stroke-opacity="0" stroke="#000000" stroke-width="0" stroke-linecap="square" stroke-linejoin="bevel" d="M8.86389 15.9613C6.16003 12.6155 3.07085 9.26981 0 5.92408L9.01687 0L5.52323 6.47659C6.53668 9.19819 7.65023 12.3597 8.86389 15.9613Z" sodipodi:nodetypes="ccccc"/><path id="shape07" transform="matrix(-0.906351685263918 -0.324280387079309 -1.07693271473814 3.00998709699961 154.159760303595 52.8095526614979)" fill="#ffffff" fill-rule="evenodd" stroke-opacity="0" stroke="#000000" stroke-width="0" stroke-linecap="square" stroke-linejoin="bevel" d="M8.86389 15.9613C6.16003 12.6155 3.07085 9.26981 0 5.92408L9.01687 0L5.52323 6.47659C6.53668 9.19819 7.65023 12.3597 8.86389 15.9613Z" sodipodi:nodetypes="ccccc"/><path id="shape011" transform="matrix(-0.440237079075648 -0.856050501449534 -2.84293724570373 1.46202401251413 191.133111585192 92.0026352971031)" fill="#ffffff" fill-rule="evenodd" stroke-opacity="0" stroke="#000000" stroke-width="0" stroke-linecap="square" stroke-linejoin="bevel" d="M5.28699 15.9613C2.58313 12.6155 3.07085 10.5874 0 7.24164L5.43997 0L8.56147 7.01176C9.57492 9.73336 4.07333 12.3597 5.28699 15.9613Z" sodipodi:nodetypes="ccccc"/><path id="shape021" transform="matrix(0.00396801443997868 0.962608644095026 -3.19681603211519 0.0131777459668621 196.32594041257 129.010948447232)" fill="#ffffff" fill-rule="evenodd" stroke-opacity="0" stroke="#000000" stroke-width="0" stroke-linecap="square" stroke-linejoin="bevel" d="M8.86389 15.9613C6.16003 12.6155 3.07085 9.26981 0 5.92408L9.01687 0L5.52323 6.47659C6.53668 9.19819 7.65023 12.3597 8.86389 15.9613Z" sodipodi:nodetypes="ccccc"/><path id="shape012" transform="matrix(0.440237079075648 -0.856050501449534 2.84293724570373 1.46202401251413 27.1652247786829 90.9053664698655)" fill="#ffffff" fill-rule="evenodd" stroke-opacity="0" stroke="#000000" stroke-width="0" stroke-linecap="square" stroke-linejoin="bevel" d="M5.28699 15.9613C2.58313 12.6155 3.07085 10.5874 0 7.24164L5.43997 0L8.56147 7.01176C9.57492 9.73336 4.07333 12.3597 5.28699 15.9613Z" sodipodi:nodetypes="ccccc"/>
</svg>
