<?xml version="1.0" standalone="no"?>
<!DOCTYPE svg PUBLIC "-//W3C//DTD SVG 20010904//EN" "http://www.w3.org/TR/2001/REC-SVG-20010904/DTD/svg10.dtd">
<!-- Created using Krita: https://krita.org -->
<svg xmlns="http://www.w3.org/2000/svg" 
    xmlns:xlink="http://www.w3.org/1999/xlink"
    xmlns:krita="http://krita.org/namespaces/svg/krita"
    xmlns:sodipodi="http://sodipodi.sourceforge.net/DTD/sodipodi-0.dtd"
    width="216pt"
    height="216pt"
    viewBox="0 0 216 216">
<defs/>
<ellipse id="shape0" transform="translate(96.3000000827192, 126.539999927576)" rx="16.56" ry="16.56" cx="16.56" cy="16.56" fill="none" stroke="#ffffff" stroke-width="5.4" stroke-linecap="square" stroke-linejoin="bevel"/><path id="shape1" transform="matrix(0.923149649420947 -0.0500004789963534 0.0497542157541613 0.927718866767639 69.3153877136784 45.3791907657297)" fill="#ffffff" fill-rule="evenodd" stroke="none" stroke-width="5.4" stroke-linecap="square" stroke-linejoin="bevel" d="M17.0755 0.834551C-9.21711 25.9443 -3.22879 70.5833 21.9731 58.2881C34.3117 51.5709 28.5033 -7.67733 17.0755 0.834551Z" sodipodi:nodetypes="ccc"/><path id="shape01" transform="matrix(-0.918413809566327 0.106338823998208 0.105815082144243 0.922959586421407 123.806315780335 39.6175012968011)" fill="#ffffff" fill-rule="evenodd" stroke-opacity="0" stroke="#000000" stroke-width="0" stroke-linecap="square" stroke-linejoin="bevel" d="M17.2819 0.619775C-9.10742 36.5296 -3.21329 68.2407 21.0511 57.9039C40.6043 49.5741 28.2799 -6.47901 17.2819 0.619775Z" sodipodi:nodetypes="csc"/><path id="shape02" transform="matrix(0.810437202980531 -0.447030111370924 0.444828390771572 0.814448539310005 37.198546863829 91.4008071543209)" fill="#ffffff" fill-rule="evenodd" stroke-opacity="0" stroke="#000000" stroke-width="0" stroke-linecap="square" stroke-linejoin="bevel" d="M14.8586 0.454526C-10.3021 26.9874 -0.186821 52.5711 20.5895 44.7509C41.3659 36.9307 25.3445 -4.79058 14.8586 0.454526Z" sodipodi:nodetypes="czc"/><path id="shape03" transform="matrix(-0.922168969926649 0.0657850484157554 0.0654610427334936 0.926733333306534 158.352590265476 63.4518857239136)" fill="#ffffff" fill-rule="evenodd" stroke-opacity="0" stroke="#000000" stroke-width="0" stroke-linecap="square" stroke-linejoin="bevel" d="M15.562 0.521722C-9.17902 32.0066 -2.26857 63.0632 21.1973 53.0854C38.6358 45.6705 25.873 -5.70231 15.562 0.521722Z" sodipodi:nodetypes="csc"/><path id="shape04" transform="matrix(0.138037072005335 -0.918650652922279 0.914126098502568 0.138720299675181 38.1767927233259 178.503010790009)" fill="#ffffff" fill-rule="evenodd" stroke-opacity="0" stroke="#000000" stroke-width="0" stroke-linecap="square" stroke-linejoin="bevel" d="M15.494 0.334972C-8.29828 20.4774 -3.27319 41.7208 20.9133 33.9625C36.1093 29.0882 25.4097 -3.64685 15.494 0.334972Z" sodipodi:nodetypes="csc"/><path id="shape2" transform="translate(75.7567153584531, 100.871528280923)" fill="#ffffff" fill-rule="evenodd" stroke="none" stroke-width="5.4" stroke-linecap="square" stroke-linejoin="bevel" d="M2.00328 37.0985C4.14439 27.9897 10.5444 2.64712 25.3133 0.55847C40.6919 -0.448508 45.8508 -3.21223 64.5533 26.3885C84.5616 44.6533 84.9516 56.4133 65.7233 61.6685C60.2767 68.7117 55.6267 73.1217 51.7733 74.8985C50.0315 75.1915 41.4817 78.8716 32.2433 75.3485C29.7792 79.0134 26.8216 81.2226 23.3705 81.9759C13.6186 85.7988 6.78884 82.7869 6.90828 76.226C7.01072 70.5992 10.1907 67.0517 16.4483 65.5835C34.8212 64.4394 45.5312 65.4744 52.7633 58.1585C58.1304 49.7239 60.1404 38.1622 58.7933 23.4732C43.5039 18.7275 32.4939 18.3643 25.7633 22.3835C12.8751 30.0798 9.81507 44.6148 16.5833 65.9885C13.6991 75.5177 12.2891 80.3627 12.3533 80.5235C7.43182 87.6624 -4.77839 65.9492 2.00328 37.0985Z" sodipodi:nodetypes="cccccccsccczccs"/><path id="shape3" transform="translate(81.3035235480946, 162.899988251533)" fill="#ffffff" fill-rule="evenodd" stroke="none" stroke-width="5.4" stroke-linecap="square" stroke-linejoin="bevel" d="M8.73566 20.3998C2.41625 21.9239 -0.474549 17.6446 0.0632732 7.56199C0.601096 -2.52066 6.71883 -2.52066 18.4165 7.56199C18.4165 7.56199 15.1895 11.8413 8.73566 20.3998Z" sodipodi:nodetypes="czcc"/><path id="shape4" transform="translate(105.841518901158, 134.999998165491)" fill="#ffffff" fill-rule="evenodd" stroke="none" stroke-width="5.4" stroke-linecap="square" stroke-linejoin="bevel" d="M7.77517 0.059349C-1.28332 -1.0448 -3.90925 13.6248 8.00614 13.5011C15.32 13.4251 16.8306 1.16312 7.77517 0.059349Z" sodipodi:nodetypes="css"/><path id="shape5" transform="translate(85.9450262884188, 116.587838846389)" fill="#ffffff" fill-rule="evenodd" stroke="none" stroke-width="5.4" stroke-linecap="square" stroke-linejoin="bevel" d="M4.23497 49.7322C-8.19728 3.15395 6.74272 -10.7061 49.055 8.15216C57.155 42.8922 42.215 56.7522 4.23497 49.7322Z" sodipodi:nodetypes="ccc"/><path id="shape05" transform="matrix(0.898535759248183 -0.218595010132524 0.226204973994103 0.900869881163734 68.590432009379 19.1147218817477)" fill="#ffffff" fill-rule="evenodd" stroke-opacity="0" stroke="#000000" stroke-width="0" stroke-linecap="square" stroke-linejoin="bevel" d="M0.320589 21.394C-2.82643 5.28928 18.0471 -7.50126 25.6855 5.09472C22.481 -0.901197 9.48184 2.3145 13.1711 15.5699C16.4517 27.3573 2.24151 31.2243 0.320589 21.394Z" sodipodi:nodetypes="ccss"/><path id="shape06" transform="matrix(0.898535759248183 -0.218595010132524 0.226204973994103 0.900869881163734 68.5904321275427 19.1147206366885)" fill="#ffffff" fill-rule="evenodd" stroke-opacity="0" stroke="#000000" stroke-width="0" stroke-linecap="square" stroke-linejoin="bevel" d="M0.320589 21.394C-2.82643 5.28928 18.0471 -7.50126 25.6855 5.09472C22.481 -0.901196 9.48184 2.3145 13.1711 15.5699C16.4517 27.3573 2.24151 31.2243 0.320589 21.394Z" sodipodi:nodetypes="ccss"/><path id="shape07" transform="matrix(0.898535759248183 -0.218595010132524 0.226204973994103 0.900869881163734 93.4079092516337 13.7374707105183)" fill="#ffffff" fill-rule="evenodd" stroke-opacity="0" stroke="#000000" stroke-width="0" stroke-linecap="square" stroke-linejoin="bevel" d="M0.320589 21.394C-2.82643 5.28928 18.0471 -7.50126 25.6855 5.09472C22.481 -0.901197 9.48184 2.3145 13.1711 15.5699C16.4517 27.3573 2.24151 31.2243 0.320589 21.394Z" sodipodi:nodetypes="ccss"/><path id="shape08" transform="matrix(0.898535759248183 -0.218595010132524 0.226204973994103 0.900869881163734 130.368845914022 38.0374689579831)" fill="#ffffff" fill-rule="evenodd" stroke-opacity="0" stroke="#000000" stroke-width="0" stroke-linecap="square" stroke-linejoin="bevel" d="M0.320589 21.394C-2.82643 5.28928 18.0471 -7.50126 25.6855 5.09472C22.481 -0.901197 9.48184 2.3145 13.1711 15.5699C16.4517 27.3573 2.24151 31.2243 0.320589 21.394Z" sodipodi:nodetypes="ccss"/><path id="shape09" transform="matrix(0.898535759248183 -0.218595010132524 0.226204973994103 0.900869881163734 39.9188524373482 55.0474677312084)" fill="#ffffff" fill-rule="evenodd" stroke-opacity="0" stroke="#000000" stroke-width="0" stroke-linecap="square" stroke-linejoin="bevel" d="M0.320589 21.394C-2.82643 5.28928 18.0471 -7.50126 25.6855 5.09472C22.481 -0.901197 9.48184 2.3145 13.1711 15.5699C16.4517 27.3573 2.24151 31.2243 0.320589 21.394Z" sodipodi:nodetypes="ccss"/><path id="shape010" transform="matrix(0.630826217383725 -0.676171999245674 0.683813412292971 0.628597208246965 20.7119908882146 145.328068980984)" fill="#ffffff" fill-rule="evenodd" stroke-opacity="0" stroke="#000000" stroke-width="0" stroke-linecap="square" stroke-linejoin="bevel" d="M0.320589 21.394C-2.82643 5.28928 18.0471 -7.50126 25.6855 5.09472C22.481 -0.901197 9.48184 2.3145 13.1711 15.5699C16.4517 27.3573 2.24151 31.2243 0.320589 21.394Z" sodipodi:nodetypes="ccss"/>
</svg>
