<?xml version="1.0" standalone="no"?>
<!DOCTYPE svg PUBLIC "-//W3C//DTD SVG 20010904//EN" "http://www.w3.org/TR/2001/REC-SVG-20010904/DTD/svg10.dtd">
<!-- Created using Krita: https://krita.org -->
<svg xmlns="http://www.w3.org/2000/svg" 
    xmlns:xlink="http://www.w3.org/1999/xlink"
    xmlns:krita="http://krita.org/namespaces/svg/krita"
    xmlns:sodipodi="http://sodipodi.sourceforge.net/DTD/sodipodi-0.dtd"
    width="216pt"
    height="216pt"
    viewBox="0 0 216 216">
<defs/>
<ellipse id="shape0" transform="translate(96.3000000827192, 126.539999927576)" rx="16.56" ry="16.56" cx="16.56" cy="16.56" fill="none" stroke="#ffffff" stroke-width="5.4" stroke-linecap="square" stroke-linejoin="bevel"/><path id="shape1" transform="matrix(0.923149649420947 -0.0500004789963534 0.0497542157541613 0.927718866767639 69.3153877136784 45.3791907657297)" fill="#ffffff" fill-rule="evenodd" stroke="none" stroke-width="5.4" stroke-linecap="square" stroke-linejoin="bevel" d="M17.0755 0.834551C-9.21711 25.9443 -3.22879 70.5833 21.9731 58.2881C34.3117 51.5709 28.5033 -7.67733 17.0755 0.834551Z" sodipodi:nodetypes="ccc"/><path id="shape01" transform="matrix(-0.918413809566327 0.106338823998208 0.105815082144243 0.922959586421407 125.426315760059 40.6975012832838)" fill="#ffffff" fill-rule="evenodd" stroke-opacity="0" stroke="#000000" stroke-width="0" stroke-linecap="square" stroke-linejoin="bevel" d="M17.2819 0.619775C-9.10742 36.5296 -3.21329 68.2407 21.0511 57.9039C40.6043 49.5741 28.2799 -6.47901 17.2819 0.619775Z" sodipodi:nodetypes="csc"/><path id="shape02" transform="matrix(0.810437202980531 -0.447030111370924 0.444828390771572 0.814448539310005 37.198546863829 91.4008071543209)" fill="#ffffff" fill-rule="evenodd" stroke-opacity="0" stroke="#000000" stroke-width="0" stroke-linecap="square" stroke-linejoin="bevel" d="M14.8586 0.454526C-10.3021 26.9874 -0.186821 52.5711 20.5895 44.7509C41.3659 36.9307 25.3445 -4.79058 14.8586 0.454526Z" sodipodi:nodetypes="czc"/><path id="shape03" transform="matrix(-0.922168969926649 0.0657850484157554 0.0654610427334936 0.926733333306534 158.352590265476 63.4518857239136)" fill="#ffffff" fill-rule="evenodd" stroke-opacity="0" stroke="#000000" stroke-width="0" stroke-linecap="square" stroke-linejoin="bevel" d="M15.562 0.521722C-9.17902 32.0066 -2.26857 63.0632 21.1973 53.0854C38.6358 45.6705 25.873 -5.70231 15.562 0.521722Z" sodipodi:nodetypes="csc"/><path id="shape04" transform="matrix(0.138037072005335 -0.918650652922279 0.914126098502568 0.138720299675181 38.1767927233259 178.503010790009)" fill="#ffffff" fill-rule="evenodd" stroke-opacity="0" stroke="#000000" stroke-width="0" stroke-linecap="square" stroke-linejoin="bevel" d="M15.494 0.334972C-8.29828 20.4774 -3.27319 41.7208 20.9133 33.9625C36.1093 29.0882 25.4097 -3.64685 15.494 0.334972Z" sodipodi:nodetypes="csc"/><path id="shape2" transform="translate(75.7567153584531, 100.871528280923)" fill="#ffffff" fill-rule="evenodd" stroke="none" stroke-width="5.4" stroke-linecap="square" stroke-linejoin="bevel" d="M2.00328 37.0985C4.14439 27.9897 10.5444 2.64712 25.3133 0.55847C40.6919 -0.448508 45.8508 -3.21223 64.5533 26.3885C84.5616 44.6533 84.9516 56.4133 65.7233 61.6685C60.2767 68.7117 55.6267 73.1217 51.7733 74.8985C50.0315 75.1915 41.4817 78.8716 32.2433 75.3485C29.7792 79.0134 26.8216 81.2226 23.3705 81.9759C13.6186 85.7988 6.78884 82.7869 6.90828 76.226C7.01072 70.5992 10.1907 67.0517 16.4483 65.5835C34.8212 64.4394 45.5312 65.4744 52.7633 58.1585C58.1304 49.7239 60.1404 38.1622 58.7933 23.4732C43.5039 18.7275 32.4939 18.3643 25.7633 22.3835C12.8751 30.0798 9.81507 44.6148 16.5833 65.9885C13.6991 75.5177 12.2891 80.3627 12.3533 80.5235C7.43182 87.6624 -4.77839 65.9492 2.00328 37.0985Z" sodipodi:nodetypes="cccccccsccczccs"/><path id="shape3" transform="translate(81.3035235480946, 162.899988251533)" fill="#ffffff" fill-rule="evenodd" stroke="none" stroke-width="5.4" stroke-linecap="square" stroke-linejoin="bevel" d="M8.73566 20.3998C2.41625 21.9239 -0.474549 17.6446 0.0632732 7.56199C0.601096 -2.52066 6.71883 -2.52066 18.4165 7.56199C18.4165 7.56199 15.1895 11.8413 8.73566 20.3998Z" sodipodi:nodetypes="czcc"/><path id="shape4" transform="translate(105.841518901158, 134.999998165491)" fill="#ffffff" fill-rule="evenodd" stroke="none" stroke-width="5.4" stroke-linecap="square" stroke-linejoin="bevel" d="M7.77517 0.059349C-1.28332 -1.0448 -3.90925 13.6248 8.00614 13.5011C15.32 13.4251 16.8306 1.16312 7.77517 0.059349Z" sodipodi:nodetypes="css"/><path id="shape05" transform="matrix(0.789796000083644 -0.483865665887958 0.480643831788312 0.7930453350587 23.0295808167938 142.329172409931)" fill="#ffffff" fill-rule="evenodd" stroke-opacity="0" stroke="#000000" stroke-width="0" stroke-linecap="square" stroke-linejoin="bevel" d="M0 22.9221C2.30478 -3.94425 11.7539 -4.89677 21.7712 8.26087C16.0203 6.14509 6.59538 4.87267 20.1422 22.827C8.47631 17.0224 2.50889 21.4768 0 22.9221Z" sodipodi:nodetypes="cccc"/><path id="shape011" transform="matrix(0.787404956585864 -0.616436074823677 0.624048309974848 0.78144556260698 31.013033622297 69.0329820942182)" fill="#ffffff" fill-rule="evenodd" stroke-opacity="0" stroke="#000000" stroke-width="0" stroke-linecap="square" stroke-linejoin="bevel" d="M0 22.8691C5.30877 -2.92255 15.4167 -4.71687 25.9929 6.707C18.819 0.660308 6.09534 9.77219 14.7216 23.6066C6.82135 13.7761 3.68827 21.295 0 22.8691Z" sodipodi:nodetypes="cccc"/><path id="shape021" transform="matrix(0.893427900280699 -0.449206619497121 0.457843831151264 0.889085196579798 62.1190599447377 20.2137899338094)" fill="#ffffff" fill-rule="evenodd" stroke-opacity="0" stroke="#000000" stroke-width="0" stroke-linecap="square" stroke-linejoin="bevel" d="M0 28.985C6.4474 -3.70413 18.7233 -5.97831 31.5679 8.50068C22.8553 0.836889 7.40267 12.3856 17.8791 29.9198C8.28439 17.4603 4.47933 26.99 0 28.985Z" sodipodi:nodetypes="cccc"/><path id="shape031" transform="matrix(0.956263617969758 -0.292506227194224 0.301750902968247 0.953435814860368 88.392221143887 13.655939332943)" fill="#ffffff" fill-rule="evenodd" stroke-opacity="0" stroke="#000000" stroke-width="0" stroke-linecap="square" stroke-linejoin="bevel" d="M0 28.985C6.4474 -3.70413 18.7233 -5.97831 31.5679 8.50068C22.8553 0.836885 7.40267 12.3856 17.8791 29.9198C8.28439 17.4603 4.47933 26.99 0 28.985Z" sodipodi:nodetypes="cccc"/><path id="shape041" transform="matrix(0.893427900280699 -0.449206619497121 0.457843831151264 0.889085196579798 122.639482317875 47.4678881211333)" fill="#ffffff" fill-rule="evenodd" stroke-opacity="0" stroke="#000000" stroke-width="0" stroke-linecap="square" stroke-linejoin="bevel" d="M0 24.8162C5.54142 -3.17139 16.0923 -5.11848 27.132 7.27807C19.6437 0.716524 6.36246 10.6042 15.3668 25.6166C7.12028 14.9491 3.8499 23.1082 0 24.8162Z" sodipodi:nodetypes="cccc"/>
</svg>
