<?xml version="1.0" standalone="no"?>
<!DOCTYPE svg PUBLIC "-//W3C//DTD SVG 20010904//EN" "http://www.w3.org/TR/2001/REC-SVG-20010904/DTD/svg10.dtd">
<!-- Created using Krita: https://krita.org -->
<svg xmlns="http://www.w3.org/2000/svg" 
    xmlns:xlink="http://www.w3.org/1999/xlink"
    xmlns:krita="http://krita.org/namespaces/svg/krita"
    xmlns:sodipodi="http://sodipodi.sourceforge.net/DTD/sodipodi-0.dtd"
    width="216pt"
    height="216pt"
    viewBox="0 0 216 216">
<defs/>
<path id="shape0" transform="matrix(1.11051692836318 0 0 1.2181658682572 29.3425513297913 15.8125721182547)" fill="#ffffff" fill-rule="evenodd" stroke-opacity="0" stroke="#000000" stroke-width="0" stroke-linecap="square" stroke-linejoin="bevel" d="M75.9353 0.530719C49.0444 -3.29513 8.9935 13.8676 0.665473 42.2039C0.203841 42.8573 17.1789 49.2445 23.6557 49.1499C27.4571 39.2985 32.6373 37.9254 43.1397 37.2947C70.5023 39.6854 61.0403 62.5323 44.1094 67.343C27.4566 68.2005 23.8348 55.8559 23.6078 49.2421C20.2529 48.5411 3.76899 45.3581 0.628275 42.0325C-3.23165 71.383 11.578 77.1005 20.9292 81.1229C14.1856 83.6068 8.89453 81.8952 6.75967 85.8745C4.85336 89.4278 7.73287 98.2572 12.0727 104.565C16.5976 117.105 25.5195 109.021 29.0484 107.938C27.4724 116.057 18.8999 114.663 20.2927 145.126C22.4679 144.957 24.0217 144.679 24.9539 144.606C24.9898 140.993 26.7167 132.958 28.5059 130.066C29.9568 133.311 29.8238 143.254 29.8899 144.917C31.0456 144.94 32.9719 144.979 35.6686 145.033C35.6162 143.379 38.5295 130.595 39.5533 130.588C39.6338 132.216 40.7403 141.072 40.9279 144.871C43.4348 144.848 48.1429 144.832 47.3533 144.663C47.3932 143.013 49.4197 130.214 50.5349 129.725C50.5445 131.349 52.8298 140.91 52.8523 144.698C55.4262 144.806 58.4804 144.566 59.5835 144.612C59.5122 142.95 60.6078 132.772 61.9475 129.357C63.9174 133.097 64.9539 142.964 64.8951 144.533C65.9685 144.546 69.4595 144.25 71.9641 144.28C71.9821 140.518 73.0875 129.342 74.8168 129.254C74.8065 100.936 73.9864 100.788 73.9773 95.1413C58.8332 99.989 58.9996 93.8922 74.4765 76.851C75.3408 47.9923 75.827 22.5522 75.9353 0.530719Z" sodipodi:nodetypes="ccccccccccccccccccccccccccccc"/><path id="shape1" transform="matrix(1.08053691275174 0 0 1.16180387528233 32.1974976778723 67.314533394812)" fill="#ffffff" fill-rule="evenodd" stroke-opacity="0" stroke="#000000" stroke-width="0" stroke-linecap="square" stroke-linejoin="bevel" d="M0.27 0L7.8975 2.2275L10.0575 9.99L6.615 10.4625L0 6.5475C0 6.5475 0.09 4.365 0.27 0Z" sodipodi:nodetypes="cccccc"/><path id="shape2" transform="matrix(1 0 0 1.07190238493301 30.0662878717756 64.8366680856489)" fill="#ffffff" fill-rule="evenodd" stroke="none" stroke-width="5.4" stroke-linecap="square" stroke-linejoin="bevel" d="M0.261397 0.148747C12.21 -0.776784 20.5357 2.61681 25.2387 10.3295C6.70055 13.1062 -1.62522 9.71256 0.261397 0.148747Z" sodipodi:nodetypes="ccc"/><path id="shape01" transform="matrix(-1.11051692836318 0 0 1.2181658682572 192.482728312642 15.7406247330623)" fill="#ffffff" fill-rule="evenodd" stroke-opacity="0" stroke="#000000" stroke-width="0" stroke-linecap="square" stroke-linejoin="bevel" d="M75.9353 0.530718C49.0444 -3.29513 8.9935 13.8676 0.665475 42.2039C0.203843 42.8573 17.1789 49.2445 23.6557 49.1499C27.4571 39.2985 32.6373 37.9254 43.1397 37.2947C70.5023 39.6854 61.0403 62.5323 44.1094 67.343C27.4566 68.2005 23.8348 55.8559 23.6078 49.2421C20.2529 48.5411 3.76899 45.3581 0.628277 42.0325C-3.23165 71.383 11.578 77.1005 20.9292 81.1229C14.1856 83.6068 8.89453 81.8952 6.75967 85.8745C4.85336 89.4278 7.73287 98.2572 12.0727 104.565C16.5976 117.105 25.5195 109.021 29.0484 107.938C27.4724 116.057 18.8999 114.663 20.2927 145.126C22.4679 144.957 24.0217 144.679 24.9539 144.606C24.9898 140.993 26.2304 134.288 28.0196 131.396C29.4705 134.641 29.8238 143.254 29.8899 144.917C31.0456 144.94 32.9719 144.979 35.6686 145.033C35.6162 143.379 38.0432 131.925 39.067 131.918C39.1475 133.546 40.7403 141.072 40.9279 144.871C43.4348 144.848 48.1429 144.832 47.3533 144.663C47.3932 143.013 48.9334 131.544 50.0486 131.055C50.0582 132.679 52.8298 140.91 52.8523 144.698C55.4262 144.806 58.4804 144.566 59.5835 144.612C59.5122 142.95 60.1215 134.102 61.4612 130.687C63.4311 134.427 64.9539 142.964 64.8951 144.533C65.9685 144.546 69.4595 144.25 71.9641 144.28C71.9821 140.518 72.6012 130.672 74.3305 130.584C74.3202 102.266 73.9864 100.788 73.9773 95.1413C58.8332 99.989 58.9996 93.8922 74.4765 76.851C75.3408 47.9923 75.827 22.5522 75.9353 0.530718Z" sodipodi:nodetypes="ccccccccccccccccccccccccccccc"/><path id="shape11" transform="matrix(-1.08053691275174 0 0 1.16180387528233 189.627779565547 67.2425844780259)" fill="#ffffff" fill-rule="evenodd" stroke-opacity="0" stroke="#000000" stroke-width="0" stroke-linecap="square" stroke-linejoin="bevel" d="M0.27 0L7.8975 2.2275L10.0575 9.99L6.615 10.4625L0 6.5475C0 6.5475 0.09 4.365 0.27 0Z" sodipodi:nodetypes="cccccc"/><path id="shape21" transform="matrix(-1 0 0 1.07190238493301 191.758989911205 64.7647194191095)" fill="#ffffff" fill-rule="evenodd" stroke-opacity="0" stroke="#000000" stroke-width="0" stroke-linecap="square" stroke-linejoin="bevel" d="M0.261398 0.148747C12.21 -0.776784 20.5357 2.61681 25.2387 10.3295C6.70055 13.1062 -1.62522 9.71256 0.261398 0.148747Z" sodipodi:nodetypes="ccc"/><path id="shape3" transform="translate(99.3599987563316, 15.9299998006075)" fill="#ffffff" fill-rule="evenodd" stroke="none" stroke-width="5.4" stroke-linecap="square" stroke-linejoin="bevel" d="M0 0L22.95 0.27L20.25 95.85L8.64 95.04C7.02 95.04 4.14 63.36 0 0Z" sodipodi:nodetypes="ccccc"/><path id="shape4" transform="translate(93.2849988323713, 131.624998352478)" fill="#ffffff" fill-rule="evenodd" stroke="none" stroke-width="5.4" stroke-linecap="square" stroke-linejoin="bevel" d="M17.55 0L0 7.965L17.55 44.55L35.775 11.88C35.955 11.88 29.88 7.92 17.55 0Z" sodipodi:nodetypes="ccccc"/>
</svg>
