<?xml version="1.0" standalone="no"?>
<!DOCTYPE svg PUBLIC "-//W3C//DTD SVG 20010904//EN" "http://www.w3.org/TR/2001/REC-SVG-20010904/DTD/svg10.dtd">
<!-- Created using Krita: https://krita.org -->
<svg xmlns="http://www.w3.org/2000/svg" 
    xmlns:xlink="http://www.w3.org/1999/xlink"
    xmlns:krita="http://krita.org/namespaces/svg/krita"
    xmlns:sodipodi="http://sodipodi.sourceforge.net/DTD/sodipodi-0.dtd"
    width="216pt"
    height="216pt"
    viewBox="0 0 216 216">
<defs/>
<path id="shape1" transform="matrix(0.923149649420947 -0.0500004789963534 0.0497542157541613 0.927718866767639 75.7953967689501 57.0521147271409)" fill="#ffffff" fill-rule="evenodd" stroke-opacity="0" stroke="#000000" stroke-width="0" stroke-linecap="square" stroke-linejoin="bevel" d="M17.0755 0.834552C-9.21712 25.9443 -3.2288 70.5833 21.9731 58.2881C34.3117 51.5709 28.5033 -7.67733 17.0755 0.834552Z" sodipodi:nodetypes="ccc"/><path id="shape01" transform="matrix(-0.918413809566327 0.106338823998208 0.105815082144243 0.922959586421407 130.286301512269 51.2904270322184)" fill="#ffffff" fill-rule="evenodd" stroke-opacity="0" stroke="#000000" stroke-width="0" stroke-linecap="square" stroke-linejoin="bevel" d="M17.2819 0.619775C-9.10743 36.5296 -3.2133 68.2407 21.0511 57.9039C40.6043 49.5741 28.2799 -6.47901 17.2819 0.619775Z" sodipodi:nodetypes="csc"/><path id="shape02" transform="matrix(0.810437202980531 -0.447030111370924 0.444828390771572 0.814448539310005 43.678538809558 103.073736241257)" fill="#ffffff" fill-rule="evenodd" stroke-opacity="0" stroke="#000000" stroke-width="0" stroke-linecap="square" stroke-linejoin="bevel" d="M14.8586 0.454527C-10.3021 26.9874 -0.186811 52.5711 20.5895 44.7509C41.3659 36.9307 25.3445 -4.79058 14.8586 0.454527Z" sodipodi:nodetypes="czc"/><path id="shape03" transform="matrix(-0.922168969926649 0.0657850484157554 0.0654610427334936 0.926733333306534 164.832583407285 75.1248103581669)" fill="#ffffff" fill-rule="evenodd" stroke-opacity="0" stroke="#000000" stroke-width="0" stroke-linecap="square" stroke-linejoin="bevel" d="M15.562 0.521722C-9.17903 32.0066 -2.26858 63.0632 21.1973 53.0854C38.6358 45.6705 25.873 -5.70231 15.562 0.521722Z" sodipodi:nodetypes="csc"/><path id="shape04" transform="matrix(0.138037072005335 -0.918650652922279 0.914126098502568 0.138720299675181 44.656790622542 190.175945025872)" fill="#ffffff" fill-rule="evenodd" stroke-opacity="0" stroke="#000000" stroke-width="0" stroke-linecap="square" stroke-linejoin="bevel" d="M15.494 0.334972C-8.29827 20.4774 -3.27318 41.7208 20.9133 33.9625C36.1093 29.0882 25.4097 -3.64685 15.494 0.334972Z" sodipodi:nodetypes="csc"/><path id="shape2" transform="translate(82.7767093385492, 112.814453217506)" fill="#ffffff" fill-rule="evenodd" stroke-opacity="0" stroke="#000000" stroke-width="0" stroke-linecap="square" stroke-linejoin="bevel" d="M2.00328 37.0985C4.14439 27.9897 10.5444 2.64712 25.3133 0.55847C40.6919 -0.448508 45.8508 -3.21223 64.5533 26.3885C84.5616 44.6533 84.9516 56.4133 65.7233 61.6685C60.2767 68.7117 55.6267 73.1217 51.7733 74.8985C50.0315 75.1915 41.4817 78.8716 32.2433 75.3485C29.7792 79.0134 26.8216 81.2226 23.3705 81.9759C13.6186 85.7988 6.78884 82.7869 6.90828 76.226C7.01072 70.5992 10.1907 67.0517 16.4483 65.5835C34.8212 64.4394 45.5312 65.4744 52.7633 58.1585C58.1304 49.7239 60.1404 38.1622 58.7933 23.4732C43.5039 18.7275 32.4939 18.3643 25.7633 22.3835C12.8751 30.0798 9.81507 44.6148 16.5833 65.9885C13.6991 75.5177 12.2891 80.3627 12.3533 80.5235C7.43182 87.6624 -4.77839 65.9492 2.00328 37.0985Z" sodipodi:nodetypes="cccccccsccczccs"/><path id="shape3" transform="translate(87.7835235514232, 174.57291812207)" fill="#ffffff" fill-rule="evenodd" stroke-opacity="0" stroke="#000000" stroke-width="0" stroke-linecap="square" stroke-linejoin="bevel" d="M8.73566 20.3998C2.41625 21.9239 -0.474549 17.6446 0.0632731 7.56199C0.601096 -2.52066 6.71883 -2.52066 18.4165 7.56199C18.4165 7.56199 15.1895 11.8413 8.73566 20.3998Z" sodipodi:nodetypes="czcc"/><path id="shape05" transform="matrix(0.898535759248183 -0.218595010132524 0.226204973994103 0.900869881163734 75.0704316919417 30.7876492424029)" fill="#ffffff" fill-rule="evenodd" stroke-opacity="0" stroke="#000000" stroke-width="0" stroke-linecap="square" stroke-linejoin="bevel" d="M0.320589 21.394C-2.82643 5.28928 18.0471 -7.50126 25.6855 5.09472C22.481 -0.901199 9.48184 2.3145 13.1711 15.5699C16.4517 27.3573 2.24151 31.2243 0.320589 21.394Z" sodipodi:nodetypes="ccss"/><path id="shape06" transform="matrix(0.898535759248183 -0.218595010132524 0.226204973994103 0.900869881163734 75.0704318101054 30.7876479973437)" fill="#ffffff" fill-rule="evenodd" stroke-opacity="0" stroke="#000000" stroke-width="0" stroke-linecap="square" stroke-linejoin="bevel" d="M0.320589 21.394C-2.82643 5.28928 18.0471 -7.50126 25.6855 5.09472C22.481 -0.901198 9.48184 2.3145 13.1711 15.5699C16.4517 27.3573 2.24151 31.2243 0.320589 21.394Z" sodipodi:nodetypes="ccss"/><path id="shape07" transform="matrix(0.898535759248183 -0.218595010132524 0.226204973994103 0.900869881163734 99.8879089341964 25.4103980711735)" fill="#ffffff" fill-rule="evenodd" stroke-opacity="0" stroke="#000000" stroke-width="0" stroke-linecap="square" stroke-linejoin="bevel" d="M0.320589 21.394C-2.82643 5.28928 18.0471 -7.50126 25.6855 5.09472C22.481 -0.901199 9.48184 2.3145 13.1711 15.5699C16.4517 27.3573 2.24151 31.2243 0.320589 21.394Z" sodipodi:nodetypes="ccss"/><path id="shape08" transform="matrix(0.898535759248183 -0.218595010132524 0.226204973994103 0.900869881163734 136.848845596584 49.7103963186383)" fill="#ffffff" fill-rule="evenodd" stroke-opacity="0" stroke="#000000" stroke-width="0" stroke-linecap="square" stroke-linejoin="bevel" d="M0.320589 21.394C-2.82643 5.28928 18.0471 -7.50126 25.6855 5.09472C22.481 -0.901199 9.48184 2.3145 13.1711 15.5699C16.4517 27.3573 2.24151 31.2243 0.320589 21.394Z" sodipodi:nodetypes="ccss"/><path id="shape09" transform="matrix(0.898535759248183 -0.218595010132524 0.226204973994103 0.900869881163734 46.3988521199109 66.7203950918636)" fill="#ffffff" fill-rule="evenodd" stroke-opacity="0" stroke="#000000" stroke-width="0" stroke-linecap="square" stroke-linejoin="bevel" d="M0.320589 21.394C-2.82643 5.28928 18.0471 -7.50126 25.6855 5.09472C22.481 -0.901199 9.48184 2.3145 13.1711 15.5699C16.4517 27.3573 2.24151 31.2243 0.320589 21.394Z" sodipodi:nodetypes="ccss"/><path id="shape010" transform="matrix(0.630826217383725 -0.676171999245674 0.683813412292971 0.628597208246965 27.1919919772452 157.000996062247)" fill="#ffffff" fill-rule="evenodd" stroke-opacity="0" stroke="#000000" stroke-width="0" stroke-linecap="square" stroke-linejoin="bevel" d="M0.320589 21.394C-2.82643 5.28928 18.0471 -7.50126 25.6855 5.09472C22.481 -0.901199 9.48184 2.3145 13.1711 15.5699C16.4517 27.3573 2.24151 31.2243 0.320589 21.394Z" sodipodi:nodetypes="ccss"/><path id="shape0" transform="matrix(0.998754075525706 -0.0499028718691768 0.0499028718691768 0.998754075525706 96.659787551256 134.739170767335)" fill="none" stroke="#ffffff" stroke-width="1.44" stroke-linecap="square" stroke-linejoin="bevel" d="M21.8752 20.8174C30.7663 16.5316 26.1672 31.3574 16.456 27.5666C9.21564 24.7402 23.0024 9.25086 29.6661 15.455C36.7263 22.0282 22.5046 40.5157 12.0101 30.7246C4.29202 23.5238 20.46 1.28767 33.3918 11.7139C48.2016 23.6543 18.382 48.3505 8.26153 33.1093C-3.84539 14.8763 27.6358 -3.68072 36.5899 9.33817C54.1889 34.9265 16.4118 47.0951 5.89886 39.2844C-16.7901 22.4273 32.39 -27.2731 45.2415 19.6284" sodipodi:nodetypes="csssssssc"/>
</svg>
