<?xml version="1.0" standalone="no"?>
<!DOCTYPE svg PUBLIC "-//W3C//DTD SVG 20010904//EN" "http://www.w3.org/TR/2001/REC-SVG-20010904/DTD/svg10.dtd">
<!-- Created using Krita: https://krita.org -->
<svg xmlns="http://www.w3.org/2000/svg" 
    xmlns:xlink="http://www.w3.org/1999/xlink"
    xmlns:krita="http://krita.org/namespaces/svg/krita"
    xmlns:sodipodi="http://sodipodi.sourceforge.net/DTD/sodipodi-0.dtd"
    width="216pt"
    height="216pt"
    viewBox="0 0 216 216">
<defs/>
<path id="shape0" transform="translate(22.403327300051, 40.6817421104637)" fill="#ffffff" fill-rule="evenodd" stroke="none" stroke-width="36" stroke-linecap="square" stroke-linejoin="bevel" d="M54.0067 88.1083C18.1911 93.5421 0.191123 88.5021 0.00667241 72.9883C-1.2967 -36.6363 188.821 -15.7621 155.797 88.9183C143.006 99.3968 114.836 104.437 71.2867 104.038C59.2728 104.384 53.5128 99.0739 54.0067 88.1083Z" sodipodi:nodetypes="csccc"/><path id="shape1" transform="translate(109.96627294258, 113.997222698642)" fill="#ffffff" fill-rule="evenodd" stroke="#ffffff" stroke-width="1.152" stroke-linecap="square" stroke-linejoin="bevel" d="M1.27372 23.7028C-0.987383 33.4246 -4.7309 43.3935 35.0237 46.1128C60.0795 42.2438 59.8962 33.9209 61.2137 25.8628C49.4401 -3.16895 38.0101 -7.75895 26.9237 12.0928C23.4137 13.4428 23.4137 13.4428 1.27372 23.7028Z" sodipodi:nodetypes="ccccc"/><path id="shape2" transform="translate(98.3536193326031, 126.899729953349)" fill="#ffffff" fill-rule="evenodd" stroke="#ffffff" stroke-width="1.152" stroke-linecap="square" stroke-linejoin="bevel" d="M0.466376 12.6903C2.63803 23.2105 19.758 30.8405 26.9264 60.4803C25.2884 67.0863 28.2584 66.9963 35.8364 60.2103C28.5764 25.5903 22.7264 6.78026 18.2864 3.78026C8.29638 -2.96974 -2.37591 -1.07875 0.466376 12.6903Z" sodipodi:nodetypes="ccccs"/><path id="shape3" transform="translate(36.6300009947076, 78.7499995302405)" sodipodi:type="arc" sodipodi:rx="18.36" sodipodi:ry="17.64" sodipodi:cx="18.36" sodipodi:cy="17.64" sodipodi:start="6.28318530717959" sodipodi:end="6.28318530717959" sodipodi:open="true" d="M36.72 17.64C36.72 7.8977 28.4999 -3.55271e-15 18.36 0C8.22005 3.55271e-15 -7.10543e-15 7.8977 0 17.64C7.10543e-15 27.3823 8.22005 35.28 18.36 35.28C28.4999 35.28 36.72 27.3823 36.72 17.64Z" fill="none" stroke="#272727" stroke-width="1.152" stroke-linecap="square" stroke-linejoin="bevel"/><ellipse id="shape01" transform="translate(116.801204633042, 83.6999939634564)" rx="14.6793924128623" ry="13.8686075818858" cx="14.6793924128623" cy="13.8686075818858" fill="none" stroke="#272727" stroke-width="1.152" stroke-linecap="square" stroke-linejoin="bevel"/><ellipse id="shape02" transform="translate(65.141208358823, 59.7599956900377)" rx="9.90939275688035" ry="9.54860789344933" cx="9.90939275688035" cy="9.54860789344933" fill="none" stroke="#272727" stroke-width="1.152" stroke-linecap="square" stroke-linejoin="bevel"/><ellipse id="shape03" transform="translate(90.7022943651871, 71.9289256843699)" rx="9.90939275688035" ry="9.54860789344933" cx="9.90939275688035" cy="9.54860789344933" fill="none" stroke="#272727" stroke-width="1.152" stroke-linecap="square" stroke-linejoin="bevel"/><path id="shape4" transform="translate(76.8599944567653, 108)" fill="none" stroke="#272727" stroke-width="1.152" stroke-linecap="square" stroke-linejoin="miter" stroke-miterlimit="2" d="M0 21.06L25.02 0" sodipodi:nodetypes="cc"/><path id="shape5" transform="translate(101.879992652293, 104.759992444584)" fill="none" stroke="#272727" stroke-width="1.152" stroke-linecap="square" stroke-linejoin="miter" stroke-miterlimit="2" d="M0 3.24001L16.92 0" sodipodi:nodetypes="cc"/><path id="shape6" transform="translate(109.979992068111, 108)" fill="none" stroke="#272727" stroke-width="1.152" stroke-linecap="square" stroke-linejoin="miter" stroke-miterlimit="2" d="M0 0L1.62 13.32" sodipodi:nodetypes="cc"/><path id="shape7" transform="translate(111.599991951275, 119.699991367093)" fill="none" stroke="#272727" stroke-width="1.152" stroke-linecap="square" stroke-linejoin="miter" stroke-miterlimit="2" d="M0 2.16L21.24 0" sodipodi:nodetypes="cc"/><path id="shape8" transform="translate(129.95999062713, 47.9699965403465)" fill="none" stroke="#272727" stroke-width="1.152" stroke-linecap="square" stroke-linejoin="miter" stroke-miterlimit="2" d="M0 34.65L10.71 0" sodipodi:nodetypes="cc"/><path id="shape9" transform="translate(134.279990315567, 69.6599949760379)" fill="none" stroke="#272727" stroke-width="1.152" stroke-linecap="square" stroke-linejoin="miter" stroke-miterlimit="2" d="M0 0L44.1 18.18" sodipodi:nodetypes="cc"/><path id="shape10" transform="translate(147.059989393858, 56.7899959042375)" fill="none" stroke="#272727" stroke-width="1.152" stroke-linecap="square" stroke-linejoin="miter" stroke-miterlimit="2" d="M9 0L0 18.27" sodipodi:nodetypes="cc"/><path id="shape11" transform="translate(131.039990549239, 78.6599943269471)" fill="none" stroke="#272727" stroke-width="1.152" stroke-linecap="square" stroke-linejoin="miter" stroke-miterlimit="2" d="M25.56 0.54L0 0" sodipodi:nodetypes="cc"/><path id="shape12" transform="translate(73.6199941915468, 44.8649966797932)" fill="none" stroke="#272727" stroke-width="1.152" stroke-linecap="square" stroke-linejoin="miter" stroke-miterlimit="2" d="M64.08 10.215L0 0" sodipodi:nodetypes="cc"/><path id="shape13" transform="translate(96.8399930157839, 49.1399964559647)" fill="none" stroke="#272727" stroke-width="1.152" stroke-linecap="square" stroke-linejoin="miter" stroke-miterlimit="2" d="M0 0L3.96 22.86" sodipodi:nodetypes="cc"/><path id="shape14" transform="translate(83.33999398942, 73.7999946774561)" fill="none" stroke="#272727" stroke-width="1.152" stroke-linecap="square" stroke-linejoin="miter" stroke-miterlimit="2" d="M0 0L7.74 3.24" sodipodi:nodetypes="cc"/><path id="shape15" transform="translate(108, 60.4799956381104)" fill="none" stroke="#272727" stroke-width="1.152" stroke-linecap="square" stroke-linejoin="miter" stroke-miterlimit="2" d="M0 12.96L28.8 0" sodipodi:nodetypes="cc"/><path id="shape16" transform="translate(73.6199946904379, 86.219993781711)" fill="none" stroke="#272727" stroke-width="1.152" stroke-linecap="square" stroke-linejoin="miter" stroke-miterlimit="2" d="M0 5.58L18.18 0" sodipodi:nodetypes="cc"/><path id="shape17" transform="translate(70.1999949370924, 108)" fill="none" stroke="#272727" stroke-width="1.152" stroke-linecap="square" stroke-linejoin="miter" stroke-miterlimit="2" d="M0 0L16.02 13.14" sodipodi:nodetypes="cc"/><path id="shape18" transform="translate(42.8399969103282, 62.8199954693468)" fill="none" stroke="#272727" stroke-width="1.152" stroke-linecap="square" stroke-linejoin="miter" stroke-miterlimit="2" d="M2.34 18.36L0 0" sodipodi:nodetypes="cc"/><path id="shape19" transform="translate(101.519992678257, 116.909991568312)" fill="none" stroke="#272727" stroke-width="1.152" stroke-linecap="square" stroke-linejoin="miter" stroke-miterlimit="2" d="M0 27.54L64.53 0" sodipodi:nodetypes="cc"/><path id="shape20" transform="translate(145.259989523676, 102.599992600366)" fill="none" stroke="#272727" stroke-width="1.152" stroke-linecap="square" stroke-linejoin="miter" stroke-miterlimit="2" d="M0 0L20.79 13.77" sodipodi:nodetypes="cc"/><path id="shape21" transform="translate(167.129987946386, 87.7499936713658)" fill="none" stroke="#272727" stroke-width="1.152" stroke-linecap="square" stroke-linejoin="miter" stroke-miterlimit="2" d="M11.34 0L0 29.16" sodipodi:nodetypes="cc"/><path id="shape22" transform="translate(35.3699974490736, 111.239991977239)" fill="none" stroke="#272727" stroke-width="1.152" stroke-linecap="square" stroke-linejoin="miter" stroke-miterlimit="2" d="M9.18 0L0 17.28" sodipodi:nodetypes="cc"/><path id="shape23" transform="translate(120.149991334639, 134.99999026364)" fill="none" stroke="#272727" stroke-width="1.152" stroke-linecap="square" stroke-linejoin="miter" stroke-miterlimit="2" d="M0 1.62L49.41 0" sodipodi:nodetypes="cc"/><path id="shape24" transform="translate(65.0699953070743, 76.4099944892201)" fill="none" stroke="#272727" stroke-width="1.152" stroke-linecap="square" stroke-linejoin="miter" stroke-miterlimit="2" d="M3.24 0L0 4.32" sodipodi:nodetypes="cc"/><path id="shape25" transform="translate(108, 142.559989718403)" fill="none" stroke="#272727" stroke-width="1.152" stroke-linecap="square" stroke-linejoin="miter" stroke-miterlimit="2" d="M0 0L19.98 16.47" sodipodi:nodetypes="cc"/><path id="shape26" transform="translate(111.779991938294, 140.93998983524)" fill="none" stroke="#272727" stroke-width="1.152" stroke-linecap="square" stroke-linejoin="miter" stroke-miterlimit="2" d="M0 0L42.12 17.82" sodipodi:nodetypes="cc"/><path id="shape27" transform="translate(115.559991665676, 139.319989952076)" fill="none" stroke="#272727" stroke-width="1.152" stroke-linecap="square" stroke-linejoin="miter" stroke-miterlimit="2" d="M0 0L54 9.45" sodipodi:nodetypes="cc"/><ellipse id="shape28" transform="translate(46.2600001947272, 87.7500002141999)" rx="8.28" ry="8.3699961249286" cx="8.28" cy="8.3699961249286" fill="none" stroke="#272727" stroke-width="1.152" stroke-linecap="square" stroke-linejoin="bevel"/><ellipse id="shape04" transform="translate(125.800413008141, 90.9899934376934)" rx="5.94978853038603" ry="6.03820806578234" cx="5.94978853038603" cy="6.03820806578234" fill="none" stroke="#272727" stroke-width="1.152" stroke-linecap="square" stroke-linejoin="bevel"/>
</svg>
