<?xml version="1.0" standalone="no"?>
<!DOCTYPE svg PUBLIC "-//W3C//DTD SVG 20010904//EN" "http://www.w3.org/TR/2001/REC-SVG-20010904/DTD/svg10.dtd">
<!-- Created using Krita: https://krita.org -->
<svg xmlns="http://www.w3.org/2000/svg" 
    xmlns:xlink="http://www.w3.org/1999/xlink"
    xmlns:krita="http://krita.org/namespaces/svg/krita"
    xmlns:sodipodi="http://sodipodi.sourceforge.net/DTD/sodipodi-0.dtd"
    width="216pt"
    height="216pt"
    viewBox="0 0 216 216">
<defs/>
<path id="shape0" transform="translate(45.1196574726045, 15.8503276064259)" fill="#ffffff" fill-rule="evenodd" stroke="none" stroke-width="5.4" stroke-linecap="square" stroke-linejoin="bevel" d="M98.6553 25.0997C91.9082 21.8219 85.0682 20.3219 78.1353 20.5997C74.4536 20.7472 69.7259 17.0491 65.0403 21.0497C61.3302 25.1608 58.6152 28.7458 59.2353 29.6447C56.3163 35.3567 59.4963 46.7267 51.4953 44.3147C44.4489 43.8226 47.6439 33.5476 47.7153 27.1247C47.7635 22.7943 48.0485 22.5693 53.4303 16.5497C48.3606 16.1149 50.1306 14.8399 44.3403 18.1247C42.5085 21.1378 42.3285 21.2278 39.7503 27.5747C40.1626 34.1668 40.5826 40.3468 39.2553 42.3347C38.4675 43.5146 34.6506 45.493 31.7403 43.8197C29.1205 42.3134 30.0955 34.8734 29.2653 28.7897C24.2684 30.755 27.6284 43.52 24.9003 45.6197C21.6339 48.1337 17.0503 46.1513 16.5753 44.4947C15.6202 41.1635 14.7802 35.7035 14.0553 28.1147C8.4906 30.9802 6.4656 34.8502 3.93034 34.8647C2.80909 34.8711 -2.84591 30.2211 1.81534 23.7497C12.2083 13.8525 15.1933 14.3625 17.1603 12.1397C19.7597 9.2022 21.4704 5.24298 22.9203 4.84967C27.7709 3.53387 32.6964 5.88458 35.0703 4.93967C36.8816 4.21875 36.2241 3.07278 41.5503 0.979672C48.5343 0.547672 52.5243 -0.517328 65.0403 0.574672C113.566 -2.52715 129.796 7.83785 137.13 9.97967C140.71 11.025 135.688 28.6867 125.925 38.9597C121.75 43.3534 109.304 42.2388 94.9653 47.0597C90.7857 48.4649 80.7848 53.9867 77.1003 55.6097C73.4159 57.2326 67.0802 59.1888 66.4803 58.2197C64.9068 55.6775 64.5381 51.3478 70.1703 44.3147C72.1951 41.7863 89.376 37.6011 94.6953 31.8947C97.05 29.3686 98.37 27.1036 98.6553 25.0997Z" sodipodi:nodetypes="cscccscccsscsscscsssccsssssssc"/><ellipse id="shape1" transform="translate(82.4399989682242, 76.3199990448189)" rx="11.0700004922336" ry="11.0699998614537" cx="11.0700004922336" cy="11.0699998614537" fill="#ffffff" fill-rule="evenodd" stroke="none" stroke-width="5.4" stroke-linecap="square" stroke-linejoin="bevel"/><path id="shape2" transform="translate(80.9798340130192, 99.4863184418105)" fill="#ffffff" fill-rule="evenodd" stroke="none" stroke-width="5.4" stroke-linecap="square" stroke-linejoin="bevel" d="M2.31516 6.35368C12.5979 -1.19798 22.537 -1.01902 26.2102 1.76368C29.1358 3.98005 36.8155 8.94598 34.2202 21.0237C33.0671 26.3897 33.8668 47.2197 26.2102 43.8387C23.4166 42.6051 13.7506 23.6777 4.74516 22.0137C-0.234628 21.0935 -1.70303 9.30464 2.31516 6.35368Z" sodipodi:nodetypes="csssss"/><path id="shape3" transform="translate(100.898979409229, 156.059988744947)" fill="#ffffff" fill-rule="evenodd" stroke="none" stroke-width="5.4" stroke-linecap="square" stroke-linejoin="bevel" d="M0.00803094 2.9325C-0.279555 -0.704213 7.24922 -0.466945 7.72411 1.01007C8.80869 4.38329 16.4897 24.6706 13.5266 34.0992C13.0079 35.7498 8.7739 39.2004 3.89694 35.3809C0.177785 32.4681 1.01201 15.6285 0.00803094 2.9325Z" sodipodi:nodetypes="cssss"/><path id="shape01" transform="translate(120.009143170265, 152.819988978616)" fill="#ffffff" fill-rule="evenodd" stroke-opacity="0" stroke="#000000" stroke-width="0" stroke-linecap="square" stroke-linejoin="bevel" d="M0.00893504 3.01785C-0.311027 -0.724706 8.06532 -0.480533 8.59366 1.03946C9.80035 4.51085 18.346 25.3885 15.0494 35.0915C14.4723 36.7901 9.76164 40.3412 4.33563 36.4104C0.1978 33.4129 1.12594 16.0833 0.00893504 3.01785Z" sodipodi:nodetypes="cssss"/><ellipse id="shape02" transform="translate(74.7810002697703, 110.29499861961)" rx="6.01199932191369" ry="6.45749991918142" cx="6.01199932191369" cy="6.45749991918142" fill="#ffffff" fill-rule="evenodd" stroke-opacity="0" stroke="#000000" stroke-width="0" stroke-linecap="square" stroke-linejoin="bevel"/><ellipse id="shape03" transform="translate(104.995799650482, 101.542500080819)" rx="6.01199932191369" ry="6.45749991918142" cx="6.01199932191369" cy="6.45749991918142" fill="#ffffff" fill-rule="evenodd" stroke-opacity="0" stroke="#000000" stroke-width="0" stroke-linecap="square" stroke-linejoin="bevel"/><path id="shape04" transform="matrix(0.763384262152371 -0.645944632532917 0.645944632532917 0.763384262152371 113.106442881347 110.409196847895)" fill="#ffffff" fill-rule="evenodd" stroke-opacity="0" stroke="#000000" stroke-width="0" stroke-linecap="square" stroke-linejoin="bevel" d="M0.00434789 2.61499C-0.183612 0.544486 5.78346 -0.557112 6.09383 0.283799C6.80269 2.20428 11.8228 13.7545 9.88622 19.1225C9.54719 20.0622 6.77996 22.0268 3.59248 19.8522C1.16173 18.1938 0.660527 9.84325 0.00434789 2.61499Z" sodipodi:nodetypes="cssss"/><path id="shape05" transform="matrix(0.866714507621284 0.498804533137777 -0.498804533137777 0.866714507621284 141.209994024311 99.3599957953088)" fill="#ffffff" fill-rule="evenodd" stroke-opacity="0" stroke="#000000" stroke-width="0" stroke-linecap="square" stroke-linejoin="bevel" d="M0.00533052 1.59866C-0.185554 -0.383904 4.81166 -0.254556 5.12686 0.550641C5.84676 2.38957 10.945 13.4493 8.97827 18.5893C8.63397 19.4891 5.82367 21.3702 2.58659 19.288C0.118005 17.7001 0.671722 8.51994 0.00533052 1.59866Z" sodipodi:nodetypes="cssss"/><ellipse id="shape06" transform="translate(130.355998595218, 119.294995005348)" rx="4.07699570771794" ry="4.34249788236501" cx="4.07699570771794" cy="4.34249788236501" fill="#ffffff" fill-rule="evenodd" stroke-opacity="0" stroke="#000000" stroke-width="0" stroke-linecap="square" stroke-linejoin="bevel"/><path id="shape07" transform="matrix(-0.763384262152371 -0.645944632532917 -0.645944632532917 0.763384262152371 80.3594829835601 122.955601536429)" fill="#ffffff" fill-rule="evenodd" stroke-opacity="0" stroke="#000000" stroke-width="0" stroke-linecap="square" stroke-linejoin="bevel" d="M0.00307015 2.15476C-0.18489 0.0842592 8.31897 -0.462408 8.62934 0.378503C9.3382 2.29899 10.7751 14.531 8.83851 19.899C8.49948 20.8387 5.73225 22.8033 2.54477 20.6286C0.114018 18.9703 0.659249 9.38302 0.00307015 2.15476Z" sodipodi:nodetypes="cssss"/><path id="shape011" transform="matrix(-0.42731061670673 0.904104881553971 0.904104881553971 0.42731061670673 40.8930767594491 122.100665763195)" fill="#ffffff" fill-rule="evenodd" stroke-opacity="0" stroke="#000000" stroke-width="0" stroke-linecap="square" stroke-linejoin="bevel" d="M0.0053305 1.59866C-0.185554 -0.383904 4.81166 -0.254556 5.12686 0.550641C5.84676 2.38957 10.945 13.4493 8.97827 18.5893C8.63397 19.4891 5.82367 21.3702 2.58659 19.288C0.118005 17.7001 0.671722 8.51994 0.0053305 1.59866Z" sodipodi:nodetypes="cssss"/><ellipse id="shape021" transform="matrix(-1 0 0 1 65.0699953071492 133.109990400102)" rx="4.57040356266358" ry="5.0674552847915" cx="4.57040356266358" cy="5.0674552847915" fill="#ffffff" fill-rule="evenodd" stroke-opacity="0" stroke="#000000" stroke-width="0" stroke-linecap="square" stroke-linejoin="bevel"/><path id="shape4" transform="translate(28.7295999218629, 110.308445914871)" fill="#ffffff" fill-rule="evenodd" stroke="none" stroke-width="5.4" stroke-linecap="square" stroke-linejoin="bevel" d="M9.5429 13.6216C6.3929 10.7866 3.2429 7.95155 0.0928996 5.11655C-0.548665 0.210627 2.22769 -0.18986 5.4929 0.0540527L9.6779 6.06155L11.6354 1.87655L13.3904 11.1241C13.3904 11.1241 12.1079 11.9566 9.5429 13.6216Z" sodipodi:nodetypes="ccccccc"/><path id="shape08" transform="matrix(-1 0 0 1 155.159995138268 87.4034469653697)" fill="#ffffff" fill-rule="evenodd" stroke-opacity="0" stroke="#000000" stroke-width="0" stroke-linecap="square" stroke-linejoin="bevel" d="M9.5429 13.6216C6.3929 10.7866 3.2429 7.95155 0.0928997 5.11655C-0.548665 0.210627 2.22769 -0.18986 5.4929 0.0540526L9.6779 6.06155L11.6354 1.87655L13.3904 11.1241C13.3904 11.1241 12.1079 11.9566 9.5429 13.6216Z" sodipodi:nodetypes="ccccccc"/><ellipse id="shape09" transform="translate(100.7999976441, 136.529994702471)" rx="11.0700004922336" ry="11.0699998614537" cx="11.0700004922336" cy="11.0699998614537" fill="#ffffff" fill-rule="evenodd" stroke-opacity="0" stroke="#000000" stroke-width="0" stroke-linecap="square" stroke-linejoin="bevel"/><ellipse id="shape010" transform="matrix(0.2679870597539 0.963422511572394 -0.963422511572394 0.2679870597539 108.299241638245 184.058138504124)" rx="6.01199932191369" ry="6.45749991918142" cx="6.01199932191369" cy="6.45749991918142" fill="#ffffff" fill-rule="evenodd" stroke-opacity="0" stroke="#000000" stroke-width="0" stroke-linecap="square" stroke-linejoin="bevel"/><path id="shape012" transform="matrix(0.417740496334955 -0.908566385973986 -0.908566385973986 -0.417740496334955 97.8666928188523 192.825452036197)" fill="#ffffff" fill-rule="evenodd" stroke-opacity="0" stroke="#000000" stroke-width="0" stroke-linecap="square" stroke-linejoin="bevel" d="M0.00307016 2.15476C-0.18489 0.0842591 8.31897 -0.462408 8.62934 0.378503C9.3382 2.29899 10.7751 14.531 8.83851 19.899C8.49948 20.8387 5.73225 22.8033 2.54477 20.6286C0.114018 18.9703 0.659249 9.38302 0.00307016 2.15476Z" sodipodi:nodetypes="cssss"/><ellipse id="shape013" transform="matrix(0.2679870597539 0.963422511572394 -0.963422511572394 0.2679870597539 128.098574433833 177.840210383018)" rx="6.01199932191369" ry="6.45749991918142" cx="6.01199932191369" cy="6.45749991918142" fill="#ffffff" fill-rule="evenodd" stroke-opacity="0" stroke="#000000" stroke-width="0" stroke-linecap="square" stroke-linejoin="bevel"/><path id="shape014" transform="matrix(0.417740496334955 -0.908566385973986 -0.908566385973986 -0.417740496334955 117.666025515397 186.60752386894)" fill="#ffffff" fill-rule="evenodd" stroke-opacity="0" stroke="#000000" stroke-width="0" stroke-linecap="square" stroke-linejoin="bevel" d="M0.00307016 2.15476C-0.18489 0.084259 8.31897 -0.462408 8.62934 0.378503C9.3382 2.29899 10.7751 14.531 8.83851 19.899C8.49948 20.8387 5.73225 22.8033 2.54477 20.6286C0.114018 18.9703 0.659249 9.38302 0.00307016 2.15476Z" sodipodi:nodetypes="cssss"/><path id="shape5" transform="translate(64.1720635917466, 175.049997809181)" fill="#ffffff" fill-rule="evenodd" stroke="none" stroke-width="5.4" stroke-linecap="square" stroke-linejoin="bevel" d="M12.5079 0C20.7113 0.151048 17.3451 6.62875 16.3779 8.64C12.7479 10.1771 6.59794 12.87 2.96794 14.13C1.617 14.6233 -1.99235 11.0534 1.43794 8.55C2.93189 6.13616 6.62189 3.28616 12.5079 0Z" sodipodi:nodetypes="ccccc"/><path id="shape6" transform="translate(15.1199993601564, 64.2599972806647)" fill="#ffffff" fill-rule="evenodd" stroke="none" stroke-width="5.4" stroke-linecap="square" stroke-linejoin="bevel" d="M24.3 0L19.98 39.96L6.48 32.4L18.09 99.9L0 26.73L15.93 30.24C15.93 30.24 18.72 20.16 24.3 0Z" sodipodi:nodetypes="ccccccc"/><path id="shape015" transform="matrix(-0.954350938424389 -0.298687606586705 -0.298687606586705 0.954350938424389 190.349991944826 85.3199963894541)" fill="#ffffff" fill-rule="evenodd" stroke-opacity="0" stroke="#000000" stroke-width="0" stroke-linecap="square" stroke-linejoin="bevel" d="M24.4575 0L20.1095 33.1769L6.52199 26.9002L18.2072 82.9422L0 22.1926L16.0332 25.1068C16.0332 25.1068 18.8413 16.7379 24.4575 0Z" sodipodi:nodetypes="ccccccc"/>
</svg>
