<?xml version="1.0" standalone="no"?>
<!DOCTYPE svg PUBLIC "-//W3C//DTD SVG 20010904//EN" "http://www.w3.org/TR/2001/REC-SVG-20010904/DTD/svg10.dtd">
<!-- Created using Krita: https://krita.org -->
<svg xmlns="http://www.w3.org/2000/svg" 
    xmlns:xlink="http://www.w3.org/1999/xlink"
    xmlns:krita="http://krita.org/namespaces/svg/krita"
    xmlns:sodipodi="http://sodipodi.sourceforge.net/DTD/sodipodi-0.dtd"
    width="216pt"
    height="216pt"
    viewBox="0 0 216 216">
<defs/>
<path id="shape0" transform="translate(18.988216799505, 18.9505027354933)" fill="#ffffff" fill-rule="evenodd" stroke="none" stroke-width="5.4" stroke-linecap="square" stroke-linejoin="bevel" d="M6.21178 39.2345C25.0055 32.8401 48.6755 50.9301 59.4018 49.4945C59.7858 47.3868 59.203 41.5976 58.8549 38.5845C58.8435 38.4863 64.3708 38.8137 68.5132 38.266C68.0705 40.2254 74.9448 54.0602 77.3391 52.7158C78.2681 52.6117 79.3879 49.9977 80.6984 44.8741C83.814 50.0759 85.6491 52.5878 86.2037 52.4099C87.657 51.9439 88.893 48.9996 89.9118 43.5772L95.4735 50.904C99.3907 44.7151 97.8584 38.5345 98.7098 33.6594L93.7397 43.0351L88.2976 36.3756L85.1109 43.7758L80.1597 38.3272L76.4933 44.5667C72.6734 41.9671 69.8602 39.8215 68.0537 38.13C63.222 36.5941 59.1727 38.7365 58.9574 38.9765C57.7909 30.7629 55.7504 21.2791 58.1866 16.5163C60.9318 17.8825 78.4301 27.407 79.0959 21.8298C75.7524 43.5082 60.311 18.9515 57.7818 16.5545C60.5903 1.28957 73.5447 -1.66622 83.8932 0.749233C85.3736 1.09476 86.8006 1.55019 88.137 2.09523C89.3791 2.62279 90.5553 3.23141 91.6395 3.90749C94.6788 5.80282 96.9948 8.22834 98.0118 10.8845C94.8512 13.1467 91.0524 25.3131 87.2457 21.8085C88.9356 34.5143 98.6275 31.0437 98.0417 10.889C102.424 13.6752 106.788 35.5822 108.812 41.9345C119.819 52.0034 135.524 24.4184 140.942 20.3345C161.446 0.232555 184.066 103.966 152.912 132.834C148.317 117.801 146.406 118.88 141.842 111.774C139.379 126.474 140.81 129.16 129.242 136.884C130.243 128.319 127.835 116.287 118.982 115.464C116.56 136.107 106.77 164.26 64.2618 182.064C82.5171 144.664 74.8656 133.299 77.0418 124.284C71.9842 128.335 71.4592 136.327 61.6518 141.114C61.9159 130.947 59.2695 123.361 54.8118 120.954C46.6963 133.651 47.0004 136.301 33.4818 140.394C33.2433 133.318 38.3693 124.607 33.6618 118.884C20.6473 130.812 11.1373 136.392 5.13178 135.624C18.2178 87.5105 -12.4722 46.2005 6.21178 39.2345Z" sodipodi:nodetypes="cccccccccccccccccccccccccccccccccccccccc"/><path id="shape1" transform="translate(77.759996709277, 53.8649977204887)" fill="#ffffff" fill-rule="evenodd" stroke="none" stroke-width="5.4" stroke-linecap="square" stroke-linejoin="bevel" d="M0 0L0.315 7.2L8.28 6.75L9.945 1.98C9.795 1.83 6.48 1.17 0 0Z" sodipodi:nodetypes="ccccc"/><path id="shape2" transform="translate(76.8149967492733, 31.184998680285)" fill="#ffffff" fill-rule="evenodd" stroke="none" stroke-width="5.4" stroke-linecap="square" stroke-linejoin="bevel" d="M1.44 0L4.41 2.7L0.81 4.95L1.395 9.27L0 8.775L0.27 4.725C0.27 4.725 0.66 3.15 1.44 0Z" sodipodi:nodetypes="ccccccc"/><path id="shape3" transform="translate(113.804991792244, 27.8099979943088)" fill="#ffffff" fill-rule="evenodd" stroke="none" stroke-width="5.4" stroke-linecap="square" stroke-linejoin="bevel" d="M0.855 0L0 3.285L2.52 3.015L3.78 8.775L5.4 7.785L3.375 1.935C3.375 1.935 2.535 1.29 0.855 0Z" sodipodi:nodetypes="ccccccc"/>
</svg>
