<?xml version="1.0" standalone="no"?>
<!DOCTYPE svg PUBLIC "-//W3C//DTD SVG 20010904//EN" "http://www.w3.org/TR/2001/REC-SVG-20010904/DTD/svg10.dtd">
<!-- Created using Krita: https://krita.org -->
<svg xmlns="http://www.w3.org/2000/svg" 
    xmlns:xlink="http://www.w3.org/1999/xlink"
    xmlns:krita="http://krita.org/namespaces/svg/krita"
    xmlns:sodipodi="http://sodipodi.sourceforge.net/DTD/sodipodi-0.dtd"
    width="216pt"
    height="216pt"
    viewBox="0 0 216 216">
<defs/>
<path id="shape0" transform="matrix(0.718857983685947 0 0 0.788541117640693 50.9951945466006 38.4655707432956)" fill="#ffffff" fill-rule="evenodd" stroke-opacity="0" stroke="#000000" stroke-width="0" stroke-linecap="square" stroke-linejoin="bevel" d="M81.7218 61.1521C73.5822 59.968 68.2303 59.8813 58.8732 62.4272C57.4406 62.817 54.5318 52.1448 44.2387 41.1206C35.8078 33.8235 25.9483 35.4181 20.9958 16.967C24.3318 3.56013 41.0931 13.4924 47.1395 22.0009C56.0972 21.5956 35.4378 -15.5441 11.1036 7.57459C2.2104 23.2217 10.1997 30.9958 23.6163 46.4739C36.6826 55.0647 41.3769 72.9431 35.1971 80.3497C27.2461 85.6609 21.3333 81.1337 20.9369 79.3486C13.2741 72.0383 22.599 66.7305 23.5417 58.4973C22.6792 52.9894 15.9415 46.8895 6.67749 41.4973C5.55203 43.3097 12.8385 48.5235 13.4347 59.223C13.7793 65.4073 0.979236 71.3999 0.128085 78.066C-1.21197 88.5612 8.42203 100.18 7.65696 102.825C7.20272 103.479 23.906 109.866 30.2791 109.771C34.8291 101.472 39.5162 99.4811 49.4512 97.9161C76.3757 100.307 72.6474 128.178 55.9875 132.988C38.3612 134.088 26.0354 117.341 30.232 109.864C26.9308 109.163 10.7108 105.98 7.62035 102.654C3.82223 132.004 18.3948 137.722 27.5963 141.744C20.9606 144.228 15.7543 142.517 13.6536 146.496C11.7778 150.049 14.6112 158.879 18.8815 165.186C23.3339 177.726 32.1131 169.642 35.5855 168.559C34.0347 176.678 25.5995 175.284 26.97 205.747C29.1103 205.578 30.6393 205.3 31.5565 205.227C31.5919 201.614 33.2911 193.579 35.0516 190.687C36.4793 193.932 36.3485 203.875 36.4135 205.538C37.5507 205.561 39.4462 205.6 42.0997 205.654C42.0481 204 44.9148 191.216 45.9222 191.209C46.0014 192.837 47.0902 201.693 47.2748 205.492C49.7416 205.469 54.3743 205.453 53.5973 205.284C53.6366 203.634 55.6306 190.835 56.728 190.346C56.7374 191.97 58.9862 201.531 59.0083 205.319C61.541 205.427 64.5463 205.187 65.6317 205.233C65.5616 203.571 66.6396 193.393 67.9579 189.978C69.8962 193.718 70.9162 203.585 70.8583 205.154C71.9145 205.167 75.3496 204.871 77.8141 204.901C77.8318 201.139 78.9195 189.963 80.6211 189.875C80.611 161.557 79.8041 161.409 79.7951 155.763C64.8935 160.61 65.0572 154.514 80.2863 137.472C81.1368 108.614 81.6152 83.1736 81.7218 61.1521Z" sodipodi:nodetypes="ccccccccccccccccccccccccccccccccccccccccc"/><path id="shape1" transform="matrix(0.699451369502156 0 0 0.752056965448475 57.87679697351 119.606208438868)" fill="#ffffff" fill-rule="evenodd" stroke-opacity="0" stroke="#000000" stroke-width="0" stroke-linecap="square" stroke-linejoin="bevel" d="M0.27 0L7.8975 2.2275L10.0575 9.99L6.615 10.4625L0 6.5475C0 6.5475 0.09 4.365 0.27 0Z" sodipodi:nodetypes="cccccc"/><path id="shape2" transform="matrix(0.647318348172765 0 0 0.693862081217284 56.7593891512606 119.050896447982)" fill="#ffffff" fill-rule="evenodd" stroke-opacity="0" stroke="#000000" stroke-width="0" stroke-linecap="square" stroke-linejoin="bevel" d="M0.253475 0.122593C11.8399 -0.640204 19.9133 2.1567 24.4737 8.51332C6.49745 10.8017 -1.57596 8.00482 0.253475 0.122593Z" sodipodi:nodetypes="ccc"/><path id="shape01" transform="matrix(-0.718857983685947 0 0 0.788541117640693 166.243205453399 26.4442106465979)" fill="#ffffff" fill-rule="evenodd" stroke-opacity="0" stroke="#000000" stroke-width="0" stroke-linecap="square" stroke-linejoin="bevel" d="M82.497 76.6137C74.3496 75.4357 76.9936 73.4513 67.6801 75.9665C65.7797 76.4797 56.9037 73.7658 49.5902 61.7499C51.0867 52.9982 62.7458 42.7214 62.8318 34.6181C61.7503 22.8653 52.5145 9.58021 39.2442 1.43857C18.0562 -6.66875 -7.86475 21.6801 32.9798 31.9019C34.0986 29.8713 36.7261 27.7294 28.7276 23.2712C20.0156 19.9952 20.5756 3.89401 37.5043 13.01C44.6046 17.7601 45.7041 21.0416 49.0756 30.7154C53.4417 41.0823 42.9012 44.5232 28.684 56.5398C20.0417 71.081 44.0776 77.9927 39.0387 93.2099C29.0916 99.7702 25.7733 93.5392 27.6527 87.5756C27.3537 74.0661 20.7164 69.4623 10.2 62.4723C6.42654 53.3117 11.3097 46.6646 12.8196 44.4987C5.50278 42.5868 -2.08993 59.1214 0.528043 67.3439C3.45899 71.6843 7.62492 71.8523 13.8784 78.1287C18.6491 93.2749 14.0654 93.0585 12.4245 103.43C8.0222 111.978 7.48361 116.77 8.68248 118.743C8.22824 119.397 24.6812 125.327 31.0543 125.233C35.6043 116.933 40.2914 114.943 50.2264 113.378C77.1509 115.768 73.4226 143.639 56.7627 148.45C39.1364 149.55 26.8106 132.802 31.0072 125.325C27.706 124.624 11.4859 122.126 8.39548 118.8C4.59735 148.151 19.17 153.183 28.3715 157.206C21.7358 159.69 16.5294 157.978 14.4287 161.957C12.5529 165.511 15.3863 174.34 19.6567 180.648C24.1091 193.188 32.8883 185.104 36.3607 184.021C34.8099 192.14 26.3747 190.746 27.7452 221.209C29.8855 221.04 31.4145 220.762 32.3317 220.689C32.3671 217.076 34.0663 209.041 35.8268 206.149C37.2545 209.394 37.1237 219.337 37.1887 221C38.3259 221.023 40.2214 221.062 42.8749 221.116C42.8233 219.462 45.69 206.678 46.6974 206.671C46.7766 208.299 47.8654 217.155 48.05 220.954C50.5168 220.931 55.1495 220.915 54.3725 220.746C54.4118 219.096 56.4058 206.297 57.5032 205.808C57.5126 207.432 59.7614 216.993 59.7835 220.781C62.3162 220.889 65.3215 220.649 66.4069 220.695C66.3368 219.033 67.4148 208.855 68.7331 205.44C70.6714 209.18 71.6914 219.047 71.6335 220.616C72.6897 220.629 76.1248 220.333 78.5893 220.363C78.607 216.601 79.6947 205.425 81.3963 205.337C81.3862 177.019 80.5793 176.871 80.5703 171.224C65.6687 176.072 65.8324 169.975 81.0615 152.934C81.912 124.075 82.3904 98.6352 82.497 76.6137Z" sodipodi:nodetypes="ccccccccccccccccccccccccccccccccccccccccccccc"/><path id="shape11" transform="matrix(-0.699451369502156 0 0 0.752056965448475 158.444400489528 119.77694115147)" fill="#ffffff" fill-rule="evenodd" stroke-opacity="0" stroke="#000000" stroke-width="0" stroke-linecap="square" stroke-linejoin="bevel" d="M0.27 0L7.8975 2.2275L10.0575 9.99L6.615 10.4625L0 6.5475C0 6.5475 0.09 4.365 0.27 0Z" sodipodi:nodetypes="cccccc"/><path id="shape21" transform="matrix(-0.647318348172765 0 0 0.693862081217284 160.370537661597 118.892723643466)" fill="#ffffff" fill-rule="evenodd" stroke-opacity="0" stroke="#000000" stroke-width="0" stroke-linecap="square" stroke-linejoin="bevel" d="M0.266415 0.128851C12.4443 -0.672886 20.9299 2.2668 25.7231 8.94791C6.82914 11.3531 -1.65641 8.41346 0.266415 0.128851Z" sodipodi:nodetypes="ccc"/><path id="shape3" transform="matrix(0.647318348172765 0 0 0.647318348172765 98.5558973347249 161.555969866218)" fill="#ffffff" fill-rule="evenodd" stroke-opacity="0" stroke="#000000" stroke-width="0" stroke-linecap="square" stroke-linejoin="bevel" d="M0 9.54L15.3 0L31.14 18.54L15.12 42.48C15.12 42.48 10.08 31.5 0 9.54Z" sodipodi:nodetypes="ccccc"/><path id="shape4" transform="matrix(0.647318348172765 0 0 0.647318348172765 83.1841903260926 19.8610041195773)" fill="#ffffff" fill-rule="evenodd" stroke-opacity="0" stroke="#000000" stroke-width="0" stroke-linecap="square" stroke-linejoin="bevel" d="M20.2758 104.35C22.0259 104.332 17.1596 95.2324 19.476 75.5749C20.9734 62.8674 30.9422 56.0666 38.6471 42.1391C49.7869 24.686 48.7778 23.1355 40.4924 12.6897C22.1245 3.59842 -0.463253 24.5421 26.105 35.3634C21.8942 45.4426 -10.5975 35.3044 3.53976 12.2293C16.488 -1.19164 62.8692 -12.3555 60.2611 28.8237C58.5122 41.9957 39.1943 72.95 40.1399 86.3601C41.4252 104.586 51.2068 103.263 53.1768 103.245L44.8068 195.045L37.2468 198.555C35.6268 198.555 26.2158 167.71 20.2758 104.35Z" sodipodi:nodetypes="cccccccccccc"/>
</svg>
