<?xml version="1.0" standalone="no"?>
<!DOCTYPE svg PUBLIC "-//W3C//DTD SVG 20010904//EN" "http://www.w3.org/TR/2001/REC-SVG-20010904/DTD/svg10.dtd">
<!-- Created using Krita: https://krita.org -->
<svg xmlns="http://www.w3.org/2000/svg" 
    xmlns:xlink="http://www.w3.org/1999/xlink"
    xmlns:krita="http://krita.org/namespaces/svg/krita"
    xmlns:sodipodi="http://sodipodi.sourceforge.net/DTD/sodipodi-0.dtd"
    width="216pt"
    height="216pt"
    viewBox="0 0 216 216">
<defs/>
<path id="shape0" transform="matrix(1.35948644350446 0.00235598921003474 -0.00265157812641257 1.2079355159029 89.6802910084547 108.126979112169)" fill="#ffffff" fill-rule="evenodd" stroke="none" stroke-width="5.4" stroke-linecap="square" stroke-linejoin="bevel" d="M13.1879 0L0 26.275L14.5067 54.8258L28.4481 26.6888Z" sodipodi:nodetypes="ccccc"/><path id="shape1" transform="translate(117.449999600094, 33.7499985717628)" fill="#ffffff" fill-rule="evenodd" stroke="none" stroke-width="5.4" stroke-linecap="square" stroke-linejoin="bevel" d="M0 80.3614C32.8257 75.9206 51.7153 -10.4298 78.84 1.04989C73.7572 24.9621 69.208 49.617 67.0297 59.8651C55.6448 62.7168 27.9427 106.902 0 80.3614Z" sodipodi:nodetypes="cccc"/><path id="shape01" transform="matrix(-1 0 0 1 98.5500036316629 34.8299921195159)" fill="#ffffff" fill-rule="evenodd" stroke-opacity="0" stroke="#000000" stroke-width="0" stroke-linecap="square" stroke-linejoin="bevel" d="M0 80.3614C32.8257 75.9206 51.7153 -10.4298 78.84 1.0499C73.7572 24.9621 69.208 49.617 67.0297 59.8651C55.6448 62.7168 27.9427 106.902 0 80.3614Z" sodipodi:nodetypes="cccc"/><path id="shape02" transform="matrix(1 0 0 -1 119.87999966624 155.342692362393)" fill="#ffffff" fill-rule="evenodd" stroke-opacity="0" stroke="#000000" stroke-width="0" stroke-linecap="square" stroke-linejoin="bevel" d="M0 39.9055C16.3004 37.7003 25.6805 -5.17918 39.15 0.521353C36.626 12.3956 34.367 24.6386 33.2853 29.7275C27.6318 31.1436 13.8757 53.0849 0 39.9055Z" sodipodi:nodetypes="cccc"/><path id="shape03" transform="matrix(-1 0 0 -1 95.4450045343708 156.782963561343)" fill="#ffffff" fill-rule="evenodd" stroke-opacity="0" stroke="#000000" stroke-width="0" stroke-linecap="square" stroke-linejoin="bevel" d="M0 39.9055C16.3004 37.7003 25.6805 -5.17918 39.15 0.521353C36.626 12.3956 34.367 24.6386 33.2853 29.7275C27.6318 31.1436 13.8757 53.0849 0 39.9055Z" sodipodi:nodetypes="cccc"/><path id="shape04" transform="matrix(1.37790301529152 0.00284794280077963 -0.00268749829255131 1.46016426631724 87.9417863438341 64.4321171943799)" fill="#ffffff" fill-rule="evenodd" stroke-opacity="0" stroke="#000000" stroke-width="0" stroke-linecap="square" stroke-linejoin="bevel" d="M14.537 0L0 13.1277L14.5067 26.9006L28.4481 13.3273Z" sodipodi:nodetypes="ccccc"/><path id="shape2" transform="matrix(1 0 0 -1 22.4099990516513 51.2999978290813)" fill="none" stroke-opacity="0.733333333333333" stroke="#000000" stroke-width="0.72" stroke-linecap="square" stroke-linejoin="miter" stroke-miterlimit="2" d="M0 0C6.21 1.8 12.42 3.6 18.63 5.4" sodipodi:nodetypes="cc"/><path id="shape05" transform="translate(31.6997987621955, 48.7637979509574)" fill="none" stroke-opacity="0.733333333333333" stroke="#000000" stroke-width="0.72" stroke-linecap="square" stroke-linejoin="miter" stroke-miterlimit="2" d="M0 0L5.3802 16.3962" sodipodi:nodetypes="cc"/><ellipse id="shape3" transform="translate(31.8599999887358, 65.6999991777138)" rx="7.55999971163664" ry="7.20000043705073" cx="7.55999971163664" cy="7.20000043705073" fill="none" stroke-opacity="0.788235294117647" stroke="#000000" stroke-width="0.72" stroke-linecap="square" stroke-linejoin="bevel"/><path id="shape06" transform="translate(43.1999987914485, 53.0999978099322)" fill="none" stroke-opacity="0.733333333333333" stroke="#000000" stroke-width="0.72" stroke-linecap="square" stroke-linejoin="miter" stroke-miterlimit="2" d="M0 13.23L3.33 0" sodipodi:nodetypes="cc"/><path id="shape07" transform="translate(46.8899972861437, 75.4199960895371)" fill="none" stroke-opacity="0.733333333333333" stroke="#000000" stroke-width="0.72" stroke-linecap="square" stroke-linejoin="miter" stroke-miterlimit="2" d="M0 0L23.13 15.57" sodipodi:nodetypes="cc"/><path id="shape08" transform="translate(42.2099976236672, 86.4899953106367)" fill="none" stroke-opacity="0.733333333333333" stroke="#000000" stroke-width="0.72" stroke-linecap="square" stroke-linejoin="miter" stroke-miterlimit="2" d="M0 15.57L20.79 0" sodipodi:nodetypes="cc"/><ellipse id="shape09" transform="translate(58.6880096010712, 98.0999929249881)" rx="6.47599261611145" ry="5.94000394426559" cx="6.47599261611145" cy="5.94000394426559" fill="none" stroke-opacity="0.788235294117647" stroke="#000000" stroke-width="0.72" stroke-linecap="square" stroke-linejoin="bevel"/><ellipse id="shape010" transform="translate(61.928009238655, 128.924990726016)" rx="6.83599490757719" ry="6.41250374993804" cx="6.83599490757719" cy="6.41250374993804" fill="none" stroke-opacity="0.788235294117647" stroke="#000000" stroke-width="0.72" stroke-linecap="square" stroke-linejoin="bevel"/><ellipse id="shape011" transform="translate(157.688009767489, 80.3240106366325)" rx="7.55999971163664" ry="7.20000043705073" cx="7.55999971163664" cy="7.20000043705073" fill="none" stroke-opacity="0.788235294117647" stroke="#000000" stroke-width="0.72" stroke-linecap="square" stroke-linejoin="bevel"/><ellipse id="shape012" transform="translate(165.068009675123, 59.984010891203)" rx="7.55999971163664" ry="7.20000043705073" cx="7.55999971163664" cy="7.20000043705073" fill="none" stroke-opacity="0.788235294117647" stroke="#000000" stroke-width="0.72" stroke-linecap="square" stroke-linejoin="bevel"/><ellipse id="shape013" transform="translate(36.1224183934456, 69.6599991281523)" rx="3.17879053744251" ry="3.28000757321302" cx="3.17879053744251" cy="3.28000757321302" fill="none" stroke-opacity="0.788235294117647" stroke="#000000" stroke-width="0.72" stroke-linecap="square" stroke-linejoin="bevel"/><path id="shape014" transform="translate(44.4257976312845, 88.3637953106367)" fill="none" stroke-opacity="0.733333333333333" stroke="#000000" stroke-width="0.72" stroke-linecap="square" stroke-linejoin="miter" stroke-miterlimit="2" d="M0 15.57L20.79 0" sodipodi:nodetypes="cc"/><path id="shape015" transform="translate(69.5915975474947, 108)" fill="none" stroke-opacity="0.733333333333333" stroke="#000000" stroke-width="0.72" stroke-linecap="square" stroke-linejoin="miter" stroke-miterlimit="2" d="M16.47 14.1876L0 0" sodipodi:nodetypes="cc"/><path id="shape016" transform="translate(70.9415966105724, 114.897594267073)" fill="none" stroke-opacity="0.733333333333333" stroke="#000000" stroke-width="0.72" stroke-linecap="square" stroke-linejoin="miter" stroke-miterlimit="2" d="M0 14.13L6.57 0" sodipodi:nodetypes="cc"/><path id="shape017" transform="translate(48.0815975779637, 101.340000281838)" fill="none" stroke-opacity="0.733333333333333" stroke="#000000" stroke-width="0.72" stroke-linecap="square" stroke-linejoin="miter" stroke-miterlimit="2" d="M0 0L10.71 0.18" sodipodi:nodetypes="cc"/><ellipse id="shape018" transform="translate(63.6624180487617, 130.814998362752)" rx="5.15879051266159" ry="4.7875075543451" cx="5.15879051266159" cy="4.7875075543451" fill="none" stroke-opacity="0.788235294117647" stroke="#000000" stroke-width="0.72" stroke-linecap="square" stroke-linejoin="bevel"/><path id="shape019" transform="matrix(1 0 0 -1 73.7999946775155 122.93999113352)" fill="none" stroke-opacity="0.733333333333333" stroke="#000000" stroke-width="0.72" stroke-linecap="square" stroke-linejoin="miter" stroke-miterlimit="2" d="M0 0L10.8072 1.49039" sodipodi:nodetypes="cc"/><path id="shape020" transform="translate(73.839598424237, 99.9449927919294)" fill="none" stroke-opacity="0.733333333333333" stroke="#000000" stroke-width="0.72" stroke-linecap="square" stroke-linejoin="miter" stroke-miterlimit="2" d="M0 11.7846L2.9754 0" sodipodi:nodetypes="cc"/><path id="shape021" transform="matrix(0.900782501704954 0.434270520093372 -0.434270520093372 0.900782501704954 62.5647375789477 139.414065169113)" fill="none" stroke-opacity="0.733333333333333" stroke="#000000" stroke-width="0.72" stroke-linecap="square" stroke-linejoin="miter" stroke-miterlimit="2" d="M0 11.7846L2.9754 0" sodipodi:nodetypes="cc"/><path id="shape022" transform="matrix(0.990968622695108 -0.134093955246915 0.134093955246915 0.990968622695108 60.7915927607142 143.283219451826)" fill="none" stroke-opacity="0.733333333333333" stroke="#000000" stroke-width="0.72" stroke-linecap="square" stroke-linejoin="miter" stroke-miterlimit="2" d="M0 11.7846L2.9754 0" sodipodi:nodetypes="cc"/><path id="shape023" transform="translate(155.519988783843, 94.1605134247855)" fill="none" stroke-opacity="0.733333333333333" stroke="#000000" stroke-width="0.72" stroke-linecap="square" stroke-linejoin="miter" stroke-miterlimit="2" d="M0 22.3445L8.65368 0" sodipodi:nodetypes="cc"/><path id="shape024" transform="translate(158.219988589118, 94.9567635513567)" fill="none" stroke-opacity="0.733333333333333" stroke="#000000" stroke-width="0.72" stroke-linecap="square" stroke-linejoin="miter" stroke-miterlimit="2" d="M0 20.0632L7.94585 0" sodipodi:nodetypes="cc"/><path id="shape025" transform="translate(172.426372644702, 88.9930855959687)" fill="none" stroke-opacity="0.733333333333333" stroke="#000000" stroke-width="0.72" stroke-linecap="square" stroke-linejoin="miter" stroke-miterlimit="2" d="M0 0L11.9958 4.5068" sodipodi:nodetypes="cc"/><path id="shape026" transform="translate(178.951372174117, 51.379886861681)" fill="none" stroke-opacity="0.733333333333333" stroke="#000000" stroke-width="0.72" stroke-linecap="square" stroke-linejoin="miter" stroke-miterlimit="2" d="M0 11.3332L14.4258 0" sodipodi:nodetypes="cc"/><path id="shape027" transform="translate(169.617223559831, 73.5198838487298)" fill="none" stroke-opacity="0.733333333333333" stroke="#000000" stroke-width="0.72" stroke-linecap="square" stroke-linejoin="miter" stroke-miterlimit="2" d="M2.49415 11.4232L0 0" sodipodi:nodetypes="cc"/><path id="shape028" transform="translate(137.731373859457, 87.9368)" fill="none" stroke-opacity="0.733333333333333" stroke="#000000" stroke-width="0.72" stroke-linecap="square" stroke-linejoin="miter" stroke-miterlimit="2" d="M0 13.0432L20.1858 0" sodipodi:nodetypes="cc"/><ellipse id="shape029" transform="translate(162.205700926947, 84.3840199187653)" rx="3.17879053744251" ry="3.28000757321302" cx="3.17879053744251" cy="3.28000757321302" fill="none" stroke-opacity="0.788235294117647" stroke="#000000" stroke-width="0.72" stroke-linecap="square" stroke-linejoin="bevel"/><path id="shape030" transform="translate(144.539989575725, 97.3799929769207)" fill="none" stroke-opacity="0.733333333333333" stroke="#000000" stroke-width="0.72" stroke-linecap="square" stroke-linejoin="miter" stroke-miterlimit="2" d="M0 0L15.48 7.2" sodipodi:nodetypes="cc"/><path id="shape031" transform="translate(172.079987589531, 47.8799965468778)" fill="none" stroke-opacity="0.733333333333333" stroke="#000000" stroke-width="0.72" stroke-linecap="square" stroke-linejoin="miter" stroke-miterlimit="2" d="M0 0L15.6096 8.1936" sodipodi:nodetypes="cc"/><ellipse id="shape032" transform="translate(134.501494123173, 119.704992842736)" rx="3.17879053744251" ry="3.28000757321302" cx="3.17879053744251" cy="3.28000757321302" fill="none" stroke-opacity="0.788235294117647" stroke="#000000" stroke-width="0.72" stroke-linecap="square" stroke-linejoin="bevel"/><ellipse id="shape033" transform="translate(139.262412459673, 125.270004167024)" rx="6.47599261611145" ry="5.94000394426559" cx="6.47599261611145" cy="5.94000394426559" fill="none" stroke-opacity="0.788235294117647" stroke="#000000" stroke-width="0.72" stroke-linecap="square" stroke-linejoin="bevel"/><path id="shape034" transform="matrix(1 0 0 -1 131.939998348682 106.199998670836)" fill="none" stroke-opacity="0.733333333333333" stroke="#000000" stroke-width="0.72" stroke-linecap="square" stroke-linejoin="miter" stroke-miterlimit="2" d="M0 0L27.36 1.08" sodipodi:nodetypes="cc"/><path id="shape035" transform="translate(126.17279845907, 111.124798614515)" fill="none" stroke-opacity="0.733333333333333" stroke="#000000" stroke-width="0.72" stroke-linecap="square" stroke-linejoin="miter" stroke-miterlimit="2" d="M0 0L8.8272 9.1152" sodipodi:nodetypes="cc"/><path id="shape036" transform="matrix(0.558601403592774 0.829436237395128 0.829436237395128 -0.558601403592774 138.27566196468 123.099815015987)" fill="none" stroke-opacity="0.733333333333333" stroke="#000000" stroke-width="0.72" stroke-linecap="square" stroke-linejoin="miter" stroke-miterlimit="2" d="M0 0L10.2771 1.77052" sodipodi:nodetypes="cc"/><path id="shape037" transform="matrix(0.558601403592774 0.829436237395128 0.829436237395128 -0.558601403592774 142.38061840771 140.563061416939)" fill="none" stroke-opacity="0.733333333333333" stroke="#000000" stroke-width="0.72" stroke-linecap="square" stroke-linejoin="miter" stroke-miterlimit="2" d="M0 0L11.9393 9.31965" sodipodi:nodetypes="cc"/><path id="shape038" transform="matrix(0.558601403592774 0.829436237395128 0.829436237395128 -0.558601403592774 143.439952124383 143.204293610064)" fill="none" stroke-opacity="0.733333333333333" stroke="#000000" stroke-width="0.72" stroke-linecap="square" stroke-linejoin="miter" stroke-miterlimit="2" d="M0 0L11.9393 9.31965" sodipodi:nodetypes="cc"/><path id="shape039" transform="matrix(0.558601403592774 0.829436237395128 0.829436237395128 -0.558601403592774 151.379993593905 128.24999457272)" fill="none" stroke-opacity="0.733333333333333" stroke="#000000" stroke-width="0.72" stroke-linecap="square" stroke-linejoin="miter" stroke-miterlimit="2" d="M0 0L1.40596 1.72512" sodipodi:nodetypes="cc"/><ellipse id="shape040" transform="matrix(1.37790563617271 0 0 1.46016704366588 94.2619423055706 74.7531985755891)" rx="6.15550006402285" ry="6.15597710270468" cx="6.15550006402285" cy="6.15597710270468" fill="none" stroke-opacity="0.788235294117647" stroke="#000000" stroke-width="0.72" stroke-linecap="square" stroke-linejoin="bevel"/><ellipse id="shape041" transform="matrix(1.37790563617271 0 0 1.46016704366588 98.4163250338961 78.9584792014017)" rx="3.17879053744251" ry="3.28000757321302" cx="3.17879053744251" cy="3.28000757321302" fill="none" stroke-opacity="0.788235294117647" stroke="#000000" stroke-width="0.72" stroke-linecap="square" stroke-linejoin="bevel"/><path id="shape042" transform="matrix(1.28832175052476 0.385702561023982 -0.434093870106229 1.14470402099596 118.919468543708 125.573441901286)" fill="none" stroke-opacity="0.733333333333333" stroke="#000000" stroke-width="0.72" stroke-linecap="square" stroke-linejoin="miter" stroke-miterlimit="2" d="M0 0L3.43001 15.91" sodipodi:nodetypes="cc"/><ellipse id="shape043" transform="matrix(1.35948902935587 0 0 1.20793781349239 102.69044781545 143.936904054041)" rx="6.47599261611145" ry="5.94000394426559" cx="6.47599261611145" cy="5.94000394426559" fill="none" stroke-opacity="0.788235294117647" stroke="#000000" stroke-width="0.72" stroke-linecap="square" stroke-linejoin="bevel"/><path id="shape044" transform="matrix(1.35948902935587 0 0 1.20793781349239 104.632030536147 111.78157896279)" fill="none" stroke-opacity="0.733333333333333" stroke="#000000" stroke-width="0.72" stroke-linecap="square" stroke-linejoin="miter" stroke-miterlimit="2" d="M0 0L4.455 26.865" sodipodi:nodetypes="cc"/><path id="shape045" transform="matrix(1.37790563617271 0 0 1.46016704366588 111.597373274956 81.888968509037)" fill="none" stroke-opacity="0.733333333333333" stroke="#000000" stroke-width="0.72" stroke-linecap="square" stroke-linejoin="miter" stroke-miterlimit="2" d="M0 0L9.855 3.915" sodipodi:nodetypes="cc"/><path id="shape046" transform="matrix(0.831881771119087 0.55495289789294 -0.55495289789294 0.831881771119087 137.429990088525 67.7699951124163)" fill="#ffffff" fill-rule="evenodd" stroke-opacity="0" stroke="#000000" stroke-width="0" stroke-linecap="square" stroke-linejoin="bevel" d="M5.69606 0L0 5.84284L5.68418 11.9728L11.1469 5.93168Z" sodipodi:nodetypes="ccccc"/><path id="shape047" transform="matrix(0.831881771119087 0.55495289789294 -0.55495289789294 0.831881771119087 129.329990672699 47.2499965923221)" fill="#ffffff" fill-rule="evenodd" stroke-opacity="0" stroke="#000000" stroke-width="0" stroke-linecap="square" stroke-linejoin="bevel" d="M8.80774 0L0 8.92258L8.78937 18.2836L17.2363 9.05825Z" sodipodi:nodetypes="ccccc"/><path id="shape048" transform="matrix(0.666622159283039 -0.569773746349927 0.593134619396881 0.658724088468023 79.6401817728939 155.512656541246)" fill="#ffffff" fill-rule="evenodd" stroke-opacity="0" stroke="#000000" stroke-width="0" stroke-linecap="square" stroke-linejoin="bevel" d="M5.69606 0L0 5.84284L5.68418 11.9728L11.1469 5.93168Z" sodipodi:nodetypes="ccccc"/><path id="shape0110" transform="matrix(0.666622159283039 -0.569773746349927 0.593134619396881 0.658724088468023 59.7383482491164 167.276786137623)" fill="#ffffff" fill-rule="evenodd" stroke-opacity="0" stroke="#000000" stroke-width="0" stroke-linecap="square" stroke-linejoin="bevel" d="M8.80774 0L0 8.92258L8.78937 18.2836L17.2363 9.05825Z" sodipodi:nodetypes="ccccc"/>
</svg>
