<?xml version="1.0" standalone="no"?>
<!DOCTYPE svg PUBLIC "-//W3C//DTD SVG 20010904//EN" "http://www.w3.org/TR/2001/REC-SVG-20010904/DTD/svg10.dtd">
<!-- Created using Krita: https://krita.org -->
<svg xmlns="http://www.w3.org/2000/svg" 
    xmlns:xlink="http://www.w3.org/1999/xlink"
    xmlns:krita="http://krita.org/namespaces/svg/krita"
    xmlns:sodipodi="http://sodipodi.sourceforge.net/DTD/sodipodi-0.dtd"
    width="216pt"
    height="216pt"
    viewBox="0 0 216 216">
<defs>
  <linearGradient id="gradient0" gradientUnits="objectBoundingBox" x1="0" y1="0" x2="1.4142135623731" y2="0" spreadMethod="pad">
   <stop stop-color="#ffffff" offset="0" stop-opacity="1"/>
   <stop stop-color="#6b6a7b" offset="1" stop-opacity="1"/>
  </linearGradient>
 </defs>
<path id="shape1" transform="matrix(0.923149649420947 -0.0500004789963534 0.0497542157541613 0.927718866767639 69.3153968500601 45.3791898566041)" fill="#ffffff" fill-rule="evenodd" stroke="none" stroke-width="0" stroke-linecap="square" stroke-linejoin="bevel" d="M17.0755 0.834552C-9.21712 25.9443 -3.2288 70.5833 21.9731 58.2881C34.3117 51.5709 28.5033 -7.67733 17.0755 0.834552Z" sodipodi:nodetypes="ccc"/><path id="shape01" transform="matrix(-0.918413809566327 0.106338823998208 0.105815082144243 0.922959586421407 124.61630158324 39.6175021616816)" fill="#ffffff" fill-rule="evenodd" stroke="none" stroke-width="0" stroke-linecap="square" stroke-linejoin="bevel" d="M17.2819 0.619775C-9.10743 36.5296 -3.2133 68.2407 21.0511 57.9039C40.6043 49.5741 28.2799 -6.47901 17.2819 0.619775Z" sodipodi:nodetypes="csc"/><path id="shape02" transform="matrix(0.810437202980531 -0.447030111370924 0.444828390771572 0.814448539310005 37.1954309164041 91.3951208951302)" fill="#ffffff" fill-rule="evenodd" stroke="none" stroke-width="0" stroke-linecap="square" stroke-linejoin="bevel" d="M14.8586 0.461514C-10.3021 26.9944 -0.186811 52.5781 20.5895 44.7579C40.8763 36.2329 25.3445 -4.78359 14.8586 0.461514Z" sodipodi:nodetypes="ccc"/><path id="shape03" transform="matrix(-0.922168969926649 0.0657850484157554 0.0654610427334936 0.926733333306534 158.352583488395 63.4518854876301)" fill="#ffffff" fill-rule="evenodd" stroke="none" stroke-width="0" stroke-linecap="square" stroke-linejoin="bevel" d="M15.562 0.521722C-9.17903 32.0066 -2.26858 63.0632 21.1973 53.0854C38.6358 45.6705 25.873 -5.70231 15.562 0.521722Z" sodipodi:nodetypes="csc"/><path id="shape04" transform="matrix(0.138037072005335 -0.918650652922279 0.914126098502568 0.138720299675181 38.1767907036519 178.503020155335)" fill="#ffffff" fill-rule="evenodd" stroke="none" stroke-width="0" stroke-linecap="square" stroke-linejoin="bevel" d="M15.494 0.334972C-8.29827 20.4774 -3.27318 41.7208 20.9133 33.9625C36.1093 29.0882 25.4097 -3.64685 15.494 0.334972Z" sodipodi:nodetypes="csc"/><path id="shape2" transform="translate(75.432423304233, 101.051528342731)" fill="#ffffff" fill-rule="evenodd" stroke="none" stroke-width="0" stroke-linecap="square" stroke-linejoin="bevel" d="M2.86757 37.0985C5.00868 27.9897 11.4087 2.64712 26.1776 0.55847C41.5562 -0.448508 46.7151 -3.21223 65.4176 26.3885C85.4259 44.6533 85.8159 56.4133 66.5876 61.6685C61.141 68.7117 56.491 73.1217 52.6376 74.8985C50.8958 75.1915 42.346 78.8716 33.1076 75.3485C30.6435 79.0134 27.6859 81.2226 24.2348 81.9759C17.7335 84.5245 11.4361 81.8879 5.34257 74.066C-0.828544 68.6548 -1.65354 56.3323 2.86757 37.0985Z" sodipodi:nodetypes="ccccccccs"/><path id="shape06" transform="matrix(0.898535759248183 -0.218595010132524 0.226204973994103 0.900869881163734 68.5904318912153 19.1147231268069)" fill="#ffffff" fill-rule="evenodd" stroke="none" stroke-width="0" stroke-linecap="square" stroke-linejoin="bevel" d="M0.320589 21.394C-2.82643 5.28928 18.0471 -7.50126 25.6855 5.09472C22.481 -0.901198 9.48184 2.3145 13.1711 15.5699C16.4517 27.3573 2.24153 31.2243 0.320589 21.394Z" sodipodi:nodetypes="ccss"/><path id="shape07" transform="matrix(0.898535759248183 -0.218595010132524 0.226204973994103 0.900869881163734 93.4079090153063 13.7374732006367)" fill="#ffffff" fill-rule="evenodd" stroke="none" stroke-width="0" stroke-linecap="square" stroke-linejoin="bevel" d="M0.320589 21.394C-2.82643 5.28928 18.0471 -7.50126 25.6855 5.09472C22.481 -0.901199 9.48184 2.3145 13.1711 15.5699C16.4517 27.3573 2.24151 31.2243 0.320589 21.394Z" sodipodi:nodetypes="ccss"/><path id="shape08" transform="matrix(0.898535759248183 -0.218595010132524 0.226204973994103 0.900869881163734 130.368845677694 38.0374714481015)" fill="#ffffff" fill-rule="evenodd" stroke="none" stroke-width="0" stroke-linecap="square" stroke-linejoin="bevel" d="M0.320589 21.394C-2.82643 5.28928 18.0471 -7.50126 25.6855 5.09472C22.481 -0.901199 9.48184 2.3145 13.1711 15.5699C16.4517 27.3573 2.24151 31.2243 0.320589 21.394Z" sodipodi:nodetypes="ccss"/><path id="shape09" transform="matrix(0.898535759248183 -0.218595010132524 0.226204973994103 0.900869881163734 39.9188522010208 55.0474702213268)" fill="#ffffff" fill-rule="evenodd" stroke="none" stroke-width="0" stroke-linecap="square" stroke-linejoin="bevel" d="M0.320589 21.394C-2.82643 5.28928 18.0471 -7.50126 25.6855 5.09472C22.481 -0.901199 9.48184 2.3145 13.1711 15.5699C16.4517 27.3573 2.24151 31.2243 0.320589 21.394Z" sodipodi:nodetypes="ccss"/><path id="shape010" transform="matrix(0.630826217383725 -0.676171999245674 0.683813412292971 0.628597208246965 20.7119920583552 145.32807119171)" fill="#ffffff" fill-rule="evenodd" stroke="url(#gradient0)" stroke-width="0" stroke-linecap="square" stroke-linejoin="bevel" d="M0.320589 21.394C-2.82643 5.28928 18.0471 -7.50126 25.6855 5.09472C22.481 -0.901199 9.48184 2.3145 13.1711 15.5699C16.4517 27.3573 2.24151 31.2243 0.320589 21.394Z" sodipodi:nodetypes="ccss"/><circle id="shape0" transform="matrix(1.00749375524964 0 0 1.00749375524964 46.8900000709704 155.366078331826)" r="7.2" cx="7.2" cy="7.2" fill="none" stroke="#3c3c3c" stroke-width="1.1520036" stroke-linecap="square" stroke-linejoin="bevel"/><ellipse id="shape11" transform="matrix(1.00749375524964 0 0 1.00749375524964 51.2423730391709 92.5286927590229)" rx="7.56" ry="6.84" cx="7.56" cy="6.84" fill="none" stroke="#3c3c3c" stroke-width="1.1520036" stroke-linecap="square" stroke-linejoin="bevel"/><ellipse id="shape011" transform="matrix(1.00749375524964 0 0 1.00749375524964 79.5856095979662 55.7495487774865)" rx="7.56" ry="6.84" cx="7.56" cy="6.84" fill="none" stroke="#3c3c3c" stroke-width="1.1520036" stroke-linecap="square" stroke-linejoin="bevel"/><ellipse id="shape021" transform="matrix(1.00749375524964 0 0 1.00749375524964 100.841290593086 55.0241532827864)" rx="7.56" ry="6.84" cx="7.56" cy="6.84" fill="none" stroke="#3c3c3c" stroke-width="1.1520036" stroke-linecap="square" stroke-linejoin="bevel"/><ellipse id="shape031" transform="matrix(1.00749375524964 0 0 1.00749375524964 136.61983036876 78.236809113189)" rx="7.56" ry="6.84" cx="7.56" cy="6.84" fill="none" stroke="#3c3c3c" stroke-width="1.1520036" stroke-linecap="square" stroke-linejoin="bevel"/><ellipse id="shape041" transform="matrix(1.58830424247604 0 0 1.75503215733492 88.3948384360162 130.859998324496)" rx="7.56" ry="6.84" cx="7.56" cy="6.84" fill="none" stroke="#3c3c3c" stroke-width="1.1520036" stroke-linecap="square" stroke-linejoin="bevel"/><ellipse id="shape061" transform="matrix(1.00749375524964 0 0 1.00749375524964 104.664566430611 107.740678459873)" rx="7.56" ry="6.84" cx="7.56" cy="6.84" fill="none" stroke="#3c3c3c" stroke-width="1.1520036" stroke-linecap="square" stroke-linejoin="bevel"/><ellipse id="shape071" transform="matrix(1.00749375524964 0 0 1.00749375524964 122.89012823495 140.111452410864)" rx="7.56" ry="6.84" cx="7.56" cy="6.84" fill="none" stroke="#3c3c3c" stroke-width="1.1520036" stroke-linecap="square" stroke-linejoin="bevel"/><path id="shape21" transform="matrix(1.00749375524964 0 0 1.00749375524964 117.978757888764 103.590972891003)" fill="none" stroke="#3c3c3c" stroke-width="1.1520036" stroke-linecap="square" stroke-linejoin="miter" stroke-miterlimit="2" d="M0 4.86L2.97 0" sodipodi:nodetypes="cc"/><path id="shape3" transform="matrix(1.00749375524964 0 0 1.00749375524964 136.114319694229 153.099215404284)" fill="none" stroke="#3c3c3c" stroke-width="1.1520036" stroke-linecap="square" stroke-linejoin="miter" stroke-miterlimit="2" d="M0 0L9.18 9.45" sodipodi:nodetypes="cc"/><path id="shape4" transform="matrix(1.00749375524964 0 0 1.00749375524964 101.385335947499 156.091471819922)" fill="none" stroke="#3c3c3c" stroke-width="1.1520036" stroke-linecap="square" stroke-linejoin="miter" stroke-miterlimit="2" d="M0 0L1.35 26.46" sodipodi:nodetypes="cc"/><path id="shape5" transform="matrix(1.00749375524964 0 0 1.00749375524964 147.341088912981 91.8980171667486)" fill="none" stroke="#3c3c3c" stroke-width="1.1520036" stroke-linecap="square" stroke-linejoin="miter" stroke-miterlimit="2" d="M0 0L3.51 24.03" sodipodi:nodetypes="cc"/><path id="shape6" transform="matrix(1.00749375524964 0 0 1.00749375524964 108.185920072261 69.0440124559118)" fill="none" stroke="#3c3c3c" stroke-width="1.1520036" stroke-linecap="square" stroke-linejoin="miter" stroke-miterlimit="2" d="M0 0L4.86 28.08" sodipodi:nodetypes="cc"/><path id="shape7" transform="matrix(1.00749375524964 0 0 1.00749375524964 86.1520305587977 70.4041290084744)" fill="none" stroke="#3c3c3c" stroke-width="1.1520036" stroke-linecap="square" stroke-linejoin="miter" stroke-miterlimit="2" d="M1.89 0L0 30.51" sodipodi:nodetypes="cc"/><path id="shape8" transform="matrix(1.00749375524964 0 0 1.00749375524964 64.3901657177951 104.679066133053)" fill="none" stroke="#3c3c3c" stroke-width="1.1520036" stroke-linecap="square" stroke-linejoin="miter" stroke-miterlimit="2" d="M0 0L7.29 15.12" sodipodi:nodetypes="cc"/><path id="shape9" transform="matrix(1.00749375524964 0 0 1.00749375524964 62.2139792336949 163.980147824785)" fill="none" stroke="#3c3c3c" stroke-width="1.1520036" stroke-linecap="square" stroke-linejoin="miter" stroke-miterlimit="2" d="M0 0L9.45 3.78" sodipodi:nodetypes="cc"/><path id="shape10" transform="matrix(1.00749375524964 0 0 1.00749375524964 57.5895829549818 166.156334308886)" fill="none" stroke="#3c3c3c" stroke-width="1.1520036" stroke-linecap="square" stroke-linejoin="miter" stroke-miterlimit="2" d="M8.91 0L0 15.66" sodipodi:nodetypes="cc"/><path id="shape111" transform="matrix(1.00749375524964 0 0 1.00749375524964 67.382422133433 98.1505066807527)" fill="none" stroke="#3c3c3c" stroke-width="1.1520036" stroke-linecap="square" stroke-linejoin="miter" stroke-miterlimit="2" d="M0 10.53L4.86 0" sodipodi:nodetypes="cc"/><path id="shape12" transform="matrix(1.00749375524964 0 0 1.00749375524964 52.1099993477593 115.832021864067)" fill="none" stroke="#3c3c3c" stroke-width="1.1520036" stroke-linecap="square" stroke-linejoin="miter" stroke-miterlimit="2" d="M17.0488 0L0 2.7" sodipodi:nodetypes="cc"/><path id="shape13" transform="matrix(1.00749375524964 0 0 1.00749375524964 102.47342918955 157.179565061972)" fill="none" stroke="#3c3c3c" stroke-width="1.1520036" stroke-linecap="square" stroke-linejoin="miter" stroke-miterlimit="2" d="M0 7.83L36.18 0" sodipodi:nodetypes="cc"/><path id="shape14" transform="matrix(1.00749375524964 0 0 1.00749375524964 88.3282170428979 171.052753898111)" fill="none" stroke="#3c3c3c" stroke-width="1.1520036" stroke-linecap="square" stroke-linejoin="miter" stroke-miterlimit="2" d="M12.69 0L0 11.34" sodipodi:nodetypes="cc"/><path id="shape15" transform="matrix(1.00749375524964 0 0 1.00749375524964 88.0561937323854 87.2695742602514)" fill="none" stroke="#3c3c3c" stroke-width="1.1520036" stroke-linecap="square" stroke-linejoin="miter" stroke-miterlimit="2" d="M0 0L9.18 2.43" sodipodi:nodetypes="cc"/><path id="shape16" transform="matrix(1.00749375524964 0 0 1.00749375524964 92.1365433900734 76.1166185292376)" fill="none" stroke="#3c3c3c" stroke-width="1.1520036" stroke-linecap="square" stroke-linejoin="miter" stroke-miterlimit="2" d="M0 11.34L1.08 0" sodipodi:nodetypes="cc"/><path id="shape17" transform="translate(92.8799988374365, 75.8699990503478)" fill="none" stroke="#3c3c3c" stroke-width="1.1520036" stroke-linecap="square" stroke-linejoin="miter" stroke-miterlimit="2" d="M0 0L3.78 0.27" sodipodi:nodetypes="cc"/><path id="shape18" transform="matrix(1.00749375524964 0 0 1.00749375524964 111.450198436463 79.3808982553879)" fill="none" stroke="#3c3c3c" stroke-width="1.1520036" stroke-linecap="square" stroke-linejoin="miter" stroke-miterlimit="2" d="M0 0L16.74 0.27" sodipodi:nodetypes="cc"/><path id="shape19" transform="matrix(1.00749375524964 0 0 1.00749375524964 116.618641336201 79.924944876413)" fill="none" stroke="#3c3c3c" stroke-width="1.1520036" stroke-linecap="square" stroke-linejoin="miter" stroke-miterlimit="2" d="M0 0L3.51 16.47" sodipodi:nodetypes="cc"/><path id="shape20" transform="matrix(1.00749375524964 0 0 1.00749375524964 134.572179830028 101.414786406903)" fill="none" stroke="#3c3c3c" stroke-width="1.1520036" stroke-linecap="square" stroke-linejoin="miter" stroke-miterlimit="2" d="M13.7349 0.327756L0 0" sodipodi:nodetypes="cc"/><path id="shape211" transform="matrix(0.523719762800828 -0.860674896182563 -0.860674896182563 -0.523719762800828 153.225202234897 83.282762276773)" fill="none" stroke="#3c3c3c" stroke-width="1.1520036" stroke-linecap="square" stroke-linejoin="miter" stroke-miterlimit="2" d="M0 2.19854L3.43656 0" sodipodi:nodetypes="cc"/><path id="shape22" transform="matrix(1.00749375524964 0 0 1.00749375524964 101.385335947499 48.3702408569594)" fill="none" stroke="#3c3c3c" stroke-width="1.1520036" stroke-linecap="square" stroke-linejoin="miter" stroke-miterlimit="2" d="M3.24 7.83L0 0" sodipodi:nodetypes="cc"/><path id="shape23" transform="matrix(1.00749375524964 0 0 1.00749375524964 81.2556109695721 50.0023807200346)" fill="none" stroke="#3c3c3c" stroke-width="1.1520036" stroke-linecap="square" stroke-linejoin="miter" stroke-miterlimit="2" d="M4.05 5.13L0 0" sodipodi:nodetypes="cc"/><path id="shape24" transform="matrix(1.00749375524964 0 0 1.00749375524964 55.1224748466882 83.8891928333783)" fill="none" stroke="#3c3c3c" stroke-width="1.1520036" stroke-linecap="square" stroke-linejoin="miter" stroke-miterlimit="2" d="M0 9.72L1.08 0" sodipodi:nodetypes="cc"/><path id="shape25" transform="matrix(1.00749375524964 0 0 1.00749375524964 50.219996378063 169.964660656061)" fill="none" stroke="#3c3c3c" stroke-width="1.1520036" stroke-linecap="square" stroke-linejoin="miter" stroke-miterlimit="2" d="M1.91477 0L0 6.56612" sodipodi:nodetypes="cc"/><path id="shape26" transform="matrix(1.00749375524964 0 0 1.00749375524964 107.641873451236 120.184394832268)" fill="none" stroke="#3c3c3c" stroke-width="1.1520036" stroke-linecap="square" stroke-linejoin="miter" stroke-miterlimit="2" d="M0 11.34L0 0" sodipodi:nodetypes="cc"/><path id="shape27" transform="matrix(1.00749375524964 0 0 1.00749375524964 107.641873451236 125.080814421493)" fill="none" stroke="#3c3c3c" stroke-width="1.1520036" stroke-linecap="square" stroke-linejoin="miter" stroke-miterlimit="2" d="M0 1.62L31.9785 0" sodipodi:nodetypes="cc"/><circle id="shape28" transform="translate(55.8900000304159, 97.739999993241)" r="2.16" cx="2.16" cy="2.16" fill="none" stroke="#3c3c3c" stroke-width="1.1520036" stroke-linecap="square" stroke-linejoin="bevel"/><circle id="shape29" transform="matrix(1.00749375524964 0 0 1.00749375524964 85.2452872618219 60.6112905927144)" r="2.16" cx="2.16" cy="2.16" fill="none" stroke="#3c3c3c" stroke-width="1.1520036" stroke-linecap="square" stroke-linejoin="bevel"/><circle id="shape081" transform="matrix(1.00749375524964 0 0 1.00749375524964 106.009733560922 60.0821941897103)" r="2.16" cx="2.16" cy="2.16" fill="none" stroke="#3c3c3c" stroke-width="1.1520036" stroke-linecap="square" stroke-linejoin="bevel"/><circle id="shape091" transform="matrix(1.00749375524964 0 0 1.00749375524964 142.385129233925 83.2041742050984)" r="2.16" cx="2.16" cy="2.16" fill="none" stroke="#3c3c3c" stroke-width="1.1520036" stroke-linecap="square" stroke-linejoin="bevel"/><circle id="shape0101" transform="translate(97.1248379808433, 139.604833312523)" r="2.16" cx="2.16" cy="2.16" fill="none" stroke="#3c3c3c" stroke-width="1.1520036" stroke-linecap="square" stroke-linejoin="bevel"/><circle id="shape0111" transform="matrix(1.00749375524964 0 0 1.00749375524964 110.558403784765 112.038643400759)" r="2.16" cx="2.16" cy="2.16" fill="none" stroke="#3c3c3c" stroke-width="1.1520036" stroke-linecap="square" stroke-linejoin="bevel"/><circle id="shape012" transform="matrix(1.00749375524964 0 0 1.00749375524964 128.783964486563 145.497508599497)" r="2.16" cx="2.16" cy="2.16" fill="none" stroke="#3c3c3c" stroke-width="1.1520036" stroke-linecap="square" stroke-linejoin="bevel"/><circle id="shape013" transform="matrix(1.00749375524964 0 0 1.00749375524964 52.0733954781205 160.458789802138)" r="2.16" cx="2.16" cy="2.16" fill="none" stroke="#3c3c3c" stroke-width="1.1520036" stroke-linecap="square" stroke-linejoin="bevel"/>
</svg>
