<?xml version="1.0" standalone="no"?>
<!DOCTYPE svg PUBLIC "-//W3C//DTD SVG 20010904//EN" "http://www.w3.org/TR/2001/REC-SVG-20010904/DTD/svg10.dtd">
<!-- Created using Krita: https://krita.org -->
<svg xmlns="http://www.w3.org/2000/svg" 
    xmlns:xlink="http://www.w3.org/1999/xlink"
    xmlns:krita="http://krita.org/namespaces/svg/krita"
    xmlns:sodipodi="http://sodipodi.sourceforge.net/DTD/sodipodi-0.dtd"
    width="216pt"
    height="216pt"
    viewBox="0 0 216 216">
<defs/>
<path id="shape0" transform="translate(19.5813252058322, 18.9505027354933)" fill="#ffffff" fill-rule="evenodd" stroke="none" stroke-width="5.4" stroke-linecap="square" stroke-linejoin="bevel" d="M5.66367 39.2345C24.4574 32.8401 48.1274 50.9301 58.8537 49.4945C59.2377 47.3868 58.6549 41.5976 58.3068 38.5845C58.2992 38.519 62.1936 38.8179 67.5601 38.131C69.7328 45.4355 73.3348 51.6021 75.531 53.5258C78.2745 56.5196 79.1537 56.1867 85.8356 56.8199C87.2889 56.3539 91.1888 56.1819 95.9154 53.604C98.6354 47.2065 104.177 34.0783 98.1617 33.6594C91.3162 38.4656 94.4696 49.3938 91.2116 49.1101C85.7413 48.6339 95.128 36.9618 88.4637 36.1734C87.9669 35.1548 86.8835 30.1067 86.5711 26.1432C86.5846 25.1807 90.1478 28.1574 90.933 27.7066C94.7469 25.5165 85.0807 19.1944 84.8637 19.2049C84.7791 19.209 78.2624 25.2223 80.7635 27.9854C82.7396 30.1685 85.4832 24.5775 86.4951 26.2297C86.4863 29.7311 87.0465 34.3128 88.4637 36.1956C80.7154 38.4564 88.5187 51.6228 84.7428 52.3258C76.8686 53.7919 87.2927 38.2515 79.6116 38.3272C75.5569 40.765 81.2818 47.5583 76.2152 46.0517C72.3438 44.9005 76.68 28.1176 67.5056 38.265C61.5849 38.6693 58.5528 38.8165 58.4093 38.9765C57.2428 30.7629 55.5623 21.7291 57.9985 16.9663C59.3283 17.8683 64.6927 14.3252 69.2752 10.6671C80.482 3.43983 81.1264 18.6258 69.9118 22.41C65.8413 22.8404 58.1847 17.456 57.2337 16.5545C60.0422 1.28957 72.9966 -1.66622 83.3451 0.749233C84.8255 1.09476 86.2525 1.55019 87.5888 2.09523C88.831 2.62279 90.0072 3.23141 91.0914 3.90749C94.1307 5.80282 96.4467 8.22834 97.4637 10.8845C96.8261 11.8614 95.7416 12.0213 94.411 11.4264C92.1973 8.48461 87.55 6.38519 86.5176 9.02852C86.811 11.6591 93.3919 26.7963 97.2849 17.1977C95.2416 11.9775 96.6083 11.5061 97.4936 10.889C101.876 13.6752 106.239 35.5822 108.264 41.9345C119.271 52.0034 134.976 24.4184 140.394 20.3345C157.071 3.98387 178.802 105.037 164.55 106.363C146.535 108.039 166.201 166.396 151.284 166.134C131.752 165.793 164.168 88.5055 140.394 81.8945C122.819 93.4633 142.018 147.616 128.694 146.064C122.147 145.302 141.348 79.1305 115.914 81.6245C115.873 102.395 128.493 164.245 64.6137 180.894C92.6646 152.494 86.0846 113.572 74.1537 119.604C64.6398 123.628 75.2865 162.715 58.7637 158.394C49.835 156.06 79.5865 100.604 56.0637 93.5945C43.9448 98.9236 39.3148 184.889 25.5087 174.009C16.7741 167.126 52.583 114.794 39.9537 87.0245C16.1594 81.124 20.9488 149.443 3.23368 150.204C-6.71085 150.632 9.13598 125.872 12.5892 116.023C17.9126 88.4349 -10.9345 45.4228 5.66367 39.2345Z" sodipodi:nodetypes="ccccccccsccscsccscsccccccccccccccccsscscccscscscc"/><path id="shape1" transform="translate(77.8274967044089, 53.8649977204887)" fill="#ffffff" fill-rule="evenodd" stroke="none" stroke-width="5.4" stroke-linecap="square" stroke-linejoin="bevel" d="M0 0L0.331391 7.2L8.71086 6.75L10.4625 1.98C10.3047 1.83 6.81719 1.17 0 0Z" sodipodi:nodetypes="ccccc"/><path id="shape2" transform="translate(76.4999944827748, 31.184998680285)" fill="#ffffff" fill-rule="evenodd" stroke="none" stroke-width="5.4" stroke-linecap="square" stroke-linejoin="bevel" d="M1.49223 0L8.79995 0.81C6.94558 4.26561 7.01992 2.54096 6.99668 5.94L9 11.79L0 8.775L0.279793 4.725C0.279793 4.725 0.683938 3.15 1.49223 0Z" sodipodi:nodetypes="ccccccc"/><path id="shape3" transform="translate(110.744992012933, 25.784998140351)" fill="#ffffff" fill-rule="evenodd" stroke="none" stroke-width="5.4" stroke-linecap="square" stroke-linejoin="bevel" d="M3.915 2.025L0 0L4.77 7.11L6.84 10.8L8.46 9.81L6.435 3.96C6.435 3.96 5.595 3.315 3.915 2.025Z" sodipodi:nodetypes="ccccccc"/><path id="shape4" transform="translate(102.824995648628, 44.7299981071058)" fill="#ffffff" fill-rule="evenodd" stroke="none" stroke-width="5.4" stroke-linecap="square" stroke-linejoin="bevel" d="M3.15 0L0 7.74L5.22 10.485L7.155 6.615C7.155 6.585 5.82 4.38 3.15 0Z" sodipodi:nodetypes="ccccc"/>
</svg>
