<?xml version="1.0" standalone="no"?>
<!DOCTYPE svg PUBLIC "-//W3C//DTD SVG 20010904//EN" "http://www.w3.org/TR/2001/REC-SVG-20010904/DTD/svg10.dtd">
<!-- Created using Krita: https://krita.org -->
<svg xmlns="http://www.w3.org/2000/svg" 
    xmlns:xlink="http://www.w3.org/1999/xlink"
    xmlns:krita="http://krita.org/namespaces/svg/krita"
    xmlns:sodipodi="http://sodipodi.sourceforge.net/DTD/sodipodi-0.dtd"
    width="216pt"
    height="216pt"
    viewBox="0 0 216 216">
<defs/>
<path id="shape0" transform="matrix(0.481668483637585 -0.160841340894946 0.316733146371613 0.948514688336384 109.797884259597 137.569961401839)" fill="none" stroke="#ffffff" stroke-width="3.6" stroke-linecap="square" stroke-linejoin="miter" stroke-miterlimit="2" d="M4.31999 0L0 2.43" sodipodi:nodetypes="cc"/><path id="shape1" transform="matrix(0.597605030204654 0.244885529010234 -0.26407010962384 0.644422014137495 112.956732883583 136.512814511607)" fill="none" stroke="#ffffff" stroke-width="3.6" stroke-linecap="square" stroke-linejoin="miter" stroke-miterlimit="2" d="M0 0L4.86 1.89" sodipodi:nodetypes="cc"/><path id="shape02" transform="matrix(0.810437202980531 -0.447030111370924 0.444828390771572 0.814448539310005 43.8058117335183 85.6889526590544)" fill="#ffffff" fill-rule="evenodd" stroke-opacity="0" stroke="#000000" stroke-width="0" stroke-linecap="square" stroke-linejoin="bevel" d="M0 4.17437C15.1783 18.1105 2.95317 50.2944 5.7309 48.4707C6.86228 47.728 9.23687 50.0006 11.7111 49.7373C15.3116 49.3541 19.0175 46.5067 18.5333 45.314C15.2548 37.2379 10.6943 10.6674 14.6082 3.16126C13.3297 2.44312 10.2361 -0.340235 7.07285 0.0345355C4.40077 0.351117 1.67414 3.7415 0 4.17437Z" sodipodi:nodetypes="cscsccc"/><path id="shape2" transform="translate(82.8039231329136, 101.345601788701)" fill="#ffffff" fill-rule="evenodd" stroke-opacity="0" stroke="#000000" stroke-width="0" stroke-linecap="square" stroke-linejoin="bevel" d="M1.84107 27.5794C3.44218 17.1206 3.90219 2.30805 18.6711 0.219397C34.0497 -0.787581 38.9386 0.498696 57.6411 30.0994C77.6494 48.3642 81.0094 56.8842 61.7811 62.1394C51.8572 62.0128 30.6364 60.4295 25.1961 70.9594C22.732 74.6243 19.6394 76.0235 16.7283 77.3168C6.97639 81.1397 2.03663 77.5878 2.15607 71.0269C2.25851 65.4001 3.54849 66.7126 9.80609 65.2444C11.787 65.1211 15.0403 58.6363 19.566 45.7901L22.9011 55.5649C35.0421 52.9 42.9621 50.9965 46.6611 49.8544C45.7155 46.9923 44.9046 43.122 44.2283 38.2437C47.5116 33.3526 49.7025 29.801 50.8011 27.5891C46.7873 26.8745 44.4036 27.2861 43.3801 25.8537C45.0836 20.8 34.1024 7.8463 20.0661 14.0794C8.43943 19.2425 7.27324 32.5989 12.8265 36.332C11.888 37.7966 10.7288 40.4626 9.34901 44.33C14.1291 44.9612 17.4984 45.2384 19.457 45.1617C15.2419 62.1373 9.38488 67.3016 2.51609 67.4044C3.88329 73.7472 6.74829 70.8972 6.79109 71.0044C1.86961 78.1433 -2.64374 56.8752 1.84107 27.5794Z" sodipodi:nodetypes="ccccccscccccccscccccs"/><path id="shape3" transform="translate(84.023323881779, 146.566983498322)" fill="#ffffff" fill-rule="evenodd" stroke-opacity="0" stroke="#000000" stroke-width="0" stroke-linecap="square" stroke-linejoin="bevel" d="M10.3359 28.6328C4.01645 30.1569 -0.494349 31.5476 0.0434727 21.465C0.581296 11.3823 6.56403 8.54735 18.8017 0C17.8567 2.565 16.7897 20.0743 10.3359 28.6328Z" sodipodi:nodetypes="czcc"/><path id="shape05" transform="matrix(0.898535759248183 -0.218595010132524 0.226204973994103 0.900869881163734 68.5904316548879 19.1147256169253)" fill="#ffffff" fill-rule="evenodd" stroke-opacity="0" stroke="#000000" stroke-width="0" stroke-linecap="square" stroke-linejoin="bevel" d="M0.320589 21.394C-2.82643 5.28928 18.0471 -7.50126 25.6855 5.09472C22.481 -0.9012 9.48184 2.3145 13.1711 15.5699C16.4517 27.3573 2.24151 31.2243 0.320589 21.394Z" sodipodi:nodetypes="ccss"/><path id="shape06" transform="matrix(0.898535759248183 -0.218595010132524 0.226204973994103 0.900869881163734 68.5904317730517 19.1147243718661)" fill="#ffffff" fill-rule="evenodd" stroke-opacity="0" stroke="#000000" stroke-width="0" stroke-linecap="square" stroke-linejoin="bevel" d="M0.320589 21.394C-2.82643 5.28928 18.0471 -7.50126 25.6855 5.09472C22.481 -0.901199 9.48184 2.3145 13.1711 15.5699C16.4517 27.3573 2.24151 31.2243 0.320589 21.394Z" sodipodi:nodetypes="ccss"/><path id="shape07" transform="matrix(0.898535759248183 -0.218595010132524 0.226204973994103 0.900869881163734 93.4079088971426 13.7374744456959)" fill="#ffffff" fill-rule="evenodd" stroke-opacity="0" stroke="#000000" stroke-width="0" stroke-linecap="square" stroke-linejoin="bevel" d="M0.320589 21.394C-2.82643 5.28928 18.0471 -7.50126 25.6855 5.09472C22.481 -0.9012 9.48184 2.3145 13.1711 15.5699C16.4517 27.3573 2.24151 31.2243 0.320589 21.394Z" sodipodi:nodetypes="ccss"/><path id="shape08" transform="matrix(0.898535759248183 -0.218595010132524 0.226204973994103 0.900869881163734 130.36884555953 38.0374726931607)" fill="#ffffff" fill-rule="evenodd" stroke-opacity="0" stroke="#000000" stroke-width="0" stroke-linecap="square" stroke-linejoin="bevel" d="M0.320589 21.394C-2.82643 5.28928 18.0471 -7.50126 25.6855 5.09472C22.481 -0.9012 9.48184 2.3145 13.1711 15.5699C16.4517 27.3573 2.24151 31.2243 0.320589 21.394Z" sodipodi:nodetypes="ccss"/><path id="shape09" transform="matrix(0.898535759248183 -0.218595010132524 0.226204973994103 0.900869881163734 39.9188520828571 55.0474714663861)" fill="#ffffff" fill-rule="evenodd" stroke-opacity="0" stroke="#000000" stroke-width="0" stroke-linecap="square" stroke-linejoin="bevel" d="M0.320589 21.394C-2.82643 5.28928 18.0471 -7.50126 25.6855 5.09472C22.481 -0.9012 9.48184 2.3145 13.1711 15.5699C16.4517 27.3573 2.24151 31.2243 0.320589 21.394Z" sodipodi:nodetypes="ccss"/><path id="shape010" transform="matrix(0.630826217383725 -0.676171999245674 0.683813412292971 0.628597208246965 20.7119926434255 145.328072297073)" fill="#ffffff" fill-rule="evenodd" stroke-opacity="0" stroke="#000000" stroke-width="0" stroke-linecap="square" stroke-linejoin="bevel" d="M0.320589 21.394C-2.82643 5.28928 18.0471 -7.50126 25.6855 5.09472C22.481 -0.9012 9.48184 2.3145 13.1711 15.5699C16.4517 27.3573 2.24151 31.2243 0.320589 21.394Z" sodipodi:nodetypes="ccss"/><path id="shape4" transform="translate(108.359999995494, 146.609989426257)" fill="none" stroke="#ffffff" stroke-width="2.16" stroke-linecap="square" stroke-linejoin="miter" stroke-miterlimit="2" d="M0 0L3.64499 16.335" sodipodi:nodetypes="cc"/><path id="shape5" transform="translate(115.424991707554, 144.94498963217)" fill="none" stroke="#ffffff" stroke-width="2.16" stroke-linecap="square" stroke-linejoin="miter" stroke-miterlimit="2" d="M0 0L4.185 14.085" sodipodi:nodetypes="cc"/><path id="shape6" transform="translate(121.90499120802, 142.829989698876)" fill="none" stroke="#ffffff" stroke-width="2.16" stroke-linecap="square" stroke-linejoin="miter" stroke-miterlimit="2" d="M0 0L3.375 12.15" sodipodi:nodetypes="cc"/><path id="shape021" transform="matrix(0.916709011876997 -0.127628241352404 0.12413756046532 0.919667650024914 73.1462081717218 52.047544059839)" fill="#ffffff" fill-rule="evenodd" stroke-opacity="0" stroke="#000000" stroke-width="0" stroke-linecap="square" stroke-linejoin="bevel" d="M0 4.17437C15.1783 18.1105 2.95317 50.2944 5.7309 48.4707C6.86228 47.728 9.23687 50.0006 11.7111 49.7373C15.3116 49.3541 19.0175 46.5067 18.5333 45.314C15.2548 37.2379 10.6943 10.6674 14.6082 3.16126C13.3297 2.44312 10.2361 -0.340235 7.07285 0.0345355C4.40077 0.351117 1.67414 3.7415 0 4.17437Z" sodipodi:nodetypes="cscsccc"/><path id="shape022" transform="matrix(0.923611486656752 0.059884907638837 -0.0639005789692699 0.925805290775561 101.011238696533 47.4064361664826)" fill="#ffffff" fill-rule="evenodd" stroke-opacity="0" stroke="#000000" stroke-width="0" stroke-linecap="square" stroke-linejoin="bevel" d="M0 4.17437C15.1783 18.1105 2.95317 50.2944 5.7309 48.4707C6.86228 47.728 9.23687 50.0006 11.7111 49.7373C15.3116 49.3541 19.0175 46.5067 18.5333 45.314C15.2548 37.2379 10.6943 10.6674 14.6082 3.16126C13.3297 2.44312 10.2361 -0.340235 7.07285 0.0345355C4.40077 0.351117 1.67414 3.7415 0 4.17437Z" sodipodi:nodetypes="cscsccc"/><path id="shape023" transform="matrix(0.923611486656752 0.059884907638837 -0.0639005789692699 0.925805290775561 134.904910031879 66.43436079422)" fill="#ffffff" fill-rule="evenodd" stroke-opacity="0" stroke="#000000" stroke-width="0" stroke-linecap="square" stroke-linejoin="bevel" d="M0 4.17437C15.1783 18.1105 2.95317 50.2944 5.7309 48.4707C6.86228 47.728 9.23687 50.0006 11.7111 49.7373C15.3116 49.3541 19.0175 46.5067 18.5333 45.314C15.2548 37.2379 10.6943 10.6674 14.6082 3.16126C13.3297 2.44312 10.2361 -0.340235 7.07285 0.0345355C4.40077 0.351117 1.67414 3.7415 0 4.17437Z" sodipodi:nodetypes="cscsccc"/><path id="shape024" transform="matrix(0.288013345094235 -0.951487767401693 0.460997381762084 0.14164166984383 45.253227281627 165.639924417478)" fill="#ffffff" fill-rule="evenodd" stroke-opacity="0" stroke="#000000" stroke-width="0" stroke-linecap="square" stroke-linejoin="bevel" d="M0.0252192 12.5691C0.535392 13.413 1.0202 14.3245 1.47987 15.2913C8.62083 30.3105 4.65875 67.0754 0.558432 62.6296C-0.359106 61.6347 9.75473 70.869 12.229 70.6057C15.8295 70.2226 19.4852 51.7625 18.3989 51.0719C9.94 45.6946 13.2973 16.2611 14.4738 8.91919C14.6404 7.87954 10.5394 -0.362379 7.37618 0.012393C4.7041 0.328973 -0.402017 11.8623 0.0252192 12.5691Z" sodipodi:nodetypes="ccssssss"/><ellipse id="shape7" transform="matrix(0.568237452247791 0.282047727421102 -0.355589532383582 0.716401056569947 99.3599928340036 127.979990769885)" rx="8.28" ry="3.24" cx="8.28" cy="3.24" fill="#ffffff" fill-rule="evenodd" stroke="none" stroke-width="3.6" stroke-linecap="square" stroke-linejoin="bevel"/><ellipse id="shape01" transform="matrix(-0.428056459565777 0.468201228217613 0.590281146122306 0.539668933632324 120.744684257092 123.501252114754)" rx="8.28" ry="3.24" cx="8.28" cy="3.24" fill="#ffffff" fill-rule="evenodd" stroke-opacity="0" stroke="#000000" stroke-width="0" stroke-linecap="square" stroke-linejoin="bevel"/>
</svg>
