<?xml version="1.0" standalone="no"?>
<!DOCTYPE svg PUBLIC "-//W3C//DTD SVG 20010904//EN" "http://www.w3.org/TR/2001/REC-SVG-20010904/DTD/svg10.dtd">
<!-- Created using Krita: https://krita.org -->
<svg xmlns="http://www.w3.org/2000/svg" 
    xmlns:xlink="http://www.w3.org/1999/xlink"
    xmlns:krita="http://krita.org/namespaces/svg/krita"
    xmlns:sodipodi="http://sodipodi.sourceforge.net/DTD/sodipodi-0.dtd"
    width="216pt"
    height="216pt"
    viewBox="0 0 216 216">
<defs/>
<path id="shape0" transform="matrix(0.781927162784358 0 0 0.829913335756776 50.9082516877982 19.6200037401688)" fill="none" stroke="#ffffff" stroke-width="13.68" stroke-linecap="square" stroke-linejoin="miter" stroke-miterlimit="2" d="M14.7324 0C31.0907 16.921 -6.81621 66.7528 1.10208 85.5978C17.2967 124.14 101.509 86.8499 124.338 103.673C150.362 122.852 117.806 195.24 132.612 212.986" sodipodi:nodetypes="cssc"/><path id="shape1" transform="matrix(0.781927162784358 0 0 0.829913335756776 19.4400037477864 52.1239298755318)" fill="none" stroke="#ffffff" stroke-width="13.68" stroke-linecap="square" stroke-linejoin="miter" stroke-miterlimit="2" d="M0 1.62235C10.3213 14.3527 93.7121 -11.9203 110.036 7.31282C135.462 37.2709 82.1645 89.9094 103.69 115.142C135.056 151.909 180.9 96.4623 226.517 126.539" sodipodi:nodetypes="cssc"/><path id="shape2" transform="translate(53.9999977147645, 54.3599976995296)" fill="none" stroke="#ffffff" stroke-width="3.6" stroke-linecap="square" stroke-linejoin="miter" stroke-miterlimit="2" d="M0 25.2L32.04 0" sodipodi:nodetypes="cc"/><path id="shape3" transform="translate(55.79999763859, 56.159997623355)" fill="none" stroke="#ffffff" stroke-width="3.6" stroke-linecap="square" stroke-linejoin="miter" stroke-miterlimit="2" d="M0 36L42.12 0" sodipodi:nodetypes="cc"/><path id="shape4" transform="translate(64.0799972881872, 63.7199973034221)" fill="none" stroke="#ffffff" stroke-width="3.6" stroke-linecap="square" stroke-linejoin="miter" stroke-miterlimit="2" d="M0 36.36L43.92 0" sodipodi:nodetypes="cc"/><path id="shape5" transform="translate(78.8399966635561, 79.9199966178514)" fill="none" stroke="#ffffff" stroke-width="3.6" stroke-linecap="square" stroke-linejoin="miter" stroke-miterlimit="2" d="M0 28.08L29.16 0" sodipodi:nodetypes="cc"/><path id="shape6" transform="translate(23.3999990097313, 20.5199991316105)" fill="none" stroke="#ffffff" stroke-width="3.6" stroke-linecap="square" stroke-linejoin="miter" stroke-miterlimit="2" d="M0 31.32L39.96 0" sodipodi:nodetypes="cc"/><path id="shape7" transform="translate(31.6799986593285, 32.3999986288587)" fill="none" stroke="#ffffff" stroke-width="3.6" stroke-linecap="square" stroke-linejoin="miter" stroke-miterlimit="2" d="M0 24.84L30.6 0" sodipodi:nodetypes="cc"/><path id="shape8" transform="translate(99.3599957951666, 102.959995642818)" fill="none" stroke="#ffffff" stroke-width="3.6" stroke-linecap="square" stroke-linejoin="miter" stroke-miterlimit="2" d="M0 27.72L26.64 0" sodipodi:nodetypes="cc"/><path id="shape9" transform="translate(102.599995658052, 108)" fill="none" stroke="#ffffff" stroke-width="3.6" stroke-linecap="square" stroke-linejoin="miter" stroke-miterlimit="2" d="M0 36L34.56 0" sodipodi:nodetypes="cc"/><path id="shape10" transform="translate(108, 108)" fill="none" stroke="#ffffff" stroke-width="3.6" stroke-linecap="square" stroke-linejoin="miter" stroke-miterlimit="2" d="M0 47.52L42.48 0" sodipodi:nodetypes="cc"/><path id="shape11" transform="translate(121.319994865838, 124.559994728723)" fill="none" stroke="#ffffff" stroke-width="3.6" stroke-linecap="square" stroke-linejoin="miter" stroke-miterlimit="2" d="M0 35.28L33.48 0" sodipodi:nodetypes="cc"/><path id="shape12" transform="translate(152.279993555636, 148.31999372322)" fill="none" stroke="#ffffff" stroke-width="3.6" stroke-linecap="square" stroke-linejoin="miter" stroke-miterlimit="2" d="M0 32.76L24.12 0" sodipodi:nodetypes="cc"/><path id="shape13" transform="translate(155.879993403287, 155.879993403287)" fill="none" stroke="#ffffff" stroke-width="3.6" stroke-linecap="square" stroke-linejoin="miter" stroke-miterlimit="2" d="M0 40.68L31.68 0" sodipodi:nodetypes="cc"/><path id="shape14" transform="translate(286.919987857782, 89.9999961912741)" fill="none" stroke="#ffffff" stroke-width="3.6" stroke-linecap="square" stroke-linejoin="miter" stroke-miterlimit="2" d="M0.36 0L0 0" sodipodi:nodetypes="cc"/>
</svg>
