<svg style="height: 512px; width: 512px;" xmlns="http://www.w3.org/2000/svg" viewBox="0 0 512 512"><g class="" style="" transform="translate(0,0)"><path d="M350.29 21.113l-36.925 85.782 39.828 17.144 36.926-85.782-39.83-17.145zm-188.362.342l-40.115 16.46 35.453 86.4 40.115-16.46-35.452-86.4zm30.898 6.35l-8.133 3.402 28.77 70.133 6.6 16.094-16.08 6.556-40.112 16.46-16.093 6.6-6.6-16.09-28.564-69.59-11.1 4.644a112.952 112.952 0 0 1-18.093 154.4v36.47h93.51v78.048H83.42v14.265h93.51v78.158H83.42v38.338c16.8 16.8 94.695 25.194 172.592 25.194 77.896 0 155.792-8.394 172.592-25.194v-38.338h-93.512V349.21h93.512V334.93h-93.542v-78.147h93.508v-36.46a112.952 112.952 0 0 1-18.093-154.4l-11.34-4.75-30 69.686-6.883 15.986-15.984-6.883-39.774-17.06-15.984-6.883 6.883-15.985 29.683-68.97-7.892-3.26a72.275 72.275 0 0 1-126.36 0zM66 274.182v43.363h93.543v-43.363H66zm286.457 0v43.363H446v-43.363h-93.543zM66 366.605v43.364h93.543v-43.365H66zm286.457 0v43.364H446v-43.365h-93.543z" fill="#ffffff" fill-opacity="1"></path></g><g class="" style="" transform="translate(256,256)"><g><circle cx="128" cy="128" r="128" fill="#000000" fill-opacity="0.01"></circle><circle stroke="#f0f0f0" stroke-opacity="1" fill="#000000" fill-opacity="0.01" stroke-width="18" cx="128" cy="128" r="101"></circle><path fill="#f0f0f0" fill-opacity="1" d="M119 64v55H64v18h55v55h18v-55h55v-18h-55V64h-18z"></path></g></g></svg>