<?xml version="1.0" encoding="utf-8"?>
<!-- Generator: Adobe Illustrator 27.8.0, SVG Export Plug-In . SVG Version: 6.00 Build 0)  -->
<svg version="1.1" xmlns="http://www.w3.org/2000/svg" xmlns:xlink="http://www.w3.org/1999/xlink" x="0px" y="0px"
	 viewBox="0 0 512 512" style="enable-background:new 0 0 512 512;" xml:space="preserve">
<style type="text/css">
	.st0{fill:#FFFFFF;}
</style>
<g id="Layer_2">
</g>
<g id="Layer_1">
	<g>
		<path class="st0" d="M98.5,85.3c7.7,6.1,19.9,12.2,35.2,17.3c30.7,10.2,74.2,16.8,122.2,16.8c48,0,91.5-6.6,122.2-16.8
			c15.4-5.1,27.5-11.2,35.2-17.3c7.7-6.1,10.5-11.5,10.5-16c0-4.6-2.8-9.9-10.5-16c-7.7-6.1-19.9-12.2-35.2-17.3
			C347.5,25.7,304,19.1,256,19.1c-48,0-91.5,6.6-122.2,16.8c-15.4,5.1-27.5,11.2-35.2,17.3C90.8,59.3,88,64.7,88,69.3
			C88,73.9,90.8,79.2,98.5,85.3z M282.6,86.8c0-2.9-2.5-5.4-7.5-7.4c-4.9-2-13.3-3.8-25-5.5c-16.4-2.1-28.3-4.8-35.8-8.1
			c-7.5-3.3-11.2-7.6-11.2-12.7c0-5.2,3.6-9.5,10.9-12.9c7.4-3.3,17.5-5.3,30.3-6V23.8h17.2v10.5c12.9,0.7,22.9,3,30.1,6.7
			c7.2,3.8,10.8,8.9,10.8,15.5h-21.2c0-4.5-2.6-8.1-7.7-10.7c-5.1-2.6-12.1-4-20.9-4c-9.1,0-16.1,1-21,3c-4.8,1.9-7.3,4.7-7.3,8.2
			c0,3.3,2.5,5.9,7.6,7.8c5.1,1.9,13.6,3.7,25.2,5.3c11.8,1.6,20.9,3.3,27.4,5.2c6.6,1.9,11.4,4.1,14.5,6.6c3.2,2.5,4.7,5.5,4.7,8.8
			c0,5.4-3.9,9.7-11.8,13c-7.8,3.3-18.7,5.2-32.7,5.8v9.1h-17.1v-9.1c-14.3-0.5-25.5-2.6-33.6-6.3c-8.1-3.7-12.1-8.7-12.1-15h21.3
			c0,4.4,2.8,7.8,8.4,10.2c5.6,2.4,13.6,3.6,23.9,3.6c10.1,0,18-1,23.7-3C279.7,93.1,282.6,90.3,282.6,86.8L282.6,86.8z"/>
		<path class="st0" d="M413.5,229.2c-16.6,9.6-39.4,17.2-67.5,22.6c-56,10.8-124.1,10.8-180.1,0c-28-5.4-50.9-13-67.5-22.6
			c-3.8-2.2-7.3-4.5-10.5-7l0,0v95.3c0,5.8,5.3,13.8,19.3,21.9c13.9,8.1,35.3,15.4,62,20.6c53.4,10.3,120.1,10.3,173.5,0
			c26.7-5.1,48-12.5,62-20.6c13.9-8.1,19.3-16,19.3-21.9v-95.3C420.8,224.7,417.3,227,413.5,229.2z"/>
		<path class="st0" d="M107.3,213.9c13.9,8.1,35.3,15.4,62,20.6c53.4,10.3,120.1,10.3,173.5,0c26.7-5.1,48-12.5,62-20.6
			c13.9-8.1,19.3-16,19.3-21.9V99.4c-10.1,7.9-23.8,14.4-40.2,19.9c-33.3,11.1-78.2,17.7-127.8,17.7s-94.5-6.6-127.8-17.7
			c-16.4-5.5-30.1-12-40.2-19.9v92.6C88,197.9,93.3,205.9,107.3,213.9z"/>
		<path class="st0" d="M346.1,377.2c-56,10.8-124.1,10.8-180.1,0c-28-5.4-50.9-13-67.5-22.6c-3.8-2.2-7.3-4.5-10.5-7v0v98h0.4
			c1,3.9,4,8.3,10.2,13.1c7.7,6.1,19.9,12.2,35.2,17.3c30.7,10.2,74.2,16.8,122.2,16.8c48,0,91.5-6.6,122.2-16.8
			c15.4-5.1,27.5-11.2,35.2-17.3c6.1-4.8,9.2-9.2,10.2-13.1h0.4v-98c-3.2,2.5-6.7,4.8-10.5,7C397,364.2,374.1,371.8,346.1,377.2z"/>
	</g>
</g>
</svg>
