<?xml version="1.0" encoding="utf-8"?>
<!-- Generator: Adobe Illustrator 27.8.0, SVG Export Plug-In . SVG Version: 6.00 Build 0)  -->
<svg version="1.1" xmlns="http://www.w3.org/2000/svg" xmlns:xlink="http://www.w3.org/1999/xlink" x="0px" y="0px"
	 viewBox="0 0 512 512" style="enable-background:new 0 0 512 512;" xml:space="preserve">
<style type="text/css">
	.st0{display:none;}
	.st1{display:inline;}
	.st2{fill:#FFFFFF;}
</style>
<g id="Layer_2" class="st0">
	<rect x="-28.3" y="-44.3" class="st1" width="550.7" height="580"/>
</g>
<g id="Layer_1">
	<g id="id2:id7:id7" transform="matrix(1.25,0,0,1.25,3981.25,0.0)">
		<g id="id2:id7:surface801946">
			<path class="st2" d="M-2864,60.3V44.2c0-12.4-10.1-22.5-22.5-22.5h-29.8l-9,25.9h-109.9l-8.9-25.9h-29.9
				c-12.4,0-22.5,10.1-22.5,22.5v16.1h0.1v255.1h-0.1v43.7c0,12.4,10.1,22.5,22.5,22.5h187.5c12.4,0,22.5-10.1,22.5-22.5v-43.7h0.1
				L-2864,60.3L-2864,60.3z M-2980.2,367.4c-10.3,0-18.8-8.4-18.8-18.8c0-10.4,8.4-18.8,18.8-18.8c10.4,0,18.8,8.3,18.8,18.8
				C-2961.5,359-2969.9,367.4-2980.2,367.4z M-2878.9,300.5h-202.5V75.3h202.5V300.5z"/>
			<path class="st2" d="M-2930.6,40.1l6.4-18.4h-112l6.4,18.4H-2930.6z"/>
			<path class="st2" d="M-3011.5,242.1h15v22.7h-15v-7.6h-9.8v20.7h-48.8v-48.8h20.6v-9.9h-7.6v-15h22.7v15h-7.6v9.9h20.7v20.6h9.8
				V242.1z"/>
			<path class="st2" d="M-2910.9,229.1h20.7v48.8h-48.9v-20.7h-9.8v7.6h-15v-22.7h15v7.6h9.8v-20.6h20.7v-9.9h-7.6v-15h22.7v15h-7.6
				V229.1z"/>
			<path class="st2" d="M-3004.6,163.5h48.8v48.9h-48.8V163.5z"/>
			<path class="st2" d="M-2890.2,97.9v48.8h-20.7v9.9h7.6v15h-22.7v-15h7.6v-9.9h-20.7v-20.6h-9.8v7.6h-15V111h15v7.6h9.8V97.9
				H-2890.2z"/>
			<path class="st2" d="M-3049.5,146.7h-20.6V97.9h48.8v20.7h9.8V111h15v22.7h-15v-7.6h-9.8v20.6h-20.7v9.9h7.6v15h-22.7v-15h7.6
				V146.7z"/>
		</g>
	</g>
</g>
</svg>
