<?xml version="1.0" encoding="UTF-8" standalone="no"?><!DOCTYPE svg PUBLIC "-//W3C//DTD SVG 1.1//EN" "http://www.w3.org/Graphics/SVG/1.1/DTD/svg11.dtd"><svg width="100%" height="100%" viewBox="0 0 300 300" version="1.1" xmlns="http://www.w3.org/2000/svg" xmlns:xlink="http://www.w3.org/1999/xlink" xml:space="preserve" xmlns:serif="http://www.serif.com/" style="fill-rule:evenodd;clip-rule:evenodd;stroke-linejoin:round;stroke-miterlimit:2;"><path d="M40.588,118.076l-2.369,1.659l-25.745,18.4l-0,-20.059l28.114,-0Zm72.26,-0l-61.275,-0c-1.682,1.202 -31.605,22.53 -32.325,23.068l53.254,-0l40.346,-23.068Zm9.199,22.645l-4.279,-18.114c-0.172,0.092 -32.256,18.48 -32.427,18.526l36.796,-0c-0.022,-0.126 -0.057,-0.286 -0.091,-0.412l0.001,0Zm117.273,-96.185l-5.813,-19.967c-2.815,2.895 -25.677,26.581 -29.097,30.128l34.91,-10.161Zm-47.312,13.766l2.906,-2.975l29.453,-30.506l-49.133,14.314l-32.324,33.482l49.098,-14.315Zm-61.456,17.918l32.324,-33.481l-49.099,14.315l-32.324,33.447l49.099,-14.281Zm-61.468,17.896l32.29,-33.447l-58.836,17.118l-24.567,31.213l51.113,-14.884Zm-64.077,-5.366l5.618,19.257l21.374,-27.151l-26.992,7.894Zm171.419,68.644l-0,-8.238c-5.011,3.924 -8.501,9.451 -9.897,15.618c2.963,-2.872 6.281,-5.366 9.897,-7.38Zm118.576,-22.484l0,35.998c0.378,35.175 -23.01,68.298 -56.09,80.086c-33.044,-11.569 -56.537,-44.969 -56.09,-80.086l-0.012,-35.998l56.091,-5.366l56.101,5.366Zm-92.935,28.526c4.485,-5.755 13.582,-5.469 17.827,-0c2.666,3.25 7.598,-0.721 4.989,-3.993c-0.892,-1.122 -5.755,-6.671 -13.891,-6.671c-7.929,-0.069 -13.055,5.561 -13.891,6.671c-2.643,3.261 2.346,7.277 4.966,3.993Zm70.405,26.832c0.446,-2.838 -3.239,-4.749 -5.298,-2.746c-15.367,14.463 -41.19,14.486 -56.569,0c-2.094,-2.014 -5.767,-0.08 -5.332,2.746c2.14,16.9 16.58,29.646 33.608,29.646c17.015,-0 31.49,-12.747 33.596,-29.646l-0.005,-0Zm-5.87,-37.509c-8.708,0.137 -17.656,7.643 -13.228,11.179c1.339,1.11 3.421,0.881 4.474,-0.515c0.355,-0.446 3.547,-4.245 8.822,-4.279c5.275,-0.08 8.696,3.844 9.04,4.279c1.087,1.373 3.1,1.602 4.473,0.515c4.474,-3.661 -4.782,-11.191 -13.582,-11.179l0.001,0Zm-52.429,45.335c9.611,20.367 39.784,20.379 49.385,0c-14.715,8.948 -34.624,8.948 -49.385,0Zm-37.748,-56.569c-11.5,6.614 -18.205,19.555 -16.798,32.876c0.138,1.579 1.557,2.861 3.159,2.838c1.052,0 2.048,-0.481 2.654,-1.373c2.975,-4.314 6.706,-8.021 10.985,-10.962c-0.298,11.626 0.789,23.48 4.531,34.533c-26.307,-9.84 -46.399,-33.022 -52.702,-60.152c-1.911,-8.135 -6.373,-27.188 -8.239,-35.048l53.413,-18.022l55.804,-7.632c1.488,7.026 9.406,37.931 9.898,44.569l-0.549,0.011l-59.293,5.652c-1.625,0.161 -2.872,1.534 -2.872,3.193l0.009,9.517Zm32.612,-24.818c8.651,-2.002 15.836,-11.58 10.664,-13.994c-1.602,-0.766 -3.513,-0.091 -4.245,1.499c-0.252,0.515 -2.551,5.08 -7.826,6.259c-5.012,1.122 -8.811,-1.625 -9.555,-2.174c-1.373,-1.087 -3.387,-0.858 -4.474,0.538c-3.673,5.401 9.04,9.589 15.436,7.872Zm-47.888,0.286c-0.252,0.515 -2.529,5.046 -7.793,6.225c-5.046,1.121 -8.845,-1.602 -9.588,-2.174c-3.319,-2.563 -7.175,2.46 -3.925,5.046c9.52,7.518 22.931,2.906 27.083,-6.385c1.717,-3.81 -3.936,-6.488 -5.778,-2.712l0.001,0Zm88.107,136.552c0.194,-0.092 0.377,-0.16 0.537,-0.252l-0,22.141l-237.315,0l0,-127.903l111.448,0c8.662,28.126 31.604,50.954 59.959,59.708c10.058,23.194 30.013,42.03 53.952,50.188c3.502,0.434 8.078,-2.655 11.42,-3.879l-0.001,-0.003Zm-105.671,-52.131l-28.274,-16.328c-4.955,-3.09 -11.957,0.961 -11.752,6.808l0,32.612c0,2.838 1.465,5.367 3.925,6.809c2.437,1.396 5.389,1.407 7.827,0l28.274,-16.329c5.172,-2.723 5.183,-10.813 0,-13.57l0,-0.002Zm-3.192,5.527l-28.275,-16.328c-1.007,-0.47 -2.082,-0.046 -2.174,1.281l-0,32.612c0.092,1.225 1.065,1.785 2.209,1.282l28.24,-16.328c0.641,-0.355 0.732,-0.962 0.732,-1.282c0,-0.275 -0.103,-0.881 -0.732,-1.236l0,-0.001Z" style="fill:#ccc;fill-rule:nonzero;stroke:#000;stroke-width:4.17px;"/></svg>