<?xml version="1.0" encoding="UTF-8" standalone="no"?><!DOCTYPE svg PUBLIC "-//W3C//DTD SVG 1.1//EN" "http://www.w3.org/Graphics/SVG/1.1/DTD/svg11.dtd"><svg width="100%" height="100%" viewBox="0 0 300 300" version="1.1" xmlns="http://www.w3.org/2000/svg" xmlns:xlink="http://www.w3.org/1999/xlink" xml:space="preserve" xmlns:serif="http://www.serif.com/" style="fill-rule:evenodd;clip-rule:evenodd;stroke-linejoin:round;stroke-miterlimit:2;"><path d="M85.141,166.448c-19.328,-7.989 -40.444,-23.278 -52.692,-40.573c-10.401,-14.689 -16.722,-30.799 -16.722,-45.005l-0,-12.681c-0,-5.188 2.059,-10.154 5.721,-13.829c3.676,-3.662 8.641,-5.722 13.829,-5.722l18.26,-0c0.599,9.815 1.59,19.394 2.932,28.673l-12.069,-0l0,3.558c0,9.071 4.809,19.055 11.443,28.439c1.721,2.437 6.856,4.835 8.85,7.168c5.344,18.938 12.291,35.841 20.437,49.982l0.011,-0.01Z" style="fill:#ccc;stroke:#000;stroke-width:3px;"/><path d="M246.405,48.636l18.261,0c5.186,0 10.152,2.059 13.827,5.721c3.663,3.676 5.722,8.642 5.722,13.829l0,12.681c0,14.207 -6.32,30.316 -16.722,45.005c-12.252,17.283 -33.366,32.585 -52.693,40.573c8.147,-14.128 15.107,-31.047 20.437,-49.982c1.994,-2.32 7.116,-4.718 8.849,-7.168c6.648,-9.384 11.444,-19.368 11.444,-28.439l0,-3.558l-12.069,-0c1.342,-9.28 2.332,-18.86 2.932,-28.673l0.012,0.011Z" style="fill:#ccc;stroke:#000;stroke-width:3px;"/><path d="M113.267,230.454c4.926,-7.403 8.211,-16.318 10.062,-24.737c8.55,4.262 17.504,6.491 26.64,6.491c9.136,-0 18.09,-2.229 26.64,-6.491c1.851,8.419 5.123,17.334 10.063,24.737l-73.405,0Z" style="fill:#ccc;stroke:#000;stroke-width:3px;"/><path d="M212.53,235.017c5.187,0 10.153,2.059 13.829,5.721c3.662,3.676 5.721,8.642 5.721,13.829l-0,31.28c-0,5.045 -4.092,9.124 -9.123,9.124l-145.976,0c-5.044,0 -9.124,-4.08 -9.124,-9.124l0,-31.28c0,-5.187 2.06,-10.153 5.722,-13.829c3.676,-3.662 8.641,-5.721 13.829,-5.721l125.122,-0l0,0Zm-114.695,33.886l104.269,0c2.163,0 3.91,-1.747 3.91,-3.91c0,-2.164 -1.747,-3.91 -3.91,-3.91l-104.269,0c-2.163,0 -3.91,1.746 -3.91,3.91c-0,2.163 1.747,3.91 3.91,3.91Z" style="fill:#ccc;stroke:#000;stroke-width:3px;"/><path d="M242.311,38.207c-1.772,54.782 -15.914,102.915 -36.78,133.516c-15.523,22.757 -34.851,35.922 -55.56,35.922c-20.709,-0 -40.039,-13.164 -55.56,-35.922c-20.866,-30.602 -35.006,-78.723 -36.791,-133.516l184.691,0Zm-88.798,17.882c-0.651,-1.368 -2.02,-2.241 -3.545,-2.241c-1.512,0 -2.893,0.873 -3.545,2.241l-13.607,29.001l-30.354,4.64c-1.447,0.221 -2.659,1.238 -3.115,2.62c-0.47,1.394 -0.118,2.919 0.912,3.975l22.079,22.626l-5.227,32.009c-0.234,1.486 0.391,2.972 1.616,3.832c1.225,0.86 2.829,0.951 4.145,0.221l27.11,-14.988l27.109,14.988c1.317,0.73 2.92,0.639 4.145,-0.221c1.225,-0.86 1.851,-2.346 1.603,-3.832l-5.213,-32.009l22.078,-22.626c1.017,-1.043 1.369,-2.581 0.913,-3.975c-0.47,-1.382 -1.669,-2.399 -3.115,-2.62l-30.355,-4.64l-13.607,-29.001l-0.027,-0Z" style="fill:#ccc;stroke:#000;stroke-width:3px;"/><path d="M149.968,66.959l10.962,23.356c0.547,1.173 1.668,2.008 2.945,2.203l24.894,3.806l-18.142,18.599c-0.861,0.886 -1.265,2.137 -1.056,3.363l4.236,26.002l-21.949,-12.135c-1.173,-0.651 -2.607,-0.651 -3.78,0l-21.948,12.135l4.248,-26.002c0.196,-1.225 -0.195,-2.477 -1.055,-3.363l-18.143,-18.599l24.894,-3.806c1.29,-0.195 2.398,-1.03 2.946,-2.203l10.961,-23.356l-0.013,0Z" style="fill:#ccc;stroke:#000;stroke-width:3px;"/><path d="M243.811,4.971c5.031,0 9.124,4.092 9.124,9.123l0,10.427c0,5.044 -4.093,9.123 -9.124,9.123l-187.683,-0c-5.044,-0 -9.123,-4.079 -9.123,-9.123l0,-10.427c0,-5.031 4.08,-9.123 9.123,-9.123l187.683,0Z" style="fill:#ccc;stroke:#000;stroke-width:3px;"/></svg>