<?xml version="1.0" encoding="UTF-8" standalone="no"?><!DOCTYPE svg PUBLIC "-//W3C//DTD SVG 1.1//EN" "http://www.w3.org/Graphics/SVG/1.1/DTD/svg11.dtd"><svg width="100%" height="100%" viewBox="0 0 300 300" version="1.1" xmlns="http://www.w3.org/2000/svg" xmlns:xlink="http://www.w3.org/1999/xlink" xml:space="preserve" xmlns:serif="http://www.serif.com/" style="fill-rule:evenodd;clip-rule:evenodd;stroke-linejoin:round;stroke-miterlimit:2;"><path d="M153.514,294.352l-116.336,0c-12.513,0 -23.154,-6.018 -29.008,-16.143c-6.332,-10.805 -6.181,-24.537 0.352,-35.856l10.126,-18.882c16.986,3.442 33.961,2.223 51.497,-0.352c20.943,-2.927 41.875,-8.078 62.968,-8.593c12.864,-0.164 25.051,1.382 36.887,5.151l12.186,22.84c6.332,11.156 6.533,24.888 0.352,35.705c-5.817,10.126 -16.471,16.144 -29.007,16.144l-0.018,-0.014l0.001,0Zm-100.067,-16.985c7.714,-0 13.895,-6.181 13.895,-13.732c0,-7.563 -6.181,-13.895 -13.895,-13.895c-7.714,0 -13.732,6.181 -13.732,13.895c0,7.714 6.181,13.732 13.732,13.732Zm40.856,-131.285c7.199,-0 12.865,-5.817 12.865,-12.865c0,-7.048 -5.666,-12.865 -12.865,-12.865c-7.198,-0 -12.701,5.817 -12.701,12.865c-0,7.048 5.666,12.865 12.701,12.865Zm-6.344,49.598c9.937,0 17.852,-8.078 17.852,-17.852c0,-9.774 -7.877,-17.852 -17.852,-17.852c-9.975,-0 -17.852,7.877 -17.852,17.852c-0,9.975 8.078,17.852 17.852,17.852Zm57.125,85.454c6.018,0 10.968,-4.987 10.968,-11.156c-0,-6.181 -4.988,-10.967 -10.968,-10.967c-5.98,-0 -10.968,4.987 -10.968,10.967c0,5.981 4.787,11.156 10.968,11.156Zm-40.302,-25.93c7.048,-0 12.702,-5.666 12.702,-12.513c-0,-6.847 -5.666,-12.513 -12.702,-12.513c-7.048,-0 -12.513,5.666 -12.513,12.513c0,6.847 5.666,12.513 12.513,12.513Zm-84.098,-35.667l40.656,-76.348l-0,-44.774l67.765,-0l-0,44.774l37.916,71.046c-50.103,-14.247 -96.612,14.41 -146.375,5.302l0.038,-0l0,-0Z" style="fill:#ccc;stroke:#000;stroke-width:3px;"/><path d="M99.29,70.786l29.322,0c6.332,0 11.483,5.151 11.483,11.483c-0,6.332 -5.151,11.483 -11.483,11.483l-66.573,0c-6.331,0 -11.482,-5.151 -11.482,-11.483c-0,-6.332 5.151,-11.483 11.482,-11.483l29.336,0l-0,-30.79c-2.103,0.408 -4.253,0.611 -6.496,0.611l0.001,-0.051c-6.018,0 -11.998,-1.708 -17.338,-4.786c-8.907,-4.988 -15.088,-13.732 -16.822,-23.87c-0.352,-1.897 0.678,-3.769 2.412,-4.272c9.611,-3.442 20.428,-2.412 29.171,2.575c5.542,3.205 9.965,7.8 12.973,13.217c3.01,-5.433 7.508,-10.056 13.085,-13.267c8.743,-4.987 19.548,-6.018 29.007,-2.575c1.897,0.515 2.927,2.412 2.575,4.271c-1.897,10.126 -8.078,18.883 -16.822,23.87c-5.302,3.091 -11.319,4.787 -17.501,4.787l0.002,0.05c-2.126,0 -4.242,-0.196 -6.332,-0.591l-0,30.821Z" style="fill:#ccc;stroke:#000;stroke-width:3px;"/><path d="M212.53,72.13l10.634,-19.473l0,-19.336c0,-2.06 1.709,-3.769 3.958,-3.769c2.06,0 3.957,1.709 3.957,3.769l0,16.333l22.462,-0l0,-16.333c0,-2.06 1.897,-3.769 3.958,-3.769c2.223,0 3.957,1.709 3.957,3.769l0,19.147l13.147,22.915l17.872,-0c2.224,-0 3.957,1.708 3.957,3.769c0,2.223 -1.708,3.957 -3.957,3.957l-17.908,0l-10.031,18.368c-1.546,-2.412 -4.121,-3.769 -7.048,-3.769l-25.567,0l-12.349,-21.458c-1.381,-2.573 -4.117,-4.118 -7.042,-4.12Zm-0,-0l-0.007,0.012l0.001,-0.012l0.006,-0Z" style="fill:#ccc;stroke:#000;stroke-width:3px;"/><path d="M255.311,162.737l-28.179,0c-1.545,0 -2.927,-0.867 -3.442,-2.224l-13.544,-26.949c-0.515,-1.03 -0.515,-2.412 0,-3.605l13.544,-25.566c0.678,-1.194 1.897,-2.061 3.442,-2.061l30.366,0c1.382,0 2.739,0.679 3.443,1.897l13.565,23.644l17.968,0c2.224,0 3.958,1.897 3.958,3.958c-0,2.223 -1.709,3.957 -3.958,3.957l-17.9,0l-12.593,22.989l9.051,15.642c1.03,1.709 0.352,4.121 -1.545,5.302c-0.512,0.349 -1.185,0.513 -1.884,0.515l-0.013,-0c-1.378,-0.004 -2.728,-0.683 -3.43,-2.06l-8.849,-15.439Z" style="fill:#ccc;stroke:#000;stroke-width:3px;"/><path d="M167.232,161.354l-18.319,-0c-2.06,-0 -3.957,-1.709 -3.957,-3.958c-0,-2.06 1.897,-3.769 3.957,-3.769l18.533,0l8.857,-16.974c1.545,2.223 4.121,3.605 6.847,3.605l25.215,0l11.156,22.325c1.382,2.927 4.271,4.787 7.563,4.787l-9.572,18.188l-0,19.025c-0,2.224 -1.709,3.958 -3.958,3.958c-2.06,-0 -3.769,-1.709 -3.769,-3.958l0,-16.27l-22.64,0l0,16.27c0,2.224 -1.708,3.958 -3.957,3.958c-2.061,-0 -3.769,-1.709 -3.769,-3.958l-0,-18.98l-12.187,-24.249Z" style="fill:#ccc;stroke:#000;stroke-width:3px;"/><path d="M166.127,110.058l-24.436,0c-2.224,0 -3.958,-1.708 -3.958,-3.957c0,-2.061 1.709,-3.769 3.958,-3.769l24.4,-0l11.343,-21.813l-9.008,-15.424c-1.031,-1.898 -0.515,-4.272 1.382,-5.302c1.897,-1.194 4.271,-0.515 5.301,1.382l8.927,15.427l28.36,0c1.382,0 2.575,0.867 3.254,2.061l11.156,19.046c-3.09,0.163 -5.817,1.897 -7.199,4.635l-13.38,25.567c-1.381,2.412 -1.381,5.301 -0.163,7.714l0.163,0.163l-23.028,-0c-1.382,-0 -2.575,-0.867 -3.254,-2.06l-13.818,-23.67Z" style="fill:#ccc;stroke:#000;stroke-width:3px;"/></svg>