<?xml version="1.0" encoding="UTF-8" standalone="no"?><!DOCTYPE svg PUBLIC "-//W3C//DTD SVG 1.1//EN" "http://www.w3.org/Graphics/SVG/1.1/DTD/svg11.dtd"><svg width="100%" height="100%" viewBox="0 0 300 300" version="1.1" xmlns="http://www.w3.org/2000/svg" xmlns:xlink="http://www.w3.org/1999/xlink" xml:space="preserve" xmlns:serif="http://www.serif.com/" style="fill-rule:evenodd;clip-rule:evenodd;stroke-linejoin:round;stroke-miterlimit:2;"><g id="Crossed-Katana" serif:id="Crossed Katana"><path d="M162.519,169.347c-6.179,-6.142 -10.269,-14.072 -11.693,-22.667l64.131,64.137l-5.484,5.484l-46.954,-46.954Zm124.017,-22.664c-1.422,8.593 -5.512,16.522 -11.688,22.664l-83.796,83.795l-5.489,-5.483l100.973,-100.976Zm-133.641,147.255c-0.709,0.677 -1.652,1.056 -2.631,1.056c-0.981,0 -1.924,-0.379 -2.633,-1.056l-4.173,-4.168c-0.702,-0.696 -1.094,-1.644 -1.09,-2.632c0.002,-0.986 0.393,-1.933 1.09,-2.631l14.7,-14.703l9.434,9.44l-14.697,14.694Zm18.42,-18.421l-9.436,-9.431l4.173,-4.176l9.434,9.439l-4.171,4.168Zm13.158,-2.631l-16.555,-16.556l-3.408,-3.402l1.542,-1.545l19.961,19.966l-1.54,1.537Zm0,-10.526l-9.437,-9.432l4.174,-4.177l9.435,9.441l-4.172,4.168Zm43.422,-38.605l23.904,23.91l-5.484,5.487l-23.91,-23.907l5.49,-5.49Zm20.827,34.437l9.436,-9.438l4.168,4.174l-9.431,9.435l-4.173,-4.171Zm4.173,14.696l-1.542,-1.539l19.963,-19.963l1.543,1.542l-3.384,3.395l-13.158,13.157l-3.422,3.408Zm18.421,-10.975l4.171,4.173l-9.434,9.434l-4.174,-4.171l9.437,-9.436Zm22.592,27.857l-4.171,4.168c-0.708,0.682 -1.65,1.062 -2.631,1.062c-0.981,0 -1.926,-0.38 -2.632,-1.062l-14.7,-14.694l9.437,-9.437l14.697,14.7c0.701,0.697 1.094,1.645 1.092,2.631c-0.002,0.988 -0.395,1.933 -1.092,2.632Z" style="fill:#ccc;fill-rule:nonzero;stroke:#000;stroke-width:3.06px;"/></g><g id="Martial-Artist" serif:id="Martial Artist"><path d="M64.887,107.407c-6.826,11.035 -15.781,23.576 -27.41,37.012c-1.537,-0.177 -2.465,-0.294 -2.616,-0.314l-0.223,-2.432c-1.659,8.969 -1.381,22.629 -1.381,22.629l-5.68,0.081c-0.015,1.262 -0.024,2.539 -0.021,3.838c0,1.932 0.015,3.908 0.049,5.928c0.09,5.402 -4.074,9.862 -9.299,9.956l-0.169,-0c-5.15,-0 -9.372,-4.269 -9.463,-9.614c-0.038,-2.14 -0.052,-4.233 -0.052,-6.27c-0,-1.203 0.011,-2.383 0.024,-3.559l-3.394,0.047c-3.845,-86.691 37.538,-98.917 37.538,-98.917l7.067,-0c1.837,7.122 6.867,25.009 15.03,41.615Zm34.459,-41.615c-0,-0 41.386,12.224 37.54,98.917l-3.393,-0.047c0.012,1.172 0.021,2.356 0.021,3.559c-0,2.046 -0.018,4.127 -0.05,6.255c-0.084,5.351 -4.307,9.629 -9.466,9.629l-0.153,-0c-5.229,-0.091 -9.396,-4.542 -9.311,-9.943c0.031,-2.033 0.045,-4.015 0.045,-5.941c0.003,-1.302 -0.009,-2.576 -0.023,-3.838l-5.675,-0.081c-0,-0 0.279,-13.66 -1.38,-22.629l-0.223,2.432c-0.372,0.048 -5.186,0.659 -11.955,1.277c-7.033,0.646 -16.13,1.285 -24.252,1.285c-8.127,-0 -17.224,-0.641 -24.256,-1.285c-0.22,-0.022 -0.429,-0.04 -0.644,-0.06c33.374,-39.809 43.744,-71.479 45.98,-79.53l7.195,-0Zm-20.434,88.022c10.663,-0.483 21.052,-1.749 24.795,-2.234l-0.797,9.461l4.349,28.132c0,0 -1.362,0.252 -3.757,0.608l7.249,91.336c0,-0 -1.632,0.7 -4.257,1.546c-1.11,6.678 -6.133,11.903 -12.43,12.311c-6.306,0.408 -11.831,-4.152 -13.606,-10.653c-3.184,-0.585 -5.586,-1.166 -5.586,-1.166l-2.206,-90.93c-0.531,0.003 -1.062,0.005 -1.595,0.005c-0.537,0 -1.067,-0.002 -1.598,-0.005l-2.208,90.93c0,-0 -2.398,0.581 -5.581,1.166c-1.775,6.505 -7.303,11.061 -13.611,10.653c-6.295,-0.408 -11.318,-5.633 -12.426,-12.311c-2.624,-0.846 -4.26,-1.546 -4.26,-1.546l7.253,-91.336c-2.395,-0.356 -3.762,-0.608 -3.762,-0.608l4.351,-28.132l-0.799,-9.461c3.748,0.485 14.133,1.751 24.797,2.234c-4.82,8.833 -13.628,27.638 -16.589,51.735l6.461,1.001c1.929,-15.799 6.601,-29.337 10.795,-38.888c2.093,-4.775 4.065,-8.552 5.503,-11.121c0.593,-1.061 1.088,-1.9 1.47,-2.536c0.067,0 0.134,0.003 0.201,0.003c0.067,0 0.133,-0.003 0.2,-0.003c3.167,5.222 14.492,25.586 17.768,52.542l6.464,-0.998c-2.963,-24.097 -11.771,-42.902 -16.588,-51.735Zm-19.068,-78.931c-1.116,-3.603 -1.994,-6.72 -2.633,-9.091l27.519,-0c-1.761,5.722 -6.14,17.911 -15.443,34.209c-4.042,-8.871 -7.222,-17.953 -9.443,-25.118Zm11.224,-69.883c14.694,-0 26.625,12.332 26.625,27.521c-0,15.189 -11.931,27.521 -26.625,27.521c-14.694,0 -26.625,-12.332 -26.625,-27.521c-0,-15.189 11.931,-27.521 26.625,-27.521Z" style="fill:#ccc;stroke:#000;stroke-width:3.06px;"/></g><g id="Yin-Yang"><path d="M218.685,5c42.147,-0 76.314,34.171 76.314,76.318c-0,42.147 -34.167,76.314 -76.314,76.314c-42.147,-0 -76.317,-34.167 -76.317,-76.314c0,-42.147 34.17,-76.318 76.317,-76.318Zm0,118.098c4.614,-0 8.357,-3.742 8.357,-8.356c-0,-4.614 -3.743,-8.355 -8.357,-8.355c-4.613,-0 -8.355,3.741 -8.355,8.355c-0,4.614 3.742,8.356 8.355,8.356Zm0,-108.633c-36.921,-0 -66.849,29.932 -66.849,66.853c-0,36.916 29.928,66.849 66.849,66.849c-18.46,-0 -33.424,-14.964 -33.424,-33.425c-0,-18.46 14.964,-33.424 33.424,-33.424c18.461,-0 33.425,-14.969 33.425,-33.425c-0,-18.465 -14.964,-33.428 -33.425,-33.428Zm0,25.068c4.614,-0 8.357,3.742 8.357,8.356c-0,4.613 -3.743,8.356 -8.357,8.356c-4.613,-0 -8.355,-3.743 -8.355,-8.356c-0,-4.614 3.742,-8.356 8.355,-8.356Z" style="fill:#ccc;stroke:#000;stroke-width:3.06px;stroke-linecap:round;"/></g></svg>