<?xml version="1.0" encoding="UTF-8" standalone="no"?><!DOCTYPE svg PUBLIC "-//W3C//DTD SVG 1.1//EN" "http://www.w3.org/Graphics/SVG/1.1/DTD/svg11.dtd"><svg width="100%" height="100%" viewBox="0 0 300 300" version="1.1" xmlns="http://www.w3.org/2000/svg" xmlns:xlink="http://www.w3.org/1999/xlink" xml:space="preserve" xmlns:serif="http://www.serif.com/" style="fill-rule:evenodd;clip-rule:evenodd;stroke-linejoin:round;stroke-miterlimit:2;"><g><path d="M114.853,153.28l0,-140.639l-56.28,11.767c-4.096,0.831 -6.754,4.883 -5.94,9.048l23.665,111.006c8.194,3.223 21.099,6.694 38.555,8.818Zm-24.149,-92.774c-0.399,0.277 -0.866,0.424 -1.334,0.424c-0.138,0 -0.286,-0.017 -0.424,-0.034c-0.563,-0.104 -13.906,-2.659 -18.408,-12.373c-2.883,-6.234 -0.286,-11.707 3.351,-14.157c3.178,-2.139 6.935,-2.13 10.165,-0.121c2.113,-3.169 5.507,-4.736 9.299,-4.121c4.321,0.718 8.97,4.615 8.936,11.481c-0.044,10.71 -11.118,18.58 -11.585,18.911l-0,-0.01Z" style="fill:#ccc;stroke:#000;stroke-width:4.17px;"/><path d="M229.819,141.388l-0,-131.621c-0,-3.446 -2.805,-6.252 -6.251,-6.252l-97.781,0c-3.446,0 -6.251,2.806 -6.251,6.252l-0,144.038c9.097,0.935 19.321,1.502 30.653,1.502c42.375,-0 69.263,-8.15 79.63,-13.919l-0,0Zm-21.622,-59.868c-4.883,21.931 -31.499,33.283 -32.626,33.758c-0.285,0.121 -0.597,0.182 -0.9,0.182c-0.303,0 -0.615,-0.061 -0.9,-0.182c-1.135,-0.476 -27.743,-11.827 -32.627,-33.758c-2.969,-13.343 4.304,-22.851 12.313,-26.026c7.732,-3.074 15.75,-0.632 21.212,6.191c5.464,-6.823 13.482,-9.256 21.213,-6.191c8.009,3.186 15.282,12.684 12.312,26.026l0.003,-0Zm11.161,-53.848c-2.329,10.451 -14.823,15.784 -15.351,16.01c-0.286,0.121 -0.598,0.181 -0.901,0.181c-0.303,0 -0.614,-0.06 -0.9,-0.181c-0.528,-0.226 -13.022,-5.559 -15.351,-16.01c-1.49,-6.702 2.216,-11.498 6.286,-13.118c3.558,-1.411 7.229,-0.606 9.965,2.044c2.736,-2.65 6.408,-3.455 9.966,-2.044c4.078,1.619 7.776,6.416 6.286,13.118Zm-63.163,121.398c-3.559,1.412 -7.23,0.598 -9.966,-2.043c-1.844,1.784 -4.104,2.736 -6.476,2.736c-1.152,-0 -2.329,-0.225 -3.49,-0.684c-4.078,-1.619 -7.775,-6.416 -6.286,-13.118c2.329,-10.45 14.815,-15.784 15.352,-16.009c0.58,-0.243 1.22,-0.243 1.801,-0c0.528,0.225 13.022,5.559 15.351,16.009c1.489,6.702 -2.217,11.499 -6.286,13.118l-0,-0.009Z" style="fill:#ccc;stroke:#000;stroke-width:4.17px;"/></g><path d="M236.759,111.661c21.376,6.656 29.394,17.219 29.394,33.836c0,16.508 -16.554,27.415 -38.225,34.195l15.35,96.1c0.903,6.19 -3.31,12.086 -9.632,13.265c-25.283,4.716 -54.178,7.37 -83.675,7.37c-29.497,-0 -58.392,-2.359 -83.675,-7.37c-6.321,-1.179 -10.534,-7.075 -9.632,-13.265l15.351,-95.51c-21.671,-6.781 -38.226,-17.687 -38.226,-34.195c-0,-16.203 8.172,-26.015 28.262,-32.781l6.047,28.364c-4.606,1.949 -5.261,4.713 -3.172,6.268c7.524,5.601 35.683,14.362 85.045,14.362c49.363,-0 78.559,-10.612 86.084,-16.509c3.325,-2.605 4.465,-3.643 0.704,-4.592l-0,-29.538Z" style="fill:#ccc;stroke:#000;stroke-width:4.17px;"/></svg>