<?xml version="1.0" encoding="UTF-8" standalone="no"?><!DOCTYPE svg PUBLIC "-//W3C//DTD SVG 1.1//EN" "http://www.w3.org/Graphics/SVG/1.1/DTD/svg11.dtd"><svg width="100%" height="100%" viewBox="0 0 300 300" version="1.1" xmlns="http://www.w3.org/2000/svg" xmlns:xlink="http://www.w3.org/1999/xlink" xml:space="preserve" xmlns:serif="http://www.serif.com/" style="fill-rule:evenodd;clip-rule:evenodd;stroke-linejoin:round;stroke-miterlimit:2;"><path d="M150.001,162.449c26.85,0 44.889,-24.508 44.889,-60.987c0,-37.197 -18.881,-64.185 -44.889,-64.185c-26.007,0 -44.888,27.001 -44.888,64.185c0,36.478 18.038,60.987 44.888,60.987Zm0.013,-11.316c-5.01,0 -38.215,-8.962 -38.215,-48.06c-0,-34.716 31.166,-40.583 37.788,-41.437c0.302,0.037 0.78,0.037 0.743,-0.013c6.319,0.806 37.877,6.608 37.877,41.451c0,39.099 -33.181,48.06 -38.191,48.06l-0.002,-0.001Z" style="fill:#ccc;fill-rule:nonzero;stroke:#000;stroke-width:4.17px;"/><path d="M170.469,91.658c-0.478,-0.302 -1.082,-0.327 -1.598,-0.075l-13.167,6.394c-0.516,0.252 -0.869,0.755 -0.931,1.322c-0.063,0.579 0.176,1.133 0.616,1.498c2.769,2.215 5.715,3.323 8.761,3.323c0.328,-0 0.667,-0.013 1.007,-0.038c2.002,-0.164 3.512,-1.208 4.582,-3.197c1.561,-2.87 1.611,-6.458 1.561,-7.855c-0.025,-0.566 -0.34,-1.082 -0.831,-1.372l0,-0Z" style="fill:#ccc;fill-rule:nonzero;stroke:#000;stroke-width:4.17px;"/><path d="M21.948,240.907l256.118,0c0.931,0 1.687,-0.755 1.687,-1.674l0,-145.551c0,-0.932 -0.755,-1.687 -1.687,-1.687l-76.71,0c-0.465,0 -0.906,0.201 -1.232,0.529c-0.329,0.34 -0.48,0.793 -0.455,1.258c0.178,2.556 0.277,5.149 0.277,7.679c0,11.933 -1.899,22.884 -5.664,32.552c-0.176,0.44 -0.151,0.931 0.064,1.359c0.2,0.428 0.59,0.743 1.044,0.869c11.467,3.235 24.709,13.078 29.507,18.642c10.951,12.764 11.707,54.993 11.743,59.779c0.013,0.679 -0.251,1.309 -0.717,1.787c-0.478,0.478 -1.107,0.743 -1.813,0.755c-1.371,0 -2.504,-1.12 -2.529,-2.492c-0,-0.453 -0.567,-44.937 -10.536,-56.543c-4.683,-5.45 -18.416,-15.168 -28.46,-17.421c-0.742,-0.164 -1.497,0.176 -1.85,0.843c-9.037,16.717 -23.502,25.906 -40.735,25.906c-17.219,0 -31.68,-9.202 -40.734,-25.906c-0.352,-0.667 -1.107,-1.007 -1.849,-0.843c-10.046,2.253 -23.792,11.983 -28.46,17.421c-9.969,11.593 -10.536,56.089 -10.536,56.543c-0.013,1.385 -1.146,2.492 -2.554,2.492c-0.681,-0.012 -1.311,-0.277 -1.775,-0.755c-0.467,-0.478 -0.731,-1.12 -0.719,-1.787c0.052,-4.771 0.793,-47.015 11.744,-59.779c4.785,-5.564 18.039,-15.407 29.494,-18.642c0.454,-0.126 0.844,-0.441 1.044,-0.869c0.215,-0.428 0.24,-0.919 0.064,-1.359c-3.764,-9.667 -5.664,-20.619 -5.664,-32.552c-0,-2.505 0.087,-5.086 0.264,-7.679c0.037,-0.465 -0.126,-0.918 -0.454,-1.258c-0.326,-0.34 -0.768,-0.529 -1.234,-0.529l-76.683,0c-0.93,0 -1.686,0.755 -1.686,1.687l0,145.538c0,0.931 0.756,1.687 1.686,1.687l0,0Zm77.537,-62.144l0,35.914c0,1.397 -1.133,2.517 -2.531,2.517c-1.397,0 -2.53,-1.133 -2.53,-2.517l0.013,-35.914c-0,-1.385 1.133,-2.518 2.53,-2.518c1.385,0 2.518,1.133 2.518,2.518Zm106.076,0l-0,35.914c-0,1.397 -1.133,2.517 -2.517,2.517c-1.397,0 -2.53,-1.133 -2.53,-2.517l0,-35.914c0,-1.385 1.133,-2.518 2.53,-2.518c1.384,0 2.517,1.133 2.517,2.518Z" style="fill:#ccc;fill-rule:nonzero;stroke:#000;stroke-width:4.17px;"/><path d="M144.298,97.974l-13.167,-6.394c-0.516,-0.252 -1.12,-0.227 -1.611,0.075c-0.491,0.29 -0.793,0.818 -0.818,1.385c-0.063,1.75 0.063,5.098 1.561,7.855c1.082,1.988 2.58,3.033 4.581,3.197c0.328,0.025 0.655,0.037 0.982,0.037c3.021,0 6.055,-1.145 8.774,-3.323c0.453,-0.365 0.679,-0.931 0.617,-1.498c-0.038,-0.579 -0.391,-1.082 -0.919,-1.334Z" style="fill:#ccc;fill-rule:nonzero;stroke:#000;stroke-width:4.17px;"/><path d="M150.24,66.706c-0.151,-0.025 -0.314,-0.025 -0.465,0c-7.729,1.057 -32.931,6.822 -32.931,36.365c-0,37.587 32.791,43.014 33.116,43.025l0.101,-0c0.327,-0.013 33.094,-5.438 33.094,-43.025c0,-29.456 -25.188,-35.283 -32.917,-36.365l0.002,0Zm24.773,34.754c-1.762,4.581 -5.123,7.301 -9.453,7.653c-6.496,0.541 -11.48,-2.669 -14.426,-5.325c-0.327,-0.289 -0.73,-0.428 -1.133,-0.428c-0.403,0 -0.805,0.139 -1.133,0.428c-2.945,2.644 -7.955,5.854 -14.425,5.325c-4.406,-0.353 -7.679,-3.008 -9.453,-7.653c-2.291,-5.98 -1.385,-13.683 0.893,-16.075c0.743,-0.78 1.977,-1.007 2.933,-0.528l20.443,9.919c0.465,0.226 1.007,0.226 1.472,0l20.443,-9.919c0.981,-0.466 2.202,-0.252 2.945,0.528c2.278,2.392 3.185,10.096 0.894,16.075Z" style="fill:#ccc;fill-rule:nonzero;stroke:#000;stroke-width:4.17px;"/><path d="M127.721,245.952c-1.8,-0 -3.26,1.46 -3.26,3.248c-0,1.787 1.46,3.248 3.26,3.248l44.572,0c1.8,0 3.26,-1.461 3.26,-3.248c0,-1.8 -1.46,-3.248 -3.26,-3.248l-44.572,-0Z" style="fill:#ccc;fill-rule:nonzero;stroke:#000;stroke-width:4.17px;"/><path d="M286.607,245.952l-104.49,-0c-0.491,-0 -0.958,0.214 -1.284,0.592c-0.329,0.365 -0.467,0.868 -0.391,1.359c0.075,0.428 0.139,0.856 0.139,1.297c-0,4.569 -3.726,8.295 -8.309,8.295l-44.561,0c-4.581,0 -8.307,-3.713 -8.307,-8.295c-0,-0.453 0.075,-0.881 0.139,-1.297c0.074,-0.491 -0.064,-0.982 -0.378,-1.359c-0.316,-0.378 -0.793,-0.592 -1.284,-0.592l-104.503,-0c-4.62,-0 -8.397,3.751 -8.397,8.384c0,4.619 3.765,8.383 8.397,8.383l273.208,0c4.632,0 8.397,-3.764 8.397,-8.383c0.012,-4.633 -3.765,-8.384 -8.385,-8.384l0.009,-0Z" style="fill:#ccc;fill-rule:nonzero;stroke:#000;stroke-width:4.17px;"/></svg>