<?xml version="1.0" encoding="UTF-8" standalone="no"?><!DOCTYPE svg PUBLIC "-//W3C//DTD SVG 1.1//EN" "http://www.w3.org/Graphics/SVG/1.1/DTD/svg11.dtd"><svg width="100%" height="100%" viewBox="0 0 300 300" version="1.1" xmlns="http://www.w3.org/2000/svg" xmlns:xlink="http://www.w3.org/1999/xlink" xml:space="preserve" xmlns:serif="http://www.serif.com/" style="fill-rule:evenodd;clip-rule:evenodd;"><path d="M195.406,235.819l-0,5.061c-0.112,0.994 -0.066,1.276 -0.499,2.189c-0.653,1.352 -1.95,2.399 -3.43,2.737c-0.365,0.079 -0.749,0.079 -1.123,0.125l-5.049,-0l0,13.058l7.14,7.148l34.172,0c0.785,-2.235 2.085,-4.283 3.795,-5.92c2.757,-2.626 6.506,-4.152 10.36,-4.185l0.194,0c5.557,0.056 10.937,3.381 13.436,8.33c2.087,4.132 2.13,9.225 0.121,13.39c-2.807,5.832 -9.575,9.511 -16.236,8.362c-5.265,-0.905 -9.831,-4.88 -11.683,-9.881l-36.25,-0c-1.333,-0.04 -2.597,-0.562 -3.572,-1.481l-10.104,-10.095c-0.912,-0.975 -1.437,-2.238 -1.48,-3.577l-0,-15.146l-20.201,-0l-0,21.116c3.643,1.329 6.788,4.02 8.521,7.499c2.046,4.109 2.085,9.166 0.082,13.308c-2.813,5.832 -9.575,9.508 -16.242,8.359c-6.296,-1.086 -11.584,-6.551 -12.435,-12.911c-0.627,-4.657 1.061,-9.57 4.435,-12.855c1.573,-1.536 3.47,-2.701 5.535,-3.433l-0,-21.083l-20.205,-0l0,15.146c-0.039,1.339 -0.564,2.602 -1.48,3.577l-10.108,10.095c-0.968,0.916 -2.232,1.441 -3.568,1.481l-36.234,-0c-0.183,0.518 -0.39,1.027 -0.627,1.519c-2.813,5.832 -9.578,9.511 -16.242,8.362c-6.296,-1.086 -11.584,-6.554 -12.438,-12.911c-0.63,-4.719 1.116,-9.694 4.566,-12.986c2.758,-2.626 6.503,-4.152 10.36,-4.185l0.197,0c5.554,0.056 10.935,3.381 13.433,8.33c0.292,0.577 0.541,1.165 0.751,1.775l34.14,0l7.14,-7.148l-0,-13.058l-5.049,-0c-0.374,-0.046 -0.758,-0.046 -1.126,-0.125c-1.484,-0.341 -2.774,-1.385 -3.424,-2.737c-0.446,-0.913 -0.39,-1.195 -0.499,-2.189l0,-5.051l-21.074,-0c-0.184,0.518 -0.394,1.027 -0.631,1.519c-2.842,5.905 -9.762,9.564 -16.429,8.327c-6.181,-1.149 -11.358,-6.528 -12.238,-12.787c-0.663,-4.739 1.08,-9.767 4.556,-13.075c2.751,-2.626 6.5,-4.152 10.357,-4.184l0.194,-0c5.561,0.055 10.941,3.38 13.439,8.336c0.289,0.571 0.542,1.161 0.748,1.765l21.082,0l-0,-20.2l-15.156,0c-1.002,-0.102 -1.983,-0.302 -2.807,-0.853c-0.273,-0.184 -0.509,-0.42 -0.762,-0.627l-30.312,-30.302c-0.636,-0.771 -1.188,-1.615 -1.385,-2.586c-0.059,-0.322 -0.059,-0.653 -0.095,-0.985l-0,-75.76l-15.156,0c-0.752,-0.085 -1.513,-0.17 -2.189,-0.499c-1.028,-0.492 -1.868,-1.342 -2.361,-2.356c-0.44,-0.912 -0.387,-1.201 -0.499,-2.192l0,-5.048l-25.263,0c-2.068,-0.052 -4.005,-1.372 -4.72,-3.262c-1.116,-2.937 1.093,-6.669 4.481,-6.836c0.082,-0 0.16,-0 0.242,-0.004l25.257,0l0,-20.2l-25.26,0c-2.058,-0.052 -4.005,-1.368 -4.72,-3.256c-1.107,-2.92 1.093,-6.675 4.481,-6.836c0.082,-0.003 0.16,-0.003 0.242,-0.003l25.257,-0l0,-20.2l-25.26,-0c-2.058,-0.053 -4.005,-1.369 -4.72,-3.263c-1.107,-2.92 1.093,-6.672 4.481,-6.836c0.082,0 0.16,0 0.242,-0.003l25.257,-0l0,-5.058c0.112,-0.991 0.062,-1.28 0.499,-2.192c0.657,-1.352 1.943,-2.392 3.43,-2.731c0.368,-0.085 0.749,-0.085 1.12,-0.128l222.264,0c0.378,0.04 0.752,0.086 1.13,0.128c0.712,0.247 1.438,0.506 2.025,0.975c0.89,0.712 1.523,1.727 1.769,2.823c0.086,0.367 0.086,0.751 0.135,1.125l0,5.048l25.253,0l0.243,0.003c3.26,0.24 5.761,3.912 4.386,7.063c-0.775,1.782 -2.646,2.983 -4.629,3.036l-25.253,-0l0,20.2l25.253,0l0.243,0.003c3.26,0.237 5.761,3.909 4.386,7.06c-0.775,1.788 -2.646,2.99 -4.629,3.035l-25.253,0l0,20.201l25.253,-0l0.243,0.003c3.26,0.236 5.761,3.912 4.386,7.063c-0.775,1.782 -2.646,2.983 -4.629,3.036l-25.253,-0l0,5.047c-0.118,0.991 -0.066,1.28 -0.499,2.192c-0.653,1.349 -1.956,2.393 -3.43,2.731c-0.371,0.085 -0.752,0.085 -1.13,0.128l-15.149,-0l0,75.757c-0.102,1.001 -0.302,1.982 -0.853,2.806c-0.184,0.272 -0.421,0.508 -0.627,0.761l-30.309,30.302c-0.771,0.637 -1.615,1.185 -2.587,1.378c-0.321,0.069 -0.653,0.069 -0.981,0.102l-15.159,0l-0,20.2l21.107,0c0.788,-2.231 2.084,-4.282 3.801,-5.917c2.751,-2.625 6.497,-4.152 10.35,-4.184l0.197,-0c5.561,0.055 10.938,3.38 13.44,8.336c2.084,4.122 2.133,9.219 0.121,13.383c-2.84,5.905 -9.763,9.564 -16.426,8.327c-5.187,-0.962 -9.668,-4.91 -11.496,-9.846l-21.095,-0Zm-45.501,40.414c-2.248,0.019 -4.379,1.7 -4.888,3.908c-0.531,2.294 0.788,4.877 2.958,5.796c2.794,1.178 6.48,-0.748 6.959,-3.879c0.424,-2.796 -1.835,-5.757 -4.894,-5.825l-0.135,-0Zm-90.922,-10.096c-2.255,0.02 -4.379,1.691 -4.888,3.903c-0.532,2.294 0.788,4.877 2.958,5.799c2.793,1.181 6.473,-0.749 6.952,-3.883c0.43,-2.799 -1.828,-5.756 -4.894,-5.819l-0.128,0Zm181.852,0c-2.256,0.02 -4.38,1.7 -4.888,3.903c-0.529,2.294 0.781,4.877 2.957,5.799c2.794,1.181 6.477,-0.749 6.956,-3.883c0.427,-2.796 -1.831,-5.756 -4.897,-5.819l-0.128,0Zm-171.751,-40.407c-2.249,0.023 -4.376,1.694 -4.888,3.906c-0.532,2.294 0.788,4.877 2.958,5.799c2.79,1.175 6.453,-0.729 6.955,-3.853c0.444,-2.803 -1.821,-5.786 -4.887,-5.852l-0.138,0Zm161.646,0c-2.251,0.023 -4.379,1.704 -4.891,3.906c-0.528,2.294 0.788,4.877 2.961,5.799c2.784,1.175 6.454,-0.722 6.953,-3.853c0.446,-2.806 -1.832,-5.786 -4.888,-5.852l-0.135,0Zm-65.633,-45.454l-30.311,-0c-0.214,0.006 -0.27,0.006 -0.48,0.026c-2.357,0.223 -4.326,2.248 -4.549,4.549c-0.02,0.213 -0.014,0.262 -0.02,0.479l-0,30.299c0.003,0.21 -0,0.265 0.02,0.479c0.226,2.366 2.248,4.325 4.549,4.552c0.214,0.019 0.269,0.013 0.48,0.019l29.78,0c0.206,-0.006 0.256,0 0.466,-0.019c1.165,-0.105 2.258,-0.647 3.105,-1.461l0.532,-0.528c0.643,-0.676 1.129,-1.503 1.339,-2.412c0.076,-0.319 0.122,-0.44 0.138,-1.156l0,-29.77c-0.003,-0.216 -0.003,-0.266 -0.026,-0.479c-0.214,-2.265 -2.094,-4.201 -4.307,-4.516c-0.21,-0.033 -0.269,-0.033 -0.479,-0.049l-0.237,-0.013Zm70.718,-85.859l-20.208,0l0,65.655c-0.092,1.001 -0.302,1.982 -0.847,2.806c-0.187,0.273 -0.416,0.509 -0.63,0.765l-10.1,10.098c-0.775,0.637 -1.622,1.192 -2.591,1.382c-0.321,0.069 -0.653,0.069 -0.984,0.095l-5.049,0l-0,20.204l13.062,-0l27.347,-27.342l0,-73.663Zm-151.539,0l-20.208,0l-0,73.666l27.347,27.342l13.065,0l0,-20.203l-5.055,-0c-0.995,-0.096 -1.983,-0.302 -2.803,-0.847c-0.276,-0.187 -0.509,-0.42 -0.768,-0.63l-10.101,-10.099c-0.637,-0.774 -1.192,-1.615 -1.385,-2.583c-0.066,-0.331 -0.066,-0.663 -0.096,-0.991l0,-65.655l0.004,0Zm30.305,60.607l-0,-60.607l-20.205,0l0,63.561l7.147,7.148l2.961,0l-0,-5.054c0.111,-0.991 0.055,-1.273 0.499,-2.192c0.659,-1.369 1.959,-2.396 3.423,-2.731c0.368,-0.079 0.752,-0.079 1.126,-0.125l5.049,0Zm90.929,-60.607l-20.205,0l0,60.607l5.049,0c0.374,0.046 0.752,0.083 1.123,0.125c1.08,0.378 2.13,0.903 2.826,1.779c0.476,0.591 0.808,1.283 0.975,2.022c0.085,0.367 0.085,0.748 0.128,1.122l0,5.054l2.958,0l7.146,-7.148l0,-63.561Zm-50.516,0l-0,60.607l20.201,0l-0,-60.607l-20.201,0Zm-30.309,0l-0,60.607l20.205,0l-0,-60.607l-20.205,0Zm-35.361,-50.499l-30.312,0c-0.078,0 -0.16,0 -0.242,0.004c-3.388,0.16 -5.587,3.918 -4.481,6.836c0.719,1.887 2.669,3.206 4.72,3.255l30.312,0c0.082,0 0.161,0 0.243,-0.003c3.388,-0.161 5.584,-3.918 4.478,-6.836c-0.687,-1.812 -2.505,-3.108 -4.478,-3.252l-0.24,-0.004Zm20.205,-20.203l-50.517,-0c-0.275,0.01 -0.348,0.003 -0.63,0.039c-2.439,0.309 -4.418,2.58 -4.418,5.008c-0,2.665 2.373,4.969 5.048,5.051l50.52,0c0.283,-0.006 0.352,-0.006 0.631,-0.042c2.219,-0.276 4.103,-2.176 4.379,-4.375c0.354,-2.777 -1.914,-5.409 -4.691,-5.671l-0.322,-0.01Zm40.412,-0l-20.204,-0c-0.066,-0 -0.138,-0 -0.204,0.003c-2.734,0.105 -4.999,2.681 -4.845,5.346c0.151,2.521 2.449,4.697 5.046,4.746l20.207,-0c0.066,-0 0.132,-0 0.204,-0.007c2.675,-0.105 4.898,-2.55 4.852,-5.142c-0.053,-2.56 -2.278,-4.792 -4.852,-4.943l-0.204,-0.003Z" style="fill:#ccc;fill-rule:nonzero;stroke:#000;stroke-width:4.17px;"/></svg>