<?xml version="1.0" encoding="UTF-8" standalone="no"?><!DOCTYPE svg PUBLIC "-//W3C//DTD SVG 1.1//EN" "http://www.w3.org/Graphics/SVG/1.1/DTD/svg11.dtd"><svg width="100%" height="100%" viewBox="0 0 300 300" version="1.1" xmlns="http://www.w3.org/2000/svg" xmlns:xlink="http://www.w3.org/1999/xlink" xml:space="preserve" xmlns:serif="http://www.serif.com/" style="fill-rule:evenodd;clip-rule:evenodd;stroke-linejoin:round;stroke-miterlimit:2;"><path d="M51.494,278.508c-3.703,-4.48 -8.383,-7.88 -13.593,-9.955l15.625,-26.558c1.236,-2.11 1.122,-4.644 -0.099,-6.588c-5.205,-8.74 -9.944,-20.824 -12.627,-30.669c-0.667,-2.367 -2.557,-4.054 -4.796,-4.519l-30.333,-7.92l0.032,-45.648l30.627,-7.956c2.29,-0.592 3.937,-2.341 4.531,-4.476l0.014,0.014c2.965,-10.833 7.218,-21.148 12.771,-30.857c1.171,-2.047 1.071,-4.465 -0.033,-6.368l-15.989,-27.289l32.29,-32.246l27.267,16.026c2.108,1.235 4.644,1.122 6.587,-0.099c8.739,-5.206 20.824,-9.945 30.668,-12.628c2.367,-0.668 4.055,-2.557 4.518,-4.797l7.909,-30.319l45.648,0.032l7.956,30.626c0.591,2.29 2.341,3.938 4.475,4.531l-0.013,0.014c10.833,2.965 21.148,7.218 30.857,12.772c2.046,1.17 4.464,1.07 6.371,-0.037l27.286,-15.986l11.623,11.639l-42.153,42.096c-41.148,-36.517 -103.946,-34.9 -143.177,4.277c-39.269,39.216 -40.871,102.043 -4.473,143.17l-39.756,39.728l-0.013,-0.011l-0,0.001Z" style="fill:#ccc;stroke:#000;stroke-width:3px;"/><path d="M163.432,134.988l75.474,75.578c4.025,4.03 -0.473,14.504 3.084,24.839c3.66,10.668 13.554,10.747 24.76,11.257l-12.395,-12.412c-1.594,-1.597 -2.159,-3.81 -1.72,-5.842l2.649,-16.634c0.452,-2.818 2.718,-4.926 5.408,-5.298l16.843,-2.652c2.085,-0.332 4.104,0.402 5.493,1.793l12.394,12.411c-0.481,-11.193 -0.569,-21.101 -11.232,-24.775c-10.265,-3.532 -20.801,0.887 -24.813,-3.131l-0.025,0.026l-75.474,-75.577c-4.025,-4.03 0.473,-14.505 -3.084,-24.839c-3.672,-10.682 -13.554,-10.748 -24.76,-11.257l11.726,11.742c1.594,1.597 2.159,3.81 1.72,5.842l-2.649,16.634c-0.452,2.818 -2.718,4.927 -5.407,5.298l-16.844,2.652c-2.084,0.332 -4.104,-0.402 -5.493,-1.793l-11.726,-11.742c0.482,11.194 0.57,21.102 11.234,24.776c10.264,3.532 20.8,-0.887 24.811,3.13l0.026,-0.026Z" style="fill:#ccc;stroke:#000;stroke-width:3px;"/><path d="M170.645,196.079l-33.142,33.096c-3.038,3.034 -12.34,-2.958 -14.686,-9.763c-1.275,-3.697 0.356,-4.586 1.927,-6.155l31.57,-31.527c3.039,-3.034 12.341,2.958 14.687,9.763c0.652,1.94 0.596,3.635 -0.357,4.586l0.001,0Z" style="fill:#ccc;stroke:#000;stroke-width:3px;"/><path d="M143.127,180.667l-38.366,-38.408c-2.88,-2.884 -6.687,-4.328 -10.483,-4.318c-13.329,-0.009 -19.67,16.095 -10.503,25.275l38.378,38.395l20.974,-20.944Z" style="fill:#ccc;stroke:#000;stroke-width:3px;"/><path d="M156.953,223.94l7.957,-7.946l42.79,42.838c0.939,0.94 2.16,1.597 3.588,1.791l13.997,2.017l11.282,22.523l-10.507,10.492l-22.508,-11.312l-1.972,-13.742c-0.14,-1.403 -0.757,-2.767 -1.824,-3.836l-42.803,-42.825Z" style="fill:#ccc;stroke:#000;stroke-width:3px;"/></svg>