<?xml version="1.0" encoding="UTF-8" standalone="no"?><!DOCTYPE svg PUBLIC "-//W3C//DTD SVG 1.1//EN" "http://www.w3.org/Graphics/SVG/1.1/DTD/svg11.dtd"><svg width="100%" height="100%" viewBox="0 0 300 300" version="1.1" xmlns="http://www.w3.org/2000/svg" xmlns:xlink="http://www.w3.org/1999/xlink" xml:space="preserve" xmlns:serif="http://www.serif.com/" style="fill-rule:evenodd;clip-rule:evenodd;stroke-linejoin:round;stroke-miterlimit:2;"><path id="Shotgun" d="M65.497,235.502l0,38.263l-51.552,-0l-0,-38.263l51.552,-0Zm0,-166.224l0,158.514l-51.552,0l-0,-158.514l51.552,0Zm6.442,212.194l0,10.932l-64.44,-0l-0,-10.932l64.44,-0Z" style="fill:#ccc;stroke:#000;stroke-width:3px;"/><path id="Pistol" d="M141.172,280.687l-0,11.717l-46.866,-0l-0,-11.717l46.866,0Zm-5.856,-135.44l-0,14.861l-35.15,-0l0,-14.861c-0.015,-12.254 3.127,-24.286 9.081,-34.793l16.984,-0c5.954,10.507 9.096,22.539 9.085,34.793Zm5.856,50.993l-0,62.067l-46.866,0l-0,-62.067l46.866,-0Zm-4.803,-27.377l3.513,18.622l-44.286,-0l3.513,-18.622l37.26,-0Zm-1.053,97.705l-0,5.86l-35.15,0l0,-5.86l35.15,0Z" style="fill:#ccc;stroke:#000;stroke-width:3px;"/><path id="Rifle" d="M203.862,110.181l7.953,29.48l-40.9,-0l7.954,-29.48l24.993,-0Zm15.33,171.092l-0,11.131l-55.653,0l-0,-11.131l55.653,0Zm-16.694,-188.421l-0,9.012l-22.262,-0l0,-9.012c0.018,-15.204 3.11,-30.227 9.069,-44.058l4.121,0c5.959,13.831 9.05,28.854 9.072,44.058Zm11.13,55.126l0,112.034l-44.522,-0l-0,-112.034l44.522,0Zm-5.567,119.882l0,5.567l-33.392,0l0,-5.567l33.392,0Z" style="fill:#ccc;stroke:#000;stroke-width:3px;"/><path id="Heavy" d="M282.265,51.651l-0,1.853l-30.53,0l0,-1.853c-0.042,-16.157 5.373,-31.814 15.267,-44.114c9.889,12.3 15.305,27.957 15.263,44.114Zm10.176,44.015l0,167.121l-50.882,0l-0,-167.121l50.882,-0Zm-8.926,-34.558l7.269,26.954l-47.568,-0l7.269,-26.954l33.03,0Zm-1.25,208.855l-0,5.09l-30.53,0l0,-5.09l30.53,0Zm10.176,12.264l0,10.177l-50.882,-0l-0,-10.177l50.882,-0Z" style="fill:#ccc;stroke:#000;stroke-width:3px;"/></svg>