<?xml version="1.0" encoding="UTF-8" standalone="no"?>
<!DOCTYPE svg PUBLIC "-//W3C//DTD SVG 1.1//EN" "http://www.w3.org/Graphics/SVG/1.1/DTD/svg11.dtd">
<svg width="100%" height="100%" viewBox="0 0 300 300" version="1.1" xmlns="http://www.w3.org/2000/svg" xmlns:xlink="http://www.w3.org/1999/xlink" xml:space="preserve" xmlns:serif="http://www.serif.com/" style="fill-rule:evenodd;clip-rule:evenodd;stroke-linejoin:round;stroke-miterlimit:2;">
    <g transform="matrix(0.719424,0,0,0.719424,0.770521,0.257064)">
        <path d="M274.763,265.351C274.763,272.692 280.708,278.637 288.049,278.637C295.39,278.637 301.335,272.692 301.335,265.351C301.335,258.03 295.416,252.099 288.102,252.072C284.042,256.105 279.679,259.859 274.975,263.273C274.863,263.957 274.763,264.64 274.763,265.351Z" style="fill:rgb(204,204,204);fill-rule:nonzero;stroke:black;stroke-width:3px;"/>
        <path d="M301.335,300.257C301.335,307.595 295.387,313.543 288.049,313.543C280.711,313.543 274.763,307.595 274.763,300.257C274.763,292.919 280.711,286.971 288.049,286.971C295.387,286.971 301.335,292.919 301.335,300.257" style="fill:rgb(204,204,204);fill-rule:nonzero;stroke:black;stroke-width:3px;"/>
        <path d="M296.102,322.745L294.693,321.689L294.693,361.547L281.407,361.547L281.407,321.689L279.998,322.745C272.558,328.325 268.121,337.2 268.121,346.493C268.121,354.425 271.211,361.88 276.817,367.492L288.051,378.727L299.284,367.492C304.891,361.887 307.98,354.425 307.98,346.493C307.98,337.2 303.543,328.325 296.103,322.745L296.102,322.745Z" style="fill:rgb(204,204,204);fill-rule:nonzero;stroke:black;stroke-width:3px;"/>
    </g>
    <g transform="matrix(0.719424,0,0,0.719424,0.770521,0.257064)">
        <path d="M141.902,265.351C141.902,264.694 141.803,264.07 141.71,263.439C136.987,259.998 132.59,256.179 128.483,252.08C121.209,252.151 115.33,258.058 115.33,265.352C115.33,272.692 121.276,278.638 128.616,278.638C135.957,278.638 141.902,272.692 141.902,265.352L141.902,265.351Z" style="fill:rgb(204,204,204);fill-rule:nonzero;stroke:black;stroke-width:3px;"/>
        <path d="M141.902,300.257C141.902,307.595 135.954,313.543 128.616,313.543C121.279,313.543 115.33,307.595 115.33,300.257C115.33,292.919 121.279,286.971 128.616,286.971C135.954,286.971 141.902,292.919 141.902,300.257" style="fill:rgb(204,204,204);fill-rule:nonzero;stroke:black;stroke-width:3px;"/>
        <path d="M136.669,322.745L135.26,321.689L135.26,361.547L121.974,361.547L121.974,321.689L120.566,322.745C113.126,328.325 108.689,337.2 108.689,346.493C108.689,354.425 111.778,361.88 117.384,367.492L128.618,378.727L139.851,367.492C145.458,361.887 148.547,354.425 148.547,346.493C148.547,337.2 144.11,328.325 136.67,322.745L136.669,322.745Z" style="fill:rgb(204,204,204);fill-rule:nonzero;stroke:black;stroke-width:3px;"/>
    </g>
    <g transform="matrix(0.719424,0,0,0.719424,0.770521,-1.74294)">
        <path d="M221.619,291.924C221.619,289.247 220.808,286.761 219.446,284.676C215.759,285.055 212.053,285.281 208.333,285.281C204.812,285.281 201.099,285.001 197.265,284.59C195.87,286.695 195.047,289.214 195.047,291.924C195.047,299.264 200.992,305.21 208.333,305.21C215.674,305.21 221.619,299.264 221.619,291.924Z" style="fill:rgb(204,204,204);fill-rule:nonzero;stroke:black;stroke-width:3px;"/>
        <path d="M221.619,326.829C221.619,334.167 215.671,340.115 208.333,340.115C200.995,340.115 195.047,334.167 195.047,326.829C195.047,319.491 200.995,313.543 208.333,313.543C215.671,313.543 221.619,319.491 221.619,326.829" style="fill:rgb(204,204,204);fill-rule:nonzero;stroke:black;stroke-width:3px;"/>
        <path d="M216.386,349.411L214.977,348.355L214.977,388.214L201.691,388.214L201.691,348.355L200.282,349.411C192.842,354.991 188.405,363.866 188.405,373.16C188.405,381.092 191.494,388.547 197.101,394.159L208.334,405.393L219.568,394.159C225.174,388.554 228.263,381.092 228.263,373.16C228.263,363.866 223.826,354.991 216.386,349.411Z" style="fill:rgb(204,204,204);fill-rule:nonzero;stroke:black;stroke-width:3px;"/>
    </g>
    <g transform="matrix(0.385549,-0.385549,0.385549,0.385549,-28.7791,95.4687)">
        <path d="M340.441,195.333L303.29,259.694L340.441,324.054C349.88,304.618 355.213,282.795 355.213,259.694C355.213,236.648 349.882,214.77 340.441,195.333Z" style="fill:rgb(204,204,204);fill-rule:nonzero;stroke:black;stroke-width:3px;"/>
        <path d="M255.479,176.953L329.723,176.953C304.456,139.858 263.586,116.313 218.662,113.203L255.479,176.953Z" style="fill:rgb(204,204,204);fill-rule:nonzero;stroke:black;stroke-width:3px;"/>
        <path d="M174.737,176.953L241.929,176.953L208.332,118.812L174.737,176.953Z" style="fill:rgb(204,204,204);fill-rule:nonzero;stroke:black;stroke-width:3px;"/>
        <path d="M86.942,176.953L161.187,176.953L198.004,113.203C153.08,116.313 112.209,139.859 86.942,176.953Z" style="fill:rgb(204,204,204);fill-rule:nonzero;stroke:black;stroke-width:3px;"/>
        <path d="M113.375,259.694L76.225,195.333C66.785,214.769 61.453,236.649 61.453,259.694C61.453,282.795 66.783,304.617 76.225,324.054L113.375,259.694Z" style="fill:rgb(204,204,204);fill-rule:nonzero;stroke:black;stroke-width:3px;"/>
        <path d="M154.357,330.662L120.205,271.466L85.999,330.662L154.357,330.662Z" style="fill:rgb(204,204,204);fill-rule:nonzero;stroke:black;stroke-width:3px;"/>
        <path d="M198.004,406.249L161.132,342.444L86.943,342.444C112.264,379.538 153.024,403.139 198.004,406.249Z" style="fill:rgb(204,204,204);fill-rule:nonzero;stroke:black;stroke-width:3px;"/>
        <path d="M255.534,342.435L218.662,406.24C263.641,403.13 304.457,379.53 329.723,342.435L255.534,342.435Z" style="fill:rgb(204,204,204);fill-rule:nonzero;stroke:black;stroke-width:3px;"/>
        <path d="M279.69,300.564L262.309,330.662L330.668,330.662L296.462,271.466L279.69,300.564Z" style="fill:rgb(204,204,204);fill-rule:nonzero;stroke:black;stroke-width:3px;"/>
        <path d="M126.98,259.694L146.691,296.898C142.693,288.014 137.532,270.023 137.532,259.694C137.532,249.477 143.864,231.37 147.75,222.595L126.98,259.694Z" style="fill:rgb(204,204,204);fill-rule:nonzero;stroke:black;stroke-width:3px;"/>
        <path d="M154.357,188.781L85.999,188.781L120.205,247.921L154.357,188.781Z" style="fill:rgb(204,204,204);fill-rule:nonzero;stroke:black;stroke-width:3px;"/>
        <path d="M248.704,188.781L167.962,188.781L147.75,222.595C161.022,204.269 185.455,188.947 208.167,188.893C231.046,188.893 255.476,208.106 268.86,226.652L248.705,188.78L248.704,188.781Z" style="fill:rgb(204,204,204);fill-rule:nonzero;stroke:black;stroke-width:3px;"/>
        <path d="M296.46,247.977L330.666,188.781L262.308,188.781L296.46,247.977Z" style="fill:rgb(204,204,204);fill-rule:nonzero;stroke:black;stroke-width:3px;"/>
        <path d="M268.804,292.792L289.686,259.694L268.86,226.652C272.803,235.48 279.135,249.421 279.135,259.694C279.135,270.022 272.802,283.963 268.804,292.792Z" style="fill:rgb(204,204,204);fill-rule:nonzero;stroke:black;stroke-width:3px;"/>
        <path d="M248.759,330.662L268.804,292.792C255.476,311.228 231.155,330.551 208.332,330.551C185.453,330.551 160.02,315.389 146.691,296.898L167.962,330.663L248.759,330.663L248.759,330.662Z" style="fill:rgb(204,204,204);fill-rule:nonzero;stroke:black;stroke-width:3px;"/>
        <path d="M208.333,400.649L241.93,342.453L174.738,342.453L208.333,400.649Z" style="fill:rgb(204,204,204);fill-rule:nonzero;stroke:black;stroke-width:3px;"/>
        <path d="M154.968,284.96L202.447,256.64L202.447,200.998C172.293,203.997 149.304,229.374 149.304,259.694C149.304,268.745 151.359,277.297 154.967,284.962L154.968,284.96Z" style="fill:rgb(204,204,204);fill-rule:nonzero;stroke:black;stroke-width:3px;"/>
        <path d="M255.534,295.122L208.222,266.858L161.021,295.012C172.127,309.95 189.675,318.723 208.333,318.723C226.991,318.723 244.372,310.005 255.534,295.122Z" style="fill:rgb(204,204,204);fill-rule:nonzero;stroke:black;stroke-width:3px;"/>
        <path d="M214.219,256.806L261.642,285.07C265.308,277.408 267.362,268.8 267.362,259.693C267.362,229.373 244.372,203.995 214.219,200.997L214.219,256.806Z" style="fill:rgb(204,204,204);fill-rule:nonzero;stroke:black;stroke-width:3px;"/>
        <path d="M237.042,62.837L179.623,62.837L179.623,103.596C198.56,100.152 218.106,100.152 237.042,103.596L237.042,62.837Z" style="fill:rgb(204,204,204);fill-rule:nonzero;stroke:black;stroke-width:3px;"/>
        <rect x="179.623" y="10.416" width="57.419" height="13.216" style="fill:rgb(204,204,204);stroke:black;stroke-width:3px;"/>
        <path d="M162.464,35.46C158.19,35.46 154.634,38.958 154.634,43.235C154.634,47.51 158.188,51.01 162.464,51.01L254.201,51.01C258.476,51.01 262.032,47.566 262.032,43.235C262.032,38.96 258.534,35.46 254.201,35.46L162.464,35.46Z" style="fill:rgb(204,204,204);fill-rule:nonzero;stroke:black;stroke-width:3px;"/>
    </g>
</svg>
