<?xml version="1.0" encoding="UTF-8" standalone="no"?><!DOCTYPE svg PUBLIC "-//W3C//DTD SVG 1.1//EN" "http://www.w3.org/Graphics/SVG/1.1/DTD/svg11.dtd"><svg width="100%" height="100%" viewBox="0 0 300 300" version="1.1" xmlns="http://www.w3.org/2000/svg" xmlns:xlink="http://www.w3.org/1999/xlink" xml:space="preserve" xmlns:serif="http://www.serif.com/" style="fill-rule:evenodd;clip-rule:evenodd;stroke-linejoin:round;stroke-miterlimit:2;"><path d="M149.97,86.737c34.708,-0 62.849,28.142 62.849,62.848c0,18.198 -7.737,34.586 -20.106,46.067c-2.342,-8.581 -7.219,-16.155 -13.771,-21.835c-7.778,-6.756 -17.925,-10.856 -28.972,-10.856c-11.047,-0 -21.181,4.1 -28.972,10.856c-6.552,5.68 -11.429,13.253 -13.772,21.835c-12.368,-11.483 -20.105,-27.869 -20.105,-46.067c-0,-34.708 28.142,-62.848 62.848,-62.848l0.001,-0Zm0.003,24.675c-6.265,0 -11.945,2.548 -16.046,6.648c-4.113,4.113 -6.647,9.78 -6.647,16.045c-0,6.266 2.547,11.946 6.647,16.046c4.114,4.114 9.78,6.648 16.046,6.648c6.266,-0 11.946,-2.548 16.046,-6.648c4.114,-4.113 6.648,-9.78 6.648,-16.046c0,-6.265 -2.548,-11.945 -6.648,-16.045c-4.1,-4.101 -9.78,-6.648 -16.046,-6.648Zm10.884,11.81c2.792,2.792 4.508,6.634 4.508,10.883c0,4.25 -1.729,8.105 -4.508,10.884c-2.779,2.792 -6.634,4.509 -10.884,4.509c-4.249,-0 -8.104,-1.73 -10.883,-4.509c-2.792,-2.779 -4.509,-6.634 -4.509,-10.884c-0,-4.249 1.73,-8.104 4.509,-10.883c2.779,-2.792 6.634,-4.509 10.883,-4.509c4.25,-0 8.105,1.73 10.884,4.509Zm25.553,77.587l-0.001,-0c-10.27,7.314 -22.857,11.632 -36.436,11.632c-13.58,0 -26.166,-4.304 -36.437,-11.632c1.512,-8.5 5.953,-16.019 12.232,-21.468c6.497,-5.639 14.97,-9.058 24.205,-9.058c9.235,0 17.708,3.419 24.205,9.058c6.28,5.449 10.72,12.968 12.232,21.468Z" style="fill:#ccc;stroke:#000;stroke-width:3px;"/><path d="M271.5,100.921c6.212,15.487 9.358,31.982 9.358,48.667c0,17.204 -3.324,33.63 -9.358,48.682c-2.193,-1.022 -4.481,-1.893 -6.824,-2.615c5.721,-14.234 8.868,-29.777 8.868,-46.053c-0,-15.8 -2.97,-31.409 -8.854,-46.052c2.343,-0.749 4.618,-1.621 6.811,-2.629l-0.001,-0Z" style="fill:#ccc;stroke:#000;stroke-width:3px;"/><path d="M198.653,271.121c-15.052,6.034 -31.48,9.358 -48.682,9.358c-17.203,-0 -33.63,-3.324 -48.682,-9.358c1.021,-2.193 1.893,-4.481 2.615,-6.824c14.234,5.721 29.776,8.867 46.052,8.867c16.276,-0 31.819,-3.146 46.052,-8.867c0.736,2.356 1.621,4.631 2.643,6.824l0.002,-0Z" style="fill:#ccc;stroke:#000;stroke-width:3px;"/><path d="M28.444,198.273c-6.034,-15.051 -9.358,-31.479 -9.358,-48.682c0,-17.203 3.324,-33.63 9.358,-48.682c2.193,1.022 4.482,1.893 6.824,2.615c-5.721,14.234 -8.867,29.777 -8.867,46.053c-0,16.275 3.146,31.819 8.867,46.052c-2.356,0.735 -4.631,1.621 -6.824,2.642l0,0.002Z" style="fill:#ccc;stroke:#000;stroke-width:3px;"/><path d="M101.291,28.065c15.052,-6.035 31.48,-9.358 48.682,-9.358c17.19,0 33.618,3.324 48.668,9.358c-1.022,2.193 -1.894,4.467 -2.616,6.797c-14.22,-5.708 -29.761,-8.854 -46.052,-8.854c-16.277,0 -31.819,3.146 -46.052,8.867c-0.722,-2.343 -1.607,-4.617 -2.629,-6.81l-0.001,0Z" style="fill:#ccc;stroke:#000;stroke-width:3px;"/><path d="M195.075,235.392c-5.026,2.656 -10.298,4.863 -15.76,6.606c-9.262,2.942 -19.111,4.522 -29.34,4.522c-10.257,0 -20.173,-1.607 -29.504,-4.59c-5.421,-1.73 -10.638,-3.923 -15.596,-6.538c-0.872,-3.692 -2.125,-7.247 -3.705,-10.611c6.62,4.317 13.839,7.764 21.494,10.215c8.582,2.738 17.763,4.223 27.311,4.223c9.467,0 18.579,-1.471 27.134,-4.182c7.75,-2.465 15.024,-5.925 21.657,-10.243c-1.566,3.364 -2.819,6.906 -3.691,10.597l-0,0.001l0,-0Z" style="fill:#ccc;stroke:#000;stroke-width:3px;"/><path d="M64.175,194.693c-2.153,-4.086 -4.019,-8.336 -5.585,-12.736c-3.596,-10.134 -5.544,-21.031 -5.544,-32.365c0,-16.278 4.018,-31.628 11.115,-45.102c3.705,-0.872 7.274,-2.139 10.652,-3.719c-9.14,14.044 -14.452,30.811 -14.452,48.819c-0,10.516 1.798,20.581 5.121,29.939c2.37,6.701 5.517,13.022 9.317,18.879c-3.378,-1.594 -6.933,-2.847 -10.624,-3.719l0,0.004Z" style="fill:#ccc;stroke:#000;stroke-width:3px;"/><path d="M104.874,63.778c13.472,-7.097 28.823,-11.115 45.102,-11.115c16.279,-0 31.628,4.018 45.102,11.115c0.872,3.705 2.139,7.273 3.719,10.651c-14.044,-9.139 -30.811,-14.452 -48.819,-14.452c-18.007,-0 -34.774,5.313 -48.818,14.452c1.593,-3.378 2.847,-6.946 3.718,-10.651l-0.004,0Z" style="fill:#ccc;stroke:#000;stroke-width:3px;"/><path d="M235.789,104.492c7.097,13.471 11.115,28.823 11.115,45.102c0,11.333 -1.947,22.23 -5.543,32.365c-1.553,4.4 -3.433,8.65 -5.585,12.736c-3.692,0.872 -7.247,2.125 -10.611,3.705c3.8,-5.857 6.946,-12.177 9.316,-18.879c3.311,-9.344 5.122,-19.424 5.122,-29.939c0,-18.007 -5.312,-34.775 -14.452,-48.819c3.364,1.608 6.933,2.861 10.638,3.733l-0,-0.004Z" style="fill:#ccc;stroke:#000;stroke-width:3px;"/><path d="M282.41,17.55c18.687,18.697 18.687,49.128 0,67.807c-9.059,9.056 -21.098,14.044 -33.925,14.044c-12.827,0 -24.866,-4.988 -33.925,-14.044c-18.704,-18.696 -18.704,-49.127 0,-67.807c9.059,-9.055 21.098,-14.043 33.925,-14.043c12.81,-0 24.866,4.988 33.925,14.043Zm-8.255,14.023c-6.664,-6.678 -17.347,-6.812 -25.418,-0.301l-0.235,0.201l-0.251,-0.201c-8.071,-6.478 -18.771,-6.361 -25.436,0.301c-6.63,6.628 -7.334,17.191 -1.741,25.694c6.045,9.222 14.015,15.097 23.242,21.893l1.674,1.239c0.754,0.552 1.641,0.837 2.529,0.837c0.887,-0 1.775,-0.285 2.528,-0.837l1.608,-1.189c9.243,-6.829 17.214,-12.704 23.309,-21.944c5.592,-8.502 4.872,-19.065 -1.759,-25.693l-0.05,-0Zm-20.111,6.294c3.852,-3.097 9.913,-4.519 14.116,-0.301c3.751,3.766 4.036,9.959 0.67,15.064c-5.057,7.683 -12.14,13.056 -20.345,19.115c-8.205,-6.059 -15.305,-11.415 -20.345,-19.115c-3.366,-5.122 -3.098,-11.315 0.653,-15.064c1.859,-1.875 4.086,-2.628 6.33,-2.628c2.83,-0 5.66,1.205 7.803,2.929l2.897,2.343c1.557,1.256 3.767,1.256 5.325,0l2.896,-2.343Z" style="fill:#ccc;stroke:#000;stroke-width:3px;"/><path d="M85.394,85.407c-9.06,9.061 -21.103,14.052 -33.932,14.052c-12.813,0 -24.872,-4.991 -33.916,-14.052c-18.708,-18.708 -18.708,-49.14 -0,-67.848c9.028,-9.061 21.07,-14.052 33.899,-14.052c12.829,0 24.871,4.991 33.933,14.052c18.708,18.708 18.708,49.158 0,67.848l0.016,0Zm-7.352,-40.732c0,-4.522 -3.685,-8.19 -8.19,-8.19l-4.773,0l0.435,-4.472c0.636,-6.683 -3.149,-10.703 -7.168,-11.708c-4.505,-1.139 -8.994,1.273 -10.92,5.795l-5.309,12.143l-11.791,0c-2.981,0 -5.393,2.428 -5.393,5.393l0,24.905c0,2.965 2.428,5.376 5.393,5.376l37.131,-0c3.081,-0 6.666,-1.808 7.486,-6.867c0,-0.033 0.017,-0.05 0.017,-0.083l3.065,-21.706c0.033,-0.201 0.05,-0.402 0.05,-0.587l-0.033,0.001Zm-44.671,20.768l0,-18.742l4.556,-0l-0,18.742l-4.556,-0Zm23.884,-21.891l0,0.017c0.804,0.888 1.943,1.39 3.132,1.39l9.094,-0l-2.897,20.5l-20.199,0l0,-19.763c1.407,-0.77 2.529,-1.926 3.165,-3.4l5.628,-12.846c0.285,-0.67 0.687,-1.038 1.055,-0.938c0.519,0.134 0.955,1.106 0.804,2.697l-0.871,9.094c-0.1,1.189 0.285,2.362 1.089,3.249l0,0Z" style="fill:#ccc;stroke:#000;stroke-width:3px;"/><path d="M200.533,248.472c-0,-26.447 21.502,-47.947 47.947,-47.947c26.445,0 47.946,21.517 47.946,47.947c-0,26.446 -21.517,47.962 -47.946,47.962c-26.447,0 -47.947,-21.517 -47.947,-47.962Zm36.112,-5.49l-1.579,10.183l-15.422,-0c-2.421,-0 -4.398,1.962 -4.398,4.398c-0,2.42 1.963,4.398 4.398,4.398l14.064,-0l-2.287,14.713c-0.369,2.391 1.269,4.634 3.66,5.018c0.221,0.03 0.457,0.044 0.679,0.044c2.125,0 3.999,-1.549 4.338,-3.718l2.494,-16.057l8.413,-0l-2.288,14.714c-0.369,2.39 1.269,4.634 3.66,5.017c0.222,0.03 0.458,0.045 0.679,0.045c2.125,-0 3.999,-1.55 4.339,-3.719l2.494,-16.057l17.473,-0c2.421,-0 4.398,-1.963 4.398,-4.398c-0,-2.435 -1.962,-4.398 -4.398,-4.398l-16.101,-0l1.579,-10.183l14.522,0c2.421,0 4.398,-1.963 4.398,-4.398c-0,-2.42 -1.962,-4.398 -4.398,-4.398l-13.164,-0l2.155,-13.902c0.369,-2.406 -1.269,-4.634 -3.66,-5.018c-2.391,-0.369 -4.634,1.269 -5.018,3.66l-2.376,15.245l-8.397,-0l2.154,-13.902c0.369,-2.405 -1.269,-4.634 -3.66,-5.018c-2.405,-0.369 -4.649,1.269 -5.018,3.66l-2.376,15.245l-18.373,-0c-2.421,-0 -4.398,1.963 -4.398,4.398c0,2.436 1.963,4.398 4.398,4.398l17.001,0l0.015,0.03Zm17.297,-0l-1.594,10.183l-8.398,-0l1.579,-10.183l8.413,0Z" style="fill:#ccc;stroke:#000;stroke-width:3px;"/><path d="M99.409,248.472c-0,26.446 -21.503,47.962 -47.947,47.962c-26.445,0 -47.947,-21.517 -47.947,-47.962c0,-26.446 21.517,-47.947 47.947,-47.947c26.446,0 47.947,21.517 47.947,47.947Zm-15.024,-9.687c-0.841,-2.582 -3.232,-4.309 -5.933,-4.309l-16.086,-0l-4.974,-15.304c-0.841,-2.583 -3.217,-4.324 -5.933,-4.324c-2.715,-0 -5.106,1.741 -5.933,4.324l-4.973,15.304l-16.086,-0c-2.716,-0 -5.107,1.741 -5.948,4.309c-0.841,2.583 0.074,5.387 2.273,6.981l13.016,9.46l-4.973,15.304c-0.841,2.583 0.059,5.372 2.258,6.981c2.199,1.593 5.15,1.593 7.335,0l13.016,-9.46l13.017,9.46c1.092,0.796 2.391,1.195 3.66,1.195c1.284,0 2.583,-0.398 3.675,-1.195c2.199,-1.594 3.099,-4.398 2.273,-6.981l-4.974,-15.304l13.017,-9.46c2.199,-1.594 3.099,-4.398 2.273,-6.981l-0,0Zm-29.812,0.148l-0.029,0c0.841,2.583 3.232,4.324 5.948,4.324l10.124,0l-8.191,5.948c-2.199,1.594 -3.114,4.397 -2.273,6.98l3.129,9.622l-8.176,-5.947c-2.184,-1.594 -5.136,-1.594 -7.335,0l-8.191,5.947l3.129,-9.622c0.841,-2.583 -0.074,-5.387 -2.273,-6.98l-8.191,-5.948l10.124,0c2.716,0 5.107,-1.741 5.948,-4.324l3.129,-9.622l3.128,9.622Z" style="fill:#ccc;stroke:#000;stroke-width:3px;"/></svg>