<?xml version="1.0" encoding="UTF-8" standalone="no"?><!DOCTYPE svg PUBLIC "-//W3C//DTD SVG 1.1//EN" "http://www.w3.org/Graphics/SVG/1.1/DTD/svg11.dtd"><svg width="100%" height="100%" viewBox="0 0 300 300" version="1.1" xmlns="http://www.w3.org/2000/svg" xmlns:xlink="http://www.w3.org/1999/xlink" xml:space="preserve" xmlns:serif="http://www.serif.com/" style="fill-rule:evenodd;clip-rule:evenodd;stroke-linejoin:round;stroke-miterlimit:2;"><path d="M182.838,27.539c0,13.266 -10.741,24.025 -24.018,24.025c-13.272,-0 -24.018,-10.761 -24.018,-24.025c0,-13.268 10.746,-24.024 24.018,-24.024c13.274,-0.003 24.018,10.756 24.018,24.024Z" style="fill:#ccc;fill-rule:nonzero;stroke:#000;stroke-width:3px;"/><path d="M94.014,17.916c-18.247,-4.422 -36.571,6.782 -40.971,25.009l-14.795,61.154l49.783,12.363l-1.634,6.587l-49.744,-12.357l-4.822,19.939c-3.546,14.579 2.583,21.65 17.197,25.431c2.137,0.545 25.509,5.931 34.826,8.068l-3.694,14.789c-0.569,2.266 0.813,4.579 3.089,5.141c0.361,0.085 1.469,0.329 1.822,0.323c1.89,-0.015 3.597,-1.301 4.079,-3.215l29.876,-122.257c4.405,-18.224 -6.794,-36.569 -25.011,-40.976l-0.001,0.001Zm2.525,70.23l-36.18,-9.036l7.324,-30.345l6.047,1.457l-5.876,24.346l24.166,6.032l6.074,-24.09l6.032,1.523l-7.587,30.113Z" style="fill:#ccc;fill-rule:nonzero;stroke:#000;stroke-width:3px;"/><path d="M258.341,56.841l-111.485,0c-0.888,0 -2.601,0.138 -3.311,0.34c-13.152,2.255 -17.977,17.899 -17.977,17.899l-13.895,58.38l39.431,-22.998l-3.58,-7.739c-0.78,-1.686 -0.045,-3.685 1.641,-4.449c1.673,-0.794 3.672,-0.054 4.451,1.635l4.709,10.147c0.006,0.028 0.027,0.045 0.039,0.064c0.039,0.054 0.033,0.106 0.054,0.166l9.087,19.59l0.915,1.857c0.534,1.045 2.451,3.005 4.239,3.733l36.548,13.949l-23.338,40.134l-30.609,-28.74l6.129,-28.143l-7.447,-16.081l-44.423,25.911l-17.188,72.166l-36.383,56.916c-1.349,1.899 -2.023,4.156 -2.023,6.851c-0.536,4.56 0.677,8.513 3.628,11.897c2.946,3.344 6.719,5.282 11.282,5.837c6.716,0.517 11.818,-2.168 15.301,-8.074l38.814,-60.908c0.8,-1.629 1.87,-3.886 3.227,-6.879l7.718,-32.51l35.872,29.422l-42.409,72.894c-1.162,2.005 -0.478,4.575 1.52,5.746c0.665,0.391 1.387,0.572 2.11,0.572c1.441,-0 2.85,-0.755 3.63,-2.092l36.228,-62.283l-0.051,49.372c1.625,7.796 6.59,12.092 14.916,12.911c4.56,0.265 8.519,-1.072 11.875,-4.027c3.347,-2.983 5.162,-6.596 5.427,-10.879l-0,-3.633l-0.303,-61.589c-0,-4.864 -1.129,-9.719 -4.218,-12.799l-6.333,-5.972l25.253,-43.437c6.71,0.404 11.53,-3.423 12.502,-10.045c0.659,-4.377 -2.258,-8.419 -5.746,-9.735l-37.633,-13.402l-14.747,-40.472l86.558,-0c5.936,-0 10.747,-4.813 10.747,-10.749c-0.004,-5.943 -4.817,-10.753 -10.751,-10.753l-0.002,-0.001l0.001,-0l-0,0Z" style="fill:#ccc;fill-rule:nonzero;stroke:#000;stroke-width:3px;"/></svg>