<?xml version="1.0" encoding="UTF-8" standalone="no"?><!DOCTYPE svg PUBLIC "-//W3C//DTD SVG 1.1//EN" "http://www.w3.org/Graphics/SVG/1.1/DTD/svg11.dtd"><svg width="100%" height="100%" viewBox="0 0 300 300" version="1.1" xmlns="http://www.w3.org/2000/svg" xmlns:xlink="http://www.w3.org/1999/xlink" xml:space="preserve" xmlns:serif="http://www.serif.com/" style="fill-rule:evenodd;clip-rule:evenodd;stroke-linejoin:round;stroke-miterlimit:2;"><g><path d="M116.531,48.021l-1.848,11.334c-0.291,1.788 0.462,3.585 1.944,4.629c1.481,1.043 3.428,1.148 5.012,0.272l9.406,-5.198l9.403,5.198c0.717,0.396 1.506,0.591 2.289,0.591c0.956,0 1.91,-0.291 2.726,-0.863c1.479,-1.044 2.235,-2.841 1.944,-4.629l-1.848,-11.334l7.793,-7.988c1.238,-1.269 1.664,-3.122 1.1,-4.805c-0.563,-1.68 -2.018,-2.906 -3.77,-3.173l-10.579,-1.617l-4.775,-10.171c-0.783,-1.662 -2.45,-2.72 -4.283,-2.72c-1.836,-0 -3.503,1.058 -4.283,2.72l-4.775,10.171l-10.579,1.617c-1.752,0.267 -3.21,1.493 -3.771,3.173c-0.563,1.683 -0.137,3.536 1.101,4.805l7.793,7.988Z" style="fill:#ccc;fill-rule:nonzero;stroke:#000;stroke-width:3px;"/><path d="M50.786,230.724l-10.579,-1.614l-4.775,-10.174c-0.78,-1.659 -2.447,-2.72 -4.283,-2.72c-1.833,-0 -3.5,1.061 -4.28,2.72l-4.775,10.174l-10.579,1.614c-1.752,0.27 -3.21,1.493 -3.77,3.176c-0.564,1.68 -0.138,3.533 1.097,4.805l7.796,7.988l-1.851,11.334c-0.291,1.788 0.465,3.585 1.947,4.629c1.478,1.04 3.425,1.148 5.012,0.272l9.403,-5.201l9.406,5.201c0.714,0.393 1.503,0.591 2.289,0.591c0.956,0 1.91,-0.291 2.726,-0.863c1.479,-1.044 2.235,-2.841 1.944,-4.629l-1.851,-11.334l7.796,-7.988c1.238,-1.272 1.661,-3.125 1.1,-4.805c-0.567,-1.683 -2.021,-2.906 -3.773,-3.176Z" style="fill:#ccc;fill-rule:nonzero;stroke:#000;stroke-width:3px;"/><path d="M248.724,275.616l-1.848,11.335c-0.291,1.788 0.462,3.584 1.944,4.628c1.481,1.044 3.425,1.149 5.012,0.273l9.406,-5.198l9.406,5.198c0.714,0.396 1.5,0.591 2.289,0.591c0.953,-0 1.907,-0.291 2.723,-0.864c1.482,-1.044 2.235,-2.84 1.944,-4.628l-1.848,-11.335l7.793,-7.987c1.238,-1.269 1.661,-3.126 1.1,-4.805c-0.564,-1.683 -2.018,-2.907 -3.773,-3.174l-10.576,-1.616l-4.778,-10.174c-0.78,-1.659 -2.447,-2.721 -4.28,-2.721c-1.833,0 -3.5,1.062 -4.28,2.721l-4.778,10.174l-10.576,1.616c-1.755,0.267 -3.21,1.491 -3.774,3.174c-0.56,1.679 -0.137,3.533 1.101,4.805l7.793,7.987Z" style="fill:#ccc;fill-rule:nonzero;stroke:#000;stroke-width:3px;"/><path d="M285.157,85.783c-0.564,-1.682 -2.018,-2.909 -3.773,-3.176l-10.579,-1.617l-4.775,-10.171c-0.777,-1.659 -2.448,-2.72 -4.28,-2.72c-1.836,-0 -3.504,1.061 -4.281,2.72l-4.778,10.171l-10.575,1.617c-1.755,0.27 -3.21,1.494 -3.774,3.176c-0.561,1.68 -0.138,3.534 1.101,4.805l7.793,7.988l-1.848,11.335c-0.291,1.784 0.462,3.584 1.943,4.625c1.482,1.046 3.426,1.151 5.013,0.276l9.406,-5.198l9.406,5.198c0.714,0.393 1.503,0.59 2.285,0.59c0.96,0 1.914,-0.294 2.727,-0.866c1.482,-1.041 2.237,-2.841 1.943,-4.625l-1.847,-11.335l7.795,-7.988c1.236,-1.268 1.659,-3.125 1.098,-4.805Z" style="fill:#ccc;fill-rule:nonzero;stroke:#000;stroke-width:3px;"/><path d="M88.471,60.117c-2.61,0 -4.73,2.118 -4.73,4.73c-0,7.826 -6.365,14.191 -14.191,14.191c-2.612,-0 -4.73,2.117 -4.73,4.73c0,2.612 2.118,4.73 4.73,4.73c7.826,-0 14.191,6.367 14.191,14.193c-0,2.612 2.12,4.73 4.73,4.73c2.615,-0 4.733,-2.118 4.733,-4.73c-0,-7.826 6.365,-14.193 14.19,-14.193c2.612,-0 4.73,-2.118 4.73,-4.73c0,-2.613 -2.118,-4.73 -4.73,-4.73c-7.825,-0 -14.19,-6.365 -14.19,-14.191c-0,-2.612 -2.118,-4.73 -4.733,-4.73Z" style="fill:#ccc;fill-rule:nonzero;stroke:#000;stroke-width:3px;"/><path d="M50.63,41.197c7.826,-0 14.19,6.365 14.19,14.19c0,2.613 2.118,4.73 4.73,4.73c2.613,0 4.731,-2.117 4.731,-4.73c-0,-7.825 6.367,-14.19 14.19,-14.19c2.612,-0 4.733,-2.118 4.733,-4.73c-0,-2.613 -2.118,-4.73 -4.733,-4.73c-7.823,-0 -14.19,-6.368 -14.19,-14.19c-0,-2.613 -2.118,-4.733 -4.731,-4.733c-2.612,-0 -4.73,2.12 -4.73,4.733c0,7.822 -6.364,14.19 -14.19,14.19c-2.612,-0 -4.73,2.117 -4.73,4.73c-0,2.612 2.118,4.73 4.73,4.73Z" style="fill:#ccc;fill-rule:nonzero;stroke:#000;stroke-width:3px;"/><path d="M12.229,93.231c7.825,-0 14.19,6.365 14.19,14.19c-0,2.612 2.117,4.73 4.73,4.73c2.612,0 4.73,-2.118 4.73,-4.73c-0,-7.825 6.368,-14.19 14.193,-14.19c2.613,-0 4.73,-2.118 4.73,-4.733c0,-2.61 -2.117,-4.73 -4.73,-4.73c-7.825,-0 -14.193,-6.365 -14.193,-14.191c-0,-2.612 -2.118,-4.73 -4.73,-4.73c-2.613,0 -4.73,2.118 -4.73,4.73c-0,7.826 -6.365,14.191 -14.19,14.191c-2.613,-0 -4.73,2.12 -4.73,4.73c-0,2.615 2.117,4.733 4.73,4.733Z" style="fill:#ccc;fill-rule:nonzero;stroke:#000;stroke-width:3px;"/><path d="M26.98,178.375c2.612,0 4.73,-2.118 4.73,-4.73l-0,-4.73l4.73,-0c2.612,-0 4.73,-2.118 4.73,-4.733c-0,-2.61 -2.118,-4.73 -4.73,-4.73l-4.73,-0l-0,-4.73c-0,-2.613 -2.118,-4.73 -4.73,-4.73c-2.613,-0 -4.73,2.117 -4.73,4.73l-0,4.73l-4.73,-0c-2.613,-0 -4.733,2.12 -4.733,4.73c-0,2.615 2.117,4.733 4.733,4.733l4.73,-0l-0,4.73c-0,2.612 2.117,4.73 4.73,4.73Z" style="fill:#ccc;fill-rule:nonzero;stroke:#000;stroke-width:3px;"/><path d="M59.655,196.858l-4.73,-0l0,-4.73c0,-2.613 -2.117,-4.73 -4.733,-4.73c-2.609,-0 -4.73,2.117 -4.73,4.73l0,4.73l-4.73,-0c-2.612,-0 -4.73,2.118 -4.73,4.73c0,2.616 2.118,4.733 4.73,4.733l4.73,0l0,4.73c0,2.613 2.121,4.73 4.73,4.73c2.616,0 4.733,-2.117 4.733,-4.73l0,-4.73l4.73,0c2.613,0 4.73,-2.117 4.73,-4.733c0,-2.612 -2.117,-4.73 -4.73,-4.73Z" style="fill:#ccc;fill-rule:nonzero;stroke:#000;stroke-width:3px;"/><path d="M278.501,205.877c2.61,-0 4.73,-2.121 4.73,-4.733l0,-4.73l4.73,-0c2.61,-0 4.73,-2.118 4.73,-4.73c0,-2.613 -2.12,-4.73 -4.73,-4.73l-4.73,-0l0,-4.73c0,-2.613 -2.12,-4.731 -4.73,-4.731c-2.615,0 -4.73,2.118 -4.73,4.731l0,4.73l-4.73,-0c-2.615,-0 -4.73,2.117 -4.73,4.73c-0,2.612 2.115,4.73 4.73,4.73l4.73,-0l0,4.73c0,2.612 2.118,4.733 4.73,4.733Z" style="fill:#ccc;fill-rule:nonzero;stroke:#000;stroke-width:3px;"/><path d="M246.873,230.751l0,-4.733l4.733,0c2.613,0 4.73,-2.118 4.73,-4.73c0,-2.612 -2.117,-4.73 -4.73,-4.73l-4.733,-0l0,-4.73c0,-2.613 -2.117,-4.73 -4.73,-4.73c-2.612,-0 -4.73,2.117 -4.73,4.73l-0,4.73l-4.73,-0c-2.613,-0 -4.73,2.118 -4.73,4.73c-0,2.612 2.117,4.73 4.73,4.73l4.73,0l-0,4.733c-0,2.613 2.118,4.73 4.73,4.73c2.613,0 4.73,-2.117 4.73,-4.73Z" style="fill:#ccc;fill-rule:nonzero;stroke:#000;stroke-width:3px;"/><path d="M249.869,35.879c7.825,-0 14.193,6.368 14.193,14.193c0,2.613 2.118,4.73 4.73,4.73c2.613,0 4.73,-2.117 4.73,-4.73c0,-7.825 6.365,-14.193 14.19,-14.193c2.613,-0 4.731,-2.118 4.731,-4.73c-0,-2.613 -2.118,-4.73 -4.731,-4.73c-7.825,-0 -14.19,-6.365 -14.19,-14.19c0,-2.613 -2.117,-4.73 -4.73,-4.73c-2.612,-0 -4.73,2.117 -4.73,4.73c0,7.825 -6.368,14.19 -14.193,14.19c-2.613,-0 -4.73,2.117 -4.73,4.73c-0,2.612 2.117,4.73 4.73,4.73Z" style="fill:#ccc;fill-rule:nonzero;stroke:#000;stroke-width:3px;"/></g><g id="Layer1"><path d="M214.437,202.026l-128.945,0c0.225,4.124 0.342,8.272 0.342,12.382c0,19.943 -2.607,39.832 -7.744,59.109c-0.576,2.148 -0.126,4.388 1.226,6.149c1.353,1.763 3.405,2.774 5.627,2.774l130.046,0c3.915,0 7.1,-3.17 7.1,-7.066c-0,-0.618 -0.084,-1.242 -0.246,-1.848c-6.233,-23.371 -8.719,-47.397 -7.409,-71.5l0.003,0Z" style="fill:#ccc;fill-rule:nonzero;stroke:#000;stroke-width:3px;"/><path d="M218.666,168.915l-137.4,0c1.58,7.814 2.765,15.735 3.524,23.651l130.355,-0c0.756,-7.916 1.941,-15.834 3.521,-23.651Z" style="fill:#ccc;fill-rule:nonzero;stroke:#000;stroke-width:3px;"/><path d="M78.984,158.762c0.057,0.237 0.114,0.462 0.171,0.693l141.626,-0c0.054,-0.231 0.111,-0.456 0.168,-0.69l2.192,-8.771l-146.347,0l2.19,8.768l-0,-0Z" style="fill:#ccc;fill-rule:nonzero;stroke:#000;stroke-width:3px;"/><path d="M50.63,131.071c0,5.216 4.244,9.46 9.46,9.46l179.749,0c5.219,0 9.463,-4.244 9.463,-9.46c0,-5.216 -4.244,-9.46 -9.463,-9.46l-179.749,-0c-5.216,-0 -9.46,4.244 -9.46,9.46Z" style="fill:#ccc;fill-rule:nonzero;stroke:#000;stroke-width:3px;"/><path d="M190.844,70.981l-5.165,-1.206l-35.567,42.373l12.361,0l30.453,-36.287l-2.082,-4.88Z" style="fill:#ccc;fill-rule:nonzero;stroke:#000;stroke-width:3px;"/><path d="M190.565,45.447l-14.73,12.319l19.493,4.547c1.467,0.342 2.681,1.365 3.275,2.75l7.859,18.408l9.577,-16.644c0.798,-1.386 2.24,-2.274 3.836,-2.364l19.301,-1.079l-13.272,-14.731c-1.032,-1.145 -1.443,-2.723 -1.098,-4.223l4.379,-19.13l-18.083,7.628c-1.419,0.599 -3.042,0.47 -4.346,-0.345l-16.809,-10.519l2.28,19.196c0.189,1.587 -0.435,3.161 -1.662,4.187Z" style="fill:#ccc;fill-rule:nonzero;stroke:#000;stroke-width:3px;"/></g></svg>