<?xml version="1.0" encoding="UTF-8" standalone="no"?><!DOCTYPE svg PUBLIC "-//W3C//DTD SVG 1.1//EN" "http://www.w3.org/Graphics/SVG/1.1/DTD/svg11.dtd"><svg width="100%" height="100%" viewBox="0 0 300 300" version="1.1" xmlns="http://www.w3.org/2000/svg" xmlns:xlink="http://www.w3.org/1999/xlink" xml:space="preserve" xmlns:serif="http://www.serif.com/" style="fill-rule:evenodd;clip-rule:evenodd;stroke-linejoin:round;stroke-miterlimit:2;"><path d="M116.491,5.003c-2.369,0.031 -4.795,0.361 -7.26,1.057c-23.246,6.576 -22.646,49.903 -22.193,59.88l125.925,0c0.453,-9.978 1.059,-53.305 -22.185,-59.88c-2.465,-0.696 -4.893,-1.024 -7.261,-1.057c-14.121,-0.194 -26.191,18.385 -33.509,18.385c-7.318,0 -19.393,-18.577 -33.515,-18.385l-0.002,0Z" style="fill:#ccc;stroke:#000;stroke-width:3px;"/><path d="M58.628,74.339c-5.278,0 -9.527,4.249 -9.527,9.527l-0,6.732l201.798,0l0,-6.732c0,-5.278 -4.247,-9.527 -9.527,-9.527l-182.744,0Z" style="fill:#ccc;stroke:#000;stroke-width:3px;"/><path d="M95.577,97.491l0,8.13l16.103,0c-0,10.872 5.429,19.691 19.712,19.691c14.286,-0 19.71,-8.819 19.71,-19.691l0,-4.066c0,-1.799 -0.304,-4.064 -4.063,-4.064l-51.462,-0Z" style="fill:#ccc;stroke:#000;stroke-width:3px;"/><path d="M165.153,97.491l0,8.13l16.102,0c-0,10.872 5.429,19.691 19.713,19.691c14.285,-0 19.71,-8.819 19.71,-19.691l0,-4.066c0,-1.799 -0.305,-4.064 -4.064,-4.064l-51.461,-0Z" style="fill:#ccc;stroke:#000;stroke-width:3px;"/><path d="M74.766,137.975l9.37,52.581c-23.373,32.781 -60.302,76.133 -60.302,104.444l120.003,0l0,-117.15l-69.072,-39.876l0.001,0.001Z" style="fill:#ccc;stroke:#000;stroke-width:3px;"/><path d="M225.237,137.975l-69.072,39.876l-0,117.15l120.002,0c0,-28.31 -36.926,-71.66 -60.302,-104.444l9.371,-52.58l0.001,-0.002l0,0Z" style="fill:#ccc;stroke:#000;stroke-width:3px;"/></svg>