<?xml version="1.0" encoding="UTF-8" standalone="no"?><!DOCTYPE svg PUBLIC "-//W3C//DTD SVG 1.1//EN" "http://www.w3.org/Graphics/SVG/1.1/DTD/svg11.dtd"><svg width="100%" height="100%" viewBox="0 0 300 300" version="1.1" xmlns="http://www.w3.org/2000/svg" xmlns:xlink="http://www.w3.org/1999/xlink" xml:space="preserve" xmlns:serif="http://www.serif.com/" style="fill-rule:evenodd;clip-rule:evenodd;stroke-linejoin:round;stroke-miterlimit:2;"><rect x="89.52" y="59.603" width="34.277" height="29.603" style="fill:#ccc;stroke:#000;stroke-width:3px;"/><path d="M32.806,147.297l-29.291,0l-0,-97.533l29.602,0l0,63.568l27.735,-0l-0,56.091l-28.046,0l0,-22.126Z" style="fill:#ccc;fill-rule:nonzero;stroke:#000;stroke-width:3px;"/><rect x="68.64" y="190.478" width="31.16" height="49.857" style="fill:#ccc;stroke:#000;stroke-width:3px;"/><g><rect x="79.906" y="19.16" width="34.277" height="34.277" style="fill:#ccc;stroke:#000;stroke-width:3px;"/></g><g><rect x="184.821" y="19.16" width="34.277" height="34.277" style="fill:#ccc;stroke:#000;stroke-width:3px;"/></g><rect x="175.211" y="59.603" width="34.277" height="29.603" style="fill:#ccc;stroke:#000;stroke-width:3px;"/><g><rect x="43.989" y="246.505" width="38.951" height="34.277" style="fill:#ccc;stroke:#000;stroke-width:3px;"/></g><path d="M68.64,96.997l162.973,-0l0,85.694l-162.973,-0l0,-85.694Zm106.882,57.959l34.277,0l0,-34.276l-34.277,-0l0,34.276Zm-86.316,0l34.277,0l-0,-34.276l-34.277,-0l-0,34.276Z" style="fill:#ccc;stroke:#000;stroke-width:3px;"/><path d="M267.135,147.609l-0,21.812l-28.046,-0l0,-56.088l27.735,-0l-0,-63.257l29.602,0l0,97.533l-29.291,0Z" style="fill:#ccc;fill-rule:nonzero;stroke:#000;stroke-width:3px;"/><g><rect x="216.686" y="246.502" width="38.951" height="34.277" style="fill:#ccc;stroke:#000;stroke-width:3px;"/></g><rect x="200.138" y="190.478" width="31.16" height="49.857" style="fill:#ccc;stroke:#000;stroke-width:3px;"/><g><path d="M101.197,150.356l17.14,0l-0,-9.659l-4.052,-0l0,-4.052l4.052,0l-0,-6.509l-17.14,0l-0,20.22Z" style="fill:#ccc;fill-rule:nonzero;stroke:#000;stroke-width:3px;"/><path d="M187.513,150.356l17.137,0l0,-9.659l-4.051,-0l-0,-4.052l4.051,0l0,-6.509l-17.137,0l0,20.22Z" style="fill:#ccc;fill-rule:nonzero;stroke:#000;stroke-width:3px;"/></g></svg>