<svg style="height: 512px; width: 512px;" xmlns="http://www.w3.org/2000/svg" viewBox="0 0 512 512"><g class="" style="" transform="translate(0,0)"><path d="M280.3 30.04c-33.4 19.78-70.7 55.47-104.5 97.06-47.4 58.3-88.85 127.5-109.81 176.6l1.69 8.9 7.61-1.4.83-1.5c16.57-30.5 41.98-66 72.18-101.7 38.3-61.4 84.1-127.56 132-177.96zm113.9 2.72c-43 15.92-96.3 52.79-146.1 97.94-64.9 59-124.9 131.3-154.73 185.2l1.6 11.6 12.93-5.8c8.3-9.9 17-19.9 24.4-28 64.8-85.2 170.9-189.4 261.9-260.94zM473 81.09c-47.5 7.72-106.6 38.31-163.9 79.31-71.2 50.9-140 116.6-183.9 168.7l1.4 19.5L151 347c73.7-85.1 198.4-193.7 322-265.91zM47.34 303L18 344v144l37.32-14s50.58 17.1 72.68 17.7c31.5.8 72.7-48.2 74.7-57.7 1.6-7.9-3.8-14.7-8.8-21.4-19.9 14.2-35.1 20.7-61.8 6.5 30.6-6.1 34.2-5.7 53.6-21.9 10-9 12.3-19.8 11.5-29.5-.5-6-14.3-10.5-22.4-20.5-5.6 6.2-10 11.3-15.1 17.2l-49.7 3.4-1.9-26.5-28.48 10-2.58-22.1-23.74 4.2c-1.9-10.6-4.11-21.6-5.96-30.4z" fill="#ffffff" fill-opacity="1"></path></g><g class="" style="" transform="translate(256,256)"><g><circle cx="128" cy="128" r="128" fill="#000000" fill-opacity="0.01"></circle><circle stroke="#f0f0f0" stroke-opacity="1" fill="#000000" fill-opacity="0.01" stroke-width="18" cx="128" cy="128" r="101"></circle><path fill="#f0f0f0" fill-opacity="1" d="M150.094 59.7L139.07 78.695c-7.27-1.615-15.652-1.322-22.142.234l-10.791-19.054L80.33 74.858 91.5 94.554a48.133 48.133 0 0 0-9.938 18.63l-23.52.105-.197 29.834 25.035-.119a49.2 49.2 0 0 0 9.666 15.859L79.5 181.36l25.61 14.852 13.108-22.596a47.62 47.62 0 0 0 18.542.3l13.102 22.58 25.623-15.283c-4.08-7.22-8.161-14.44-12.244-21.66a48.554 48.554 0 0 0 10.252-16.378l24.464-.092.198-29.834-23.235-.156a48.717 48.717 0 0 0-10.387-19.304l11.172-19.24zm-19.705 44.292c12.71 1.043 22.352 12.16 21.787 25.043-.584 13.297-11.839 23.598-25.137 23.015-13.3-.582-23.855-11.836-23.018-25.121.905-14.35 13.161-24.021 26.368-22.937z"></path></g></g></svg>